<svg width="1914" height="406" viewBox="0 0 1914 406" fill="none" xmlns="http://www.w3.org/2000/svg">
<path fill-rule="evenodd" clip-rule="evenodd" d="M373.01 110.01L375.96 148.04L391.67 351.03L392.66 363.71C392.98 367.83 396.42 371 400.83 371H566.17C570.42 371 574.02 367.83 574.34 363.71L575.33 351.03L591.05 148.04L593.99 110.01H373.01Z" fill="#E74645"/>
<path fill-rule="evenodd" clip-rule="evenodd" d="M373.01 110.01L375.96 148.04L391.67 351H575.33L591.05 148.04L593.99 110.01H373.01Z" fill="#01C3B4"/>
<path fill-rule="evenodd" clip-rule="evenodd" d="M373.01 110.01L375.96 148.04L391.67 351H575.33L591.05 148.04L593.99 110.01H373.01Z" fill="#F56038"/>
<path fill-rule="evenodd" clip-rule="evenodd" d="M373.01 110.01L375.96 148H591.05L593.99 110.01H373.01Z" fill="#E74645"/>
<path fill-rule="evenodd" clip-rule="evenodd" d="M588.68 114.22L569.54 363.76C569.37 365.51 567.91 366.78 566.1 366.78H400.88C399.09 366.78 397.45 365.51 397.45 363.76L378.15 114.22H588.68ZM368 105.01L387.97 364.4C388.45 370.91 394.18 376 400.88 376H566.1C572.81 376 578.53 370.91 579.03 364.4L598.99 105.01H368Z" fill="#005A35"/>
<path fill-rule="evenodd" clip-rule="evenodd" d="M374.16 90.01C368.43 90.01 363.19 92.18 359.24 95.89C357.27 97.75 355.63 100.07 354.65 102.56C353.49 104.89 353 107.36 353 109.99C353 121.16 362.52 129.99 374.16 129.99H591.81C597.57 129.99 602.81 127.82 606.76 124.1C610.52 120.53 613 115.57 613 109.99C613 107.36 612.49 104.89 611.35 102.56C608.39 95.2801 600.67 90.01 591.81 90.01H374.16Z" fill="#E74645"/>
<path fill-rule="evenodd" clip-rule="evenodd" d="M374.55 90.01C368.81 90.01 363.56 92.16 359.61 95.83C357.64 97.67 356 99.9701 355.01 102.43C357.96 109.79 365.68 115 374.55 115H592.43C598.19 115 603.44 112.71 607.39 109.17C609.36 107.33 611 105.03 611.99 102.43C609.03 95.2201 601.3 90.01 592.43 90.01H374.55Z" fill="#F56038"/>
<path fill-rule="evenodd" clip-rule="evenodd" d="M592.02 94.1801C598.76 94.1801 604.69 98.14 607.31 104.15C607.98 106.05 608.46 107.95 608.46 110C608.46 114.28 606.66 118.23 603.53 121.24C600.41 124.23 596.29 125.82 592.02 125.82H373.98C364.95 125.82 357.55 118.7 357.55 110C357.55 107.95 358.05 106.05 358.87 104.15C359.52 102.08 360.84 100.36 362.48 98.77C365.61 95.76 369.72 94.1801 373.98 94.1801H592.02ZM373.98 85C367.08 85 360.67 87.54 355.75 92.28C353.12 94.82 351.14 97.66 349.99 100.67C348.66 103.67 348.01 106.84 348.01 110C348.01 123.77 359.7 134.99 373.98 134.99H592.02C598.93 134.99 605.34 132.46 610.28 127.72C615.21 122.97 618 116.64 618 110C618 106.84 617.34 103.67 616.02 100.82C612.09 91.1799 602.71 85 592.02 85H373.98Z" fill="#005A35"/>
<path fill-rule="evenodd" clip-rule="evenodd" d="M457.79 245C457.39 245 456.99 245.06 456.62 245.16L447.72 247.86C445.23 248.5 443.91 251.03 444.75 253.25C445.23 255.16 446.88 256.26 448.69 256.26L435.85 278.48C435.01 279.75 435.01 281.5 435.85 282.77C436.65 284.04 438.15 284.99 439.79 284.99H477.53C480.02 284.99 482 282.92 482 280.55C482 278.16 480.02 276.26 477.53 276.26H447.53L456.43 260.87C457.27 261.97 458.58 262.46 459.91 262.46H460.89C463.37 261.97 464.85 259.6 464.36 257.22L462.38 248.5C462.04 247.23 461.39 246.28 460.24 245.64C459.45 245.22 458.61 245 457.79 245Z" fill="white"/>
<path fill-rule="evenodd" clip-rule="evenodd" d="M509.53 247.01C508.81 247.01 508.08 247.18 507.37 247.53C505.24 248.82 504.42 251.54 505.73 253.64L518.52 276.02H503.44C504.26 274.4 503.93 272.48 502.62 271.18C501.74 270.24 500.53 269.75 499.31 269.75C498.27 269.75 497.22 270.12 496.38 270.86L489.49 277.15C488.51 277.95 488.01 279.24 488.01 280.37C488.01 281.66 488.51 282.78 489.49 283.59L496.38 289.87C497.2 290.67 498.35 291 499.34 291C500.65 291 501.79 290.5 502.62 289.54C503.93 288.25 504.26 286.32 503.44 284.88H526.25C527.89 284.88 529.35 283.91 530.18 282.62C531 281.34 531 279.56 530.18 278.27L513.61 249.29C512.69 247.85 511.15 247.01 509.53 247.01Z" fill="white"/>
<path fill-rule="evenodd" clip-rule="evenodd" d="M482.94 200.01C481.31 200.01 479.83 200.8 479.01 202.25L461.15 233.15C460.01 235.39 460.66 237.95 462.78 239.23C463.49 239.58 464.23 239.74 464.95 239.74C466.57 239.74 468.1 238.91 469.01 237.48L482.94 213.29L492.12 228.99C490.48 229.3 489.17 230.27 488.52 231.86C487.54 234.1 488.85 236.67 491.14 237.48L499.82 240.84C500.31 241 500.8 241 501.45 241C502.11 241 502.76 241 503.42 240.68C504.57 240.04 505.39 239.08 505.71 237.95L508.34 229.15C508.99 226.91 507.68 224.34 505.39 223.71C504.99 223.61 504.61 223.57 504.22 223.57C502.67 223.57 501.22 224.31 500.31 225.46L486.88 202.25C486.05 200.8 484.58 200.01 482.94 200.01Z" fill="white"/>
<path fill-rule="evenodd" clip-rule="evenodd" d="M458.01 244.52C458.82 244.52 459.65 244.67 460.32 245.15C461.46 245.79 462.12 246.74 462.46 248.01L464.44 256.72C464.93 259.11 463.45 261.48 460.97 261.97H459.99C458.66 261.97 457.35 261.48 456.51 260.37L447.61 275.76H477.61C480.1 275.76 482.08 277.67 482.08 280.05C482.08 282.42 480.1 284.49 477.61 284.49H439.87C438.23 284.49 436.73 283.54 435.92 282.27C435.09 281 435.09 279.25 435.92 277.98L448.77 255.77C446.96 255.77 445.31 254.67 444.82 252.76C443.99 250.54 445.31 248.01 447.79 247.37L456.69 244.67C457.18 244.52 457.5 244.52 458.01 244.52ZM458.01 238C456.85 238 455.86 238.17 454.71 238.49L445.81 241.17C439.7 242.93 436.41 248.96 438.23 254.67C438.56 255.93 439.22 256.89 439.87 257.84L429.98 274.81C428.01 278.15 428.01 282.27 430.14 285.6C432.12 288.93 435.75 290.99 439.87 290.99H477.61C483.88 290.99 489 286.08 489 280.05C489 274.02 483.88 269.27 477.61 269.27H459.16L459.48 268.63H459.99C460.8 268.63 461.63 268.46 462.46 268.31C465.41 267.67 467.9 265.93 469.54 263.55C471.2 261.16 471.68 258.15 471.02 255.31L469.05 246.57C468.39 243.57 466.4 241.02 463.77 239.44C461.96 238.49 459.99 238 458.01 238Z" fill="#005A35"/>
<path fill-rule="evenodd" clip-rule="evenodd" d="M509.49 247.47C510.98 247.47 512.62 248.27 513.45 249.68L530.08 278.07C530.91 279.33 530.91 281.08 530.08 282.34C529.25 283.6 527.78 284.54 526.14 284.54H503.24C504.07 285.95 503.73 287.85 502.42 289.11C501.58 290.05 500.44 290.54 499.12 290.54C498.13 290.54 496.98 290.22 496.15 289.43L489.24 283.28C488.25 282.49 487.76 281.39 487.76 280.13C487.76 279.02 488.25 277.76 489.24 276.97L496.15 270.81C496.98 270.18 498.13 269.72 499.12 269.72C500.44 269.72 501.58 270.18 502.42 271.13C503.73 272.4 504.07 274.28 503.24 275.86H518.38L505.54 253.94C504.23 251.89 505.05 249.22 507.18 247.96C508.02 247.63 508.68 247.47 509.49 247.47ZM509.49 241.01C507.52 241.01 505.54 241.47 503.89 242.27C498.46 245.26 496.49 251.89 499.61 257.1L503.89 264.19C502.42 263.56 500.78 263.25 499.12 263.25C496.31 263.25 493.52 264.35 491.55 266.09L484.63 272.24C482.33 274.28 481.01 277.12 481.01 280.13C481.01 283.12 482.33 286.13 484.63 288.17L491.55 294.16C493.52 296.05 496.31 297 499.12 297C502.25 297 505.39 295.74 507.52 293.53C508.17 292.75 508.84 291.95 509.33 291H526.14C530.24 291 533.86 288.96 536.01 285.64C537.99 282.34 537.99 278.23 536.01 274.92L519.37 246.52C517.23 243.06 513.45 241.01 509.49 241.01Z" fill="#005A35"/>
<path fill-rule="evenodd" clip-rule="evenodd" d="M482.92 200.42C484.58 200.42 486.06 201.19 486.89 202.61L500.45 225.26C501.27 224.17 502.76 223.39 504.25 223.39C504.58 223.39 505.07 223.39 505.57 223.55C507.88 224.17 509.21 226.68 508.55 228.86L505.9 237.45C505.57 238.55 504.75 239.49 503.59 240.12C502.92 240.43 502.26 240.43 501.6 240.43C500.94 240.43 500.45 240.43 499.95 240.27L491.19 236.99C488.88 236.2 487.56 233.7 488.55 231.51C489.21 229.95 490.53 229.01 492.19 228.7L482.92 213.38L468.87 236.99C468.05 238.39 466.4 239.18 464.9 239.18C464.08 239.18 463.42 239.02 462.59 238.7C460.44 237.45 459.79 234.95 460.94 232.77L478.96 202.61C479.79 201.19 481.27 200.42 482.92 200.42ZM482.92 194.01C478.79 194.01 474.99 196.05 473 199.48L454.98 229.64C452 234.81 453.83 241.37 459.28 244.33C460.94 245.11 462.91 245.58 464.9 245.58C469.04 245.58 472.68 243.55 474.82 240.12L482.92 226.52L483.26 227.13C482.92 227.76 482.43 228.38 482.27 229.17C479.95 234.63 482.92 240.89 488.71 242.92L497.48 246.2C498.8 246.68 500.12 246.99 501.6 246.99C503.26 246.99 505.07 246.52 506.56 245.89C509.37 244.49 511.52 242.15 512.35 239.33L515.15 230.74C515.99 227.92 515.66 225.11 514.17 222.61C512.68 220.12 510.37 218.24 507.4 217.45C506.41 217.14 505.24 216.99 504.25 216.99H503.26L492.84 199.48C490.87 196.05 487.05 194.01 482.92 194.01Z" fill="#005A35"/>
<path fill-rule="evenodd" clip-rule="evenodd" d="M24.0098 110.01L26.9697 148.04L42.5897 351.03L43.5797 363.71C43.9197 367.83 47.5298 371 51.8098 371H218.2C222.47 371 226.09 367.83 226.25 363.71L227.24 351.03L243.03 148.04L246 110.01H24.0098Z" fill="#8C979E"/>
<path fill-rule="evenodd" clip-rule="evenodd" d="M24.0098 110.01L26.9697 148.04L42.5897 351H227.24L243.03 148.04L246 110.01H24.0098Z" fill="#8C979E"/>
<path fill-rule="evenodd" clip-rule="evenodd" d="M24.0098 110.01L26.9697 148.04L42.5897 351H227.24L243.03 148.04L246 110.01H24.0098Z" fill="#E4ECF2"/>
<path fill-rule="evenodd" clip-rule="evenodd" d="M24.0098 110.01L26.9697 148H243.03L246 110.01H24.0098Z" fill="#8C979E"/>
<path fill-rule="evenodd" clip-rule="evenodd" d="M240.8 114.22L221.56 363.76C221.41 365.51 219.91 366.78 218.12 366.78H51.8998C50.0898 366.78 48.6097 365.51 48.4497 363.76L29.1997 114.22H240.8ZM19.0098 105.01L39.0697 364.4C39.5697 370.91 45.1598 376 51.8998 376H218.12C224.85 376 230.44 370.91 230.93 364.4L250.99 105.01H19.0098Z" fill="#005A35"/>
<path fill-rule="evenodd" clip-rule="evenodd" d="M26.1997 90.01C20.4497 90.01 15.0397 92.18 11.2397 95.89C9.12975 97.75 7.63975 100.07 6.48975 102.56C5.50975 104.89 5.00977 107.36 5.00977 109.99C5.00977 121.16 14.5297 129.99 26.1997 129.99H243.81C249.72 129.99 254.98 127.82 258.76 124.1C262.7 120.53 265 115.57 265 109.99C265 107.36 264.49 104.89 263.52 102.56C260.4 95.2801 252.85 90.01 243.81 90.01H26.1997Z" fill="#8C979E"/>
<path fill-rule="evenodd" clip-rule="evenodd" d="M25.71 90.01C19.96 90.01 14.54 92.16 10.75 95.83C8.63 97.67 7.14 99.9701 6 102.43C9.12 109.79 16.67 115 25.71 115H243.29C249.2 115 254.46 112.71 258.24 109.17C260.37 107.33 262.01 105.03 263 102.43C259.88 95.2201 252.33 90.01 243.29 90.01H25.71Z" fill="white"/>
<path fill-rule="evenodd" clip-rule="evenodd" d="M109.79 245C109.38 245 108.98 245.06 108.6 245.16L99.5396 247.86C97.2296 248.5 95.9095 251.03 96.5695 253.25C97.2295 255.16 98.8695 256.26 100.69 256.26L87.6596 278.48C87.0096 279.75 87.0095 281.5 87.8195 282.77C88.6495 284.04 90.1296 284.99 91.6296 284.99H129.54C132.01 284.99 133.99 282.92 133.99 280.55C133.99 278.16 132.01 276.26 129.54 276.26H99.3696L108.44 260.87C109.26 261.97 110.58 262.46 111.9 262.46H112.89C115.36 261.97 116.85 259.6 116.35 257.22L114.37 248.5C114.05 247.23 113.21 246.28 112.22 245.64C111.46 245.22 110.61 245 109.79 245Z" fill="white"/>
<path fill-rule="evenodd" clip-rule="evenodd" d="M161.45 247.01C160.74 247.01 160.02 247.18 159.37 247.53C157.23 248.82 156.41 251.54 157.55 253.64L170.52 276.02H155.42C156.08 274.4 155.92 272.48 154.61 271.18C153.72 270.24 152.47 269.75 151.2 269.75C150.12 269.75 149.04 270.12 148.21 270.86L141.31 277.15C140.49 277.95 140 279.24 140 280.37C140 281.66 140.49 282.78 141.31 283.59L148.21 289.87C149.2 290.67 150.18 291 151.32 291C152.48 291 153.79 290.5 154.61 289.54C155.92 288.25 156.08 286.32 155.42 284.88H178.23C179.86 284.88 181.35 283.91 182.17 282.62C182.99 281.34 182.99 279.56 182.17 278.27L165.42 249.29C164.64 247.85 163.06 247.01 161.45 247.01Z" fill="white"/>
<path fill-rule="evenodd" clip-rule="evenodd" d="M135.03 200.01C133.39 200.01 131.93 200.8 131.1 202.25L113.32 233.15C112.01 235.39 112.83 237.95 114.95 239.23C115.6 239.58 116.32 239.74 117.02 239.74C118.63 239.74 120.19 238.91 120.98 237.48L135.03 213.29L144.01 228.99C142.54 229.3 141.07 230.27 140.58 231.86C139.6 234.1 140.75 236.67 143.03 237.48L151.68 240.84C152.34 241 152.83 241 153.32 241C153.97 241 154.79 241 155.27 240.68C156.43 240.04 157.23 239.08 157.73 237.95L160.34 229.15C161 226.91 159.68 224.34 157.23 223.71C156.85 223.61 156.45 223.57 156.07 223.57C154.54 223.57 153.12 224.31 152.34 225.46L138.94 202.25C138.14 200.8 136.66 200.01 135.03 200.01Z" fill="white"/>
<path fill-rule="evenodd" clip-rule="evenodd" d="M244 94.1801C250.91 94.1801 256.82 98.14 259.31 104.15C260.12 106.05 260.45 107.95 260.45 110C260.45 114.28 258.8 118.23 255.68 121.24C252.55 124.23 248.45 125.82 244 125.82H26C16.95 125.82 9.55005 118.7 9.55005 110C9.55005 107.95 9.86994 106.05 10.6899 104.15C11.5199 102.08 12.6701 100.36 14.3101 98.77C17.4401 95.76 21.55 94.1801 26 94.1801H244ZM26 85C19.09 85 12.5099 87.54 7.56995 92.28C5.09995 94.82 3.12006 97.66 1.81006 100.67C0.660059 103.67 0 106.84 0 110C0 123.77 11.68 134.99 26 134.99H244C250.91 134.99 257.49 132.46 262.42 127.72C267.36 122.97 269.99 116.64 269.99 110C269.99 106.84 269.34 103.67 268.19 100.82C264.24 91.1799 254.69 85 244 85H26Z" fill="#005A35"/>
<path fill-rule="evenodd" clip-rule="evenodd" d="M110.08 244.52C110.91 244.52 111.58 244.67 112.39 245.15C113.38 245.79 114.22 246.74 114.54 248.01L116.53 256.72C117.03 259.11 115.54 261.48 113.05 261.97H112.06C110.74 261.97 109.42 261.48 108.6 260.37L99.5096 275.76H129.75C132.22 275.76 134.21 277.67 134.21 280.05C134.21 282.42 132.22 284.49 129.75 284.49H91.7396C90.2396 284.49 88.7696 283.54 87.9296 282.27C87.1196 281 87.1196 279.25 87.7696 277.98L100.83 255.77C99.0095 255.77 97.3595 254.67 96.6995 252.76C96.0395 250.54 97.3596 248.01 99.6796 247.37L108.76 244.67C109.08 244.52 109.59 244.52 110.08 244.52ZM110.08 238C108.93 238 107.76 238.17 106.77 238.49L97.6895 241.17C91.7395 242.93 88.4396 248.96 90.2396 254.67C90.5796 255.93 91.0796 256.89 91.8996 257.84L81.9896 274.81C79.9996 278.15 79.9996 282.27 81.9896 285.6C83.9696 288.93 87.7696 290.99 91.7396 290.99H129.75C135.87 290.99 140.99 286.08 140.99 280.05C140.99 274.02 135.87 269.27 129.75 269.27H111.24L111.58 268.63H112.06C112.9 268.63 113.72 268.46 114.54 268.31C117.52 267.67 119.99 265.93 121.65 263.55C123.3 261.16 123.81 258.15 123.14 255.31L121.16 246.57C120.5 243.57 118.52 241.02 115.69 239.44C114.05 238.49 112.06 238 110.08 238Z" fill="#005A35"/>
<path fill-rule="evenodd" clip-rule="evenodd" d="M161.42 247.47C163.05 247.47 164.55 248.27 165.35 249.68L182.12 278.07C182.94 279.33 182.94 281.08 182.12 282.34C181.3 283.6 179.81 284.54 178.17 284.54H155.34C156 285.95 155.83 287.85 154.52 289.11C153.7 290.05 152.39 290.54 151.23 290.54C150.09 290.54 149.1 290.22 148.12 289.43L141.21 283.28C140.39 282.49 139.9 281.39 139.9 280.13C139.9 279.02 140.39 277.76 141.21 276.97L148.12 270.81C149.1 270.18 150.09 269.72 151.23 269.72C152.39 269.72 153.7 270.18 154.52 271.13C155.83 272.4 156 274.28 155.34 275.86H170.45L157.47 253.94C156.32 251.89 157.14 249.22 159.29 247.96C159.94 247.63 160.75 247.47 161.42 247.47ZM161.42 241.01C159.61 241.01 157.64 241.47 156 242.27C150.57 245.26 148.6 251.89 151.73 257.1L155.83 264.19C154.35 263.56 152.87 263.25 151.23 263.25C148.44 263.25 145.64 264.35 143.52 266.09L136.61 272.24C134.31 274.28 133 277.12 133 280.13C133 283.12 134.31 286.13 136.61 288.17L143.52 294.16C145.64 296.05 148.44 297 151.23 297C154.35 297 157.31 295.74 159.44 293.53C160.27 292.75 160.92 291.95 161.26 291H178.17C182.12 291 185.9 288.96 187.87 285.64C189.84 282.34 190 278.23 188.03 274.92L171.27 246.52C169.3 243.06 165.53 241.01 161.42 241.01Z" fill="#005A35"/>
<path fill-rule="evenodd" clip-rule="evenodd" d="M135.09 200.42C136.74 200.42 138.24 201.19 139.05 202.61L152.62 225.26C153.45 224.17 154.77 223.39 156.42 223.39C156.76 223.39 157.24 223.39 157.57 223.55C160.05 224.17 161.39 226.68 160.72 228.86L158.08 237.45C157.57 238.55 156.76 239.49 155.59 240.12C155.1 240.43 154.27 240.43 153.61 240.43C153.11 240.43 152.62 240.43 151.95 240.27L143.19 236.99C140.88 236.2 139.72 233.7 140.71 231.51C141.21 229.95 142.7 229.01 144.19 228.7L135.09 213.38L120.87 236.99C120.05 238.39 118.56 239.18 116.91 239.18C116.25 239.18 115.42 239.02 114.77 238.7C112.61 237.45 111.79 234.95 113.11 232.77L131.12 202.61C131.95 201.19 133.43 200.42 135.09 200.42ZM135.09 194.01C130.96 194.01 127.16 196.05 125.17 199.48L107.16 229.64C104.01 234.81 106 241.37 111.46 244.33C113.11 245.11 115.09 245.58 116.91 245.58C121.04 245.58 124.84 243.55 126.82 240.12L135.09 226.52L135.42 227.13C134.93 227.76 134.61 228.38 134.27 229.17C132.11 234.63 134.93 240.89 140.71 242.92L149.48 246.2C150.8 246.68 152.28 246.99 153.61 246.99C155.43 246.99 157.09 246.52 158.56 245.89C161.54 244.49 163.7 242.15 164.51 239.33L167.16 230.74C168 227.92 167.66 225.11 166.34 222.61C164.85 220.12 162.38 218.24 159.56 217.45C158.41 217.14 157.41 216.99 156.42 216.99H155.43L144.85 199.48C142.87 196.05 139.05 194.01 135.09 194.01Z" fill="#005A35"/>
<path fill-rule="evenodd" clip-rule="evenodd" d="M153.01 33.01L157.11 86.46L179.29 372.6L180.6 390.68C181.08 396.4 186.01 401 192.09 401H425.75C431.82 401 436.91 396.4 437.23 390.68L438.71 372.6L460.89 86.46L464.99 33.01H153.01Z" fill="#6BB36B"/>
<path fill-rule="evenodd" clip-rule="evenodd" d="M153.01 33.01L157.11 86.52L179.29 372.99H438.71L460.89 86.52L464.99 33.01H153.01Z" fill="#99FF99"/>
<path fill-rule="evenodd" clip-rule="evenodd" d="M153.01 33.01L157.11 86.99H460.89L464.99 33.01H153.01Z" fill="#6BB36B"/>
<path fill-rule="evenodd" clip-rule="evenodd" d="M460.8 38.2L433.48 390.77C433.16 394.11 430.19 396.8 426.58 396.8H192.42C188.96 396.8 186 394.11 185.67 390.77L158.36 38.2H460.8ZM148 29.01L176.14 391.4C176.79 399.5 184.03 405.99 192.42 405.99H426.58C435.12 405.99 442.21 399.5 442.86 391.4L471 29.01H148Z" fill="#005A35"/>
<path fill-rule="evenodd" clip-rule="evenodd" d="M155.88 5.01001C147.67 5.01001 140.28 8.14005 134.87 13.3C131.75 16.27 129.29 20.04 127.8 24.11C126.66 27.08 126.01 30.21 126.01 33.5C126.01 49.15 139.47 61.99 155.88 61.99H462.12C470.49 61.99 477.88 58.7 483.29 53.54C488.72 48.36 491.99 41.32 491.99 33.5C491.99 30.21 491.49 27.08 490.35 24.11C486.24 12.98 475.25 5.01001 462.12 5.01001H155.88Z" fill="#6BB36B"/>
<path fill-rule="evenodd" clip-rule="evenodd" d="M156.03 5.01001C147.83 5.01001 140.46 8.12001 135.06 13.26C131.94 16.21 129.49 19.95 128 24C131.94 35.04 143.08 42.99 156.03 42.99H461.81C470.17 42.99 477.55 39.88 482.95 34.73C486.06 31.78 488.52 28.05 490 24C485.89 12.94 474.92 5.01001 461.81 5.01001H156.03Z" fill="#99FF99"/>
<path fill-rule="evenodd" clip-rule="evenodd" d="M274.18 221C273.56 221 272.96 221.09 272.36 221.27L259.66 225.14C256.36 226.11 254.38 229.65 255.53 232.88C256.36 235.45 258.67 237.07 261.32 237.22L242.99 268.8C242 270.59 242 272.99 243.16 274.93C244.15 276.85 246.29 278 248.6 278H301.73C305.2 278 308 275.25 308 271.71C308 268.33 305.2 265.58 301.73 265.58H259.49L272.03 243.67C273.36 245.12 275 246.09 276.98 246.09C277.48 246.09 277.97 245.92 278.3 245.92C281.77 245.12 283.91 241.9 283.26 238.51L280.45 225.94C279.96 224.18 278.96 222.71 277.31 221.92C276.37 221.3 275.28 221 274.18 221Z" fill="white"/>
<path fill-rule="evenodd" clip-rule="evenodd" d="M346.17 225.01C345.12 225.01 344.05 225.26 343.06 225.77C340.12 227.53 338.98 231.17 340.78 234.2L358.71 265.17H337.52C338.66 262.95 338.18 260.41 336.54 258.5C335.25 257.25 333.56 256.61 331.86 256.61C330.33 256.61 328.8 257.13 327.57 258.18L317.96 266.77C316.66 267.89 316 269.62 316 271.22C316 272.96 316.66 274.71 317.96 275.83L327.57 284.41C328.87 285.51 330.34 286 331.81 286C333.6 286 335.24 285.36 336.54 284.09C338.18 282.18 338.66 279.64 337.52 277.42H369.47C371.75 277.42 373.71 276.29 374.84 274.39C375.99 272.48 375.99 270.11 374.84 268.35L351.7 228.15C350.48 226.11 348.36 225.01 346.17 225.01Z" fill="white"/>
<path fill-rule="evenodd" clip-rule="evenodd" d="M309.29 159C306.99 159 305.02 160.11 303.88 162.02L278.65 205.08C277.01 208.08 278 211.73 281.09 213.46C282.1 213.97 283.18 214.23 284.23 214.23C286.43 214.23 288.51 213.13 289.62 211.09L309.29 177.54L322.07 199.38C319.95 199.69 317.98 201.12 317.15 203.18C315.84 206.35 317.49 209.83 320.76 211.09L333.06 215.68C333.71 216 334.52 216 335.35 216C336.17 216 337.14 215.85 338.12 215.36C339.61 214.74 340.75 213.31 341.25 211.73L345.02 199.53C345.99 196.36 344.2 192.88 340.75 191.93C340.18 191.76 339.59 191.68 339.01 191.68C336.91 191.68 334.86 192.73 333.71 194.47L314.86 162.02C313.72 160.11 311.58 159 309.29 159Z" fill="white"/>
<path fill-rule="evenodd" clip-rule="evenodd" d="M273.92 221.12C275.06 221.12 276.05 221.44 277.03 222.09C278.68 222.87 279.66 224.32 280.15 226.07L282.94 238.54C283.58 241.9 281.46 245.1 278.02 245.9C277.69 245.9 277.2 246.06 276.71 246.06C274.74 246.06 273.11 245.1 271.79 243.66L259.35 265.4H301.27C304.71 265.4 307.5 268.13 307.5 271.48C307.5 274.99 304.71 277.72 301.27 277.72H248.53C246.24 277.72 244.12 276.59 243.13 274.68C241.98 272.76 241.98 270.37 242.97 268.6L261.16 237.27C258.53 237.11 256.24 235.51 255.41 232.96C254.27 229.76 256.24 226.24 259.51 225.28L272.12 221.44C272.62 221.28 273.28 221.12 273.92 221.12ZM273.92 212C272.29 212 270.8 212.16 269.34 212.64L256.73 216.32C248.38 218.89 243.79 227.52 246.24 235.66C246.9 237.27 247.55 238.71 248.53 240.14L234.78 263.97C232 268.76 232 274.68 234.95 279.32C237.72 284.12 242.97 286.99 248.53 286.99H301.27C309.96 286.99 317 280.11 317 271.48C317 263.01 309.96 256.12 301.27 256.12H275.57L276.05 255.16H276.71C277.86 255.16 279 255.16 280.15 254.85C284.24 254.05 287.84 251.65 289.98 248.14C292.27 244.62 293.09 240.63 292.1 236.47L289.32 223.99C288.33 219.85 285.72 216.16 281.8 214.09C279.49 212.64 276.71 212 273.92 212Z" fill="#005A35"/>
<path fill-rule="evenodd" clip-rule="evenodd" d="M345.92 225.17C348.21 225.17 350.36 226.27 351.5 228.33L374.82 268.29C375.98 270.04 375.98 272.4 374.82 274.3C373.68 276.18 371.7 277.3 369.41 277.3H337.22C338.36 279.51 337.88 282.04 336.23 283.94C334.92 285.2 333.27 285.83 331.46 285.83C329.98 285.83 328.5 285.35 327.19 284.25L317.5 275.72C316.19 274.61 315.53 272.87 315.53 271.14C315.53 269.55 316.19 267.83 317.5 266.71L327.19 258.17C328.5 257.07 329.98 256.6 331.46 256.6C333.27 256.6 334.92 257.24 336.23 258.5C337.88 260.4 338.36 262.92 337.22 265.13H358.56L340.5 234.33C338.68 231.32 339.84 227.7 342.8 225.95C343.79 225.49 344.93 225.17 345.92 225.17ZM345.92 216.01C343.28 216.01 340.5 216.79 338.2 218.06C330.64 222.16 327.84 231.49 332.11 238.75L338.03 248.87C336.06 247.92 333.76 247.43 331.46 247.43C327.52 247.43 323.75 248.87 320.79 251.39L311.09 260.07C307.8 262.92 306.01 267.03 306.01 271.14C306.01 275.41 307.8 279.51 311.09 282.35L320.79 291.03C323.75 293.56 327.52 294.99 331.46 294.99C335.9 294.99 340.18 293.25 343.12 290.09C344.27 288.99 345.1 287.72 345.76 286.46H369.41C374.99 286.46 380.25 283.62 383.04 278.88C385.83 274.3 385.99 268.45 383.21 263.72L359.71 223.74C356.93 219 351.67 216.01 345.92 216.01Z" fill="#005A35"/>
<path fill-rule="evenodd" clip-rule="evenodd" d="M309.019 159.14C311.309 159.14 313.439 160.25 314.579 162.14L333.389 194.44C334.529 192.71 336.669 191.76 338.629 191.76C339.289 191.76 339.94 191.76 340.43 191.91C343.87 192.86 345.65 196.32 344.68 199.47L340.92 211.61C340.43 213.18 339.29 214.6 337.8 215.22C336.82 215.71 335.85 215.86 335.04 215.86C334.21 215.86 333.389 215.86 332.749 215.54L320.479 210.98C317.199 209.72 315.559 206.26 316.869 203.1C317.699 201.05 319.659 199.63 321.779 199.32L309.019 177.59L289.389 210.98C288.249 213.02 286.119 214.13 283.999 214.13C282.849 214.13 281.869 213.82 280.879 213.33C277.789 211.61 276.809 207.98 278.439 205L303.629 162.14C304.769 160.25 306.729 159.14 309.019 159.14ZM309.019 150C303.459 150 298.07 153 295.29 157.73L270.269 200.58C266.009 207.83 268.62 217.12 276.31 221.21C278.59 222.47 281.219 223.27 283.999 223.27C289.719 223.27 294.949 220.27 297.739 215.54L309.019 196.01L309.519 196.95L308.04 199.79C304.93 207.66 309.02 216.48 317.04 219.48L329.31 224.05C331.11 224.68 333.07 224.99 335.04 224.99C337.32 224.99 339.769 224.53 341.899 223.42C345.829 221.69 348.769 218.22 350.089 214.13L353.839 202C354.989 198.21 354.499 194.11 352.529 190.5C350.569 187.04 347.139 184.35 343.209 183.25C341.729 182.77 340.269 182.62 338.629 182.62H337.319L322.769 157.73C319.979 153 314.749 150 309.019 150Z" fill="#005A35"/>
<path fill-rule="evenodd" clip-rule="evenodd" d="M462.31 9.20996C472.99 9.20996 482.53 15.7201 486.15 25.5601C486.98 27.9501 487.46 30.65 487.46 33.51C487.46 39.86 484.83 46.04 480.23 50.65C475.46 55.24 469.04 57.79 462.31 57.79H155.53C141.72 57.79 130.37 46.83 130.37 33.51C130.37 30.65 130.88 27.95 131.85 25.4C133 22.07 135.14 18.9 137.78 16.36C142.54 11.75 148.79 9.20996 155.53 9.20996H462.31ZM155.53 0C146.33 0 137.61 3.49998 131.03 9.84998C127.41 13.34 124.46 17.78 122.81 22.39C121.49 25.89 121.01 29.69 121.01 33.51C121.01 51.92 136.47 66.99 155.53 66.99H462.31C471.68 66.99 480.4 63.5 486.98 57.15C493.37 50.8 497 42.39 497 33.51C497 29.53 496.34 25.89 495.02 22.55C490.27 9.06005 477.11 0 462.31 0H155.53Z" fill="#005A35"/>
<path d="M844.584 86.5V114.75H798.084V261H763.084V114.75H716.584V86.5H844.584ZM900.371 144C904.871 136.667 910.704 130.917 917.871 126.75C925.204 122.583 933.538 120.5 942.871 120.5V157.25H933.621C922.621 157.25 914.288 159.833 908.621 165C903.121 170.167 900.371 179.167 900.371 192V261H865.371V122.5H900.371V144ZM952.695 191.25C952.695 177.25 955.445 164.833 960.945 154C966.612 143.167 974.195 134.833 983.695 129C993.362 123.167 1004.11 120.25 1015.95 120.25C1026.28 120.25 1035.28 122.333 1042.95 126.5C1050.78 130.667 1057.03 135.917 1061.7 142.25V122.5H1096.95V261H1061.7V240.75C1057.2 247.25 1050.95 252.667 1042.95 257C1035.11 261.167 1026.03 263.25 1015.7 263.25C1004.03 263.25 993.362 260.25 983.695 254.25C974.195 248.25 966.612 239.833 960.945 229C955.445 218 952.695 205.417 952.695 191.25ZM1061.7 191.75C1061.7 183.25 1060.03 176 1056.7 170C1053.36 163.833 1048.86 159.167 1043.2 156C1037.53 152.667 1031.45 151 1024.95 151C1018.45 151 1012.45 152.583 1006.95 155.75C1001.45 158.917 996.945 163.583 993.445 169.75C990.112 175.75 988.445 182.917 988.445 191.25C988.445 199.583 990.112 206.917 993.445 213.25C996.945 219.417 1001.45 224.167 1006.95 227.5C1012.61 230.833 1018.61 232.5 1024.95 232.5C1031.45 232.5 1037.53 230.917 1043.2 227.75C1048.86 224.417 1053.36 219.75 1056.7 213.75C1060.03 207.583 1061.7 200.25 1061.7 191.75ZM1179.38 263.25C1168.05 263.25 1157.88 261.25 1148.88 257.25C1139.88 253.083 1132.71 247.5 1127.38 240.5C1122.21 233.5 1119.38 225.75 1118.88 217.25H1154.13C1154.8 222.583 1157.38 227 1161.88 230.5C1166.55 234 1172.3 235.75 1179.13 235.75C1185.8 235.75 1190.96 234.417 1194.63 231.75C1198.46 229.083 1200.38 225.667 1200.38 221.5C1200.38 217 1198.05 213.667 1193.38 211.5C1188.88 209.167 1181.63 206.667 1171.63 204C1161.3 201.5 1152.8 198.917 1146.13 196.25C1139.63 193.583 1133.96 189.5 1129.13 184C1124.46 178.5 1122.13 171.083 1122.13 161.75C1122.13 154.083 1124.3 147.083 1128.63 140.75C1133.13 134.417 1139.46 129.417 1147.63 125.75C1155.96 122.083 1165.71 120.25 1176.88 120.25C1193.38 120.25 1206.55 124.417 1216.38 132.75C1226.21 140.917 1231.63 152 1232.63 166H1199.13C1198.63 160.5 1196.3 156.167 1192.13 153C1188.13 149.667 1182.71 148 1175.88 148C1169.55 148 1164.63 149.167 1161.13 151.5C1157.8 153.833 1156.13 157.083 1156.13 161.25C1156.13 165.917 1158.46 169.5 1163.13 172C1167.8 174.333 1175.05 176.75 1184.88 179.25C1194.88 181.75 1203.13 184.333 1209.63 187C1216.13 189.667 1221.71 193.833 1226.38 199.5C1231.21 205 1233.71 212.333 1233.88 221.5C1233.88 229.5 1231.63 236.667 1227.13 243C1222.8 249.333 1216.46 254.333 1208.13 258C1199.96 261.5 1190.38 263.25 1179.38 263.25ZM1335.86 120.5C1346.36 120.5 1355.69 122.833 1363.86 127.5C1372.03 132 1378.36 138.75 1382.86 147.75C1387.53 156.583 1389.86 167.25 1389.86 179.75V261H1354.86V184.5C1354.86 173.5 1352.11 165.083 1346.61 159.25C1341.11 153.25 1333.61 150.25 1324.11 150.25C1314.44 150.25 1306.78 153.25 1301.11 159.25C1295.61 165.083 1292.86 173.5 1292.86 184.5V261H1257.86V76H1292.86V139.75C1297.36 133.75 1303.36 129.083 1310.86 125.75C1318.36 122.25 1326.69 120.5 1335.86 120.5ZM1453.39 114.75V158.5H1512.14V186.25H1453.39V232.5H1519.64V261H1418.39V86.25H1519.64V114.75H1453.39ZM1537.7 191.25C1537.7 177.25 1540.45 164.833 1545.95 154C1551.62 143.167 1559.28 134.833 1568.95 129C1578.62 123.167 1589.37 120.25 1601.2 120.25C1610.2 120.25 1618.78 122.25 1626.95 126.25C1635.12 130.083 1641.62 135.25 1646.45 141.75V76H1681.95V261H1646.45V240.5C1642.12 247.333 1636.03 252.833 1628.2 257C1620.37 261.167 1611.28 263.25 1600.95 263.25C1589.28 263.25 1578.62 260.25 1568.95 254.25C1559.28 248.25 1551.62 239.833 1545.95 229C1540.45 218 1537.7 205.417 1537.7 191.25ZM1646.7 191.75C1646.7 183.25 1645.03 176 1641.7 170C1638.37 163.833 1633.87 159.167 1628.2 156C1622.53 152.667 1616.45 151 1609.95 151C1603.45 151 1597.45 152.583 1591.95 155.75C1586.45 158.917 1581.95 163.583 1578.45 169.75C1575.12 175.75 1573.45 182.917 1573.45 191.25C1573.45 199.583 1575.12 206.917 1578.45 213.25C1581.95 219.417 1586.45 224.167 1591.95 227.5C1597.62 230.833 1603.62 232.5 1609.95 232.5C1616.45 232.5 1622.53 230.917 1628.2 227.75C1633.87 224.417 1638.37 219.75 1641.7 213.75C1645.03 207.583 1646.7 200.25 1646.7 191.75ZM1842.13 122.5V261H1806.88V243.5C1802.38 249.5 1796.47 254.25 1789.13 257.75C1781.97 261.083 1774.13 262.75 1765.63 262.75C1754.8 262.75 1745.22 260.5 1736.88 256C1728.55 251.333 1721.97 244.583 1717.13 235.75C1712.47 226.75 1710.13 216.083 1710.13 203.75V122.5H1745.13V198.75C1745.13 209.75 1747.88 218.25 1753.38 224.25C1758.88 230.083 1766.38 233 1775.88 233C1785.55 233 1793.13 230.083 1798.63 224.25C1804.13 218.25 1806.88 209.75 1806.88 198.75V122.5H1842.13Z" fill="url(#paint0_linear_89_225)"/>
<path d="M707.589 361.675C704.439 361.675 701.614 361.15 699.114 360.1C696.614 359 694.639 357.5 693.189 355.6C691.739 353.65 690.939 351.425 690.789 348.925H697.839C698.039 350.975 698.989 352.65 700.689 353.95C702.439 355.25 704.714 355.9 707.514 355.9C710.114 355.9 712.164 355.325 713.664 354.175C715.164 353.025 715.914 351.575 715.914 349.825C715.914 348.025 715.114 346.7 713.514 345.85C711.914 344.95 709.439 344.075 706.089 343.225C703.039 342.425 700.539 341.625 698.589 340.825C696.689 339.975 695.039 338.75 693.639 337.15C692.289 335.5 691.614 333.35 691.614 330.7C691.614 328.6 692.239 326.675 693.489 324.925C694.739 323.175 696.514 321.8 698.814 320.8C701.114 319.75 703.739 319.225 706.689 319.225C711.239 319.225 714.914 320.375 717.714 322.675C720.514 324.975 722.014 328.125 722.214 332.125H715.389C715.239 329.975 714.364 328.25 712.764 326.95C711.214 325.65 709.114 325 706.464 325C704.014 325 702.064 325.525 700.614 326.575C699.164 327.625 698.439 329 698.439 330.7C698.439 332.05 698.864 333.175 699.714 334.075C700.614 334.925 701.714 335.625 703.014 336.175C704.364 336.675 706.214 337.25 708.564 337.9C711.514 338.7 713.914 339.5 715.764 340.3C717.614 341.05 719.189 342.2 720.489 343.75C721.839 345.3 722.539 347.325 722.589 349.825C722.589 352.075 721.964 354.1 720.714 355.9C719.464 357.7 717.689 359.125 715.389 360.175C713.139 361.175 710.539 361.675 707.589 361.675ZM780.224 319.15C783.424 319.15 786.274 319.825 788.774 321.175C791.274 322.475 793.249 324.45 794.699 327.1C796.149 329.75 796.874 332.975 796.874 336.775V361H790.124V337.75C790.124 333.65 789.099 330.525 787.049 328.375C785.049 326.175 782.324 325.075 778.874 325.075C775.324 325.075 772.499 326.225 770.399 328.525C768.299 330.775 767.249 334.05 767.249 338.35V361H760.499V337.75C760.499 333.65 759.474 330.525 757.424 328.375C755.424 326.175 752.699 325.075 749.249 325.075C745.699 325.075 742.874 326.225 740.774 328.525C738.674 330.775 737.624 334.05 737.624 338.35V361H730.799V319.9H737.624V325.825C738.974 323.675 740.774 322.025 743.024 320.875C745.324 319.725 747.849 319.15 750.599 319.15C754.049 319.15 757.099 319.925 759.749 321.475C762.399 323.025 764.374 325.3 765.674 328.3C766.824 325.4 768.724 323.15 771.374 321.55C774.024 319.95 776.974 319.15 780.224 319.15ZM804.094 340.3C804.094 336.1 804.944 332.425 806.644 329.275C808.344 326.075 810.669 323.6 813.619 321.85C816.619 320.1 819.944 319.225 823.594 319.225C827.194 319.225 830.319 320 832.969 321.55C835.619 323.1 837.594 325.05 838.894 327.4V319.9H845.794V361H838.894V353.35C837.544 355.75 835.519 357.75 832.819 359.35C830.169 360.9 827.069 361.675 823.519 361.675C819.869 361.675 816.569 360.775 813.619 358.975C810.669 357.175 808.344 354.65 806.644 351.4C804.944 348.15 804.094 344.45 804.094 340.3ZM838.894 340.375C838.894 337.275 838.269 334.575 837.019 332.275C835.769 329.975 834.069 328.225 831.919 327.025C829.819 325.775 827.494 325.15 824.944 325.15C822.394 325.15 820.069 325.75 817.969 326.95C815.869 328.15 814.194 329.9 812.944 332.2C811.694 334.5 811.069 337.2 811.069 340.3C811.069 343.45 811.694 346.2 812.944 348.55C814.194 350.85 815.869 352.625 817.969 353.875C820.069 355.075 822.394 355.675 824.944 355.675C827.494 355.675 829.819 355.075 831.919 353.875C834.069 352.625 835.769 350.85 837.019 348.55C838.269 346.2 838.894 343.475 838.894 340.375ZM862.728 326.575C863.928 324.225 865.628 322.4 867.828 321.1C870.078 319.8 872.803 319.15 876.003 319.15V326.2H874.203C866.553 326.2 862.728 330.35 862.728 338.65V361H855.903V319.9H862.728V326.575ZM890.781 325.525V349.75C890.781 351.75 891.206 353.175 892.056 354.025C892.906 354.825 894.381 355.225 896.481 355.225H901.506V361H895.356C891.556 361 888.706 360.125 886.806 358.375C884.906 356.625 883.956 353.75 883.956 349.75V325.525H878.631V319.9H883.956V309.55H890.781V319.9H901.506V325.525H890.781ZM933.746 305.5V361H926.921V305.5H933.746ZM947.478 313.225C946.178 313.225 945.078 312.775 944.178 311.875C943.278 310.975 942.828 309.875 942.828 308.575C942.828 307.275 943.278 306.175 944.178 305.275C945.078 304.375 946.178 303.925 947.478 303.925C948.728 303.925 949.778 304.375 950.628 305.275C951.528 306.175 951.978 307.275 951.978 308.575C951.978 309.875 951.528 310.975 950.628 311.875C949.778 312.775 948.728 313.225 947.478 313.225ZM950.778 319.9V361H943.953V319.9H950.778ZM976.285 354.7L989.035 319.9H996.31L980.185 361H972.235L956.11 319.9H963.46L976.285 354.7ZM1005.13 313.225C1003.83 313.225 1002.73 312.775 1001.83 311.875C1000.93 310.975 1000.48 309.875 1000.48 308.575C1000.48 307.275 1000.93 306.175 1001.83 305.275C1002.73 304.375 1003.83 303.925 1005.13 303.925C1006.38 303.925 1007.43 304.375 1008.28 305.275C1009.18 306.175 1009.63 307.275 1009.63 308.575C1009.63 309.875 1009.18 310.975 1008.28 311.875C1007.43 312.775 1006.38 313.225 1005.13 313.225ZM1008.43 319.9V361H1001.6V319.9H1008.43ZM1038.66 319.15C1043.66 319.15 1047.71 320.675 1050.81 323.725C1053.91 326.725 1055.46 331.075 1055.46 336.775V361H1048.71V337.75C1048.71 333.65 1047.68 330.525 1045.63 328.375C1043.58 326.175 1040.78 325.075 1037.23 325.075C1033.63 325.075 1030.76 326.2 1028.61 328.45C1026.51 330.7 1025.46 333.975 1025.46 338.275V361H1018.63V319.9H1025.46V325.75C1026.81 323.65 1028.63 322.025 1030.93 320.875C1033.28 319.725 1035.86 319.15 1038.66 319.15ZM1082.13 319.225C1085.68 319.225 1088.78 320 1091.43 321.55C1094.13 323.1 1096.13 325.05 1097.43 327.4V319.9H1104.33V361.9C1104.33 365.65 1103.53 368.975 1101.93 371.875C1100.33 374.825 1098.03 377.125 1095.03 378.775C1092.08 380.425 1088.63 381.25 1084.68 381.25C1079.28 381.25 1074.78 379.975 1071.18 377.425C1067.58 374.875 1065.46 371.4 1064.81 367H1071.56C1072.31 369.5 1073.86 371.5 1076.21 373C1078.56 374.55 1081.38 375.325 1084.68 375.325C1088.43 375.325 1091.48 374.15 1093.83 371.8C1096.23 369.45 1097.43 366.15 1097.43 361.9V353.275C1096.08 355.675 1094.08 357.675 1091.43 359.275C1088.78 360.875 1085.68 361.675 1082.13 361.675C1078.48 361.675 1075.16 360.775 1072.16 358.975C1069.21 357.175 1066.88 354.65 1065.18 351.4C1063.48 348.15 1062.63 344.45 1062.63 340.3C1062.63 336.1 1063.48 332.425 1065.18 329.275C1066.88 326.075 1069.21 323.6 1072.16 321.85C1075.16 320.1 1078.48 319.225 1082.13 319.225ZM1097.43 340.375C1097.43 337.275 1096.81 334.575 1095.56 332.275C1094.31 329.975 1092.61 328.225 1090.46 327.025C1088.36 325.775 1086.03 325.15 1083.48 325.15C1080.93 325.15 1078.61 325.75 1076.51 326.95C1074.41 328.15 1072.73 329.9 1071.48 332.2C1070.23 334.5 1069.61 337.2 1069.61 340.3C1069.61 343.45 1070.23 346.2 1071.48 348.55C1072.73 350.85 1074.41 352.625 1076.51 353.875C1078.61 355.075 1080.93 355.675 1083.48 355.675C1086.03 355.675 1088.36 355.075 1090.46 353.875C1092.61 352.625 1094.31 350.85 1095.56 348.55C1096.81 346.2 1097.43 343.475 1097.43 340.375ZM1153.41 319.15C1156.51 319.15 1159.31 319.825 1161.81 321.175C1164.31 322.475 1166.26 324.45 1167.66 327.1C1169.11 329.75 1169.84 332.975 1169.84 336.775V361H1163.09V337.75C1163.09 333.65 1162.06 330.525 1160.01 328.375C1157.96 326.175 1155.16 325.075 1151.61 325.075C1148.01 325.075 1145.14 326.2 1142.99 328.45C1140.89 330.7 1139.84 333.975 1139.84 338.275V361H1133.01V305.5H1139.84V325.75C1141.19 323.65 1143.04 322.025 1145.39 320.875C1147.79 319.725 1150.46 319.15 1153.41 319.15ZM1217.06 338.875C1217.06 340.175 1216.98 341.55 1216.83 343H1183.98C1184.23 347.05 1185.61 350.225 1188.11 352.525C1190.66 354.775 1193.73 355.9 1197.33 355.9C1200.28 355.9 1202.73 355.225 1204.68 353.875C1206.68 352.475 1208.08 350.625 1208.88 348.325H1216.23C1215.13 352.275 1212.93 355.5 1209.63 358C1206.33 360.45 1202.23 361.675 1197.33 361.675C1193.43 361.675 1189.93 360.8 1186.83 359.05C1183.78 357.3 1181.38 354.825 1179.63 351.625C1177.88 348.375 1177.01 344.625 1177.01 340.375C1177.01 336.125 1177.86 332.4 1179.56 329.2C1181.26 326 1183.63 323.55 1186.68 321.85C1189.78 320.1 1193.33 319.225 1197.33 319.225C1201.23 319.225 1204.68 320.075 1207.68 321.775C1210.68 323.475 1212.98 325.825 1214.58 328.825C1216.23 331.775 1217.06 335.125 1217.06 338.875ZM1210.01 337.45C1210.01 334.85 1209.43 332.625 1208.28 330.775C1207.13 328.875 1205.56 327.45 1203.56 326.5C1201.61 325.5 1199.43 325 1197.03 325C1193.58 325 1190.63 326.1 1188.18 328.3C1185.78 330.5 1184.41 333.55 1184.06 337.45H1210.01ZM1222.09 340.3C1222.09 336.1 1222.94 332.425 1224.64 329.275C1226.34 326.075 1228.67 323.6 1231.62 321.85C1234.62 320.1 1237.94 319.225 1241.59 319.225C1245.19 319.225 1248.32 320 1250.97 321.55C1253.62 323.1 1255.59 325.05 1256.89 327.4V319.9H1263.79V361H1256.89V353.35C1255.54 355.75 1253.52 357.75 1250.82 359.35C1248.17 360.9 1245.07 361.675 1241.52 361.675C1237.87 361.675 1234.57 360.775 1231.62 358.975C1228.67 357.175 1226.34 354.65 1224.64 351.4C1222.94 348.15 1222.09 344.45 1222.09 340.3ZM1256.89 340.375C1256.89 337.275 1256.27 334.575 1255.02 332.275C1253.77 329.975 1252.07 328.225 1249.92 327.025C1247.82 325.775 1245.49 325.15 1242.94 325.15C1240.39 325.15 1238.07 325.75 1235.97 326.95C1233.87 328.15 1232.19 329.9 1230.94 332.2C1229.69 334.5 1229.07 337.2 1229.07 340.3C1229.07 343.45 1229.69 346.2 1230.94 348.55C1232.19 350.85 1233.87 352.625 1235.97 353.875C1238.07 355.075 1240.39 355.675 1242.94 355.675C1245.49 355.675 1247.82 355.075 1249.92 353.875C1252.07 352.625 1253.77 350.85 1255.02 348.55C1256.27 346.2 1256.89 343.475 1256.89 340.375ZM1280.73 305.5V361H1273.9V305.5H1280.73ZM1299.26 325.525V349.75C1299.26 351.75 1299.68 353.175 1300.53 354.025C1301.38 354.825 1302.86 355.225 1304.96 355.225H1309.98V361H1303.83C1300.03 361 1297.18 360.125 1295.28 358.375C1293.38 356.625 1292.43 353.75 1292.43 349.75V325.525H1287.11V319.9H1292.43V309.55H1299.26V319.9H1309.98V325.525H1299.26ZM1337.23 319.15C1340.33 319.15 1343.13 319.825 1345.63 321.175C1348.13 322.475 1350.08 324.45 1351.48 327.1C1352.93 329.75 1353.65 332.975 1353.65 336.775V361H1346.9V337.75C1346.9 333.65 1345.88 330.525 1343.83 328.375C1341.78 326.175 1338.98 325.075 1335.43 325.075C1331.83 325.075 1328.95 326.2 1326.8 328.45C1324.7 330.7 1323.65 333.975 1323.65 338.275V361H1316.83V305.5H1323.65V325.75C1325 323.65 1326.85 322.025 1329.2 320.875C1331.6 319.725 1334.28 319.15 1337.23 319.15ZM1398.78 319.9L1374.03 380.35H1366.98L1375.08 360.55L1358.5 319.9H1366.08L1378.98 353.2L1391.73 319.9H1398.78ZM1460.28 338.875C1460.28 340.175 1460.21 341.55 1460.06 343H1427.21C1427.46 347.05 1428.83 350.225 1431.33 352.525C1433.88 354.775 1436.96 355.9 1440.56 355.9C1443.51 355.9 1445.96 355.225 1447.91 353.875C1449.91 352.475 1451.31 350.625 1452.11 348.325H1459.46C1458.36 352.275 1456.16 355.5 1452.86 358C1449.56 360.45 1445.46 361.675 1440.56 361.675C1436.66 361.675 1433.16 360.8 1430.06 359.05C1427.01 357.3 1424.61 354.825 1422.86 351.625C1421.11 348.375 1420.23 344.625 1420.23 340.375C1420.23 336.125 1421.08 332.4 1422.78 329.2C1424.48 326 1426.86 323.55 1429.91 321.85C1433.01 320.1 1436.56 319.225 1440.56 319.225C1444.46 319.225 1447.91 320.075 1450.91 321.775C1453.91 323.475 1456.21 325.825 1457.81 328.825C1459.46 331.775 1460.28 335.125 1460.28 338.875ZM1453.23 337.45C1453.23 334.85 1452.66 332.625 1451.51 330.775C1450.36 328.875 1448.78 327.45 1446.78 326.5C1444.83 325.5 1442.66 325 1440.26 325C1436.81 325 1433.86 326.1 1431.41 328.3C1429.01 330.5 1427.63 333.55 1427.28 337.45H1453.23ZM1487.89 319.15C1492.89 319.15 1496.94 320.675 1500.04 323.725C1503.14 326.725 1504.69 331.075 1504.69 336.775V361H1497.94V337.75C1497.94 333.65 1496.92 330.525 1494.87 328.375C1492.82 326.175 1490.02 325.075 1486.47 325.075C1482.87 325.075 1479.99 326.2 1477.84 328.45C1475.74 330.7 1474.69 333.975 1474.69 338.275V361H1467.87V319.9H1474.69V325.75C1476.04 323.65 1477.87 322.025 1480.17 320.875C1482.52 319.725 1485.09 319.15 1487.89 319.15ZM1529.71 354.7L1542.46 319.9H1549.74L1533.61 361H1525.66L1509.54 319.9H1516.89L1529.71 354.7ZM1558.56 313.225C1557.26 313.225 1556.16 312.775 1555.26 311.875C1554.36 310.975 1553.91 309.875 1553.91 308.575C1553.91 307.275 1554.36 306.175 1555.26 305.275C1556.16 304.375 1557.26 303.925 1558.56 303.925C1559.81 303.925 1560.86 304.375 1561.71 305.275C1562.61 306.175 1563.06 307.275 1563.06 308.575C1563.06 309.875 1562.61 310.975 1561.71 311.875C1560.86 312.775 1559.81 313.225 1558.56 313.225ZM1561.86 319.9V361H1555.03V319.9H1561.86ZM1578.89 326.575C1580.09 324.225 1581.79 322.4 1583.99 321.1C1586.24 319.8 1588.96 319.15 1592.16 319.15V326.2H1590.36C1582.71 326.2 1578.89 330.35 1578.89 338.65V361H1572.06V319.9H1578.89V326.575ZM1616.54 361.675C1612.69 361.675 1609.19 360.8 1606.04 359.05C1602.94 357.3 1600.49 354.825 1598.69 351.625C1596.94 348.375 1596.07 344.625 1596.07 340.375C1596.07 336.175 1596.97 332.475 1598.77 329.275C1600.62 326.025 1603.12 323.55 1606.27 321.85C1609.42 320.1 1612.94 319.225 1616.84 319.225C1620.74 319.225 1624.27 320.1 1627.42 321.85C1630.57 323.55 1633.04 326 1634.84 329.2C1636.69 332.4 1637.62 336.125 1637.62 340.375C1637.62 344.625 1636.67 348.375 1634.77 351.625C1632.92 354.825 1630.39 357.3 1627.19 359.05C1623.99 360.8 1620.44 361.675 1616.54 361.675ZM1616.54 355.675C1618.99 355.675 1621.29 355.1 1623.44 353.95C1625.59 352.8 1627.32 351.075 1628.62 348.775C1629.97 346.475 1630.64 343.675 1630.64 340.375C1630.64 337.075 1629.99 334.275 1628.69 331.975C1627.39 329.675 1625.69 327.975 1623.59 326.875C1621.49 325.725 1619.22 325.15 1616.77 325.15C1614.27 325.15 1611.97 325.725 1609.87 326.875C1607.82 327.975 1606.17 329.675 1604.92 331.975C1603.67 334.275 1603.04 337.075 1603.04 340.375C1603.04 343.725 1603.64 346.55 1604.84 348.85C1606.09 351.15 1607.74 352.875 1609.79 354.025C1611.84 355.125 1614.09 355.675 1616.54 355.675ZM1665.19 319.15C1670.19 319.15 1674.24 320.675 1677.34 323.725C1680.44 326.725 1681.99 331.075 1681.99 336.775V361H1675.24V337.75C1675.24 333.65 1674.21 330.525 1672.16 328.375C1670.11 326.175 1667.31 325.075 1663.76 325.075C1660.16 325.075 1657.29 326.2 1655.14 328.45C1653.04 330.7 1651.99 333.975 1651.99 338.275V361H1645.16V319.9H1651.99V325.75C1653.34 323.65 1655.16 322.025 1657.46 320.875C1659.81 319.725 1662.39 319.15 1665.19 319.15ZM1741.14 319.15C1744.34 319.15 1747.19 319.825 1749.69 321.175C1752.19 322.475 1754.16 324.45 1755.61 327.1C1757.06 329.75 1757.79 332.975 1757.79 336.775V361H1751.04V337.75C1751.04 333.65 1750.01 330.525 1747.96 328.375C1745.96 326.175 1743.24 325.075 1739.79 325.075C1736.24 325.075 1733.41 326.225 1731.31 328.525C1729.21 330.775 1728.16 334.05 1728.16 338.35V361H1721.41V337.75C1721.41 333.65 1720.39 330.525 1718.34 328.375C1716.34 326.175 1713.61 325.075 1710.16 325.075C1706.61 325.075 1703.79 326.225 1701.69 328.525C1699.59 330.775 1698.54 334.05 1698.54 338.35V361H1691.71V319.9H1698.54V325.825C1699.89 323.675 1701.69 322.025 1703.94 320.875C1706.24 319.725 1708.76 319.15 1711.51 319.15C1714.96 319.15 1718.01 319.925 1720.66 321.475C1723.31 323.025 1725.29 325.3 1726.59 328.3C1727.74 325.4 1729.64 323.15 1732.29 321.55C1734.94 319.95 1737.89 319.15 1741.14 319.15ZM1805.06 338.875C1805.06 340.175 1804.98 341.55 1804.83 343H1771.98C1772.23 347.05 1773.61 350.225 1776.11 352.525C1778.66 354.775 1781.73 355.9 1785.33 355.9C1788.28 355.9 1790.73 355.225 1792.68 353.875C1794.68 352.475 1796.08 350.625 1796.88 348.325H1804.23C1803.13 352.275 1800.93 355.5 1797.63 358C1794.33 360.45 1790.23 361.675 1785.33 361.675C1781.43 361.675 1777.93 360.8 1774.83 359.05C1771.78 357.3 1769.38 354.825 1767.63 351.625C1765.88 348.375 1765.01 344.625 1765.01 340.375C1765.01 336.125 1765.86 332.4 1767.56 329.2C1769.26 326 1771.63 323.55 1774.68 321.85C1777.78 320.1 1781.33 319.225 1785.33 319.225C1789.23 319.225 1792.68 320.075 1795.68 321.775C1798.68 323.475 1800.98 325.825 1802.58 328.825C1804.23 331.775 1805.06 335.125 1805.06 338.875ZM1798.01 337.45C1798.01 334.85 1797.43 332.625 1796.28 330.775C1795.13 328.875 1793.56 327.45 1791.56 326.5C1789.61 325.5 1787.43 325 1785.03 325C1781.58 325 1778.63 326.1 1776.18 328.3C1773.78 330.5 1772.41 333.55 1772.06 337.45H1798.01ZM1832.67 319.15C1837.67 319.15 1841.72 320.675 1844.82 323.725C1847.92 326.725 1849.47 331.075 1849.47 336.775V361H1842.72V337.75C1842.72 333.65 1841.69 330.525 1839.64 328.375C1837.59 326.175 1834.79 325.075 1831.24 325.075C1827.64 325.075 1824.77 326.2 1822.62 328.45C1820.52 330.7 1819.47 333.975 1819.47 338.275V361H1812.64V319.9H1819.47V325.75C1820.82 323.65 1822.64 322.025 1824.94 320.875C1827.29 319.725 1829.87 319.15 1832.67 319.15ZM1867.52 325.525V349.75C1867.52 351.75 1867.94 353.175 1868.79 354.025C1869.64 354.825 1871.12 355.225 1873.22 355.225H1878.24V361H1872.09C1868.29 361 1865.44 360.125 1863.54 358.375C1861.64 356.625 1860.69 353.75 1860.69 349.75V325.525H1855.37V319.9H1860.69V309.55H1867.52V319.9H1878.24V325.525H1867.52Z" fill="#005A35"/>
<defs>
<linearGradient id="paint0_linear_89_225" x1="750.5" y1="82.0002" x2="1880" y2="264" gradientUnits="userSpaceOnUse">
<stop stop-color="#005A35"/>
<stop offset="1" stop-color="#6BB36B"/>
</linearGradient>
</defs>
</svg>
