<?xml version="1.0" encoding="utf-8"?>
<!-- Svg Vector Icons : http://www.onlinewebfonts.com/icon -->
<!DOCTYPE svg PUBLIC "-//W3C//DTD SVG 1.1//EN" "http://www.w3.org/Graphics/SVG/1.1/DTD/svg11.dtd">
<svg version="1.1" xmlns="http://www.w3.org/2000/svg" xmlns:xlink="http://www.w3.org/1999/xlink" x="0px" y="0px" viewBox="0 0 1000 1000" enable-background="new 0 0 1000 1000" xml:space="preserve">
<metadata> Svg Vector Icons : http://www.onlinewebfonts.com/icon </metadata>
<g><path d="M959.4,346.9h-30.6l-61.3,428.7c0,67.7-54.8,122.5-122.5,122.5H224.4c-67.6,0-122.5-54.8-122.5-122.5L71.2,346.9H40.6c-16.9,0-30.6-13.8-30.6-30.6c0-16.9,13.7-30.6,30.6-30.6h203.5l-65.7-122.5h-76.6c-16.9,0-30.6-13.8-30.6-30.7c0-16.9,13.7-30.6,30.6-30.6h122.5l97,183.8h359.8l94.4-183.8h122.5c16.9,0,30.6,13.7,30.6,30.6c0,16.9-13.7,30.7-30.6,30.7h-76.6l-62.1,122.5h199.9c16.9,0,30.6,13.7,30.6,30.6C990,333.1,976.3,346.9,959.4,346.9z M316.3,346.9H132.5l8.8,122.5h175V346.9z M316.3,530.6H145.6l8.7,122.5h161.9V530.6z M316.3,714.3H158.8l4.4,61.3c0,33.8,27.4,61.2,61.3,61.2h91.9V714.3z M683.8,836.8H745c33.8,0,61.3-27.4,61.3-61.2l8.8-61.3H683.8V836.8z M683.8,653.1h140l17.5-122.5H683.8V653.1z M622.5,346.9h-245v122.5h245L622.5,346.9L622.5,346.9z M622.5,530.6h-245v122.5h245L622.5,530.6L622.5,530.6z M622.5,714.3h-245v122.5h245L622.5,714.3L622.5,714.3z M683.8,346.9v122.5H850l17.5-122.5H683.8z"/></g>
</svg>