<svg width="60" height="52" xmlns="http://www.w3.org/2000/svg" xmlns:xlink="http://www.w3.org/1999/xlink" overflow="hidden"><defs><clipPath id="clip0"><rect x="193" y="220" width="60" height="52"/></clipPath></defs><g clip-path="url(#clip0)" transform="translate(-193 -220)"><path d="M212.685 222.003C211.748 222.003 211 222.749 211 223.673 211 230.48 216.592 236 223.487 236L224.305 236C225.241 236 225.997 235.254 225.997 234.329 225.99 227.52 220.398 222.003 213.503 222.003Z" fill="#FFFFFF" fill-rule="evenodd"/><path d="M212.679 222.003C211.756 222.003 211.003 222.746 211.003 223.656 211.003 230.46 216.591 235.98 223.493 235.98 223.628 235.99 223.785 235.997 223.949 235.997 224.316 235.997 224.718 235.962 224.99 235.838L225 235.838C218.888 234.928 214.376 229.752 214.376 223.656 214.366 223.001 214.771 222.399 215.381 222.134 214.761 222.046 214.133 222.003 213.515 222.003Z" fill="#E4ECF2" fill-rule="evenodd"/><path d="M238.489 222.003C231.588 222.003 226 227.52 226 234.329 226 235.254 226.756 236 227.684 236L228.511 236C235.402 236 240.99 230.48 240.997 223.673 240.997 222.749 240.242 222.003 239.306 222.003Z" fill="#FFFFFF" fill-rule="evenodd"/><path d="M238.496 222.003C231.593 222.003 226.003 227.523 226.003 234.336 226.003 234.532 226.039 234.717 226.1 234.895 226.165 235.065 226.255 235.225 226.37 235.375 226.694 235.766 227.173 235.997 227.684 235.997L228.512 235.997C229.143 235.997 229.765 235.954 230.385 235.865 230.133 235.749 229.909 235.581 229.737 235.375 229.621 235.225 229.531 235.065 229.467 234.895 229.405 234.717 229.369 234.532 229.369 234.339L229.369 234.339C229.371 228.232 233.89 223.052 240 222.135 239.784 222.046 239.558 222.003 239.324 222.003Z" fill="#E4ECF2" fill-rule="evenodd"/><path d="M226.2 241.003C219.696 241.003 213.866 245.299 212 251.684L212.073 252.002C213.012 251.684 213.985 251.528 214.95 251.528 216.888 251.528 218.8 252.156 220.383 253.362 221.517 254.211 222.89 254.675 224.309 254.675 224.324 254.675 224.337 254.675 224.35 254.675L232.962 254.675C234.742 254.675 236.257 256.053 236.366 257.841 236.395 258.231 236.348 258.625 236.231 258.997L240.997 254.993 240.997 254.975C240.562 247.763 235.032 241.899 227.874 241.096 227.313 241.034 226.756 241.003 226.2 241.003Z" fill="#FE7D56" fill-rule="evenodd"/><path d="M223.675 241C218.111 241.988 213.59 246.102 212 251.608L212.083 251.921C213.019 251.6 213.987 251.442 214.952 251.442 216.887 251.442 218.799 252.077 220.381 253.297 221.514 254.156 222.887 254.625 224.306 254.625 224.321 254.625 224.334 254.625 224.347 254.625L232.956 254.625C234.736 254.625 236.251 256.019 236.359 257.827 236.388 258.223 236.341 258.62 236.225 258.997L240.99 254.947 240.99 254.928 241 254.928C240.953 254.301 240.881 253.674 240.772 253.047 240.173 252.567 239.446 252.309 238.684 252.309L230.023 252.309C229.997 252.311 229.968 252.311 229.942 252.311 228.536 252.311 227.177 251.842 226.054 250.991 224.474 249.771 222.56 249.136 220.625 249.136 219.662 249.136 218.692 249.294 217.756 249.615L217.675 249.302C218.656 245.907 220.78 242.966 223.675 241Z" fill="#F46545" fill-rule="evenodd"/><path d="M248.229 250.003C247.428 250.003 246.622 250.275 245.997 250.816L236.376 259.15 236.363 259.153 236.363 259.153C236.444 258.84 236.483 258.511 236.475 258.171 236.431 256.285 234.887 254.808 233.067 254.808L224.344 254.808C224.344 254.808 221.476 254.226 220.326 253.322 218.69 252.035 216.76 251.407 214.84 251.407 212.275 251.407 209.73 252.528 207.937 254.683L203 254.683 203 268.494 207.937 268.494 214.315 270.483C215.41 270.826 216.55 270.997 217.689 270.997L231.854 270.997C233.259 270.997 234.619 270.475 235.677 269.512L250.456 256.103C251.916 254.77 252 252.435 250.629 250.999 249.999 250.335 249.117 250.003 248.229 250.003Z" fill="#FFFFFF" fill-rule="evenodd"/><path d="M250.899 253.003 236.403 266.037C235.36 266.98 234.017 267.502 232.627 267.502L218.632 267.502C217.514 267.502 216.407 267.334 215.346 267.007L209.029 265.049 206.968 265.049C206.034 265.049 205.272 264.266 205.272 263.307L205.272 255.025 203 255.025 203 268.547 207.93 268.547 214.257 270.505C215.318 270.829 216.425 270.997 217.543 270.997L231.502 270.997C232.892 270.997 234.235 270.475 235.277 269.535L249.864 256.415C250.59 255.762 250.997 254.819 250.997 253.831 250.997 253.551 250.961 253.272 250.899 253.003Z" fill="#E4ECF2" fill-rule="evenodd"/><path d="M223.69 259C222.759 259 222 259.958 222 261.143L222 262 232.821 262C234.284 262 235.585 260.779 236 259Z" fill="#E4ECF2" fill-rule="evenodd"/><path d="M194.003 252 194.003 270.997 202.997 270.997 202.997 252Z" fill="#7E92FF" fill-rule="evenodd"/><path d="M194.003 252 194.003 270.997 202.997 270.997 202.997 268.607 198.496 268.607C198.029 268.607 197.648 268.236 197.648 267.777L197.648 252Z" fill="#6880EA" fill-rule="evenodd"/><path d="M239.404 222.894C240.004 222.894 240.683 223.122 240.683 223.795 240.673 230.387 235.277 235.729 228.616 235.737 228.483 235.766 228.332 235.782 228.175 235.782 227.599 235.782 226.946 235.571 226.888 234.965 226.933 228.456 232.294 222.941 238.945 222.941 239.083 222.912 239.239 222.894 239.404 222.894ZM201.601 253.691 201.601 255.291C201.612 255.291 201.612 255.299 201.713 255.299L201.713 268.667C201.612 268.667 201.601 268.675 201.601 268.675L201.601 270.238 194.746 270.238 194.746 253.691ZM238.833 221C233.924 221 229.354 223.745 226.907 228.081L226.907 221.93C226.915 221.515 226.628 221.158 226.227 221.066 226.163 221.05 226.097 221.045 226.033 221.045 225.564 221.045 225.16 221.418 225.168 221.911L225.168 228.089C222.735 223.75 218.119 221.047 213.104 221.047 212.971 221.034 212.835 221.029 212.703 221.029 211.182 221.029 209.637 221.848 209.637 223.64 209.63 225.202 209.898 226.747 210.428 228.228 210.548 228.583 210.887 228.822 211.267 228.822 211.299 228.822 211.333 228.819 211.365 228.816 211.923 228.743 212.268 228.191 212.082 227.666 211.617 226.368 211.376 225.008 211.384 223.64 211.384 222.959 212.058 222.728 212.658 222.728 212.82 222.728 212.976 222.747 213.111 222.775 219.699 222.775 225.067 228.062 225.168 234.579 225.163 235.332 224.547 235.653 223.881 235.653 223.735 235.653 223.587 235.637 223.441 235.608 223.433 235.608 223.422 235.608 223.411 235.608 219.781 235.608 216.347 233.975 214.077 231.177 213.902 230.965 213.65 230.857 213.401 230.857 213.143 230.857 212.886 230.967 212.713 231.188 212.461 231.519 212.472 231.978 212.74 232.291 215.351 235.49 219.279 237.347 223.441 237.347 223.581 237.352 223.732 237.357 223.889 237.357 224.327 237.357 224.807 237.321 225.168 237.2L225.168 240.564C221.965 240.73 218.889 241.851 216.344 243.782 213.624 245.841 211.636 248.709 210.67 251.963 209.34 252.515 208.143 253.331 207.167 254.379L203.329 254.379 203.329 252.827C203.329 252.349 202.939 251.963 202.467 251.963L193.873 251.963C193.39 251.963 193 252.349 193 252.827L193 271.094C193 271.572 193.39 271.958 193.873 271.958L202.467 271.958C202.939 271.958 203.329 271.572 203.329 271.094L203.329 269.55 207.4 269.55 213.828 271.433C215.394 271.898 217.082 272 218.751 272 219.43 272 220.105 271.982 220.765 271.966 220.776 271.966 220.789 271.968 220.8 271.968 221.267 271.968 221.657 271.588 221.657 271.112 221.657 270.637 221.267 270.256 220.8 270.256 220.789 270.256 220.776 270.256 220.765 270.256 220.073 270.277 219.361 270.301 218.642 270.301 217.177 270.301 215.694 270.204 214.33 269.796L207.78 267.876C207.697 267.858 203.329 267.84 203.329 267.84L203.329 256.107 207.512 256.107C207.554 256.115 207.597 256.121 207.639 256.121 207.843 256.121 208.04 256.029 208.17 255.868 209.813 253.977 212.137 252.995 214.481 252.995 216.238 252.995 218.003 253.544 219.502 254.673 220.795 255.64 224.083 256.22 224.083 256.22L232.963 256.22C234.375 256.22 235.519 257.35 235.519 258.747 235.519 260.063 234.348 261.276 232.963 261.276L221.779 261.276C221.333 261.276 220.951 261.597 220.877 262.03 220.813 262.545 221.222 263.004 221.75 263.004L233.011 263.004C234.728 263.004 236.429 261.828 237.023 260.236L246.543 252.349C247.119 251.958 247.674 251.761 248.21 251.761 248.881 251.761 249.523 252.068 250.139 252.68 250.983 253.875 250.89 255.041 249.842 256.165L234.998 269.024C234.096 269.807 232.936 270.238 231.729 270.238L224.529 270.238C224.083 270.238 223.693 270.561 223.626 270.991 223.563 271.506 223.971 271.966 224.492 271.966L231.692 271.966C233.326 271.966 234.906 271.378 236.132 270.303L251.057 257.324C252.785 255.795 253 253.195 251.551 251.411L251.57 251.411C250.72 250.395 249.489 249.867 248.247 249.867 247.278 249.867 246.301 250.19 245.495 250.849L241.854 253.875C241.713 253.048 241.508 252.228 241.248 251.43 240.84 250.235 240.301 249.095 239.632 248.029 239.468 247.753 239.173 247.598 238.865 247.598 238.772 247.598 238.677 247.611 238.584 247.643 238.064 247.834 237.849 248.451 238.146 248.919 238.751 249.875 239.234 250.905 239.595 251.971 239.837 252.688 240.014 253.415 240.134 254.159 240.189 254.5 240.237 254.849 240.264 255.188L237.199 257.736C236.771 255.777 235.025 254.39 233 254.379L224.128 254.379C224.115 254.382 224.101 254.382 224.085 254.382 222.83 254.382 221.609 253.977 220.598 253.232 218.841 251.9 216.708 251.201 214.529 251.201 213.921 251.201 213.311 251.254 212.703 251.364 214.794 245.951 220.126 242.264 226.033 242.264 226.047 242.264 226.06 242.264 226.073 242.264 229.3 242.264 232.424 243.356 234.932 245.352 235.097 245.489 235.298 245.557 235.5 245.557 235.718 245.557 235.933 245.478 236.102 245.326 236.485 244.958 236.455 244.352 236.047 244.029 233.438 241.962 230.24 240.748 226.907 240.564L226.907 237.2C227.262 237.321 227.745 237.357 228.186 237.357 228.342 237.357 228.496 237.352 228.634 237.347 236.243 237.347 242.437 231.196 242.437 223.64 242.437 222.206 241.259 221.147 239.818 221.037 239.489 221.013 239.16 221 238.833 221Z" fill="#5D5D6D" fill-rule="evenodd"/></g></svg>