<svg width="45" height="46" xmlns="http://www.w3.org/2000/svg" xmlns:xlink="http://www.w3.org/1999/xlink" overflow="hidden"><defs><clipPath id="clip0"><rect x="840" y="163" width="45" height="46"/></clipPath></defs><g clip-path="url(#clip0)" transform="translate(-840 -163)"><path d="M864.959 165.283 864.959 167.159C864.959 167.258 864.86 167.357 864.761 167.357L856.477 167.357C856.377 167.357 856.278 167.258 856.278 167.159L856.278 165.283ZM863.481 172.283 854.207 178.199C853.863 178.447 853.495 178.567 853.122 178.567 852.753 178.567 852.384 178.447 852.036 178.199L842.767 172.283ZM866.538 182.119C866.761 182.119 866.981 182.194 867.13 182.339L873.736 188.945C873.736 189.045 873.836 189.144 873.935 189.239L877.485 194.368C877.389 194.468 870.978 200.971 870.779 201.07L870.779 200.971 857.069 196.633C856.477 196.438 856.083 195.945 856.083 195.353 855.984 195.055 856.278 194.762 856.676 194.762L861.803 194.861C862.789 194.861 863.282 193.776 862.59 193.085L853.615 184.114C853.321 183.82 853.321 183.229 853.615 182.93 853.813 182.736 854.033 182.637 854.257 182.637 854.48 182.637 854.7 182.736 854.899 182.93L862.69 190.721C862.789 190.866 862.938 190.941 863.096 190.941 863.257 190.941 863.431 190.866 863.58 190.721 863.874 190.423 863.874 190.03 863.58 189.831L861.604 187.861C860.859 187.19 861.468 186.238 862.147 186.238 862.367 186.238 862.594 186.337 862.789 186.577L864.86 188.552C864.997 188.689 865.15 188.747 865.299 188.747 865.784 188.747 866.202 188.117 865.746 187.662L863.775 185.692C863.236 185 863.775 184.193 864.413 184.193 864.595 184.193 864.785 184.259 864.959 184.408L866.931 186.383C867.08 186.528 867.254 186.602 867.424 186.602 867.598 186.602 867.772 186.528 867.917 186.383 868.116 186.184 868.116 185.791 867.917 185.592L865.945 183.622C865.552 183.229 865.552 182.736 865.945 182.339 866.094 182.194 866.314 182.119 866.538 182.119ZM864.86 172.875C864.86 173.074 864.959 173.269 864.959 173.467L864.959 181.254C864.566 181.651 864.268 182.243 864.268 182.736 863.675 182.736 863.183 183.03 862.789 183.423 862.396 183.82 862.097 184.408 862.197 185 861.604 185 861.012 185.199 860.619 185.592 860.42 185.791 860.225 186.085 860.126 186.383L855.686 181.945C855.238 181.519 854.741 181.337 854.261 181.337 852.65 181.337 851.258 183.402 852.629 185L861.211 193.578 856.576 193.383C855.491 193.383 854.6 194.368 854.7 195.453 854.799 196.537 855.491 197.423 856.576 197.817L869.793 201.956C869.3 203.041 869.495 204.324 870.286 205.111L871.471 206.195C871.172 206.493 870.679 206.593 870.286 206.593L851.051 206.593C849.966 206.593 849.079 205.703 849.079 204.717L849.079 189.831 854.207 189.831C854.252 189.844 854.294 189.848 854.331 189.848 854.957 189.848 854.957 188.536 854.331 188.536 854.294 188.536 854.252 188.54 854.207 188.552L842.469 188.552C842.419 188.556 842.369 188.56 842.32 188.56 841.694 188.56 841.189 188.014 841.189 187.467L841.189 173.467C841.189 173.269 841.189 173.074 841.284 172.875L851.25 179.383C851.792 179.726 852.409 179.9 853.035 179.9 853.664 179.9 854.306 179.726 854.899 179.383L864.86 172.875ZM851.051 164.004C849.274 164.004 847.795 165.482 847.795 167.258L847.795 171.004 842.469 171.004C841.089 171.004 840.004 172.089 840.004 173.467L840.004 187.467C840.004 188.747 841.089 189.831 842.469 189.831L847.895 189.831 847.895 204.717C847.895 206.493 849.274 207.971 851.051 207.971L870.286 207.971C871.073 207.971 871.765 207.677 872.357 207.184L873.049 207.772C873.148 207.921 873.293 207.996 873.455 207.996 873.616 207.996 873.786 207.921 873.935 207.772 874.134 207.578 874.134 207.085 873.935 206.886L871.272 204.225C870.978 204.03 870.878 203.633 870.878 203.239 870.878 202.946 870.978 202.548 871.272 202.254L878.176 195.353C878.425 195.055 878.769 194.911 879.125 194.911 879.485 194.911 879.854 195.055 880.148 195.353L882.811 197.916C882.911 198.065 883.06 198.139 883.221 198.139 883.379 198.139 883.553 198.065 883.702 197.916 883.996 197.717 883.996 197.324 883.702 197.03L881.138 194.368C880.641 193.876 879.953 193.578 879.162 193.578 879.063 193.578 878.868 193.578 878.669 193.677L875.02 188.353C874.821 188.155 874.726 188.059 874.627 187.861L873.542 186.776 873.542 175.537C873.641 175.144 873.268 174.945 872.9 174.945 872.531 174.945 872.158 175.144 872.258 175.537L872.258 185.493 868.116 181.353C867.623 180.861 866.931 180.666 866.339 180.666L866.339 173.467C866.339 172.089 865.253 171.004 863.874 171.004L849.079 171.004 849.079 167.159C849.079 166.128 849.879 165.279 850.885 165.279 850.939 165.279 850.997 165.279 851.051 165.283L855.097 165.283 855.097 167.159C855.097 167.945 855.686 168.636 856.576 168.636L864.86 168.636C865.651 168.636 866.339 167.945 866.339 167.159L866.339 165.283 870.286 165.283C871.371 165.283 872.258 166.074 872.258 167.159L872.258 172.482C872.357 172.776 872.63 172.925 872.887 172.925 873.148 172.925 873.392 172.776 873.442 172.482L873.442 167.159C873.442 165.383 872.063 164.004 870.286 164.004Z" fill="#005A35" fill-rule="evenodd"/></g></svg>