<svg width="461" height="525" viewBox="0 0 461 525" fill="none" xmlns="http://www.w3.org/2000/svg">
<g filter="url(#filter0_f_14_484)">
<path fill-rule="evenodd" clip-rule="evenodd" d="M90.4891 409.972L85.6742 427.216C86.1409 431.144 87.1554 434.83 88.7198 438.437C89.6762 440.029 90.9514 441.202 92.5786 441.966C93.3857 442.428 94.2321 443.094 94.8675 443.591C92.8897 441.355 91.5884 438.483 91.0193 435.316C90.2189 431.809 90.9116 427.937 92.8103 424.671C93.2985 424.056 93.7754 423.234 94.0886 422.626C94.0661 422.436 94.0661 422.436 94.0438 422.249C94.5001 421.255 94.539 420.102 94.5966 418.965L90.4891 409.972ZM177.395 30.9422C181.07 30.5094 185.042 31.2044 187.079 31.7928C190.799 32.6768 191.746 32.5653 199.112 32.0802L201.747 31.7698C207.78 31.2504 214.06 32.7888 219.229 36.1624C219.635 36.4968 219.893 37.04 219.958 37.5898L219.94 42.1476C219.795 42.5471 219.817 42.7356 219.484 43.1572L215.025 48.9867C214.874 49.1956 214.518 49.4287 214.16 49.662L210.136 51.0757L209.758 51.1202C209.379 51.1648 209.169 50.9984 208.783 50.8527C208.783 50.8527 201.059 46.8403 195.782 47.2706C192.769 47.6255 189.937 47.7678 187.257 47.7011L187.324 48.2666C187.369 48.6437 187.392 48.8322 187.245 49.2159C187.67 49.5481 188.281 49.8584 188.728 50.3792C189.368 51.0525 189.88 52.1391 190.013 53.2544L190.124 60.6485L190.924 60.9206C193.716 61.9299 195.524 64.3611 195.67 67.1954C196.07 70.5571 196.682 74.101 197.46 77.4183C202.891 78.2919 208.239 79.94 213.092 82.4109C222.172 86.6461 227.084 92.71 227.059 98.9732L227.84 107.021L228.897 120.755C242.95 126.873 251.85 136.068 251.931 146.301L265.287 220.2C265.299 218.686 265.864 217.107 266.865 215.841C267.86 214.785 269.166 214.2 270.46 214.048C270.712 214.018 270.967 214.003 271.207 214.007C274.901 214.528 277.875 217.205 278.486 220.734C279.377 219.88 280.47 219.385 281.606 219.251C283.341 219.046 285.144 219.679 286.343 221.146C288.546 223.53 288.947 226.907 287.553 229.717C288.734 229.96 289.709 230.227 290.367 230.915C294.165 234.067 293.522 239.83 289.399 242.02C291.187 244.278 291.564 247.451 290.165 250.084C289.389 251.498 287.964 252.432 286.488 252.796C286.209 252.877 285.943 252.924 285.69 252.954C284.901 253.046 284.167 252.926 283.422 252.583C283.59 255.607 281.833 258.458 278.931 259.755C278.591 259.987 278.212 260.032 277.644 260.099C276.524 260.231 275.343 259.986 274.512 259.32L274.302 259.17C276.211 264.058 278.288 268.751 280.19 273.449C282.988 271.414 285.802 269.38 288.601 267.346C295.956 261.923 303.166 256.901 310.544 251.667C311.067 251.224 311.971 250.75 312.69 250.476C313.062 250.368 313.438 250.307 313.817 250.262C316.089 249.994 318.491 250.684 320.17 252.43L319.958 252.263C349.251 275.942 378.373 299.813 407.71 323.869C408.452 320.547 408.219 316.975 406.7 313.745C404.84 309.409 403.885 304.598 403.496 299.707C402.763 290.315 403.15 280.775 404.53 271.518C404.998 268.993 405.472 266.66 406.364 264.469C407.005 261.923 407.919 259.921 408.795 257.731C409.686 255.538 410.752 253.326 412.028 251.281C412.843 250.054 413.684 249.189 414.732 248.317C415.74 247.242 417.188 246.5 418.876 246.301C420.397 246.312 421.774 246.724 423.212 247.51L423.424 247.677C423.618 247.829 424.019 247.972 424.253 248.328C424.888 248.825 425.546 249.514 426.163 249.998C427.733 251.9 429.31 253.992 430.523 256.128C432.723 260.232 434.587 264.744 435.923 269.525C437.965 278.762 438.721 288.358 437.569 297.781C436.59 307.183 434.432 316.357 431.488 325.241C430.289 329.556 430.086 334.311 429.121 338.98C428.653 341.505 427.8 343.884 426.735 346.096C425.291 348.353 423.62 350.444 421.322 351.846C420.253 352.545 419.178 353.054 417.896 353.572C416.631 354.103 415.344 354.446 413.845 354.623C410.976 354.579 408.33 353.186 406.352 350.948C404.609 349.067 403.375 346.761 402.707 344.369C401.888 342.187 401.81 339.92 402.095 337.608L314.557 266.184C304.677 272.843 295.002 279.478 285.101 285.965C286.988 290.665 289.087 295.546 290.99 300.244L305.748 336.259L313.224 354.334L315.09 358.861L315.925 361.041C316.202 361.757 316.67 362.466 316.971 363.386L316.992 363.56C319.656 363.629 322.279 364.832 324.045 366.903C328.582 374.525 329.579 378.198 329.614 380.106C333.807 383.211 337.271 386.786 340.061 391.012L340.996 392.417C344.104 396.224 359.418 416.036 355.519 431.293C352.673 442.619 343.562 447.675 334.537 448.738C332.659 448.959 330.759 448.991 328.839 448.852C325.947 448.619 323.084 446.87 321.613 444.191C318.917 445.464 312.816 448.651 307.239 451.396C306.165 451.92 305.081 452.222 304.008 452.349C298.028 453.053 292.309 448.28 290.682 446.703C285.068 446.041 280.066 442.457 277.754 437.409C274.878 437.174 268.056 435.908 265.222 424.851C264.512 422.099 265.085 418.99 266.908 416.688C269.527 413.545 274.405 412.317 278.507 411.834C280.432 411.608 282.168 411.546 283.446 411.524C283.667 410.158 284.081 408.788 284.879 407.564C284.655 405.679 284.858 400.923 287.769 390.147C288.657 386.442 290.768 383.343 293.756 381.286C294.057 378.972 295.28 371.628 298.255 367.854C299.304 366.981 300.524 366.072 301.978 365.519L301.444 364.259L299.578 359.732L292.292 341.634L282.078 316.667L282.644 319.817C283.735 322.539 284.302 325.691 284.28 328.736C284.381 342.376 274.076 355.153 255.219 364.766C240.774 371.788 225.134 376.29 209.15 378.172C208.599 378.237 208.047 378.302 207.491 378.351C201.669 379.037 195.828 379.549 189.726 379.504L190.673 411.441C193.983 413.712 196.828 416.786 198.939 420.136C201.26 423.656 203.225 427.406 204.851 431.387C205.641 433.19 206.248 435.206 207.208 436.812C208.164 438.404 209.15 440.374 210.129 442.156C210.83 443.204 211.539 444.458 212.262 445.696L212.285 445.885C213.672 447.998 214.906 450.306 216.164 452.818C220.074 460.132 222.551 468.186 223.741 476.584C224.742 485.004 223.463 493.503 220.005 501.3L219.877 501.699C218.245 503.978 215.552 505.426 212.538 505.781C211.017 505.768 209.431 505.206 208.159 504.21C207.563 503.896 207.119 503.391 206.696 503.059L205.209 501.722C201.751 498.338 198.307 494.935 195.183 491.13C192.06 487.34 189.286 483.112 187.192 478.42C185.328 473.908 183.992 469.128 183.05 464.3L181.45 457.288C181.317 456.173 180.97 454.876 180.838 453.761C180.582 453.218 180.515 452.652 180.282 452.314C180.215 451.748 179.96 451.204 179.702 450.661C177.86 446.338 175.617 441.855 173.924 437.308C172.037 432.608 170.701 427.827 170.292 422.763C170.169 420.117 170.616 417.404 171.657 415.003C172.913 412.769 174.803 411.034 176.992 410.217L175.626 379.46C153.603 378.453 133.201 373.448 117.221 365.662C103.629 358.724 94.4405 350.328 90.2864 340.958L87.8776 347.883L91.5999 348.768L92.0005 348.911C97.4191 351.3 100.22 357.229 98.4183 362.937C98.0684 364.7 97.6549 366.071 97.219 367.253C100.289 368.978 103.051 371.503 104.756 374.522C112.5 388.407 117.589 402.415 117.675 409.605C117.778 416.809 115.421 438.702 114.868 441.984C113.998 444.365 112.131 446.29 109.768 447.142C108.731 447.567 107.658 447.836 106.569 447.964C103.446 448.332 100.216 447.533 97.5855 445.741L96.9891 445.429C98.7096 447.121 99.9234 449.257 100.764 451.611C102.323 455.044 101.843 459.081 99.7299 462.166C97.6113 465.075 94.419 467.156 90.8536 467.576L89.9218 467.686C85.1766 467.863 75.7521 462.346 72.5637 454.757C70.1843 449.143 68.2974 444.444 67.5533 443.017C64.0976 441.147 60.7944 439.066 57.6758 436.773C55.916 434.893 54.8645 432.374 54.7428 429.728C52.0959 428.335 49.5515 426.166 47.5512 423.741C43.5075 418.53 41.9295 411.708 42.8621 405.146C43.7596 399.912 50.4185 377.32 50.6868 376.349C50.8377 376.14 50.8377 376.14 50.8152 375.951C52.5929 373.273 54.6054 370.949 56.8509 368.98C55.6316 366.655 54.9396 364.076 54.8197 361.445C54.4715 352.185 55.9169 346.711 59.5174 344.964C60.3503 344.578 61.4239 344.308 62.6857 344.16C65.5894 343.818 69.4738 344.062 73.3842 344.653L77.0168 335.114L90.7969 298.797L92.5647 294.414L112.432 147.358C112.352 137.125 120.611 127.996 134.32 121.651L135.345 99.7069C135.332 93.273 140.145 87.1946 149.156 82.9158C153.832 80.6606 158.778 78.9311 163.799 77.9735L165.234 67.562C165.301 64.894 167.313 62.5703 170.746 61.0351L170.637 53.6408C170.603 51.7492 171.947 50.2688 174.304 49.2266C174.282 49.0381 174.259 48.8496 174.237 48.6611L174.188 46.7712C173.003 46.3533 171.966 45.7107 171.092 44.6827C170.011 43.6632 169.448 42.0251 169.444 40.5122C169.399 40.1352 169.522 39.5473 169.665 39.1481L169.834 35.7193C170.002 35.5084 169.979 35.3199 170.145 35.1092C171.477 32.4515 174.334 31.3026 177.395 30.9422Z" fill="white" stroke="white" stroke-width="12" stroke-miterlimit="10" stroke-linejoin="round"/>
</g>
<path fill-rule="evenodd" clip-rule="evenodd" d="M90.4891 406.235L85.6742 423.479C86.1409 427.407 87.1554 431.093 88.7198 434.7C89.6762 436.292 90.9514 437.465 92.5786 438.229C93.3857 438.691 94.2321 439.357 94.8676 439.854C92.8897 437.618 91.5884 434.746 91.0193 431.579C90.219 428.072 90.9116 424.2 92.8103 420.934C93.2985 420.319 93.7754 419.497 94.0886 418.889C94.0661 418.699 94.0661 418.699 94.0438 418.512C94.5002 417.517 94.539 416.365 94.5966 415.228L90.4891 406.235ZM177.395 27.2051C181.07 26.7723 185.042 27.4674 187.079 28.0558C190.799 28.9397 191.746 28.8282 199.112 28.3431L201.747 28.0327C207.78 27.5134 214.06 29.0517 219.229 32.4253C219.635 32.7597 219.893 33.3029 219.958 33.8527L219.94 38.4106C219.795 38.81 219.817 38.9985 219.484 39.4201L215.025 45.2497C214.874 45.4586 214.518 45.6917 214.16 45.9249L210.136 47.3386L209.758 47.3832C209.379 47.4277 209.169 47.2614 208.783 47.1156C208.783 47.1156 201.059 43.1033 195.782 43.5335C192.769 43.8884 189.937 44.0307 187.257 43.964L187.324 44.5296C187.369 44.9067 187.392 45.0952 187.245 45.4788C187.67 45.8111 188.281 46.1214 188.728 46.6421C189.368 47.3155 189.88 48.402 190.013 49.5173L190.124 56.9114L190.924 57.1836C193.716 58.1928 195.524 60.624 195.67 63.4583C196.07 66.8201 196.682 70.3639 197.46 73.6813C202.891 74.5549 208.239 76.2029 213.092 78.6738C222.172 82.909 227.084 88.973 227.059 95.2361L227.84 103.284L228.897 117.018C242.95 123.136 251.85 132.331 251.931 142.564L265.287 216.463C265.299 214.949 265.864 213.37 266.865 212.104C267.86 211.048 269.166 210.463 270.46 210.311C270.712 210.281 270.967 210.266 271.207 210.27C274.901 210.791 277.875 213.468 278.486 216.997C279.377 216.143 280.47 215.648 281.606 215.514C283.341 215.309 285.144 215.942 286.343 217.409C288.546 219.793 288.947 223.17 287.553 225.98C288.734 226.223 289.709 226.49 290.367 227.178C294.165 230.33 293.522 236.093 289.399 238.283C291.187 240.541 291.564 243.714 290.165 246.347C289.389 247.761 287.964 248.695 286.488 249.059C286.209 249.14 285.943 249.187 285.69 249.216C284.902 249.309 284.167 249.189 283.422 248.846C283.59 251.87 281.833 254.721 278.931 256.018C278.591 256.25 278.212 256.295 277.644 256.362C276.524 256.493 275.343 256.249 274.512 255.583L274.302 255.432C276.211 260.321 278.288 265.014 280.19 269.711C282.988 267.677 285.802 265.643 288.601 263.609C295.956 258.186 303.166 253.164 310.544 247.93C311.067 247.487 311.971 247.013 312.69 246.738C313.062 246.631 313.438 246.57 313.817 246.525C316.089 246.257 318.491 246.947 320.17 248.693L319.958 248.526C349.251 272.205 378.373 296.076 407.71 320.132C408.452 316.81 408.219 313.238 406.7 310.008C404.84 305.672 403.885 300.861 403.496 295.97C402.763 286.578 403.15 277.038 404.53 267.781C404.998 265.256 405.472 262.923 406.364 260.732C407.005 258.186 407.919 256.183 408.795 253.994C409.686 251.8 410.752 249.589 412.028 247.544C412.843 246.317 413.684 245.452 414.732 244.58C415.74 243.505 417.188 242.763 418.876 242.564C420.397 242.575 421.774 242.987 423.212 243.773L423.424 243.94C423.618 244.092 424.019 244.235 424.253 244.591C424.888 245.088 425.546 245.777 426.163 246.261C427.733 248.162 429.31 250.255 430.523 252.391C432.723 256.495 434.587 261.007 435.923 265.788C437.965 275.025 438.721 284.621 437.569 294.044C436.59 303.446 434.432 312.62 431.488 321.504C430.289 325.819 430.086 330.574 429.121 335.243C428.653 337.768 427.8 340.147 426.735 342.359C425.291 344.616 423.62 346.707 421.322 348.108C420.254 348.808 419.178 349.317 417.896 349.835C416.631 350.366 415.344 350.709 413.845 350.886C410.976 350.842 408.33 349.449 406.352 347.211C404.609 345.33 403.375 343.024 402.707 340.632C401.888 338.45 401.81 336.183 402.095 333.871L314.557 262.447C304.677 269.106 295.002 275.741 285.101 282.228C286.988 286.928 289.087 291.809 290.99 296.507L305.748 332.522L313.224 350.597L315.09 355.124L315.925 357.304C316.202 358.02 316.67 358.729 316.971 359.649L316.992 359.823C319.656 359.892 322.279 361.095 324.045 363.166C328.582 370.787 329.579 374.461 329.614 376.369C333.807 379.474 337.271 383.049 340.061 387.275L340.996 388.68C344.104 392.487 359.418 412.299 355.519 427.556C352.673 438.882 343.562 443.938 334.537 445.001C332.659 445.222 330.759 445.254 328.839 445.115C325.947 444.882 323.084 443.133 321.613 440.454C318.917 441.727 312.816 444.914 307.239 447.659C306.165 448.183 305.081 448.485 304.008 448.611C298.028 449.316 292.309 444.543 290.682 442.966C285.068 442.304 280.066 438.72 277.754 433.672C274.878 433.437 268.056 432.17 265.222 421.114C264.512 418.362 265.085 415.253 266.908 412.951C269.527 409.808 274.405 408.58 278.507 408.097C280.432 407.87 282.168 407.809 283.446 407.786C283.667 406.421 284.081 405.051 284.879 403.827C284.655 401.941 284.858 397.186 287.769 386.41C288.657 382.705 290.768 379.606 293.756 377.549C294.057 375.235 295.28 367.891 298.255 364.116C299.304 363.244 300.524 362.335 301.978 361.782L301.444 360.522L299.578 355.995L292.292 337.897L282.078 312.93L282.644 316.08C283.735 318.802 284.302 321.954 284.28 324.999C284.381 338.639 274.076 351.416 255.219 361.029C240.774 368.051 225.134 372.553 209.15 374.435C208.599 374.5 208.047 374.565 207.492 374.614C201.669 375.299 195.828 375.812 189.726 375.767L190.673 407.704C193.983 409.974 196.828 413.049 198.939 416.399C201.26 419.919 203.225 423.668 204.851 427.65C205.641 429.453 206.248 431.469 207.208 433.075C208.164 434.667 209.15 436.637 210.129 438.419C210.83 439.467 211.539 440.721 212.262 441.958L212.285 442.148C213.672 444.261 214.906 446.569 216.164 449.081C220.074 456.395 222.551 464.449 223.741 472.847C224.742 481.267 223.463 489.765 220.005 497.563L219.877 497.962C218.245 500.241 215.552 501.689 212.538 502.043C211.017 502.031 209.431 501.469 208.159 500.473C207.563 500.159 207.119 499.654 206.696 499.322L205.209 497.985C201.751 494.601 198.307 491.198 195.183 487.393C192.06 483.603 189.286 479.375 187.192 474.683C185.328 470.171 183.992 465.391 183.05 460.563L181.45 453.551C181.317 452.436 180.97 451.139 180.838 450.024C180.582 449.48 180.515 448.915 180.282 448.577C180.215 448.011 179.96 447.467 179.702 446.924C177.86 442.601 175.617 438.118 173.924 433.571C172.037 428.871 170.701 424.09 170.292 419.026C170.169 416.38 170.616 413.667 171.657 411.266C172.913 409.032 174.803 407.296 176.992 406.48L175.626 375.723C153.603 374.716 133.201 369.711 117.221 361.924C103.629 354.987 94.4405 346.591 90.2864 337.221L87.8776 344.146L91.5999 345.031L92.0005 345.173C97.4191 347.563 100.22 353.492 98.4183 359.2C98.0684 360.963 97.6549 362.334 97.219 363.516C100.289 365.241 103.052 367.766 104.756 370.785C112.5 384.67 117.589 398.678 117.675 405.868C117.778 413.071 115.421 434.965 114.868 438.247C113.998 440.628 112.131 442.553 109.768 443.405C108.732 443.83 107.658 444.099 106.57 444.227C103.446 444.595 100.216 443.796 97.5856 442.004L96.9891 441.692C98.7096 443.384 99.9234 445.52 100.764 447.874C102.323 451.307 101.843 455.344 99.7299 458.429C97.6113 461.338 94.4191 463.419 90.8537 463.839L89.9218 463.949C85.1766 464.125 75.7521 458.609 72.5637 451.02C70.1844 445.406 68.2974 440.706 67.5533 439.279C64.0976 437.41 60.7944 435.329 57.6758 433.036C55.916 431.156 54.8645 428.637 54.7428 425.991C52.0959 424.598 49.5515 422.429 47.5512 420.004C43.5075 414.793 41.9296 407.97 42.8621 401.409C43.7596 396.175 50.4185 373.583 50.6869 372.612C50.8377 372.403 50.8377 372.403 50.8152 372.213C52.5929 369.536 54.6054 367.212 56.8509 365.243C55.6316 362.918 54.9396 360.339 54.8197 357.708C54.4715 348.447 55.9169 342.973 59.5174 341.227C60.3503 340.841 61.4239 340.571 62.6857 340.423C65.5894 340.081 69.4738 340.325 73.3842 340.916L77.0168 331.377L90.7969 295.06L92.5647 290.677L112.432 143.621C112.352 133.387 120.611 124.259 134.32 117.914L135.345 95.9699C135.332 89.5359 140.145 83.4576 149.156 79.1788C153.832 76.9235 158.778 75.1941 163.799 74.2365L165.234 63.8249C165.301 61.1569 167.313 58.8332 170.746 57.298L170.637 49.9037C170.603 48.0121 171.947 46.5318 174.304 45.4895C174.282 45.301 174.259 45.1125 174.237 44.924L174.188 43.0341C173.003 42.6162 171.966 41.9737 171.092 40.9457C170.011 39.9261 169.448 38.288 169.444 36.7752C169.399 36.3981 169.522 35.8102 169.665 35.411L169.834 31.9823C170.002 31.7714 169.979 31.5829 170.145 31.3722C171.477 28.7144 174.334 27.5655 177.395 27.2051Z" fill="white" stroke="white" stroke-width="12" stroke-miterlimit="10" stroke-linejoin="round"/>
<path fill-rule="evenodd" clip-rule="evenodd" d="M423.692 244.11C424.292 244.039 424.925 244.251 425.23 244.805C425.699 245.514 425.644 246.667 424.929 247.118L424.589 247.349C424.232 247.582 423.898 248.004 423.565 248.425C423.079 249.056 422.766 249.65 422.455 250.261C421.663 251.676 421.078 253.083 420.665 254.454C419.667 257.231 419.074 260.327 418.667 263.227C418.052 269.368 418.044 275.629 418.588 281.826C419.295 294.247 420.762 306.595 422.251 319.131C422.295 319.508 422.128 319.719 421.982 320.102C420.528 323.889 418.693 327.705 417.449 331.643C416.015 335.603 415.361 339.662 415.472 343.823C415.516 344.2 415.349 344.411 415.16 344.433C414.971 344.455 414.759 344.289 414.547 344.123C413.635 339.674 413.692 335.303 414.891 330.988C415.217 328.879 415.73 326.732 416.416 324.565C417.089 322.685 417.937 320.801 418.799 318.9C417.357 306.756 415.91 294.438 415.173 282.036C414.607 275.652 414.608 269.2 415.185 262.872C415.588 259.798 416.329 256.477 417.323 253.525C417.885 251.929 418.465 250.348 419.241 248.934C419.53 248.136 420.011 247.33 420.512 246.698C421.164 245.857 421.833 245.029 422.719 244.543C422.977 244.289 423.329 244.152 423.692 244.11Z" fill="#335A3A"/>
<path fill-rule="evenodd" clip-rule="evenodd" d="M179.631 31.6054C180.262 31.531 180.912 31.4863 181.6 31.485C183.901 31.5964 186.231 32.0868 188.431 32.9588C190.989 33.486 193.499 33.7322 196.086 33.4276C196.465 33.383 196.842 33.3227 197.233 33.2449C204.365 32.4054 211.757 33.622 218.402 36.6309L219.237 38.8105L214.59 44.678L210.588 46.28C210.588 46.28 202.456 41.9327 196.801 42.4073C190.934 42.7156 176.42 44.0418 173.084 40.0698C172.422 39.2079 172.098 38.0991 172.155 36.9615C172.11 36.5844 172.088 36.3959 172.232 35.9966C172.791 33.8282 175.781 32.0585 179.631 31.6054Z" fill="#E74645"/>
<path fill-rule="evenodd" clip-rule="evenodd" d="M178.865 30.819C176.782 31.0642 174.974 31.7389 174.163 33.1247L173.776 36.1968C173.798 36.3853 173.798 36.3853 173.631 36.5961C173.631 36.5961 173.653 36.7846 173.676 36.9731C173.765 37.7272 174.042 38.4433 174.299 38.9865C175.173 40.0146 179.24 42.1961 196.6 40.726C201.688 40.3183 208.522 43.3049 210.744 44.3656L213.691 43.4453L217.444 38.2724L217.633 35.0165C213.145 32.5183 208.07 31.4113 202.944 31.6323L200.309 31.9425C192.943 32.4273 190.854 32.4821 187.133 31.5979C185.073 30.9642 181.705 30.4847 178.865 30.819ZM178.523 27.6734C182.278 27.2313 186.266 27.9406 188.086 28.4433C191.446 29.3858 192.755 29.2316 200.12 28.7311L202.755 28.421C208.811 28.0903 214.9 29.6515 220.236 32.8146C220.659 33.147 220.9 33.6921 220.965 34.242L220.757 38.8222C220.802 39.1992 220.657 39.5986 220.49 39.8094L215.88 45.8477C215.713 46.0585 215.546 46.2693 215.167 46.3139L211.166 47.9159L210.787 47.9604C210.408 48.005 210.212 47.8369 209.834 47.8815C209.834 47.8815 201.898 43.7024 196.81 44.1101C182.864 45.3694 174.753 44.4286 171.93 41.5432C171.016 40.3127 170.476 38.863 170.473 37.3502C170.405 36.7846 170.338 36.2191 170.485 35.8355L170.863 32.5573C170.841 32.3688 171.008 32.158 170.987 31.9852C172.387 29.2239 175.367 28.0448 178.523 27.6734Z" fill="#005A35"/>
<path fill-rule="evenodd" clip-rule="evenodd" d="M180.162 34.6016C180.541 34.5571 180.955 34.5402 181.388 34.5529C184.255 34.5817 186.463 35.6599 186.445 36.9842L186.62 44.9282C186.595 46.0621 185.039 47.1055 182.94 47.3525C182.562 47.3971 182.179 47.4102 181.761 47.3957C178.908 47.3493 176.875 46.2664 176.721 44.9625L176.552 37.2089L176.529 37.0204C176.57 35.8846 177.984 34.858 180.162 34.6016Z" fill="#F05016" stroke="#005A35" stroke-width="2" stroke-miterlimit="10" stroke-linejoin="round"/>
<path fill-rule="evenodd" clip-rule="evenodd" d="M60.0037 367.841C61.4458 368.802 62.8831 369.589 64.4717 370.167C64.4717 370.167 64.17 370.186 63.6493 370.247C61.5981 370.489 56.277 371.354 54.4463 373.991C55.8678 371.546 57.7128 369.433 60.0037 367.841Z" fill="#335A3A"/>
<path fill-rule="evenodd" clip-rule="evenodd" d="M315.905 374.101C329.616 372.487 338.317 387.01 340.539 389.823C343.194 392.919 358.485 412.544 354.881 427.193C351.848 438.972 342.468 442.704 334.91 443.594C333.064 443.811 331.325 443.856 329.816 443.811C326.879 443.201 324.356 441.22 323.093 438.533C323.093 438.533 314.634 442.747 307.435 446.254C306.527 446.696 305.629 446.945 304.714 447.053C298.387 447.797 292.377 441.384 292.377 441.384C286.632 441.105 281.799 437.325 279.655 432.066C279.655 432.066 279.594 432.089 279.499 432.1C278.316 432.239 270.826 432.627 267.855 420.95C265.844 413.047 273.474 410.604 279.533 409.891C283.225 409.456 286.322 409.665 286.322 409.665C285.91 407.818 286.446 405.859 287.601 404.401C287.601 404.401 286.582 400.539 290.302 387.007C292.502 378.449 300.114 375.992 305.51 375.357C308.745 374.976 311.195 375.261 311.195 375.261C312.819 374.656 314.39 374.279 315.905 374.101Z" fill="#E6FFE6"/>
<path fill-rule="evenodd" clip-rule="evenodd" d="M253.768 219.365C256.34 219.063 259.339 221.545 260.807 225.291L315.594 359.37C317.248 363.731 316.427 368.001 313.692 369.087C313.402 369.201 313.09 369.27 312.774 369.307C310.218 369.608 307.27 367.279 305.805 363.565L250.994 229.281C249.362 225.109 250.185 220.854 252.897 219.579C253.172 219.467 253.468 219.401 253.768 219.365Z" fill="#D0EFBD" stroke="#005A35" stroke-width="3" stroke-miterlimit="10" stroke-linejoin="round"/>
<path fill-rule="evenodd" clip-rule="evenodd" d="M305.452 377.035C300.529 377.615 293.818 379.838 291.867 387.395C288.436 400.129 289.243 403.825 289.243 403.825C289.31 404.39 289.202 404.961 288.845 405.194C288.534 405.804 287.446 407.827 287.775 409.111C288.031 409.654 287.909 410.242 287.591 410.662C287.255 411.068 286.71 411.323 286.141 411.39C284.747 411.235 282.264 411.209 279.613 411.521C276.047 411.941 272.217 412.965 270.395 415.139C269.265 416.801 268.919 418.737 269.52 420.562C272.065 431.079 278.617 430.483 279.391 430.392C279.422 430.388 279.438 430.386 279.454 430.384C280.195 430.297 281.02 430.773 281.299 431.505C282.996 436.227 287.384 439.502 292.388 439.869C292.766 439.824 293.167 439.968 293.573 440.287C293.594 440.46 299.114 446.118 304.478 445.486C305.22 445.399 305.962 445.184 306.686 444.812C313.887 441.32 322.322 436.903 322.322 436.903C322.445 436.856 322.585 436.824 322.711 436.809C323.374 436.731 324.113 437.026 324.501 437.602C325.458 439.194 327.313 442.018 329.991 442.069C331.102 442.129 332.882 442.159 334.98 441.912C341.245 441.174 350.382 438.092 353.315 426.819L353.126 426.841C356.65 413.141 342.25 394.542 339.338 390.903C339.104 390.548 338.66 390.043 338.191 389.333C335.165 385.134 327.292 374.48 316.12 375.795C314.732 375.959 313.271 376.322 311.771 376.896L311.014 376.986C310.8 376.931 308.45 376.682 305.452 377.035ZM315.877 372.399C328.847 370.872 337.398 382.657 341.028 387.486L341.94 388.701C345.048 392.509 360.172 412.345 356.461 427.58C353.45 439.132 344.528 444.165 335.502 445.227C333.625 445.448 331.725 445.481 329.991 445.303C326.888 444.903 324.214 443.131 322.579 440.68C319.88 441.937 313.779 445.124 308.368 447.657C307.221 448.238 306.092 448.562 304.971 448.694C298.976 449.4 293.438 444.54 291.795 442.965C286.03 442.513 281.044 438.926 278.697 433.707C275.843 433.661 269.019 432.377 266.375 421.299C265.475 418.569 266.065 415.457 267.872 413.158C270.491 410.014 275.423 408.701 279.572 408.212C281.529 407.982 283.317 407.947 284.599 407.971C284.612 406.457 285.196 405.05 285.821 403.845C285.811 402.142 285.823 397.394 288.713 386.429C290.996 377.638 298.938 374.457 305.486 373.686C307.522 373.446 309.441 373.443 310.991 373.563C312.681 372.966 314.315 372.583 315.877 372.399Z" fill="#005A35" stroke="#005A35" stroke-miterlimit="10" stroke-linejoin="round"/>
<path fill-rule="evenodd" clip-rule="evenodd" d="M309.623 361.777C309.86 361.75 310.097 361.722 310.349 361.692C317.481 360.852 322.238 362.379 323.391 364.139C324.582 366.086 330.128 375.867 328.596 377.385C327.236 378.867 318.824 380.24 307.391 381.777C306.967 381.843 306.557 381.891 306.178 381.935C295.985 383.135 296.159 378.543 296.159 378.543C296.159 378.543 297.333 369.293 300.493 365.321C300.493 365.321 302.996 362.558 309.623 361.777Z" fill="#F56038" stroke="#005A35" stroke-width="2" stroke-miterlimit="10" stroke-linejoin="round"/>
<path fill-rule="evenodd" clip-rule="evenodd" d="M308.138 394.385C308.312 394.364 308.523 394.531 308.546 394.719C309.037 395.617 309.525 396.499 310.016 397.397C310.482 398.091 310.957 398.991 311.615 399.678C312.761 401.248 314.226 402.398 316.046 403.314C317.68 404.269 319.473 404.822 321.394 404.963C323.127 405.141 325.027 405.108 326.905 404.887L327.094 404.865C327.836 404.778 328.66 405.254 328.77 406.181L330.528 414.512C330.762 414.867 330.617 415.266 330.473 415.666C329.006 417.734 327.669 419.405 326.37 421.262C325.528 422.126 324.881 423.142 324.024 424.007C323.516 424.449 323.036 425.254 322.769 426.242C322.227 428.01 322.071 429.924 322.504 431.96C322.916 433.807 323.523 435.822 324.503 437.602C325.148 438.864 324.187 439.933 323.162 440.054C322.594 440.121 322.008 439.903 321.659 439.259C320.446 437.124 319.591 434.772 319.112 432.359C318.634 429.946 318.89 427.256 319.572 424.914C319.99 423.718 320.826 422.679 321.661 421.625C322.525 420.95 323.194 420.122 323.847 419.281C325.015 417.805 326.184 416.33 327.085 414.758L325.909 408.493C324.25 408.672 322.564 408.616 320.826 408.263C318.669 407.752 316.659 406.858 314.792 405.549C312.926 404.255 311.401 402.73 310.226 400.782C309.246 399.001 308.45 397.008 308.016 394.973C307.804 394.806 307.971 394.596 308.138 394.385Z" fill="#005A35" stroke="#005A35" stroke-miterlimit="10" stroke-linejoin="round"/>
<path fill-rule="evenodd" clip-rule="evenodd" d="M301.136 419.086C302.036 418.981 302.929 418.955 303.812 418.979C304.781 419.056 305.779 419.512 306.603 419.988C307.239 420.487 307.879 421.16 308.536 421.847C309.834 423.208 310.958 424.589 311.894 426.008C312.088 426.16 311.937 426.369 311.77 426.58C311.581 426.602 311.391 426.624 311.18 426.458C310.245 425.055 309.159 423.861 307.866 422.675C306.781 421.48 305.345 420.71 303.59 420.343C303.272 420.364 302.955 420.386 302.639 420.423C299.736 420.765 296.829 421.887 294.49 423.883C293.246 424.587 292.055 425.874 291.257 427.099C290.656 428.508 290.454 430.045 290.632 431.537C291.198 434.688 292.357 437.977 293.831 440.83C293.839 440.892 293.874 440.92 293.89 440.918C293.953 440.911 294.021 440.807 294.021 440.807C294.509 442.088 293.586 443.073 292.608 443.188C291.913 443.27 291.2 442.923 290.923 441.937C289.388 438.708 288.412 435.207 287.99 431.657C287.935 429.577 288.265 427.642 289.413 425.994C290.356 424.37 291.91 423.04 293.511 422.103C295.757 420.405 298.407 419.408 301.136 419.086Z" fill="#005A35" stroke="#005A35" stroke-miterlimit="10" stroke-linejoin="round"/>
<path fill-rule="evenodd" clip-rule="evenodd" d="M291.352 412.831C291.763 412.783 292.175 412.75 292.587 412.717C294.298 412.707 295.857 412.906 297.446 413.483C298.843 414.068 300.136 415.254 300.714 416.89C300.737 417.078 300.568 417.274 300.378 417.296C300.323 417.366 300.277 417.387 300.23 417.393C300.104 417.408 299.994 417.293 299.979 417.168C299.444 415.893 298.38 414.887 296.988 414.477C295.611 414.066 294.279 414.031 292.764 414.21C289.956 414.54 287.198 415.438 284.524 416.9C283.999 417.328 283.476 417.772 282.952 418.216C282.445 418.658 282.111 419.08 281.608 419.696C280.985 420.917 280.565 422.097 280.343 423.461C279.896 426.158 280.23 428.97 281.299 431.505C281.488 431.482 281.509 431.655 281.319 431.677C281.598 432.409 281.142 433.419 280.234 433.717C280.125 433.745 280.032 433.772 279.938 433.784C279.243 433.865 278.454 433.416 278.199 432.618C277.254 429.512 277.042 426.112 277.597 422.829C277.987 421.27 278.757 419.666 279.743 418.403C280.223 417.598 280.898 416.945 281.421 416.501C282.133 416.035 282.83 415.57 283.545 415.12C286.067 413.995 288.623 413.152 291.352 412.831Z" fill="#005A35" stroke="#005A35" stroke-miterlimit="10" stroke-linejoin="round"/>
<path fill-rule="evenodd" clip-rule="evenodd" d="M315.001 248.493C316.689 248.295 318.3 249.061 319.591 250.231L409.228 323.324C411.17 318.922 410.947 313.819 408.915 309.503C403.783 298.351 405.142 271.271 408.985 260.384C411.584 253.038 414.825 245.297 419.432 244.755C421.657 244.493 424.209 245.913 427.178 249.896C444.697 274.006 434.185 310.51 430.929 320.005C427.671 329.484 431.071 343.691 417.76 348.683C416.995 348.98 416.249 349.163 415.539 349.247C407.776 350.161 403.328 339.247 404.902 333.503L315.476 260.576L268.069 292.901C267.319 293.452 266.477 293.774 265.625 293.874C263.731 294.097 261.792 293.258 260.693 291.683C259.072 289.214 259.626 285.931 262.084 284.128L312.243 249.391L312.6 249.158C312.956 248.925 313.145 248.903 313.486 248.672L315.001 248.493Z" fill="#E6FFE6" stroke="#005A35" stroke-width="4" stroke-miterlimit="10" stroke-linejoin="round"/>
<path fill-rule="evenodd" clip-rule="evenodd" d="M179.547 46.2543C180.099 46.1893 180.655 46.1557 181.244 46.1341C185.613 46.0022 189.256 47.8512 189.122 49.9537L189.411 63.5711L189.456 63.9481C189.499 65.7908 186.678 67.3653 183.001 67.7981C182.528 67.8538 182.037 67.8958 181.542 67.9063C176.963 67.8719 173.51 66.0163 173.455 63.936L173.142 50.1145C173.068 48.1479 175.823 46.6926 179.547 46.2543Z" fill="#F89114" stroke="#005A35" stroke-width="2" stroke-miterlimit="10" stroke-linejoin="round"/>
<path fill-rule="evenodd" clip-rule="evenodd" d="M178.451 57.5027C179.413 57.3894 180.413 57.3195 181.418 57.2968C189.019 57.1667 195.111 60.2407 195.154 63.8356C194.743 65.2221 200.175 91.6944 200.955 95.0273C200.977 95.2158 200.977 95.2158 200.998 95.3886C201.043 95.7656 201.087 96.1426 201.132 96.5197C201.05 101.484 194.659 105.469 186.092 106.478C184.814 106.628 183.495 106.704 182.152 106.718C171.872 106.782 163.339 102.291 163.437 96.7835L163.639 95.2464L167.929 64.0139C167.876 60.7387 172.439 58.2103 178.451 57.5027Z" fill="#DFB32C"/>
<path fill-rule="evenodd" clip-rule="evenodd" d="M178.451 57.5027C179.413 57.3894 180.413 57.3195 181.418 57.2968C189.019 57.1667 195.111 60.2407 195.154 63.8356C194.743 65.2221 200.175 91.6944 200.955 95.0273C200.977 95.2158 200.977 95.2158 200.998 95.3886C201.043 95.7656 201.087 96.1426 201.132 96.5197C201.05 101.484 194.659 105.469 186.092 106.478C184.814 106.628 183.495 106.704 182.152 106.718C171.872 106.782 163.339 102.291 163.437 96.7835L163.639 95.2464L167.929 64.0139C167.876 60.7387 172.439 58.2103 178.451 57.5027Z" fill="#F8C019" stroke="#005A35" stroke-width="2" stroke-miterlimit="10" stroke-linejoin="round"/>
<path fill-rule="evenodd" clip-rule="evenodd" d="M171.844 74.8949C175.079 74.5141 178.448 74.3246 181.919 74.3143C206.489 74.2734 226.28 83.6996 226.354 95.6378L230.629 144.436L230.831 146.132C230.841 157.266 215.005 166.585 193.783 169.083C190.422 169.478 186.928 169.698 183.349 169.738C157.068 169.789 135.457 159.446 135.467 146.733L137.848 96.1959C137.94 85.9266 152.358 77.1887 171.844 74.8949Z" fill="#CD8325"/>
<path fill-rule="evenodd" clip-rule="evenodd" d="M171.844 74.8949C175.079 74.5141 178.448 74.3246 181.919 74.3143C206.489 74.2734 226.28 83.6996 226.354 95.6378L230.629 144.436L230.831 146.132C230.841 157.266 215.005 166.585 193.783 169.083C190.422 169.478 186.928 169.698 183.349 169.738C157.068 169.789 135.457 159.446 135.467 146.733L137.848 96.1959C137.94 85.9266 152.358 77.1887 171.844 74.8949Z" fill="#F56038"/>
<path fill-rule="evenodd" clip-rule="evenodd" d="M172.263 76.3902L172.285 76.5788C171.684 76.6336 171.1 76.7023 170.516 76.7711C163.968 77.5419 157.565 79.2673 151.593 82.057C143.868 85.9928 139.693 90.8489 139.537 95.9966L137.155 146.534C137.223 158.282 158.39 168.119 183.317 167.845C186.736 167.809 190.102 167.588 193.337 167.207C213.596 164.823 229.153 156.11 229.121 146.142L224.811 95.4367C224.78 90.327 220.401 85.522 212.699 81.6976C203.066 77.5111 192.544 75.5321 182.097 75.8061C178.865 75.8042 175.45 76.015 172.263 76.3902ZM172.937 73.3161C186.807 71.6835 201.014 73.5634 214.098 79.0639C222.988 83.322 227.877 89.1978 227.869 95.459L232.318 144.236L232.542 146.122C232.465 158.269 216.483 168.115 194.504 170.702C190.748 171.144 186.971 171.398 183.36 171.44C155.747 171.457 133.901 160.76 133.946 146.72L136.327 96.1832C136.313 89.7335 141.151 83.8596 150.138 79.3769C157.449 76.2703 165.143 74.2336 172.937 73.3161Z" fill="#005A35" stroke="#005A35" stroke-miterlimit="10" stroke-linejoin="round"/>
<path fill-rule="evenodd" clip-rule="evenodd" d="M167.936 111.896C172.859 111.316 177.971 110.985 183.216 110.958C220.933 110.882 251.436 125.499 251.713 143.865L282.418 317.384C283.493 320.108 283.825 322.904 283.992 325.927C284.134 349.215 251.68 368.823 208.384 373.919C201.678 374.709 194.706 375.145 187.562 375.208C134.244 375.414 90.7185 353.791 90.5772 326.872C90.6682 324.408 90.9532 322.098 91.6554 319.927L115.21 144.561C115.138 128.736 137.641 115.462 167.936 111.896Z" fill="#E6FFE6"/>
<path fill-rule="evenodd" clip-rule="evenodd" d="M163.823 277.313C174.616 276.042 185.506 275.732 196.389 276.299C209.61 277.02 223.002 279.044 235.838 282.853C236.05 283.019 236.072 283.208 236.092 283.381C235.926 283.592 235.736 283.614 235.547 283.636C222.735 280.031 209.555 278.174 196.167 277.663C186.649 277.27 177.05 277.683 167.536 278.803C163.828 279.239 160.149 279.784 156.498 280.437C149.961 281.573 143.661 283.079 137.236 285.157C130.98 287.041 125.016 289.638 119.082 292.615C113.337 295.569 107.892 299.427 103.066 303.787C98.2334 307.956 94.8895 313.478 92.9429 319.586L92.7536 319.608C92.5842 320.472 92.0099 320.89 91.3945 320.963C90.3532 321.085 89.1764 320.204 89.6211 318.83C91.6761 312.152 95.7325 306.163 100.899 301.573C106.088 297.171 111.723 293.29 117.846 290.291C123.781 287.315 130.161 284.859 136.59 282.955C143.037 281.065 149.528 279.537 156.254 278.379C158.765 277.972 161.282 277.612 163.823 277.313Z" fill="#005A35" stroke="#005A35" stroke-miterlimit="10" stroke-linejoin="round"/>
<path fill-rule="evenodd" clip-rule="evenodd" d="M157.735 152.505C158.524 152.413 159.318 152.367 160.134 152.366C178.792 152.257 188.549 175.002 175.268 188.321C171.623 191.984 167.247 193.933 162.829 194.453C151.153 195.827 139.139 187.222 139.043 173.614C139.012 162.849 147.1 153.757 157.735 152.505Z" fill="white"/>
<path fill-rule="evenodd" clip-rule="evenodd" d="M140.971 182.037C141.097 182.022 141.256 182.147 141.397 182.258C145.443 188.981 152.775 193.056 160.754 192.882C161.213 192.843 161.673 192.805 162.13 192.751C165.428 192.363 168.637 191.364 171.602 189.518C174.777 187.424 177.481 184.461 179.343 181.009C179.51 180.798 179.699 180.775 179.888 180.753C180.078 180.731 180.312 181.086 180.145 181.296C179.112 185.4 176.5 189.133 173.199 191.783C170.052 194.113 166.505 195.502 162.813 195.937C162.197 196.009 161.578 196.05 160.942 196.077C156.4 196.23 152.066 195.035 148.34 192.623C144.82 190.201 142.12 186.728 140.678 182.533C140.655 182.345 140.633 182.156 140.822 182.134C140.864 182.081 140.923 182.042 140.971 182.037Z" fill="#005A35"/>
<path fill-rule="evenodd" clip-rule="evenodd" d="M157.914 155.908C158.593 155.829 159.277 155.796 159.981 155.793C169.88 155.758 177.656 163.572 177.857 173.218C177.758 173.994 177.825 174.559 177.701 175.132L165.333 175.265L169.125 181.461L171.987 186.429C169.28 188.962 165.927 190.504 162.361 190.923C161.635 191.009 160.906 191.063 160.169 191.054C150.441 191.052 142.476 183.26 142.441 173.404C142.446 164.42 149.173 156.937 157.914 155.908Z" fill="#005A35"/>
<path fill-rule="evenodd" clip-rule="evenodd" d="M162.16 138.295C164.511 138.018 166.895 138.024 169.317 138.344C171.238 138.484 172.971 138.663 174.749 139.218C176.525 139.758 178.303 140.313 180.08 140.868C180.292 141.035 180.315 141.223 180.335 141.396C180.357 141.584 180.168 141.607 179.995 141.627C178.079 141.661 176.325 141.31 174.614 141.321C172.692 141.165 170.981 141.175 169.248 140.997C167.348 141.029 165.66 141.228 163.956 141.428C163.34 141.501 162.7 141.497 162.132 141.563C161.848 141.597 161.581 141.644 161.336 141.737C160.39 141.848 159.67 142.124 158.724 142.235C155.392 143.01 152.301 144.329 149.291 146.197C146.265 148.067 143.701 150.455 141.567 153.366C141.483 153.472 141.394 153.53 141.331 153.538C141.252 153.547 141.199 153.505 141.188 153.411C140.809 153.456 140.764 153.079 140.931 152.868C142.236 149.305 144.544 146.374 147.692 143.916C150.657 141.672 154.258 139.926 157.968 139.107C159.362 138.72 160.755 138.46 162.16 138.295Z" fill="#005A35" stroke="#005A35" stroke-miterlimit="10" stroke-linejoin="round"/>
<path fill-rule="evenodd" clip-rule="evenodd" d="M228.303 152.195C228.934 152.121 229.569 152.078 230.21 152.082C240.677 151.981 249.198 161.221 249.455 172.946C249.501 183.98 241.921 192.9 232.344 194.028C231.712 194.102 231.078 194.145 230.439 194.156C219.97 194.242 211.428 184.83 211.381 173.255C211.335 162.221 218.741 153.321 228.303 152.195Z" fill="white"/>
<path fill-rule="evenodd" clip-rule="evenodd" d="M228.419 155.591C229.019 155.52 229.622 155.481 230.231 155.489C238.99 155.414 246.211 163.277 246.208 172.947C246.275 173.512 246.175 174.288 246.242 174.854L235.198 174.816L238.406 181.081L241.095 186.069C238.574 188.691 235.35 190.234 231.91 190.639C231.405 190.698 230.914 190.74 230.419 190.75C221.638 190.637 214.415 182.758 214.418 173.089C214.232 164.111 220.482 156.525 228.419 155.591Z" fill="#005A35"/>
<path fill-rule="evenodd" clip-rule="evenodd" d="M222.126 137.098C222.994 136.996 223.883 136.939 224.762 136.931C228.395 137.077 231.708 137.626 234.928 139.143C238.144 140.485 241.066 142.594 243.278 145.185C244.575 146.545 245.488 147.76 246.431 149.37C247.176 150.795 247.921 152.221 248.5 153.857C248.522 154.046 248.544 154.234 248.355 154.256C248.299 154.327 248.254 154.348 248.191 154.355C248.065 154.37 247.908 154.261 247.765 154.135C245.956 151.703 243.767 149.301 241.41 147.109C239.077 145.106 236.576 143.314 233.574 142.154C230.762 140.971 227.796 139.982 224.717 139.787C221.441 139.409 218.382 139.386 215.195 139.761L215.005 139.784C214.816 139.806 214.604 139.64 214.582 139.451C214.56 139.263 214.539 139.09 214.918 139.045C217.201 138.06 219.633 137.391 222.126 137.098Z" fill="#005A35" stroke="#005A35" stroke-miterlimit="10" stroke-linejoin="round"/>
<path fill-rule="evenodd" clip-rule="evenodd" d="M164.625 289.731C168.791 289.241 172.961 288.925 177.164 288.749L177.144 288.576C177.522 288.531 177.588 289.081 177.231 289.314C174.629 289.493 172.032 289.719 169.444 290.024C157.815 291.393 146.508 294.126 135.616 298.195C128.851 300.505 122.56 303.715 116.95 307.8C114.135 309.835 111.571 312.224 109.435 315.12C107.446 317.632 105.925 320.853 105.56 324.114C104.992 327.414 105.58 330.754 107.055 333.607C108.759 336.64 110.78 339.238 113.348 341.596C118.824 346.08 124.771 349.538 131.357 352.187C144.535 357.263 158.418 360.184 172.63 361.171C185.802 362.281 199.134 362.05 212.34 360.495C213.224 360.391 214.108 360.287 214.989 360.168C229.057 358.32 242.48 354.271 255.047 347.87C261.337 344.66 266.693 340.048 270.395 334.307C272.151 331.441 273.082 328.097 272.872 324.713C272.662 321.329 271.503 318.041 269.483 315.443C265.373 309.667 259.883 305.2 253.425 302.153C247.136 298.911 240.536 296.279 233.66 294.428C233.449 294.262 233.428 294.089 233.406 293.9C233.515 293.744 233.642 293.602 233.768 293.587C233.832 293.579 233.881 293.589 233.951 293.645C240.994 295.285 247.761 297.706 254.239 300.926C260.884 303.935 266.739 308.375 271.249 314.279C273.505 317.247 274.706 320.897 275.15 324.636C275.405 328.397 274.517 332.102 272.617 335.368C268.604 341.718 263.103 346.73 256.47 350.156C250.225 353.742 243.504 356.429 236.511 358.574C229.513 360.545 222.455 362.14 215.344 363.152C213.582 363.408 211.834 363.645 210.067 363.853C197.523 365.33 184.727 365.625 172.061 364.456C157.85 363.485 143.56 360.229 130.19 355.16C123.378 352.362 117.022 348.554 111.525 343.897C108.746 341.373 106.302 338.443 104.57 335.047C102.823 331.652 102.357 327.725 102.858 323.859C103.556 320.176 105.035 316.594 107.547 313.638C109.873 310.72 112.626 308.309 115.605 306.046C121.581 301.934 128.061 298.702 134.826 296.393C144.562 293.096 154.527 290.92 164.625 289.731Z" fill="#005A35" stroke="#005A35" stroke-miterlimit="10" stroke-linejoin="round"/>
<path fill-rule="evenodd" clip-rule="evenodd" d="M189.533 196.36C189.644 196.347 189.744 196.383 189.755 196.477C191.688 198.337 193.614 200.005 195.502 201.488C197.412 203.158 199.469 204.445 201.669 205.317C202.259 205.439 202.644 205.585 203.235 205.707C203.803 205.64 204.204 205.784 204.756 205.719C205.892 205.585 206.99 205.265 207.892 204.776C209.847 203.59 211.336 201.71 212.212 199.521L212.379 199.31C212.568 199.288 212.735 199.077 212.735 199.077C213.114 199.032 213.136 199.221 213.181 199.598C213.136 202.454 211.947 205.239 209.491 207.057C208.269 207.949 206.815 208.503 205.3 208.681C205.087 208.77 204.868 208.812 204.647 208.838C204.11 208.901 203.527 208.842 202.848 208.779C202.257 208.657 201.478 208.558 200.693 208.284C198.091 207.252 195.612 205.648 193.846 203.578C191.914 201.719 190.49 199.433 189.248 196.919C189.248 196.919 189.225 196.731 189.203 196.542C189.286 196.437 189.407 196.375 189.533 196.36Z" fill="#005A35" stroke="#005A35" stroke-miterlimit="10" stroke-linejoin="round"/>
<path fill-rule="evenodd" clip-rule="evenodd" d="M190.239 190.844C190.429 190.821 190.633 190.925 190.65 191.066C191.312 191.928 191.613 192.848 191.723 193.775C191.668 194.928 191.589 195.878 191.338 196.863C190.88 197.857 190.402 198.678 189.56 199.541C188.679 200.202 187.755 200.502 186.634 200.634L186.445 200.657C186.233 200.49 186.211 200.302 186.19 200.129C186.647 199.12 187.147 198.487 187.445 197.895C187.545 197.118 187.856 196.508 188.168 195.898C188.77 194.505 189.145 192.948 189.915 191.344L189.892 191.155L190.059 190.944C190.099 190.876 190.176 190.851 190.239 190.844Z" fill="#005A35" stroke="#005A35" stroke-miterlimit="10" stroke-linejoin="round"/>
<path fill-rule="evenodd" clip-rule="evenodd" d="M211.339 212.908C211.528 212.886 211.724 213.054 211.746 213.243C211.901 214.546 211.716 216.082 211.093 217.302C210.679 218.673 209.669 219.731 208.645 220.808C207.614 221.694 206.181 222.42 204.666 222.598C203.167 222.775 201.813 222.552 200.415 221.968L200.393 221.779C200.181 221.613 200.326 221.214 200.499 221.193C201.78 220.66 202.9 220.528 203.804 220.055C204.88 219.547 205.781 219.058 206.456 218.405C208.156 216.692 209.683 214.999 210.982 213.141L210.96 212.953L211.339 212.908Z" fill="#005A35" stroke="#005A35" stroke-miterlimit="10" stroke-linejoin="round"/>
<path fill-rule="evenodd" clip-rule="evenodd" d="M167.625 112.792C138.324 116.241 116.575 128.852 116.474 144.029L92.7527 319.606C92.2553 321.751 91.9313 323.875 92.0099 326.145C91.9555 338.48 101.52 350.05 119.519 358.939C137.555 367.998 161.565 372.945 187.082 372.792C194.346 372.799 201.479 372.373 208.375 371.561C225.858 369.503 241.826 364.931 254.711 358.382C272.304 349.301 281.947 337.541 281.812 325.228C281.857 322.371 281.358 319.786 280.494 317.227C280.472 317.038 280.472 317.038 280.449 316.851L249.745 143.331L249.723 143.142C249.557 125.719 219.688 111.585 182.962 111.926C177.816 111.974 172.706 112.193 167.625 112.792ZM167.056 109.482C172.137 108.883 177.458 108.56 182.925 108.521C221.4 108.357 252.755 123.813 252.932 142.955L283.781 316.075C284.706 319.01 285.249 321.971 285.227 325.016C285.35 338.845 275.044 351.623 256.188 361.25C241.743 368.271 226.273 372.735 210.305 374.615C209.753 374.68 209.201 374.745 208.649 374.81C201.517 375.65 194.318 375.923 187.27 375.989C161.202 376.222 136.987 371.299 118.163 361.934C99.3419 352.585 88.8619 339.785 88.7781 326.143C88.6623 323.688 89.1297 321.163 89.6216 318.829L113.388 143.643C113.187 126.862 135.893 113.15 167.056 109.482Z" fill="#005A35" stroke="#005A35" stroke-miterlimit="10" stroke-linejoin="round"/>
<path fill-rule="evenodd" clip-rule="evenodd" d="M156.009 159.941C156.83 159.844 157.633 159.877 158.402 160.153C158.402 160.153 158.576 160.133 158.598 160.321C158.81 160.488 158.643 160.698 158.492 160.907C157.588 161.38 156.702 161.867 155.822 162.544C155.132 163.198 154.456 163.835 153.765 164.49C152.21 165.804 150.867 167.3 149.356 168.992L149.379 169.18L149 169.225C148.788 169.058 148.599 169.081 148.554 168.704C148.611 167.566 148.855 166.39 149.465 165.188C149.921 164.178 150.568 163.162 151.409 162.298C152.458 161.426 153.511 160.729 154.586 160.22C155.068 160.1 155.536 159.997 156.009 159.941Z" fill="white"/>
<path fill-rule="evenodd" clip-rule="evenodd" d="M226.626 158.557C227.383 158.468 228.175 158.534 228.897 158.688C229.087 158.665 229.107 158.838 229.107 158.838C229.319 159.004 229.341 159.193 228.985 159.426C228.106 160.103 227.219 160.59 226.316 161.062C225.641 161.715 224.951 162.37 224.261 163.025C222.705 164.339 221.573 165.985 219.852 167.526C219.747 167.586 219.64 167.631 219.53 167.644C219.293 167.672 219.087 167.552 219.072 167.427C219.104 166.085 219.54 164.903 219.98 163.895C220.416 162.713 221.251 161.659 222.094 160.811C222.951 159.945 224.006 159.264 225.309 158.919C225.718 158.727 226.168 158.611 226.626 158.557Z" fill="white"/>
<path fill-rule="evenodd" clip-rule="evenodd" d="M103.837 413.065C104.279 413.013 104.723 412.977 105.186 412.97C105.549 412.928 105.76 413.094 105.783 413.282C105.805 413.471 105.638 413.682 105.298 413.913C103.803 414.264 102.182 415.028 100.795 416.147C100.293 416.764 99.7693 417.208 99.3066 418.027C98.8058 418.66 98.303 419.276 98.0139 420.075C98.0139 420.075 98.0363 420.263 97.8627 420.284C97.527 420.69 97.1354 420.895 96.7567 420.94C95.526 421.085 94.3073 419.715 95.1502 418.325C96.305 416.867 97.8366 415.349 99.6265 414.389C100.993 413.639 102.401 413.234 103.837 413.065Z" fill="#335A3A"/>
<path fill-rule="evenodd" clip-rule="evenodd" d="M211.548 176.277C211.737 176.255 211.927 176.233 211.972 176.61C213.195 180.448 215.161 184.199 217.983 187.085C220.786 189.797 224.238 191.653 228.127 192.342C229.541 192.526 230.996 192.514 232.432 192.345C234.909 192.053 237.328 191.275 239.471 190.051C242.831 187.76 245.708 184.777 247.563 181.134C247.604 180.938 247.737 180.842 247.863 180.828C248.131 180.796 248.433 181.047 248.365 181.422C247.15 185.738 244.574 189.641 240.896 192.352C238.438 194.155 235.483 195.267 232.406 195.629C230.875 195.81 229.307 195.803 227.763 195.603C223.095 194.83 219.006 192.46 215.904 188.843C213.015 185.392 211.383 181.219 211.23 176.697C211.208 176.509 211.359 176.3 211.548 176.277Z" fill="#005A35"/>
<path fill-rule="evenodd" clip-rule="evenodd" d="M271.489 212.04C271.646 212.022 271.822 212.017 271.999 212.028C275.297 212.58 277.698 215.148 277.908 218.533C278.496 221.872 276.319 232.371 275.372 232.482L275.357 232.484C274.363 232.601 268.471 222.463 267.841 218.778C267.249 215.279 268.917 212.343 271.489 212.04Z" fill="#F89114"/>
<path fill-rule="evenodd" clip-rule="evenodd" d="M282.619 217.387C283.85 217.243 285.132 217.665 285.929 218.718C287.695 220.788 288.051 223.789 286.63 226.234C285.279 228.336 278.528 232.922 277.171 233.082C277.077 233.093 277.012 233.085 276.961 233.059C276.319 232.37 278.095 221.727 279.707 219.275C280.33 218.183 281.451 217.525 282.619 217.387Z" fill="#F89114"/>
<path fill-rule="evenodd" clip-rule="evenodd" d="M287.421 228.038C289.867 227.75 291.8 229.609 291.9 232.066C292.376 234.463 290.932 236.72 288.721 237.363C288.658 237.37 288.581 237.395 288.517 237.402C285.867 237.714 278.005 235.374 277.708 234.485C277.597 233.559 285.165 228.303 287.421 228.038Z" fill="#F89114"/>
<path fill-rule="evenodd" clip-rule="evenodd" d="M277.91 236.055C279.677 235.847 286.66 237.797 288.375 239.299C290.096 240.992 290.597 243.593 289.342 245.828C288.836 246.955 287.722 247.675 286.522 247.816C285.591 247.926 284.604 247.692 283.776 247.056C281.697 245.581 277.066 237.03 277.528 236.211C277.582 236.125 277.72 236.077 277.91 236.055Z" fill="#F89114"/>
<path fill-rule="evenodd" clip-rule="evenodd" d="M276.118 237.14C277.065 237.028 282.075 245.534 282.409 248.346C282.91 250.948 281.495 253.583 279.175 254.796C278.899 254.892 278.634 254.955 278.366 254.987C276.062 255.258 273.861 253.43 273.583 251.09C273.039 248.127 275.377 237.227 276.118 237.14Z" fill="#F89114"/>
<path fill-rule="evenodd" clip-rule="evenodd" d="M274.389 236.723C274.468 236.714 274.517 236.724 274.552 236.752C275.399 237.417 273.418 248.084 271.661 250.935C270.745 252.651 269.035 253.745 267.126 253.969C266.1 254.09 265.013 253.963 263.973 253.56C261.261 251.601 260.627 247.885 262.617 245.373C264.468 242.638 272.969 236.891 274.389 236.723Z" fill="#F89114"/>
<path fill-rule="evenodd" clip-rule="evenodd" d="M258.123 231.645C258.312 231.623 258.502 231.601 258.695 231.61C262.466 231.166 273.486 234.233 273.596 235.16C273.919 236.269 264.774 242.65 261.252 243.447C260.911 243.535 260.568 243.607 260.236 243.646C257.065 244.02 253.966 242.043 252.886 238.745C252.298 235.405 254.794 232.037 258.123 231.645Z" fill="#F89114"/>
<path fill-rule="evenodd" clip-rule="evenodd" d="M260.111 217.807C262.036 217.581 264.231 218.278 265.863 219.759C268.643 222.283 274.443 232.591 273.964 233.412C273.924 233.481 273.818 233.525 273.644 233.545C271.719 233.772 262.036 231.184 259.163 229.086C255.831 226.626 254.731 222.216 256.721 219.704C257.532 218.589 258.754 217.967 260.111 217.807Z" fill="#F89114"/>
<path fill-rule="evenodd" clip-rule="evenodd" d="M275.189 230.4C277.824 230.09 280.539 231.124 280.697 233.941C281.243 236.919 279.675 239.748 276.728 240.668C276.62 240.697 276.509 240.71 276.415 240.721C273.369 241.08 270.606 238.824 270.262 235.934C269.286 232.831 272.191 230.753 275.189 230.4Z" fill="#F8C019"/>
<path fill-rule="evenodd" clip-rule="evenodd" d="M178.498 255.243C180.407 255.019 182.356 255.809 183.488 257.523C183.911 257.856 184.168 258.399 184.256 259.137C184.3 259.514 184.345 259.891 184.412 260.457L190.039 408.861C197.814 413.441 203.059 425.535 205.759 432.242C209.504 441.279 232.481 467.964 219.379 497.209C217.903 499.198 215.916 500.514 213.896 500.751C212.334 500.935 210.727 500.472 209.321 499.139C205.946 496.319 195.888 487.071 190.721 477.245C185.744 467.396 184.578 455.968 182.811 449.168C181.079 442.539 163.133 413.35 179.247 407.853L174.151 270.378L138.102 295.68C137.423 296.158 136.625 296.443 135.82 296.538C133.958 296.757 131.961 295.973 130.703 294.273C129.082 291.804 129.848 288.687 132.116 286.907L176.073 256.118C176.832 255.631 177.661 255.342 178.498 255.243Z" fill="#E6FFE6"/>
<path fill-rule="evenodd" clip-rule="evenodd" d="M178.099 253.379C178.336 253.351 178.575 253.339 178.799 253.344C180.321 253.356 181.885 253.73 182.944 254.561C183.556 254.871 184.174 255.356 184.642 256.065C185.088 256.586 185.554 257.28 185.833 258.012C186.112 258.744 186.178 259.293 186.078 260.07L186.277 261.751L186.718 275.159L187.973 301.757L189.937 355.207L191.68 407.728C194.934 410.069 197.867 412.941 199.881 416.432C202.225 420.138 204.191 423.889 205.793 427.683C206.583 429.485 207.19 431.5 208.147 433.092C209.127 434.872 210.091 436.655 211.259 438.412C213.202 441.975 215.335 445.515 217.3 449.266C221.226 456.593 223.703 464.65 224.89 473.031C225.701 481.473 224.423 489.972 220.981 497.767L220.647 498.19C219.014 500.469 216.323 501.931 213.325 502.284C211.788 502.275 210.2 501.696 208.947 500.713C208.334 500.403 207.888 499.882 207.465 499.55L205.978 498.212C202.52 494.828 199.056 491.253 195.954 487.635C192.824 483.641 190.223 479.39 188.154 474.902C186.099 470.397 184.764 465.617 183.824 460.806L182.222 453.777C182.089 452.662 181.934 451.358 181.611 450.25C181.354 449.707 181.289 449.157 181.032 448.614C180.988 448.237 180.731 447.693 180.476 447.165C178.633 442.827 176.389 438.344 174.714 433.81C172.81 429.096 171.666 424.309 171.065 419.25C170.943 416.604 171.39 413.907 172.6 411.296C173.692 409.176 175.529 407.399 177.841 406.521L172.577 273.431L141.862 293.533C141.484 293.578 141.25 293.223 141.417 293.012L173.065 269.184C173.232 268.973 173.572 268.742 173.951 268.697C174.731 268.797 175.578 269.462 175.665 270.2L180.913 407.466C181.002 408.22 180.502 408.853 179.782 409.128C177.758 409.733 176.189 411.065 175.246 412.689C174.347 414.69 174.024 416.815 174.268 418.873C174.635 423.577 175.757 428.176 177.6 432.515C179.254 436.876 181.302 441.19 183.356 445.68C183.612 446.224 183.869 446.765 183.956 447.504C184.213 448.047 184.492 448.78 184.557 449.33C184.903 450.626 185.209 451.721 185.364 453.026L186.777 460.074C187.712 464.711 189.175 469.079 190.844 473.439C192.877 477.755 195.455 481.816 198.367 485.456C201.469 489.072 204.722 492.482 208.157 495.677L209.432 496.85C209.878 497.371 210.302 497.703 210.725 498.035C211.342 498.52 212.334 498.785 213.098 498.887C215.165 498.643 216.933 497.496 217.89 495.854L217.745 496.253C221.08 489.042 222.235 481.117 221.469 473.052C220.347 465.22 217.915 457.54 214.202 450.395C212.259 446.832 210.339 443.459 208.191 439.921C207.227 438.138 206.268 436.531 205.093 434.583C204.07 432.441 203.47 430.616 202.678 428.798C201.113 425.191 199.17 421.628 197.06 418.277C195.124 414.905 192.315 412.002 189.203 409.915C188.78 409.582 188.523 409.039 188.479 408.662L186.137 355.272L183.984 301.844L183.109 275.218L182.667 261.793L182.641 260.092C182.596 259.715 182.551 259.338 182.508 258.977C182.463 258.6 182.267 258.432 182.033 258.077C181.799 257.722 181.587 257.556 181.166 257.239C180.489 256.793 179.603 256.611 178.751 256.711C178.057 256.793 177.369 257.065 176.82 257.559C162.229 267.799 147.617 277.866 132.138 287.095C132.149 287.19 132.108 287.242 132.029 287.252C131.966 287.259 131.865 287.223 131.759 287.14C131.759 287.14 131.737 286.951 131.715 286.763C145.619 275.457 160.186 265.013 174.775 254.758C175.791 254.017 176.963 253.513 178.099 253.379Z" fill="#005A35" stroke="#005A35" stroke-miterlimit="10" stroke-linejoin="round"/>
<path fill-rule="evenodd" clip-rule="evenodd" d="M198.057 436.366C199.935 436.145 201.835 436.113 203.568 436.291C205.527 436.618 207.305 437.173 208.938 438.128C210.781 439.233 212.268 440.571 213.415 442.141L213.248 442.352C213.716 443.061 213.447 444.033 212.561 444.519C212.367 444.638 212.168 444.709 211.963 444.733C211.379 444.802 210.735 444.495 210.384 443.836C209.659 442.583 208.558 441.39 207.326 440.58C206.057 439.598 204.635 438.81 203.071 438.436C201.505 438.047 199.945 437.848 198.257 438.047L195.811 438.335L193.214 438.832C193.025 438.854 192.836 438.876 192.624 438.71C192.579 438.333 192.746 438.122 192.936 438.1L195.483 437.051C196.414 436.942 197.127 436.476 198.057 436.366Z" fill="#005A35"/>
<path fill-rule="evenodd" clip-rule="evenodd" d="M70.2846 361.453C70.7738 361.395 71.2806 361.352 71.805 361.322C71.805 361.322 96.7826 358.382 104.098 371.745C111.586 385.089 116.841 398.886 116.929 406.092C116.841 413.302 114.65 435.001 114.074 438.095C113.72 440.096 110.951 442.381 107.259 442.816C104.86 443.098 102.099 442.611 99.338 440.786C92.3244 436.291 92.2608 426.056 95.0264 422.13C96.7045 420.228 97.362 417.682 97.0504 415.058L91.0832 401.727L84.9031 423.513C85.392 427.629 86.6383 431.656 88.2248 435.451C90.7239 440.461 96.7356 439.754 100.082 448.663C103.283 457.158 95.7815 461.896 91.4583 462.405C91.2531 462.429 91.0462 462.438 90.855 462.444C86.8674 462.547 78.0777 457.513 74.992 450.66C72.0592 443.614 69.8784 438.184 69.8784 438.184C66.4243 436.313 62.9477 434.253 59.6223 431.984C57.5003 430.147 57.2801 425.06 57.2801 425.06C54.2561 423.712 51.7328 421.731 49.7106 419.117C46.0914 414.239 44.4113 408.177 45.1995 402.015C46.1134 396.778 53.049 373.406 53.049 373.406C53.049 373.406 58.9556 362.786 70.2846 361.453Z" fill="#E6FFE6"/>
<path fill-rule="evenodd" clip-rule="evenodd" d="M91.4496 406.432L86.6359 423.692C87.1023 427.62 88.3038 431.27 89.6788 434.899C90.6359 436.491 91.9286 437.677 93.5378 438.427C94.3465 438.905 95.171 439.382 95.8267 440.053C93.8493 437.817 92.548 434.943 92.0023 431.965C91.1795 428.271 91.8716 424.398 93.7734 421.148C94.9263 419.674 95.6509 417.693 95.5802 415.615L91.4496 406.432ZM70.7067 363.125C61.0817 364.258 55.5972 372.772 54.8248 373.946C54.1607 376.303 47.9133 397.523 47.144 402.361C46.2886 407.957 47.7122 413.476 51.0991 418.015C53.1131 420.422 55.4245 422.237 58.0541 423.632C58.6668 423.942 58.9233 424.486 58.9905 425.051C59.0455 427.131 59.6687 429.145 60.7993 430.716C64.1228 432.969 67.3875 434.863 70.8574 436.732C71.0691 436.898 71.4926 437.231 71.5374 437.608C71.5374 437.608 73.7249 443.228 76.6128 449.897C79.4578 456.205 87.6346 460.929 91.056 460.909C93.8804 460.576 96.3831 459.151 97.9939 456.683C99.4602 454.615 99.6942 451.736 98.6253 449.202C97.4462 445.74 95.0247 442.999 91.9716 441.272C89.7274 440.023 87.9888 438.316 86.7929 436.194C85.1837 432.21 83.9151 427.995 83.4038 423.691C83.3814 423.502 83.359 423.314 83.3366 423.125L89.5187 401.355C89.7921 400.558 90.3152 400.114 90.8833 400.047L91.0726 400.025C91.8366 400.126 92.4495 400.436 92.706 400.98L98.6954 414.499L98.7178 414.688C99.2841 417.839 98.2927 420.807 96.4683 423.093C95.0691 425.726 94.6615 428.626 95.3565 431.379C95.7577 434.757 97.6271 437.563 100.324 439.524C102.303 440.836 104.619 441.471 106.938 441.198C107.759 441.102 108.598 440.891 109.404 440.542C110.691 440.199 111.907 439.116 112.514 437.898C113.084 434.613 115.319 413.291 115.218 406.103C115.197 399.463 110.154 385.832 102.65 372.49C95.886 360.4 72.1955 362.997 72.0061 363.02C71.5607 363.04 71.1327 363.075 70.7067 363.125ZM70.4811 359.742C70.9228 359.69 71.3507 359.656 71.7943 359.62C73.4827 359.421 97.9753 357.111 105.698 370.809C113.441 384.68 118.529 398.689 118.655 406.081C118.741 413.271 116.381 435.165 115.807 438.275C114.96 440.843 113.092 442.768 110.707 443.431C109.591 443.865 108.442 444.159 107.274 444.297C104.229 444.655 101.106 443.956 98.5616 442.2L97.9265 441.702C99.6698 443.583 100.883 445.718 101.702 447.9C103.283 451.505 102.802 455.544 100.691 458.644C98.5704 461.537 95.3571 463.445 91.8116 464.038L91.0338 463.954C86.2804 463.94 76.8779 458.595 73.6887 451.006C71.3118 445.408 69.4239 440.692 68.6785 439.266C65.2245 437.395 61.9215 435.315 58.6139 433.06C57.044 431.158 55.9908 428.622 55.8685 425.976C53.0339 424.605 50.6777 422.414 48.4902 420.027C44.621 414.796 42.8896 408.166 43.8224 401.605C44.7225 396.385 51.5704 373.756 51.8232 372.787C51.8008 372.598 51.8008 372.598 51.9678 372.387C52.1142 372.004 58.2998 361.176 70.4811 359.742Z" fill="#005A35" stroke="#005A35" stroke-miterlimit="10" stroke-linejoin="round"/>
<path fill-rule="evenodd" clip-rule="evenodd" d="M126.939 217.06C127.571 216.986 128.203 217.055 128.792 217.304C131.584 218.314 132.474 222.574 130.873 226.744L79.9382 362.452C78.6397 365.664 75.9949 368.046 73.5649 368.332C72.9812 368.4 72.3982 368.342 71.8476 368.152C69.2627 367.134 68.1836 362.896 69.7617 358.537L120.907 222.979C122.164 219.693 124.588 217.337 126.939 217.06Z" fill="#D0EFBD"/>
<path fill-rule="evenodd" clip-rule="evenodd" d="M120.862 222.602C121.074 222.768 121.286 222.934 121.119 223.145C117.248 235.547 112.992 247.804 108.547 260.083L94.9558 296.393L81.3875 332.891L74.5945 351.133L72.8493 355.704L71.996 358.082C71.6844 358.692 71.3934 359.475 71.2712 360.063C70.858 361.434 70.8412 362.774 70.9961 364.078C71.108 365.02 71.7479 365.693 72.5726 366.17C72.9189 366.257 73.2575 366.28 73.5889 366.241C74.1728 366.173 74.7165 365.902 75.1628 365.483C76.1954 364.612 77.0301 363.558 77.6392 362.356C77.7614 361.768 78.0506 360.969 78.364 360.375L79.2175 357.996L81.1519 353.404L87.9497 335.337L101.725 298.83C111.06 274.777 119.95 250.219 130.473 226.6L130.283 226.622C130.401 226.401 130.565 226.302 130.723 226.283C131.023 226.248 131.277 226.505 131.084 226.894C123.549 251.691 114.023 275.75 104.922 300.158L91.3541 336.656L84.5612 354.898L83.0055 359.446L82.1296 361.636C81.861 362.607 81.5494 363.218 81.1073 364.209C80.3622 366.017 79.2074 367.476 77.6514 368.79C76.772 369.467 75.8699 369.955 74.7496 370.087C74.4555 370.169 74.1437 370.238 73.8123 370.277C72.9444 370.379 71.9931 370.316 71.1389 370.13C69.1064 369.047 67.5365 367.145 67.2473 364.71C66.8361 362.863 66.9926 360.949 67.5504 359.179C68.0065 358.169 68.2817 357.388 68.5709 356.59L69.273 354.42L71.0183 349.85L77.9847 331.587L91.7648 295.255L105.545 258.923C110.202 246.81 115.069 234.848 120.317 222.857C120.483 222.646 120.673 222.624 120.862 222.602Z" fill="#005A35" stroke="#005A35" stroke-miterlimit="10" stroke-linejoin="round"/>
<path fill-rule="evenodd" clip-rule="evenodd" d="M63.7761 342.356C72.5965 341.318 92.0063 346.998 92.0063 346.998C96.8082 348.901 99.1402 354.122 97.8185 359.025C96.4521 363.55 94.4832 369.469 92.862 370.233C92.6801 370.318 92.2894 370.396 91.7372 370.461C87.2876 370.985 72.1686 370.853 65.8806 369.236C59.0052 367.385 57.6488 362.431 57.4939 357.894C57.339 353.356 57.2923 345.015 61.0597 343.058C61.7696 342.704 62.6875 342.484 63.7761 342.356Z" fill="#F56038" stroke="#005A35" stroke-width="2" stroke-miterlimit="10" stroke-linejoin="round"/>
<path fill-rule="evenodd" clip-rule="evenodd" d="M67.4483 420.822C67.6443 420.99 67.856 421.156 67.8784 421.345C67.4708 424.244 67.6135 427.063 68.3262 429.83C68.6704 431.112 68.9989 432.395 69.5343 433.67C70.0679 434.93 70.6033 436.205 71.3038 437.253L71.5155 437.419L71.5379 437.608C72.0167 438.81 71.076 439.781 70.082 439.898C69.435 439.974 68.7628 439.703 68.4449 438.912C67.8889 437.464 67.3488 436.014 66.9821 434.544C66.6137 433.058 66.4364 431.566 66.2592 430.073C65.9028 427.073 66.1005 424.023 66.925 421.266C67.092 421.055 67.259 420.844 67.4483 420.822Z" fill="#005A35" stroke="#005A35" stroke-miterlimit="10" stroke-linejoin="round"/>
<path fill-rule="evenodd" clip-rule="evenodd" d="M58.2443 408.939C58.2917 408.934 58.3566 408.942 58.4114 408.999C58.8125 409.143 58.833 409.316 58.6661 409.527C58.0243 412.071 57.7455 414.573 57.8678 417.219C57.9881 419.849 58.2773 422.284 58.7783 424.885L58.99 425.052C58.99 425.052 58.99 425.052 59.0124 425.24C59.0446 426.319 58.333 426.929 57.5441 427.022C56.6921 427.122 55.7515 426.612 55.6134 425.449C55.4688 422.615 55.5201 419.948 55.756 417.085C56.0124 414.395 56.6318 411.662 57.8816 409.253C57.991 409.096 58.1023 408.956 58.2443 408.939Z" fill="#005A35" stroke="#005A35" stroke-miterlimit="10" stroke-linejoin="round"/>
<path fill-rule="evenodd" clip-rule="evenodd" d="M176.839 82.8754C181.753 82.4881 186.673 82.2912 191.486 82.6646C196.473 83.0333 201.33 83.7837 206.065 85.1219C210.951 86.2512 215.586 88.3658 219.718 91.0971C221.819 92.7612 223.745 94.4301 225.32 96.5067C227.086 98.5767 228.155 101.111 228.656 103.712L228.845 103.69C228.983 104.853 228.188 105.567 227.32 105.67C226.531 105.762 225.697 105.335 225.475 104.278C225.041 102.242 224.222 100.061 223.053 98.3028C221.711 96.5652 219.974 94.874 218.085 93.3761C214.331 90.6002 210.075 88.4411 205.529 87.0805C200.962 85.5315 196.287 84.5684 191.453 84.0065C186.639 83.6174 181.674 83.4373 176.739 83.6517C176.55 83.674 176.528 83.4855 176.506 83.297C176.483 83.1084 176.65 82.8977 176.839 82.8754Z" fill="#005A35"/>
<path fill-rule="evenodd" clip-rule="evenodd" d="M177.06 91.1977C181.973 90.8104 187.105 90.7798 191.895 90.9646C196.898 91.3314 201.951 92.2499 206.686 93.5882C211.61 94.9041 216.252 97.2091 220.422 100.127C222.499 101.587 224.432 103.446 226.009 105.539C227.585 107.631 228.821 109.954 229.532 112.706L229.509 112.518C229.811 113.438 229.141 114.265 228.232 114.563C228.157 114.604 228.063 114.615 227.984 114.625C227.289 114.706 226.45 114.104 226.351 113.272C225.721 111.068 224.909 109.077 223.528 107.153C222.164 105.227 220.632 103.511 218.751 102.219C214.975 99.255 210.696 96.9073 206.151 95.5467C201.409 94.0181 196.719 93.0569 191.883 92.4793C186.875 91.9379 182.083 91.7373 177.149 91.9517C176.96 91.974 176.764 91.8059 176.741 91.6174C176.719 91.4289 176.87 91.22 177.06 91.1977Z" fill="#005A35"/>
<path fill-rule="evenodd" clip-rule="evenodd" d="M272.553 214.88C271.984 214.947 271.249 215.225 270.74 215.651C269.928 216.894 269.704 218.242 270.05 219.54C271.251 223.189 272.983 226.586 275.07 229.749C275.305 230.104 275.372 230.669 275.227 231.068C275.096 231.45 274.763 231.872 274.406 232.105L274.05 232.338C273.824 232.46 273.577 232.537 273.325 232.567C272.615 232.65 271.907 232.351 271.684 231.677C269.95 228.265 267.863 225.102 265.419 222.172C264.126 220.986 262.539 220.424 260.851 220.623C260.094 220.712 259.185 221.01 258.705 221.815C258.037 222.658 257.784 223.628 258.07 224.55C258.292 226.419 259.249 228.011 260.691 228.972C264.161 230.842 267.739 232.141 271.248 232.859C271.816 232.792 272.05 233.147 272.284 233.502C272.516 233.841 272.584 234.406 272.439 234.806C272.461 234.994 272.461 234.994 272.484 235.183C272.529 235.56 272.193 235.965 271.859 236.387C271.602 236.513 271.371 236.588 271.134 236.616C270.897 236.644 270.655 236.624 270.36 236.564C266.973 235.258 263.275 234.562 259.626 234.418C258.127 234.595 256.695 235.337 255.881 236.564C255.229 237.405 254.982 238.565 255.306 239.674C256.094 242.002 258.56 243.496 260.942 243.216C261.163 243.19 261.4 243.162 261.615 243.089C264.882 241.764 267.908 239.895 270.706 237.861C270.901 237.615 271.174 237.487 271.442 237.456C271.647 237.431 271.842 237.456 271.993 237.518C272.561 237.451 272.983 237.768 273.239 238.311L273.474 238.666C273.708 239.021 273.752 239.398 273.606 239.781C273.484 240.369 273.127 240.602 272.794 241.024C269.761 242.703 266.969 244.927 264.617 247.482C263.782 248.536 263.581 250.073 263.925 251.355C264.015 252.109 264.693 252.969 265.306 253.279C266.062 253.588 266.842 253.687 267.584 253.6C268.988 253.435 270.251 252.617 270.973 251.29C272.116 248.113 273.048 244.785 273.429 241.523C273.573 241.123 273.907 240.702 274.248 240.47C274.521 240.343 274.799 240.262 275.067 240.231C275.32 240.201 275.562 240.22 275.763 240.292C276.337 240.416 276.738 240.56 276.972 240.914C277.205 241.253 277.272 241.819 277.127 242.218C276.172 245.357 275.794 248.636 275.792 251.853C275.904 252.796 276.393 253.678 277.24 254.343C277.649 254.422 278.06 254.517 278.47 254.469C278.628 254.451 278.798 254.399 278.95 254.333C280.761 253.546 281.659 251.545 281.263 249.696C280.551 246.929 279.082 244.266 277.484 241.985C276.995 241.103 277.262 240.116 277.974 239.649L278.315 239.418C278.482 239.207 278.86 239.163 279.05 239.141L279.239 239.118C279.406 238.907 279.595 238.885 279.785 238.863C280.359 238.986 280.783 239.319 281.039 239.862C282.108 242.397 283.705 244.662 285.471 246.732C285.947 247.106 286.398 247.26 286.824 247.21C286.966 247.193 287.106 247.161 287.227 247.099C287.795 247.032 288.318 246.588 288.629 245.978C289.383 244.376 289.183 242.695 287.908 241.523C285.851 240.236 283.463 239.386 281.117 238.897C280.738 238.942 280.316 238.625 280.082 238.27C279.864 237.914 279.797 237.348 279.926 236.951L279.883 236.589C279.838 236.212 280.172 235.791 280.528 235.558C280.801 235.43 281.079 235.349 281.332 235.32C281.6 235.288 281.827 235.309 282.027 235.381C284.228 236.269 286.572 236.742 289.063 236.831C290.517 236.277 291.309 234.862 290.942 233.392C290.83 232.449 290.552 231.718 289.896 231.046C289.472 230.714 288.898 230.59 288.33 230.657C285.951 231.51 283.827 232.892 281.917 234.454C281.537 234.627 281.253 234.787 280.905 234.828C280.763 234.845 280.62 234.846 280.439 234.804C280.039 234.676 279.616 234.343 279.375 233.798L279.163 233.632C278.675 232.749 278.941 231.762 279.827 231.276C281.974 230.083 284.051 228.309 285.918 226.385C286.861 224.761 286.595 222.514 285.464 220.943C285.018 220.422 284.216 220.134 283.454 220.049C282.886 220.115 282.171 220.566 281.876 221.174C280.506 224.187 279.74 227.304 279.361 230.582C279.404 230.943 279.086 231.363 278.54 231.618C278.373 231.829 278.148 231.951 277.911 231.979C277.674 232.007 277.427 231.94 277.215 231.774L276.852 231.817C276.05 231.529 275.561 230.647 275.661 229.87C276.594 226.543 276.972 223.265 276.952 219.858C276.662 217.423 274.919 215.542 272.553 214.88ZM271.902 211.692C272.107 211.667 272.33 211.657 272.552 211.647C276.23 212.17 279.031 214.867 279.817 218.39C280.706 217.521 281.801 217.041 282.937 216.908C284.673 216.703 286.474 217.32 287.688 218.786C289.688 221.21 290.276 224.55 288.906 227.563C289.873 227.624 290.887 228.078 291.718 228.745C295.321 231.73 294.851 237.472 290.56 239.872C292.364 242.129 292.72 245.13 291.304 247.75C290.719 249.156 289.33 250.26 287.648 250.649C286.717 250.758 285.748 250.681 284.772 250.414C284.939 253.437 282.995 256.326 280.258 257.397C279.917 257.628 279.349 257.695 278.971 257.739C277.851 257.871 276.692 257.816 275.673 257.188C274.425 256.379 273.362 255.373 272.804 253.909C271.525 255.669 269.604 256.739 267.569 256.979C266.228 257.137 264.844 256.933 263.572 256.334C262.113 255.359 261.005 253.976 260.404 252.151C259.992 250.304 260.316 248.179 261.237 246.367L261.047 246.389C260.937 246.402 260.811 246.417 260.685 246.432C256.708 246.9 252.983 244.359 251.783 240.455C251.349 238.419 251.657 236.296 252.805 234.648C254.127 232.979 256.06 231.604 258.127 231.361C256.216 229.69 255.005 227.571 254.526 225.158C254.304 223.289 254.65 221.352 255.803 219.879C256.846 218.561 258.244 217.664 259.9 217.469C260.09 217.447 260.281 217.44 260.472 217.433C262.539 217.19 264.696 217.701 266.372 219.017C266.339 217.125 266.875 215.167 268.219 213.686C269.08 212.581 270.434 211.864 271.902 211.692Z" fill="#005A35"/>
<defs>
<filter id="filter0_f_14_484" x="32.6021" y="20.8081" width="415.508" height="494.972" filterUnits="userSpaceOnUse" color-interpolation-filters="sRGB">
<feFlood flood-opacity="0" result="BackgroundImageFix"/>
<feBlend mode="normal" in="SourceGraphic" in2="BackgroundImageFix" result="shape"/>
<feGaussianBlur stdDeviation="2" result="effect1_foregroundBlur_14_484"/>
</filter>
</defs>
</svg>
