<svg width="71" height="70" viewBox="0 0 71 70" fill="none" xmlns="http://www.w3.org/2000/svg">
<path fill-rule="evenodd" clip-rule="evenodd" d="M28.2592 27.6608L13.3567 40.3986V58.1963H43.1457V40.3986L28.2592 27.6608Z" fill="#E6FFE6"/>
<path fill-rule="evenodd" clip-rule="evenodd" d="M28.2239 27.6608L25.4341 30.05L37.5484 40.3986V58.1963H43.1458V40.3986L28.2239 27.6608Z" fill="#6BB36B"/>
<path fill-rule="evenodd" clip-rule="evenodd" d="M28.2433 21.2283L27.9671 21.2457L27.6902 21.2745L27.4301 21.3351L27.17 21.4131L26.9092 21.5199L26.6491 21.6556L26.4212 21.7942L26.1934 21.9761L16.2535 30.3371L6.31354 38.6981L6.10235 38.895L5.90679 39.108L5.74439 39.3539L5.59752 39.5966L5.48384 39.8562L5.38641 40.1158L5.3377 40.4043L5.30518 40.6791V40.9676L5.32144 41.2594L5.38641 41.5334L5.46757 41.793L5.58134 42.0501L5.72812 42.3097L5.8906 42.538L6.08609 42.7662L6.31354 42.98L6.55783 43.1793L6.83391 43.332L7.11073 43.4678L7.41999 43.5747L7.72924 43.6526L8.03786 43.7129L8.36338 43.7274L8.65638 43.7129L8.93254 43.6671L9.20928 43.6205L9.46982 43.5289L9.72973 43.422L9.97401 43.3006L10.202 43.1471L10.4295 42.98L28.2433 27.9983L46.0734 42.98L46.3174 43.1648L46.5621 43.332L46.8383 43.4533L47.1144 43.5602L47.4075 43.635L47.6998 43.6984L47.9929 43.7129H48.2859L48.579 43.6816L48.8713 43.635L49.1483 43.5602L49.4252 43.4533L49.7014 43.3175L49.9454 43.1648L50.1893 42.98L50.4172 42.7662L50.5959 42.538L50.7755 42.3097L50.9051 42.0501L51.0186 41.793L51.1169 41.5334L51.166 41.2594L51.1982 40.9676V40.6791L51.166 40.4043L51.1007 40.1158L51.0186 39.8562L50.9051 39.5966L50.7586 39.3539L50.5798 39.108L50.4011 38.895L50.1732 38.6981L30.3093 21.9761L30.0823 21.7942L29.8375 21.6556L29.5943 21.5199L29.3335 21.4131L29.0565 21.3351L28.7964 21.2745L28.5203 21.2457L28.2433 21.2283Z" fill="#E6FFE6"/>
<path fill-rule="evenodd" clip-rule="evenodd" d="M28.2481 21.2313L27.9744 21.2775L27.7175 21.3208L27.4607 21.4133L27.203 21.5202L26.9454 21.6415L26.7207 21.7946L26.4961 21.9622L26.2393 22.176L45.6209 38.6949L45.8463 38.8918L46.0387 39.1225L46.1998 39.3507L46.3447 39.5934L46.4566 39.8538L46.5371 40.1279L46.6015 40.4027L46.6337 40.6912V40.9661L46.6015 41.2578L46.554 41.5318L46.4727 41.7922L46.3608 42.0494L46.2159 42.309L46.0548 42.5372L45.8624 42.7654L46.1354 42.9969L46.3769 43.1785L46.6177 43.332L46.8906 43.4678L47.1644 43.5747L47.4534 43.6527L47.7424 43.6985L48.0323 43.7274H48.3214L48.6112 43.6985L48.8995 43.635L49.1732 43.5603L49.4461 43.4534L49.7191 43.3175L49.9606 43.164L50.2014 42.9792L50.4268 42.7654L50.6031 42.5549L50.7803 42.309L50.9083 42.0663L51.021 41.8067L51.1176 41.5318L51.166 41.2578L51.1982 40.9829V40.6912L51.166 40.4027L51.1015 40.1279L51.021 39.8538L50.9083 39.5934L50.7642 39.3507L50.587 39.1225L50.4107 38.8918L50.1853 38.6949L30.546 21.9622L30.3375 21.7946L30.0959 21.6415L29.8552 21.5202L29.5975 21.4133L29.3246 21.3208L29.0678 21.2775L28.794 21.2313H28.2481Z" fill="#6BB36B"/>
<path fill-rule="evenodd" clip-rule="evenodd" d="M20.0098 44.5367L19.7522 44.5648L19.6306 44.5953L19.509 44.6235L19.4027 44.6677L19.3118 44.7119L19.2353 44.7705L19.1749 44.8284L19.1137 44.904L19.0686 44.9763L19.0227 45.0647L19.0082 45.1676L18.9929 45.2672V45.3869L19.0227 45.7229L19.0686 46.0451L19.129 46.3537L19.2047 46.676L19.2965 46.9701L19.3874 47.2787L19.4937 47.5705L19.6306 47.8646L19.7675 48.1427L19.9036 48.4231L20.071 48.6867L20.2385 48.9343L20.4205 49.1842L20.6177 49.4197L20.8158 49.6535L21.0283 49.8729L21.2562 50.0923L21.4833 50.2836L21.7272 50.4757L21.9704 50.6509L22.2433 50.8116L22.5018 50.9731L22.7755 51.1202L23.0638 51.2367L23.352 51.3557L23.6564 51.4561L23.9599 51.5445L24.2787 51.6201L24.5976 51.6779L24.9317 51.7197L25.2659 51.7503L25.6008 51.7647H25.8126L26.0259 51.7366L26.2385 51.6924L26.3295 51.6619L26.4204 51.6201L26.4961 51.5759L26.5871 51.5172L26.6636 51.4425L26.7248 51.3557L26.7852 51.2673L26.8456 51.1644L26.8915 51.0479L26.9221 50.9008L26.9977 50.5922L27.0283 50.2699L27.0436 49.9613L27.0283 49.6535L26.9977 49.3449L26.9365 49.0371L26.8609 48.7454L26.7546 48.4649L26.6338 48.1869L26.4961 47.9088L26.3448 47.6452L26.162 47.3816L25.9647 47.1317L25.7675 46.8817L25.5396 46.6615L25.2965 46.4285L25.0541 46.2227L24.7957 46.0178L24.5219 45.8257L24.2329 45.6505L23.9446 45.4729L23.6411 45.3122L23.3214 45.1812L23.0179 45.0478L22.6837 44.9313L22.3649 44.8284L22.0308 44.74L21.6813 44.6677L21.3472 44.609L21.013 44.5648L20.6636 44.5367H20.0098Z" fill="#F56038"/>
<path fill-rule="evenodd" clip-rule="evenodd" d="M19.7055 44.5367L19.4366 44.5648L19.3093 44.5953L19.1829 44.6235L19.0879 44.6677L18.9929 44.7119L19.2779 44.7842L19.5791 44.8589L19.8641 44.9457L20.1652 45.0478L20.4349 45.1676L20.72 45.2841L20.9897 45.4151L21.2586 45.5621L21.5122 45.7092L21.7659 45.8563L22.0034 46.0315L22.2417 46.1922L22.4631 46.3843L22.6853 46.5731L22.8907 46.7644L23.0815 46.9701L23.2554 47.1759L23.4301 47.3953L23.5887 47.6147L23.7312 47.8341L23.8585 48.0703L23.9849 48.3034L24.0799 48.5533L24.1588 48.8033L24.2385 49.0532L24.286 49.3007L24.3174 49.5643L24.3335 49.8287V50.0923L24.3174 50.3559L24.286 50.6364L24.2224 50.9008L24.1588 51.1202L24.0638 51.2946L23.9527 51.428L23.8262 51.5445L24.2385 51.6337L24.666 51.7061L25.0944 51.7503L25.538 51.7647H25.7594L25.9816 51.7366L26.2039 51.6924L26.2989 51.6619L26.3939 51.6201L26.4728 51.5759L26.5678 51.5172L26.6475 51.4425L26.7111 51.3557L26.7739 51.2673L26.8375 51.1644L26.885 51.0479L26.9164 50.9008L26.9961 50.5922L27.0275 50.2699L27.0436 49.9613L27.0275 49.6535L26.9961 49.3449L26.9325 49.0371L26.8528 48.7454L26.7425 48.4649L26.6161 48.1869L26.4728 47.9088L26.3142 47.6452L26.1242 47.3816L25.918 47.1317L25.7119 46.8817L25.4744 46.6615L25.2208 46.4285L24.968 46.2227L24.6982 46.0178L24.4124 45.8257L24.1113 45.6505L23.811 45.4729L23.4937 45.3122L23.1604 45.1812L22.8279 45.0478L22.4945 44.9313L22.1628 44.8284L21.8134 44.74L21.4494 44.6677L21.1008 44.609L20.7514 44.5648L20.3874 44.5367H19.7055Z" fill="#E74645"/>
<path fill-rule="evenodd" clip-rule="evenodd" d="M36.4591 42.1265L35.9824 42.141L35.4889 42.1739L35.0122 42.2358L34.5356 42.313L34.0758 42.407L33.5992 42.5171L33.1394 42.6561L32.6974 42.8128L32.2546 42.984L31.8117 43.189L31.3858 43.3931L30.9776 43.6085L30.5855 43.86L30.1942 44.1091L29.8367 44.3751L29.4784 44.6564L29.1555 44.9522L28.8319 45.2656L28.542 45.5943L28.2707 45.923L28.0315 46.2661L27.8101 46.6238L27.6056 46.9999L27.4357 47.376L27.2997 47.7489L27.1974 48.1395L27.1121 48.5477L27.0613 48.9383L27.0444 49.3586L27.0613 49.7668L27.1121 50.1872L27.1974 50.6251L27.265 50.7963L27.3166 50.9683L27.4011 51.1106L27.4873 51.2343L27.5887 51.3436L27.691 51.436L27.7932 51.5156L27.9124 51.5775L28.0485 51.6249L28.1845 51.6723L28.3214 51.702L28.4575 51.735L28.7642 51.7639H29.0702L29.5468 51.7495L30.0074 51.702L30.4663 51.6546L30.9092 51.5775L31.352 51.4682L31.7779 51.3589L32.203 51.2199L32.6121 51.0631L33.0211 50.8912L33.3947 50.7015L33.7691 50.5006L34.1443 50.282L34.4848 50.0481L34.8254 49.7966L35.1652 49.5298L35.472 49.2493L35.7618 48.9527L36.0517 48.657L36.323 48.3283L36.579 48.0004L36.8174 47.6573L37.0388 47.2956L37.2425 46.938L37.4301 46.5619L37.6177 46.189L37.7715 45.7984L37.9067 45.3902L38.0259 44.9851L38.1281 44.5616L38.2135 44.1413L38.265 43.7033L38.3158 43.283V43.1086L38.2988 42.9696L38.2819 42.845L38.2304 42.718L38.162 42.6264L38.0774 42.5316L37.9752 42.4367L37.8729 42.3749L37.736 42.313L37.6008 42.2503L37.4301 42.2214L37.2594 42.1884L37.0895 42.1563L36.885 42.141L36.4591 42.1265Z" fill="#F56038"/>
<path fill-rule="evenodd" clip-rule="evenodd" d="M36.4422 42.1265L36.0122 42.141L35.5654 42.1739L35.1362 42.2214L34.7063 42.2656L34.8786 42.3451L35.0155 42.4223L35.1362 42.5171L35.2393 42.6409L35.3254 42.7654L35.3593 42.9221L35.3939 43.0789V43.283L35.3424 43.6559L35.2908 44.032L35.2224 44.4081L35.1539 44.781L35.0501 45.1418L34.9301 45.4995L34.8101 45.8611L34.6717 46.2043L34.5171 46.5321L34.3456 46.8608L34.1733 47.1863L33.9849 47.4997L33.7779 47.814L33.5549 48.1097L33.3311 48.391L33.0911 48.6723L32.8335 48.9383L32.5589 49.2019L32.2836 49.4534L32.0082 49.6865L31.7168 49.9203L31.4068 50.1397L31.0799 50.3439L30.7707 50.5303L30.4277 50.7015L30.0839 50.8735L29.7401 51.0302L29.3786 51.1724L29.0002 51.297L28.6234 51.4063L28.2449 51.5011L27.8496 51.5927L27.9696 51.6402L28.1073 51.6876L28.3818 51.735L28.6749 51.7639H28.9833L29.4647 51.7495L29.9293 51.7165L30.3931 51.6546L30.8399 51.5775L31.2868 51.4682L31.7168 51.3589L32.1459 51.2199L32.5589 51.0631L32.9712 50.9056L33.3488 50.7015L33.7264 50.5006L34.1048 50.282L34.4663 50.0481L34.7924 49.7966L35.1362 49.5298L35.4454 49.2493L35.7377 48.9527L36.0299 48.657L36.3045 48.3283L36.563 48.0004L36.8029 47.6573L37.0267 47.2956L37.2328 46.938L37.4221 46.5619L37.6113 46.189L37.7659 45.7984L37.9035 45.3902L38.0235 44.9851L38.1266 44.5616L38.2127 44.1413L38.2643 43.7033L38.3158 43.283V43.1086L38.2989 42.9696L38.2812 42.845L38.2296 42.718L38.1604 42.6264L38.075 42.5316L37.972 42.4367L37.8689 42.3749L37.7312 42.313L37.5936 42.2503L37.4221 42.2214L37.2498 42.1884L37.0783 42.1563L36.8713 42.141L36.4422 42.1265Z" fill="#E74645"/>
<path fill-rule="evenodd" clip-rule="evenodd" d="M19.9583 45.2969L20.3504 45.3146L20.7433 45.3443L21.1354 45.4062L21.5122 45.4858L21.9043 45.5766L22.2811 45.6851L22.6571 45.8265L23.017 45.9824L23.3769 46.1536L23.7199 46.3385L24.0476 46.5418L24.3584 46.7596L24.6692 46.9918L24.947 47.2394L25.2087 47.5038L25.4542 47.769L25.6177 47.9538L25.7489 48.1571L25.8802 48.3572L25.9945 48.5606L26.0919 48.7631L26.1901 48.9809L26.2723 49.1954L26.3375 49.4132L26.4035 49.6487L26.4357 49.8641L26.4687 50.0987L26.4848 50.3165V50.5496L26.4687 50.7819L26.4357 51.0141L26.3866 51.2464L26.3544 51.3412L26.3214 51.4352L26.2892 51.4971L26.2232 51.559L26.1249 51.5879L26.0106 51.6201L25.8463 51.6353H25.323L24.9961 51.6056L24.6861 51.559L24.3914 51.5116L24.0798 51.4352L23.7852 51.3557L23.4913 51.264L23.2135 51.1555L22.9349 51.0463L22.6732 50.9056L22.4116 50.7674L22.1668 50.6115L21.9212 50.4403L21.6757 50.2699L21.447 50.0666L21.2336 49.8818L21.0219 49.664L20.8246 49.4462L20.629 49.2131L20.4486 48.9809L20.2852 48.7309L20.1217 48.4834L19.9744 48.2045L19.8439 47.9393L19.7296 47.6597L19.6145 47.3623L19.5162 47.0682L19.4349 46.774L19.3528 46.4622L19.2876 46.1536L19.2554 45.8265L19.2216 45.5003V45.4681L19.2385 45.4384L19.3037 45.391L19.4019 45.3443L19.5162 45.3291L19.7779 45.2969H19.9583ZM36.5283 43.3874L36.7248 43.4019L36.9043 43.4172L37.0677 43.4638L37.1507 43.5112L37.2159 43.5434L37.265 43.6052L37.2972 43.6671L37.3133 43.729L37.3302 43.823L37.2811 44.2257L37.232 44.6468L37.1507 45.0349L37.0516 45.4384L36.9534 45.8265L36.823 46.1978L36.6764 46.5562L36.5283 46.9123L36.3487 47.2715L36.1684 47.5978L35.9558 47.9249L35.7433 48.2487L35.5146 48.5453L35.269 48.8394L35.0243 49.1191L34.7457 49.3843L34.4671 49.6487L34.1893 49.8818L33.8785 50.114L33.5677 50.3165L33.2401 50.5166L32.9132 50.7055L32.5702 50.8759L32.2103 51.0286L31.8504 51.1555L31.4905 51.2793L31.1136 51.3878L30.7215 51.4818L30.3286 51.5437L29.9365 51.5879L29.5275 51.6201L29.1185 51.6353H28.8407L28.6273 51.6201L28.4478 51.5735L28.3166 51.5116L28.2022 51.4175L28.1209 51.3082L28.0718 51.1853L28.0227 51.0141L27.9575 50.72L27.9236 50.4258L27.8914 50.1285V49.8343L27.9075 49.5402L27.9405 49.2429L28.0066 48.9487L28.0718 48.6546L28.1531 48.3749L28.2674 48.0952L28.3826 47.8156L28.5299 47.5512L28.6765 47.286L28.8407 47.0392L29.0203 46.7885L29.2006 46.5418L29.5275 46.1826L29.8544 45.8563L30.2143 45.5292L30.6072 45.235L31.0162 44.9554L31.4252 44.7087L31.8665 44.4587L32.3246 44.2409L32.7827 44.0553L33.257 43.8849L33.7473 43.729L34.2384 43.6052L34.7296 43.5112L35.236 43.4493L35.7272 43.4019L36.2336 43.3874H36.5283ZM28.2674 20.4277L27.9236 20.4424L27.5814 20.4895L27.2538 20.5512L26.9269 20.6601L26.6153 20.7837L26.3053 20.9543L26.0106 21.1427L25.732 21.3574L18.0283 27.9308L17.9293 28.0224L17.8641 28.1309L17.815 28.2571L17.7989 28.3809V28.5046L17.8319 28.6284L17.8971 28.7546L17.9784 28.8638L18.0774 28.9547L18.1918 29.0165L18.3222 29.064L18.4534 29.0784L18.5839 29.064L18.7151 29.0487L18.8464 28.9868L18.9607 28.9081L26.6644 22.3373L26.8447 22.199L27.0243 22.0724L27.2207 21.9812L27.4172 21.9018L27.6298 21.84L27.8423 21.7929L28.0557 21.7635L28.2674 21.7458L28.4808 21.7635L28.6926 21.7929L28.9059 21.84L29.1016 21.9018L29.3149 21.9812L29.4945 22.0724L29.6909 22.199L29.8705 22.3373L49.8439 39.3796L50.0073 39.5653L50.1708 39.7509L50.3012 39.9534L50.4164 40.1568L50.4985 40.3424L50.5637 40.5449L50.6128 40.745L50.6289 40.9484V41.1509L50.6128 41.351L50.5637 41.5543L50.4985 41.7576L50.4164 41.9578L50.3012 42.1755L50.1708 42.3781L50.0243 42.5782L49.8109 42.7485L49.6152 42.9053L49.4019 43.0282L49.2062 43.1222L48.9928 43.2171L48.7803 43.279L48.5838 43.3079L48.3721 43.34H48.1587L47.9461 43.3079L47.7336 43.279L47.5049 43.2171L47.2916 43.1375L47.0798 43.0282L46.8503 42.9053L46.6378 42.7662L28.7256 27.4631L28.6273 27.4012L28.513 27.3393L28.3826 27.3104L28.2674 27.2927L28.137 27.3104L28.0227 27.3393L27.9075 27.4012L27.7932 27.4631L9.88171 42.7662L9.70208 42.9053L9.50547 43.0282L9.29315 43.1375L9.08019 43.2171L8.85088 43.279L8.62221 43.3256L8.39291 43.34H8.16425L7.93494 43.3079L7.72262 43.279L7.49331 43.2171L7.281 43.1222L7.06803 43.0282L6.87206 42.9053L6.67544 42.7485L6.51207 42.5782L6.34815 42.3781L6.21747 42.1755L6.11948 41.9578L6.0215 41.7576L5.95555 41.5543L5.92286 41.351L5.89018 41.1509V40.9484L5.92286 40.745L5.95555 40.5449L6.03784 40.3424L6.11948 40.1568L6.23381 39.9534L6.36449 39.7509L6.51207 39.5653L6.69178 39.3796L15.918 31.503L16.0162 31.3937L16.0815 31.2853L16.1306 31.1615L16.1467 31.0377V30.9116L16.1137 30.7878L16.0654 30.664L15.9832 30.5555L15.8681 30.4792L15.7538 30.3996L15.6233 30.3699L15.4921 30.3377L15.3617 30.3522L15.2304 30.3852L15.1 30.4318L14.9848 30.5081L5.7595 38.3855L5.6289 38.494L5.49758 38.588L5.38325 38.7118L5.26892 38.8356L5.17093 38.9593L5.0723 39.0823L4.89259 39.3796L4.74565 39.689L4.63068 40.0153L4.5653 40.3569L4.51635 40.7008L4.5 41.0569L4.51635 41.4129L4.58164 41.7866L4.67963 42.1458L4.74565 42.3162L4.81095 42.4874L4.90893 42.6577L4.99066 42.8281L5.10491 42.9993L5.21996 43.1552L5.33422 43.3079L5.4649 43.4638L5.59621 43.6052L5.74323 43.729L5.87383 43.8375L6.0215 43.9468L6.3318 44.1493L6.6591 44.3028L7.00273 44.4435L7.36271 44.5383L7.72262 44.5994L8.0826 44.6468H8.45885L8.81819 44.6146L9.17817 44.5527L9.53808 44.4435L9.88171 44.3205L10.209 44.1646L10.5193 43.9613L10.667 43.852L10.814 43.7435L12.7117 42.1281V58.3322L12.7281 58.4704L12.7608 58.5966L12.8261 58.7059L12.9077 58.7967L13.0227 58.8762L13.137 58.9381L13.2677 58.9855L13.4148 59H33.0283L33.1748 58.9855L33.3222 58.9381L33.4373 58.8586L33.5516 58.7677L33.633 58.6584L33.6982 58.5323L33.7312 58.394L33.7151 58.2526L33.6982 58.1288L33.6491 58.0204L33.5677 57.9111L33.4864 57.8347L33.3721 57.7551L33.257 57.7109L33.1426 57.6788L33.0114 57.6643H27.8423V52.7709L28.1531 52.8183L28.4647 52.8472L28.7747 52.8794L29.0855 52.8947H29.6748L29.9687 52.8794L30.2473 52.8617L30.542 52.8183L30.8198 52.7854L31.36 52.6616L31.8995 52.521L32.4059 52.3498L32.8971 52.1649L33.3721 51.9319L33.8294 51.6972L34.2554 51.4352L34.6636 51.1555L35.0404 50.8759L35.3995 50.5641L35.7433 50.2522L36.0541 49.9428L36.3487 49.6021L36.6265 49.2605L36.8882 48.9013L37.1338 48.5453L37.3793 48.1571L37.5919 47.769L37.7715 47.3623L37.9518 46.9597L38.1153 46.5418L38.2626 46.1207L38.3769 45.6851L38.4751 45.2503L38.5565 44.7995L38.6225 44.3494L38.6708 43.8994V43.635L38.6386 43.4019L38.5895 43.2018L38.4913 43.0138L38.3769 42.8434L38.2457 42.6875L38.0822 42.5492L37.9019 42.4399L37.7223 42.3459L37.5106 42.2519L37.2972 42.19L37.0846 42.1458L36.856 42.0984L36.6265 42.0662L36.414 42.0518H36.1845L35.8415 42.0662L35.4985 42.0807L35.1386 42.1137L34.7948 42.1458L34.4349 42.2077L34.0911 42.2696L33.7312 42.3459L33.3882 42.4399L33.0444 42.534L32.7006 42.6401L32.3576 42.7662L32.0138 42.9053L31.6869 43.0459L31.36 43.2018L31.0323 43.3553L30.7215 43.5257L30.4107 43.7137L30.1 43.8994L29.8053 44.1027L29.5275 44.3205L29.2497 44.5383L28.9872 44.7705L28.7256 45.0028L28.4808 45.2503L28.2352 45.5147L28.0227 45.7799L27.8101 46.0443L27.6137 46.324L27.4172 46.6181L27.2538 46.9123L27.0895 47.2241L26.943 47.5359L26.8125 47.3334L26.6644 47.1301L26.3375 46.7419L25.9945 46.3859L25.6177 46.0443L25.2256 45.7325L24.8004 45.4384L24.3584 45.1732L23.9003 44.9264L23.4261 44.7087L22.9349 44.5206L22.4446 44.3494L21.9373 44.2257L21.4301 44.1172L20.9236 44.0408L20.4156 43.9934L19.9253 43.9789H19.484L19.2554 44.0087L19.009 44.0553L18.7803 44.1172L18.5517 44.2112L18.4534 44.2731L18.3544 44.335L18.257 44.4113L18.1588 44.4909L18.0935 44.5672L18.0114 44.6612L17.9462 44.785L17.8971 44.9088L17.848 45.0502L17.7989 45.2061L17.7828 45.391L17.7989 45.5943L17.8319 45.9503L17.8802 46.324L17.9462 46.68L18.0283 47.0392L18.1257 47.3953L18.2401 47.736L18.3713 48.0776L18.5187 48.4046L18.6821 48.7309L18.8464 49.0572L19.042 49.3522L19.2385 49.664L19.451 49.9428L19.6805 50.2225L19.9253 50.5022L20.1708 50.7497L20.4486 50.9996L20.7433 51.2464L21.0702 51.4818L21.414 51.7149L21.7739 51.9319L22.1507 52.132L22.5589 52.3208L22.9679 52.4735L23.3769 52.6294L23.819 52.7387L24.2441 52.8472L24.6861 52.9091L25.1273 52.9413L25.5686 52.9565L26.0106 52.9268L26.2393 52.8947L26.4518 52.8617V57.6643H14.1016V40.9484L28.2674 28.8638L42.4172 40.9484V57.6643H36.0702L35.9075 57.6788L35.7755 57.7262L35.645 57.8026L35.5468 57.8966L35.4655 58.0051L35.3995 58.1288L35.3673 58.2703V58.4085L35.3995 58.5323L35.4494 58.6408L35.5307 58.7501L35.6128 58.8296L35.7103 58.8915L35.8415 58.9526L35.9558 58.9855L36.0871 59H43.1209L43.2513 58.9855L43.3825 58.9381L43.513 58.8762L43.6112 58.7967L43.6925 58.7059L43.7586 58.5966L43.8077 58.4704V58.3322V42.1281L45.7054 43.7435L45.8527 43.8696L45.9993 43.9789L46.327 44.1646L46.6539 44.335L46.9969 44.4587L47.3568 44.5527L47.7175 44.6146L48.0774 44.6468H48.4373L48.7972 44.6146L49.1571 44.5383L49.5162 44.4435L49.86 44.3205L50.1869 44.1493L50.4985 43.9468L50.7932 43.729L50.9236 43.6052L51.054 43.4638L51.1853 43.3256L51.2996 43.1841L51.4961 42.89L51.6764 42.5637L51.8069 42.2366L51.9043 41.9103L51.9703 41.5688L52.0025 41.2128V40.872L51.9703 40.5273L51.9043 40.1857L51.7899 39.8594L51.6595 39.5355L51.4792 39.2237L51.2835 38.9296L51.0379 38.6499L50.9075 38.5093L50.7763 38.3855L30.7868 21.3574L30.509 21.1427L30.2143 20.9543L29.9196 20.7837L29.5927 20.6601L29.2658 20.5512L28.9389 20.4895L28.5951 20.4424L28.2674 20.4277Z" fill="#005A35"/>
<path fill-rule="evenodd" clip-rule="evenodd" d="M49.0196 20.8607V25.8879H43.729L49.0196 34.2382V29.2089H54.3108L49.0196 20.8607Z" fill="#F56038"/>
<path fill-rule="evenodd" clip-rule="evenodd" d="M49.0317 18.0744L49.5129 18.0853L49.9933 18.131L50.4512 18.1897L50.9083 18.2701L51.3662 18.3614L51.8121 18.4876L52.2467 18.6355L52.6686 18.7964L53.0799 18.9813L53.4785 19.177L53.8651 19.3945L54.2524 19.6359L54.6164 19.8881L54.9685 20.1643L55.3085 20.4514L55.6253 20.7493L55.9421 21.0712L56.2356 21.404L56.5058 21.7475L56.764 22.1042L57.0102 22.4717L57.2324 22.8501L57.4441 23.2524L57.6318 23.6548L57.7961 24.068L57.9372 24.492L58.0656 24.9161L58.1715 25.3641L58.254 25.8119L58.3126 26.271L58.3478 26.7323L58.3591 27.202L58.3478 27.6716L58.3126 28.1329L58.254 28.5913L58.1715 29.0392L58.0656 29.4877L57.9372 29.9117L57.7961 30.3356L57.6318 30.7489L57.4441 31.1616L57.2324 31.5531L57.0102 31.932L56.764 32.2996L56.5058 32.6559L56.2356 33.0108L55.9421 33.3326L55.6253 33.6544L55.3085 33.9523L54.9685 34.2389L54.6164 34.5156L54.2524 34.7677L53.8651 35.0093L53.4785 35.2262L53.0799 35.4219L52.6686 35.6071L52.2467 35.7677L51.8121 35.9156L51.3662 36.0423L50.9083 36.1465L50.4512 36.2268L49.9933 36.2831L49.5129 36.3184L49.0317 36.3289L48.5498 36.3184L48.0814 36.2831L47.6115 36.2268L47.1544 36.1465L46.7085 36.0423L46.2626 35.9156L45.828 35.7677L45.4061 35.6071L44.9948 35.4219L44.5962 35.2262L44.1976 35.0093L43.8216 34.7677L43.4582 34.5156L43.1062 34.2389L42.7661 33.9523L42.4374 33.6544L42.1326 33.3326L41.8391 33.0108L41.5689 32.6559L41.2994 32.2996L41.0645 31.932L40.8415 31.5531L40.6306 31.1616L40.4429 30.7489L40.2785 30.3356L40.1262 29.9117L40.0083 29.4877L39.9025 29.0392L39.8207 28.5913L39.7621 28.1329L39.7268 27.6716L39.7156 27.202L39.7268 26.7323L39.7621 26.271L39.8207 25.8119L39.9025 25.3641L40.0083 24.9161L40.1262 24.492L40.2785 24.068L40.4429 23.6548L40.6306 23.2524L40.8415 22.8501L41.0645 22.4717L41.2994 22.1042L41.5689 21.7475L41.8391 21.404L42.1326 21.0712L42.4374 20.7493L42.7661 20.4514L43.1062 20.1643L43.4582 19.8881L43.8216 19.6359L44.1976 19.3945L44.5962 19.177L44.9948 18.9813L45.4061 18.7964L45.828 18.6355L46.2626 18.4876L46.7085 18.3614L47.1544 18.2701L47.6115 18.1897L48.0814 18.131L48.5498 18.0853L49.0317 18.0744ZM46.3564 11.0022L46.2153 11.013L46.0862 11.0348L45.9571 11.0587L45.84 11.1044L45.7229 11.1609L45.6171 11.2306L45.5112 11.3001L45.4174 11.3806L45.3236 11.4828L45.253 11.5763L45.1832 11.6894L45.1246 11.8047L45.0894 11.9199L45.0541 12.0461L45.0301 12.1722L45.0181 12.3092V14.7666L44.4671 14.9624L43.9161 15.1689L43.3877 15.3995L42.8593 15.6517L41.0878 13.9054L40.9826 13.825L40.8768 13.7445L40.7597 13.6771L40.6419 13.6184L40.5248 13.5836L40.3957 13.551L40.2666 13.5379L40.1374 13.5271L40.0203 13.5379L39.8912 13.551L39.7621 13.5836L39.6443 13.6184L39.5272 13.6771L39.4101 13.7445L39.3043 13.825L39.1991 13.9054L35.4325 17.6025L35.3386 17.7069L35.2681 17.8091L35.1975 17.9244L35.139 18.0396L35.1037 18.1549L35.0684 18.281L35.0451 18.4071V18.5333V18.6594L35.0684 18.7856L35.1037 18.9008L35.139 19.027L35.1975 19.1422L35.2681 19.2444L35.3386 19.3597L35.4325 19.451L37.204 21.1974L36.9458 21.7127L36.7115 22.2303L36.5006 22.7697L36.3122 23.322H33.7668L33.637 23.3329L33.4966 23.3438L33.3675 23.3786L33.2503 23.4243L33.1325 23.4808L33.0274 23.5395L32.9216 23.62L32.8278 23.7005L32.7452 23.7918L32.6634 23.894L32.5935 23.9984L32.5463 24.1137L32.499 24.2398L32.4637 24.3659L32.4404 24.492V24.6181V29.842V29.968L32.4637 30.094L32.499 30.2222L32.5463 30.3483L32.5935 30.4616L32.6634 30.5659L32.7452 30.668L32.8278 30.7616L32.9216 30.8426L33.0274 30.9229L33.1325 30.9792L33.2503 31.0355L33.3675 31.0813L33.4966 31.1165L33.637 31.1292L33.7668 31.1405H36.2889L36.4766 31.6904L36.6875 32.2186L36.9225 32.7474L37.1927 33.265L35.4092 34.998L35.3153 35.0896L35.2335 35.205L35.1742 35.3071L35.1157 35.4219L35.0684 35.5487L35.0451 35.6635L35.0219 35.7895V35.9156V36.0423L35.0451 36.1684L35.0684 36.2831L35.1157 36.4099L35.1742 36.5247L35.2335 36.6289L35.3153 36.7423L35.4092 36.8359L39.1871 40.5195L39.293 40.6132L39.3988 40.6914L39.5039 40.7611L39.633 40.8068L39.7501 40.8526L39.8792 40.8871L39.9971 40.8984L40.1262 40.9111L40.2546 40.8984L40.3837 40.8871L40.5128 40.8526L40.6306 40.8068L40.7477 40.7611L40.8648 40.6914L40.9706 40.6132L41.0765 40.5195L42.848 38.7865L43.3757 39.0386L43.9161 39.2696L44.4671 39.4865L45.0181 39.6717V42.0941L45.0301 42.2201L45.0541 42.3469L45.0894 42.473L45.1246 42.599L45.1832 42.7138L45.253 42.8166L45.3236 42.9208L45.4174 43.0124L45.5112 43.0926L45.6171 43.1729L45.7229 43.2292L45.84 43.2884L45.9571 43.3342L46.0862 43.3687L46.2153 43.3905H51.8241L51.9532 43.3687L52.0823 43.3342L52.1994 43.2884L52.3165 43.2292L52.4336 43.1729L52.5282 43.0926L52.622 43.0124L52.7158 42.9208L52.7864 42.8166L52.8562 42.7138L52.9148 42.599L52.9501 42.473L52.9853 42.3469L53.0086 42.2201L53.0206 42.0941V39.6238L53.5723 39.4414L54.1233 39.2344L54.6517 38.9929L55.1801 38.7408L56.9517 40.485L57.0568 40.5787L57.1626 40.6456L57.2797 40.7153L57.3975 40.7723L57.5146 40.8202L57.6437 40.8414L57.7729 40.8653H58.0191L58.1482 40.8414L58.2773 40.8202L58.3944 40.7723L58.5122 40.7153L58.6293 40.6456L58.7352 40.5787L58.8403 40.485L62.607 36.7881L62.7008 36.6859L62.7713 36.581L62.8412 36.4684L62.9004 36.3529L62.9357 36.2381L62.971 36.1113L62.9943 35.9853V35.8592V35.7444L62.971 35.6177L62.9357 35.4916L62.9004 35.3769L62.8412 35.2614L62.7713 35.1459L62.7008 35.0438L62.607 34.9396L60.8354 33.1953L61.0929 32.6911L61.3279 32.1622L61.5388 31.6228L61.7272 31.0708H64.4025L64.5429 31.0489L64.672 31.0137L64.7891 30.9687L64.9062 30.9229L65.012 30.8532L65.1178 30.7729L65.2117 30.6919L65.2942 30.6011L65.376 30.4961L65.4459 30.394L65.4932 30.2792L65.5397 30.1638L65.5757 30.0377L65.599 29.9004V29.7744V24.6181V24.492L65.5757 24.3659L65.5397 24.2398L65.4932 24.1137L65.4459 23.9984L65.376 23.894L65.2942 23.7918L65.2117 23.7005L65.1178 23.62L65.012 23.5395L64.9062 23.4808L64.7891 23.4243L64.672 23.3786L64.5429 23.3438L64.4025 23.3329L64.2726 23.322H61.7505L61.5628 22.7805L61.3512 22.2412L61.1169 21.7258L60.8467 21.219L62.6302 19.4967L62.7241 19.3945L62.8059 19.2901L62.8645 19.1879L62.9237 19.0726L62.971 18.9465L62.9943 18.8312L63.0176 18.7051V18.579V18.4637L62.9943 18.3376L62.971 18.2115L62.9237 18.0962L62.8645 17.9831L62.8059 17.8678L62.7241 17.7635L62.6302 17.6721L58.8523 14.0099L58.7465 13.9294L58.6406 13.8489L58.5355 13.7793L58.4064 13.7337L58.2893 13.688L58.1602 13.664L58.0424 13.6423L57.9133 13.6314L57.7841 13.6423L57.6557 13.664L57.5259 13.688L57.4088 13.7337L57.2917 13.7793L57.1739 13.8489L57.0688 13.9294L56.9629 14.0099L55.1914 15.7322L54.6637 15.4908L54.1233 15.2603L53.5723 15.0537L53.0206 14.871V12.3092L53.0086 12.1722L52.9853 12.0461L52.9501 11.9199L52.9148 11.8047L52.8562 11.6894L52.7864 11.5763L52.7158 11.4828L52.622 11.3806L52.5282 11.3001L52.4336 11.2306L52.3165 11.1609L52.1994 11.1044L52.0823 11.0587L51.9532 11.0348L51.8241 11.013L51.683 11.0022H46.3564Z" fill="#E6FFE6"/>
<path fill-rule="evenodd" clip-rule="evenodd" d="M58.0577 13.8189L57.9378 13.8299L57.8178 13.8409L57.7092 13.8759L57.59 13.922L57.4813 13.9681L57.372 14.0383L57.2746 14.1195L57.1878 14.2116L57.1328 14.2709L60.5693 17.93L60.6561 18.0221L60.721 18.1384L60.7866 18.2415L60.8409 18.3577L60.8847 18.485L60.9065 18.6013L60.9284 18.7285V18.8557V18.9829L60.9065 19.1102L60.8847 19.2264L60.8409 19.3537L60.7866 19.4699L60.721 19.5753L60.6561 19.6894L60.5693 19.7837L58.9276 21.5321L59.1668 22.052L59.3841 22.5851L59.5795 23.1181L59.7537 23.6753H61.6134L61.4286 23.1181L61.2325 22.5851L61.0152 22.052L60.776 21.5321L62.4184 19.7837L62.5052 19.6894L62.5807 19.5753L62.635 19.4699L62.69 19.3537L62.7331 19.2264L62.7549 19.1102L62.7768 18.9829V18.8557V18.7285L62.7549 18.6013L62.7331 18.485L62.69 18.3577L62.635 18.2415L62.5807 18.1384L62.5052 18.0221L62.4184 17.93L58.9276 14.2116L58.8401 14.1195L58.7315 14.0383L58.6334 13.9681L58.5248 13.922L58.4055 13.8759L58.2969 13.8409L58.177 13.8299L58.0577 13.8189Z" fill="#6BB36B"/>
<path fill-rule="evenodd" clip-rule="evenodd" d="M59.7537 30.7194L59.5795 31.2743L59.3841 31.8073L59.1668 32.3404L58.9276 32.8629L60.5693 34.6114L60.6561 34.703L60.721 34.8198L60.7866 34.9227L60.8409 35.0388L60.8847 35.1663L60.9065 35.2825L60.9284 35.41V35.5367V35.6642L60.9065 35.7916L60.8847 35.9078L60.8409 36.0346L60.7866 36.1515L60.721 36.2564L60.6561 36.3705L60.5693 36.4648L57.1328 40.135L57.1878 40.1808L57.2746 40.2752L57.372 40.354L57.4813 40.4245L57.59 40.4702L57.7092 40.5167L57.8178 40.5519L57.9378 40.5625L58.0577 40.5759L58.177 40.5625L58.2969 40.5519L58.4055 40.5167L58.5248 40.4702L58.6334 40.4245L58.7315 40.354L58.8401 40.2752L58.9276 40.1808L62.4184 36.4648L62.5052 36.3705L62.5807 36.2564L62.635 36.1515L62.69 36.0346L62.7331 35.9078L62.7549 35.7916L62.7768 35.6642V35.5367V35.41L62.7549 35.2825L62.7331 35.1663L62.69 35.0388L62.635 34.9227L62.5807 34.8198L62.5052 34.703L62.4184 34.6114L60.776 32.8629L61.0152 32.3404L61.2325 31.8073L61.4286 31.2743L61.6134 30.7194H59.7537Z" fill="#6BB36B"/>
<path fill-rule="evenodd" clip-rule="evenodd" d="M62.0715 23.6773L62.2091 23.6871L62.346 23.6969L62.4828 23.7282L62.6197 23.7693L62.7453 23.8203L62.8568 23.8731L62.9689 23.9456L63.0691 24.018L63.1559 24.1002L63.2434 24.1923L63.3054 24.2863L63.3682 24.3901L63.4176 24.5037L63.455 24.6173L63.4677 24.7308L63.4804 24.8444V29.5483L63.4677 29.6616L63.455 29.775L63.4176 29.8905L63.3682 30.0046L63.3054 30.106L63.2434 30.2003L63.1559 30.2926L63.0691 30.3764L62.9689 30.4489L62.8568 30.5214L62.7453 30.5721L62.6197 30.6235L62.4828 30.6644L62.346 30.6954L62.2091 30.7073L62.0715 30.7172H64.1902L64.3277 30.7073L64.4773 30.6954L64.6142 30.6644L64.739 30.6235L64.8632 30.5721L64.9761 30.5214L65.0875 30.4489L65.1877 30.3764L65.2752 30.2926L65.362 30.2003L65.4368 30.106L65.4869 30.0046L65.5362 29.8905L65.5743 29.775L65.599 29.6616V29.5483V24.8444V24.7308L65.5743 24.6173L65.5362 24.5037L65.4869 24.3901L65.4368 24.2863L65.362 24.1923L65.2752 24.1002L65.1877 24.018L65.0875 23.9456L64.9761 23.8731L64.8632 23.8203L64.739 23.7693L64.6142 23.7282L64.4773 23.6969L64.3277 23.6871L64.1902 23.6773H62.0715Z" fill="#6BB36B"/>
<path fill-rule="evenodd" clip-rule="evenodd" d="M46.2682 11L46.077 11.0126L45.8859 11.0461L45.7067 11.0775L45.5395 11.1446L45.3723 11.2117L45.229 11.2997L45.0851 11.3982L44.9419 11.5093L44.8227 11.6308L44.7147 11.765L44.6315 11.9075L44.5475 12.0626L44.4883 12.2177L44.4403 12.3832L44.4163 12.5509L44.4043 12.7269V14.762L43.9986 14.8961L43.5916 15.0386L43.1979 15.2062L42.8035 15.3718L41.2627 13.9446L41.1188 13.823L40.9636 13.7225L40.8084 13.6344L40.6405 13.5569L40.474 13.5024L40.2941 13.4689L40.1156 13.4458L39.9357 13.4353L39.7572 13.4458L39.5773 13.4689L39.4101 13.5024L39.2429 13.5569L39.0757 13.6344L38.9085 13.7225L38.7652 13.823L38.622 13.9446L37.5341 14.9506L37.4629 15.0281L37.4149 15.1161L37.3916 15.2062L37.3796 15.3048L37.4029 15.4054L37.4389 15.4934L37.4989 15.5814L37.5821 15.6485L37.6661 15.703L37.7493 15.726L37.8333 15.747H37.9292L38.0245 15.726L38.1077 15.703L38.1917 15.659L38.2636 15.6045L39.3388 14.609L39.3981 14.5523L39.47 14.5083L39.542 14.4643L39.6252 14.4308L39.6972 14.4078L39.7812 14.3868L39.8524 14.3763H40.0196L40.1036 14.3868L40.1748 14.4078L40.2588 14.4308L40.33 14.4643L40.402 14.5083L40.474 14.5523L40.5332 14.609L42.3492 16.2793L42.4092 16.3233L42.4811 16.3673L42.5524 16.3904L42.6243 16.4113H42.7915L42.8635 16.3904L42.9467 16.3673L43.4603 16.1242L43.9866 15.9147L44.5115 15.7135L45.0611 15.5478L45.1331 15.5143L45.2051 15.4829L45.265 15.4368L45.3243 15.3823L45.3603 15.3153L45.3962 15.2503L45.4075 15.1727L45.4195 15.0952V12.7374V12.6494L45.4315 12.5718L45.4555 12.4943L45.4795 12.4272L45.5155 12.3623L45.5634 12.2952L45.6114 12.2281L45.6707 12.1737L45.7306 12.1297L45.7899 12.0856L45.8619 12.0416L45.9338 12.008L46.0171 11.985L46.1003 11.964L46.185 11.9515H51.7761L51.86 11.964L51.9433 11.985L52.0145 12.008L52.0985 12.0416L52.1705 12.0856L52.2304 12.1297L52.2897 12.1737L52.3497 12.2281L52.3969 12.2952L52.4329 12.3623L52.4689 12.4272L52.5049 12.4943L52.5169 12.5718L52.5289 12.6494L52.5408 12.7374V15.0847V15.1622L52.5648 15.2377L52.6001 15.3048L52.6361 15.3718L52.6841 15.4263L52.7553 15.4703L52.8153 15.5143L52.8992 15.5374L53.4368 15.7135L53.9737 15.9021L54.5 16.1137L55.0136 16.3568L55.0856 16.3778L55.1569 16.4008H55.3241L55.396 16.3778L55.4673 16.3568L55.5399 16.3128L55.5992 16.2668L57.4032 14.5964L57.4751 14.5419L57.5344 14.4979L57.6064 14.4539L57.6903 14.4308L57.7616 14.3973L57.8448 14.3868L57.9168 14.3763L58.0007 14.3638L58.084 14.3763L58.1679 14.3868L58.2399 14.3973L58.3231 14.4308L58.3951 14.4539L58.4664 14.4979L58.5383 14.5419L58.5983 14.5964L62.4207 18.1383L62.5286 18.2808L62.6126 18.4149L62.6359 18.4925L62.6599 18.5574L62.6718 18.6245V18.6916V18.7691L62.6599 18.8341L62.6359 18.9011L62.6126 18.9682L62.5286 19.1108L62.4207 19.2448L60.6287 20.9152L60.5695 20.9697L60.5335 21.0368L60.4975 21.1038L60.4855 21.1813L60.4735 21.2463L60.4855 21.3239L60.4975 21.4014L60.5335 21.4685L60.7846 21.9443L61.0231 22.4304L61.2263 22.9293L61.4055 23.4259L61.4415 23.4931L61.4774 23.5601L61.5367 23.6146L61.5967 23.6586L61.6566 23.7026L61.7399 23.7361L61.8118 23.7466L61.8958 23.7592H64.5238L64.6077 23.7697L64.691 23.7928L64.7749 23.8137L64.8462 23.8472L64.9182 23.8912L64.9781 23.9352L65.0374 23.9792L65.0974 24.0463L65.1453 24.1008L65.1806 24.1679L65.2173 24.2349L65.2526 24.3125L65.2646 24.3774L65.2885 24.455V24.5451V26.0266L65.3005 26.1273L65.3245 26.2154L65.3718 26.2928L65.4318 26.3583L65.5157 26.4147L65.599 26.4583L65.6949 26.4921H65.8981L65.9934 26.4583L66.0766 26.4147L66.1606 26.3583L66.2205 26.2928L66.2685 26.2154L66.2918 26.1273L66.3038 26.0266V24.5451L66.2918 24.367L66.2685 24.1909L66.2205 24.0232L66.1606 23.8682L66.0766 23.7152L65.9814 23.5706L65.8741 23.4385L65.7542 23.317L65.623 23.2059L65.4797 23.1053L65.3245 23.0173L65.1686 22.9502L64.9901 22.8958L64.8102 22.8517L64.6317 22.8182H62.2895L62.1463 22.4409L61.979 22.0658L61.8118 21.7011L61.6206 21.3344L63.1742 19.9071L63.3054 19.7541L63.4126 19.6095L63.5086 19.4545L63.5798 19.2993L63.6398 19.1443L63.6878 18.9996L63.7118 18.8467L63.7237 18.6916L63.7118 18.5365L63.6878 18.3919L63.6398 18.2368L63.5798 18.0817L63.5086 17.9266L63.4126 17.7841L63.3054 17.629L63.1742 17.4739L59.3384 13.932L59.1951 13.8105L59.0399 13.712L58.8847 13.6239L58.7175 13.5569L58.5503 13.5024L58.3711 13.4563L58.1912 13.4353L58.0127 13.4249L57.8335 13.4353L57.6663 13.4563L57.4871 13.5024L57.3199 13.5569L57.152 13.6239L56.9848 13.712L56.8416 13.8105L56.6984 13.932L55.1569 15.3614L54.7625 15.1937L54.3688 15.0281L53.9624 14.8856L53.5561 14.7515V12.7374L53.5441 12.5614L53.5201 12.3832L53.4728 12.2177L53.4129 12.0626L53.3289 11.9075L53.2337 11.765L53.1264 11.6308L53.0065 11.5093L52.8753 11.3982L52.7313 11.2997L52.5768 11.2117L52.4209 11.1446L52.2417 11.0775L52.0625 11.0461L51.884 11.0126L51.6921 11H46.2682Z" fill="#005A35"/>
<path fill-rule="evenodd" clip-rule="evenodd" d="M65.728 27.9026L65.644 27.9258L65.5601 27.9463L65.4881 27.9899L65.4041 28.0343L65.3562 28.0906L65.3082 28.1448L65.2962 28.2117L65.2842 28.2758V30.1398L65.2722 30.2377L65.2362 30.325L65.1883 30.4151L65.1276 30.4919L65.0443 30.5468L64.9604 30.5905L64.8517 30.6236L64.7438 30.6341H61.792L61.72 30.6574L61.6361 30.6778L61.5761 30.7236L61.5161 30.7679L61.4682 30.8221L61.4202 30.889L61.3842 30.9658L61.2043 31.4601L61.0004 31.9467L60.7605 32.4305L60.508 32.9044L60.472 32.9819L60.46 33.0488L60.448 33.1234L60.46 33.1903L60.472 33.2678L60.508 33.3347L60.544 33.3988L60.6039 33.4551L62.4036 35.1184L62.5243 35.2501L62.5963 35.3937L62.6202 35.4606L62.6442 35.5254L62.6562 35.6029V35.6698V35.736L62.6442 35.8008L62.6202 35.8782L62.5963 35.9451L62.5243 36.0888L62.4036 36.2204L58.5643 39.7449L58.5043 39.8012L58.4324 39.8449L58.3604 39.8893L58.2885 39.9224L58.2045 39.9456L58.1318 39.966L58.0486 39.9766H57.88L57.808 39.966L57.7241 39.9456L57.6521 39.9224L57.5681 39.8893L57.4962 39.8449L57.4362 39.8012L57.3643 39.7449L55.5525 38.0816L55.4926 38.038L55.4199 37.9943L55.3486 37.9711L55.2767 37.9506H55.1081L55.0361 37.9711L54.9641 38.0049L54.4484 38.2365L53.92 38.445L53.3803 38.645L52.8406 38.8097L52.7566 38.8435L52.696 38.8745L52.6247 38.9309L52.5767 38.9851L52.5407 39.0414L52.5048 39.1062L52.4808 39.1837V39.2611V41.6082L52.4688 41.6856L52.4568 41.7631L52.4448 41.8399L52.4088 41.9046L52.3721 41.9821L52.3361 42.0384L52.2882 42.1032L52.2282 42.1596L52.1689 42.2138L52.109 42.2574L52.0363 42.2905L51.9524 42.3243L51.8804 42.3574L51.7964 42.368L51.7125 42.3786L51.6285 42.3912H49.8048L49.7209 42.4117L49.6482 42.4349L49.5882 42.4786L49.5282 42.5222L49.481 42.5764L49.433 42.6328L49.409 42.6976L49.385 42.775L49.373 42.8419V42.9292L49.385 43.0067L49.409 43.0835L49.445 43.1715L49.5043 43.2609L49.5762 43.3384L49.6362 43.3694L49.6602 43.382L49.6969 43.3926H52.8646L52.9725 43.382L53.0804 43.3489L53.1764 43.2926L53.2604 43.2384L53.3323 43.1609L53.3923 43.063L53.4163 42.9729L53.4283 42.8645V39.6238L53.836 39.4822L54.2445 39.3379L54.6403 39.1837L55.0361 39.0083L56.596 40.4399L56.7406 40.5505L56.8965 40.6611L57.0524 40.7385L57.2203 40.8153L57.3882 40.8695L57.5681 40.9033L57.748 40.9364H58.1079L58.2885 40.9033L58.4564 40.8695L58.6363 40.8153L58.8042 40.7385L58.9601 40.6611L59.1047 40.5505L59.2479 40.4399L63.112 36.9028L63.2439 36.7486L63.3518 36.5958L63.4485 36.4416L63.5317 36.2873L63.5917 36.143L63.6277 35.9888L63.6517 35.8346L63.6644 35.6796L63.6517 35.5254L63.6277 35.3839L63.5917 35.2289L63.5317 35.0747L63.4485 34.9205L63.3518 34.7656L63.2439 34.6219L63.112 34.4698L61.5521 33.0361L61.744 32.6833L61.9119 32.3101L62.0798 31.9467L62.2244 31.5714H64.432L64.6239 31.5608L64.8038 31.5376L64.9844 31.4939L65.1636 31.4397L65.3202 31.3623L65.4761 31.2749L65.62 31.1749L65.752 31.0637L65.8719 30.9433L65.9798 30.8116L66.0758 30.6672L66.1604 30.513L66.2197 30.3588L66.2677 30.194L66.2917 30.0292L66.3037 29.8518V28.3659V28.299L66.2797 28.2321L66.2557 28.1779L66.2197 28.111L66.1837 28.0674L66.1364 28.0131L66.0758 27.98L66.0158 27.9463L65.9439 27.9258L65.8719 27.9026H65.728Z" fill="#005A35"/>
<path fill-rule="evenodd" clip-rule="evenodd" d="M35.704 16.6356L35.6116 16.6463L35.5178 16.6697L35.4367 16.7144L35.3555 16.7698L34.7269 17.3873L34.6331 17.513L34.5407 17.6471L34.4708 17.7813L34.4123 17.9176L34.3657 18.0624L34.3304 18.2093L34.3072 18.3669L34.2959 18.5117L34.3072 18.6693L34.3304 18.8162L34.3657 18.9632L34.4123 19.108L34.4708 19.2549L34.5407 19.3891L34.6331 19.5253L34.7382 19.6488L36.3446 21.2097L36.1584 21.5825L35.9954 21.9529L35.8444 22.3341L35.6928 22.7175H33.3646L33.1903 22.7515L33.0154 22.7962L32.8411 22.8516L32.6894 22.9197L32.5385 23.0092L32.3988 23.1114L32.2704 23.2243L32.154 23.3478L32.0495 23.4819L31.9564 23.6288L31.8746 23.7843L31.8167 23.9419L31.7702 24.1123L31.7469 24.2911L31.7356 24.4722V29.5744L31.7469 29.7553L31.7702 29.9236L31.8167 30.0919L31.8746 30.2497L31.9564 30.4067L32.0495 30.5539L32.154 30.6884L32.2704 30.8116L32.3988 30.9243L32.5385 31.0264L32.6894 31.1158L32.8411 31.1947L33.0154 31.2503L33.1903 31.2947L33.3646 31.3186L33.5508 31.3292H35.6695L35.8092 31.7123L35.9721 32.0827L36.1351 32.4643L36.3094 32.8242L34.8081 34.2868L34.6916 34.4213L34.5752 34.5551L34.4941 34.7128L34.4123 34.86L34.3537 35.0283L34.3191 35.1853L34.2959 35.3536L34.2839 35.5219L34.2959 35.6923L34.3191 35.8606L34.3537 36.0289L34.4123 36.1867L34.4941 36.3437L34.5752 36.4888L34.6916 36.6359L34.8081 36.7697L38.5444 40.3794L38.6728 40.4921L38.8238 40.6054L38.9755 40.6836L39.1384 40.7625L39.3007 40.8181L39.4757 40.8519L39.6499 40.8864H39.9998L40.1621 40.8519L40.3371 40.8181L40.5 40.7625L40.663 40.6836L40.814 40.6054L40.9657 40.4921L41.1054 40.3794L42.6067 38.9189L42.9792 39.0978L43.375 39.2548L43.7587 39.402L44.1552 39.5471V42.8856L44.1665 42.9877L44.2018 43.0771L44.2484 43.1666L44.3062 43.2349L44.3874 43.3032L44.4692 43.3475L44.5743 43.3821L44.6787 43.3926H47.4725L47.5424 43.3821L47.6235 43.3694L47.682 43.337L47.7519 43.3032L47.8097 43.2581L47.8563 43.2011L47.9029 43.1454L47.9261 43.0884L47.9501 43.0117L47.9614 42.9433V42.8645L47.9501 42.7856L47.9261 42.7067L47.8796 42.6279L47.8217 42.549L47.7519 42.4708L47.7053 42.4363L47.6468 42.4258H45.3306L45.296 42.4152L45.2488 42.392L45.2142 42.3575L45.1909 42.3237L45.1676 42.292L45.1556 42.2448L45.1444 42.2004V39.1999V39.121L45.1211 39.0421L45.0865 38.9738L45.0512 38.9189L45.0047 38.8612L44.9348 38.8055L44.8763 38.7717L44.7951 38.7372L44.2717 38.5696L43.7475 38.3668L43.2353 38.1542L42.7351 37.9176L42.6652 37.8838L42.5954 37.8605H42.4324L42.3626 37.8838L42.2927 37.907L42.2229 37.9521L42.1643 37.9964L40.4069 39.6935L40.3371 39.7491L40.2792 39.8069L40.2087 39.8407L40.1275 39.8745L40.0577 39.8963L39.9766 39.9196L39.906 39.9301H39.7437L39.6619 39.9196L39.5921 39.8963L39.5109 39.8745L39.4411 39.8407L39.3705 39.8069L39.3007 39.7491L39.2428 39.6935L35.5178 36.0846L35.4599 36.0289L35.4134 35.9606L35.3668 35.8944L35.3322 35.8268L35.309 35.748L35.2857 35.6797L35.2737 35.6008V35.5219V35.443L35.2857 35.3776L35.309 35.2987L35.3322 35.2304L35.3668 35.1515L35.4134 35.0832L35.4599 35.017L35.5178 34.96L37.2639 33.2629L37.3225 33.2073L37.3577 33.139L37.3923 33.0713L37.4036 32.9925L37.4156 32.9263L37.4036 32.8474L37.3923 32.7685L37.3577 32.7002L37.1129 32.2172L36.8801 31.7228L36.6819 31.2165L36.5076 30.7116L36.473 30.6327L36.4378 30.5644L36.3792 30.5095L36.3214 30.4644L36.2628 30.418L36.1817 30.3961L36.1118 30.3729H33.5508L33.469 30.3623L33.3879 30.3518L33.3067 30.3285L33.2249 30.3067L33.1551 30.2729L33.0852 30.2391L33.0274 30.1835L32.9688 30.1363L32.911 30.0814L32.8644 30.0131L32.8291 29.9574L32.7946 29.8786L32.7593 29.811L32.748 29.7321L32.7247 29.6532V29.5744V24.4722V24.3806L32.748 24.3018L32.7593 24.2358L32.7946 24.157L32.8291 24.0888L32.8644 24.0207L32.911 23.9653L32.9688 23.8972L33.0274 23.8525L33.0852 23.8078L33.1551 23.763L33.2249 23.729L33.3067 23.7076L33.3879 23.6843L33.469 23.6736H36.0533L36.1351 23.6608L36.2169 23.6502L36.2861 23.6161L36.3446 23.5714L36.4025 23.5267L36.461 23.4713L36.4963 23.4031L36.5309 23.335L36.7051 22.8175L36.9147 22.3235L37.1362 21.8294L37.3803 21.3354L37.4156 21.2673L37.4389 21.1991V21.1203V21.0416L37.4156 20.9755L37.3923 20.9074L37.3457 20.8393L37.2992 20.7838L35.5411 19.0739L35.4479 18.9738L35.3668 18.8503L35.309 18.714L35.297 18.648L35.2857 18.5799L35.2737 18.5117V18.4329L35.2857 18.3669L35.309 18.2881L35.3435 18.22L35.3788 18.1412L35.4247 18.073L35.4945 17.9964L35.7739 17.7259L36.0533 17.4449L36.1231 17.3767L36.1704 17.2873L36.1937 17.1978L36.2049 17.1062L36.1937 17.0168L36.1704 16.9274L36.1231 16.8486L36.0533 16.7698L35.9721 16.7144L35.891 16.6697L35.7972 16.6463L35.704 16.6356Z" fill="#005A35"/>
<path fill-rule="evenodd" clip-rule="evenodd" d="M49.0139 18.972L49.4902 18.9824L49.9544 19.0155L50.4179 19.0694L50.8701 19.1357L51.3096 19.2331L51.7499 19.3429L52.1774 19.4755L52.5922 19.6163L52.9958 19.7799L53.3986 19.9664L53.7775 20.1632L54.1563 20.3828L54.5105 20.6127L54.852 20.8531L55.1941 21.1161L55.5116 21.3896L55.8171 21.6734L56.0979 21.9676L56.3794 22.2742L56.6355 22.6035L56.8676 22.9308L57.0997 23.281L57.2951 23.6311L57.4778 24.0019L57.6493 24.3748L57.796 24.7581L57.9181 25.1392L58.0154 25.5452L58.1008 25.9492L58.1622 26.3534L58.1869 26.7696L58.1989 27.1963L58.1869 27.623L58.1622 28.0392L58.1008 28.4434L58.0154 28.8476L57.9181 29.2532L57.796 29.6349L57.6493 30.018L57.4778 30.4011L57.2951 30.7616L57.0997 31.1116L56.8676 31.4616L56.6355 31.789L56.3794 32.1186L56.0979 32.4249L55.8171 32.7192L55.5116 33.0157L55.1941 33.2889L54.852 33.5396L54.5105 33.7924L54.1563 34.01L53.7775 34.2297L53.3986 34.4262L52.9958 34.6128L52.5922 34.7762L52.1774 34.917L51.7499 35.0501L51.3096 35.1593L50.8701 35.2571L50.4179 35.3233L49.9544 35.3768L49.4902 35.4099L49.0139 35.4205L48.549 35.4099L48.0855 35.3768L47.6213 35.3233L47.1691 35.2571L46.7295 35.1593L46.29 35.0501L45.8625 34.917L45.4469 34.7762L45.0441 34.6128L44.6412 34.4262L44.2624 34.2297L43.8835 34.01L43.5294 33.7924L43.1752 33.5396L42.8457 33.2889L42.5276 33.0157L42.2228 32.7192L41.9293 32.4249L41.6605 32.1186L41.4037 31.789L41.1603 31.4616L40.9402 31.1116L40.7448 30.7616L40.5493 30.4011L40.3906 30.018L40.2439 29.6349L40.1218 29.2532L40.0237 28.8476L39.9384 28.4434L39.877 28.0392L39.8403 27.623L39.8283 27.1963L39.8403 26.7696L39.877 26.3534L39.9384 25.9492L40.0237 25.5452L40.1218 25.1392L40.2439 24.7581L40.3906 24.3748L40.5493 24.0019L40.7448 23.6311L40.9402 23.281L41.1603 22.9308L41.4037 22.6035L41.6605 22.2742L41.9293 21.9676L42.2228 21.6734L42.5276 21.3896L42.8457 21.1161L43.1752 20.8531L43.5294 20.6127L43.8835 20.3828L44.2624 20.1632L44.6412 19.9664L45.0441 19.7799L45.4469 19.6163L45.8625 19.4755L46.29 19.3429L46.7295 19.2331L47.1691 19.1357L47.6213 19.0694L48.0855 19.0155L48.549 18.9824L49.0139 18.972ZM49.0139 18.0419L48.4883 18.0522L47.9754 18.0854L47.4625 18.1517L46.9616 18.2283L46.4607 18.3257L45.9845 18.4583L45.5083 18.5992L45.0441 18.7628L44.5926 18.9492L44.1523 19.146L43.7248 19.3656L43.31 19.6059L42.9064 19.8566L42.5156 20.1301L42.1494 20.4263L41.7952 20.7225L41.4531 21.0395L41.1349 21.3772L40.8301 21.7169L40.5373 22.0774L40.2805 22.4502L40.0237 22.8314L39.8036 23.2271L39.5969 23.6311L39.4135 24.0454L39.254 24.4722L39.12 24.9113L38.9979 25.3588L38.9126 25.8083L38.8392 26.2661L38.8025 26.7259L38.7905 27.1963L38.8025 27.6667L38.8392 28.1371L38.9126 28.5864L38.9979 29.0441L39.12 29.4814L39.254 29.9208L39.4135 30.3475L39.5969 30.7616L39.8036 31.1658L40.0237 31.5609L40.2805 31.9425L40.5373 32.315L40.8301 32.6756L41.1349 33.0157L41.4531 33.353L41.7952 33.6699L42.1494 33.9769L42.5156 34.2628L42.9064 34.536L43.31 34.7867L43.7248 35.0269L44.1523 35.2466L44.5926 35.4536L45.0441 35.6296L45.5083 35.7937L45.9845 35.9465L46.4607 36.0669L46.9616 36.1641L47.4625 36.2514L47.9754 36.3071L48.4883 36.3402L49.0139 36.3507L49.5388 36.3402L50.0637 36.3071L50.5773 36.2514L51.0782 36.1641L51.5664 36.0669L52.0554 35.9465L52.5316 35.7937L52.9958 35.6296L53.4473 35.4536L53.8875 35.2466L54.3144 35.0269L54.7299 34.7867L55.1335 34.536L55.5243 34.2628L55.8905 33.9769L56.2446 33.6699L56.5861 33.353L56.9043 33.0157L57.209 32.6756L57.4905 32.315L57.7593 31.9425L58.0034 31.5609L58.2355 31.1658L58.443 30.7616L58.6264 30.3475L58.7851 29.9208L58.9199 29.4814L59.0412 29.0441L59.1273 28.5864L59.1887 28.1371L59.2247 27.6667L59.2494 27.1963L59.2247 26.7259L59.1887 26.2661L59.1273 25.8083L59.0412 25.3588L58.9199 24.9113L58.7851 24.4722L58.6264 24.0454L58.443 23.6311L58.2355 23.2271L58.0034 22.8314L57.7593 22.4502L57.4905 22.0774L57.209 21.7169L56.9043 21.3772L56.5861 21.0395L56.2446 20.7225L55.8905 20.4263L55.5243 20.1301L55.1335 19.8566L54.7299 19.6059L54.3144 19.3656L53.8875 19.146L53.4473 18.9492L52.9958 18.7628L52.5316 18.5992L52.0554 18.4583L51.5664 18.3257L51.0782 18.2283L50.5773 18.1517L50.0637 18.0854L49.5388 18.0522L49.0139 18.0419Z" fill="#005A35"/>
<path fill-rule="evenodd" clip-rule="evenodd" d="M49.5552 22.2985L53.609 28.3603H49.05L48.9414 28.373L48.8447 28.3941L48.7608 28.4378L48.6888 28.4941L48.6289 28.5589L48.5802 28.6491L48.5442 28.7371L48.5322 28.8244V32.0939L44.4904 26.0429H49.05L49.146 26.0302L49.2426 25.9985L49.3386 25.9527L49.4106 25.8985L49.4705 25.8316L49.5192 25.7541L49.5552 25.6662V25.5679V22.2985ZM49.086 20.1566L48.9894 20.167L48.8934 20.1775L48.7968 20.2214L48.7368 20.2549L48.6888 20.2988L48.6409 20.3427L48.6049 20.3992L48.5802 20.4536L48.5562 20.5205L48.5442 20.5749L48.5322 20.6418V25.1035H43.4801L43.3955 25.114L43.3235 25.137L43.2515 25.1579L43.1916 25.1914L43.1436 25.2249L43.1076 25.2687L43.0709 25.3127L43.0469 25.3566L43.0229 25.4131V25.4675V25.5344L43.0349 25.5993L43.0589 25.6662L43.0949 25.7436L43.1316 25.8105L48.6169 34.0037L48.6768 34.0706L48.7368 34.1255L48.8088 34.1692L48.8814 34.203L48.9534 34.2255L49.0261 34.2361L49.11 34.2255L49.182 34.215L49.2666 34.1924L49.3386 34.1481L49.3986 34.1044L49.4585 34.0481L49.4945 33.9833L49.5312 33.9164L49.5552 33.8389V33.7615V29.2997H54.5233L54.6792 29.2554L54.7999 29.2117L54.8598 29.1779L54.8958 29.1448L54.9318 29.1011L54.9678 29.0568L54.9918 29.0131L55.0045 28.9568L55.0165 28.9019V28.8476L55.0045 28.7265L54.9558 28.5822L49.4825 20.3887L49.4226 20.3113L49.3506 20.2549L49.2666 20.2109L49.182 20.1775L49.086 20.1566Z" fill="#005A35"/>
<rect x="1" y="0.5" width="69" height="69" rx="9.5" stroke="#005A35"/>
</svg>
