<svg width="70" height="70" viewBox="0 0 70 70" fill="none" xmlns="http://www.w3.org/2000/svg">
<path fill-rule="evenodd" clip-rule="evenodd" d="M29.995 15.6842L22.1296 23.5666V25.8158H32.2565V15.6842H29.995Z" fill="#D8ECFE"/>
<path fill-rule="evenodd" clip-rule="evenodd" d="M30.0442 15.6871L22.1296 23.157V60.5527H58.3006V15.6871H30.0442Z" fill="#E6FFE6"/>
<path fill-rule="evenodd" clip-rule="evenodd" d="M29.995 15.6842L22.1296 23.5666V25.8158H32.2565V15.6842H29.995Z" fill="#E6FFE6"/>
<path fill-rule="evenodd" clip-rule="evenodd" d="M55.407 15.6871V60.5527H58.3008V15.6871H55.407Z" fill="#E6FFE6"/>
<path fill-rule="evenodd" clip-rule="evenodd" d="M36.1105 43.1871V45.3133H31.3154L28.7573 49.7394H36.1105V51.8684L40.3311 47.5365L36.1105 43.1871Z" fill="#6BB36B"/>
<path fill-rule="evenodd" clip-rule="evenodd" d="M30.0588 38.8421L26.469 44.9254L28.9909 48.9737L33.7035 41.0204L30.0588 38.8421Z" fill="#99FF99"/>
<path fill-rule="evenodd" clip-rule="evenodd" d="M46.0876 35.9503L44.3961 41.6167L46.2626 40.5818L48.7498 44.6547H43.8333V48.9708H51.3542L53.9601 44.6547L50.1895 38.4311L52.0937 37.3759L46.0876 35.9503Z" fill="#6BB36B"/>
<path fill-rule="evenodd" clip-rule="evenodd" d="M43.8333 44.6316V48.9708H51.3542L53.9601 44.6316H43.8333Z" fill="#99FF99"/>
<path fill-rule="evenodd" clip-rule="evenodd" d="M37.8949 25.8201L34.1171 32.4491L32.2578 31.336L33.9406 37.3947L39.951 35.846L38.0526 34.7316L40.5196 30.4039L42.8087 34.4537L46.724 32.1524L43.1226 25.8201H37.8949Z" fill="#6BB36B"/>
<path fill-rule="evenodd" clip-rule="evenodd" d="M38.0442 25.8201L42.8754 34.4956L46.7242 32.1828L43.1836 25.8201H38.0442Z" fill="#99FF99"/>
<path fill-rule="evenodd" clip-rule="evenodd" d="M13.4468 7V51.8655H17.9958V11.3045H49.6178V7H13.4468Z" fill="#E6FFE6"/>
<path fill-rule="evenodd" clip-rule="evenodd" d="M17.7876 11.345V56.2076H22.2368V23.1048L30.1716 15.635H53.9586V11.345H17.7876Z" fill="#E6FFE6"/>
<path fill-rule="evenodd" clip-rule="evenodd" d="M29.3627 15.6871L22.1282 22.9211H29.3627V15.6871Z" fill="#E6FFE6"/>
<path fill-rule="evenodd" clip-rule="evenodd" d="M29.9559 39.3487L32.3563 40.8076L28.5351 47.3309L26.8842 44.6402L29.9559 39.3487ZM36.6956 44.3927L38.9788 46.7273L36.6956 49.0764V48.9447L36.6754 48.7754L36.6174 48.6205L36.5408 48.4917L36.4453 48.3759L36.3295 48.2789L36.1964 48.2037L36.0416 48.1501L35.8694 48.1284H29.8604L31.4925 45.3408H35.8694L36.0416 45.3234L36.1964 45.2829L36.3295 45.2076L36.4453 45.0933L36.5408 44.9818L36.6174 44.8487L36.6754 44.6981L36.6956 44.5259V44.3927ZM29.5537 37.3947L29.4003 37.4338L29.2643 37.47L29.1313 37.5452L29.0155 37.661L28.9012 37.8115L25.1378 44.2422L25.0799 44.3348L25.0611 44.4506L25.0422 44.5433L25.0234 44.6591L25.0422 44.7517L25.0611 44.8675L25.1002 44.9644L25.1566 45.0759L27.7871 49.3616L27.8449 49.4585L27.9216 49.5338L27.9983 49.5902L28.0938 49.6481L28.1907 49.6843L28.2862 49.7234L28.3818 49.7422L28.4974 49.7596H35.0433V51.0492L35.0621 51.1823L35.0823 51.2967L35.1387 51.4125L35.1966 51.5051L35.2747 51.5992L35.3514 51.6962L35.4469 51.7541L35.5612 51.8076L35.677 51.8467L35.7927 51.8655H35.907L36.0228 51.8467L36.1371 51.8293L36.2529 51.7714L36.3498 51.7135L36.4641 51.6209L40.7078 47.2947L40.8033 47.1804L40.88 47.0298L40.9177 46.8779L40.9365 46.7273L40.9177 46.5739L40.88 46.4408L40.8033 46.2888L40.7078 46.1744L36.4641 41.8526L36.3498 41.7383L36.2153 41.663L36.0604 41.6225L35.9273 41.6051H35.774L35.6191 41.6442L35.4658 41.6978L35.3312 41.7947L35.2169 41.9279L35.1199 42.0798L35.0621 42.2521L35.0433 42.4388V43.7284H32.4909L34.1404 40.9046L34.1982 40.7714L34.2373 40.6209V40.4487L34.2185 40.2967L34.1606 40.165L34.0839 40.0318L33.9885 39.916L33.8539 39.8234L30.0326 37.509L29.8793 37.4526L29.707 37.4121L29.5537 37.3947Z" fill="#005A35"/>
<path fill-rule="evenodd" clip-rule="evenodd" d="M47.3651 37.7146L50.5164 38.4658L50.3834 38.5381L50.2502 38.6149L50.0969 38.722L50.0389 38.7958L50.0013 38.8899L49.9623 38.9796L49.9435 39.0737V39.1996L49.9623 39.3096L50.0201 39.4558L50.0969 39.6063L53.0963 44.578H49.8682L47.6906 40.9451L47.5749 40.7989L47.4418 40.7049L47.2899 40.631L47.1365 40.5963L46.9643 40.576L46.8124 40.5963L46.6402 40.6528L46.4869 40.7049L47.3651 37.7146ZM53.2106 46.1397L51.5857 48.8391H45.4754V46.1397H53.2106ZM46.7545 35.9503L46.6011 35.9893L46.4681 36.0414L46.3349 36.1355L46.2192 36.2426L46.1425 36.3714L46.086 36.5205L44.425 42.1204L44.3859 42.284V42.4128V42.5401L44.425 42.6689L44.4626 42.7804L44.5205 42.8716L44.5958 42.9439L44.6724 43.0206L44.7679 43.0728L44.8634 43.1118L44.9777 43.1495H45.2266L45.3409 43.1292L45.4754 43.0728L45.6274 43.0206L46.7545 42.3954L48.0524 44.578H44.6536L44.5002 44.5997L44.3469 44.6345L44.1949 44.7068L44.0806 44.8009L43.9852 44.9297L43.9084 45.0585L43.8506 45.2047L43.8318 45.3509V49.6279L43.8506 49.7958L43.9084 49.9405L43.9852 50.0693L44.0806 50.1808L44.1949 50.272L44.3281 50.3443L44.4814 50.4008L44.6536 50.4182H52.0256L52.1413 50.4008L52.2556 50.3834L52.3511 50.3443L52.4452 50.3096L52.5218 50.2546L52.6188 50.1808L52.6752 50.1084L52.7331 50.0143L55.3115 45.7547L55.3491 45.6635L55.3867 45.5695L55.4055 45.4624V45.3509V45.2597L55.3867 45.1497L55.3491 45.0585L55.3115 44.9645L52.0068 39.4775L53.1527 38.8334L53.2858 38.7393L53.3813 38.6496L53.4768 38.5381L53.5347 38.4311L53.5925 38.337L53.6113 38.2284L53.6301 38.117V38.0055L53.5925 37.8984L53.5535 37.8043L53.4956 37.7146L53.4204 37.6205L53.3248 37.5467L53.2294 37.4917L53.0963 37.4396L52.9429 37.4005L47.0598 35.9676L46.9079 35.9503H46.7545Z" fill="#005A35"/>
<path fill-rule="evenodd" clip-rule="evenodd" d="M41.8523 27.3095L44.7722 31.8122L42.3356 33.0946L38.6025 27.3095H41.8523ZM37.1715 28.0187L38.7965 30.5487L36.6116 33.9456L36.5537 34.031L36.5335 34.1164L36.4959 34.2742L36.5147 34.4117L36.5725 34.5695L36.6493 34.691L36.765 34.8285L36.8822 34.9327L37.0167 35.0181L33.8452 35.7476L32.938 32.905L33.0726 32.9571L33.2071 33.0106L33.3822 33.0266H33.5746L33.6918 33.0106L33.7873 32.9904L33.8842 32.9383L33.9812 32.8688L34.0781 32.7993L34.1548 32.6792L37.1715 28.0187ZM37.1715 25.8187L37.0558 25.836L36.9589 25.8519L36.8634 25.8881L36.765 25.9214L36.6695 25.9735L36.5913 26.0416L36.5147 26.111L36.4568 26.1993L33.1492 31.3259L32.009 30.7383L31.7182 30.6862H31.4679L31.3507 30.7021L31.2538 30.7223L31.1771 30.7556L31.0802 30.8078L31.0222 30.8599L30.9644 30.9293L30.9065 31.0147L30.8674 31.103L30.8284 31.2043L30.8096 31.3259V31.5893L32.4735 36.8563L32.569 37.0112L32.6862 37.1327L32.802 37.237L32.9177 37.3064L33.0334 37.3585L33.1694 37.3918H33.3228L33.4588 37.3744L39.3969 36.0226L39.6472 35.8851L39.7441 35.8156L39.8223 35.7476L39.899 35.6579L39.9569 35.5899L39.9959 35.5045L40.0147 35.4162V35.3308L39.9959 35.2454L39.9757 35.1571L39.9381 35.0717L39.8801 34.966L39.8021 34.8806L39.6081 34.6708L38.4492 34.0831L39.7645 32.038L41.3111 34.4638L41.4269 34.5854L41.5427 34.691L41.6772 34.7591L41.8132 34.8112L41.968 34.8285H42.1228L42.2777 34.7923L42.4325 34.7402L46.3 32.7313L46.4346 32.6459L46.5504 32.5402L46.6285 32.4187L46.6864 32.2812L46.7254 32.1437L46.7066 32.0018L46.6864 31.8643L46.6082 31.7268L43.0504 26.1993L42.9924 26.111L42.9158 26.0416L42.8391 25.9735L42.7421 25.9214L42.6452 25.8881L42.5482 25.8519L42.4513 25.836L42.3356 25.8187H37.1715Z" fill="#005A35"/>
<path fill-rule="evenodd" clip-rule="evenodd" d="M28.7116 18.2779V23.0079H23.7531L28.7116 18.2779ZM47.653 8.51539V11.3146H17.1553L16.9976 11.3725L16.8601 11.4478L16.7212 11.5404L16.6228 11.6547L16.5433 11.7879L16.5042 11.9384L16.4839 12.1107V16.9521L16.5042 17.1229L16.5635 17.2922L16.6619 17.4457L16.8008 17.5571L16.9383 17.6541L17.1162 17.7293L17.3144 17.7467L17.5113 17.7293L17.6502 17.6903L17.7688 17.615L17.886 17.5397L17.9858 17.4239L18.0639 17.314L18.1233 17.1982L18.1435 17.0664L18.1638 16.9159V12.9241H52.1369V15.496H29.6001L29.4423 15.5149L29.2846 15.554L29.1255 15.6292L29.0069 15.7218L21.2052 23.1193L21.1054 23.2337L21.0272 23.3842L20.9881 23.5376L20.9679 23.6882V56.0759H18.1638V20.4128L18.1435 20.2275L18.0842 20.0553L17.9858 19.9047L17.8469 19.7889L17.7094 19.6963L17.5301 19.6384L17.3332 19.5993L17.1365 19.6211L16.9976 19.6572L16.879 19.7325L16.7603 19.8078L16.6619 19.9221L16.5823 20.0365L16.523 20.1522L16.5042 20.3028L16.4839 20.4345V51.783H13.6799V8.51539H47.653ZM12.8305 7L12.6728 7.02171L12.5136 7.07527L12.3762 7.15053L12.2373 7.24751L12.1389 7.36184L12.0593 7.49499L12.0202 7.64553L12 7.81342V52.5965L12.0202 52.7658L12.0593 52.9192L12.1389 53.0524L12.2373 53.1624L12.3762 53.2593L12.5136 53.3346L12.6728 53.3925H16.4839V56.8893L16.5042 57.0616L16.5433 57.2121L16.6228 57.3453L16.7212 57.4596L16.8601 57.5522L16.9976 57.6275L17.1553 57.6854L17.3144 57.7028H20.9679V61.1866L20.9881 61.3545L21.0272 61.5093L21.1054 61.641L21.2052 61.7525L21.3426 61.8495L21.4815 61.9247L21.6392 61.9826L21.7969 62H28.9287L29.1255 61.9609L29.2846 61.903L29.4423 61.8104L29.5798 61.696L29.6796 61.5455L29.739 61.3762L29.7578 61.2039L29.739 61.0143L29.6984 60.8638L29.6391 60.7495L29.5407 60.638L29.4423 60.5628L29.3237 60.4875L29.1848 60.4311L29.0459 60.3905L28.9084 60.3732H22.6477V24.6159H29.6594L29.8373 24.5957L29.9951 24.5595L30.134 24.4842L30.2526 24.3872L30.351 24.2729L30.4291 24.1224L30.4885 23.9892V23.8213V17.1055H56.6208V24.9922L56.6412 25.1645L56.7004 25.3338L56.7988 25.4843L56.9377 25.6161L57.0752 25.713L57.2532 25.7709L57.4514 25.7883L57.6482 25.7709L57.7871 25.7304L57.9057 25.6739L58.0244 25.5813L58.1228 25.4843L58.2023 25.3729L58.2617 25.2397L58.2805 25.108L58.3007 24.9575V16.2921L58.2805 16.1387L58.2414 15.9882L58.1618 15.855L58.0634 15.7218L57.9245 15.6292L57.7871 15.554L57.6279 15.5149L57.4702 15.496H53.8168V12.1107L53.7965 11.9384L53.7574 11.7879L53.6794 11.6547L53.5795 11.5404L53.4406 11.4478L53.3032 11.3725L53.1454 11.3146H49.3328V7.81342L49.3126 7.64553L49.2735 7.49499L49.1953 7.36184L49.0955 7.24751L48.9581 7.15053L48.8192 7.07527L48.6615 7.02171L48.5038 7H12.8305Z" fill="#005A35"/>
<path fill-rule="evenodd" clip-rule="evenodd" d="M57.4919 27.2661L57.301 27.2849L57.165 27.3428L57.0506 27.4007L56.9349 27.4933L56.8394 27.5874L56.7627 27.7032L56.7034 27.8363L56.6845 27.9695L56.6657 28.1026V60.363H33.1031L32.9685 60.3819L32.8339 60.4209L32.6994 60.4788L32.5836 60.5541L32.4881 60.6308L32.3912 60.7422L32.3347 60.8566L32.2754 61.0086L32.2566 61.1996L32.2956 61.3733L32.3536 61.5426L32.449 61.6932L32.5836 61.8089L32.7181 61.903L32.8918 61.9609L33.0842 62H57.4919L57.6467 61.9826L57.8001 61.9247L57.9347 61.848L58.0693 61.7511L58.1661 61.6396L58.2429 61.5064L58.2819 61.3516L58.3007 61.1822V28.0853L58.2819 27.8942L58.2241 27.7205L58.1271 27.5874L57.9925 27.4571L57.8579 27.3601L57.6843 27.3022L57.4919 27.2661Z" fill="#005A35"/>
<rect x="0.5" y="0.5" width="69" height="69" rx="9.5" stroke="#005A35"/>
</svg>
