<svg width="71" height="70" viewBox="0 0 71 70" fill="none" xmlns="http://www.w3.org/2000/svg">
<path fill-rule="evenodd" clip-rule="evenodd" d="M25.693 11.9297C24.8271 11.9297 24.1357 12.6212 24.1357 13.4777C24.1357 19.7875 29.3039 24.9042 35.6764 24.9042H36.4324C37.2974 24.9042 37.9961 24.2127 37.9961 23.3553C37.9897 17.0437 32.8215 11.9297 26.449 11.9297H25.693Z" fill="white"/>
<path fill-rule="evenodd" clip-rule="evenodd" d="M25.6876 11.9297C24.8346 11.9297 24.1387 12.6185 24.1387 13.462C24.1387 19.7689 29.3032 24.8857 35.6821 24.8857C35.8068 24.8949 35.9519 24.9014 36.1035 24.9014C36.4427 24.9014 36.8142 24.869 37.0656 24.754H37.0749C31.4261 23.9105 27.256 19.1127 27.256 13.462C27.2468 12.8548 27.6211 12.2968 28.1849 12.0512C27.6119 11.9696 27.0314 11.9297 26.4603 11.9297H25.6876Z" fill="#99FF99"/>
<path fill-rule="evenodd" clip-rule="evenodd" d="M49.5415 11.9297C43.1635 11.9297 37.999 17.0437 37.999 23.3553C37.999 24.2127 38.6977 24.9042 39.5554 24.9042H40.3197C46.6885 24.9042 51.8529 19.7875 51.8594 13.4777C51.8594 12.6212 51.1616 11.9297 50.2966 11.9297H49.5415Z" fill="white"/>
<path fill-rule="evenodd" clip-rule="evenodd" d="M49.5479 11.9297C43.168 11.9297 38.0017 17.0465 38.0017 23.3618C38.0017 23.5434 38.035 23.7149 38.0914 23.8799C38.1514 24.0375 38.2346 24.1858 38.3409 24.3249C38.6403 24.6873 39.083 24.9014 39.5553 24.9014H40.3205C40.9037 24.9014 41.4786 24.8616 42.0516 24.7791C41.8187 24.6715 41.6117 24.5158 41.4527 24.3249C41.3455 24.1858 41.2623 24.0375 41.2032 23.8799C41.1459 23.7149 41.1126 23.5435 41.1126 23.3646C41.1145 17.7037 45.291 12.9021 50.9379 12.0521C50.7383 11.9696 50.5294 11.9297 50.3131 11.9297H49.5479Z" fill="#99FF99"/>
<path fill-rule="evenodd" clip-rule="evenodd" d="M38.1839 29.5417C32.1728 29.5417 26.7846 33.5238 25.0601 39.4424L25.1275 39.7372C25.9954 39.4424 26.8946 39.2978 27.7865 39.2978C29.5776 39.2978 31.3447 39.8799 32.8077 40.9978C33.8558 41.7848 35.1247 42.2149 36.4362 42.2149C36.45 42.2149 36.4621 42.2149 36.4741 42.2149H44.4334C46.0785 42.2149 47.4787 43.4922 47.5794 45.1496C47.6062 45.5111 47.5628 45.8763 47.4546 46.2212L51.8594 42.5097V42.493C51.4574 35.8078 46.3465 30.3722 39.731 29.6279C39.2125 29.5704 38.6977 29.5417 38.1839 29.5417Z" fill="#99FF99"/>
<path fill-rule="evenodd" clip-rule="evenodd" d="M35.8502 29.5389C30.7079 30.4548 26.5296 34.2682 25.0601 39.372L25.1368 39.6621C26.0018 39.3646 26.8965 39.2181 27.7883 39.2181C29.5767 39.2181 31.3438 39.8067 32.8059 40.9376C33.853 41.7338 35.122 42.1686 36.4334 42.1686C36.4473 42.1686 36.4593 42.1686 36.4713 42.1686H44.4278C46.0729 42.1686 47.4731 43.4607 47.5729 45.1367C47.5997 45.5037 47.5563 45.8717 47.4491 46.2212L51.853 42.4671V42.4494H51.8622C51.8188 41.8682 51.7522 41.2871 51.6515 40.7059C51.0979 40.2609 50.426 40.0218 49.7217 40.0218H41.7171C41.6931 40.0236 41.6663 40.0236 41.6423 40.0236C40.3428 40.0236 39.0868 39.5889 38.0489 38.8001C36.5887 37.6692 34.8197 37.0806 33.0314 37.0806C32.1414 37.0806 31.2449 37.227 30.3798 37.5246L30.305 37.2344C31.2116 34.0875 33.1746 31.3613 35.8502 29.5389Z" fill="#6BB36B"/>
<path fill-rule="evenodd" clip-rule="evenodd" d="M58.5434 37.8842C57.8031 37.8842 57.0581 38.1363 56.4805 38.6378L47.5887 46.363L47.5767 46.3658C47.6515 46.0756 47.6876 45.7707 47.6802 45.4555C47.6395 43.7073 46.2125 42.3382 44.5305 42.3382H36.4686C36.4686 42.3382 33.8179 41.7987 32.7551 40.9608C31.2431 39.7678 29.4593 39.1856 27.6848 39.1856C25.3142 39.1856 22.9621 40.2247 21.305 42.2223H16.7422V55.0244H21.305L27.1996 56.8681C28.2117 57.186 29.2653 57.3445 30.3179 57.3445H43.4094C44.7079 57.3445 45.9648 56.8606 46.9427 55.968L60.6016 43.5386C61.9509 42.303 62.0286 40.1385 60.7615 38.8074C60.1792 38.192 59.3641 37.8842 58.5434 37.8842Z" fill="white"/>
<path fill-rule="evenodd" clip-rule="evenodd" d="M61.011 40.665L47.6136 52.7468C46.6497 53.6209 45.4085 54.1048 44.1238 54.1048H31.1895C30.1562 54.1048 29.1331 53.9491 28.1525 53.646L22.3143 51.831H20.4095C19.5462 51.831 18.842 51.1052 18.842 50.2163V42.5393H16.7422V55.0735H21.2985L27.146 56.8884C28.1266 57.1888 29.1497 57.3445 30.183 57.3445H43.0841C44.3687 57.3445 45.6099 56.8606 46.573 55.9893L60.0544 43.8278C60.7254 43.2225 61.1016 42.3484 61.1016 41.4325C61.1016 41.173 61.0683 40.9144 61.011 40.665Z" fill="#99FF99"/>
<path fill-rule="evenodd" clip-rule="evenodd" d="M35.8642 46.2239C35.0037 46.2239 34.3022 47.112 34.3022 48.2104V49.0048H44.3031C45.6553 49.0048 46.8577 47.873 47.2412 46.2239H35.8642Z" fill="#E4ECF2"/>
<path fill-rule="evenodd" clip-rule="evenodd" d="M8.427 39.7354V57.3445H16.7394V39.7354H8.427Z" fill="#F56038"/>
<path fill-rule="evenodd" clip-rule="evenodd" d="M8.427 39.7354V57.3445H16.7394V55.1291H12.5795C12.1479 55.1291 11.7957 54.7853 11.7957 54.3598V39.7354H8.427Z" fill="#E74645"/>
<path fill-rule="evenodd" clip-rule="evenodd" d="M50.3871 12.7556C50.9416 12.7556 51.5692 12.967 51.5692 13.5908C51.5599 19.7012 46.5729 24.653 40.4167 24.6604C40.2938 24.6873 40.1542 24.7021 40.0091 24.7021C39.4768 24.7021 38.8733 24.5065 38.8197 23.9448C38.8613 17.9113 43.816 12.7992 49.9629 12.7992C50.0904 12.7723 50.2346 12.7556 50.3871 12.7556ZM15.4491 41.3028V42.7859C15.4593 42.7859 15.4593 42.7933 15.5527 42.7933V55.1847C15.4593 55.1847 15.4491 55.1921 15.4491 55.1921V56.641H9.11368V41.3028H15.4491ZM49.8594 11C45.3224 11 41.0988 13.5445 38.8372 17.5637V11.8621C38.8446 11.4774 38.5794 11.1465 38.2088 11.0612C38.1496 11.0463 38.0886 11.0417 38.0295 11.0417C37.596 11.0417 37.2226 11.3875 37.23 11.8444V17.5711C34.9814 13.5491 30.7153 11.0436 26.0804 11.0436C25.9574 11.0315 25.8317 11.0269 25.7097 11.0269C24.304 11.0269 22.8761 11.786 22.8761 13.4471C22.8696 14.895 23.1173 16.3272 23.6072 17.7C23.7181 18.029 24.0314 18.2506 24.3826 18.2506C24.4121 18.2506 24.4436 18.2478 24.4732 18.245C24.9889 18.1773 25.3077 17.6657 25.1358 17.179C24.706 15.9758 24.4833 14.7152 24.4907 13.4471C24.4907 12.8159 25.1136 12.6018 25.6682 12.6018C25.8179 12.6018 25.962 12.6194 26.0868 12.6453C32.1755 12.6453 37.1367 17.5461 37.23 23.587C37.2254 24.285 36.6561 24.5825 36.0406 24.5825C35.9056 24.5825 35.7689 24.5677 35.6339 24.5408C35.6265 24.5408 35.6164 24.5408 35.6062 24.5408C32.2513 24.5408 29.0776 23.0271 26.9796 20.4335C26.8179 20.237 26.585 20.1369 26.3548 20.1369C26.1164 20.1369 25.8789 20.2389 25.719 20.4437C25.4861 20.7505 25.4963 21.176 25.7439 21.4661C28.1571 24.4314 31.7873 26.1528 35.6339 26.1528C35.7633 26.1574 35.9029 26.1621 36.048 26.1621C36.4528 26.1621 36.8964 26.1287 37.23 26.0165V29.1348C34.2698 29.2886 31.4269 30.3277 29.0748 32.1177C26.5609 34.0263 24.7236 36.6847 23.8308 39.701C22.6016 40.2127 21.4953 40.9691 20.5933 41.9405H17.0462V40.5019C17.0462 40.0588 16.6857 39.701 16.2495 39.701H8.30684C7.86044 39.701 7.5 40.0588 7.5 40.5019V57.4344C7.5 57.8775 7.86044 58.2353 8.30684 58.2353H16.2495C16.6857 58.2353 17.0462 57.8775 17.0462 57.4344V56.0032H20.8086L26.7495 57.7487C28.1968 58.1797 29.7569 58.2742 31.2994 58.2742C31.9269 58.2742 32.5508 58.2576 33.1607 58.2427C33.1709 58.2427 33.1829 58.2446 33.1931 58.2446C33.6247 58.2446 33.9851 57.8923 33.9851 57.4511C33.9851 57.0108 33.6247 56.6577 33.1931 56.6577C33.1829 56.6577 33.1709 56.6577 33.1607 56.6577C32.5212 56.6771 31.8631 56.6994 31.1986 56.6994C29.8447 56.6994 28.4741 56.6094 27.2134 56.2312L21.1598 54.4515C21.0831 54.4348 17.0462 54.4181 17.0462 54.4181V43.5423H20.9122C20.951 43.5497 20.9907 43.5553 21.0295 43.5553C21.2181 43.5553 21.4001 43.47 21.5203 43.3208C23.0388 41.5679 25.1866 40.6576 27.353 40.6576C28.9768 40.6576 30.6081 41.1665 31.9935 42.2131C33.1885 43.1094 36.2273 43.647 36.2273 43.647H44.4343C45.7393 43.647 46.7966 44.6945 46.7966 45.9894C46.7966 47.2093 45.7143 48.3337 44.4343 48.3337H34.0979C33.6857 48.3337 33.3326 48.6312 33.2642 49.0326C33.2051 49.51 33.5831 49.9354 34.0711 49.9354H44.4786C46.0655 49.9354 47.6376 48.8453 48.1866 47.3696L56.9851 40.0588C57.5174 39.6964 58.0303 39.5138 58.5257 39.5138C59.1459 39.5138 59.7392 39.7984 60.3085 40.3656C61.0886 41.4733 61.0026 42.5542 60.034 43.5961L46.315 55.5156C45.4814 56.2414 44.4093 56.641 43.2938 56.641H36.6395C36.2273 56.641 35.8668 56.9404 35.8049 57.339C35.7467 57.8163 36.1238 58.2427 36.6053 58.2427H43.2596C44.7698 58.2427 46.23 57.6977 47.3631 56.7012L61.157 44.6704C62.754 43.2531 62.9527 40.843 61.6135 39.1894H61.6311C60.8455 38.2476 59.7078 37.7582 58.5599 37.7582C57.6643 37.7582 56.7614 38.0576 56.0165 38.6684L52.6514 41.4734C52.5211 40.7068 52.3317 39.9467 52.0914 39.207C51.7143 38.0993 51.2161 37.0426 50.5978 36.0544C50.4463 35.7986 50.1736 35.6549 49.889 35.6549C49.803 35.6549 49.7152 35.667 49.6293 35.6966C49.1487 35.8737 48.95 36.4456 49.2244 36.8794C49.7836 37.7656 50.23 38.7203 50.5636 39.7084C50.7873 40.3731 50.9509 41.047 51.0618 41.7366C51.1126 42.0527 51.157 42.3762 51.1819 42.6904L48.3492 45.0523C47.9537 43.2364 46.34 41.9507 44.4685 41.9405H36.2689C36.2568 41.9433 36.2439 41.9433 36.2291 41.9433C35.0692 41.9433 33.9408 41.5679 33.0064 40.8773C31.3826 39.6426 29.4112 38.9947 27.3974 38.9947C26.8354 38.9947 26.2717 39.0438 25.7097 39.1458C27.6423 34.1282 32.5702 30.7106 38.0295 30.7106C38.0424 30.7106 38.0544 30.7106 38.0664 30.7106C41.0489 30.7106 43.9361 31.7228 46.254 33.573C46.4065 33.7 46.5923 33.763 46.779 33.763C46.9805 33.763 47.1792 33.6898 47.3354 33.5489C47.6893 33.2078 47.6616 32.6461 47.2845 32.3466C44.8733 30.4306 41.9176 29.3053 38.8372 29.1348V26.0165C39.1653 26.1287 39.6117 26.1621 40.0193 26.1621C40.1635 26.1621 40.3058 26.1574 40.4334 26.1528C47.4657 26.1528 53.1902 20.4511 53.1902 13.4471C53.1902 12.1179 52.1015 11.1363 50.7697 11.0343C50.4657 11.0121 50.1616 11 49.8594 11Z" fill="#005A35"/>
<rect x="1" y="0.5" width="69" height="69" rx="9.5" stroke="#005A35"/>
</svg>
