<svg width="70" height="70" viewBox="0 0 70 70" fill="none" xmlns="http://www.w3.org/2000/svg">
<path fill-rule="evenodd" clip-rule="evenodd" d="M33.4507 16.1579L32.1805 16.184L30.9391 16.26L29.7267 16.4134L28.5443 16.5929L27.3622 16.8234L26.2102 17.105L25.0868 17.4366L23.9636 17.8205L22.8994 18.2305L21.8353 18.6903L20.8303 19.2026L19.8263 19.7647L18.8804 20.3529L17.9632 20.9674L17.0774 21.6318L16.2494 22.3234L15.4216 23.065L14.6829 23.8066L13.9441 24.6253L13.2644 25.444L12.6439 26.2879L12.0531 27.1829L11.5204 28.0787L11.0181 29.0247L10.6045 29.9708L10.2201 30.9429L9.89467 31.9411L9.5996 32.9642L9.39206 34.0126L9.24529 35.0618L9.15594 36.1363L9.12708 37.2105L9.15594 38.2847L9.24529 39.3592L9.39206 40.4074L9.5996 41.4569L9.89467 42.48L10.2201 43.4771L10.6045 44.4492L11.0181 45.3963L11.5204 46.3424L12.0531 47.2371L12.6439 48.1332L13.2644 48.9771L13.9441 49.7958L14.6829 50.5884L15.4216 51.3561L16.2494 52.0976L17.0774 52.7882L17.9632 53.4537L18.8804 54.0671L19.8263 54.6553L20.8303 55.2184L21.8353 55.7045L22.8994 56.1905L23.9636 56.5995L25.0868 56.9834L26.2102 57.3161L27.3622 57.5976L28.5443 57.8271L29.7267 58.0066L30.9391 58.1597L32.1805 58.2371L33.4507 58.2621L34.6917 58.2371L35.9331 58.1597L37.1456 58.0066L38.3279 57.8271L39.51 57.5976L40.662 57.3161L41.7855 56.9834L42.9086 56.5995L43.9728 56.1905L45.037 55.7045L46.0419 55.2184L47.0459 54.6553L47.9919 54.0671L48.9078 53.4537L49.7948 52.7882L50.6229 52.0976L51.4506 51.3561L52.2182 50.5884L52.9281 49.7958L53.6079 48.9771L54.2284 48.1332L54.8191 47.2371L55.3518 46.3424L55.8541 45.3963L56.2677 44.4492L56.6521 43.4771L57.0064 42.48L57.2726 41.4569L57.4787 40.4074L57.627 39.3592L57.7163 38.2847L57.7452 37.2105L57.7163 36.1363L57.627 35.0618L57.4787 34.0126L57.2726 32.9642L57.0064 31.9411L56.6521 30.9429L56.2677 29.9708L55.8541 29.0247L55.3518 28.0787L54.8191 27.1829L54.2284 26.2879L53.6079 25.444L52.9281 24.6253L52.2182 23.8066L51.4506 23.065L50.6229 22.3234L49.7948 21.6318L48.9078 20.9674L47.9919 20.3529L47.0459 19.7647L46.0419 19.2026L45.037 18.6903L43.9728 18.2305L42.9086 17.8205L41.7855 17.4366L40.662 17.105L39.51 16.8234L38.3279 16.5929L37.1456 16.4134L35.9331 16.26L34.6917 16.184L33.4507 16.1579Z" fill="#99FF99"/>
<path fill-rule="evenodd" clip-rule="evenodd" d="M10.5444 51.9484L10.1536 51.9984L9.79355 52.0729L9.43224 52.1982L9.07245 52.3237L8.74152 52.4982L8.4416 52.6979L8.17084 52.899L7.90161 53.1232L7.69071 53.3987L7.48013 53.6484L7.30023 53.9492L7.1802 54.2492L7.08934 54.5745L7.02948 54.8997L7 55.2242L7.02948 55.575L7.08934 55.9003L7.1802 56.2L7.30023 56.5L7.48013 56.7997L7.69071 57.075L7.90161 57.325L8.17084 57.5503L8.4416 57.7758L8.74152 57.9511L9.07245 58.1255L9.43224 58.2511L9.79355 58.3753L10.1536 58.4508L10.5444 58.5008L10.9644 58.5263L11.3552 58.5008L11.746 58.4508L12.1368 58.3753L12.4966 58.2511L12.8275 58.1255L13.1569 57.9511L13.458 57.7758L13.7583 57.5503L13.9983 57.325L14.2384 57.075L14.4183 56.7997L14.5997 56.5L14.7197 56.2L14.8398 55.9003L14.8996 55.575V55.2242V54.8997L14.8398 54.5745L14.7197 54.2492L14.5997 53.9492L14.4183 53.6484L14.2384 53.3987L13.9983 53.1232L13.7583 52.899L13.458 52.6979L13.1569 52.4982L12.8275 52.3237L12.4966 52.1982L12.1368 52.0729L11.746 51.9984L11.3552 51.9484H10.5444Z" fill="#99FF99"/>
<path fill-rule="evenodd" clip-rule="evenodd" d="M46.1994 60.1066L46.0976 60.135L45.9971 60.1934L45.9296 60.2816L45.8953 60.3684L45.9296 60.485L45.9971 60.5731L46.0976 60.6316H46.9415L47.009 60.5731L47.0764 60.485L47.1108 60.3684L47.0764 60.2816L47.009 60.1934L46.9415 60.135L46.8066 60.1066H46.1994Z" fill="#2B7456" fill-opacity="0.6"/>
<path fill-rule="evenodd" clip-rule="evenodd" d="M43.9962 60.1066L43.9209 60.135L43.8446 60.1934L43.7941 60.2816L43.7695 60.3684L43.7941 60.485L43.8446 60.5731L43.9209 60.6316H44.5274L44.6037 60.5731L44.6541 60.485L44.68 60.3684L44.6541 60.2816L44.6037 60.1934L44.5274 60.135L44.452 60.1066H43.9962Z" fill="#2B7456" fill-opacity="0.6"/>
<path fill-rule="evenodd" clip-rule="evenodd" d="M45.2877 60.8948L45.1519 60.9171L45.0519 60.9608L44.9847 61.0261V61.0921V61.4858V61.5521L45.0519 61.6182L45.1519 61.6619L45.2877 61.6832L45.388 61.6619L45.4895 61.6182L45.5566 61.5521L45.5895 61.4858V61.0921L45.5566 61.0261L45.4895 60.9608L45.388 60.9171L45.2877 60.8948Z" fill="#2B7456" fill-opacity="0.6"/>
<path fill-rule="evenodd" clip-rule="evenodd" d="M45.2877 58.7908L45.1519 58.8192L45.0519 58.8489L44.9847 58.936V59.0539V59.5492V59.6671L45.0519 59.7539L45.1519 59.8123L45.2877 59.8421L45.388 59.8123L45.4895 59.7539L45.5566 59.6671L45.5895 59.5492V59.0539L45.5566 58.936L45.4895 58.8489L45.388 58.8192L45.2877 58.7908Z" fill="#2B7456" fill-opacity="0.6"/>
<path fill-rule="evenodd" clip-rule="evenodd" d="M45.7691 60.6326L45.6804 60.6853L45.6218 60.7634L45.5917 60.8684L45.6218 60.9476L45.6804 61.0258L46.0326 61.3674L46.121 61.42H46.3258L46.4146 61.3674L46.4732 61.2892L46.5033 61.1842L46.4732 61.105L46.4146 61.0258L46.0624 60.6853L45.974 60.6326H45.7691Z" fill="#2B7456" fill-opacity="0.6"/>
<path fill-rule="evenodd" clip-rule="evenodd" d="M44.3454 59.0527L44.2242 59.0787L44.1339 59.1295L44.0731 59.205V59.2819V59.3837L44.1339 59.4603L44.5271 59.7653L44.6186 59.8161L44.7101 59.8411L44.8313 59.8161L44.9215 59.7653L44.9823 59.6885V59.6129V59.5111L44.9215 59.4345L44.5271 59.1295L44.4369 59.0787L44.3454 59.0527Z" fill="#2B7456" fill-opacity="0.6"/>
<path fill-rule="evenodd" clip-rule="evenodd" d="M44.6186 60.6326L44.5271 60.6853L44.1339 61.0258L44.0731 61.105V61.1842V61.2892L44.1339 61.3674L44.2242 61.42H44.4369L44.5271 61.3674L44.9215 61.0258L44.9823 60.9476V60.8684V60.7634L44.9215 60.6853L44.8313 60.6326H44.6186Z" fill="#2B7456" fill-opacity="0.6"/>
<path fill-rule="evenodd" clip-rule="evenodd" d="M46.2386 59.0527L46.121 59.0787L46.0326 59.1295L45.6804 59.4345L45.6218 59.5111L45.5917 59.6129L45.6218 59.6885L45.6804 59.7653L45.7691 59.8161L45.8564 59.8411L45.974 59.8161L46.0624 59.7653L46.4146 59.4603L46.4732 59.3837L46.5033 59.2819L46.4732 59.205L46.4146 59.1295L46.3258 59.0787L46.2386 59.0527Z" fill="#2B7456" fill-opacity="0.6"/>
<path fill-rule="evenodd" clip-rule="evenodd" d="M21.9416 11.4008L22.1768 11.4513L22.3834 11.5021L22.6186 11.6034L22.7952 11.7305L22.9717 11.8566L23.1194 12.0342L23.237 12.2118L23.296 12.4145L23.3549 12.6429L23.3261 12.8961L23.2671 13.2763L23.1495 13.6566L22.9717 14.0616L22.7663 14.4418L22.501 14.7963L22.2069 15.1518L21.5584 15.9371L20.9111 16.7224L20.3517 17.5079L19.8208 18.2437L19.0845 19.3834L18.7904 19.84L18.7603 19.0032L18.7317 18.2176L18.7603 17.4829L18.7904 16.799L18.8493 16.1655L18.9381 15.5826L19.056 15.0505L19.1736 14.5432L19.32 14.0874L19.4978 13.6566L19.6443 13.2763L19.8208 12.9466L20.0275 12.6429L20.2037 12.3639L20.4103 12.1108L20.5869 11.8824L20.7935 11.7045L20.9987 11.5784L21.2354 11.4774L21.4709 11.4266L21.7061 11.4008H21.9416ZM35.0761 15.6334L35.3113 15.6582L35.5468 15.7347L35.7535 15.8358L35.93 15.9371L36.1063 16.089L36.2543 16.2668L36.3719 16.4434L36.4606 16.6471L36.4895 16.8745V17.1026L36.4019 17.5079L36.2828 17.8882L36.1063 18.2684L35.9011 18.6734L35.6356 19.029L35.3414 19.3834L34.6929 20.1687L34.046 20.955L33.4862 21.7403L32.9554 22.475L32.2194 23.6158L31.9252 24.0716L31.8951 23.2355L31.8663 22.4503L31.8951 21.7145L31.9252 21.0305L32.0127 20.3971L32.1018 19.8142L32.1905 19.2821L32.337 18.7758L32.4846 18.319L32.6311 17.8882L32.8089 17.5079L32.9854 17.1792L33.162 16.8745L33.3385 16.5953L33.5452 16.3421L33.7503 16.115L33.9281 15.9371L34.1335 15.81L34.3687 15.7087L34.6054 15.6582L34.8406 15.6334H35.0761ZM22.3245 8.79053L21.9416 8.81632L21.5584 8.86711L21.1752 8.96842L20.7935 9.09421L20.4392 9.27211L20.1162 9.47474L19.792 9.70289L19.5267 9.98211L19.32 10.2092L19.1146 10.4884L18.9083 10.7921L18.7016 11.0971L18.4962 11.4513L18.2896 11.8566L18.1133 12.2626L17.9368 12.7182L17.7602 13.1997L17.6125 13.7321L17.436 14.29L17.3184 14.8729L17.1707 15.5311L17.0528 16.1903L16.9352 16.925L16.8465 17.6855L16.8176 18.0153L16.7286 18.3447L16.611 18.6487L16.4645 18.9524L16.3168 19.2574L16.1102 19.5353L15.905 19.7895L15.6395 20.0426L15.2566 20.3971L14.9035 20.7774L14.5504 21.1824L14.2261 21.5626L13.6077 22.3997L13.0769 23.2097L12.7538 23.7679L12.5174 24.3505L12.3409 24.9334L12.2233 25.5163L12.1643 26.099L12.1944 26.7076L12.2819 27.2905L12.3998 27.8474L12.6061 28.4055L12.8717 28.9624L13.1945 29.4697L13.5488 29.9761L13.9909 30.4329L14.4616 30.8884L14.991 31.2947L15.5808 31.6492L16.4645 32.1047L17.3469 32.5358L18.261 32.8911L19.1435 33.2197L20.0275 33.5245L20.9111 33.7779L21.735 34.0061L22.501 34.1829L23.237 34.3605L23.9144 34.4876L25.0047 34.6645L25.741 34.7655L26.005 34.7916L26.5645 34.8421H27.1242L27.6551 34.8163L28.1258 34.7916L28.5977 34.715L29.0384 34.6395L29.4513 34.5384L29.8345 34.4113L30.1876 34.2842L30.5404 34.1321L30.8647 33.9555L31.1591 33.7779L31.4244 33.5753L31.6897 33.3974L31.8951 33.1692L32.1318 32.9666L32.4846 32.5358L32.8089 32.08L33.0733 31.6232L33.2796 31.1168L33.4273 30.6095L33.5151 30.1032L33.5452 29.5711L33.5151 29.039L33.4561 28.5574V28.05V27.5695L33.4862 27.1126L33.5737 26.2261L33.6917 25.4913L33.7804 25.1111L33.898 24.7308L34.0745 24.3505L34.2812 23.9961L34.723 23.3876L35.3113 22.6529L35.9887 21.7911L36.8137 20.8279L36.9614 20.6503L37.3434 20.1687L37.5798 19.8142L37.8153 19.4092L38.0793 18.9782L38.3161 18.4968L38.5513 17.9892L38.7278 17.4571L38.8454 16.9003L38.8755 16.6213L38.9044 16.3421V16.089V15.81L38.8454 15.5311L38.7868 15.2532L38.6977 14.9989L38.5801 14.7458L38.4337 14.4926L38.2571 14.2395L37.9918 13.9603L37.6977 13.7071L37.3734 13.5047L37.0203 13.3268L36.666 13.1997L36.2828 13.0984L35.8711 13.0479L35.4879 13.0232L35.105 13.0479L34.6929 13.0984L34.31 13.1997L33.9569 13.3268L33.5737 13.5047L33.2495 13.7071L32.9268 13.9345L32.6612 14.2134L32.2494 14.7208L32.0428 14.974L31.8663 15.2779L31.6897 15.5826L31.5131 15.9371L31.3354 16.3174L31.1889 16.7224L31.0412 17.1534L30.8948 17.635L30.7759 18.1413L30.6583 18.6992L30.5404 19.3079L30.4529 19.9661L30.2751 21.4366L30.2162 21.6897L30.0986 21.9182L29.9521 22.0947L29.7455 22.2726L29.5103 22.3997L29.245 22.475L28.9505 22.5011L28.6564 22.475L27.5962 22.2726L26.6234 22.0442L25.682 21.7911L24.8269 21.5121L24.0621 21.2329L23.3847 20.955L22.7663 20.6761L22.2357 20.4229L22.0002 20.2711L21.8237 20.0932L21.676 19.8908L21.5885 19.6624L21.5584 19.434L21.5885 19.1808L21.676 18.9524L21.8237 18.725L22.6186 17.8126L23.6792 16.5953L23.8268 16.4187L24.2085 15.9371L24.4452 15.5826L24.6804 15.1766L24.946 14.7458L25.1812 14.2395L25.4167 13.7321L25.5933 13.1997L25.7109 12.6429L25.741 12.3887L25.7695 12.1108V11.8316L25.741 11.5526L25.7109 11.2737L25.6519 10.9958L25.5644 10.7416L25.4167 10.4884L25.2691 10.2353L25.0925 9.98211L24.8269 9.70289L24.5328 9.47474L24.2085 9.27211L23.8554 9.09421L23.5026 8.96842L23.1194 8.86711L22.7362 8.81632L22.3245 8.79053Z" fill="white"/>
<path fill-rule="evenodd" clip-rule="evenodd" d="M13.2838 23L13.0772 23.3013L12.7541 23.855L12.5174 24.4332L12.3409 25.0113L12.2233 25.5897L12.1643 26.1679L12.1944 26.7718L12.2819 27.35L12.3998 27.9026L12.6064 28.4561L12.872 29.0087L13.1951 29.5121L13.5494 30.0145L13.9915 30.4676L14.4625 30.9197L14.9922 31.3226L15.582 31.6742L16.4663 32.1263L17.3491 32.5539L18.2635 32.9066L19.1462 33.2326L20.0305 33.535L20.9145 33.7861L21.7386 34.0126L22.505 34.1879L23.2416 34.3397L23.9189 34.4905L25.0099 34.6658L25.7462 34.7663L26.0105 34.7918L26.5703 34.8421H27.13L27.6612 34.8166L28.1319 34.7918L28.6041 34.7161L29.045 34.6411L29.4583 34.5408L29.8415 34.4145L30.1946 34.2884L30.5477 34.1379L30.8723 33.9624L31.1664 33.7861L31.432 33.5853L31.6675 33.3842L31.903 33.1824L32.1394 32.9813L32.375 32.7303L32.5804 32.4534L32.787 32.1766L32.9636 31.8753L33.1116 31.5737L33.2292 31.2724L33.3468 30.9453L33.4358 30.6429L33.2292 30.8695L33.0526 31.0961L32.8171 31.2968L32.5804 31.4979L32.3449 31.6989L32.0507 31.8753L31.7563 32.0516L31.4609 32.2268L31.1078 32.3787L30.7544 32.5292L30.3712 32.6297L29.9591 32.7547L29.517 32.8308L29.045 32.8808L28.5452 32.9311L28.0444 32.9568L27.4846 32.9311L26.8948 32.9066L26.6593 32.8808L25.9227 32.7805L24.8321 32.5795L24.1544 32.4534L23.4181 32.3026L22.653 32.1018L21.7975 31.8753L20.9434 31.6239L20.0606 31.3471L19.1763 31.0203L18.2635 30.6429L17.3792 30.2411L16.4949 29.7632L16.0242 29.4863L15.5519 29.1605L15.1399 28.8076L14.7567 28.4305L14.4036 28.0532L14.1091 27.6513L13.8438 27.2239L13.6083 26.7718L13.4318 26.3187L13.2838 25.8666L13.1662 25.3887L13.1072 24.9111L13.0772 24.4332L13.1072 23.9555L13.1662 23.4776L13.2838 23Z" fill="#99FF99"/>
<path fill-rule="evenodd" clip-rule="evenodd" d="M21.6152 11.9663L21.7915 11.9913L21.968 12.0174L22.1157 12.0937L22.2333 12.1958L22.3221 12.3242L22.4099 12.4524L22.44 12.5797L22.4099 12.7332L22.3509 13.0408L22.2622 13.3726L22.1157 13.7053L21.9392 14.0382L21.704 14.3708L21.4676 14.6776L20.8792 15.3432L20.3487 16.0076L19.8494 16.6995L19.3778 17.339L19.4364 16.6221L19.5255 15.9055L19.6431 15.2147L19.8196 14.5242L20.026 13.8847L20.1724 13.5521L20.3201 13.2703L20.4678 12.9897L20.644 12.7082L20.8495 12.4524L21.0558 12.2218L21.1734 12.0937L21.291 12.0174L21.4676 11.9913L21.6152 11.9663ZM21.6152 11.3008L21.291 11.3268L21.1445 11.3518L20.9971 11.4029L20.8495 11.4803L20.703 11.5824L20.5854 11.6847L20.4377 11.7868L20.2612 12.0174L20.0548 12.2729L19.8783 12.5547L19.6719 12.8613L19.4954 13.1942L19.3489 13.5782L19.1711 14.0132L19.025 14.4732L18.9074 14.9853L18.7895 15.5226L18.7007 16.1111L18.6421 16.7505L18.612 17.4411L18.5831 18.1829L18.612 18.9755L18.6421 19.8208L18.9359 19.3595L19.6719 18.209L20.2025 17.4661L20.7616 16.6732L21.4086 15.8805L22.0568 15.0876L22.3509 14.7287L22.6162 14.3708L22.8216 13.9871L22.9991 13.5782L23.1167 13.1942L23.1757 12.8103L23.2045 12.6308L23.1757 12.4774L23.1456 12.3242L23.1167 12.1958L23.0581 12.0687L22.969 11.9403L22.7627 11.7097L22.5275 11.5313L22.2333 11.4029L21.9392 11.3268L21.6152 11.3008ZM34.9209 16.2382L35.0974 16.2895L35.2451 16.3666L35.3627 16.4687L35.4803 16.5971L35.5389 16.7245L35.5678 16.8526V17.0061L35.5092 17.3126L35.3913 17.6205V17.6455L35.2451 17.9784L35.0685 18.3111L34.8321 18.6429L34.5969 18.9505L34.0375 19.615L33.478 20.2808L32.9776 20.9713L32.5071 21.6108L32.5658 20.8953L32.6545 20.1784L32.7724 19.4618L32.9487 18.7974L33.1839 18.1316L33.3015 17.825L33.4492 17.5434L33.5956 17.2616L33.7734 16.98L33.9785 16.7245L34.1852 16.4939L34.3028 16.3666L34.4504 16.2895L34.5969 16.2382H34.9209ZM34.7443 15.5737L34.4504 15.5987L34.2727 15.6247L34.1262 15.6761L33.9785 15.7521L33.8321 15.8292L33.7132 15.9316L33.5956 16.06L33.3905 16.2895L33.1839 16.545L33.0076 16.8266L32.8311 17.1345L32.6545 17.4661L32.4771 17.85L32.3306 18.285L32.1829 18.7461L32.0364 19.2574L31.9477 19.7945L31.8587 20.3829L31.7712 21.0224L31.7411 21.7129L31.7125 22.4558L31.7411 23.2487L31.7712 24.0926L32.0653 23.6326L32.801 22.4808L33.3316 21.7392L33.891 20.9463L34.538 20.1524L35.1861 19.3595L35.4803 19.0018L35.7456 18.6429L35.9507 18.234L36.1272 17.85L36.2461 17.4661L36.3336 17.0571V16.904V16.7505L36.305 16.5971L36.2461 16.4687L36.1871 16.3155L36.0984 16.2132L35.892 15.9826L35.6565 15.8032L35.3627 15.6761L35.0685 15.5987L34.7443 15.5737ZM22.2032 8.66553L22.5861 8.69158L22.969 8.74289L23.3522 8.845L23.705 8.97237L24.0578 9.15184L24.382 9.35632L24.6759 9.58684L24.9412 9.86842L25.1177 10.1239L25.2654 10.3795L25.4131 10.6353L25.5006 10.8918L25.5596 11.1724L25.5894 11.4542L25.6182 11.7358V12.0174L25.5894 12.2982L25.5596 12.5547L25.442 13.1168L25.2654 13.6542L25.0302 14.1666L24.795 14.6776L24.5297 15.1126L24.2942 15.5226L24.0578 15.8805L23.6761 16.3666L23.5285 16.545L22.4685 17.774L21.6739 18.695L21.5262 18.9245L21.4387 19.155L21.4086 19.4105L21.4387 19.6413L21.5262 19.8718L21.6739 20.0763L21.8504 20.2558L22.0856 20.409L22.6162 20.6647L23.2343 20.9463L23.9113 21.2268L24.6759 21.5087L25.5307 21.7903L26.4718 22.0458L27.4439 22.2763L28.5039 22.4808L28.7679 22.5068L29.0332 22.4808L29.2684 22.4297L29.5036 22.3274L29.6814 22.1992L29.8579 22.0458L29.9755 21.8674L30.0931 21.6618L30.122 21.4324L30.2995 19.9479L30.3873 19.2834L30.5049 18.669L30.6225 18.1055L30.7413 17.5945L30.8878 17.1084L31.0355 16.6732L31.1819 16.2645L31.3594 15.8805L31.5359 15.5226L31.7125 15.2147L31.8888 14.9082L32.0954 14.6526L32.5071 14.1403L32.7724 13.8587L33.0952 13.6292L33.4194 13.4247L33.8023 13.2453L34.1551 13.1168L34.538 13.0147L34.9497 12.9637L35.3326 12.9387L35.7155 12.9637L36.1272 13.0147L36.5101 13.1168L36.8642 13.2453L37.2173 13.4247L37.5412 13.6292L37.8353 13.8847L38.1006 14.1666L38.2769 14.4221L38.4234 14.6776L38.541 14.9332L38.63 15.1897L38.6886 15.4705L38.7476 15.7521V16.0337V16.2895L38.7187 16.5711L38.6886 16.8526L38.571 17.415L38.3948 17.9524L38.1593 18.4645L37.9229 18.9505L37.6588 19.3855L37.4236 19.7945L37.1872 20.1524L36.8055 20.6384L36.6578 20.8179L35.8331 21.7903L35.1561 22.6603L34.5681 23.4021L34.1262 24.0166L33.9199 24.3742L33.7433 24.7582L33.6257 25.1421L33.537 25.5261L33.4194 26.2676L33.3316 27.1629L33.3015 27.624V28.109V28.6211L33.3604 29.1074L33.3905 29.6445L33.3604 30.1819L33.2729 30.6929L33.1252 31.2053L32.9186 31.7163L32.6545 32.1774L32.3306 32.6376L31.9778 33.0726L31.5648 33.4566L31.123 33.7892L30.8878 33.9687L30.5936 34.1221L30.3283 34.2753L30.0342 34.4026L29.7102 34.5311L29.3575 34.6332L29.0043 34.7355L28.6215 34.8126L28.2386 34.8887L27.797 34.94L27.3552 34.9661H26.384L25.8534 34.915L25.5894 34.8887L24.8537 34.7866L23.7637 34.6082L23.0869 34.4797L22.3509 34.3005L21.5852 34.1221L20.7616 33.8916L19.8783 33.6358L18.9949 33.3282L18.1127 32.9963L17.1993 32.6376L16.3168 32.2026L15.4334 31.7424L14.8442 31.3847L14.3149 30.9747L13.8442 30.5147L13.4026 30.0534L13.0483 29.5424L12.7256 29.03L12.4603 28.4679L12.2537 27.9045L12.1361 27.3421L12.0485 26.754L12.0185 26.1395L12.0774 25.5511L12.195 24.9626L12.3713 24.3742L12.608 23.7858L12.9307 23.2226L13.4613 22.4047L14.0794 21.5597L14.4036 21.1758L14.7564 20.7668L15.1095 20.3829L15.4924 20.025L15.7577 19.7695L15.9628 19.5129L16.1691 19.2324L16.3168 18.9245L16.4633 18.6179L16.5809 18.3111L16.6699 17.9784L16.6985 17.6455L16.7875 16.8776L16.9051 16.1361L17.0227 15.4705L17.1704 14.8061L17.288 14.2176L17.4646 13.6542L17.6119 13.1168L17.7885 12.6308L17.965 12.1708L18.1413 11.7608L18.3479 11.3518L18.5531 10.9939L18.7597 10.6863L18.966 10.3795L19.1711 10.0979L19.3778 9.86842L19.6431 9.58684L19.967 9.35632L20.29 9.15184L20.644 8.97237L21.0257 8.845L21.4086 8.74289L21.7915 8.69158L22.2032 8.66553ZM22.2032 8L21.704 8.02605L21.2035 8.10211L20.7319 8.23053L20.29 8.38395L19.8494 8.58842L19.4665 8.845L19.1125 9.12552L18.7597 9.45842L18.4944 9.76632L18.2303 10.0979L17.9936 10.4818L17.7584 10.8658L17.5533 11.3008L17.3467 11.7358L17.1403 12.2218L16.9638 12.7082L16.7875 13.2453L16.611 13.7826L16.4934 14.3447L16.3457 14.9592L16.1105 16.2132L15.9339 17.5945L15.9038 17.8761L15.8452 18.1316L15.7276 18.4134L15.61 18.669L15.4924 18.8995L15.3158 19.155L15.1393 19.3595L14.933 19.5639L14.5802 19.9229L14.2258 20.2808L13.9031 20.6647L13.5488 21.0734L13.2261 21.5087L12.9018 21.9437L12.2537 22.9158L12.0774 23.2226L11.9009 23.5042L11.7833 23.8371L11.6356 24.1437L11.5481 24.4516L11.459 24.7832L11.3703 25.1161L11.3116 25.4226L11.2828 25.7555L11.2527 26.0882V26.4211L11.2828 26.754L11.3116 27.0866L11.3703 27.4184L11.4305 27.7511L11.518 28.084L11.6356 28.3905L11.7532 28.7234L11.9009 29.03L12.0485 29.3379L12.2251 29.6184L12.4013 29.9263L12.8131 30.4634L13.285 31.0008L13.8141 31.4608L14.1082 31.6913L14.4036 31.9219L14.6978 32.1003L15.0217 32.3047L15.9038 32.7658L16.8161 33.2008L17.7299 33.5847L18.6421 33.9426L19.5255 34.2242L20.4076 34.5061L21.2624 34.7355L22.0568 34.94L22.7928 35.0942L23.4996 35.2216L24.6473 35.4261L25.4131 35.5545L25.7659 35.5805L26.3542 35.6316H27.3552L27.7682 35.6055L28.2085 35.5545L28.6215 35.5032L29.0043 35.4261L29.386 35.3237L29.7689 35.2216L30.122 35.0942L30.476 34.9661L30.8003 34.7866L31.123 34.6332L31.4472 34.4287L31.7411 34.2242L32.0364 33.9937L32.3005 33.7632L32.5658 33.5076L32.9776 33.0213L33.3316 32.5103L33.5956 31.9732L33.8321 31.4097L34.0086 30.8474L34.0961 30.259L34.1551 29.6445L34.1262 29.03L34.0961 28.57L34.0676 28.084V27.5979L34.0961 27.1376L34.1852 26.2926L34.2727 25.6282L34.3614 25.2955L34.479 24.9626L34.6267 24.6561L34.8033 24.3742L35.2451 23.7597L35.8042 23.0182L36.4813 22.1742L37.2759 21.2268L37.4825 20.9713L37.9229 20.409L38.1593 19.999L38.4234 19.5639L38.7187 19.0779L38.9539 18.5405L39.1891 17.9784L39.3657 17.39L39.4833 16.7755L39.5134 16.4687V16.1621V15.8542L39.4833 15.5476L39.4246 15.2411L39.3657 14.9592L39.2481 14.6526L39.1004 14.3708L38.9238 14.0642L38.7187 13.7826L38.4234 13.4497L38.0706 13.1432L37.6877 12.8874L37.2458 12.6818L36.8055 12.5037L36.3336 12.3753L35.8331 12.2982L35.3326 12.2729L34.8321 12.2982L34.3316 12.3753L33.8609 12.5037L33.4194 12.6568L33.0076 12.8613L32.5959 13.1168L32.213 13.3987L31.8888 13.7313L31.6235 14.0382L31.3883 14.3447L31.1819 14.6526L30.9765 14.9853L30.8003 15.3171L30.6225 15.7011L30.4459 16.06L30.2995 16.4687L30.122 16.955L30.0044 17.4661L29.8579 18.0295L29.7403 18.6179L29.6227 19.2324L29.5337 19.9229L29.3575 21.3813L29.3274 21.4574L29.2985 21.5597L29.2398 21.6368L29.1809 21.7129L29.0922 21.7642L29.0043 21.8163L28.8855 21.8413H28.6503L27.6494 21.6368L26.7082 21.4063L25.8249 21.1758L25.0001 20.8953L24.2644 20.6384L23.5874 20.3579L22.9991 20.0763L22.4685 19.8458L22.381 19.7695L22.2923 19.6924L22.2333 19.59L22.2032 19.4879L22.1747 19.3855L22.2032 19.2834L22.2333 19.18L22.2923 19.104L23.1456 18.0805L24.1465 16.955L24.3532 16.6995L24.7649 16.1111L25.0302 15.7271L25.2955 15.2921L25.5894 14.7797L25.8249 14.2426L26.0601 13.6803L26.2363 13.0918L26.3542 12.4774L26.384 12.1708V11.8642V11.5563L26.3542 11.2497L26.2953 10.9429L26.2077 10.6353L26.0901 10.3545L25.9425 10.0468L25.7659 9.76632L25.5596 9.48448L25.2353 9.15184L24.9126 8.87L24.4996 8.61447L24.0879 8.38395L23.6461 8.23053L23.1757 8.10211L22.7037 8.02605L22.2032 8Z" fill="#005A35"/>
<path fill-rule="evenodd" clip-rule="evenodd" d="M52.5207 21.1579L48.2673 21.5653L48.7985 25.9116L48.3551 26.0897L47.9418 26.2682L47.5577 26.4713L47.2037 26.6745L46.8482 26.8776L46.5243 27.1066L46.2581 27.3358L45.9919 27.5647L45.6375 27.8945L45.3124 28.2758L45.0462 28.6324L44.8101 29.0387L44.6041 29.445L44.4257 29.8524L44.2789 30.2847L44.1896 30.7169L44.1306 31.0974L44.1017 31.5047L44.0717 31.8861L44.1017 32.2676L44.1306 32.4955L45.9326 47.1379L45.9919 47.4437L46.0809 47.7484L46.228 48.0024L46.376 48.2313L46.5243 48.4098L46.671 48.5621L46.8482 48.7145L47.0266 48.8408L47.2326 48.9684L47.4395 49.07L47.6468 49.1466L47.8528 49.2224L48.0889 49.2732L48.3263 49.324L48.5624 49.3498H49.0346L49.2707 49.324L49.508 49.2732L49.7441 49.2224L50.1571 49.1208L50.4826 48.9942L50.7488 48.8669L50.9545 48.7653L51.1906 48.5869L51.28 48.5113L51.4568 48.7145L51.634 48.8916L51.8412 49.045L52.0485 49.1716L52.2846 49.2732L52.4918 49.3498L52.9048 49.4774L53.2892 49.5529L53.6131 49.579H53.8793L54.1744 49.5529L54.4998 49.4774L54.8551 49.3748L55.0611 49.2732L55.2684 49.1716L55.4452 49.045L55.6224 48.9176L55.7995 48.7392L55.9475 48.5361L56.0657 48.3071L56.1836 48.0532L56.273 48.1298L56.568 48.2563L56.7753 48.3071L57.0704 48.3837L57.4244 48.4345L57.8376 48.4853L58.1038 48.5113L58.34 48.4853L58.5773 48.4605L58.8134 48.4345L59.0495 48.3837L59.2568 48.3071L59.4929 48.2313L59.6986 48.1298L59.877 48.0282L60.083 47.9008L60.231 47.7732L60.4082 47.6208L60.5564 47.4684L60.6743 47.2903L60.7926 47.1129L60.8804 46.9097L60.9998 46.6547L61.0588 46.3761L61.0876 46.0703L61.0588 45.7395L59.2568 31.1232L59.2264 30.8942L59.1385 30.4879L59.0495 30.1063L58.9012 29.725L58.7241 29.3434L58.5183 28.9371L58.281 28.5558L58.016 28.1742L57.7194 27.8437L57.3955 27.4882L57.0114 27.1834L56.627 26.9034L56.2137 26.6237L55.9174 26.4463L55.5634 26.2682L55.2091 26.1158L54.825 25.9634L54.4117 25.8358L53.9975 25.7084L53.5253 25.6068L53.0531 25.5053L52.5207 21.1579Z" fill="white"/>
<path fill-rule="evenodd" clip-rule="evenodd" d="M58.7608 29.3158L44.1899 30.799L44.1309 31.2097L44.1017 31.6497L44.0717 32.0618L44.1017 32.4737L59.2644 30.9905L59.1762 30.5516L59.0869 30.1397L58.9383 29.7276L58.7608 29.3158Z" fill="#E4ECF2"/>
<path fill-rule="evenodd" clip-rule="evenodd" d="M60.8819 44.3168V44.6382L60.8531 44.9342L60.7944 45.2063L60.7057 45.4531L60.5884 45.6505L60.5009 45.8237L60.3535 45.9971L60.2061 46.145L60.0599 46.2932L59.8837 46.4171L59.6777 46.54L59.5014 46.6387L59.2954 46.7374L59.0605 46.8118L58.8545 46.8855L58.6196 46.9358L58.3847 46.9853L58.1498 47.0092H57.6502L57.2378 46.96L56.8856 46.8855L56.5921 46.836L56.3572 46.7626L56.0624 46.6387L55.9749 46.5892L55.8862 46.836L55.74 47.0587L55.5926 47.256L55.4452 47.4042L55.2404 47.5532L55.0642 47.676L54.8582 47.7747L54.6822 47.8495L54.2999 47.9734L53.9763 48.0226L53.6828 48.0721H53.4178L53.0957 48.0226L52.7134 47.9734L52.301 47.8495L52.0661 47.7747L51.8601 47.6521L51.6553 47.5282L51.4492 47.38L51.2429 47.2318L51.067 47.0092L51.0083 47.0839L50.7446 47.256L50.5385 47.38L50.2735 47.4787L49.9502 47.6026L49.5391 47.7255L49.3042 47.7747L49.0696 47.8242H48.8335L48.5986 47.8495L48.3637 47.8242L48.1288 47.8L47.8939 47.7747L47.659 47.7013L47.4529 47.6521L47.218 47.5532L47.012 47.4545L46.8358 47.3547L46.6598 47.2068L46.4836 47.0839L46.3362 46.9358L46.1888 46.7626L46.0126 46.5158L45.8953 46.2679L46.0126 47.2068L46.0715 47.5039L46.1599 47.8L46.3061 48.0468L46.4538 48.2695L46.6012 48.4426L46.7473 48.5908L46.9233 48.7389L47.1008 48.8618L47.3056 48.9855L47.5116 49.0845L47.7179 49.1589L47.9227 49.2324L48.1576 49.2818L48.3937 49.331L48.6286 49.3563H49.0981L49.333 49.331L49.5692 49.2818L49.8041 49.2324L50.2149 49.1337L50.5385 49.0108L50.8032 48.8868L51.0083 48.7881L51.2429 48.615L51.3317 48.5413L51.5079 48.7389L51.6841 48.911L51.8902 49.0603L52.0962 49.1832L52.3311 49.2818L52.5371 49.3563L52.9483 49.4803L53.3306 49.5537L53.6527 49.5789H53.9176L54.2112 49.5537L54.5345 49.4803L54.8882 49.3805L55.0931 49.2818L55.2991 49.1832L55.4753 49.0603L55.6516 48.9363L55.8275 48.7629L55.9749 48.5655L56.0925 48.3429L56.2098 48.0963L56.2985 48.1708L56.5921 48.2937L56.7981 48.3429L57.0917 48.4176L57.4442 48.4668L57.855 48.5163L58.12 48.5413L58.3546 48.5163L58.5907 48.4921L58.8256 48.4668L59.0605 48.4176L59.2665 48.3429L59.5014 48.2695L59.7062 48.1708L59.8837 48.0721L60.0885 47.9482L60.2359 47.8242L60.4121 47.676L60.5595 47.5282L60.6768 47.3547L60.7944 47.1826L60.8819 46.9853L61.0004 46.7374L61.0591 46.4663L61.088 46.1692L61.0591 45.8479L60.8819 44.3168Z" fill="#E4ECF2"/>
<path fill-rule="evenodd" clip-rule="evenodd" d="M59.2325 30.8947L44.3765 32.2794L44.4047 32.5095L45.4792 41.4295L45.6236 42.7358L60.4808 41.3271L60.3352 40.0195L59.2622 31.1258L59.2325 30.8947Z" fill="#99FF99"/>
<path fill-rule="evenodd" clip-rule="evenodd" d="M60.3337 40.1063L45.2883 41.4711L45.4345 42.7358L60.481 41.3721L60.3337 40.1063Z" fill="#005A35"/>
<path fill-rule="evenodd" clip-rule="evenodd" d="M52.6727 21.3424L53.2048 25.6813L53.6764 25.7826L54.148 25.8839L54.5622 26.0113L54.9749 26.1384L55.359 26.2905L55.7127 26.4426L56.0667 26.6205L56.3627 26.7974L56.7754 27.0768L57.1595 27.3561L57.5433 27.6603L57.8669 28.015L58.1632 28.345L58.4279 28.7258L58.6649 29.1066L58.8709 29.5121L59.0478 29.8929L59.1958 30.2734L59.2848 30.6542L59.3726 31.0597L59.4027 31.2884L61.2032 45.8763L61.2321 46.2063L61.2032 46.5116L61.1442 46.79L61.0251 47.0445L60.9373 47.2213L60.8483 47.3992L60.7303 47.5513L60.5836 47.7034L60.2873 47.9826L59.9336 48.2113L59.5495 48.3882L59.1368 48.5155L58.6938 48.5921L58.251 48.6429L57.9851 48.6168L57.5721 48.5663L57.2184 48.5155L56.9237 48.439L56.7164 48.3882L56.4217 48.2621L56.3326 48.1855L56.2147 48.439L56.0968 48.6676L55.9485 48.8703L55.7717 49.0484L55.5948 49.1755L55.4179 49.3018L55.211 49.4032L55.0053 49.5045L54.65 49.6071L54.3252 49.6824L54.0301 49.7084H53.7642L53.4996 49.6824L53.2048 49.6318L52.8496 49.5553L52.4658 49.429L52.0829 49.2263L51.9048 49.125L51.728 48.9718L51.5812 48.8197L51.4332 48.6429L51.3439 48.7182L51.108 48.8963L50.9023 48.9976L50.6364 49.125L50.3113 49.2511L49.8986 49.3524L49.4559 49.454L48.9839 49.4797L48.629 49.454L48.275 49.4032L47.9213 49.3276L47.5964 49.2003L47.3014 49.0484L47.0054 48.8455L46.7696 48.6168L46.5335 48.3634L46.3855 48.1347L46.2387 47.8813L46.1497 47.5771L46.0907 47.2721L44.2902 32.6582L44.2614 32.4305L44.2313 32.0497L44.2614 31.6692L44.2902 31.2626L44.3492 30.8829L44.4382 30.4516L44.585 30.02L44.7634 29.6134L44.9691 29.2079L45.2049 28.8024L45.4708 28.4466L45.7959 28.0658L46.1497 27.7368L46.4156 27.5082L46.6818 27.2795L47.0054 27.0508L47.3603 26.8482L47.7143 26.6453L48.0981 26.4426L48.5108 26.2647L48.9538 26.0868L48.423 21.7489L52.6727 21.3424ZM53.3516 20.6326L52.5849 20.6834L48.3339 21.0889L47.566 21.1655L47.6554 21.8245L48.127 25.6813L47.4193 26.0113L46.7407 26.3918L46.4444 26.5947L46.1208 26.8234L45.8549 27.0508L45.5887 27.2795L45.2049 27.6603L44.8512 28.0411L44.5561 28.4466L44.2902 28.8779L44.0544 29.3353L43.8472 29.8174L43.7004 30.2995L43.5825 30.7805L43.5235 31.1871L43.4935 31.6184L43.4634 32.0497L43.4935 32.4813L43.5235 32.7347L45.324 47.3226L45.383 47.7034L45.5009 48.0592L45.6777 48.4142L45.8838 48.7182L46.1497 49.0484L46.4745 49.3276L46.8285 49.5553L47.2123 49.759L47.625 49.9361L48.0392 50.0374L48.5108 50.114L48.9839 50.1397H49.2787L49.5449 50.114L49.8397 50.0632L50.1344 49.9866L50.4884 49.8853L50.8133 49.784L51.0792 49.6576L51.3153 49.5553L51.6991 49.8097L52.0829 49.9866L52.4658 50.1397L52.8496 50.2411L53.2048 50.3166L53.4996 50.3426L53.9423 50.3674H54.0891L54.3553 50.3426L54.6801 50.2919L55.0338 50.1905L55.3879 50.0632L55.7717 49.9111L56.0968 49.6824L56.4217 49.4032L56.5684 49.2511L56.7164 49.0742L57.2473 49.2003L57.5721 49.2511L57.9262 49.2768L58.251 49.3018L58.5458 49.2768L58.8421 49.2511L59.1067 49.2003L59.4027 49.1497L59.6674 49.0742L59.9047 48.9718L60.1694 48.8703L60.4052 48.7442L60.6121 48.5921L60.8194 48.439L61.0251 48.2868L61.2032 48.11L61.38 47.9061L61.5268 47.7034L61.645 47.5005L61.7641 47.2721L61.882 46.9171L61.9699 46.5624L62 46.1816L61.9699 45.8008L60.1694 31.2118L60.1405 30.9584L60.0515 30.5268L59.9336 30.1213L59.7856 29.69L59.6084 29.2587L59.3726 28.8024L59.0779 28.3711L58.7831 27.9645L58.4579 27.5589L58.0741 27.2039L57.69 26.8482L57.2473 26.5439L56.8042 26.2647L56.4806 26.0618L56.1558 25.9097L55.8017 25.7579L55.4468 25.6058L54.709 25.3511L53.9122 25.1484L53.4406 21.2916L53.3516 20.6326Z" fill="#005A35"/>
<path fill-rule="evenodd" clip-rule="evenodd" d="M53.0595 18.7905L52.8553 18.815L47.0342 19.3429L46.83 19.3687L46.6555 19.4189L46.4811 19.4692L46.3055 19.544L46.1307 19.6445L45.9861 19.7458L45.8399 19.8463L45.7238 19.9713L45.6075 20.0974L45.5196 20.2482L45.433 20.3987L45.3747 20.5495L45.3166 20.7L45.2869 20.8763V21.0526V21.2034L45.3166 21.3797L45.3747 21.555L45.433 21.7055L45.5196 21.8574L45.6357 22.0082L45.7521 22.1332L45.8697 22.2592L46.0147 22.3597L46.1605 22.46L46.3349 22.5361L46.5094 22.6108L46.6841 22.6611L46.8585 22.7113L47.0627 22.7368H47.2669L47.4699 22.7113L53.2637 22.1834L53.4667 22.1587L53.6423 22.1084L53.8453 22.0582L54.0197 21.9824L54.1659 21.9076L54.3117 21.8071L54.4567 21.6811L54.5728 21.555L54.6892 21.43L54.8068 21.3039L54.8648 21.1532L54.9517 21.0026L54.9812 20.8263L55.0098 20.6755V20.4992V20.3239L54.9812 20.1476L54.9232 19.9713L54.8648 19.8208L54.777 19.67L54.6892 19.544L54.5728 19.4189L54.4281 19.2929L54.282 19.1666L54.1361 19.0918L53.9912 18.9913L53.8167 18.9413L53.6125 18.8653L53.4381 18.8408L53.2339 18.815L53.0595 18.7905Z" fill="#6BB36B"/>
<path d="M47.7188 19.3158L48.0217 22.7368" stroke="#005A35" stroke-miterlimit="10" stroke-linecap="round" stroke-linejoin="round"/>
<path d="M50.1035 19.1993L50.3622 22.3351" stroke="#005A35" stroke-miterlimit="10" stroke-linecap="round" stroke-linejoin="round"/>
<path fill-rule="evenodd" clip-rule="evenodd" d="M53.2637 22.1834L47.4699 22.7113L47.2669 22.7368H47.0627L46.8585 22.7113L46.6841 22.6611L46.5094 22.6108L46.3349 22.5361L46.1605 22.46L46.0147 22.3597L45.8697 22.2592L45.7521 22.1332L45.6357 22.0082L45.5196 21.8574L45.433 21.7055L45.3747 21.555L45.3166 21.3797L45.2869 21.2034V21.0526V20.8763L45.3166 20.7L45.3747 20.5495L45.433 20.3987L45.5196 20.2482L45.6075 20.0974L45.7238 19.9713L45.8399 19.8463L45.9861 19.7458L46.1307 19.6445L46.3055 19.544L46.4811 19.4692L46.6555 19.4189L46.83 19.3687L47.0342 19.3429L52.8553 18.815L53.0595 18.7905L53.2339 18.815L53.4381 18.8408L53.6125 18.8653L53.8167 18.9413L53.9912 18.9913L54.1361 19.0918L54.282 19.1666L54.4281 19.2929L54.5728 19.4189L54.6892 19.544L54.777 19.67L54.8648 19.8208L54.9231 19.9713L54.9812 20.1476L55.0098 20.3239V20.4992V20.6755L54.9812 20.8263L54.9517 21.0026L54.8648 21.1532L54.8068 21.3039L54.6892 21.43L54.5728 21.555L54.4567 21.6811L54.3117 21.8071L54.1659 21.9076L54.0197 21.9824L53.8453 22.0582L53.6423 22.1084L53.4667 22.1587L53.2637 22.1834Z" stroke="#005A35" stroke-miterlimit="10" stroke-linecap="round" stroke-linejoin="round"/>
<path fill-rule="evenodd" clip-rule="evenodd" d="M19.5427 39.8421L19.2762 39.9197L19.0398 40.0224L18.8323 40.151L18.6551 40.3303L18.5065 40.5355L18.4187 40.7418L13.7147 57.6692L13.6858 57.9005L13.7147 58.1321L13.7739 58.3626L13.8933 58.5689L14.0404 58.7479L14.248 58.9018L14.4844 59.0308L14.7509 59.1084L15.0174 59.1334L15.2827 59.1084L15.5492 59.0558L15.7856 58.9532L15.9931 58.8255L16.1703 58.6453L16.3189 58.44L16.4067 58.2087L16.4371 58.0808L16.5553 57.9005L16.7024 57.7718L16.8808 57.644L17.0871 57.5413L17.2947 57.464L17.5308 57.4376H17.7383L17.9747 57.464L18.2412 57.5413L18.4476 57.644L18.6247 57.7718L18.7733 57.9258L18.8915 58.1058L18.9806 58.3113L19.0398 58.5166V58.7229L19.0094 58.7742L18.9806 59.0045L19.0094 59.2361L19.0687 59.4676L19.1869 59.6729L19.3352 59.8532L19.5427 60.0071L19.7792 60.1358L20.0457 60.2124L20.3109 60.2384H20.5775L20.8443 60.1611L21.0804 60.0584L21.2879 59.9295L21.4654 59.7503L21.6125 59.5703L21.7018 59.3387L21.7908 59.1847L21.9379 59.0045L22.1154 58.8255L22.3229 58.6966L22.5302 58.6203L22.7955 58.5689L23.0623 58.5426L23.3288 58.5939L23.5652 58.6716L23.8016 58.7742L23.9788 58.9282L24.1574 59.0821L24.2756 59.2874L24.3346 59.4926L24.3635 59.7242L24.3346 59.9558L24.3635 59.9045L24.3346 60.1358L24.3635 60.3663L24.4227 60.5976L24.5409 60.8029L24.6892 60.9832L24.8968 61.1371L25.1329 61.2397L25.3997 61.3424L25.665 61.3687L25.9315 61.3424L26.198 61.2911L26.4344 61.1884L26.6419 61.0597L26.8191 60.8805L26.9662 60.6753L27.0555 60.4437L27.0844 60.315L27.1737 60.1611L27.2919 60.0321L27.4402 59.9045L27.6177 59.8016L27.8541 59.6989L28.0905 59.6476L28.357 59.6216L28.6524 59.6729L28.8888 59.7242L29.0964 59.8532L29.2735 59.9808L29.451 60.1358L29.5692 60.315L29.6582 60.495L29.6886 60.7266V60.9318L29.6582 61.0084L29.6294 61.2397L29.6582 61.4713L29.7175 61.7029L29.8357 61.9082L29.984 62.0871L30.1903 62.2421L30.428 62.37L30.6932 62.4474L30.9598 62.4726L31.2263 62.4474L31.4928 62.3961L31.7292 62.2934L31.9355 62.1647L32.1139 61.9845L32.2613 61.7792L32.3503 61.5476L37.0531 44.6455L37.0832 44.4153L37.0531 44.1837L36.9939 43.9521L36.8756 43.7468L36.7274 43.5668L36.521 43.4126L36.2846 43.285L36.0181 43.2074L35.7516 43.1813H35.4851L35.2198 43.2587L34.9822 43.3613L34.7759 43.4903L34.5987 43.6695L34.4501 43.8758L34.3611 44.0811V44.1324L34.2429 44.3376L34.0958 44.4916L33.9183 44.6455L33.7108 44.7482L33.5035 44.8258L33.2671 44.8771H33.0006L32.7642 44.8518L32.4977 44.7745L32.2613 44.6455L32.0549 44.4916L31.9066 44.3126L31.8173 44.1574L31.7583 44.0034L31.7292 43.8495L31.6991 43.6695L31.7292 43.5416L31.7884 43.31L31.7583 43.0787L31.6991 42.8482L31.5809 42.6418L31.4338 42.4629L31.2263 42.3087L30.9898 42.18L30.7233 42.1024L30.4568 42.0774H30.1903L29.925 42.1537L29.6886 42.2313L29.4811 42.3853L29.3039 42.5392L29.1553 42.7455L29.0675 42.976L29.0964 42.8734L28.9782 43.1047L28.8299 43.285L28.6524 43.4389L28.4464 43.5416L28.2388 43.6442L27.9723 43.6955H27.7359L27.4694 43.6695L27.2038 43.5929L26.9966 43.4903L26.789 43.3363L26.6419 43.1813L26.5225 42.976L26.4344 42.7708L26.4043 42.5655L26.4344 42.3339L26.4043 42.4113L26.4344 42.18L26.4043 41.9484L26.3451 41.7182L26.2268 41.5116L26.0798 41.3326L25.8725 41.1787L25.6361 41.0497L25.3693 40.9724L25.1028 40.9471L24.8375 40.9724L24.571 41.0237L24.3346 41.1274L24.1271 41.255L23.9499 41.4089L23.8317 41.6142L23.7135 41.8458L23.5953 42.026L23.447 42.2061L23.2695 42.3339L23.0923 42.4629L22.8547 42.5392L22.6183 42.5655L22.3819 42.5905L22.1154 42.5392L21.909 42.4879L21.7018 42.3853L21.5243 42.2826L21.376 42.1287L21.2578 41.9747L21.1697 41.7945L21.1107 41.5892L21.0804 41.4089L21.1107 41.3063L21.1396 41.075L21.1107 40.8445L21.0503 40.6129L20.9321 40.4076L20.785 40.2276L20.5775 40.0737L20.341 39.9447L20.0745 39.8684L19.808 39.8421H19.5427Z" fill="white"/>
<path fill-rule="evenodd" clip-rule="evenodd" d="M17.9364 55.6326L17.6988 55.6845L17.4903 55.7363L17.2819 55.8397L17.1038 55.9697L16.9558 56.125L16.8358 56.2803L16.8069 56.4355L16.6881 56.6692L16.5693 56.8763L16.3912 57.0579L16.1524 57.1868L15.9147 57.2903L15.6482 57.3421L15.3802 57.3684L15.1125 57.3421L14.904 57.265L14.7257 57.1868L14.578 57.1097L14.4288 56.9797L14.31 56.8497L14.1911 56.7208L14.1319 56.5655L14.0726 56.3839L13.715 57.6274L13.6858 57.8608L13.715 58.0945L13.7742 58.3268L13.8943 58.535L14.0422 58.7155L14.2507 58.8708L14.4883 59.0008L14.7561 59.0789L15.0241 59.1045L15.2906 59.0789L15.5586 59.0263L15.7959 58.9226L16.0044 58.7937L16.1828 58.6121L16.3317 58.405L16.4201 58.1716L16.4505 58.0426L16.5693 57.8608L16.7173 57.7308L16.8966 57.6021L17.1038 57.4984L17.3123 57.4203L17.5499 57.3939H17.7584L17.996 57.4203L18.2637 57.4984L18.471 57.6021L18.649 57.7308L18.7982 57.8863L18.9171 58.0679L19.0067 58.275L19.0663 58.4821V58.6903L19.0359 58.7421L19.0067 58.9745L19.0359 59.2079L19.0951 59.4413L19.2139 59.6484L19.3632 59.8303L19.5716 59.9855L19.8092 60.1155L20.077 60.1926L20.3435 60.2189H20.6115L20.8792 60.1408L21.1168 60.0374L21.3253 59.9074L21.5037 59.7266L21.6514 59.545L21.741 59.3116L21.8309 59.1561L21.9786 58.9492L22.1567 58.7937L22.3652 58.6639L22.5739 58.5868L22.8404 58.535L23.1081 58.5084L23.3762 58.5603L23.6138 58.6384L23.8511 58.7421L24.0295 58.8974L24.2088 59.0526L24.3276 59.2597L24.3869 59.4668L24.416 59.7003V59.8821L24.3869 60.1155L24.416 60.3479L24.4756 60.5813L24.5941 60.7884L24.7433 60.9703L24.9518 61.1255L25.1894 61.2289L25.427 61.3326L25.7239 61.359L25.9916 61.3326L26.2597 61.2808L26.4973 61.1774L26.7058 61.0474L26.8838 60.8666L27.0315 60.6597L27.1215 60.4261L27.1503 60.2961L27.2403 60.1408L27.3588 60.0108L27.508 59.8821L27.6861 59.7784L27.9237 59.675L28.1613 59.6232L28.4291 59.5968L28.7262 59.6484L28.9636 59.7003L29.172 59.8303L29.3504 59.9592L29.5285 60.1155L29.6473 60.2961L29.7369 60.4779L29.7673 60.7113V60.9184L29.7369 60.9955L29.7078 61.2289L29.7369 61.4626L29.7962 61.6961L29.915 61.9032L30.0642 62.0837L30.2715 62.2403L30.5103 62.3689L30.7768 62.4474L31.0448 62.4726L31.3126 62.4474L31.5806 62.3955L31.8179 62.2918L32.0252 62.1621L32.2047 61.9803L32.3524 61.7732L32.4424 61.5397L32.8289 60.1926L32.6797 60.3479L32.5308 60.4779L32.3524 60.5813L32.1744 60.685L31.9659 60.7368L31.7586 60.7632H31.521L31.2822 60.7368L31.0157 60.6597L30.8072 60.5297L30.5987 60.3745L30.4207 60.1926L30.3019 59.9855L30.2423 59.7521V59.5184L30.2715 59.2597V59.1826V58.9745L30.2423 58.7674L30.1526 58.5603L30.0338 58.3787L29.8862 58.2232L29.6777 58.0945L29.4692 57.9908L29.2316 57.9126L28.9347 57.8608L28.6667 57.8863L28.399 57.9379L28.1613 58.0426L28.0134 58.146L27.8644 58.275L27.7456 58.405L27.6268 58.5603L27.5964 58.7155L27.508 58.9492L27.3588 59.1561L27.1807 59.3116L26.9723 59.4668L26.7346 59.5713L26.4669 59.6232L26.2001 59.6484L25.902 59.5968L25.6355 59.5184L25.3979 59.3897L25.2186 59.2345L25.0402 59.0526L24.9214 58.8455L24.8621 58.6121L24.833 58.3787L24.8925 58.146L24.8621 58.1979L24.8925 57.9645L24.8621 57.7308L24.7725 57.5239L24.6537 57.3168L24.5057 57.135L24.2972 57.006L24.0596 56.8763L23.8223 56.7979L23.5542 56.7726H23.2865L23.0197 56.8245L22.7809 56.9279L22.5739 57.0579L22.3955 57.2132L22.2466 57.4203L22.1567 57.6274V57.5755L22.0683 57.8092L21.9194 57.9908L21.741 58.1716L21.5325 58.3268L21.2949 58.4303L21.0272 58.4821H20.7607L20.4927 58.4568L20.225 58.3787L19.9873 58.2497L19.7789 58.0945L19.6005 57.9126L19.5121 57.7055L19.4224 57.4721V57.2387L19.4528 56.9797V56.9545V56.7208L19.4224 56.5139L19.334 56.3321L19.2139 56.1503L19.0663 55.9697L18.8575 55.8397L18.649 55.7363L18.4117 55.6579L18.1741 55.6326H17.9364Z" fill="#E4ECF2"/>
<path fill-rule="evenodd" clip-rule="evenodd" d="M19.9967 39.976L20.142 40.0021L20.4051 40.0776L20.6385 40.205L20.8433 40.3571L20.9882 40.535L21.1049 40.7379L21.1645 40.9668L21.1931 41.1945L21.1645 41.4231L21.1347 41.5247L21.1645 41.7026L21.2228 41.9055L21.3098 42.0837L21.4264 42.2358L21.5729 42.3879L21.7479 42.4892L21.9528 42.5908L22.1564 42.6413L22.3314 42.6674L22.4779 42.6921L22.6827 42.6674L22.886 42.6413L23.0622 42.5658L23.2373 42.4892L23.4123 42.3879L23.529 42.2605L23.6457 42.1084L23.7338 41.9563L23.8207 41.7534L23.9374 41.6013L24.0541 41.4492L24.2303 41.3218L24.4054 41.1945L24.6087 41.1189L24.8432 41.0929L25.0469 41.0681H25.2219L25.3683 41.0929L25.6315 41.1697L25.8649 41.2968L26.0697 41.4492L26.2147 41.626L26.3313 41.83L26.3897 42.0576L26.4195 42.2863L26.3897 42.5153L26.4195 42.4387L26.3897 42.6674L26.4195 42.8703L26.5064 43.0732L26.6243 43.276L26.7695 43.4292L26.9743 43.5813L27.1792 43.6826L27.4411 43.7582L27.5876 43.7842H27.9674L28.1707 43.7334L28.3755 43.6568L28.5506 43.5813L28.697 43.4539L28.8423 43.3276L28.9602 43.1497L29.0471 42.9716L29.0185 43.0732L29.1054 42.8703L29.1936 42.7182L29.3388 42.5658L29.5139 42.4137L29.6901 42.3124L29.8934 42.2358L30.0982 42.185H30.5066L30.6531 42.2097L30.9163 42.2863L31.1496 42.4137L31.3544 42.5658L31.4994 42.7429L31.6161 42.9468L31.6744 43.1745L31.7042 43.4032L31.6459 43.6321L31.6161 43.7582L31.6459 43.9363L31.6744 44.0884L31.7328 44.2405L31.8209 44.3939L31.9674 44.5708L32.171 44.7229L32.4044 44.8503L32.6675 44.9268L32.814 44.9516H33.1938L33.3686 44.901L33.5722 44.8503L33.7484 44.7489L33.8937 44.6474L34.0401 44.52L34.1568 44.3679L34.2437 44.2158V44.165L34.3318 43.9871L34.42 43.8089L34.5652 43.6568L34.7403 43.5305L34.915 43.4032L35.1198 43.3276L35.3532 43.276H35.733L35.8795 43.3018L36.1427 43.3784L36.376 43.5047L36.5796 43.6568L36.7258 43.835L36.8425 44.0376L36.9008 44.2666L36.9306 44.4953L36.9008 44.7229L32.2591 61.4255L32.171 61.6295L32.0841 61.8066L31.9376 61.9587L31.7626 62.0861L31.5875 62.1874L31.383 62.2889L31.1496 62.3147L30.9448 62.3397H30.7698L30.6233 62.3147L30.3614 62.2382L30.1268 62.1118L29.9232 61.9587L29.7767 61.7818L29.6603 61.5789L29.602 61.35L29.5734 61.1213L29.602 60.8926L29.6318 60.8171V60.6142L29.602 60.3855L29.5139 60.2074L29.3972 60.0305L29.2221 59.8771L29.0471 59.7511L28.8423 59.6237L28.6089 59.5729L28.4339 59.5482L28.2874 59.5221L28.0838 59.5482L27.9091 59.5729L27.734 59.6237L27.5876 59.7003L27.4125 59.8016L27.2661 59.9279L27.1494 60.0553L27.0613 60.2074L27.0327 60.3347L26.9446 60.5376L26.8279 60.7155L26.7112 60.8679L26.5362 60.994L26.3611 61.0966L26.1566 61.1721L25.9232 61.2229L25.6899 61.2487H25.5434L25.3981 61.2229L25.135 61.1213L24.9016 61.02L24.6968 60.8679L24.5503 60.6897L24.4336 60.4868L24.3756 60.2582L24.347 60.0305L24.3756 59.8016L24.347 59.8524L24.3756 59.6237L24.347 59.395L24.2887 59.1921L24.172 58.9892L23.9957 58.8371L23.8207 58.6847L23.5873 58.5834L23.3539 58.5068L23.1789 58.4821L23.0324 58.4561L22.7991 58.4821L22.5946 58.5326L22.391 58.5834L22.2147 58.6847L22.0694 58.8111L21.923 58.9632L21.8063 59.1166L21.7182 59.2934L21.7479 59.2426L21.6598 59.4208L21.5431 59.5989L21.4264 59.7511L21.2514 59.8771L21.0764 60.0045L20.8719 60.081L20.6385 60.1318H20.2586L20.1134 60.1061L19.8502 60.0305L19.6168 59.9032L19.412 59.7511L19.2656 59.5729L19.1492 59.37L19.0908 59.1413L19.0623 58.9126L19.0908 58.6847L19.1206 58.6342V58.4303L19.0623 58.2274L18.9741 58.0245L18.8575 57.8463L18.711 57.6942L18.536 57.5682L18.3324 57.4666L18.0692 57.39L17.9227 57.3642H17.5727L17.3979 57.4158L17.2229 57.4666L17.0479 57.5421L16.9014 57.6187L16.7847 57.7203L16.668 57.8463L16.5513 57.9997L16.5215 58.1258L16.4346 58.3287L16.3465 58.5068L16.2 58.6589L16.025 58.7863L15.85 58.8876L15.6455 58.9892L15.4121 59.015L15.2085 59.0397H15.0322L14.887 59.015L14.6238 58.9384L14.3904 58.8111L14.1856 58.6589L14.0404 58.4821L13.9225 58.2782L13.8644 58.0503L13.8359 57.8216L13.8644 57.5929L18.5074 40.8653L18.5943 40.6874L18.711 40.5092L18.8289 40.3571L19.0039 40.2308L19.179 40.1034L19.3835 40.0268L19.6168 39.976H19.9967ZM19.8204 39.3168L19.4704 39.3416L19.1206 39.4184L18.7991 39.5445L18.536 39.6979L18.274 39.9005L18.0692 40.1542L17.8942 40.4337L17.7775 40.7131L13.1345 57.4408L13.1059 57.6187L13.0762 57.7958V57.9737L13.1059 58.1518L13.1345 58.3287L13.1929 58.5068L13.281 58.6589L13.3977 58.8111L13.5144 58.9632L13.6311 59.1166L13.7775 59.2426L13.9526 59.3442L14.1273 59.4455L14.3023 59.5221L14.5071 59.5989L14.7119 59.6495L14.9453 59.7003H15.2085L15.5586 59.6745L15.9083 59.5989L16.2298 59.4716L16.5215 59.3192L16.7549 59.1166L16.9895 58.8618L17.1348 58.5834L17.2515 58.3039L17.2812 58.2532L17.3681 58.1518L17.4845 58.0753L17.631 58.0245H17.8942L18.0109 58.0753L18.0978 58.1011L18.2442 58.2274L18.3324 58.3795L18.3609 58.5326L18.3324 58.7097L18.3026 58.8876V59.0658L18.3324 59.2426L18.3609 59.4208L18.4193 59.5989L18.5074 59.7511L18.6241 59.9279L18.7408 60.081L18.8575 60.2074L19.0039 60.3347L19.179 60.4361L19.3537 60.5376L19.5287 60.639L19.7335 60.6897L19.9384 60.7405L20.1717 60.791H20.4337L20.7552 60.7663L21.0764 60.7155L21.3681 60.6142L21.6598 60.4611L21.8944 60.2839L22.098 60.081L22.2731 59.8524L22.4195 59.5729L22.4493 59.4974L22.5362 59.3442L22.6827 59.2179L22.8276 59.1413L23.0324 59.1166L23.1789 59.1413L23.2658 59.1671L23.3825 59.2179L23.4409 59.2934L23.529 59.37L23.5873 59.4455L23.6171 59.5221V59.6237V59.725L23.5873 59.8266V60.0045V60.1826L23.6171 60.3347L23.6457 60.5116L23.7624 60.8171L23.9672 61.0966L24.2005 61.35L24.492 61.5789L24.6384 61.6545L24.8135 61.7311L25.0183 61.8066L25.1933 61.8574L25.4565 61.8832L25.6899 61.9079L26.0697 61.8832L26.4195 61.8066L26.741 61.6803L27.0029 61.5024L27.2661 61.2995L27.4709 61.0705L27.6459 60.791L27.7626 60.4868L27.7924 60.4361L27.8793 60.3347L27.9674 60.2582L28.1124 60.2074L28.2874 60.1826L28.4339 60.2074L28.522 60.2334L28.6089 60.2839L28.7554 60.3855L28.8423 60.5376L28.8721 60.7155V60.7405L28.8423 60.9184L28.8137 61.0966V61.2734L28.8423 61.4516L28.8721 61.6295L28.9602 61.8066L29.0185 61.9587L29.1352 62.1118L29.2519 62.2642L29.3686 62.4163L29.5139 62.5176L29.6603 62.645L29.8351 62.7463L30.0399 62.8218L30.2149 62.8987L30.4483 62.9492L30.6817 63H30.9448L31.2949 62.9742L31.6459 62.8987L31.9674 62.7713L32.2591 62.6192L32.4925 62.4163L32.7259 62.1626L32.8723 61.8832L32.989 61.6037L37.6307 44.875L37.6605 44.6982L37.6891 44.52V44.3421L37.6605 44.165L37.6307 43.9871L37.5438 43.8089L37.4855 43.6568L37.3688 43.4797L37.2509 43.3526L37.1342 43.2005L36.989 43.0732L36.8425 42.9716L36.6678 42.8703L36.4629 42.7937L36.2879 42.7182L36.0545 42.6674L35.8212 42.6166H35.558L35.2079 42.6413L34.8569 42.7182L34.5367 42.8453L34.2735 42.9976L34.0104 43.2005L33.8067 43.4539L33.6305 43.7076L33.5138 44.0129L33.4269 44.1392L33.2804 44.2158L33.1355 44.2666L32.989 44.2913H32.8425L32.7259 44.2405L32.6389 44.19L32.5508 44.1392L32.4627 44.0637L32.4044 43.9363L32.3758 43.835L32.4044 43.7842L32.4341 43.606L32.4627 43.4292V43.2253L32.4341 43.0482L32.3758 42.8703L32.3174 42.7182L32.2293 42.54L32.1424 42.3879L32.0257 42.2358L31.9078 42.1084L31.7626 41.9821L31.5875 41.8808L31.4128 41.7792L31.2365 41.6768L31.0329 41.626L30.8281 41.5753L30.5948 41.5247L30.3316 41.4997L30.0101 41.5247L29.7184 41.6013L29.427 41.7026L29.1352 41.83L28.9006 42.0068L28.697 42.185L28.522 42.4137L28.3755 42.6674L28.3172 42.7687L28.2291 42.9208L28.1124 43.0224L27.9376 43.0989L27.7626 43.1237H27.6161L27.4994 43.0732L27.4125 43.0224L27.3244 42.9716L27.2661 42.896L27.2077 42.8195L27.1792 42.7182L27.1494 42.6413V42.54L27.1792 42.4137V42.2358V42.0837L27.091 41.7534L26.9743 41.4492L26.7695 41.1697L26.5362 40.9408L26.2447 40.7379L25.9232 40.56L25.7482 40.5092L25.5434 40.4584L25.31 40.4079H25.0469L24.6968 40.4337L24.3756 40.5092L24.0541 40.6108L23.7921 40.7639L23.529 40.9668L23.3242 41.1945L23.1491 41.4492L23.0324 41.7274L22.9158 41.8547L22.7991 41.9563L22.6529 42.0068L22.4779 42.0329L22.3612 42.0068L22.1861 41.9563L22.0397 41.8547L21.9528 41.7274L21.8944 41.5753L21.923 41.3984L21.9528 41.2203V41.0424L21.923 40.8653L21.8944 40.6874L21.8361 40.5092L21.7479 40.3571L21.6313 40.1789L21.5146 40.0268L21.3979 39.9005L21.2514 39.7734L21.0764 39.6718L20.9016 39.5705L20.7266 39.4689L20.5218 39.4184L20.3468 39.3676L20.0836 39.3168H19.8204Z" fill="#005A35"/>
<path fill-rule="evenodd" clip-rule="evenodd" d="M16.8137 46.4221L15.2031 52.055L33.9524 55.8948L35.5618 50.2619L16.8137 46.4221Z" fill="#7E92FF"/>
<path fill-rule="evenodd" clip-rule="evenodd" d="M16.8137 46.4221L15.5909 50.6408L15.2031 52.055L33.9524 55.8948L34.3693 54.4795L35.5618 50.2619L16.8137 46.4221Z" fill="#005A35"/>
<path fill-rule="evenodd" clip-rule="evenodd" d="M17.0208 46.4221L15.8114 50.6924L34.3829 54.5779L35.5623 50.3087L17.0208 46.4221Z" fill="#99FF99"/>
<path d="M19.0018 42.6053L19.3048 42.8658" stroke="#5D5D6D" stroke-width="0.986877" stroke-miterlimit="10" stroke-linecap="round" stroke-linejoin="round"/>
<path d="M20.2197 42.8713L20.8257 43.1316" stroke="#5D5D6D" stroke-width="0.986877" stroke-miterlimit="10" stroke-linecap="round" stroke-linejoin="round"/>
<path d="M21.7371 43.1345L22.04 43.3948" stroke="#5D5D6D" stroke-width="0.986877" stroke-miterlimit="10" stroke-linecap="round" stroke-linejoin="round"/>
<path d="M22.9536 43.6579L23.5583 43.9211" stroke="#5D5D6D" stroke-width="0.986877" stroke-miterlimit="10" stroke-linecap="round" stroke-linejoin="round"/>
<path d="M24.4724 43.9237L24.7745 44.1816" stroke="#5D5D6D" stroke-width="0.986877" stroke-miterlimit="10" stroke-linecap="round" stroke-linejoin="round"/>
<path d="M25.6888 44.1842L26.2936 44.4447" stroke="#5D5D6D" stroke-width="0.986877" stroke-miterlimit="10" stroke-linecap="round" stroke-linejoin="round"/>
<path d="M27.2063 44.4503L27.5093 44.7105" stroke="#5D5D6D" stroke-width="0.986877" stroke-miterlimit="10" stroke-linecap="round" stroke-linejoin="round"/>
<path d="M28.4229 44.7134L29.0291 44.9737" stroke="#5D5D6D" stroke-width="0.986877" stroke-miterlimit="10" stroke-linecap="round" stroke-linejoin="round"/>
<path d="M29.9429 45.2397L30.2449 45.5" stroke="#5D5D6D" stroke-width="0.986877" stroke-miterlimit="10" stroke-linecap="round" stroke-linejoin="round"/>
<path d="M31.1567 45.5026L31.7627 45.7605" stroke="#5D5D6D" stroke-width="0.986877" stroke-miterlimit="10" stroke-linecap="round" stroke-linejoin="round"/>
<path d="M32.6768 45.7632L32.9806 46.0237" stroke="#5D5D6D" stroke-width="0.986877" stroke-miterlimit="10" stroke-linecap="round" stroke-linejoin="round"/>
<path d="M33.8921 46.0292L34.4998 46.2895" stroke="#5D5D6D" stroke-width="0.986877" stroke-miterlimit="10" stroke-linecap="round" stroke-linejoin="round"/>
<path d="M35.4106 46.2895L35.7145 46.55" stroke="#5D5D6D" stroke-width="0.986877" stroke-miterlimit="10" stroke-linecap="round" stroke-linejoin="round"/>
<path d="M32.3728 59.7105L31.765 59.4503" stroke="#5D5D6D" stroke-width="0.986877" stroke-miterlimit="10" stroke-linecap="round" stroke-linejoin="round"/>
<path d="M30.8528 59.4474L30.5498 59.1842" stroke="#5D5D6D" stroke-width="0.986877" stroke-miterlimit="10" stroke-linecap="round" stroke-linejoin="round"/>
<path d="M29.6374 59.1842L29.0311 58.924" stroke="#5D5D6D" stroke-width="0.986877" stroke-miterlimit="10" stroke-linecap="round" stroke-linejoin="round"/>
<path d="M28.1174 58.9184L27.8145 58.6605" stroke="#5D5D6D" stroke-width="0.986877" stroke-miterlimit="10" stroke-linecap="round" stroke-linejoin="round"/>
<path d="M26.903 58.3947L26.2971 58.1345" stroke="#5D5D6D" stroke-width="0.986877" stroke-miterlimit="10" stroke-linecap="round" stroke-linejoin="round"/>
<path d="M25.3832 58.1316L25.0793 57.8713" stroke="#5D5D6D" stroke-width="0.986877" stroke-miterlimit="10" stroke-linecap="round" stroke-linejoin="round"/>
<path d="M24.1679 57.8684L23.562 57.6053" stroke="#5D5D6D" stroke-width="0.986877" stroke-miterlimit="10" stroke-linecap="round" stroke-linejoin="round"/>
<path d="M22.648 57.6053L22.3441 57.345" stroke="#5D5D6D" stroke-width="0.986877" stroke-miterlimit="10" stroke-linecap="round" stroke-linejoin="round"/>
<path d="M21.4314 57.3395L20.8267 57.079" stroke="#5D5D6D" stroke-width="0.986877" stroke-miterlimit="10" stroke-linecap="round" stroke-linejoin="round"/>
<path d="M19.9122 57.079L19.6101 56.8187" stroke="#5D5D6D" stroke-width="0.986877" stroke-miterlimit="10" stroke-linecap="round" stroke-linejoin="round"/>
<path d="M18.6961 56.8131L18.0914 56.5526" stroke="#5D5D6D" stroke-width="0.986877" stroke-miterlimit="10" stroke-linecap="round" stroke-linejoin="round"/>
<path d="M17.1792 56.5526L16.8762 56.2895" stroke="#5D5D6D" stroke-width="0.986877" stroke-miterlimit="10" stroke-linecap="round" stroke-linejoin="round"/>
<path d="M15.9608 56.2868L15.3549 56.0289" stroke="#5D5D6D" stroke-width="0.986877" stroke-miterlimit="10" stroke-linecap="round" stroke-linejoin="round"/>
<path fill-rule="evenodd" clip-rule="evenodd" d="M18.669 48.1792L18.9257 48.261L19.0965 48.3153L19.1533 48.3692L19.1813 48.45L19.1533 48.586L19.0965 48.7221L19.0394 48.7763H18.9257L18.755 48.7487L18.5261 48.6945L18.669 48.1792ZM18.1569 47.4747L18.0709 47.5289L17.9849 47.5831L17.9281 47.6374L17.8433 47.8L17.7865 47.9624L17.3593 49.5347L17.3301 49.6984L17.3869 49.8874L17.4449 49.9416L17.5021 50.0234L17.5869 50.05L17.6728 50.1042H17.8713L18.0141 50.0234L18.1001 49.9692L18.1569 49.915L18.2138 49.7526L18.3557 49.2916L18.6981 49.3721L18.9257 49.4263H19.353L19.5517 49.3721L19.6946 49.2637L19.8374 49.1289L19.951 48.9929L20.0082 48.7763L20.065 48.586V48.4234L20.0358 48.261L19.951 48.125L19.8653 48.0166L19.7514 47.9082L19.6377 47.8263L19.4949 47.7721L19.1533 47.6639L18.4693 47.5013L18.3557 47.4747H18.1569Z" fill="#005A35"/>
<path fill-rule="evenodd" clip-rule="evenodd" d="M23.6145 49.5553L23.6756 50.2029L23.187 50.0739L23.6145 49.5553ZM20.8027 48.001L20.6806 48.0263H20.5882L20.5271 48.0781L20.4363 48.13L20.374 48.1818L20.2831 48.3371L19.8243 49.8405L19.7632 50.1258L19.7945 50.2547L19.8556 50.3581L19.9464 50.4616L20.0999 50.54L21.3835 50.8252H21.5667L21.6889 50.7734L21.7499 50.7471L21.811 50.6953L21.8423 50.7734L21.9034 50.8505L21.9943 50.9287L22.1164 50.9805H22.2386L22.3917 50.9539L22.5139 50.8768L22.6361 50.7734L22.7895 50.5663L23.7367 50.7734V51.0324L23.7978 51.1621L23.8589 51.291L23.9807 51.3692L24.1029 51.421H24.1639L24.3487 51.3947L24.4706 51.3429L24.5617 51.2392L24.6228 51.1105V50.9805L24.4095 49.3218L24.3487 49.0629L24.3174 48.9329L24.2563 48.8558L24.1639 48.7776L24.0731 48.7258L23.8899 48.6487L23.6756 48.6224L23.5845 48.6487L23.4611 48.6739L23.3702 48.7258L23.2481 48.8039L23.0335 49.011L21.9034 50.3581L21.8721 50.41L21.811 50.3329L21.7202 50.2292L21.5965 50.1776L20.7714 49.9958L21.2303 48.5452V48.3887V48.3116L21.1692 48.2334L21.1391 48.1563L21.0471 48.1047L20.986 48.0529L20.8936 48.0263L20.8027 48.001Z" fill="#005A35"/>
<path fill-rule="evenodd" clip-rule="evenodd" d="M25.9323 49.3158L25.695 49.3411L25.4866 49.3908L25.3085 49.4645L25.1596 49.589L25.0408 49.7137L24.9815 49.8866L24.9523 50.0111V50.1355L24.9815 50.2347L25.0119 50.334L25.1 50.4332L25.1897 50.5324L25.4574 50.7308L26.022 51.0284L26.1104 51.0779L26.1697 51.1529V51.1782V51.2024L26.1405 51.2521L26.0813 51.3016H25.9323L25.7831 51.2774L25.5169 51.2024L25.2492 51.0537L25.1596 51.004L25.0712 50.9787H24.9815L24.8931 51.004L24.8034 51.0284L24.7442 51.0779L24.6545 51.2024L24.6254 51.2774V51.3513L24.6545 51.4261L24.7138 51.5L24.8931 51.6245L25.1 51.7237L25.3389 51.8229L25.6054 51.8979L25.8135 51.9221L25.9916 51.9474L26.2882 51.9221L26.5258 51.8724L26.734 51.7732L26.8832 51.6742L26.9713 51.5253L27.061 51.3513L27.0901 51.2276V51.1032L27.061 50.9787L27.0309 50.8795L26.9424 50.7803L26.8528 50.6811L26.6456 50.5324L26.3778 50.3837L26.2289 50.334L26.1104 50.2845L25.9624 50.1853L25.8728 50.1355L25.8427 50.085L25.8728 50.0355V50.0111L25.902 49.9858L25.9624 49.9616H26.0509L26.2593 49.9858L26.407 50.0355L26.5258 50.085L26.6456 50.1355L26.7932 50.2347L26.8832 50.2845L26.9713 50.3087L27.061 50.2845L27.1494 50.2592L27.2694 50.16L27.3287 50.085L27.3578 49.9858L27.3287 49.9119L27.2986 49.8129L27.1494 49.664L26.912 49.5395L26.6747 49.4403L26.407 49.3908L26.1697 49.3411L25.9323 49.3158Z" fill="#005A35"/>
<path fill-rule="evenodd" clip-rule="evenodd" d="M27.6845 49.579L27.5371 49.634L27.4186 49.7171L27.3594 49.8274V49.9645L27.4186 50.1027L27.5068 50.2127L27.6554 50.2679L28.041 50.3511L27.5961 51.8937L27.566 52.0871L27.6253 52.2524L27.6845 52.3074L27.745 52.3906L27.8331 52.4456L27.9225 52.4727H28.1291L28.2777 52.3906L28.367 52.3356L28.4263 52.2803L28.4855 52.114L28.9289 50.5713L29.2854 50.6813H29.4327L29.5813 50.6545L29.6998 50.5432L29.7591 50.4329L29.7892 50.2958L29.7299 50.1577L29.6406 50.0477L29.492 49.9924L27.8331 49.579H27.6845Z" fill="#005A35"/>
<path fill-rule="evenodd" clip-rule="evenodd" d="M30.1308 50.3684L30.0354 50.3934L29.9412 50.4171L29.8148 50.5395L29.7194 50.6858L29.1815 52.2234V52.3945V52.4671L29.2137 52.5408L29.2769 52.6134L29.3401 52.6621L29.4343 52.7118L29.5298 52.7358H29.7826L29.909 52.6871L30.0676 52.5647L30.1308 52.4184L30.6687 50.8808L30.6997 50.7108L30.6365 50.5634L30.5733 50.4908L30.5101 50.4421L30.4159 50.3934L30.3205 50.3684H30.1308Z" fill="#005A35"/>
<path fill-rule="evenodd" clip-rule="evenodd" d="M32.2724 50.6316L31.9819 50.6571L31.72 50.7071L31.4592 50.8074L31.2256 50.9319L31.0229 51.1332L30.877 51.3834L30.7609 51.6592L30.7029 51.934V52.21L30.7609 52.4603L30.877 52.6613L31.0514 52.8616L31.2553 53.0119L31.4878 53.1363L31.778 53.2121L31.9524 53.2376L32.1278 53.2621L32.4183 53.2376L32.7088 53.1876L32.8249 53.1119L32.9127 53.0363L32.9409 52.9619L32.9707 52.8861V52.7616L32.8829 52.6358L32.8249 52.6103L32.7383 52.5858L32.6802 52.5603L32.5924 52.5858H32.4465L32.3022 52.6103H32.1563L32.0105 52.5858L31.8944 52.5358L31.778 52.4858L31.72 52.4358L31.6619 52.3355L31.6334 52.2355L31.6039 52.1353L31.6334 51.9842L31.6619 51.834L31.72 51.6837L31.778 51.5582L31.8658 51.4579L31.9239 51.3834L31.9819 51.3579L32.0697 51.3334L32.2144 51.3079L32.4183 51.3334L32.621 51.4079L32.8249 51.5337L32.999 51.6082H33.0868L33.1734 51.5837L33.2907 51.5337L33.3487 51.4837L33.3773 51.4334L33.4354 51.3079V51.2334L33.4068 51.1576L33.3773 51.0821L33.3193 51.0321L33.0288 50.8319L32.8249 50.7574L32.5629 50.6816L32.2724 50.6316Z" fill="#005A35"/>
<rect x="0.5" y="0.5" width="69" height="69" rx="9.5" stroke="#005A35"/>
</svg>
