<svg width="484" height="454" viewBox="0 0 484 454" fill="none" xmlns="http://www.w3.org/2000/svg">
<g filter="url(#filter0_f_15_785)">
<path fill-rule="evenodd" clip-rule="evenodd" d="M218.904 320.224L230.788 333.389C230.979 338.463 231.168 342.051 231.168 342.603C231.168 343.364 231.913 344.122 232.865 344.122H234.37C235.32 350.886 236.444 357.668 238.14 364.259L178.723 381.757L218.904 320.224ZM436.988 306.282L455.272 331.698L417.547 369.902L399.438 388.346C397.741 387.777 396.047 387.777 394.351 387.777C393.401 387.968 392.655 388.157 391.705 388.521C397.741 381.565 403.208 374.423 408.12 366.881C420.193 349.575 430.191 324.917 430.572 323.795C430.572 323.795 430.572 323.606 430.572 323.415V323.226C432.837 317.583 434.914 311.941 436.988 306.282ZM184.285 10.1097C178.565 10.1097 173.685 14.8199 174.002 21.0001C174.002 21.7429 174.002 22.6914 174.002 23.4342L165.335 19.8621C164.384 19.4827 163.354 19.2931 162.292 19.2931C161.231 19.2931 160.138 19.4827 159.108 19.8621C156.842 20.8104 154.956 22.8811 154.196 25.5047C152.691 28.5237 152.691 31.9062 154.006 35.1148C155.337 37.7387 158.347 39.8091 162.879 40.9471C161.738 41.8798 160.613 42.6385 159.472 43.571C154.956 46.7796 141.188 56.9429 144.388 63.1545C146.876 68.1176 151.883 71.0419 157.159 71.0419C158.68 71.0419 160.233 70.8047 161.738 70.2988C161.373 72.7488 161.373 75.0092 161.738 77.459C157.412 83.655 157.032 95.8887 161.183 100.22C162.118 101.358 163.069 102.101 164.384 103.049C164.004 103.792 164.004 104.74 164.384 105.673C164.384 105.673 167.584 118.096 168.345 121.305C169.486 125.809 177.028 126.189 177.773 126.189H177.963C179.658 140.114 181.369 153.849 183.255 167.774L187.026 195.64L188.911 209.566L189.847 216.331C189.847 217.089 190.036 217.847 190.227 218.402C190.416 219.16 190.797 219.918 191.366 220.471C192.113 221.61 193.252 222.542 194.568 223.112L222.486 240.987C227.207 244.007 231.913 247.01 236.635 249.839C239.09 251.15 241.356 252.652 243.622 253.98C239.851 266.025 237.016 278.243 235.13 290.856C234.178 291.234 233.245 292.183 232.865 293.116C231.358 298.57 230.599 304.227 230.408 310.061L227.207 306.282L223.991 302.521L222.295 300.828C221.55 299.897 220.601 299.328 219.665 298.948C218.715 298.553 217.732 298.362 216.75 298.362C213.707 298.362 210.73 300.212 209.383 303.232L155.701 388.346L103.256 404.152C101.941 403.583 100.816 403.014 99.4847 402.461C97.5994 401.703 95.7138 400.945 93.8283 400.392C91.9429 399.823 89.8672 399.443 87.7917 399.443C83.4502 399.443 79.2989 400.945 75.9082 403.583C74.403 404.705 72.8978 406.224 71.5667 407.726C71.1866 408.295 70.6319 409.037 70.2517 409.606C67.2255 409.417 64.0247 409.037 60.9985 408.484C57.4178 407.726 54.027 406.965 50.4461 405.844C47.0395 404.705 43.8389 403.205 40.4481 401.703C38.5626 400.945 36.6772 400.392 34.7758 400.012C33.3973 399.726 31.9238 399.554 30.4819 399.554C29.959 399.554 29.4362 399.584 28.9292 399.632C24.7779 399.823 21.007 401.514 17.8064 404.152C16.3012 405.465 14.9702 406.776 13.8454 408.295C12.5301 409.986 11.5794 411.677 10.8189 413.557C9.31373 417.509 9.88406 422.219 12.5301 425.601C12.7045 425.981 13.0846 426.17 13.6552 426.17H156.842C157.777 426.17 158.347 425.412 158.347 424.654C158.347 422.962 158.157 421.271 157.777 419.769C157.222 418.631 156.842 417.509 156.081 416.387C156.271 416.007 156.462 415.629 156.652 415.249L165.699 401.514L242.672 378.736C243.988 382.326 245.507 385.897 247.392 389.279C256.25 406.413 268.514 418.078 283.043 422.599C286.814 423.91 290.776 424.654 294.736 424.843C297.287 425.27 299.933 425.49 302.549 425.49C303.404 425.49 304.276 425.459 305.115 425.412C315.493 425.412 330.023 424.479 334.729 423.91C336.615 423.532 338.689 423.152 340.574 422.771C343.22 425.223 346.247 427.103 349.448 428.794C350.762 431.435 352.283 433.695 354.169 435.764C355.295 437.077 356.626 438.216 357.37 439.147C357.939 439.716 358.32 440.285 358.686 440.665C360.396 442.545 362.837 443.667 365.483 443.667C366.244 443.667 366.988 443.667 367.749 443.289C370.759 442.356 372.835 439.716 373.024 436.697C373.405 434.264 372.835 432.004 371.328 430.122C371.9 429.552 372.469 428.794 372.835 427.861C373.974 425.981 373.785 423.341 372.66 421.46L373.024 420.891C376.431 423.341 380.582 424.843 384.908 425.223C385.399 425.284 385.874 425.317 386.366 425.317C393.194 425.317 399.643 419.375 402.464 416.387L402.653 416.576C403.794 417.225 405.077 417.731 406.393 417.731C406.582 417.731 406.79 417.731 406.979 417.698C407.218 417.731 407.454 417.745 407.693 417.745C408.77 417.745 409.864 417.414 410.955 416.94C411.702 416.751 412.271 416.198 412.841 415.818C413.587 415.249 414.157 414.507 414.537 413.557C414.726 412.246 414.917 410.917 414.726 409.606C414.537 408.295 414.348 407.157 414.157 406.035C413.587 403.583 412.841 401.323 411.702 399.062C411.51 398.873 411.321 398.51 411.13 398.132C419.624 389.849 427.926 381.757 436.228 373.284L456.224 353.147L466.223 343.173L471.135 338.099C473.384 335.839 473.953 332.442 472.639 329.627V329.818C472.448 328.869 472.068 328.127 471.498 327.367L470.183 325.675L467.728 322.104L462.641 315.134L452.454 301.208C449.236 296.688 445.846 292.183 442.455 287.663C458.49 227.632 453.023 167.774 413.016 146.326C411.51 145.393 394.906 135.609 367.368 134.092C365.783 133.95 364.183 133.886 362.567 133.886C342.349 133.886 319.28 144.698 298.317 164.202C277.576 183.596 260.212 210.119 248.708 239.676L231.738 228.374L205.135 211.257C203.061 194.502 200.604 177.764 198.338 161.009L194.759 135.609C194.187 131.832 193.632 128.259 193.063 124.687C194.187 124.308 195.328 123.739 196.264 123.186C198.91 121.305 200.034 117.906 199.29 114.903L196.453 106.242C200.795 105.309 204.566 102.67 207.021 98.9077C207.401 98.9077 207.767 98.5284 208.147 98.3387L224.941 75.9417C224.941 75.9417 234.178 65.5887 241.547 55.8047C246.253 49.7828 247.773 42.4488 245.507 36.806C243.813 32.4752 239.851 29.6458 235.13 29.0927C234.433 28.9663 233.72 28.903 233.023 28.903C230.471 28.903 227.953 29.6775 225.876 31.1633C220.981 34.7355 219.285 42.2591 218.524 48.2811C218.335 48.6606 218.335 49.2296 218.144 49.7828C217.955 52.4224 216.069 54.4929 213.629 55.4254C216.45 47.5224 219.096 38.4973 218.524 34.9252C217.591 29.6458 194.948 15.1676 187.961 10.8367C187.961 10.6471 187.77 10.6471 187.596 10.6471C186.471 10.2836 185.362 10.1097 184.285 10.1097Z" fill="white" stroke="white" stroke-width="12" stroke-miterlimit="10" stroke-linejoin="round"/>
</g>
<path fill-rule="evenodd" clip-rule="evenodd" d="M218.904 316.114L230.788 329.28C230.979 334.353 231.169 337.941 231.169 338.494C231.169 339.254 231.913 340.012 232.865 340.012H234.37C235.32 346.777 236.444 353.558 238.14 360.15L178.724 377.647L218.904 316.114ZM436.989 302.172L455.273 327.589L417.547 365.792L399.438 384.237C397.742 383.668 396.047 383.668 394.351 383.668C393.401 383.859 392.655 384.048 391.705 384.411C397.742 377.456 403.208 370.313 408.12 362.772C420.193 345.466 430.191 320.808 430.572 319.686C430.572 319.686 430.572 319.497 430.572 319.305V319.116C432.837 313.474 434.914 307.831 436.989 302.172ZM184.286 6C178.566 6 173.685 10.7097 174.001 16.8907C174.001 17.6325 174.001 18.5819 174.001 19.3237L165.335 15.7523C164.383 15.3722 163.353 15.1831 162.293 15.1831C161.232 15.1831 160.138 15.3722 159.108 15.7523C156.842 16.6996 154.957 18.7709 154.196 21.395C152.691 24.4135 152.691 27.7958 154.007 31.0055C155.337 33.6296 158.347 35.6988 162.878 36.8371C161.737 37.7701 160.613 38.5283 159.472 39.4612C154.957 42.6688 141.188 52.8321 144.389 59.044C146.877 64.0085 151.883 66.9326 157.159 66.9326C158.68 66.9326 160.232 66.6941 161.737 66.1887C161.374 68.638 161.374 70.8984 161.737 73.3498C157.412 79.5452 157.031 91.7798 161.184 96.1094C162.118 97.2478 163.07 97.9916 164.383 98.9389C164.003 99.6828 164.003 100.63 164.383 101.563C164.383 101.563 167.585 113.987 168.345 117.194C169.486 121.701 177.028 122.079 177.772 122.079H177.963C179.658 136.004 181.37 149.739 183.256 163.665L187.026 191.531L188.912 205.456L189.847 212.221C189.847 212.979 190.036 213.737 190.225 214.292C190.417 215.05 190.797 215.809 191.366 216.361C192.113 217.5 193.252 218.433 194.568 219.002L222.486 236.877C227.207 239.898 231.913 242.9 236.635 245.729C239.09 247.04 241.356 248.542 243.622 249.87C239.851 261.915 237.016 274.134 235.13 286.746C234.178 287.124 233.245 288.074 232.865 289.007C231.36 294.46 230.599 300.117 230.408 305.951L227.207 302.172L223.991 298.41L222.295 296.718C221.551 295.788 220.601 295.218 219.665 294.838C218.715 294.444 217.733 294.253 216.75 294.253C213.707 294.253 210.73 296.102 209.383 299.123L155.701 384.237L103.257 400.043C101.941 399.473 100.816 398.904 99.4858 398.351C97.5984 397.593 95.7131 396.835 93.8277 396.282C91.9424 395.713 89.8679 395.333 87.7913 395.333C83.4511 395.333 79.298 396.835 75.9076 399.473C74.4026 400.595 72.8977 402.114 71.5674 403.616C71.1871 404.185 70.632 404.927 70.2516 405.496C67.2252 405.307 64.024 404.927 60.9996 404.374C57.418 403.616 54.0277 402.856 50.4461 401.734C47.0393 400.595 43.8382 399.095 40.4478 397.593C38.5625 396.835 36.6771 396.282 34.7753 395.902C33.3978 395.616 31.9236 395.444 30.4824 395.444C29.9602 395.444 29.4359 395.475 28.9301 395.522C24.779 395.713 21.0063 397.404 17.8071 400.043C16.3021 401.356 14.9698 402.667 13.8452 404.185C12.5294 405.876 11.5795 407.567 10.8188 409.448C9.31378 413.399 9.88329 418.109 12.5294 421.491C12.7041 421.871 13.0845 422.06 13.6561 422.06H156.842C157.778 422.06 158.347 421.302 158.347 420.544C158.347 418.853 158.158 417.162 157.778 415.66C157.222 414.521 156.842 413.399 156.081 412.277C156.273 411.897 156.462 411.519 156.651 411.139L165.699 397.404L242.672 374.626C243.988 378.216 245.507 381.787 247.392 385.17C256.25 402.303 268.514 413.968 283.043 418.489C286.814 419.8 290.776 420.544 294.736 420.733C297.287 421.16 299.934 421.38 302.549 421.38C303.404 421.38 304.276 421.349 305.115 421.302C315.493 421.302 330.023 420.369 334.729 419.8C336.615 419.422 338.689 419.042 340.574 418.662C343.22 421.113 346.247 422.993 349.448 424.684C350.762 427.325 352.283 429.585 354.169 431.654C355.295 432.968 356.626 434.106 357.37 435.037C357.939 435.606 358.32 436.175 358.686 436.555C360.396 438.435 362.837 439.557 365.483 439.557C366.244 439.557 366.988 439.557 367.749 439.179C370.759 438.246 372.835 435.606 373.024 432.587C373.405 430.154 372.835 427.894 371.328 426.012C371.9 425.443 372.469 424.684 372.835 423.751C373.974 421.871 373.785 419.231 372.66 417.351L373.024 416.781C376.431 419.231 380.582 420.733 384.908 421.113C385.399 421.175 385.874 421.208 386.366 421.208C393.194 421.208 399.643 415.265 402.464 412.277L402.653 412.466C403.794 413.116 405.077 413.621 406.393 413.621C406.582 413.621 406.79 413.621 406.979 413.588C407.218 413.621 407.454 413.635 407.693 413.635C408.77 413.635 409.864 413.305 410.955 412.83C411.702 412.641 412.271 412.088 412.841 411.708C413.587 411.139 414.157 410.397 414.537 409.448C414.726 408.137 414.917 406.807 414.726 405.496C414.537 404.185 414.348 403.047 414.157 401.925C413.587 399.473 412.841 397.213 411.702 394.953C411.511 394.764 411.321 394.4 411.13 394.022C419.624 385.739 427.926 377.647 436.228 369.175L456.224 349.037L466.223 339.063L471.135 333.989C473.384 331.729 473.953 328.332 472.64 325.517V325.708C472.448 324.759 472.068 324.017 471.499 323.257L470.183 321.566L467.728 317.994L462.641 311.024L452.454 297.099C449.236 292.578 445.846 288.074 442.455 283.553C458.49 223.523 453.023 163.665 413.016 142.216C411.511 141.283 394.906 131.5 367.368 129.982C365.783 129.84 364.184 129.776 362.568 129.776C342.349 129.776 319.28 140.589 298.318 160.093C277.577 179.487 260.212 206.009 248.708 235.566L231.738 224.264L205.135 207.147C203.061 190.392 200.604 173.653 198.338 156.9L194.759 131.5C194.187 127.721 193.632 124.15 193.063 120.579C194.187 120.198 195.328 119.629 196.264 119.076C198.91 117.194 200.035 113.798 199.29 110.793L196.453 102.132C200.795 101.199 204.566 98.5588 207.021 94.7984C207.401 94.7984 207.767 94.4183 208.148 94.2292L224.941 71.8313C224.941 71.8313 234.179 61.479 241.547 51.6958C246.253 45.673 247.773 38.3393 245.507 32.6967C243.813 28.365 239.851 25.5355 235.13 24.9827C234.433 24.8574 233.72 24.7937 233.023 24.7937C230.472 24.7937 227.953 25.5684 225.876 27.054C220.981 30.6254 219.285 38.1502 218.524 44.1709C218.335 44.5511 218.335 45.1203 218.144 45.673C217.955 48.3135 216.069 50.3828 213.629 51.3157C216.45 43.4127 219.096 34.3878 218.524 30.8144C217.591 25.5355 194.948 11.057 187.96 6.72743C187.96 6.53838 187.77 6.53836 187.596 6.53836C186.471 6.17465 185.363 6 184.286 6Z" fill="white" stroke="white" stroke-width="12" stroke-miterlimit="10" stroke-linejoin="round"/>
<path fill-rule="evenodd" clip-rule="evenodd" d="M247.15 359.451C246.262 359.451 245.39 359.659 244.58 360.104L83.5168 408.157C52.1813 408.157 42.9191 399.223 35.3694 397.708C33.9117 397.454 32.4992 397.324 31.1361 397.324C25.2354 397.324 20.081 399.845 15.1651 406.643C9.31373 414.811 14.4208 421.08 14.4208 421.08H100.329C100.329 419.356 99.9463 417.651 99.3768 415.943L245.723 372.452L292.727 415.368C293.854 416.325 295.266 416.804 296.677 416.804C298.326 416.804 300.007 416.151 301.229 414.811C303.305 412.337 303.116 408.542 300.657 406.45L251.194 361.046C250.036 359.994 248.577 359.451 247.15 359.451Z" fill="#E6FFE6" stroke="#005A35" stroke-width="2" stroke-miterlimit="10" stroke-linejoin="round"/>
<path fill-rule="evenodd" clip-rule="evenodd" d="M239.958 361.49L233.924 363.068L229.32 377.912L243.684 373.175L239.958 361.49Z" fill="#005A35"/>
<path fill-rule="evenodd" clip-rule="evenodd" d="M184.444 100.523C184.094 100.523 183.759 100.554 183.393 100.618C180.18 100.998 177.906 104.01 178.288 107.401L192.302 212.689C192.684 214.765 194.004 216.651 196.089 217.411L252.148 253.638C253.182 254.321 254.311 254.621 255.442 254.621C257.446 254.621 259.402 253.622 260.483 251.943C262.185 249.105 261.439 245.335 258.781 243.64L203.853 208.156L190.219 105.706C189.884 102.662 187.403 100.523 184.444 100.523Z" fill="#6BB36B" stroke="#005A35" stroke-width="2" stroke-miterlimit="10" stroke-linejoin="round"/>
<path fill-rule="evenodd" clip-rule="evenodd" d="M175.081 36.1879L175.447 38.5139C175.447 38.5139 175.066 38.5139 176.399 40.7455C174.875 39.0749 173.177 37.7639 171.29 36.6564C174.051 36.4365 174.875 36.2803 175.081 36.1879ZM184.236 8.07129C181.078 8.07129 176.207 9.39668 175.447 17.3284C175.447 18.999 175.636 20.6696 176.207 22.1532L164.499 17.5154C164.499 17.5154 163.357 16.9853 161.818 16.9853C159.85 16.9853 157.216 17.875 155.615 21.9642C152.775 29.224 155.423 33.4857 164.309 35.5324C165.436 35.7194 166.752 36.0933 167.895 36.0933C165.054 37.2173 162.611 38.7009 160.343 40.7455C160.343 40.7455 142.954 52.6411 145.604 58.0289C147.983 62.4304 152.537 64.9126 157.28 64.9126C158.931 64.9126 160.613 64.6003 162.231 63.9756C162.786 63.7886 163.358 63.6016 164.118 63.2277C162.977 66.3962 162.786 69.9244 163.547 73.2656C159.2 78.6657 158.82 90.5633 162.231 94.2785C165.467 97.4635 169.799 100.507 185.568 100.507C187.234 100.507 189.012 100.476 190.931 100.414C199.245 100.038 203.783 96.5101 206.052 92.2339H206.622L223.615 70.1114C223.615 70.1114 232.69 60.0734 240.242 50.4095C247.793 40.9325 246.477 28.476 234.769 26.8054C234.022 26.6944 233.309 26.6327 232.643 26.6327C223.298 26.6327 221.092 36.9995 220.029 44.4607C219.838 45.0237 219.838 45.3833 219.649 45.9443C219.077 50.2225 215.3 53.2041 210.97 53.3767C213.033 47.8019 217.379 35.1727 216.824 31.2685C215.872 26.4293 186.964 8.39803 186.964 8.39803C186.964 8.39803 185.823 8.07129 184.236 8.07129Z" fill="#E6FFE6" stroke="#005A35" stroke-width="2" stroke-miterlimit="10" stroke-linejoin="round"/>
<path fill-rule="evenodd" clip-rule="evenodd" d="M176.732 37.8503L177.024 39.0113C176.878 38.625 176.732 38.2366 176.732 37.8503ZM176.438 34.7844L176.29 35.929C175.862 37.6571 176.29 39.5764 177.466 40.5463L177.893 40.9325L176.438 34.7844Z" fill="#222221"/>
<path fill-rule="evenodd" clip-rule="evenodd" d="M198.273 26.5486C198.079 26.5486 197.691 26.5486 197.691 26.7479C196.916 27.9233 195.77 28.5213 194.432 28.9179C193.85 29.1172 193.27 29.1172 192.512 29.1172C192.22 29.2158 191.93 29.2672 191.623 29.2672C191.301 29.2672 190.961 29.2158 190.591 29.1172C190.396 29.1172 190.203 29.3164 190.01 29.3164C188.202 29.863 188.605 32.6967 190.412 32.6967C190.526 32.6967 190.655 32.6967 190.768 32.6639C191.737 32.4645 192.512 32.2652 193.27 31.885C194.043 31.6857 194.625 31.2871 195.384 30.8905C196.739 30.0953 197.884 28.7185 198.466 27.1445C198.466 26.9472 198.273 26.7479 198.273 26.5486Z" fill="#005A35"/>
<path fill-rule="evenodd" clip-rule="evenodd" d="M212.465 51.2068C212.332 51.2068 212.198 51.2232 212.064 51.2396L208.1 51.6321C206.719 51.8294 205.335 52.0267 203.935 52.6164C201.153 53.387 198.789 54.9631 196.805 56.9131C194.806 58.8652 193.223 61.2098 192.24 63.7352C191.042 66.0818 190.458 68.8189 190.258 71.558C190.258 71.558 190.458 71.7389 190.641 71.7389C190.842 71.7389 191.042 71.5581 191.042 71.3608C191.841 66.2771 194.424 61.7852 198.188 58.2755C200.17 56.7179 202.354 55.7336 204.735 54.9631C205.919 54.7658 207.118 54.5685 208.3 54.5685H212.465C214.914 54.3712 214.682 51.2068 212.465 51.2068Z" fill="#005A35"/>
<path fill-rule="evenodd" clip-rule="evenodd" d="M175.611 20.384C175.467 20.384 175.305 20.4005 175.145 20.4313C174.197 20.8156 173.81 21.582 174.003 22.5252C175.145 25.9424 177.638 28.8028 180.887 30.3213C182.431 31.0878 184.152 31.47 185.682 31.8542C186.856 32.0782 187.966 32.2364 189.027 32.2857C189.06 32.4604 189.09 32.6371 189.123 32.7954C189.317 33.5639 189.703 34.1228 190.088 34.8892C190.667 35.5755 191.327 36.1982 192.035 36.7099C190.604 40.0161 189.3 43.4189 187.98 46.6779C187.209 48.7718 186.453 50.6725 185.875 52.7644C185.682 53.724 185.488 54.8583 185.295 55.8159C184.908 56.9502 184.908 58.1009 185.295 59.2351C185.295 59.4263 185.488 59.4262 185.682 59.4262C185.875 59.4262 186.066 59.2351 186.066 59.0419C186.066 57.1412 186.646 55.2405 187.596 53.3397C188.367 51.439 189.123 49.5383 190.088 47.8286C192.002 44.0271 193.916 40.4004 195.83 36.79C196.41 35.8468 196.023 34.8893 195.252 34.505H195.059C194.689 34.3139 194.302 34.1228 193.916 33.9296C193.531 33.5639 193.338 33.3707 193.145 32.9885C192.775 32.7953 192.581 32.4131 192.581 32.0289C192.388 31.6631 192.388 31.2788 192.388 30.8946V30.5124C192.195 29.7603 191.424 29.187 190.667 29.187C190.217 29.2343 189.783 29.2651 189.364 29.2651C188.336 29.2651 187.402 29.1213 186.453 28.9939C185.102 28.6117 183.767 28.0363 182.431 27.4774C179.939 26.3267 178.025 24.2348 177.252 21.7587V21.582C176.931 20.7827 176.351 20.384 175.611 20.384Z" fill="#005A35"/>
<path fill-rule="evenodd" clip-rule="evenodd" d="M200.324 30.6726C200.127 30.6726 199.932 30.6726 199.734 31.0096C199.34 31.8377 198.371 32.6802 197.386 33.0172C196.813 33.1857 196.221 33.3398 195.631 33.5083C195.038 33.6768 194.662 33.6768 194.07 33.8453H193.48C192.709 34.1823 192.314 35.179 192.709 35.853C192.986 36.4715 193.595 36.8228 194.3 36.8228C194.547 36.8228 194.794 36.7796 195.038 36.6975C195.631 36.3584 196.418 36.0214 196.992 35.6845C197.584 35.3475 198.174 34.8563 198.766 34.5193C199.932 33.5083 200.522 32.3432 200.522 31.0096C200.522 30.8411 200.522 30.6726 200.324 30.6726Z" fill="#005A35"/>
<path fill-rule="evenodd" clip-rule="evenodd" d="M179.376 38.8777C179.304 38.8777 179.216 38.8941 179.146 38.9393C177.032 40.051 175.13 41.5366 173.851 43.5853C173.231 44.5244 172.803 45.447 172.377 46.5731C172.163 47.1361 171.952 47.6848 171.952 48.2478V49.9204C171.738 52.1582 171.952 54.2069 172.803 56.2556C173.426 58.6803 175.13 60.542 177.671 61.4646L177.867 61.2776C178.079 61.105 178.079 60.7311 177.867 60.7311C176.393 59.229 175.556 57.5543 175.556 55.6926C175.344 53.8309 175.344 51.9712 175.556 50.1095C175.751 49.5465 175.556 48.9979 175.751 48.6239C175.751 48.2478 175.965 47.8718 175.965 47.3087C176.179 46.3861 176.604 45.6361 177.032 44.7114C177.671 42.8517 178.718 41.1771 179.785 39.488C179.943 39.19 179.695 38.8777 179.376 38.8777Z" fill="#005A35"/>
<path fill-rule="evenodd" clip-rule="evenodd" d="M167.313 34.7782C165.57 34.7782 165.57 36.8228 167.313 36.8228C167.363 36.8228 167.412 36.8228 167.443 36.8125C171.676 36.8125 175.907 36.2515 179.752 35.3474C179.945 35.2344 179.945 35.1193 179.945 35.0063C179.945 34.8912 179.573 34.8912 179.38 34.8912C177.587 35.0433 175.811 35.1296 174.018 35.1296C171.949 35.1296 169.898 35.0248 167.831 34.7782H167.443C167.412 34.7782 167.363 34.7782 167.313 34.7782Z" fill="#335A3A"/>
<path fill-rule="evenodd" clip-rule="evenodd" d="M174.914 36.7036V37.6571L173.613 36.8988L174.914 36.7036ZM175.665 34.7844L170.811 35.3495C170.072 35.3495 169.698 36.5105 170.449 36.8988L176.417 40.7394C176.59 40.9326 176.59 40.9325 176.777 40.9325C177.153 40.9325 177.342 40.7394 177.53 40.5463C177.906 40.1579 177.719 39.5764 177.342 39.3832C177.342 39.19 176.417 38.4318 176.59 35.929C176.59 35.5427 176.59 35.3495 176.417 35.1543C176.23 34.9776 175.854 34.7844 175.665 34.7844Z" fill="#005A35"/>
<path fill-rule="evenodd" clip-rule="evenodd" d="M168.52 57.3857C168.374 57.3857 168.228 57.4289 168.131 57.5132C167.745 57.8563 167.179 58.3557 166.791 58.8694L165.823 60.055C165.064 61.0824 164.289 61.9229 163.707 62.9503H163.514C163.514 63.2935 163.514 63.4496 163.9 63.4496C164.112 63.5072 164.338 63.5216 164.562 63.5216C165.177 63.5216 165.839 63.3654 166.404 63.1229C167.18 62.7798 167.745 62.266 168.325 61.7523C169.472 60.5687 169.665 58.8694 168.907 57.5132C168.81 57.4289 168.664 57.3857 168.52 57.3857Z" fill="#005A35"/>
<path fill-rule="evenodd" clip-rule="evenodd" d="M220.377 45.0422C220.278 45.0422 220.204 45.0854 220.204 45.1717C219.628 45.8642 219.332 46.8895 219.186 47.9272C219.038 48.9526 219.038 49.978 219.332 51.0157C219.48 51.8685 219.91 52.9062 220.498 53.7589C221.088 54.4514 221.812 55.1439 222.696 55.3165H222.844C223.126 55.3165 223.126 55.1439 223.126 54.9692C222.844 53.9315 222.548 53.0808 222.402 52.3863C222.108 51.6938 221.96 51.0157 221.812 50.3232C221.37 48.78 221.236 47.2348 220.794 45.3443H220.646C220.646 45.1717 220.646 45.1717 220.646 45.1717C220.572 45.0854 220.463 45.0422 220.377 45.0422Z" fill="#005A35"/>
<path fill-rule="evenodd" clip-rule="evenodd" d="M184.109 8.07124C183.558 8.08562 183.007 8.14935 182.472 8.26031C183.007 8.16578 183.558 8.10206 184.109 8.07124ZM184.643 8.05481C184.454 8.05481 184.281 8.0548 184.109 8.07124C184.156 8.07124 184.218 8.07124 184.265 8.07124C185.147 8.07124 186.058 8.21304 186.954 8.49866C196.704 14.7208 215.42 27.5451 216.174 31.5028C216.74 35.2713 212.43 48.2703 210.559 53.7486L210.37 54.1287H210.748C215.23 53.9397 218.972 50.7259 219.727 46.386C219.727 45.8333 219.727 45.4531 219.916 44.8819C220.671 39.231 222.165 32.074 226.475 28.8602C228.204 27.6869 230.28 26.9759 232.433 26.9759C233.062 26.9759 233.691 27.0396 234.337 27.1649C238.268 27.5451 241.634 30.1732 243.128 33.7672C245.188 38.6598 243.694 45.4531 239.384 50.9149C232.088 60.5255 223.093 70.8963 223.093 70.8963L206.25 93.3312H205.684V93.5223C202.87 98.6039 198.009 101.249 190.885 101.629C188.905 101.707 187.065 101.74 185.351 101.74C169.939 101.74 165.819 98.793 162.628 95.4066C159.246 91.638 159.811 79.5719 163.931 74.4738C163.177 71.0853 163.366 67.5078 164.499 64.294L164.688 63.5502H163.931C163.366 63.9303 162.815 64.2941 162.06 64.4831C160.535 65.1181 158.962 65.4016 157.391 65.4016C152.798 65.4016 148.38 62.868 146.147 58.6412C143.519 53.3684 160.378 41.4934 160.568 41.4934C162.815 39.4201 165.237 37.9159 168.051 36.7755L169.546 36.3953L167.864 36.2063C166.748 36.2063 165.615 35.8426 164.309 35.6515C159.811 34.511 156.824 32.8178 155.691 30.3643C154.574 27.7362 154.763 24.9005 156.069 22.2579C156.634 20.3736 157.94 18.6784 159.811 17.9346C160.568 17.5544 161.353 17.3654 162.155 17.3654C162.942 17.3654 163.744 17.5544 164.499 17.9346L176.481 22.8271L176.292 22.0668C175.916 20.5627 175.726 18.8695 175.916 17.1742C175.506 12.7419 178.527 9.11513 182.472 8.26031C181.341 8.48223 180.256 8.87879 179.281 9.44799C176.67 11.5213 175.348 14.5297 175.348 17.7455C175.161 19.2497 175.348 20.7538 175.726 22.2579L164.86 17.7455C164.026 17.3654 163.129 17.1742 162.249 17.1742C161.353 17.1742 160.473 17.3654 159.624 17.7455C157.751 18.6784 156.258 20.3736 155.504 22.447C154.198 25.0916 154.009 28.289 155.314 31.1226C156.634 33.5782 159.624 35.4624 164.309 36.5865C165.05 36.7755 165.991 36.9666 166.748 36.9666C164.309 38.105 162.249 39.6091 160.378 41.3044C159.624 41.8736 142.954 53.5595 145.579 59.2103C148.112 63.7228 152.736 66.3366 157.564 66.3366C159.184 66.3366 160.835 66.051 162.439 65.4345C162.815 65.2434 163.177 65.0543 163.555 64.8632C162.815 67.888 162.628 71.2764 163.366 74.4738C159.246 79.952 158.507 92.0181 162.249 95.9757C165.426 99.5532 169.735 102.562 185.083 102.562C186.954 102.562 188.825 102.562 190.885 102.389C198.009 102.198 203.059 99.3642 205.874 94.2805H206.628L223.471 71.6566C223.471 71.4655 232.466 61.2858 239.952 51.6752C244.259 46.0223 245.754 39.0399 243.694 33.9583C242.012 29.9986 238.457 27.3561 234.337 26.9759C233.63 26.8321 232.922 26.7704 232.199 26.7704C230.06 26.7704 227.92 27.4033 226.096 28.6691C221.598 32.2487 220.105 39.4201 219.351 45.262C219.161 45.6422 219.161 46.197 219.161 46.7661C218.421 50.7258 215.041 53.5595 211.11 53.7486C213.17 48.2703 217.291 35.6515 216.74 31.6938C215.796 26.5957 188.276 9.06785 187.143 8.30756C186.311 8.14934 185.462 8.05481 184.643 8.05481Z" fill="#222221"/>
<path fill-rule="evenodd" clip-rule="evenodd" d="M184.343 9.27132C184.995 9.27132 185.661 9.34942 186.313 9.52203C199.741 17.951 214.694 28.815 215.06 31.2521C215.44 33.6748 213.359 41.9147 209.387 52.5917C209.196 53.1568 209.387 53.7075 209.768 54.2726C209.959 54.6507 210.53 54.8397 211.088 54.8397C216.203 54.6507 220.558 50.9088 221.304 45.8456C221.495 45.4675 221.495 45.1059 221.495 44.7278V44.5408C222.449 39.116 223.767 32.3699 227.739 29.5548C229.187 28.4226 230.965 27.9355 232.826 27.9355C233.397 27.9355 233.969 27.9664 234.557 28.0609C237.957 28.439 241.183 30.4979 242.503 33.8638C244.204 38.1708 242.884 44.3518 238.911 49.5875C231.522 58.9597 222.449 69.0696 222.258 69.2422L205.795 90.9743C205.224 90.9743 204.667 91.3359 204.476 91.901C201.823 96.3991 197.277 98.8362 190.667 99.1978C188.601 99.2759 186.71 99.3231 184.962 99.3231C170.042 99.3231 166.1 96.5882 163.224 93.3949C160.395 90.4072 160.57 79.3541 164.544 74.3053C164.733 73.9293 164.924 73.3621 164.733 73.0005C164.178 69.8093 164.369 66.6325 165.307 63.8174C165.496 63.0797 165.307 62.3235 164.733 61.9474C164.544 61.5693 164.178 61.5694 163.795 61.5694C163.606 61.5694 163.224 61.7584 163.033 61.9474C162.478 62.1344 162.095 62.5125 161.524 62.7016C160.156 63.205 158.727 63.4557 157.329 63.4557C153.133 63.4557 149.081 61.2385 146.953 57.4494C145.633 55.0288 153.197 47.5286 161.143 42.1038L161.332 41.9147C163.224 40.0427 165.687 38.7379 168.15 37.7947C169.85 37.244 169.659 34.807 167.959 34.6179C166.816 34.4289 165.687 34.2398 164.544 33.8638C160.206 32.935 157.743 31.4268 156.597 29.5548C155.66 27.1342 155.851 24.6971 156.98 22.447C157.36 20.7641 158.489 19.4449 160.015 18.7052C160.666 18.5161 161.332 18.4216 161.97 18.4216C162.605 18.4216 163.224 18.5161 163.795 18.7052L175.334 23.3758C175.556 23.532 175.794 23.5792 176.033 23.5792C176.43 23.5792 176.81 23.4231 177.034 23.2032C177.606 22.6361 177.795 22.071 177.606 21.5039C177.034 20.01 176.843 18.5161 177.034 17.2113C177.034 14.5852 178.177 12.1481 180.258 10.4652C181.434 9.69463 182.881 9.27132 184.343 9.27132ZM184.136 6C178.399 6 173.506 10.6851 173.823 16.8332C173.823 17.5729 173.823 18.3271 173.823 19.2703L165.115 15.701C164.081 15.3249 163.033 15.1523 162.001 15.1523C160.952 15.1523 159.918 15.3249 158.869 15.701C156.597 16.8332 154.706 18.7052 153.96 21.3148C152.434 24.319 152.259 27.8718 153.768 30.876C155.088 33.4857 157.932 35.5467 162.652 36.6789C161.332 37.6057 160.206 38.3598 159.252 39.4776C154.706 42.4798 140.898 52.7787 143.932 58.7707C146.618 63.6283 151.768 66.5216 157.155 66.5216C158.616 66.5216 160.078 66.3182 161.524 65.8784C161.143 68.1264 161.143 70.5635 161.524 72.8115C157.169 79.1651 156.789 91.1469 160.952 95.6429C164.369 99.3869 168.896 102.578 184.978 102.578H191.033C198.231 102.2 203.713 99.3868 206.924 94.3381C207.305 94.3381 207.687 93.9621 208.067 93.773L224.912 71.4923C224.912 71.3032 233.985 61.2077 241.549 51.6465C246.284 45.4675 247.793 38.1707 245.521 32.5589C243.821 28.2499 239.658 25.4348 235.128 24.8841C234.415 24.7588 233.714 24.6971 233 24.6971C230.457 24.6971 227.93 25.482 225.85 26.9451C220.749 30.4979 219.223 37.9838 218.286 43.9737C218.286 44.5408 218.094 44.9168 218.094 45.4675C217.712 48.0937 216.012 50.3416 213.551 51.0978C216.203 43.2339 219.032 34.2398 218.286 30.687C217.523 25.4348 194.814 11.0323 187.822 6.72332C187.822 6.53427 187.633 6.53425 187.442 6.53425C186.329 6.1726 185.217 6 184.136 6Z" fill="#005A35"/>
<path fill-rule="evenodd" clip-rule="evenodd" d="M237.544 229.995L238.077 245.041L245.865 250.527L249.851 238.587L237.544 229.995Z" fill="#005A35"/>
<path fill-rule="evenodd" clip-rule="evenodd" d="M360.627 131.362C364.171 131.568 367.716 132.31 371.244 133.413C373.326 133.982 375.218 134.93 377.299 135.86C415.158 154.284 420.452 222.898 396.228 297.715C375.981 359.743 340.41 406.349 305.014 416.311C300.262 417.667 295.494 418.409 290.727 418.409C290.186 418.409 289.662 418.409 289.121 418.378H288.93C290.663 418.836 294.302 419.025 298.737 419.025C308.813 419.025 322.975 418.094 328.109 417.447C358.768 413.122 391.127 383.045 414.395 335.683C451.111 260.487 455.466 170.072 405.32 143.202C404.366 142.633 388.346 132.893 360.627 131.362Z" fill="#6BB36B"/>
<path d="M360.468 131.362C360.516 131.362 360.579 131.362 360.627 131.362M360.627 131.362C364.171 131.568 367.716 132.31 371.244 133.413C373.326 133.982 375.218 134.93 377.299 135.86C415.158 154.284 420.452 222.898 396.228 297.715C375.981 359.743 340.41 406.349 305.014 416.311C300.262 417.667 295.494 418.409 290.727 418.409C290.186 418.409 289.662 418.409 289.121 418.378H288.93C290.663 418.836 294.302 419.025 298.737 419.025C308.813 419.025 322.975 418.094 328.109 417.447C358.768 413.122 391.127 383.045 414.395 335.683C451.111 260.487 455.466 170.072 405.32 143.202C404.366 142.633 388.346 132.893 360.627 131.362Z" stroke="#005A35" stroke-width="2" stroke-miterlimit="10" stroke-linejoin="round"/>
<path fill-rule="evenodd" clip-rule="evenodd" d="M363.156 131.362C321.966 131.362 270.543 178.287 248.19 247.994C223.138 326.612 242.571 402.989 285.188 416.718C288.924 418.045 292.849 418.789 296.961 418.978C297.495 419.009 298.013 419.009 298.546 419.009C303.256 419.009 307.964 418.267 312.658 416.909C347.616 406.939 382.934 360.298 402.744 298.032C426.665 223.348 421.439 154.683 384.238 136.245C382.18 135.123 380.124 134.365 378.068 133.621C374.708 132.673 371.162 131.915 367.613 131.551C366.139 131.424 364.646 131.362 363.156 131.362Z" fill="#D7EDBD"/>
<path fill-rule="evenodd" clip-rule="evenodd" d="M360.649 131.362C319.044 131.362 267.099 178.287 244.522 247.994C219.026 326.612 238.671 402.989 281.894 416.718C285.667 418.045 289.631 418.789 293.595 418.978C294.134 419.009 294.672 419.009 295.213 419.009C299.985 419.009 304.868 418.267 309.451 416.909C344.761 406.939 380.436 360.298 400.637 298.032C424.61 223.348 419.33 154.683 381.752 136.245C379.865 135.123 377.788 134.365 375.712 133.621C372.319 132.673 368.736 131.915 365.152 131.551C363.661 131.424 362.154 131.362 360.649 131.362Z" fill="#E6FFE6" stroke="#005A35" stroke-width="2" stroke-miterlimit="10" stroke-linejoin="round"/>
<path fill-rule="evenodd" clip-rule="evenodd" d="M367.049 184.772C353.842 184.772 342.75 194.551 341.483 207.485C340.33 221.096 350.828 232.868 364.95 233.965C365.767 234.041 366.568 234.072 367.37 234.072C380.45 234.072 391.366 224.355 392.632 211.533C393.769 197.919 383.271 185.962 369.149 184.85C368.443 184.803 367.738 184.772 367.049 184.772Z" fill="white"/>
<path fill-rule="evenodd" clip-rule="evenodd" d="M366.965 188.882C355.643 188.882 346.512 198.028 346.512 209.354V211.549H360.752L356.564 218.854L353.081 224.7C357.177 228.337 361.994 229.979 366.69 229.979C377.338 229.979 387.433 221.646 387.433 209.354H387.618C387.618 198.028 378.29 188.882 366.965 188.882Z" fill="#005A35"/>
<path fill-rule="evenodd" clip-rule="evenodd" d="M360.296 181.706C359.124 181.706 357.968 181.756 356.798 181.852C354.537 182.245 352.273 182.44 350.201 183.009C347.939 183.792 345.867 184.378 343.794 184.965C343.603 185.144 343.414 185.144 343.603 185.339C343.603 185.732 343.794 185.732 343.983 185.732C346.245 185.732 348.317 185.144 350.39 185.144C352.653 184.965 354.726 184.77 356.798 184.77C358.871 184.77 361.132 184.965 363.205 185.144C364.138 185.144 365.277 185.339 366.402 185.535L369.233 186.122C373.378 187.1 377.144 188.648 380.72 190.978C384.295 193.308 387.507 196.207 389.943 199.89V200.085C390.069 200.085 390.196 200.184 390.321 200.184C390.385 200.184 390.449 200.151 390.513 200.085C390.702 200.085 390.702 199.89 390.702 199.694C389.01 195.246 386.177 191.547 382.412 188.843C378.837 185.927 374.692 183.987 370.166 182.83C366.955 182.097 363.632 181.706 360.296 181.706Z" fill="#005A35" stroke="#005A35" stroke-miterlimit="10" stroke-linejoin="round"/>
<path fill-rule="evenodd" clip-rule="evenodd" d="M293.763 184.789C285.217 184.789 276.655 193.164 273.724 205.086C270.44 218.478 275.551 231.323 285.233 233.745C286.214 233.963 287.197 234.072 288.194 234.072C296.8 234.072 305.485 225.666 308.431 213.649C311.546 200.43 306.42 187.6 296.924 185.179C295.881 184.912 294.822 184.789 293.763 184.789Z" fill="white"/>
<path fill-rule="evenodd" clip-rule="evenodd" d="M292.289 188.898C285.079 188.898 277.914 195.848 275.642 205.744C274.723 208.892 274.538 212.244 274.906 215.579L279.478 215.205L287.503 214.457L284.034 221.891L281.304 227.828C282.577 228.748 283.851 229.309 285.324 229.683C286.138 229.87 286.981 229.963 287.809 229.963C294.944 229.963 302.232 223.105 304.687 212.975C307.419 201.848 302.861 191.079 295.005 189.225C294.101 189.007 293.196 188.898 292.289 188.898Z" fill="#005A35"/>
<path fill-rule="evenodd" clip-rule="evenodd" d="M296.673 183.745C295.698 183.745 294.722 183.808 293.763 183.934C290.725 184.312 287.863 185.428 285.385 187.127C282.924 188.623 281.004 190.873 279.678 193.485C279.678 193.674 279.678 193.861 279.869 193.861C279.966 193.955 280.062 194.003 280.157 194.003C280.253 194.003 280.35 193.955 280.445 193.861C284.25 190.306 289.014 187.867 294.146 187.127C295.474 186.938 296.817 186.938 298.143 186.938C299.471 186.938 300.622 187.127 301.948 187.316C303.291 187.316 304.619 187.489 305.945 187.867C307.288 188.056 308.616 188.434 310.133 188.623C310.133 188.623 310.327 188.434 310.518 188.434C310.518 188.245 310.518 187.867 310.327 187.867C309.192 187.127 307.847 186.562 306.521 185.806C305.195 185.255 303.85 184.877 302.524 184.501C300.622 183.998 298.624 183.745 296.673 183.745Z" fill="#005A35" stroke="#005A35" stroke-miterlimit="10" stroke-linejoin="round"/>
<path fill-rule="evenodd" clip-rule="evenodd" d="M275.78 233.061C275.582 233.238 275.582 233.413 275.582 233.589C276.557 235.864 278.321 237.611 280.482 239.006C282.842 240.401 285.597 241.281 288.352 241.281C293.846 241.104 298.945 238.652 301.897 234.631C302.294 234.631 302.294 234.117 301.897 233.943C301.798 233.854 301.7 233.809 301.601 233.809C301.502 233.809 301.404 233.854 301.305 233.943C299.341 235.159 297.179 236.203 295.018 236.906C292.857 237.787 290.696 238.124 288.352 238.124C286.191 238.124 284.03 237.611 282.067 236.731C279.906 235.864 277.943 234.456 276.357 233.061H275.78Z" fill="#005A35" stroke="#005A35" stroke-miterlimit="10" stroke-linejoin="round"/>
<path fill-rule="evenodd" clip-rule="evenodd" d="M332.795 247.462C331.841 247.462 330.887 247.659 329.98 248.002C328.637 248.789 327.295 249.379 325.934 250.347C323.621 251.705 321.129 253.082 318.427 254.049C317.261 254.327 316.098 254.475 314.948 254.475C313.606 254.475 312.261 254.278 310.919 253.852C308.41 252.689 306.291 250.739 305.127 248.199C304.948 248.002 304.755 248.002 304.755 248.002C304.366 248.002 304.366 248.199 304.366 248.397C304.948 251.705 306.875 254.639 309.755 256.392C311.55 257.245 313.573 257.719 315.643 257.719C316.889 257.719 318.152 257.539 319.398 257.179C320.936 256.787 322.471 256.195 323.816 255.229C325.175 254.442 326.322 253.671 327.488 252.689C328.831 251.705 329.787 250.739 330.95 249.952C332.1 249.181 333.265 248.592 334.608 248.592C334.801 248.592 334.997 248.397 334.997 248.397C335.19 248.199 334.997 247.807 334.801 247.807C334.154 247.56 333.475 247.462 332.795 247.462Z" fill="#005A35" stroke="#005A35" stroke-miterlimit="10" stroke-linejoin="round"/>
<path fill-rule="evenodd" clip-rule="evenodd" d="M333.247 239.226C333.087 239.226 332.967 239.277 332.967 239.38C332.034 240.609 331.555 241.819 331.316 243.253C331.078 244.464 331.078 245.879 331.316 247.108C331.793 249.942 333.685 252.177 336.53 253.61H336.769C337.007 253.61 337.246 253.404 337.246 252.995C337.007 251.785 336.53 250.76 336.292 249.753C335.813 248.526 335.574 247.519 335.336 246.494C334.877 244.26 334.4 242.23 333.685 239.583H333.923C333.685 239.583 333.685 239.38 333.685 239.38C333.566 239.277 333.387 239.226 333.247 239.226Z" fill="#005A35" stroke="#005A35" stroke-miterlimit="10" stroke-linejoin="round"/>
<path fill-rule="evenodd" clip-rule="evenodd" d="M310.869 257.719C310.695 257.719 310.518 257.915 310.695 258.303C310.869 260.033 311.56 261.766 312.617 263.303C313.661 264.856 315.07 266.198 316.643 266.975C318.082 267.605 319.535 267.977 320.989 267.977C321.283 267.977 321.591 267.961 321.885 267.93C323.633 267.735 325.204 267.153 326.6 266.198C326.951 266.005 326.951 265.421 326.437 265.421C324.85 265.228 323.456 265.421 322.06 265.049C320.666 264.856 319.256 264.468 318.037 263.884C315.409 262.542 313.147 260.422 311.4 257.915H311.223C311.223 257.719 311.046 257.719 310.869 257.719Z" fill="#005A35" stroke="#005A35" stroke-miterlimit="10" stroke-linejoin="round"/>
<path fill-rule="evenodd" clip-rule="evenodd" d="M266.016 276.229C265.829 276.229 265.642 276.4 265.642 276.587C263.246 292.683 263.604 308.965 266.575 324.874C268.053 333.015 271.026 340.785 275.461 347.808C279.91 355.033 286.773 360.392 294.738 362.987C298.318 364.044 302.006 364.555 305.709 364.555C310.407 364.555 315.09 363.717 319.556 362.055C327.151 358.917 334.199 354.659 340.313 349.113C352.358 338.005 362.362 325.248 370.142 310.815C370.142 310.55 369.94 310.379 369.692 310.379C369.597 310.379 369.488 310.394 369.396 310.441C365.131 317.294 360.495 323.756 355.314 329.863C350.318 336.155 344.748 341.888 338.648 347.077C332.721 352.251 325.858 356.321 318.452 359.104C314.375 360.657 310.049 361.465 305.74 361.465C302.409 361.465 299.08 360.982 295.844 360.02C288.436 357.612 282.135 352.625 277.873 346.146C273.796 339.309 270.652 332.084 269.174 324.315C267.321 316.548 266.388 308.591 266.016 300.637C265.642 292.683 265.642 284.728 266.388 276.772C266.388 276.587 266.203 276.4 266.016 276.229Z" fill="#005A35" stroke="#005A35" stroke-miterlimit="10" stroke-linejoin="round"/>
<path fill-rule="evenodd" clip-rule="evenodd" d="M256.137 274.158C255.947 274.158 255.76 274.349 255.571 274.538C252.95 293.638 253.326 313.102 256.875 331.994C258.569 341.648 262.117 350.712 267.344 359.032C272.587 367.541 280.607 373.971 289.962 376.987C294.121 378.304 298.375 378.939 302.645 378.939C308.155 378.939 313.663 377.877 318.923 375.859C327.901 372.271 336.127 367.161 343.22 360.54C357.427 347.506 369.198 332.185 378.349 315.181V314.801C378.271 314.707 378.177 314.657 378.084 314.657C377.99 314.657 377.895 314.707 377.8 314.801C372.747 322.93 367.331 330.677 361.35 338.044C355.369 345.427 348.825 352.22 341.73 358.461C338.183 361.492 334.258 364.144 330.506 366.779C326.583 369.24 322.297 371.32 317.997 373.019C313.209 374.813 308.203 375.717 303.18 375.717C299.177 375.717 295.157 375.146 291.265 373.971C282.49 370.938 275.004 365.27 269.965 357.332C265.099 349.395 261.552 340.503 259.683 331.439C257.627 322.168 256.513 312.722 256.137 303.084C255.571 293.638 255.76 284.176 256.685 274.538H256.513C256.513 274.349 256.324 274.158 256.137 274.158Z" fill="#005A35" stroke="#005A35" stroke-miterlimit="10" stroke-linejoin="round"/>
<path fill-rule="evenodd" clip-rule="evenodd" d="M390.208 226.913C390.11 226.913 390.013 226.96 389.914 227.055C385.216 233.084 377.778 237.039 369.959 237.783C369.007 237.878 368.071 237.925 367.12 237.925C364.163 237.925 361.239 237.467 358.431 236.47C354.72 235.141 351.188 233.258 348.266 230.821C348.151 230.71 348.036 230.663 347.937 230.663C347.69 230.663 347.542 230.932 347.674 231.185C350.022 234.777 353.538 237.403 357.446 239.113C360.697 240.52 364.36 241.264 367.973 241.264C368.694 241.264 369.435 241.25 370.156 241.17C374.657 240.806 378.763 239.287 382.474 236.85C386.006 234.397 388.732 231.185 390.685 227.419C390.685 227.23 390.685 227.055 390.488 227.055C390.389 226.96 390.291 226.913 390.208 226.913Z" fill="#005A35" stroke="#005A35" stroke-miterlimit="10" stroke-linejoin="round"/>
<path fill-rule="evenodd" clip-rule="evenodd" d="M342.31 400.532C331.25 409.82 309.49 418.896 309.49 418.896C312.035 418.976 314.432 419.009 316.717 419.009C355.881 419.009 358.817 408.65 358.817 408.65C358.817 408.65 350.84 413.278 343.909 413.278C342.815 413.278 341.755 413.163 340.759 412.904C333.387 410.972 342.31 400.548 342.31 400.532Z" fill="#005A35"/>
<path fill-rule="evenodd" clip-rule="evenodd" d="M293.517 283.405C262.477 283.405 236.755 285.347 235.13 289.582C231.378 300.01 233.445 338.678 233.445 338.678C233.445 338.678 365.637 340.939 383.097 345.301C393.237 347.769 401.122 355.539 404.136 365.583C417.082 348.342 428.721 319.145 428.721 319.145C428.721 319.145 424.591 305.501 404.136 293.944C392.022 287.274 337.439 283.405 293.517 283.405Z" fill="#F56038"/>
<path fill-rule="evenodd" clip-rule="evenodd" d="M404.356 293.696C403.792 295.212 403.418 296.54 403.042 297.882C397.838 314.24 391.321 330.024 383.506 345.231C393.556 347.708 401.37 355.504 404.356 365.583C417.187 348.283 428.721 318.985 428.721 318.985C428.721 318.985 424.628 305.293 404.356 293.696Z" fill="#E74645"/>
<path fill-rule="evenodd" clip-rule="evenodd" d="M293.821 285.657C300.427 285.657 307.621 285.754 315.415 285.963C359.938 287.106 395.967 291.125 404.839 296.11H405.03C422.379 306.064 427.671 317.546 428.606 320.039C426.91 324.058 417.292 347.617 406.155 363.31C402.384 354.129 394.462 347.231 385.036 344.931C368.24 340.717 251.281 338.418 235.815 338.031H235.626C235.246 330.763 234.31 299.745 237.511 290.932C238.953 288.505 257.3 285.657 293.821 285.657ZM294.882 282.394C268.471 282.394 245.844 283.728 238.272 286.543C236.576 286.913 235.055 288.07 234.31 289.598C230.35 300.323 232.425 338.224 232.425 339.946C232.425 340.717 233.169 341.49 234.121 341.49C235.435 341.49 366.924 343.789 384.084 348.178C393.702 350.477 401.26 357.762 403.889 367.331C404.078 367.909 404.459 368.472 405.219 368.665H405.6C405.964 368.472 406.535 368.295 406.916 367.718C420.113 350.477 431.442 321.759 431.806 320.616C431.806 320.423 431.806 320.232 431.806 320.232C431.806 320.039 431.806 319.653 431.806 319.459C431.633 318.896 427.291 304.73 406.344 293.038H406.155C393.194 286.109 338.819 282.394 294.882 282.394Z" fill="#005A35" stroke="#005A35" stroke-miterlimit="10" stroke-linejoin="round"/>
<path fill-rule="evenodd" clip-rule="evenodd" d="M398.395 315.272C398.272 315.272 398.177 315.317 398.177 315.411L394.47 323L390.576 330.404C390.017 331.711 389.472 333.001 388.911 334.291L387.056 337.992C385.749 340.59 384.456 343.187 383.162 345.597H383.35C382.478 346.935 383.662 348.133 384.768 348.133C385.327 348.133 385.874 347.823 386.123 347.075L390.017 339.486L391.87 335.598C392.431 334.291 393.179 333.188 393.724 331.881C394.657 329.3 395.764 326.516 396.512 323.933C397.445 321.151 398.177 318.553 398.926 315.783C398.926 315.598 398.926 315.411 398.739 315.411C398.646 315.317 398.506 315.272 398.395 315.272Z" fill="#005A35" stroke="#005A35" stroke-miterlimit="10" stroke-linejoin="round"/>
<path fill-rule="evenodd" clip-rule="evenodd" d="M305.686 299.844C304.839 299.844 304.037 300.376 303.825 301.332L303.114 305.071L299.514 305.431C297.896 305.618 297.168 307.669 298.424 308.984L301.132 311.394L299.514 314.947C298.862 316.293 299.968 317.795 301.389 317.795C301.541 317.795 301.693 317.762 301.858 317.731L305.46 316.433L307.442 319.595C307.88 320.127 308.501 320.376 309.105 320.376C309.983 320.376 310.83 319.844 311.042 318.859L311.753 315.118L315.353 314.758C316.988 314.758 317.699 312.52 316.443 311.394L313.735 308.795L315.353 305.431C315.989 303.991 314.992 302.536 313.659 302.536C313.448 302.536 313.236 302.567 313.024 302.645L309.591 303.756L307.442 300.783C306.973 300.142 306.307 299.844 305.686 299.844Z" fill="#F8C019" stroke="#005A35" stroke-width="2" stroke-miterlimit="10" stroke-linejoin="round"/>
<path fill-rule="evenodd" clip-rule="evenodd" d="M218.214 299.844C217.342 299.844 216.468 300.035 215.627 300.417C215.436 300.61 215.247 300.801 214.864 300.993L214.309 301.375C213.548 301.95 212.977 302.698 212.594 303.656L145.326 410.563C145.135 411.139 144.944 411.889 144.944 412.462C143.817 412.462 142.674 412.271 141.358 412.271C109.977 412.271 100.723 403.355 93.1676 402.015C91.6277 401.713 90.1515 401.553 88.7226 401.553C82.8979 401.553 77.8031 404.2 72.9448 410.757C66.8981 419.114 72.1841 425.19 72.1841 425.19H157.993C158.168 422.143 157.231 419.305 155.341 416.833C155.913 416.257 156.279 415.684 156.659 414.934L220.167 317.324L308.612 417.406C309.833 418.729 311.515 419.399 313.166 419.399C314.578 419.399 315.993 418.923 317.12 417.965C319.564 415.684 319.753 411.889 317.675 409.431L222.803 301.95C221.563 300.561 219.897 299.844 218.214 299.844Z" fill="#E6FFE6" stroke="#005A35" stroke-width="2" stroke-miterlimit="10" stroke-linejoin="round"/>
<path fill-rule="evenodd" clip-rule="evenodd" d="M425.734 266.966C424.513 266.966 423.291 267.334 422.228 268.086C419.595 269.991 419.025 273.799 420.913 276.663L457.557 327.917L385.965 400.501C383.522 402.79 383.522 406.598 385.965 409.078C387.106 410.214 388.613 410.79 390.153 410.79C391.691 410.79 393.245 410.214 394.468 409.078L469.455 333.054C471.342 331.341 471.914 328.493 470.771 326.206C470.581 325.628 470.215 324.86 469.835 324.301L430.732 269.43C429.478 267.815 427.607 266.966 425.734 266.966Z" fill="#6BB36B"/>
<path fill-rule="evenodd" clip-rule="evenodd" d="M433.872 278.282C433.748 278.282 433.658 278.328 433.658 278.416C433.292 278.595 433.292 278.773 433.475 278.952C436.384 283.543 439.46 288.148 442.55 292.559C445.626 296.988 448.716 301.414 451.975 305.828L461.582 319.094L466.288 325.823L468.832 329.004L469.928 330.772C470.277 331.127 470.46 331.485 470.643 332.004V332.183C471.373 333.609 471.009 335.376 469.928 336.433L465.024 341.2L455.416 350.591L436.201 369.339C423.335 381.892 410.635 394.624 397.951 407.194L398.134 407.015C396.87 408.233 397.982 409.779 399.216 409.779C399.579 409.779 399.976 409.631 400.311 409.304C413.178 396.749 426.044 384.196 438.925 371.626L458.143 352.878L467.75 343.325L472.454 338.734C474.449 336.433 474.998 333.252 473.902 330.593V330.772C473.552 330.058 473.186 329.36 472.637 328.647L471.556 327.056L469.015 323.699L464.126 317.148L454.518 304.058C451.245 299.647 447.986 295.218 444.544 290.971C441.088 286.722 437.646 282.487 434.205 278.416C434.114 278.328 433.976 278.282 433.872 278.282Z" fill="#005A35" stroke="#005A35" stroke-miterlimit="10" stroke-linejoin="round"/>
<path fill-rule="evenodd" clip-rule="evenodd" d="M423.396 268.01C423.129 268.01 422.862 268.074 422.578 268.232C419.383 270.503 418.456 275.044 420.516 278.441L425.757 285.998L436.251 300.748L456.105 328.725L418.456 366.91L399.166 386.756C396.161 389.98 392.982 393.377 389.789 396.775L387.54 399.426C386.61 400.172 385.856 401.317 385.478 402.634C384.55 405.096 385.305 407.937 387.367 409.637C387.445 409.731 387.54 409.779 387.634 409.779C387.729 409.779 387.821 409.731 387.916 409.637C388.105 409.446 388.105 409.255 387.916 409.063C386.61 407.366 386.234 405.285 386.989 403.205C387.54 402.443 388.105 401.506 389.049 400.934L391.473 398.475C394.855 395.458 398.223 392.234 401.401 389.027L420.894 369.37L459.851 330.233C460.606 329.487 460.606 328.534 460.041 327.771L439.256 298.477L428.761 283.919L423.505 276.743C422.2 274.853 422.767 272.202 424.638 270.883H424.451C425.709 269.771 424.733 268.01 423.396 268.01Z" fill="#005A35" stroke="#005A35" stroke-miterlimit="10" stroke-linejoin="round"/>
<path fill-rule="evenodd" clip-rule="evenodd" d="M394.797 386.164C390.178 386.164 389.69 388.782 391.512 389.629C403.675 395.789 402.734 409.035 402.734 409.035C402.734 409.035 401.806 410.901 404.054 412.203C405.042 412.641 406.081 412.844 407.101 412.844C409.144 412.844 411.093 412.014 412.461 410.524C414.346 408.283 410.968 390.177 400.863 387.198C398.348 386.446 396.337 386.164 394.797 386.164Z" fill="#D05121"/>
<path fill-rule="evenodd" clip-rule="evenodd" d="M369.547 382.054C365.859 382.054 361.712 382.546 357.123 383.748C356.743 383.939 334.507 391.492 325.849 394.503C320.563 396.196 316.797 399.965 316.038 404.115C315.674 407.14 316.797 409.959 319.25 411.669C321.752 413.301 324.632 414.108 327.513 414.108C329.632 414.108 331.769 413.664 333.763 412.793L340.726 409.024L340.346 408.264L333.382 412.224C331.579 413.015 329.601 413.411 327.638 413.411C324.885 413.411 322.116 412.635 319.821 411.1C317.557 409.594 316.416 406.949 316.797 404.304C318.11 399.775 321.513 396.387 326.024 395.261C334.696 392.236 357.123 384.508 357.312 384.508C361.792 383.306 365.859 382.829 369.5 382.829C383.536 382.829 391.039 389.972 391.039 389.972C391.228 389.972 401.025 391.112 403.099 399.601C405.363 407.884 402.166 410.34 402.166 410.34C402.166 410.529 394.33 420.238 386.275 420.238C385.864 420.238 385.436 420.205 385.009 420.141C376.526 419.017 372.95 415.057 372.95 415.057L372.759 414.677L372.381 415.057C372.381 415.249 368.803 420.901 367.109 423.546C366.159 425.052 367.109 425.985 368.234 426.937C370.306 428.25 371.445 430.894 371.067 433.35C371.067 435.614 369.373 437.69 367.3 438.433C366.729 438.608 366.145 438.703 365.559 438.703C363.659 438.703 361.807 437.801 360.509 436.358L359.196 435.045C354.67 430.325 345.063 420.521 352.976 411.48C361.648 401.105 366.159 398.651 366.159 398.651L365.795 397.891C365.606 398.08 361.27 400.536 352.407 410.909C344.113 420.521 353.926 430.705 358.626 435.614C359.196 435.978 359.576 436.549 359.956 436.929C361.459 438.433 363.343 439.385 365.606 439.574C366.159 439.574 366.92 439.574 367.489 439.385C369.942 438.433 371.636 436.358 371.826 433.73C372.189 430.894 371.067 428.25 368.803 426.556C367.489 425.432 367.109 425.052 367.679 424.292C369.184 422.027 372.015 417.513 372.759 416.183C376.147 419.017 380.483 420.901 385.009 421.282C385.453 421.329 385.911 421.362 386.355 421.362C394.536 421.362 402.18 412.002 402.719 411.289C403.099 410.72 406.122 407.884 404.049 399.412C401.786 391.112 392.542 389.419 391.419 389.228C390.533 388.484 383.031 382.054 369.547 382.054Z" fill="#222221"/>
<path fill-rule="evenodd" clip-rule="evenodd" d="M356.778 390.257C347.232 390.449 340.807 405.95 340.611 406.505C340.416 406.887 338.29 412.742 341.397 416.327C344.518 419.167 347.82 421.438 351.515 423.135L351.71 422.373C348.213 420.675 344.894 418.407 341.985 415.773C339.255 412.551 341.2 406.887 341.397 406.696C341.397 406.696 347.82 391.209 356.778 391.02V390.257Z" fill="#222221"/>
<path fill-rule="evenodd" clip-rule="evenodd" d="M371.538 416.97L370.974 417.392C372.099 419.276 372.288 421.579 371.538 423.462C370.051 426.188 369.114 426.4 369.114 426.4V427.245C369.488 427.245 370.598 427.033 372.099 423.885C373.209 421.579 372.835 418.871 371.538 416.97Z" fill="#222221"/>
<path fill-rule="evenodd" clip-rule="evenodd" d="M369.866 382.038C366.124 382.038 361.889 382.529 357.21 383.758C357.021 383.758 334.546 391.252 325.872 393.999C321.145 395.275 317.371 398.76 316.23 403.322C315.674 406.069 316.99 408.802 319.449 410.463C321.859 412.059 324.729 412.904 327.632 412.904C329.725 412.904 331.818 412.474 333.802 411.552L340.78 407.898L340.589 407.346L333.611 411.184C331.74 412.012 329.789 412.413 327.838 412.413C325.048 412.413 322.272 411.599 319.83 410.093C317.562 408.634 316.419 405.887 316.799 403.322C317.371 399.667 321.145 396.196 326.047 394.554C334.738 391.62 357.21 384.126 357.401 384.126C361.936 382.959 366.028 382.498 369.675 382.498C383.808 382.498 391.197 389.425 391.197 389.425C391.389 389.425 401.395 390.531 403.474 398.76C405.742 406.976 402.522 409.54 402.522 409.54C402.347 409.54 394.497 418.953 386.423 418.953C386.012 418.953 385.585 418.923 385.155 418.861C376.655 417.955 373.07 413.931 373.07 413.931L372.881 413.748L372.689 413.931C372.5 414.116 369.106 419.599 367.218 422.163C366.266 423.437 367.407 424.36 368.534 425.266C370.613 426.723 371.754 429.104 371.373 431.669C371.182 433.863 369.675 435.875 367.407 436.598C366.791 436.781 366.139 436.874 365.489 436.874C363.585 436.874 361.684 436.091 360.415 434.587L359.097 433.311C354.562 428.734 344.935 419.231 352.865 410.278C361.747 400.404 366.266 397.84 366.266 397.84L365.902 397.47C365.902 397.47 361.365 399.851 352.485 409.91C344.175 419.231 354.006 428.919 358.717 433.68L360.049 434.955C361.556 436.413 363.635 437.334 365.711 437.519C368.914 437.519 371.754 435.139 371.754 431.852C372.309 429.287 371.182 426.54 368.725 425.081C367.599 423.99 367.027 423.437 367.599 422.517C369.295 420.336 372.134 415.76 372.881 414.655C376.273 417.587 380.619 419.231 385.155 419.599C385.599 419.66 386.029 419.675 386.473 419.675C394.528 419.675 402.364 410.6 402.902 409.91C403.283 409.725 406.122 406.976 404.043 398.76C401.776 390.531 392.513 389.072 391.389 389.072C390.642 388.348 383.331 382.038 369.866 382.038Z" fill="#222221"/>
<path fill-rule="evenodd" clip-rule="evenodd" d="M356.778 392.312C347.232 392.493 341.004 407.009 340.611 407.535C340.611 407.896 338.274 413.446 341.592 416.847C344.501 419.36 347.82 421.51 351.514 423.121L351.71 422.759C348.017 421.15 344.699 418.999 341.985 416.502C339.059 413.268 341.004 407.896 341.199 407.715C341.199 407.535 347.624 393.034 356.778 392.855V392.312Z" fill="#222221"/>
<path fill-rule="evenodd" clip-rule="evenodd" d="M371.575 416.97L370.954 417.402C372.399 419.107 372.607 421.676 371.78 423.599C370.146 426.597 369.114 426.597 369.114 426.597V427.245C369.319 427.245 370.543 427.029 372.194 424.029C373.209 421.676 373.002 419.107 371.575 416.97Z" fill="#222221"/>
<path fill-rule="evenodd" clip-rule="evenodd" d="M370.308 382.038C366.55 382.038 362.317 382.533 357.613 383.774C357.613 383.774 335.046 391.151 326.392 394.11C317.755 397.055 313.618 405.548 320.012 410.167C322.414 411.887 325.288 412.723 328.146 412.723C330.183 412.723 332.235 412.304 334.114 411.453L341.062 407.578C341.062 407.578 338.804 413.483 341.82 416.798C344.631 419.572 347.836 421.602 351.216 423.447C352.526 426.034 354.043 428.437 355.923 430.467C357.802 432.312 359.492 433.97 360.423 435.07C361.891 436.666 363.896 437.503 365.808 437.503C368.571 437.503 371.16 435.752 371.713 431.94C372.093 429.538 371.145 427.136 369.077 425.663C369.077 425.663 370.214 425.663 371.713 422.888C372.644 421.045 372.282 418.828 371.145 417.17C372.282 415.511 373.024 414.227 373.024 414.227C373.024 414.227 376.591 418.288 385.245 419.387C385.673 419.449 386.082 419.465 386.51 419.465C394.736 419.465 402.727 409.608 402.727 409.608C402.727 409.608 406.122 407.206 403.864 398.73C401.605 390.05 391.641 388.951 391.641 388.951C391.641 388.951 384.378 382.038 370.308 382.038Z" fill="#D0EFBD"/>
<path fill-rule="evenodd" clip-rule="evenodd" d="M371.538 416.97L370.974 417.392C372.099 419.276 372.288 421.579 371.538 423.462C370.051 426.188 369.114 426.4 369.114 426.4V427.245C369.488 427.245 370.598 427.033 372.099 423.885C373.209 421.579 372.835 418.871 371.538 416.97Z" fill="#222221"/>
<path fill-rule="evenodd" clip-rule="evenodd" d="M371.575 416.97L370.954 417.402C372.399 419.107 372.607 421.676 371.78 423.599C370.146 426.597 369.114 426.597 369.114 426.597V427.245C369.319 427.245 370.543 427.029 372.194 424.029C373.209 421.676 373.002 419.107 371.575 416.97Z" fill="#222221"/>
<path fill-rule="evenodd" clip-rule="evenodd" d="M370.726 383.296C383.72 383.296 390.467 389.59 390.765 390.029C391.127 390.218 391.316 390.407 391.693 390.407C392.071 390.407 400.865 391.897 402.563 398.995C404.434 406.104 402.184 408.537 402.184 408.537C401.995 408.537 401.995 408.726 401.808 408.726C401.808 408.899 394.571 417.973 387.133 417.973C386.723 417.973 386.298 417.942 385.889 417.879C378.024 416.938 374.848 413.2 374.848 413.2C374.486 412.855 374.013 412.668 373.542 412.668C373.022 412.668 372.518 412.902 372.22 413.389C372.22 413.389 371.277 414.881 370.349 416.576C369.971 417.125 369.971 417.879 370.349 418.444C371.088 419.558 371.277 421.049 370.898 422.369C370.537 423.106 369.971 423.671 369.217 424.236C368.855 424.426 368.287 424.802 368.1 425.35C367.911 425.917 368.1 426.669 368.476 427.031C370.16 428.161 370.898 430.218 370.726 432.086C370.536 433.954 369.406 435.446 367.722 436.011C367.265 436.136 366.795 436.198 366.338 436.198C364.78 436.198 363.301 435.493 362.296 434.33C361.918 433.954 361.729 433.765 360.801 432.824C359.858 431.897 358.914 430.783 357.798 429.653C355.925 427.596 354.43 425.35 353.299 422.917C353.11 422.558 352.748 422.18 352.37 421.993C349.177 420.501 346.189 418.255 343.562 415.822C341.689 413.578 342.445 409.464 342.996 408.161C343.373 407.031 342.635 405.917 341.502 405.917C341.123 405.917 340.934 406.104 340.762 406.104L334.014 410.029C332.33 410.72 330.553 411.065 328.792 411.065C326.244 411.065 323.758 410.344 321.651 408.899C319.778 407.785 318.851 405.539 319.213 403.485C320.345 399.56 323.522 396.576 327.455 395.446C336.263 392.651 358.552 384.974 358.552 384.974C363.081 383.766 367.14 383.296 370.726 383.296ZM370.915 379.983C367.029 379.983 362.658 380.501 357.798 381.804C357.798 381.804 335.319 389.464 326.715 392.462C321.084 394.332 316.963 398.257 316.223 402.917C315.658 406.294 316.963 409.653 319.778 411.521C322.517 413.372 325.677 414.33 328.903 414.33C331.199 414.33 333.51 413.845 335.698 412.84L339.252 410.783C338.891 413.389 339.629 416.011 341.313 418.068C343.94 420.69 347.117 422.917 350.688 424.802C351.804 427.22 353.486 429.653 355.359 431.71C356.492 433.013 357.419 434.143 358.363 435.068C358.914 435.633 359.479 436.198 359.858 436.576C361.539 438.444 363.978 439.557 366.416 439.557C367.156 439.557 368.1 439.37 368.855 439.181C371.655 438.255 373.715 435.633 374.091 432.651C374.47 430.218 373.715 427.972 372.41 426.104C372.961 425.35 373.337 424.612 373.904 423.86C374.848 421.803 374.848 419.371 373.715 417.503L374.091 416.938C377.459 419.371 381.579 420.862 385.702 421.238C386.172 421.3 386.645 421.333 387.116 421.333C395.579 421.333 403.365 412.197 404.434 410.956C405.363 410.029 408.178 406.859 405.928 398.257C403.868 389.464 395.248 387.596 392.826 387.22C391.096 385.65 383.734 379.983 370.915 379.983Z" fill="#335A3A"/>
<path fill-rule="evenodd" clip-rule="evenodd" d="M394.797 386.164C390.178 386.164 389.69 388.782 391.512 389.629C403.675 395.789 402.734 409.035 402.734 409.035C402.734 409.035 401.806 410.901 404.054 412.203C405.042 412.641 406.081 412.844 407.101 412.844C409.144 412.844 411.093 412.014 412.461 410.524C414.346 408.283 410.968 390.177 400.863 387.198C398.348 386.446 396.337 386.164 394.797 386.164Z" fill="#D05121"/>
<path fill-rule="evenodd" clip-rule="evenodd" d="M371.112 414.916C370.296 414.916 369.478 415.407 369.307 416.49L367.28 425.278C367.074 426.26 367.689 427.031 368.489 427.228H368.898C369.716 427.228 370.516 426.836 370.722 426.065L372.749 417.079C373.209 415.752 372.169 414.916 371.112 414.916Z" fill="#335A3A"/>
<path fill-rule="evenodd" clip-rule="evenodd" d="M371.754 384.323C384.747 384.323 391.495 390.619 391.793 391.057C392.155 391.246 392.344 391.435 392.721 391.435C393.099 391.435 401.892 392.927 403.591 400.022C405.462 407.132 403.212 409.567 403.212 409.567C403.023 409.567 403.023 409.754 402.836 409.754C402.836 409.927 395.599 419.001 388.16 419.001C387.751 419.001 387.326 418.97 386.917 418.906C379.052 417.965 375.876 414.227 375.876 414.227C375.514 413.882 375.041 413.695 374.57 413.695C374.05 413.695 373.546 413.929 373.248 414.416C373.248 414.416 372.305 415.908 371.377 417.603C370.999 418.152 370.999 418.906 371.377 419.471C372.115 420.587 372.305 422.077 371.926 423.396C371.566 424.134 370.999 424.699 370.244 425.264C369.883 425.453 369.317 425.829 369.128 426.38C368.939 426.945 369.128 427.697 369.504 428.059C371.188 429.189 371.926 431.246 371.754 433.113C371.566 434.981 370.434 436.473 368.75 437.038C368.293 437.164 367.822 437.227 367.366 437.227C365.808 437.227 364.329 436.52 363.324 435.357C362.946 434.981 362.756 434.792 361.829 433.851C360.885 432.924 359.942 431.811 358.825 430.68C356.952 428.624 355.458 426.38 354.327 423.945C354.138 423.585 353.776 423.207 353.398 423.02C350.205 421.528 347.217 419.282 344.59 416.849C342.719 414.605 343.473 410.492 344.024 409.189C344.4 408.059 343.662 406.945 342.53 406.945C342.151 406.945 341.962 407.132 341.789 407.132L335.042 411.057C333.36 411.747 331.581 412.092 329.819 412.092C327.272 412.092 324.786 411.371 322.679 409.926C320.806 408.813 319.879 406.567 320.24 404.512C321.373 400.587 324.55 397.604 328.483 396.473C337.291 393.679 359.58 386.002 359.58 386.002C364.109 384.794 368.168 384.323 371.754 384.323ZM371.943 381.011C368.057 381.011 363.686 381.528 358.825 382.831C358.825 382.831 336.347 390.492 327.743 393.492C322.111 395.36 317.991 399.284 317.251 403.947C316.686 407.321 317.991 410.681 320.806 412.548C323.544 414.402 326.704 415.36 329.93 415.36C332.227 415.36 334.538 414.873 336.725 413.868L340.28 411.811C339.918 414.416 340.657 417.038 342.34 419.095C344.968 421.717 348.144 423.945 351.716 425.829C352.832 428.248 354.514 430.681 356.387 432.737C357.52 434.04 358.447 435.17 359.391 436.095C359.942 436.662 360.507 437.227 360.885 437.603C362.567 439.471 365.006 440.585 367.444 440.585C368.184 440.585 369.128 440.398 369.883 440.209C372.683 439.282 374.743 436.662 375.121 433.679C375.497 431.246 374.743 429 373.437 427.132C373.988 426.38 374.365 425.642 374.932 424.888C375.876 422.831 375.876 420.398 374.743 418.53L375.121 417.965C378.487 420.398 382.607 421.89 386.729 422.266C387.2 422.33 387.673 422.36 388.144 422.36C396.606 422.36 404.392 413.225 405.462 411.983C406.391 411.057 409.206 407.886 406.956 399.284C404.896 390.492 396.275 388.624 393.853 388.248C392.124 386.678 384.762 381.011 371.943 381.011Z" fill="#005A35" stroke="#005A35" stroke-miterlimit="10" stroke-linejoin="round"/>
<path fill-rule="evenodd" clip-rule="evenodd" d="M394.797 386.164C390.178 386.164 389.69 388.782 391.512 389.629C403.675 395.789 402.734 409.035 402.734 409.035C402.734 409.035 401.806 410.901 404.054 412.203C405.042 412.641 406.081 412.844 407.101 412.844C409.144 412.844 411.093 412.014 412.461 410.524C414.346 408.283 410.968 390.177 400.863 387.198C398.348 386.446 396.337 386.164 394.797 386.164Z" fill="#F56038" stroke="#005A35" stroke-width="2" stroke-miterlimit="10" stroke-linejoin="round"/>
<path fill-rule="evenodd" clip-rule="evenodd" d="M366.764 396.422C366.665 396.422 366.566 396.471 366.47 396.57C363.935 397.943 361.402 399.691 359.261 401.637C357.119 403.581 354.979 405.527 353.032 407.668C352.444 408.256 352.067 408.648 351.479 409.417C350.891 410.005 350.499 410.79 350.122 411.558C349.534 412.931 348.946 414.484 348.749 416.036C348.554 417.786 348.554 419.338 348.749 420.908C348.749 421.676 348.946 422.461 349.142 423.244C349.534 424.013 349.142 425.19 351.087 425.19C351.284 425.19 351.479 424.995 351.677 424.797C353.424 423.425 352.444 423.049 352.444 422.461C352.248 421.871 352.067 421.103 352.067 420.515C351.872 419.159 351.872 417.982 352.067 416.625C352.248 415.253 352.444 414.092 353.032 412.931C353.622 411.753 354.21 410.594 355.174 409.612C357.119 407.471 358.869 405.33 360.814 403.189C362.58 401.047 364.704 399.104 366.846 397.353L367.041 397.158C367.041 396.962 367.041 396.765 367.041 396.57C366.943 396.471 366.846 396.422 366.764 396.422Z" fill="#005A35"/>
<path fill-rule="evenodd" clip-rule="evenodd" d="M356.181 392.312C354.016 392.312 352.049 392.842 350.262 393.888C348.494 394.949 346.921 396.171 345.55 397.571C344.16 398.984 342.789 400.384 341.796 401.96C340.622 403.536 339.631 405.112 338.654 406.704V406.865C338.274 407.985 339.25 408.751 340.274 408.751C340.854 408.751 341.448 408.5 341.796 407.927C342.392 406.174 343.185 404.596 344.16 403.182C344.954 401.606 345.93 400.03 347.121 398.808C348.295 397.232 349.485 395.995 351.056 394.949C352.429 393.888 354.397 393.196 356.181 393.019C356.761 393.019 356.761 392.312 356.181 392.312Z" fill="#005A35"/>
<path fill-rule="evenodd" clip-rule="evenodd" d="M177.26 94.3751C163.514 94.3751 165.615 100.677 165.615 100.677C165.615 100.677 168.855 113.479 169.818 117.02C170.763 120.558 177.838 120.957 177.838 120.957C177.838 120.957 179.105 121.072 181.031 121.072C184.88 121.072 191.328 120.626 195.403 117.996C197.504 116.424 198.466 113.678 197.888 111.114C197.888 111.114 195.209 103.423 194.07 99.4855C192.74 95.5505 190.061 94.3751 177.26 94.3751Z" fill="#F56038" stroke="#005A35" stroke-width="2" stroke-miterlimit="10" stroke-linejoin="round"/>
<defs>
<filter id="filter0_f_15_785" x="0.0012207" y="0.109741" width="483.335" height="453.559" filterUnits="userSpaceOnUse" color-interpolation-filters="sRGB">
<feFlood flood-opacity="0" result="BackgroundImageFix"/>
<feBlend mode="normal" in="SourceGraphic" in2="BackgroundImageFix" result="shape"/>
<feGaussianBlur stdDeviation="2" result="effect1_foregroundBlur_15_785"/>
</filter>
</defs>
</svg>
