<svg width="618" height="406" viewBox="0 0 618 406" fill="none" xmlns="http://www.w3.org/2000/svg">
<path fill-rule="evenodd" clip-rule="evenodd" d="M373.01 110.01L375.96 148.04L391.67 351.03L392.66 363.71C392.98 367.83 396.42 371 400.83 371H566.17C570.42 371 574.02 367.83 574.34 363.71L575.33 351.03L591.05 148.04L593.99 110.01H373.01Z" fill="#E74645"/>
<path fill-rule="evenodd" clip-rule="evenodd" d="M373.01 110.01L375.96 148.04L391.67 351H575.33L591.05 148.04L593.99 110.01H373.01Z" fill="#01C3B4"/>
<path fill-rule="evenodd" clip-rule="evenodd" d="M373.01 110.01L375.96 148.04L391.67 351H575.33L591.05 148.04L593.99 110.01H373.01Z" fill="#F56038"/>
<path fill-rule="evenodd" clip-rule="evenodd" d="M373.01 110.01L375.96 148H591.05L593.99 110.01H373.01Z" fill="#E74645"/>
<path fill-rule="evenodd" clip-rule="evenodd" d="M588.68 114.22L569.54 363.76C569.37 365.51 567.91 366.78 566.1 366.78H400.88C399.09 366.78 397.45 365.51 397.45 363.76L378.15 114.22H588.68ZM368 105.01L387.97 364.4C388.45 370.91 394.18 376 400.88 376H566.1C572.81 376 578.53 370.91 579.03 364.4L598.99 105.01H368Z" fill="#005A35"/>
<path fill-rule="evenodd" clip-rule="evenodd" d="M374.16 90.0098C368.43 90.0098 363.19 92.1798 359.24 95.8898C357.27 97.7498 355.63 100.07 354.65 102.56C353.49 104.89 353 107.36 353 109.99C353 121.16 362.52 129.99 374.16 129.99H591.81C597.57 129.99 602.81 127.82 606.76 124.1C610.52 120.53 613 115.57 613 109.99C613 107.36 612.49 104.89 611.35 102.56C608.39 95.2798 600.67 90.0098 591.81 90.0098H374.16Z" fill="#E74645"/>
<path fill-rule="evenodd" clip-rule="evenodd" d="M374.55 90.0098C368.81 90.0098 363.56 92.1597 359.61 95.8297C357.64 97.6697 356 99.9698 355.01 102.43C357.96 109.79 365.68 115 374.55 115H592.43C598.19 115 603.44 112.71 607.39 109.17C609.36 107.33 611 105.03 611.99 102.43C609.03 95.2198 601.3 90.0098 592.43 90.0098H374.55Z" fill="#F56038"/>
<path fill-rule="evenodd" clip-rule="evenodd" d="M592.02 94.1801C598.76 94.1801 604.69 98.14 607.31 104.15C607.98 106.05 608.46 107.95 608.46 110C608.46 114.28 606.66 118.23 603.53 121.24C600.41 124.23 596.29 125.82 592.02 125.82H373.98C364.95 125.82 357.55 118.7 357.55 110C357.55 107.95 358.05 106.05 358.87 104.15C359.52 102.08 360.84 100.36 362.48 98.77C365.61 95.76 369.72 94.1801 373.98 94.1801H592.02ZM373.98 85C367.08 85 360.67 87.54 355.75 92.28C353.12 94.82 351.14 97.66 349.99 100.67C348.66 103.67 348.01 106.84 348.01 110C348.01 123.77 359.7 134.99 373.98 134.99H592.02C598.93 134.99 605.34 132.46 610.28 127.72C615.21 122.97 618 116.64 618 110C618 106.84 617.34 103.67 616.02 100.82C612.09 91.1799 602.71 85 592.02 85H373.98Z" fill="#005A35"/>
<path fill-rule="evenodd" clip-rule="evenodd" d="M457.79 245C457.39 245 456.99 245.06 456.62 245.16L447.72 247.86C445.23 248.5 443.91 251.03 444.75 253.25C445.23 255.16 446.88 256.26 448.69 256.26L435.85 278.48C435.01 279.75 435.01 281.5 435.85 282.77C436.65 284.04 438.15 284.99 439.79 284.99H477.53C480.02 284.99 482 282.92 482 280.55C482 278.16 480.02 276.26 477.53 276.26H447.53L456.43 260.87C457.27 261.97 458.58 262.46 459.91 262.46H460.89C463.37 261.97 464.85 259.6 464.36 257.22L462.38 248.5C462.04 247.23 461.39 246.28 460.24 245.64C459.45 245.22 458.61 245 457.79 245Z" fill="white"/>
<path fill-rule="evenodd" clip-rule="evenodd" d="M509.53 247.01C508.81 247.01 508.08 247.18 507.37 247.53C505.24 248.82 504.42 251.54 505.73 253.64L518.52 276.02H503.44C504.26 274.4 503.93 272.48 502.62 271.18C501.74 270.24 500.53 269.75 499.31 269.75C498.27 269.75 497.22 270.12 496.38 270.86L489.49 277.15C488.51 277.95 488.01 279.24 488.01 280.37C488.01 281.66 488.51 282.78 489.49 283.59L496.38 289.87C497.2 290.67 498.35 291 499.34 291C500.65 291 501.79 290.5 502.62 289.54C503.93 288.25 504.26 286.32 503.44 284.88H526.25C527.89 284.88 529.35 283.91 530.18 282.62C531 281.34 531 279.56 530.18 278.27L513.61 249.29C512.69 247.85 511.15 247.01 509.53 247.01Z" fill="white"/>
<path fill-rule="evenodd" clip-rule="evenodd" d="M482.94 200.01C481.31 200.01 479.83 200.8 479.01 202.25L461.15 233.15C460.01 235.39 460.66 237.95 462.78 239.23C463.49 239.58 464.23 239.74 464.95 239.74C466.57 239.74 468.1 238.91 469.01 237.48L482.94 213.29L492.12 228.99C490.48 229.3 489.17 230.27 488.52 231.86C487.54 234.1 488.85 236.67 491.14 237.48L499.82 240.84C500.31 241 500.8 241 501.45 241C502.11 241 502.76 241 503.42 240.68C504.57 240.04 505.39 239.08 505.71 237.95L508.34 229.15C508.99 226.91 507.68 224.34 505.39 223.71C504.99 223.61 504.61 223.57 504.22 223.57C502.67 223.57 501.22 224.31 500.31 225.46L486.88 202.25C486.05 200.8 484.58 200.01 482.94 200.01Z" fill="white"/>
<path fill-rule="evenodd" clip-rule="evenodd" d="M458.01 244.52C458.82 244.52 459.65 244.67 460.32 245.15C461.46 245.79 462.12 246.74 462.46 248.01L464.44 256.72C464.93 259.11 463.45 261.48 460.97 261.97H459.99C458.66 261.97 457.35 261.48 456.51 260.37L447.61 275.76H477.61C480.1 275.76 482.08 277.67 482.08 280.05C482.08 282.42 480.1 284.49 477.61 284.49H439.87C438.23 284.49 436.73 283.54 435.92 282.27C435.09 281 435.09 279.25 435.92 277.98L448.77 255.77C446.96 255.77 445.31 254.67 444.82 252.76C443.99 250.54 445.31 248.01 447.79 247.37L456.69 244.67C457.18 244.52 457.5 244.52 458.01 244.52ZM458.01 238C456.85 238 455.86 238.17 454.71 238.49L445.81 241.17C439.7 242.93 436.41 248.96 438.23 254.67C438.56 255.93 439.22 256.89 439.87 257.84L429.98 274.81C428.01 278.15 428.01 282.27 430.14 285.6C432.12 288.93 435.75 290.99 439.87 290.99H477.61C483.88 290.99 489 286.08 489 280.05C489 274.02 483.88 269.27 477.61 269.27H459.16L459.48 268.63H459.99C460.8 268.63 461.63 268.46 462.46 268.31C465.41 267.67 467.9 265.93 469.54 263.55C471.2 261.16 471.68 258.15 471.02 255.31L469.05 246.57C468.39 243.57 466.4 241.02 463.77 239.44C461.96 238.49 459.99 238 458.01 238Z" fill="#005A35"/>
<path fill-rule="evenodd" clip-rule="evenodd" d="M509.49 247.47C510.98 247.47 512.62 248.27 513.45 249.68L530.08 278.07C530.91 279.33 530.91 281.08 530.08 282.34C529.25 283.6 527.78 284.54 526.14 284.54H503.24C504.07 285.95 503.73 287.85 502.42 289.11C501.58 290.05 500.44 290.54 499.12 290.54C498.13 290.54 496.98 290.22 496.15 289.43L489.24 283.28C488.25 282.49 487.76 281.39 487.76 280.13C487.76 279.02 488.25 277.76 489.24 276.97L496.15 270.81C496.98 270.18 498.13 269.72 499.12 269.72C500.44 269.72 501.58 270.18 502.42 271.13C503.73 272.4 504.07 274.28 503.24 275.86H518.38L505.54 253.94C504.23 251.89 505.05 249.22 507.18 247.96C508.02 247.63 508.68 247.47 509.49 247.47ZM509.49 241.01C507.52 241.01 505.54 241.47 503.89 242.27C498.46 245.26 496.49 251.89 499.61 257.1L503.89 264.19C502.42 263.56 500.78 263.25 499.12 263.25C496.31 263.25 493.52 264.35 491.55 266.09L484.63 272.24C482.33 274.28 481.01 277.12 481.01 280.13C481.01 283.12 482.33 286.13 484.63 288.17L491.55 294.16C493.52 296.05 496.31 297 499.12 297C502.25 297 505.39 295.74 507.52 293.53C508.17 292.75 508.84 291.95 509.33 291H526.14C530.24 291 533.86 288.96 536.01 285.64C537.99 282.34 537.99 278.23 536.01 274.92L519.37 246.52C517.23 243.06 513.45 241.01 509.49 241.01Z" fill="#005A35"/>
<path fill-rule="evenodd" clip-rule="evenodd" d="M482.92 200.42C484.58 200.42 486.06 201.19 486.89 202.61L500.45 225.26C501.27 224.17 502.76 223.39 504.25 223.39C504.58 223.39 505.07 223.39 505.57 223.55C507.88 224.17 509.21 226.68 508.55 228.86L505.9 237.45C505.57 238.55 504.75 239.49 503.59 240.12C502.92 240.43 502.26 240.43 501.6 240.43C500.94 240.43 500.45 240.43 499.95 240.27L491.19 236.99C488.88 236.2 487.56 233.7 488.55 231.51C489.21 229.95 490.53 229.01 492.19 228.7L482.92 213.38L468.87 236.99C468.05 238.39 466.4 239.18 464.9 239.18C464.08 239.18 463.42 239.02 462.59 238.7C460.44 237.45 459.79 234.95 460.94 232.77L478.96 202.61C479.79 201.19 481.27 200.42 482.92 200.42ZM482.92 194.01C478.79 194.01 474.99 196.05 473 199.48L454.98 229.64C452 234.81 453.83 241.37 459.28 244.33C460.94 245.11 462.91 245.58 464.9 245.58C469.04 245.58 472.68 243.55 474.82 240.12L482.92 226.52L483.26 227.13C482.92 227.76 482.43 228.38 482.27 229.17C479.95 234.63 482.92 240.89 488.71 242.92L497.48 246.2C498.8 246.68 500.12 246.99 501.6 246.99C503.26 246.99 505.07 246.52 506.56 245.89C509.37 244.49 511.52 242.15 512.35 239.33L515.15 230.74C515.99 227.92 515.66 225.11 514.17 222.61C512.68 220.12 510.37 218.24 507.4 217.45C506.41 217.14 505.24 216.99 504.25 216.99H503.26L492.84 199.48C490.87 196.05 487.05 194.01 482.92 194.01Z" fill="#005A35"/>
<path fill-rule="evenodd" clip-rule="evenodd" d="M24.0098 110.01L26.9697 148.04L42.5897 351.03L43.5797 363.71C43.9197 367.83 47.5298 371 51.8098 371H218.2C222.47 371 226.09 367.83 226.25 363.71L227.24 351.03L243.03 148.04L246 110.01H24.0098Z" fill="#8C979E"/>
<path fill-rule="evenodd" clip-rule="evenodd" d="M24.0098 110.01L26.9697 148.04L42.5897 351H227.24L243.03 148.04L246 110.01H24.0098Z" fill="#8C979E"/>
<path fill-rule="evenodd" clip-rule="evenodd" d="M24.0098 110.01L26.9697 148.04L42.5897 351H227.24L243.03 148.04L246 110.01H24.0098Z" fill="#E4ECF2"/>
<path fill-rule="evenodd" clip-rule="evenodd" d="M24.0098 110.01L26.9697 148H243.03L246 110.01H24.0098Z" fill="#8C979E"/>
<path fill-rule="evenodd" clip-rule="evenodd" d="M240.8 114.22L221.56 363.76C221.41 365.51 219.91 366.78 218.12 366.78H51.8998C50.0898 366.78 48.6097 365.51 48.4497 363.76L29.1997 114.22H240.8ZM19.0098 105.01L39.0697 364.4C39.5697 370.91 45.1598 376 51.8998 376H218.12C224.85 376 230.44 370.91 230.93 364.4L250.99 105.01H19.0098Z" fill="#005A35"/>
<path fill-rule="evenodd" clip-rule="evenodd" d="M26.1997 90.0098C20.4497 90.0098 15.0397 92.1798 11.2397 95.8898C9.12975 97.7498 7.63975 100.07 6.48975 102.56C5.50975 104.89 5.00977 107.36 5.00977 109.99C5.00977 121.16 14.5297 129.99 26.1997 129.99H243.81C249.72 129.99 254.98 127.82 258.76 124.1C262.7 120.53 265 115.57 265 109.99C265 107.36 264.49 104.89 263.52 102.56C260.4 95.2798 252.85 90.0098 243.81 90.0098H26.1997Z" fill="#8C979E"/>
<path fill-rule="evenodd" clip-rule="evenodd" d="M25.71 90.0098C19.96 90.0098 14.54 92.1597 10.75 95.8297C8.63 97.6697 7.14 99.9698 6 102.43C9.12 109.79 16.67 115 25.71 115H243.29C249.2 115 254.46 112.71 258.24 109.17C260.37 107.33 262.01 105.03 263 102.43C259.88 95.2198 252.33 90.0098 243.29 90.0098H25.71Z" fill="white"/>
<path fill-rule="evenodd" clip-rule="evenodd" d="M109.79 245C109.38 245 108.98 245.06 108.6 245.16L99.5396 247.86C97.2296 248.5 95.9095 251.03 96.5695 253.25C97.2295 255.16 98.8695 256.26 100.69 256.26L87.6596 278.48C87.0096 279.75 87.0095 281.5 87.8195 282.77C88.6495 284.04 90.1296 284.99 91.6296 284.99H129.54C132.01 284.99 133.99 282.92 133.99 280.55C133.99 278.16 132.01 276.26 129.54 276.26H99.3696L108.44 260.87C109.26 261.97 110.58 262.46 111.9 262.46H112.89C115.36 261.97 116.85 259.6 116.35 257.22L114.37 248.5C114.05 247.23 113.21 246.28 112.22 245.64C111.46 245.22 110.61 245 109.79 245Z" fill="white"/>
<path fill-rule="evenodd" clip-rule="evenodd" d="M161.45 247.01C160.74 247.01 160.02 247.18 159.37 247.53C157.23 248.82 156.41 251.54 157.55 253.64L170.52 276.02H155.42C156.08 274.4 155.92 272.48 154.61 271.18C153.72 270.24 152.47 269.75 151.2 269.75C150.12 269.75 149.04 270.12 148.21 270.86L141.31 277.15C140.49 277.95 140 279.24 140 280.37C140 281.66 140.49 282.78 141.31 283.59L148.21 289.87C149.2 290.67 150.18 291 151.32 291C152.48 291 153.79 290.5 154.61 289.54C155.92 288.25 156.08 286.32 155.42 284.88H178.23C179.86 284.88 181.35 283.91 182.17 282.62C182.99 281.34 182.99 279.56 182.17 278.27L165.42 249.29C164.64 247.85 163.06 247.01 161.45 247.01Z" fill="white"/>
<path fill-rule="evenodd" clip-rule="evenodd" d="M135.03 200.01C133.39 200.01 131.93 200.8 131.1 202.25L113.32 233.15C112.01 235.39 112.83 237.95 114.95 239.23C115.6 239.58 116.32 239.74 117.02 239.74C118.63 239.74 120.19 238.91 120.98 237.48L135.03 213.29L144.01 228.99C142.54 229.3 141.07 230.27 140.58 231.86C139.6 234.1 140.75 236.67 143.03 237.48L151.68 240.84C152.34 241 152.83 241 153.32 241C153.97 241 154.79 241 155.27 240.68C156.43 240.04 157.23 239.08 157.73 237.95L160.34 229.15C161 226.91 159.68 224.34 157.23 223.71C156.85 223.61 156.45 223.57 156.07 223.57C154.54 223.57 153.12 224.31 152.34 225.46L138.94 202.25C138.14 200.8 136.66 200.01 135.03 200.01Z" fill="white"/>
<path fill-rule="evenodd" clip-rule="evenodd" d="M244 94.1801C250.91 94.1801 256.82 98.14 259.31 104.15C260.12 106.05 260.45 107.95 260.45 110C260.45 114.28 258.8 118.23 255.68 121.24C252.55 124.23 248.45 125.82 244 125.82H26C16.95 125.82 9.55005 118.7 9.55005 110C9.55005 107.95 9.86994 106.05 10.6899 104.15C11.5199 102.08 12.6701 100.36 14.3101 98.77C17.4401 95.76 21.55 94.1801 26 94.1801H244ZM26 85C19.09 85 12.5099 87.54 7.56995 92.28C5.09995 94.82 3.12006 97.66 1.81006 100.67C0.660059 103.67 0 106.84 0 110C0 123.77 11.68 134.99 26 134.99H244C250.91 134.99 257.49 132.46 262.42 127.72C267.36 122.97 269.99 116.64 269.99 110C269.99 106.84 269.34 103.67 268.19 100.82C264.24 91.1799 254.69 85 244 85H26Z" fill="#005A35"/>
<path fill-rule="evenodd" clip-rule="evenodd" d="M110.08 244.52C110.91 244.52 111.58 244.67 112.39 245.15C113.38 245.79 114.22 246.74 114.54 248.01L116.53 256.72C117.03 259.11 115.54 261.48 113.05 261.97H112.06C110.74 261.97 109.42 261.48 108.6 260.37L99.5096 275.76H129.75C132.22 275.76 134.21 277.67 134.21 280.05C134.21 282.42 132.22 284.49 129.75 284.49H91.7396C90.2396 284.49 88.7696 283.54 87.9296 282.27C87.1196 281 87.1196 279.25 87.7696 277.98L100.83 255.77C99.0095 255.77 97.3595 254.67 96.6995 252.76C96.0395 250.54 97.3596 248.01 99.6796 247.37L108.76 244.67C109.08 244.52 109.59 244.52 110.08 244.52ZM110.08 238C108.93 238 107.76 238.17 106.77 238.49L97.6895 241.17C91.7395 242.93 88.4396 248.96 90.2396 254.67C90.5796 255.93 91.0796 256.89 91.8996 257.84L81.9896 274.81C79.9996 278.15 79.9996 282.27 81.9896 285.6C83.9696 288.93 87.7696 290.99 91.7396 290.99H129.75C135.87 290.99 140.99 286.08 140.99 280.05C140.99 274.02 135.87 269.27 129.75 269.27H111.24L111.58 268.63H112.06C112.9 268.63 113.72 268.46 114.54 268.31C117.52 267.67 119.99 265.93 121.65 263.55C123.3 261.16 123.81 258.15 123.14 255.31L121.16 246.57C120.5 243.57 118.52 241.02 115.69 239.44C114.05 238.49 112.06 238 110.08 238Z" fill="#005A35"/>
<path fill-rule="evenodd" clip-rule="evenodd" d="M161.42 247.47C163.05 247.47 164.55 248.27 165.35 249.68L182.12 278.07C182.94 279.33 182.94 281.08 182.12 282.34C181.3 283.6 179.81 284.54 178.17 284.54H155.34C156 285.95 155.83 287.85 154.52 289.11C153.7 290.05 152.39 290.54 151.23 290.54C150.09 290.54 149.1 290.22 148.12 289.43L141.21 283.28C140.39 282.49 139.9 281.39 139.9 280.13C139.9 279.02 140.39 277.76 141.21 276.97L148.12 270.81C149.1 270.18 150.09 269.72 151.23 269.72C152.39 269.72 153.7 270.18 154.52 271.13C155.83 272.4 156 274.28 155.34 275.86H170.45L157.47 253.94C156.32 251.89 157.14 249.22 159.29 247.96C159.94 247.63 160.75 247.47 161.42 247.47ZM161.42 241.01C159.61 241.01 157.64 241.47 156 242.27C150.57 245.26 148.6 251.89 151.73 257.1L155.83 264.19C154.35 263.56 152.87 263.25 151.23 263.25C148.44 263.25 145.64 264.35 143.52 266.09L136.61 272.24C134.31 274.28 133 277.12 133 280.13C133 283.12 134.31 286.13 136.61 288.17L143.52 294.16C145.64 296.05 148.44 297 151.23 297C154.35 297 157.31 295.74 159.44 293.53C160.27 292.75 160.92 291.95 161.26 291H178.17C182.12 291 185.9 288.96 187.87 285.64C189.84 282.34 190 278.23 188.03 274.92L171.27 246.52C169.3 243.06 165.53 241.01 161.42 241.01Z" fill="#005A35"/>
<path fill-rule="evenodd" clip-rule="evenodd" d="M135.09 200.42C136.74 200.42 138.24 201.19 139.05 202.61L152.62 225.26C153.45 224.17 154.77 223.39 156.42 223.39C156.76 223.39 157.24 223.39 157.57 223.55C160.05 224.17 161.39 226.68 160.72 228.86L158.08 237.45C157.57 238.55 156.76 239.49 155.59 240.12C155.1 240.43 154.27 240.43 153.61 240.43C153.11 240.43 152.62 240.43 151.95 240.27L143.19 236.99C140.88 236.2 139.72 233.7 140.71 231.51C141.21 229.95 142.7 229.01 144.19 228.7L135.09 213.38L120.87 236.99C120.05 238.39 118.56 239.18 116.91 239.18C116.25 239.18 115.42 239.02 114.77 238.7C112.61 237.45 111.79 234.95 113.11 232.77L131.12 202.61C131.95 201.19 133.43 200.42 135.09 200.42ZM135.09 194.01C130.96 194.01 127.16 196.05 125.17 199.48L107.16 229.64C104.01 234.81 106 241.37 111.46 244.33C113.11 245.11 115.09 245.58 116.91 245.58C121.04 245.58 124.84 243.55 126.82 240.12L135.09 226.52L135.42 227.13C134.93 227.76 134.61 228.38 134.27 229.17C132.11 234.63 134.93 240.89 140.71 242.92L149.48 246.2C150.8 246.68 152.28 246.99 153.61 246.99C155.43 246.99 157.09 246.52 158.56 245.89C161.54 244.49 163.7 242.15 164.51 239.33L167.16 230.74C168 227.92 167.66 225.11 166.34 222.61C164.85 220.12 162.38 218.24 159.56 217.45C158.41 217.14 157.41 216.99 156.42 216.99H155.43L144.85 199.48C142.87 196.05 139.05 194.01 135.09 194.01Z" fill="#005A35"/>
<path fill-rule="evenodd" clip-rule="evenodd" d="M153.01 33.0098L157.11 86.4597L179.29 372.6L180.6 390.68C181.08 396.4 186.01 401 192.09 401H425.75C431.82 401 436.91 396.4 437.23 390.68L438.71 372.6L460.89 86.4597L464.99 33.0098H153.01Z" fill="#6BB36B"/>
<path fill-rule="evenodd" clip-rule="evenodd" d="M153.01 33.0098L157.11 86.5198L179.29 372.99H438.71L460.89 86.5198L464.99 33.0098H153.01Z" fill="#99FF99"/>
<path fill-rule="evenodd" clip-rule="evenodd" d="M153.01 33.0098L157.11 86.9897H460.89L464.99 33.0098H153.01Z" fill="#6BB36B"/>
<path fill-rule="evenodd" clip-rule="evenodd" d="M460.8 38.1997L433.48 390.77C433.16 394.11 430.19 396.8 426.58 396.8H192.42C188.96 396.8 186 394.11 185.67 390.77L158.36 38.1997H460.8ZM148 29.0098L176.14 391.4C176.79 399.5 184.03 405.99 192.42 405.99H426.58C435.12 405.99 442.21 399.5 442.86 391.4L471 29.0098H148Z" fill="#005A35"/>
<path fill-rule="evenodd" clip-rule="evenodd" d="M155.88 5.00977C147.67 5.00977 140.28 8.1398 134.87 13.2998C131.75 16.2698 129.29 20.0397 127.8 24.1097C126.66 27.0797 126.01 30.2098 126.01 33.4998C126.01 49.1498 139.47 61.9897 155.88 61.9897H462.12C470.49 61.9897 477.88 58.6998 483.29 53.5398C488.72 48.3598 491.99 41.3198 491.99 33.4998C491.99 30.2098 491.49 27.0797 490.35 24.1097C486.24 12.9797 475.25 5.00977 462.12 5.00977H155.88Z" fill="#6BB36B"/>
<path fill-rule="evenodd" clip-rule="evenodd" d="M156.03 5.00977C147.83 5.00977 140.46 8.11977 135.06 13.2598C131.94 16.2098 129.49 19.9498 128 23.9998C131.94 35.0398 143.08 42.9897 156.03 42.9897H461.81C470.17 42.9897 477.55 39.8797 482.95 34.7297C486.06 31.7797 488.52 28.0498 490 23.9998C485.89 12.9398 474.92 5.00977 461.81 5.00977H156.03Z" fill="#99FF99"/>
<path fill-rule="evenodd" clip-rule="evenodd" d="M274.18 221C273.56 221 272.96 221.09 272.36 221.27L259.66 225.14C256.36 226.11 254.38 229.65 255.53 232.88C256.36 235.45 258.67 237.07 261.32 237.22L242.99 268.8C242 270.59 242 272.99 243.16 274.93C244.15 276.85 246.29 278 248.6 278H301.73C305.2 278 308 275.25 308 271.71C308 268.33 305.2 265.58 301.73 265.58H259.49L272.03 243.67C273.36 245.12 275 246.09 276.98 246.09C277.48 246.09 277.97 245.92 278.3 245.92C281.77 245.12 283.91 241.9 283.26 238.51L280.45 225.94C279.96 224.18 278.96 222.71 277.31 221.92C276.37 221.3 275.28 221 274.18 221Z" fill="white"/>
<path fill-rule="evenodd" clip-rule="evenodd" d="M346.17 225.01C345.12 225.01 344.05 225.26 343.06 225.77C340.12 227.53 338.98 231.17 340.78 234.2L358.71 265.17H337.52C338.66 262.95 338.18 260.41 336.54 258.5C335.25 257.25 333.56 256.61 331.86 256.61C330.33 256.61 328.8 257.13 327.57 258.18L317.96 266.77C316.66 267.89 316 269.62 316 271.22C316 272.96 316.66 274.71 317.96 275.83L327.57 284.41C328.87 285.51 330.34 286 331.81 286C333.6 286 335.24 285.36 336.54 284.09C338.18 282.18 338.66 279.64 337.52 277.42H369.47C371.75 277.42 373.71 276.29 374.84 274.39C375.99 272.48 375.99 270.11 374.84 268.35L351.7 228.15C350.48 226.11 348.36 225.01 346.17 225.01Z" fill="white"/>
<path fill-rule="evenodd" clip-rule="evenodd" d="M309.29 159C306.99 159 305.02 160.11 303.88 162.02L278.65 205.08C277.01 208.08 278 211.73 281.09 213.46C282.1 213.97 283.18 214.23 284.23 214.23C286.43 214.23 288.51 213.13 289.62 211.09L309.29 177.54L322.07 199.38C319.95 199.69 317.98 201.12 317.15 203.18C315.84 206.35 317.49 209.83 320.76 211.09L333.06 215.68C333.71 216 334.52 216 335.35 216C336.17 216 337.14 215.85 338.12 215.36C339.61 214.74 340.75 213.31 341.25 211.73L345.02 199.53C345.99 196.36 344.2 192.88 340.75 191.93C340.18 191.76 339.59 191.68 339.01 191.68C336.91 191.68 334.86 192.73 333.71 194.47L314.86 162.02C313.72 160.11 311.58 159 309.29 159Z" fill="white"/>
<path fill-rule="evenodd" clip-rule="evenodd" d="M273.92 221.12C275.06 221.12 276.05 221.44 277.03 222.09C278.68 222.87 279.66 224.32 280.15 226.07L282.94 238.54C283.58 241.9 281.46 245.1 278.02 245.9C277.69 245.9 277.2 246.06 276.71 246.06C274.74 246.06 273.11 245.1 271.79 243.66L259.35 265.4H301.27C304.71 265.4 307.5 268.13 307.5 271.48C307.5 274.99 304.71 277.72 301.27 277.72H248.53C246.24 277.72 244.12 276.59 243.13 274.68C241.98 272.76 241.98 270.37 242.97 268.6L261.16 237.27C258.53 237.11 256.24 235.51 255.41 232.96C254.27 229.76 256.24 226.24 259.51 225.28L272.12 221.44C272.62 221.28 273.28 221.12 273.92 221.12ZM273.92 212C272.29 212 270.8 212.16 269.34 212.64L256.73 216.32C248.38 218.89 243.79 227.52 246.24 235.66C246.9 237.27 247.55 238.71 248.53 240.14L234.78 263.97C232 268.76 232 274.68 234.95 279.32C237.72 284.12 242.97 286.99 248.53 286.99H301.27C309.96 286.99 317 280.11 317 271.48C317 263.01 309.96 256.12 301.27 256.12H275.57L276.05 255.16H276.71C277.86 255.16 279 255.16 280.15 254.85C284.24 254.05 287.84 251.65 289.98 248.14C292.27 244.62 293.09 240.63 292.1 236.47L289.32 223.99C288.33 219.85 285.72 216.16 281.8 214.09C279.49 212.64 276.71 212 273.92 212Z" fill="#005A35"/>
<path fill-rule="evenodd" clip-rule="evenodd" d="M345.92 225.17C348.21 225.17 350.36 226.27 351.5 228.33L374.82 268.29C375.98 270.04 375.98 272.4 374.82 274.3C373.68 276.18 371.7 277.3 369.41 277.3H337.22C338.36 279.51 337.88 282.04 336.23 283.94C334.92 285.2 333.27 285.83 331.46 285.83C329.98 285.83 328.5 285.35 327.19 284.25L317.5 275.72C316.19 274.61 315.53 272.87 315.53 271.14C315.53 269.55 316.19 267.83 317.5 266.71L327.19 258.17C328.5 257.07 329.98 256.6 331.46 256.6C333.27 256.6 334.92 257.24 336.23 258.5C337.88 260.4 338.36 262.92 337.22 265.13H358.56L340.5 234.33C338.68 231.32 339.84 227.7 342.8 225.95C343.79 225.49 344.93 225.17 345.92 225.17ZM345.92 216.01C343.28 216.01 340.5 216.79 338.2 218.06C330.64 222.16 327.84 231.49 332.11 238.75L338.03 248.87C336.06 247.92 333.76 247.43 331.46 247.43C327.52 247.43 323.75 248.87 320.79 251.39L311.09 260.07C307.8 262.92 306.01 267.03 306.01 271.14C306.01 275.41 307.8 279.51 311.09 282.35L320.79 291.03C323.75 293.56 327.52 294.99 331.46 294.99C335.9 294.99 340.18 293.25 343.12 290.09C344.27 288.99 345.1 287.72 345.76 286.46H369.41C374.99 286.46 380.25 283.62 383.04 278.88C385.83 274.3 385.99 268.45 383.21 263.72L359.71 223.74C356.93 219 351.67 216.01 345.92 216.01Z" fill="#005A35"/>
<path fill-rule="evenodd" clip-rule="evenodd" d="M309.019 159.14C311.309 159.14 313.439 160.25 314.579 162.14L333.389 194.44C334.529 192.71 336.669 191.76 338.629 191.76C339.289 191.76 339.94 191.76 340.43 191.91C343.87 192.86 345.65 196.32 344.68 199.47L340.92 211.61C340.43 213.18 339.29 214.6 337.8 215.22C336.82 215.71 335.85 215.86 335.04 215.86C334.21 215.86 333.389 215.86 332.749 215.54L320.479 210.98C317.199 209.72 315.559 206.26 316.869 203.1C317.699 201.05 319.659 199.63 321.779 199.32L309.019 177.59L289.389 210.98C288.249 213.02 286.119 214.13 283.999 214.13C282.849 214.13 281.869 213.82 280.879 213.33C277.789 211.61 276.809 207.98 278.439 205L303.629 162.14C304.769 160.25 306.729 159.14 309.019 159.14ZM309.019 150C303.459 150 298.07 153 295.29 157.73L270.269 200.58C266.009 207.83 268.62 217.12 276.31 221.21C278.59 222.47 281.219 223.27 283.999 223.27C289.719 223.27 294.949 220.27 297.739 215.54L309.019 196.01L309.519 196.95L308.04 199.79C304.93 207.66 309.02 216.48 317.04 219.48L329.31 224.05C331.11 224.68 333.07 224.99 335.04 224.99C337.32 224.99 339.769 224.53 341.899 223.42C345.829 221.69 348.769 218.22 350.089 214.13L353.839 202C354.989 198.21 354.499 194.11 352.529 190.5C350.569 187.04 347.139 184.35 343.209 183.25C341.729 182.77 340.269 182.62 338.629 182.62H337.319L322.769 157.73C319.979 153 314.749 150 309.019 150Z" fill="#005A35"/>
<path fill-rule="evenodd" clip-rule="evenodd" d="M462.31 9.20996C472.99 9.20996 482.53 15.7201 486.15 25.5601C486.98 27.9501 487.46 30.65 487.46 33.51C487.46 39.86 484.83 46.04 480.23 50.65C475.46 55.24 469.04 57.79 462.31 57.79H155.53C141.72 57.79 130.37 46.83 130.37 33.51C130.37 30.65 130.88 27.95 131.85 25.4C133 22.07 135.14 18.9 137.78 16.36C142.54 11.75 148.79 9.20996 155.53 9.20996H462.31ZM155.53 0C146.33 0 137.61 3.49998 131.03 9.84998C127.41 13.34 124.46 17.78 122.81 22.39C121.49 25.89 121.01 29.69 121.01 33.51C121.01 51.92 136.47 66.99 155.53 66.99H462.31C471.68 66.99 480.4 63.5 486.98 57.15C493.37 50.8 497 42.39 497 33.51C497 29.53 496.34 25.89 495.02 22.55C490.27 9.06005 477.11 0 462.31 0H155.53Z" fill="#005A35"/>
</svg>
