<svg width="260" height="275" viewBox="0 0 260 275" fill="none" xmlns="http://www.w3.org/2000/svg">
<rect width="260" height="275" rx="5" fill="white"/>
<path fill-rule="evenodd" clip-rule="evenodd" d="M153.221 108.184L192.162 108.99L153.221 108.184Z" fill="white"/>
<path d="M153.221 108.184L192.162 108.99" stroke="black" stroke-width="2" stroke-miterlimit="10" stroke-linejoin="round"/>
<path d="M153.221 108.184L192.162 108.99" stroke="black" stroke-width="2" stroke-miterlimit="10" stroke-linecap="round" stroke-linejoin="round"/>
<path fill-rule="evenodd" clip-rule="evenodd" d="M154.065 103.295L176.92 104.109L154.065 103.295Z" fill="white"/>
<path d="M154.065 103.295L176.92 104.109" stroke="black" stroke-width="2" stroke-miterlimit="10" stroke-linejoin="round"/>
<path d="M154.065 103.295L176.92 104.109" stroke="black" stroke-width="2" stroke-miterlimit="10" stroke-linecap="round" stroke-linejoin="round"/>
<path fill-rule="evenodd" clip-rule="evenodd" d="M101.152 25.9575C89.4034 25.9575 77.8619 30.2918 69.1429 38.432C56.2909 50.5011 51.9834 68.6727 58.1288 84.8798C54.2438 90.9831 51.9835 97.8989 51.489 105.087C49.9373 129.293 59.2573 138.379 84.4662 139.872C85.1265 139.909 85.7606 139.929 86.3693 139.929C97.932 139.929 100.92 133.172 119.389 133.172C123.358 133.172 128.044 133.485 133.685 134.243C137.297 138.669 142.183 139.414 147.776 139.414C150.61 139.414 153.623 139.222 156.748 139.222C157.941 139.222 159.155 139.251 160.379 139.329C161.884 139.417 163.371 139.461 164.832 139.461C182.639 139.461 196.836 132.802 197.944 115.256C198.934 99.2552 188.413 84.6771 172.383 80.0652C172.736 78.3035 173.017 76.4026 173.158 74.5733C174.789 48.732 153.184 27.9203 127.547 27.9203C124.325 27.9203 121.038 28.2508 117.728 28.9396C112.343 26.932 106.725 25.9575 101.152 25.9575Z" fill="#F56038"/>
<path d="M159.145 35.7244L158.301 34.9136" stroke="#5D5D6D" stroke-width="2" stroke-miterlimit="10" stroke-linecap="round" stroke-linejoin="round"/>
<path d="M155.527 32.5584C137.486 20.8019 114.04 20.2565 95.5778 31.2664C77.0469 42.2779 66.8666 62.7347 69.6053 83.5985C72.3424 104.462 87.4345 121.861 108.213 128.046C128.991 134.231 151.596 128.046 165.917 112.279" stroke="#5D5D6D" stroke-width="2" stroke-miterlimit="10" stroke-linecap="round" stroke-linejoin="round"/>
<path d="M166.764 110.619L167.61 109.811" stroke="black" stroke-width="2" stroke-miterlimit="10" stroke-linecap="round" stroke-linejoin="round"/>
<path d="M52.4771 139.115H198.085" stroke="black" stroke-width="2" stroke-miterlimit="10" stroke-linejoin="round"/>
<path d="M52.4771 139.115H198.085" stroke="#5D5D6D" stroke-width="2" stroke-miterlimit="10" stroke-linecap="round" stroke-linejoin="round"/>
<path fill-rule="evenodd" clip-rule="evenodd" d="M90.963 74.8884C90.571 74.0303 91.4167 73.1731 92.265 73.5028C93.1107 73.8333 93.1107 75.0203 92.3293 75.4176C91.8087 75.6154 91.222 75.4176 90.963 74.8884Z" stroke="black" stroke-width="2" stroke-miterlimit="10" stroke-linecap="round" stroke-linejoin="round"/>
<path d="M161.435 32.4679L162.531 37.1531L157.451 37.3501" stroke="#5D5D6D" stroke-width="2" stroke-miterlimit="10" stroke-linecap="round" stroke-linejoin="round"/>
<path fill-rule="evenodd" clip-rule="evenodd" d="M92.7417 48.75C86.8571 48.75 82.1052 53.1266 82.1052 58.6983V62.4106C82.1052 67.9148 86.8571 72.3565 92.7417 72.3565H156.127C162.012 72.3565 166.764 67.9148 166.764 62.4106V58.6983C166.764 53.1266 162.012 48.75 156.127 48.75H92.7417Z" fill="#E74645" stroke="#5D5D6D" stroke-width="2" stroke-miterlimit="10" stroke-linecap="round" stroke-linejoin="round"/>
<path fill-rule="evenodd" clip-rule="evenodd" d="M79.1728 55.2627C74.2194 55.2627 70.2557 58.8586 70.5376 63.0651L74.9974 128.326C75.1388 130.77 77.2629 132.6 79.7408 132.6H165.464C167.942 132.6 169.994 130.77 170.205 128.326L174.169 63.0651C174.383 58.791 170.49 55.2627 165.534 55.2627H79.1728Z" fill="white" stroke="#5D5D6D" stroke-width="2" stroke-miterlimit="10" stroke-linecap="round" stroke-linejoin="round"/>
<path fill-rule="evenodd" clip-rule="evenodd" d="M89.3003 127.72C88.6027 127.72 88.0312 128.323 88.0312 129.129V132.886C88.0312 133.626 88.6027 134.228 89.3003 134.228C89.9996 134.228 90.5693 133.626 90.5693 132.886V129.129C90.5693 128.323 89.9996 127.72 89.3003 127.72Z" fill="white" stroke="#5D5D6D" stroke-width="2" stroke-miterlimit="10" stroke-linecap="round" stroke-linejoin="round"/>
<path fill-rule="evenodd" clip-rule="evenodd" d="M89.3369 131.791C85.8548 131.791 82.9519 134.511 82.9519 137.86C82.9519 141.278 85.8548 144 89.3369 144C92.8197 144 95.6507 141.278 95.6507 137.86C95.6507 134.511 92.8197 131.791 89.3369 131.791Z" fill="white" stroke="#5D5D6D" stroke-width="2" stroke-miterlimit="10" stroke-linecap="round" stroke-linejoin="round"/>
<path fill-rule="evenodd" clip-rule="evenodd" d="M89.3375 135.047C87.6562 135.047 86.3406 136.365 86.3406 137.894C86.3406 139.492 87.6562 140.741 89.3375 140.741C90.946 140.741 92.2616 139.492 92.2616 137.894C92.2616 136.365 90.946 135.047 89.3375 135.047Z" fill="#D05121"/>
<path d="M89.3375 134.047C87.137 134.047 85.3406 135.781 85.3406 137.894H87.3406C87.3406 136.95 88.1754 136.047 89.3375 136.047V134.047ZM85.3406 137.894C85.3406 140.092 87.1529 141.741 89.3375 141.741V139.741C88.1594 139.741 87.3406 138.891 87.3406 137.894H85.3406ZM89.3375 141.741C91.4656 141.741 93.2616 140.076 93.2616 137.894H91.2616C91.2616 138.907 90.4264 139.741 89.3375 139.741V141.741ZM93.2616 137.894C93.2616 135.796 91.4815 134.047 89.3375 134.047V136.047C90.4106 136.047 91.2616 136.934 91.2616 137.894H93.2616Z" fill="#5D5D6D"/>
<path fill-rule="evenodd" clip-rule="evenodd" d="M158.338 127.72C157.349 127.72 156.605 128.323 156.605 129.129V132.886C156.605 133.626 157.349 134.228 158.338 134.228C159.247 134.228 159.989 133.626 159.989 132.886V129.129C159.989 128.323 159.247 127.72 158.338 127.72Z" fill="white" stroke="#5D5D6D" stroke-width="2" stroke-miterlimit="10" stroke-linecap="round" stroke-linejoin="round"/>
<path fill-rule="evenodd" clip-rule="evenodd" d="M158.331 131.791C155.014 131.791 152.375 134.511 152.375 137.86C152.375 141.278 155.014 144 158.331 144C161.582 144 164.224 141.278 164.224 137.86C164.224 134.511 161.582 131.791 158.331 131.791Z" fill="white" stroke="#5D5D6D" stroke-width="2" stroke-miterlimit="10" stroke-linecap="round" stroke-linejoin="round"/>
<path fill-rule="evenodd" clip-rule="evenodd" d="M158.328 135.047C156.887 135.047 155.758 136.365 155.758 137.894C155.758 139.492 156.887 140.741 158.328 140.741C159.708 140.741 160.836 139.492 160.836 137.894C160.836 136.365 159.708 135.047 158.328 135.047Z" fill="#F89114" stroke="#5D5D6D" stroke-width="2" stroke-miterlimit="10" stroke-linecap="round" stroke-linejoin="round"/>
<path fill-rule="evenodd" clip-rule="evenodd" d="M82.9543 66.6602L87.1847 122.831L82.9543 66.6602Z" fill="white"/>
<path d="M82.9543 66.6602L87.1847 122.831" stroke="black" stroke-width="2" stroke-miterlimit="10" stroke-linejoin="round"/>
<path d="M82.9543 66.6602L87.1847 122.831" stroke="#5D5D6D" stroke-width="2" stroke-miterlimit="10" stroke-linecap="round" stroke-linejoin="round"/>
<path fill-rule="evenodd" clip-rule="evenodd" d="M95.6506 66.6602L99.8836 122.831L95.6506 66.6602Z" fill="white"/>
<path d="M95.6506 66.6602L99.8836 122.831" stroke="black" stroke-width="2" stroke-miterlimit="10" stroke-linejoin="round"/>
<path d="M95.6506 66.6602L99.8836 122.831" stroke="#5D5D6D" stroke-width="2" stroke-miterlimit="10" stroke-linecap="round" stroke-linejoin="round"/>
<path fill-rule="evenodd" clip-rule="evenodd" d="M164.224 66.6602L160.84 122.019L164.224 66.6602Z" fill="white"/>
<path d="M164.224 66.6602L160.84 122.019" stroke="black" stroke-width="2" stroke-miterlimit="10" stroke-linejoin="round"/>
<path d="M164.224 66.6602L160.84 122.019" stroke="#5D5D6D" stroke-width="2" stroke-miterlimit="10" stroke-linecap="round" stroke-linejoin="round"/>
<path fill-rule="evenodd" clip-rule="evenodd" d="M151.523 66.6602L147.295 123.647L151.523 66.6602Z" fill="white"/>
<path d="M151.523 66.6602L147.295 123.647" stroke="black" stroke-width="2" stroke-miterlimit="10" stroke-linejoin="round"/>
<path d="M151.523 66.6602L147.295 123.647" stroke="#5D5D6D" stroke-width="2" stroke-miterlimit="10" stroke-linecap="round" stroke-linejoin="round"/>
<path fill-rule="evenodd" clip-rule="evenodd" d="M108.352 66.6602L112.582 122.831L108.352 66.6602Z" fill="white"/>
<path d="M108.352 66.6602L112.582 122.831" stroke="black" stroke-width="2" stroke-miterlimit="10" stroke-linejoin="round"/>
<path d="M108.352 66.6602L112.582 122.831" stroke="#5D5D6D" stroke-width="2" stroke-miterlimit="10" stroke-linecap="round" stroke-linejoin="round"/>
<path fill-rule="evenodd" clip-rule="evenodd" d="M121.895 66.6602L123.586 122.831L121.895 66.6602Z" fill="white"/>
<path d="M121.895 66.6602L123.586 122.831" stroke="black" stroke-width="2" stroke-miterlimit="10" stroke-linejoin="round"/>
<path d="M121.895 66.6602L123.586 122.831" stroke="#5D5D6D" stroke-width="2" stroke-miterlimit="10" stroke-linecap="round" stroke-linejoin="round"/>
<path fill-rule="evenodd" clip-rule="evenodd" d="M136.287 66.6602L134.597 122.833L136.287 66.6602Z" fill="white"/>
<path d="M136.287 66.6602L134.597 122.833" stroke="black" stroke-width="2" stroke-miterlimit="10" stroke-linejoin="round"/>
<path d="M136.287 66.6602L134.597 122.833" stroke="#5D5D6D" stroke-width="2" stroke-miterlimit="10" stroke-linecap="round" stroke-linejoin="round"/>
<path fill-rule="evenodd" clip-rule="evenodd" d="M75.1404 49.5665L69.1195 50.7966C69.0492 50.7966 69.0492 50.7966 69.1195 50.8642L69.812 54.2167C66.7651 55.8563 65.1735 59.2763 65.866 62.5588L69.8806 81.7741C70.1853 83.4658 71.6796 84.568 73.3575 84.568C73.581 84.568 73.8062 84.5501 74.0339 84.5094L84.0694 82.4579C86.0072 82.0484 87.1848 80.2012 86.8386 78.354L82.8926 59.1387C82.1315 55.7895 79.3623 53.3277 75.9015 52.9858L75.209 49.6341C75.209 49.6341 75.209 49.5665 75.1404 49.5665Z" fill="white" stroke="#5D5D6D" stroke-width="2" stroke-miterlimit="10" stroke-linecap="round" stroke-linejoin="round"/>
<path fill-rule="evenodd" clip-rule="evenodd" d="M81.6647 59.3358C81.5394 59.3358 81.409 59.3464 81.2786 59.3708L66.9002 62.12C65.8945 62.3228 65.1757 63.2606 65.3907 64.2668L65.4619 64.4012C65.5897 65.2258 66.4388 65.8437 67.326 65.8437C67.4488 65.8437 67.569 65.8332 67.6926 65.8087L82.071 63.0595C83.1496 62.8592 83.7956 61.919 83.5805 60.9127V60.7808C83.3909 59.9537 82.5892 59.3358 81.6647 59.3358Z" fill="white" stroke="#5D5D6D" stroke-width="2" stroke-miterlimit="10" stroke-linecap="round" stroke-linejoin="round"/>
<path fill-rule="evenodd" clip-rule="evenodd" d="M82.4919 63.4064C82.3692 63.4064 82.2464 63.417 82.1253 63.4414L67.7469 66.1906C66.6684 66.3933 66.0224 67.3312 66.2374 68.3374V68.4717C66.4271 69.2964 67.2288 69.9143 68.1533 69.9143C68.2786 69.9143 68.4089 69.9037 68.5368 69.8793L82.9178 67.1301C83.9963 66.9298 84.6423 65.9895 84.4272 64.9833V64.849C84.2376 64.0243 83.3791 63.4064 82.4919 63.4064Z" fill="white" stroke="#5D5D6D" stroke-width="2" stroke-miterlimit="10" stroke-linecap="round" stroke-linejoin="round"/>
<path fill-rule="evenodd" clip-rule="evenodd" d="M83.3859 66.6627C83.2512 66.6627 83.1116 66.6757 82.9744 66.7002L68.6662 69.4502C67.5877 69.6513 66.8689 70.5883 67.084 71.5937L67.1576 71.7289C67.3464 72.5536 68.1481 73.1731 69.0709 73.1731C69.1988 73.1731 69.3266 73.1601 69.4561 73.1356L83.7643 70.3872C84.8428 70.187 85.4888 69.2475 85.2738 68.2413V68.1094C85.0867 67.2334 84.2993 66.6627 83.3859 66.6627Z" fill="white" stroke="#5D5D6D" stroke-width="2" stroke-miterlimit="10" stroke-linecap="round" stroke-linejoin="round"/>
<path fill-rule="evenodd" clip-rule="evenodd" d="M84.2115 70.7307C84.082 70.7307 83.9491 70.7437 83.8187 70.7706L69.4403 73.5263C68.3617 73.7274 67.7158 74.6693 67.9308 75.678V75.744C68.1272 76.6598 69.0305 77.2411 69.9508 77.2411C70.0431 77.2411 70.1379 77.2346 70.2327 77.224L84.6111 74.4683C85.6897 74.2647 86.3356 73.3244 86.1206 72.3166V72.1814C85.9335 71.3038 85.092 70.7307 84.2115 70.7307Z" fill="white" stroke="#5D5D6D" stroke-width="2" stroke-miterlimit="10" stroke-linecap="round" stroke-linejoin="round"/>
<path fill-rule="evenodd" clip-rule="evenodd" d="M73.093 47.1217C72.8881 47.1217 72.679 47.1429 72.4691 47.186L70.3018 47.576C68.7619 47.9016 67.7129 49.3361 68.0626 50.7673L68.2717 52.0063L76.1763 50.5084L75.8977 49.2693C75.6539 48.0237 74.4602 47.1217 73.093 47.1217Z" fill="#E74645" stroke="#5D5D6D" stroke-width="2" stroke-miterlimit="10" stroke-linecap="round" stroke-linejoin="round"/>
<path fill-rule="evenodd" clip-rule="evenodd" d="M175.776 69.1051C172.637 69.1051 169.773 71.0883 169.123 73.9856C168.46 77.2925 170.824 80.4659 174.45 81.127L174.968 81.1921C175.423 81.2751 175.878 81.3142 176.324 81.3142C179.498 81.3142 182.306 79.3302 182.953 76.4328C183.693 73.1268 181.329 69.9534 177.63 69.2915L177.112 69.2264C176.664 69.1442 176.216 69.1051 175.776 69.1051Z" fill="#E74645" stroke="#5D5D6D" stroke-width="2" stroke-miterlimit="10" stroke-linecap="round" stroke-linejoin="round"/>
<path fill-rule="evenodd" clip-rule="evenodd" d="M169.628 73.9871C167.582 73.9871 166.764 76.8511 168.805 77.7946L167.167 91.4178C166.951 92.6438 167.807 93.7347 169.089 93.9391L175.145 95.0951C175.312 95.1334 175.483 95.1513 175.65 95.1513C176.693 95.1513 177.679 94.4503 177.923 93.3944L181.628 80.1791C182.554 80.1099 183.266 79.4977 183.48 78.6128C183.693 77.5211 182.981 76.4994 181.842 76.2283L170.158 74.0473C169.975 74.0074 169.797 73.9871 169.628 73.9871Z" fill="white" stroke="#5D5D6D" stroke-width="2" stroke-miterlimit="10" stroke-linecap="round" stroke-linejoin="round"/>
<path fill-rule="evenodd" clip-rule="evenodd" d="M168.46 78.0593L179.46 79.6843L168.46 78.0593Z" fill="white"/>
<path d="M168.46 78.0593L179.46 79.6843" stroke="black" stroke-width="2" stroke-miterlimit="10" stroke-linejoin="round"/>
<path d="M168.46 78.0593L179.46 79.6843" stroke="#5D5D6D" stroke-width="2" stroke-miterlimit="10" stroke-linecap="round" stroke-linejoin="round"/>
<path fill-rule="evenodd" clip-rule="evenodd" d="M178.616 84.5706L176.076 92.7091L178.616 84.5706Z" fill="white"/>
<path d="M178.616 84.5706L176.076 92.7091" stroke="black" stroke-width="2" stroke-miterlimit="10" stroke-linejoin="round"/>
<path d="M178.616 84.5706L176.076 92.7091" stroke="#5D5D6D" stroke-width="2" stroke-miterlimit="10" stroke-linecap="round" stroke-linejoin="round"/>
<path d="M173.537 89.4527L181.42 67.4768L186.233 67.5436" stroke="#5D5D6D" stroke-width="2" stroke-miterlimit="10" stroke-linecap="round" stroke-linejoin="round"/>
<path fill-rule="evenodd" clip-rule="evenodd" d="M177.399 100.855C176.702 100.855 176.115 101.286 175.933 101.908L175.144 104.596C175.144 104.662 175 104.731 174.93 104.731H174.786C174.43 104.645 174.073 104.602 173.724 104.602C171.89 104.602 170.245 105.736 169.764 107.483L165.459 122.461C165.459 122.461 165.459 122.461 165.459 122.527C165.173 122.797 164.959 123.133 164.885 123.535L164.024 126.423C163.38 128.774 164.815 131.193 167.396 131.863C167.642 131.925 167.893 131.956 168.138 131.956C168.978 131.956 169.802 131.613 170.41 130.991C170.463 130.966 170.514 130.951 170.564 130.951C170.649 130.951 170.722 130.997 170.769 131.125C170.984 132.133 171.845 132.94 172.92 133.275C173.313 133.37 173.708 133.414 174.097 133.414C176.195 133.414 178.125 132.099 178.732 130.118L179.52 127.229C179.664 126.894 179.664 126.626 179.664 126.291C179.591 126.291 179.591 126.222 179.591 126.222L183.967 110.975C184.542 108.962 183.249 106.812 181.026 106.275C180.955 106.275 180.882 106.14 180.882 106.006L181.672 103.387C181.887 102.581 181.385 101.842 180.596 101.639L177.798 100.901C177.663 100.87 177.528 100.855 177.399 100.855Z" fill="white" stroke="black" stroke-width="2" stroke-miterlimit="10" stroke-linejoin="round"/>
<path fill-rule="evenodd" clip-rule="evenodd" d="M179.591 126.527L183.967 111.19C184.542 109.165 183.249 107.003 181.026 106.463C180.955 106.463 180.882 106.327 180.882 106.191L181.672 103.558C181.887 102.746 181.385 102.004 180.596 101.799L177.798 101.057C176.938 100.855 176.148 101.328 175.933 102.07L175.144 104.773C175.144 104.84 175 104.909 174.93 104.909H174.786C172.563 104.367 170.337 105.585 169.764 107.679L165.459 122.744C165.459 122.744 165.459 122.744 165.459 122.811C165.173 123.082 164.959 123.419 164.885 123.824L164.024 126.729C163.38 129.094 164.815 131.528 167.396 132.201C168.473 132.472 169.62 132.134 170.41 131.324C170.553 131.257 170.696 131.257 170.769 131.459C170.984 132.472 171.845 133.284 172.92 133.622C175.431 134.228 178.014 132.81 178.732 130.445L179.52 127.54C179.664 127.203 179.664 126.934 179.664 126.596C179.591 126.596 179.591 126.527 179.591 126.527Z" stroke="#5D5D6D" stroke-width="2" stroke-miterlimit="10" stroke-linecap="round" stroke-linejoin="round"/>
<path fill-rule="evenodd" clip-rule="evenodd" d="M177.482 99.2268C176.228 99.2268 175.082 100.124 174.736 101.515L174.383 102.773L182.072 104.923L182.424 103.663C182.849 102.032 181.86 100.328 180.308 99.8846L178.333 99.366C178.05 99.2708 177.762 99.2268 177.482 99.2268Z" fill="#F56038" stroke="#5D5D6D" stroke-width="2" stroke-miterlimit="10" stroke-linecap="round" stroke-linejoin="round"/>
<path fill-rule="evenodd" clip-rule="evenodd" d="M115.971 28.3975L117.659 30.8365L115.971 28.3975Z" fill="#5D5D6D"/>
<path d="M115.971 28.3975L117.659 30.8365" stroke="black" stroke-width="2" stroke-miterlimit="10" stroke-linejoin="round"/>
<path d="M115.971 28.3975L117.659 30.8365" stroke="#5D5D6D" stroke-width="2" stroke-miterlimit="10" stroke-linecap="round" stroke-linejoin="round"/>
<path fill-rule="evenodd" clip-rule="evenodd" d="M117.662 29.2139L115.971 30.8372L117.662 29.2139Z" fill="#5D5D6D"/>
<path d="M117.662 29.2139L115.971 30.8372" stroke="black" stroke-width="2" stroke-miterlimit="10" stroke-linejoin="round"/>
<path d="M117.662 29.2139L115.971 30.8372" stroke="#5D5D6D" stroke-width="2" stroke-miterlimit="10" stroke-linecap="round" stroke-linejoin="round"/>
<path fill-rule="evenodd" clip-rule="evenodd" d="M97.7671 21.073C97.0526 21.073 96.4998 21.6046 96.4998 22.2917C96.4998 22.9764 97.0526 23.5104 97.7671 23.5104C98.4816 23.5104 99.0345 22.9764 99.0345 22.2917C99.0345 21.6046 98.4816 21.073 97.7671 21.073Z" fill="white" stroke="#5D5D6D" stroke-width="2" stroke-miterlimit="10" stroke-linecap="round" stroke-linejoin="round"/>
<path fill-rule="evenodd" clip-rule="evenodd" d="M171.462 48.75C170.724 48.75 170.15 49.118 170.15 49.5372C170.15 50.0102 170.724 50.3766 171.462 50.3766C172.116 50.3766 172.688 50.0102 172.688 49.5372C172.688 49.118 172.116 48.75 171.462 48.75Z" fill="white" stroke="#5D5D6D" stroke-width="2" stroke-miterlimit="10" stroke-linecap="round" stroke-linejoin="round"/>
<path d="M55.0144 50.3784C55.0144 50.3784 67.6023 23.1776 93.9549 21.8872" stroke="#5D5D6D" stroke-width="2" stroke-miterlimit="10" stroke-linecap="round" stroke-linejoin="round"/>
<path fill-rule="evenodd" clip-rule="evenodd" d="M60.7349 94.3422C59.5294 94.3422 58.4779 95.3997 58.4009 96.6998V98.0838L65.0991 98.4102V96.944C65.1736 95.6431 64.1958 94.5058 62.9157 94.4228L60.7349 94.3422Z" fill="#E74645" stroke="#5D5D6D" stroke-width="2" stroke-miterlimit="10" stroke-linecap="round" stroke-linejoin="round"/>
<path fill-rule="evenodd" clip-rule="evenodd" d="M76.6769 100.923C77.443 100.923 78.1415 101.435 78.3819 102.202L80.6778 111.756C80.8861 112.719 80.3299 113.613 79.4257 113.818L77.7546 114.23C77.6174 114.259 77.4803 114.273 77.3474 114.273C76.5389 114.273 75.848 113.759 75.6669 112.993L73.3024 103.439C73.0941 102.478 73.6503 101.583 74.623 101.377L76.2942 100.966C76.4229 100.936 76.5507 100.923 76.6769 100.923ZM60.1515 97.5986L59.9432 104.608V105.845L59.387 120.966C59.2473 124.815 62.2392 127.976 66.1351 128.114L77.4066 128.527C77.4938 128.53 77.581 128.532 77.6674 128.532C81.4448 128.532 84.5078 125.624 84.6424 121.929L84.3656 118.836C83.8779 112.855 82.3465 107.015 80.0505 101.515C79.2175 99.5907 77.338 98.3533 75.1818 98.2833L67.179 97.9397L60.1515 97.5986Z" fill="white" stroke="#5D5D6D" stroke-width="2" stroke-miterlimit="10" stroke-linejoin="round"/>
<path fill-rule="evenodd" clip-rule="evenodd" d="M60.1515 97.5986L59.9432 104.578V105.81L59.387 120.866C59.2473 124.698 62.2392 127.845 66.1351 127.983L77.4066 128.394C81.3026 128.53 84.5053 125.587 84.6424 121.825L84.3656 118.745C83.8779 112.79 82.3465 106.974 80.0505 101.498C79.2175 99.5818 77.338 98.35 75.1818 98.2808L67.179 97.9381L60.1515 97.5986ZM78.3819 102.183L80.6778 111.695C80.8861 112.655 80.3299 113.544 79.4257 113.749L77.7546 114.158C76.7818 114.363 75.8777 113.816 75.6669 112.927L73.3024 103.414C73.0941 102.457 73.6503 101.566 74.623 101.361L76.2942 100.951C77.1984 100.746 78.1025 101.293 78.3819 102.183Z" stroke="#5D5D6D" stroke-width="2" stroke-miterlimit="10" stroke-linecap="round" stroke-linejoin="round"/>
<path fill-rule="evenodd" clip-rule="evenodd" d="M124.047 77.2437C112.072 77.2437 102.423 86.5374 102.423 98.0024C102.423 109.467 112.072 118.76 124.047 118.76C135.951 118.76 145.599 109.467 145.599 98.0024C145.599 86.5374 135.951 77.2437 124.047 77.2437Z" fill="white" stroke="#5D5D6D" stroke-width="2" stroke-miterlimit="10" stroke-linecap="round" stroke-linejoin="round"/>
<path fill-rule="evenodd" clip-rule="evenodd" d="M137.131 104.925L124.437 105.053V110.362L135.128 110.619L137.131 104.925Z" fill="#F56038" stroke="#5D5D6D" stroke-width="2" stroke-miterlimit="10" stroke-linecap="round" stroke-linejoin="round"/>
<path fill-rule="evenodd" clip-rule="evenodd" d="M130.549 96.7844L128.667 103.343L130.406 102.488L134.967 110.619L139.671 106.62L135.907 99.8674L137.573 99.0794L130.549 96.7844Z" fill="#E74645" stroke="#5D5D6D" stroke-width="2" stroke-miterlimit="10" stroke-linecap="round" stroke-linejoin="round"/>
<path fill-rule="evenodd" clip-rule="evenodd" d="M110.892 104.925L112.97 110.619L123.585 110.362V105.053L110.892 104.925Z" fill="#F56038" stroke="#5D5D6D" stroke-width="2" stroke-miterlimit="10" stroke-linecap="round" stroke-linejoin="round"/>
<path fill-rule="evenodd" clip-rule="evenodd" d="M117.471 96.7844L110.45 99.0794L112.115 99.8674L108.352 106.62L113.129 110.619L117.616 102.488L119.355 103.343L117.471 96.7844Z" fill="#E74645" stroke="#5D5D6D" stroke-width="2" stroke-miterlimit="10" stroke-linecap="round" stroke-linejoin="round"/>
<path fill-rule="evenodd" clip-rule="evenodd" d="M127.149 83.7589L121.048 85.8039L128.27 95.1539L132.898 91.8088L127.149 83.7589Z" fill="#F56038"/>
<path d="M127.149 83.7589L127.963 83.1778C127.708 82.82 127.248 82.671 126.831 82.8108L127.149 83.7589ZM121.048 85.8039L120.73 84.8558C120.423 84.9586 120.185 85.2037 120.091 85.5133C119.997 85.823 120.059 86.1591 120.256 86.4152L121.048 85.8039ZM128.27 95.1539L127.479 95.7652C127.809 96.1925 128.418 96.2806 128.856 95.9643L128.27 95.1539ZM132.898 91.8088L133.483 92.6192C133.929 92.297 134.031 91.6752 133.711 91.2276L132.898 91.8088ZM126.831 82.8108L120.73 84.8558L121.366 86.7521L127.467 84.7071L126.831 82.8108ZM120.256 86.4152L127.479 95.7652L129.061 94.5426L121.839 85.1926L120.256 86.4152ZM128.856 95.9643L133.483 92.6192L132.312 90.9983L127.684 94.3435L128.856 95.9643ZM133.711 91.2276L127.963 83.1778L126.335 84.34L132.084 92.3899L133.711 91.2276Z" fill="#5D5D6D"/>
<path fill-rule="evenodd" clip-rule="evenodd" d="M121.1 82.1306L117.521 89.1539L115.969 88.4025L117.928 95.1514L124.409 92.5609L122.721 91.7443L126.974 83.2899L121.1 82.1306Z" fill="#E74645" stroke="#5D5D6D" stroke-width="2" stroke-miterlimit="10" stroke-linecap="round" stroke-linejoin="round"/>
<path fill-rule="evenodd" clip-rule="evenodd" d="M35.9088 18.6282L35.3111 18.6835L34.7693 18.791L34.1707 19.0067L33.6814 19.2225L33.1929 19.5457L32.7586 19.9242L32.3776 20.3557L32.0526 20.8417L31.5658 20.4632L30.9681 20.1929L30.3171 20.0317L29.6635 19.9771H29.23L28.8491 20.0846L28.524 20.14L28.1447 20.3028L27.8171 20.4632L27.492 20.626L27.1669 20.8417L26.8943 21.1104L26.6776 21.3807L26.46 21.7039L26.2433 21.9749L26.0816 22.3511L25.9732 22.6767L25.8649 23.0528L25.8098 23.4314L25.754 23.8099L25.8098 24.4018L25.9732 24.9961H25.4289L25.0504 25.0506L24.7778 25.1589L24.4528 25.2664L24.2352 25.4821L24.0185 25.7508L23.8551 26.021L23.7459 26.3442L23.6934 26.7228L23.7459 27.046L23.8551 27.37L24.0185 27.6403L24.2352 27.9089L24.4528 28.1271L24.7778 28.2875L25.0504 28.3421L25.4289 28.395H40.631L40.9561 28.3421L41.2821 28.2875L41.5538 28.1271L41.8264 27.9089L42.0432 27.6403L42.2048 27.37L42.3132 27.046V26.7228V26.3442L42.2048 26.021L42.0432 25.7508L41.8264 25.4821L41.5538 25.2664L41.2821 25.1589L40.9561 25.0506L40.631 24.9961H39.98L40.1967 24.5646L40.306 24.0786L40.4143 23.5942V23.1082V22.6213L40.361 22.1907L40.1967 21.7592L40.0884 21.3807L39.8717 21.0021L39.6549 20.626L39.3823 20.2474L39.1097 19.9242L38.7846 19.6531L38.4595 19.3853L38.0811 19.1695L37.7002 19.0067L37.2659 18.8439L36.8299 18.7356L36.3956 18.6835L35.9088 18.6282Z" fill="white"/>
<path fill-rule="evenodd" clip-rule="evenodd" d="M24.0185 25.9575L23.9101 26.1521L23.8017 26.3963L23.7459 26.5917L23.6934 26.884L23.7459 27.1762L23.8551 27.4685L24.0185 27.7135L24.1802 27.9561L24.4528 28.1523L24.7778 28.2981L25.0504 28.3477L25.4289 28.3949H40.631L40.9561 28.3477L41.2821 28.2981L41.5538 28.1523L41.8264 27.9561L42.0432 27.7135L42.2048 27.4685L42.3132 27.1762V26.884V26.5917L42.2607 26.3963L42.1515 26.1521L41.9881 25.9575L41.7181 26.2017L41.3904 26.3963L41.012 26.542L40.631 26.5917H25.4289L24.9946 26.542L24.6136 26.3963L24.2885 26.2017L24.0185 25.9575Z" fill="#E4ECF2"/>
<path fill-rule="evenodd" clip-rule="evenodd" d="M35.8637 18.695L36.348 18.7487L36.7789 18.8L37.2123 18.9058L37.6432 19.0662L38.0217 19.2258L38.3976 19.4374L38.721 19.7004L39.0443 19.9658L39.3144 20.2833L39.5853 20.6545L39.8012 21.0241L40.0162 21.3953L40.1246 21.7666L40.2871 22.1899L40.3396 22.6124V23.0895V23.5665L40.2321 24.042L40.1246 24.519L39.9087 24.9416H40.5555L40.8789 24.9961L41.2023 25.1019L41.4724 25.2078L41.7433 25.4186L41.9583 25.6824L42.1192 25.9478L42.2267 26.2653V26.6365V26.954L42.1192 27.2707L41.9583 27.5369L41.7433 27.7999L41.4724 28.014L41.2023 28.1711L40.8789 28.2257L40.5555 28.277H25.4507L25.0748 28.2257L24.8039 28.1711L24.4805 28.014L24.2655 27.7999L24.0496 27.5369L23.887 27.2707L23.7795 26.954L23.7262 26.6365L23.7795 26.2653L23.887 25.9478L24.0496 25.6824L24.2655 25.4186L24.4805 25.2078L24.8039 25.1019L25.0748 24.9961L25.4507 24.9416H25.9917L25.8291 24.3587L25.7741 23.7782L25.8291 23.407L25.8842 23.0358L25.9917 22.667L26.1 22.347L26.26 21.9782L26.4759 21.7128L26.6918 21.3953L26.9068 21.1299L27.1777 20.8662L27.5011 20.6545L27.8245 20.4949L28.1496 20.3378L28.5255 20.1774L28.8489 20.1237L29.2273 20.0179H29.6582L30.3076 20.0716L30.9543 20.2295L31.5478 20.4949L32.0321 20.8662L32.3555 20.3891L32.7339 19.9658L33.1648 19.5945L33.6508 19.2779L34.1367 19.0662L34.731 18.8545L35.2694 18.7487L35.8637 18.695ZM35.2694 17L34.731 17.1083L34.1367 17.2654L33.5983 17.425L33.0573 17.6887L32.518 17.9541L32.0871 18.2716L31.6011 18.6429L31.1144 18.537L30.631 18.3775L30.145 18.3254H29.0648L28.5255 18.4312L28.0421 18.537L27.5562 18.695L27.0694 18.9604L26.5834 19.172L26.2075 19.4887L25.7741 19.8062L25.4507 20.1774L25.1273 20.6008L24.8039 21.0241L24.5889 21.5012L24.373 21.9782L24.2105 22.4529L24.1029 22.9837L24.0496 23.5128L23.6187 23.7245L23.2402 24.042L22.8618 24.3587L22.5935 24.7307L22.3234 25.1532L22.16 25.6303L22.0525 26.1074L22 26.6365V26.954L22.0525 27.2707L22.16 27.6428L22.2684 27.9057L22.4309 28.2257L22.5935 28.4886L23.0244 29.0194L23.5086 29.4427L23.7795 29.6007L24.1029 29.7057L24.4255 29.8661L24.7514 29.9174L25.0748 29.9719L25.4507 30.0232H40.5555L40.8789 29.9719L41.2573 29.9174L41.5807 29.8661L41.9033 29.7057L42.1742 29.6007L42.4976 29.4427L42.9835 29.0194L43.4144 28.4886L43.5778 28.2257L43.7378 27.9057L43.8462 27.6428L43.9012 27.2707L43.9537 26.954L44.0087 26.6365L43.9537 26.1074L43.8462 25.6824L43.6854 25.2078L43.4678 24.7844L43.1994 24.4132L42.876 24.0957L42.4976 23.8303L42.0667 23.5665L42.1192 23.0895L42.0667 22.4529L41.9583 21.8724L41.7957 21.2895L41.6357 20.7066L41.3649 20.1774L41.0414 19.7004L40.663 19.2258L40.2871 18.8L39.8537 18.3775L39.3694 18.0062L38.8285 17.7425L38.29 17.4771L37.7508 17.2654L37.1573 17.1083L36.5105 17H35.2694Z" fill="#5D5D6D"/>
<path fill-rule="evenodd" clip-rule="evenodd" d="M215.725 47.9359L215.233 47.9986L214.81 48.0588L214.384 48.2453L214.034 48.5522L213.821 48.7981L213.611 49.0472L213.398 49.477L213.33 49.9695L213.398 50.4026L213.539 50.7722L213.752 51.1418L214.034 51.4504L214.384 51.6971L214.81 51.8835L215.233 52.0064H224.965L225.459 51.8835L225.81 51.6971L226.164 51.4504L226.446 51.1418L226.659 50.7722L226.8 50.4026L226.868 49.9695L226.8 49.477L226.659 49.0472L226.446 48.7981L226.236 48.6149L226.023 48.4284L225.81 48.2453L225.459 48.1223L225.178 47.9986L224.824 47.9359H215.725Z" fill="#E4ECF2" stroke="#5D5D6D" stroke-width="2" stroke-miterlimit="10" stroke-linejoin="round"/>
<path fill-rule="evenodd" clip-rule="evenodd" d="M216.232 47.9359L215.754 48.0035L215.343 48.0678L214.929 48.2664L214.587 48.5945L214.38 48.8583L214.175 49.1245L214.312 49.3883L214.517 49.652L214.724 49.8482L214.998 50.0477L215.272 50.1788L215.547 50.3107L215.891 50.3758H224.812L225.223 50.3107L225.705 50.1788L226.046 49.9801L226.39 49.7163L226.664 49.4526L226.872 49.1245L226.664 48.8583L226.46 48.6621L226.253 48.4634L226.046 48.2664L225.705 48.1354L225.431 48.0035L225.086 47.9359H216.232Z" fill="white"/>
<path fill-rule="evenodd" clip-rule="evenodd" d="M224.542 47.9359H224.824L225.178 47.9986L225.459 48.1223L225.81 48.2453L226.023 48.4284L226.236 48.6149L226.446 48.7981L226.659 49.0472L226.8 49.477L226.868 49.9695L226.8 50.4026L226.659 50.7722L226.446 51.1418L226.164 51.4504L225.81 51.6971L225.459 51.8835L224.965 52.0064H224.542H215.725H215.233L214.81 51.8835L214.384 51.6971L214.034 51.4504L213.752 51.1418L213.539 50.7722L213.398 50.4026L213.33 49.9695L213.398 49.477L213.611 49.0472L213.821 48.7981L214.034 48.5522L214.384 48.2453L214.81 48.0588L215.233 47.9986L215.725 47.9359H224.542Z" stroke="#5D5D6D" stroke-width="2" stroke-miterlimit="10" stroke-linejoin="round"/>
<path fill-rule="evenodd" clip-rule="evenodd" d="M233.394 47.9359L232.925 47.9986L232.521 48.0588L232.118 48.2453L231.78 48.5522L231.577 48.7981L231.376 49.0472L231.173 49.477L231.107 49.9695L231.173 50.4026L231.308 50.7722L231.511 51.1418L231.78 51.4504L232.118 51.6971L232.521 51.8835L232.925 52.0064H235.214L235.617 51.8835L236.021 51.6971L236.358 51.4504L236.627 51.1418L236.827 50.7722L236.962 50.4026L237.031 49.9695L236.962 49.477L236.761 49.0472L236.627 48.7981L236.424 48.6149L236.224 48.4284L235.952 48.2453L235.683 48.1223L235.414 47.9986L235.079 47.9359H233.394Z" fill="#E4ECF2" stroke="#5D5D6D" stroke-width="2" stroke-miterlimit="10" stroke-linejoin="round"/>
<path fill-rule="evenodd" clip-rule="evenodd" d="M233.327 47.9359L232.81 48.0035L232.367 48.0678L231.923 48.2664L231.552 48.5945L231.328 48.8583L231.108 49.1245L231.255 49.3883L231.476 49.652L231.7 49.8482L231.995 50.0477L232.291 50.1788L232.587 50.3107L232.959 50.3758H234.808L235.328 50.3107L235.772 50.1788L236.215 49.9801L236.587 49.7163L236.807 49.4526L237.031 49.1245L236.882 48.8583L236.659 48.6621L236.439 48.4634L236.14 48.2664L235.845 48.1354L235.548 48.0035L235.18 47.9359H233.327Z" fill="white"/>
<path fill-rule="evenodd" clip-rule="evenodd" d="M234.741 47.9359H235.079L235.414 47.9986L235.683 48.1223L235.952 48.2453L236.224 48.4284L236.424 48.6149L236.627 48.7981L236.761 49.0472L236.962 49.477L237.031 49.9695L236.962 50.4026L236.827 50.7722L236.627 51.1418L236.358 51.4504L236.021 51.6971L235.617 51.8835L235.214 52.0064H234.741H233.394H232.925L232.521 51.8835L232.118 51.6971L231.78 51.4504L231.511 51.1418L231.308 50.7722L231.173 50.4026L231.107 49.9695L231.173 49.477L231.376 49.0472L231.577 48.7981L231.78 48.5522L232.118 48.2453L232.521 48.0588L232.925 47.9986L233.394 47.9359H234.741Z" stroke="#5D5D6D" stroke-width="2" stroke-miterlimit="10" stroke-linejoin="round"/>
<path fill-rule="evenodd" clip-rule="evenodd" d="M166.695 110.624L164.227 119.685L182.073 124.462L184.542 115.401L166.695 110.624Z" fill="#F56038" stroke="#5D5D6D" stroke-width="2" stroke-miterlimit="10" stroke-linecap="round" stroke-linejoin="round"/>
<rect x="16" y="161" width="10" height="100" fill="#C1E8C1"/>
<rect x="36" y="161" width="10" height="100" fill="#C1E8C1"/>
<rect x="56" y="161" width="10" height="100" fill="#C1E8C1"/>
<rect x="76" y="161" width="10" height="100" fill="#C1E8C1"/>
<rect x="96" y="161" width="10" height="100" fill="#C1E8C1"/>
<rect x="116" y="161" width="10" height="100" fill="#C1E8C1"/>
<rect x="136" y="161" width="10" height="100" fill="#C1E8C1"/>
<rect x="156" y="161" width="10" height="100" fill="#C1E8C1"/>
<rect x="176" y="161" width="10" height="100" fill="#C1E8C1"/>
<rect x="196" y="161" width="10" height="100" fill="#C1E8C1"/>
<rect x="216" y="161" width="10" height="100" fill="#C1E8C1"/>
<rect x="236" y="161" width="10" height="100" fill="#C1E8C1"/>
</svg>
