<svg width="591" height="723" viewBox="0 0 591 723" fill="none" xmlns="http://www.w3.org/2000/svg">
<rect width="591" height="706" fill="#6BB36B"/>
<rect x="81" y="14" width="10" height="10" rx="5" fill="#E6FFE6" fill-opacity="0.7"/>
<rect x="101" y="14" width="10" height="10" rx="5" fill="#E6FFE6" fill-opacity="0.7"/>
<path d="M123.5 19C123.5 16.2386 125.739 14 128.5 14C131.261 14 133.5 16.2386 133.5 19C133.5 21.7614 131.261 24 128.5 24C125.739 24 123.5 21.7614 123.5 19Z" fill="#E6FFE6" fill-opacity="0.7"/>
<rect x="81" y="44" width="450" height="30" fill="#E6FFE6" fill-opacity="0.7"/>
<rect x="81" y="84" width="107" height="10" fill="#E6FFE6" fill-opacity="0.7"/>
<rect x="81" y="104" width="450" height="107" fill="#E6FFE6" fill-opacity="0.7"/>
<rect x="123" y="165" width="118" height="107" rx="5" fill="#6BB36B"/>
<rect x="131" y="173" width="100" height="90" rx="6" fill="#E6FFE6" fill-opacity="0.7"/>
<rect x="208" y="84" width="107" height="10" fill="#E6FFE6" fill-opacity="0.7"/>
<rect x="335" y="84" width="107" height="10" fill="#E6FFE6" fill-opacity="0.7"/>
<rect x="462" y="84" width="69" height="10" fill="#E6FFE6" fill-opacity="0.7"/>
<rect x="81" y="284" width="200" height="10" fill="#E6FFE6" fill-opacity="0.7"/>
<rect x="81" y="304" width="200" height="10" fill="#E6FFE6" fill-opacity="0.7"/>
<rect x="81" y="324" width="180" height="10" fill="#E6FFE6" fill-opacity="0.7"/>
<rect x="81" y="344" width="127" height="10" fill="#E6FFE6" fill-opacity="0.7"/>
<rect x="335" y="266" width="196" height="60" fill="#E6FFE6" fill-opacity="0.7"/>
<rect x="336" y="347" width="196" height="17" fill="#E6FFE6" fill-opacity="0.7"/>
<rect x="336" y="384" width="196" height="56" fill="#E6FFE6" fill-opacity="0.7"/>
<rect x="336" y="469" width="196" height="56" fill="#E6FFE6" fill-opacity="0.7"/>
<rect x="336" y="554" width="196" height="20" fill="#E6FFE6" fill-opacity="0.7"/>
<rect x="336" y="634" width="87" height="40" fill="#E6FFE6" fill-opacity="0.7"/>
<rect x="336" y="694" width="196" height="29" fill="#E6FFE6" fill-opacity="0.7"/>
<rect x="443" y="634" width="89" height="40" fill="#E6FFE6" fill-opacity="0.7"/>
<rect x="81" y="465" width="127" height="10" fill="#E6FFE6" fill-opacity="0.7"/>
<rect x="81" y="494" width="60" height="60" fill="#E6FFE6" fill-opacity="0.7"/>
<rect x="81" y="563" width="60" height="60" fill="#E6FFE6" fill-opacity="0.7"/>
<rect x="81" y="633" width="60" height="60" fill="#E6FFE6" fill-opacity="0.7"/>
<rect x="151" y="494" width="60" height="60" fill="#E6FFE6" fill-opacity="0.7"/>
<rect x="151" y="563" width="60" height="60" fill="#E6FFE6" fill-opacity="0.7"/>
<rect x="151" y="633" width="60" height="60" fill="#E6FFE6" fill-opacity="0.7"/>
<rect x="221" y="495" width="60" height="60" fill="#E6FFE6" fill-opacity="0.7"/>
<rect x="221" y="564" width="60" height="60" fill="#E6FFE6" fill-opacity="0.7"/>
<rect x="221" y="634" width="60" height="60" fill="#E6FFE6" fill-opacity="0.7"/>
</svg>
