<svg width="236" height="280" xmlns="http://www.w3.org/2000/svg" xmlns:xlink="http://www.w3.org/1999/xlink" overflow="hidden"><defs><filter id="fx0" x="-10%" y="-10%" width="120%" height="120%" filterUnits="userSpaceOnUse" primitiveUnits="userSpaceOnUse"><feComponentTransfer color-interpolation-filters="sRGB"><feFuncR type="discrete" tableValues="0 0"/><feFuncG type="discrete" tableValues="0 0"/><feFuncB type="discrete" tableValues="0 0"/><feFuncA type="linear" slope="0.501961" intercept="0"/></feComponentTransfer><feGaussianBlur stdDeviation="2 2"/></filter><clipPath id="clip1"><rect x="29" y="235" width="236" height="280"/></clipPath><clipPath id="clip2"><path d="M66.7086 449.091 68.8978 453.905C68.8675 454.514 68.8466 455.13 68.6026 455.662 68.6146 455.763 68.6146 455.763 68.6265 455.864 68.4606 456.191 68.2056 456.63 67.9462 456.959 66.9339 458.707 66.5653 460.78 66.9919 462.656 67.2947 464.351 67.9881 465.889 69.0418 467.086 68.7034 466.819 68.2521 466.463 67.8221 466.215 66.9554 465.806 66.2759 465.179 65.7659 464.327 64.9323 462.397 64.3919 460.423 64.1433 458.321ZM113.015 246.229C111.384 246.422 109.862 247.037 109.153 248.459 109.064 248.572 109.076 248.673 108.987 248.786L108.897 250.621C108.82 250.835 108.755 251.149 108.779 251.351 108.781 252.161 109.08 253.038 109.657 253.583 110.122 254.133 110.674 254.477 111.306 254.701L111.332 255.713C111.344 255.813 111.356 255.914 111.368 256.015 110.112 256.573 109.396 257.365 109.414 258.378L109.473 262.335C107.643 263.157 106.571 264.401 106.536 265.829L105.771 271.401C103.096 271.914 100.46 272.839 97.9687 274.046 93.1673 276.336 90.6026 279.59 90.6093 283.033L90.0635 294.778C82.7588 298.174 78.3583 303.06 78.4009 308.537L67.8148 387.244 66.8731 389.589 59.5309 409.026 57.5945 414.132C55.5112 413.816 53.4413 413.685 51.8943 413.868 51.2218 413.948 50.6506 414.092 50.2062 414.298 48.2878 415.233 47.5177 418.163 47.7034 423.12 47.7676 424.528 48.1355 425.908 48.7857 427.152 47.589 428.206 46.5171 429.45 45.5699 430.883 45.5818 430.984 45.5818 430.984 45.5013 431.096 45.3582 431.616 41.8101 443.707 41.3316 446.509 40.8349 450.021 41.6761 453.673 43.8303 456.461 44.896 457.759 46.2524 458.92 47.6619 459.666 47.7271 461.082 48.2874 462.431 49.2247 463.437 50.8873 464.664 52.6473 465.777 54.4877 466.778 54.8849 467.541 55.89 470.057 57.1576 473.061 58.8571 477.123 63.878 480.076 66.4072 479.981L66.9032 479.922C68.8033 479.698 70.5044 478.584 71.633 477.027 72.759 475.376 73.0148 473.215 72.1837 471.378 71.7363 470.118 71.0896 468.975 70.1726 468.069L70.4907 468.236C71.8915 469.195 73.6129 469.623 75.2775 469.426 75.8576 469.357 76.4287 469.213 76.9815 468.986 78.2404 468.53 79.2353 467.5 79.6984 466.226 79.9935 464.469 81.25 452.751 81.1946 448.895 81.1486 445.047 78.4374 437.55 74.3102 430.118 73.4031 428.503 71.9304 427.151 70.2952 426.228 70.5273 425.595 70.7474 424.861 70.9342 423.918 71.8941 420.864 70.4019 417.69 67.5143 416.411L67.3005 416.334 65.318 415.861 66.6015 412.154C68.8145 417.17 73.7108 421.663 80.9528 425.376 89.4677 429.544 100.338 432.222 112.072 432.761L112.801 449.223C111.633 449.66 110.627 450.589 109.958 451.785 109.403 453.069 109.165 454.521 109.23 455.937 109.449 458.648 110.161 461.207 111.166 463.723 112.067 466.156 113.263 468.556 114.245 470.869 114.381 471.16 114.518 471.451 114.554 471.754 114.678 471.935 114.713 472.238 114.85 472.528 114.921 473.125 115.105 473.82 115.176 474.417L116.029 478.169C116.531 480.753 117.242 483.312 118.236 485.726 119.351 488.237 120.829 490.501 122.493 492.529 124.158 494.566 125.993 496.386 127.835 498.197L128.627 498.914C128.853 499.092 129.09 499.362 129.408 499.529 130.085 500.063 130.93 500.363 131.741 500.37 133.346 500.18 134.781 499.405 135.651 498.185L135.72 497.972C137.562 493.799 138.243 489.251 137.71 484.744 137.076 480.249 135.756 475.938 133.673 472.024 133.002 470.679 132.345 469.444 131.606 468.313L131.594 468.212C131.208 467.55 130.831 466.878 130.457 466.317 129.936 465.364 129.41 464.31 128.9 463.458 128.389 462.597 128.065 461.519 127.644 460.554 126.779 458.423 125.731 456.415 124.494 454.532 123.37 452.739 121.854 451.094 120.09 449.878L119.586 432.785C122.836 432.809 125.95 432.535 129.052 432.168 129.347 432.141 129.641 432.107 129.936 432.072 138.452 431.064 146.786 428.655 154.482 424.897 164.53 419.752 170.02 412.913 169.967 405.613 169.979 403.983 169.677 402.297 169.095 400.84L168.793 399.153 174.236 412.517 178.118 422.203 179.112 424.626 179.397 425.3C178.622 425.596 177.972 426.082 177.413 426.549 175.828 428.57 175.176 432.5 175.016 433.738 173.424 434.839 172.299 436.498 171.826 438.481 170.275 444.249 170.167 446.794 170.286 447.802 169.861 448.458 169.64 449.192 169.522 449.922 168.842 449.934 167.916 449.967 166.891 450.088 164.705 450.347 162.106 451.004 160.711 452.686 159.74 453.918 159.434 455.583 159.812 457.056 161.322 462.973 164.957 463.651 166.49 463.777 167.721 466.479 170.386 468.397 173.378 468.751 174.245 469.595 177.292 472.15 180.479 471.773 181.05 471.705 181.628 471.543 182.2 471.262 185.172 469.794 188.422 468.088 189.859 467.406 190.643 468.84 192.169 469.776 193.709 469.901 194.733 469.976 195.745 469.958 196.745 469.84 201.554 469.271 206.409 466.565 207.925 460.503 210.002 452.337 201.843 441.733 200.187 439.696L199.689 438.945C198.202 436.682 196.356 434.769 194.122 433.107 194.104 432.086 193.573 430.12 191.155 426.04 190.214 424.933 188.816 424.288 187.397 424.251 187.397 424.251 187.386 424.159 187.386 424.159 187.225 423.666 186.976 423.286 186.828 422.903L186.383 421.737 185.389 419.314 181.406 409.639 173.542 390.364C172.528 387.85 171.41 385.237 170.404 382.721 175.68 379.25 180.835 375.698 186.099 372.134L232.743 410.361C232.59 411.599 232.632 412.813 233.068 413.98 233.424 415.26 234.082 416.495 235.011 417.502 236.065 418.699 237.474 419.444 239.003 419.468 239.802 419.373 240.487 419.19 241.161 418.906 241.845 418.629 242.418 418.356 242.987 417.982 244.211 417.232 245.102 416.112 245.871 414.904 246.439 413.72 246.893 412.447 247.143 411.096 247.657 408.597 247.765 406.052 248.404 403.743 249.973 398.988 251.122 394.077 251.644 389.045 252.258 384.002 251.855 378.866 250.767 373.922 250.055 371.364 249.062 368.949 247.89 366.752 247.243 365.609 246.403 364.489 245.567 363.471 245.237 363.212 244.887 362.844 244.549 362.577 244.424 362.387 244.21 362.31 244.107 362.229L243.994 362.14C243.228 361.719 242.494 361.499 241.684 361.492 240.784 361.599 240.013 361.997 239.476 362.572 238.917 363.039 238.469 363.501 238.035 364.158 237.355 365.253 236.787 366.437 236.312 367.61 235.846 368.782 235.359 369.854 235.017 371.216 234.542 372.389 234.289 373.638 234.04 374.989 233.304 379.944 233.098 385.049 233.488 390.076 233.696 392.694 234.205 395.269 235.196 397.59 236.005 399.318 236.129 401.231 235.734 403.008L189.083 364.77 189.09 364.773 188.977 364.684 189.083 364.77 185.705 363.613C185.503 363.637 185.302 363.669 185.105 363.726 184.721 363.874 184.24 364.127 183.961 364.365 180.03 367.166 176.188 369.854 172.269 372.756 170.778 373.845 169.279 374.934 167.788 376.023 166.774 373.508 165.667 370.996 164.65 368.38L164.762 368.46C165.205 368.817 165.834 368.947 166.431 368.877 166.734 368.841 166.935 368.817 167.117 368.693 168.663 367.999 169.599 366.473 169.51 364.855 169.907 365.038 170.298 365.103 170.718 365.053 170.853 365.037 170.995 365.012 171.143 364.969 171.93 364.773 172.689 364.274 173.103 363.518 173.848 362.108 173.647 360.41 172.694 359.201 174.891 358.029 175.234 354.945 173.21 353.257 172.86 352.89 172.34 352.746 171.711 352.616 172.454 351.113 172.24 349.305 171.066 348.029 170.427 347.244 169.467 346.905 168.542 347.015 167.936 347.086 167.354 347.351 166.88 347.808 166.554 345.92 164.969 344.487 163.001 344.209 162.873 344.207 162.738 344.214 162.603 344.23 161.914 344.312 161.218 344.624 160.688 345.19 160.154 345.867 159.853 346.713 159.847 347.523L152.73 307.971C152.687 302.494 147.945 297.573 140.457 294.298L139.894 286.948 139.478 282.64C139.491 279.288 136.873 276.043 132.036 273.776 129.45 272.453 126.601 271.571 123.706 271.104 123.292 269.328 122.965 267.432 122.752 265.632 122.675 264.115 121.711 262.814 120.224 262.274L119.797 262.128 119.738 258.171C119.668 257.574 119.394 256.992 119.053 256.632 118.816 256.353 118.489 256.187 118.264 256.009 118.342 255.804 118.33 255.703 118.306 255.501L118.27 255.199C119.698 255.234 121.206 255.158 122.812 254.968 125.624 254.738 129.739 256.886 129.739 256.886 129.945 256.964 130.058 257.053 130.259 257.029L130.461 257.005 132.605 256.248C132.795 256.123 132.985 255.999 133.065 255.887L135.441 252.767C135.619 252.541 135.607 252.44 135.684 252.226L135.694 249.787C135.659 249.493 135.523 249.202 135.305 249.023 132.551 247.217 129.206 246.394 125.991 246.672L124.587 246.838C120.662 247.098 120.158 247.157 118.175 246.684 117.089 246.369 114.974 245.997 113.015 246.229ZM29 235 265 235 265 515 29 515Z" fill-rule="evenodd" clip-rule="evenodd"/></clipPath><clipPath id="clip3"><rect x="-2" y="-2" width="240" height="284"/></clipPath><clipPath id="clip4"><rect x="0" y="0" width="237" height="280"/></clipPath></defs><g clip-path="url(#clip1)" transform="translate(-29 -235)"><g clip-path="url(#clip2)"><g clip-path="url(#clip3)" filter="url(#fx0)" transform="translate(28 235)"><g clip-path="url(#clip4)"><path d="M192.122 196.018 195.754 204.882C195.754 206.999 195.449 209.022 194.848 211.037 194.442 211.943 193.841 212.646 193.028 213.154 192.63 213.45 192.224 213.857 191.919 214.161 192.825 212.849 193.333 211.241 193.435 209.522 193.638 207.608 193.028 205.593 191.818 203.976 191.521 203.68 191.217 203.273 191.013 202.969 191.013 202.867 191.013 202.867 191.013 202.766 190.709 202.266 190.616 201.656 190.514 201.055L192.122 196.018ZM122.305 0C120.333 0 118.275 0.618058 117.234 1.05832 115.321 1.76104 114.813 1.76104 110.885 1.96424L109.471 1.96424C106.246 2.06584 103.02 3.27656 100.497 5.3932 100.303 5.59639 100.201 5.90119 100.201 6.19752L100.497 8.61895C100.599 8.82215 100.599 8.92375 100.802 9.12695L103.528 11.9463C103.621 12.0479 103.824 12.1495 104.028 12.2511L106.246 12.7506 106.449 12.7506C106.652 12.7506 106.753 12.649 106.948 12.5474 106.948 12.5474 110.783 9.93127 113.602 9.82967 115.219 9.82967 116.726 9.72807 118.14 9.52487L118.14 9.82967C118.14 10.0329 118.14 10.1345 118.242 10.3292 118.038 10.5324 117.734 10.7356 117.53 11.0404 117.234 11.4383 117.031 12.0479 117.031 12.649L117.437 16.586 117.031 16.7807C115.617 17.4919 114.813 18.8973 114.914 20.4129 114.914 22.2247 114.813 24.1466 114.61 25.9585 111.791 26.7628 109.065 27.9735 106.652 29.5906 102.114 32.41 99.8962 35.9405 100.303 39.2679L100.396 43.5943 100.7 50.9602C93.6485 55.0919 89.5172 60.5359 90.1182 65.9799L87.697 106.094C87.5954 105.29 87.1975 104.486 86.588 103.876 85.9954 103.377 85.2673 103.148 84.5732 103.148 84.4377 103.148 84.3022 103.156 84.1753 103.173 82.2535 103.681 80.8482 105.29 80.7466 107.204 80.2217 106.806 79.6122 106.611 79.0027 106.611 78.0714 106.611 77.1571 107.06 76.6153 107.915 75.5994 109.32 75.5994 111.14 76.5137 112.546 75.9042 112.749 75.4047 112.952 75.0999 113.359 73.2883 115.272 73.9909 118.295 76.3105 119.201 75.5063 120.513 75.5063 122.223 76.4121 123.535 76.9116 124.238 77.7243 124.645 78.5286 124.746 78.681 124.772 78.8249 124.78 78.9603 124.78 79.3836 124.78 79.7646 124.67 80.1371 124.441 80.2387 126.059 81.3477 127.464 82.9647 127.972 83.1594 128.074 83.3625 128.074 83.6673 128.074 84.2684 128.074 84.8779 127.87 85.2758 127.464L85.3774 127.371 85.3774 127.371C84.6747 130.089 83.8705 132.713 83.1594 135.329 81.5509 134.423 79.9339 133.518 78.3254 132.612 74.0925 130.19 69.9612 127.972 65.7283 125.652 65.4236 125.449 64.9156 125.254 64.5177 125.153 64.3145 125.119 64.1114 125.11 63.9082 125.11 62.6891 125.11 61.4616 125.627 60.6827 126.66L60.7843 126.558 60.7843 126.558C46.7734 140.977 32.8642 155.488 18.8533 170.11 18.2522 168.391 18.1506 166.478 18.7517 164.666 19.4628 162.245 19.666 159.628 19.5644 157.004 19.3612 151.966 18.557 146.92 17.2448 142.086 16.8384 140.773 16.4405 139.563 15.831 138.454 15.3315 137.141 14.722 136.134 14.1209 135.025 13.5114 133.915 12.8087 132.806 12.0045 131.799 11.4965 131.198 10.997 130.791 10.3875 130.393 9.78644 129.885 8.97373 129.581 8.06789 129.581 7.26364 129.682 6.56098 129.987 5.84985 130.495L5.74827 130.597C5.65514 130.69 5.45196 130.791 5.35037 130.995 5.04561 131.299 4.74084 131.706 4.44453 132.002 3.73341 133.111 3.03075 134.322 2.5228 135.533 1.61696 137.852 0.914304 140.367 0.507947 142.992 0.00846578 148.029 0.211645 153.177 1.41379 158.113 2.5228 163.049 4.24136 167.79 6.3578 172.328 7.26364 174.546 7.67 177.061 8.47425 179.482 8.8806 180.795 9.48167 182.006 10.1843 183.115 11.0902 184.224 12.1061 185.231 13.4098 185.832 14.0193 186.137 14.6204 186.34 15.3315 186.535 16.0342 186.738 16.7368 186.84 17.5411 186.84 19.0565 186.637 20.3687 185.731 21.2745 184.418 22.0788 183.309 22.5867 182.006 22.7899 180.693 23.0862 179.482 22.9846 178.272 22.6883 177.061L64.5177 133.619C70.1644 136.54 75.701 139.461 81.3477 142.289 80.645 144.905 79.8408 147.631 79.1296 150.247L73.5846 170.313 70.7655 180.388 70.0628 182.911 69.758 184.122C69.6564 184.52 69.4533 184.926 69.3517 185.434 69.3517 185.434 69.3517 185.528 69.3517 185.528 67.9464 185.731 66.6342 186.535 65.8299 187.746 63.9082 192.081 63.6119 194.096 63.7135 195.112 61.6901 197.025 60.0816 199.142 58.871 201.563L58.4647 202.368C57.0594 204.586 50.2021 216.075 53.2244 223.94 55.4424 229.782 60.5811 231.899 65.4236 231.899 66.431 231.899 67.4384 231.797 68.4458 231.603 69.9612 231.298 71.3665 230.189 71.9761 228.673 73.483 229.181 76.9116 230.493 80.0355 231.603 80.6366 231.814 81.2292 231.907 81.8048 231.907 85.0134 231.907 87.7393 229.012 88.5013 228.072 91.4304 227.369 93.8516 225.151 94.7575 222.323 96.2644 222.018 99.7946 220.918 100.599 214.864 100.802 213.357 100.303 211.74 99.1936 210.631 97.6105 209.124 94.9522 208.777 92.7511 208.777 91.7183 208.777 90.7955 208.853 90.1182 208.921 89.9151 208.209 89.6103 207.507 89.1108 206.906 89.1108 205.89 88.7044 203.375 86.4864 197.83 85.7838 195.916 84.4716 194.401 82.7615 193.495 82.4567 192.284 81.3477 188.457 79.536 186.637 78.9265 186.239 78.2238 185.832 77.4196 185.629L77.6227 184.926 78.3254 182.403 81.0429 172.328 84.8779 158.418 84.7763 160.128C84.37 161.643 84.2684 163.354 84.4716 164.971 85.2758 172.227 91.532 178.373 102.114 182.302 110.199 185.13 118.758 186.544 127.334 186.544 127.63 186.544 127.926 186.544 128.223 186.535 131.347 186.535 134.47 186.442 137.696 186.036L139.203 203.07C137.594 204.484 136.282 206.296 135.376 208.209 134.369 210.225 133.565 212.341 132.955 214.559 132.65 215.567 132.456 216.676 132.049 217.59 131.643 218.496 131.245 219.605 130.839 220.613 130.534 221.214 130.238 221.925 129.933 222.628L129.933 222.73C129.332 223.94 128.824 225.244 128.316 226.658 126.707 230.79 125.903 235.226 125.801 239.764 125.801 244.302 127.012 248.739 129.332 252.667L129.425 252.871C130.432 253.98 131.948 254.581 133.565 254.581 134.369 254.479 135.173 254.081 135.783 253.472 136.079 253.268 136.282 252.972 136.485 252.769L137.188 251.965C138.805 249.95 140.413 247.926 141.827 245.708 143.241 243.498 144.443 241.077 145.256 238.452 145.959 235.937 146.365 233.313 146.56 230.688L146.966 226.861C146.966 226.26 147.068 225.549 147.068 224.948 147.169 224.643 147.169 224.338 147.271 224.144 147.271 223.839 147.372 223.534 147.474 223.229 148.177 220.816 149.082 218.293 149.692 215.77 150.395 213.154 150.801 210.529 150.699 207.812 150.598 206.398 150.191 204.984 149.489 203.773 148.684 202.664 147.575 201.86 146.365 201.563L145.154 185.13C156.744 183.216 167.225 179.279 175.191 174.14 181.947 169.602 186.281 164.564 187.89 159.324L189.6 162.854 187.686 163.557 187.483 163.658C184.766 165.267 183.657 168.594 184.969 171.515 185.265 172.43 185.57 173.133 185.875 173.734 184.359 174.843 183.056 176.358 182.344 178.069 179.119 185.934 177.307 193.698 177.714 197.525 178.112 201.36 180.736 212.849 181.235 214.559 181.845 215.77 182.954 216.676 184.258 216.981 184.833 217.142 185.418 217.218 186.002 217.218 187.678 217.218 189.337 216.591 190.616 215.474L190.912 215.271 190.912 215.271C190.108 216.278 189.6 217.489 189.303 218.793 188.694 220.715 189.202 222.831 190.514 224.338 191.818 225.752 193.638 226.658 195.551 226.658L196.051 226.658C198.573 226.455 203.213 222.933 204.423 218.7 205.329 215.567 206.032 212.951 206.336 212.146 208.047 210.936 209.664 209.623 211.17 208.209 211.983 207.1 212.381 205.695 212.279 204.281 213.592 203.375 214.802 202.063 215.708 200.649 217.52 197.626 217.926 193.901 217.02 190.472 216.216 187.746 211.272 176.155 211.069 175.656 210.976 175.554 210.976 175.554 210.976 175.452 209.867 174.14 208.656 173.031 207.344 172.125 207.843 170.813 208.047 169.399 207.945 167.993 207.547 163.049 206.438 160.23 204.423 159.527 203.958 159.374 203.373 159.298 202.696 159.298 201.138 159.298 199.098 159.671 197.066 160.23L194.544 155.387 184.969 136.947 183.758 134.728 163.999 57.8096C163.398 52.3656 158.454 48.0308 150.801 45.5162L148.879 33.917C148.481 30.4965 145.552 27.5671 140.515 25.8569 137.899 24.9509 135.173 24.3413 132.456 24.1466L131.042 18.7026C130.839 17.2887 129.628 16.1796 127.715 15.5785L127.308 11.6415C127.207 10.634 126.403 9.93127 125.09 9.52487 125.09 9.42327 125.09 9.32168 125.09 9.22008L124.997 8.21256C125.598 7.91623 126.106 7.50983 126.504 6.90871 127.012 6.29912 127.207 5.3932 127.114 4.58887 127.114 4.38567 127.012 4.08088 126.911 3.87768L126.606 2.06584C126.504 1.96424 126.504 1.86264 126.403 1.76104 125.531 0.431794 123.947 0 122.305 0Z" stroke="#FFFFFF" stroke-width="12" stroke-linejoin="round" stroke-miterlimit="10" fill="#FFFFFF" fill-rule="evenodd" transform="matrix(-0.993076 0.117477 0.117477 0.993076 206.473 -1.13893)"/></g></g></g><path d="M192.122 196.018 195.754 204.882C195.754 206.999 195.449 209.022 194.848 211.037 194.442 211.943 193.841 212.646 193.028 213.154 192.63 213.45 192.224 213.857 191.919 214.161 192.825 212.849 193.333 211.241 193.435 209.522 193.638 207.608 193.028 205.593 191.818 203.976 191.521 203.68 191.217 203.273 191.013 202.969 191.013 202.867 191.013 202.867 191.013 202.766 190.709 202.266 190.616 201.656 190.514 201.055L192.122 196.018ZM122.305 0C120.333 0 118.275 0.618058 117.234 1.05832 115.321 1.76104 114.813 1.76104 110.885 1.96424L109.471 1.96424C106.246 2.06584 103.02 3.27656 100.497 5.3932 100.303 5.59639 100.201 5.90119 100.201 6.19752L100.497 8.61895C100.599 8.82215 100.599 8.92375 100.802 9.12695L103.528 11.9463C103.621 12.0479 103.824 12.1495 104.028 12.2511L106.246 12.7506 106.449 12.7506C106.652 12.7506 106.753 12.649 106.948 12.5474 106.948 12.5474 110.783 9.93127 113.602 9.82967 115.219 9.82967 116.726 9.72807 118.14 9.52487L118.14 9.82967C118.14 10.0329 118.14 10.1345 118.242 10.3292 118.038 10.5324 117.734 10.7356 117.53 11.0404 117.234 11.4383 117.031 12.0479 117.031 12.649L117.437 16.586 117.031 16.7807C115.617 17.4919 114.813 18.8973 114.914 20.4129 114.914 22.2247 114.813 24.1466 114.61 25.9585 111.791 26.7628 109.065 27.9735 106.652 29.5906 102.114 32.41 99.8962 35.9405 100.303 39.2679L100.396 43.5943 100.7 50.9602C93.6485 55.0919 89.5172 60.5359 90.1182 65.9799L87.697 106.094C87.5954 105.29 87.1975 104.486 86.588 103.876 85.9954 103.377 85.2673 103.148 84.5732 103.148 84.4377 103.148 84.3022 103.156 84.1753 103.173 82.2535 103.681 80.8482 105.29 80.7466 107.204 80.2217 106.806 79.6122 106.611 79.0027 106.611 78.0714 106.611 77.1571 107.06 76.6153 107.915 75.5994 109.32 75.5994 111.14 76.5137 112.546 75.9042 112.749 75.4047 112.952 75.0999 113.359 73.2883 115.272 73.9909 118.295 76.3105 119.201 75.5063 120.513 75.5063 122.223 76.4121 123.535 76.9116 124.238 77.7243 124.645 78.5286 124.746 78.681 124.772 78.8249 124.78 78.9603 124.78 79.3836 124.78 79.7646 124.67 80.1371 124.441 80.2387 126.059 81.3477 127.464 82.9647 127.972 83.1594 128.074 83.3625 128.074 83.6673 128.074 84.2684 128.074 84.8779 127.87 85.2758 127.464L85.3774 127.371 85.3774 127.371C84.6747 130.089 83.8705 132.713 83.1594 135.329 81.5509 134.423 79.9339 133.518 78.3254 132.612 74.0925 130.19 69.9612 127.972 65.7283 125.652 65.4236 125.449 64.9156 125.254 64.5177 125.153 64.3145 125.119 64.1114 125.11 63.9082 125.11 62.6891 125.11 61.4616 125.627 60.6827 126.66L60.7843 126.558 60.7843 126.558C46.7734 140.977 32.8642 155.488 18.8533 170.11 18.2522 168.391 18.1506 166.478 18.7517 164.666 19.4628 162.245 19.666 159.628 19.5644 157.004 19.3612 151.966 18.557 146.92 17.2448 142.086 16.8384 140.773 16.4405 139.563 15.831 138.454 15.3315 137.141 14.722 136.134 14.1209 135.025 13.5114 133.915 12.8087 132.806 12.0045 131.799 11.4965 131.198 10.997 130.791 10.3875 130.393 9.78644 129.885 8.97373 129.581 8.06789 129.581 7.26364 129.682 6.56098 129.987 5.84985 130.495L5.74827 130.597C5.65514 130.69 5.45196 130.791 5.35037 130.995 5.04561 131.299 4.74084 131.706 4.44453 132.002 3.73341 133.111 3.03075 134.322 2.5228 135.533 1.61696 137.852 0.914304 140.367 0.507947 142.992 0.00846578 148.029 0.211645 153.177 1.41379 158.113 2.5228 163.049 4.24136 167.79 6.3578 172.328 7.26364 174.546 7.67 177.061 8.47425 179.482 8.8806 180.795 9.48167 182.006 10.1843 183.115 11.0902 184.224 12.1061 185.231 13.4098 185.832 14.0193 186.137 14.6204 186.34 15.3315 186.535 16.0342 186.738 16.7368 186.84 17.5411 186.84 19.0565 186.637 20.3687 185.731 21.2745 184.418 22.0788 183.309 22.5867 182.006 22.7899 180.693 23.0862 179.482 22.9846 178.272 22.6883 177.061L64.5177 133.619C70.1644 136.54 75.701 139.461 81.3477 142.289 80.645 144.905 79.8408 147.631 79.1296 150.247L73.5846 170.313 70.7655 180.388 70.0628 182.911 69.758 184.122C69.6564 184.52 69.4533 184.926 69.3517 185.434 69.3517 185.434 69.3517 185.528 69.3517 185.528 67.9464 185.731 66.6342 186.535 65.8299 187.746 63.9082 192.081 63.6119 194.096 63.7135 195.112 61.6901 197.025 60.0816 199.142 58.871 201.563L58.4647 202.368C57.0594 204.586 50.2021 216.075 53.2244 223.94 55.4424 229.782 60.5811 231.899 65.4236 231.899 66.431 231.899 67.4384 231.797 68.4458 231.603 69.9612 231.298 71.3665 230.189 71.9761 228.673 73.483 229.181 76.9116 230.493 80.0355 231.603 80.6366 231.814 81.2292 231.907 81.8048 231.907 85.0134 231.907 87.7393 229.012 88.5013 228.072 91.4304 227.369 93.8516 225.151 94.7575 222.323 96.2644 222.018 99.7946 220.918 100.599 214.864 100.802 213.357 100.303 211.74 99.1936 210.631 97.6105 209.124 94.9522 208.777 92.7511 208.777 91.7183 208.777 90.7955 208.853 90.1182 208.921 89.9151 208.209 89.6103 207.507 89.1108 206.906 89.1108 205.89 88.7044 203.375 86.4864 197.83 85.7838 195.916 84.4716 194.401 82.7615 193.495 82.4567 192.284 81.3477 188.457 79.536 186.637 78.9265 186.239 78.2238 185.832 77.4196 185.629L77.6227 184.926 78.3254 182.403 81.0429 172.328 84.8779 158.418 84.7763 160.128C84.37 161.643 84.2684 163.354 84.4716 164.971 85.2758 172.227 91.532 178.373 102.114 182.302 110.199 185.13 118.758 186.544 127.334 186.544 127.63 186.544 127.926 186.544 128.223 186.535 131.347 186.535 134.47 186.442 137.696 186.036L139.203 203.07C137.594 204.484 136.282 206.296 135.376 208.209 134.369 210.225 133.565 212.341 132.955 214.559 132.65 215.567 132.456 216.676 132.049 217.59 131.643 218.496 131.245 219.605 130.839 220.613 130.534 221.214 130.238 221.925 129.933 222.628L129.933 222.73C129.332 223.94 128.824 225.244 128.316 226.658 126.707 230.79 125.903 235.226 125.801 239.764 125.801 244.302 127.012 248.739 129.332 252.667L129.425 252.871C130.432 253.98 131.948 254.581 133.565 254.581 134.369 254.479 135.173 254.081 135.783 253.472 136.079 253.268 136.282 252.972 136.485 252.769L137.188 251.965C138.805 249.95 140.413 247.926 141.827 245.708 143.241 243.498 144.443 241.077 145.256 238.452 145.959 235.937 146.365 233.313 146.56 230.688L146.966 226.861C146.966 226.26 147.068 225.549 147.068 224.948 147.169 224.643 147.169 224.338 147.271 224.144 147.271 223.839 147.372 223.534 147.474 223.229 148.177 220.816 149.082 218.293 149.692 215.77 150.395 213.154 150.801 210.529 150.699 207.812 150.598 206.398 150.191 204.984 149.489 203.773 148.684 202.664 147.575 201.86 146.365 201.563L145.154 185.13C156.744 183.216 167.225 179.279 175.191 174.14 181.947 169.602 186.281 164.564 187.89 159.324L189.6 162.854 187.686 163.557 187.483 163.658C184.766 165.267 183.657 168.594 184.969 171.515 185.265 172.43 185.57 173.133 185.875 173.734 184.359 174.843 183.056 176.358 182.344 178.069 179.119 185.934 177.307 193.698 177.714 197.525 178.112 201.36 180.736 212.849 181.235 214.559 181.845 215.77 182.954 216.676 184.258 216.981 184.833 217.142 185.418 217.218 186.002 217.218 187.678 217.218 189.337 216.591 190.616 215.474L190.912 215.271 190.912 215.271C190.108 216.278 189.6 217.489 189.303 218.793 188.694 220.715 189.202 222.831 190.514 224.338 191.818 225.752 193.638 226.658 195.551 226.658L196.051 226.658C198.573 226.455 203.213 222.933 204.423 218.7 205.329 215.567 206.032 212.951 206.336 212.146 208.047 210.936 209.664 209.623 211.17 208.209 211.983 207.1 212.381 205.695 212.279 204.281 213.592 203.375 214.802 202.063 215.708 200.649 217.52 197.626 217.926 193.901 217.02 190.472 216.216 187.746 211.272 176.155 211.069 175.656 210.976 175.554 210.976 175.554 210.976 175.452 209.867 174.14 208.656 173.031 207.344 172.125 207.843 170.813 208.047 169.399 207.945 167.993 207.547 163.049 206.438 160.23 204.423 159.527 203.958 159.374 203.373 159.298 202.696 159.298 201.138 159.298 199.098 159.671 197.066 160.23L194.544 155.387 184.969 136.947 183.758 134.728 163.999 57.8096C163.398 52.3656 158.454 48.0308 150.801 45.5162L148.879 33.917C148.481 30.4965 145.552 27.5671 140.515 25.8569 137.899 24.9509 135.173 24.3413 132.456 24.1466L131.042 18.7026C130.839 17.2887 129.628 16.1796 127.715 15.5785L127.308 11.6415C127.207 10.634 126.403 9.93127 125.09 9.52487 125.09 9.42327 125.09 9.32168 125.09 9.22008L124.997 8.21256C125.598 7.91623 126.106 7.50983 126.504 6.90871 127.012 6.29912 127.207 5.3932 127.114 4.58887 127.114 4.38567 127.012 4.08088 126.911 3.87768L126.606 2.06584C126.504 1.96424 126.504 1.86264 126.403 1.76104 125.531 0.431794 123.947 0 122.305 0Z" stroke="#FFFFFF" stroke-width="12" stroke-linejoin="round" stroke-miterlimit="10" fill="#FFFFFF" fill-rule="evenodd" transform="matrix(-0.993076 0.117477 0.117477 0.993076 234.473 231.861)"/><path d="M0.982051 0.00846663C0.660345 0.00846663 0.338638 0.160866 0.211649 0.474131 0.00846596 0.880529 0.110057 1.49013 0.516423 1.68486L0.71114 1.78646C0.914323 1.88806 1.11751 2.09126 1.32069 2.29446 1.617 2.59926 1.82018 2.89559 2.02336 3.20039 2.53132 3.90312 2.92922 4.61431 3.234 5.31704 3.93667 6.73097 4.44463 8.33963 4.84253 9.85516 5.55367 13.0809 5.95157 16.4083 6.05316 19.7357 6.45953 26.382 6.45953 33.0368 6.45953 39.7932 6.45953 39.9964 6.56112 40.098 6.66271 40.2927 7.67016 42.2146 8.88079 44.1281 9.78665 46.1431 10.7941 48.1582 11.3952 50.2748 11.5984 52.4931 11.5984 52.6963 11.7 52.7979 11.8015 52.7979 11.9031 52.7979 12.0047 52.6963 12.1063 52.5947 12.3095 50.1732 12.0047 47.8534 11.0989 45.6351 10.7941 44.5345 10.3877 43.4253 9.88824 42.3162 9.41414 41.3595 8.84692 40.4112 8.27124 39.4545L8.27124 39.4545C8.27124 32.9098 8.26277 26.2719 7.87334 19.6341 7.77175 16.2051 7.36538 12.7761 6.66271 9.44876 6.25634 7.8401 5.65526 6.12137 4.94412 4.61431 4.54622 3.80152 4.13985 2.99719 3.64036 2.29446 3.43718 1.88806 3.1324 1.49013 2.82763 1.18533 2.42973 0.77893 2.02336 0.380998 1.52387 0.177799 1.37148 0.0592664 1.17677 0.00846663 0.982051 0.00846663Z" fill="#335A3A" fill-rule="evenodd" transform="matrix(-0.993082 0.117422 0.117422 0.993082 245.224 362.196)"/><path d="M20.5046 0.00846666C20.1659 0.00846666 19.8188 0.0254 19.4548 0.0677333 18.2442 0.270933 17.042 0.677333 15.933 1.27847 14.6123 1.71873 13.3 2.0066 11.9116 2.0066 11.7084 2.0066 11.5052 1.99813 11.2936 1.9812 7.46698 1.9812 3.6319 3.09033 0.304775 5.1054L0 6.31613 2.82763 9.144 5.04572 9.74513C5.04572 9.74513 9.07552 6.92573 12.0979 6.82413 15.2218 6.62093 22.9851 6.41773 24.5005 4.09786 24.7968 3.59833 24.8984 2.98873 24.7968 2.3876 24.7968 2.1844 24.7968 2.0828 24.6952 1.8796 24.2635 0.762 22.5703 0.00846666 20.5046 0.00846666Z" fill="#F89114" fill-rule="evenodd" transform="matrix(-0.993082 0.117422 0.117422 0.993082 134.568 246.168)"/><path d="M22.0707 1.69332C23.1882 1.69332 24.1872 1.93885 24.7036 2.62465L25.1015 4.2333C25.1015 4.3349 25.1015 4.3349 25.2031 4.4365 25.2031 4.4365 25.2031 4.5381 25.2031 4.6397 25.2031 5.0461 25.1015 5.44403 24.9999 5.74883 24.602 6.34995 22.5872 7.76388 13.3085 8.06867 10.5909 8.17027 7.16219 10.1853 6.05315 10.8881L4.43616 10.5833 2.12495 8.06867 1.82018 6.34995C4.03826 4.7413 6.65424 3.83537 9.38027 3.63217L10.7941 3.63217C14.7223 3.42898 15.8313 3.32738 17.7446 2.62465 18.7944 2.15898 20.5469 1.69332 22.0707 1.69332ZM22.0538 0C20.0389 0 17.9732 0.626529 17.042 1.00753 15.3234 1.71872 14.6207 1.71872 10.6925 1.91345L9.27868 1.91345C6.05315 2.11665 2.92922 3.32738 0.304774 5.34243 0.101591 5.54563 0.00846595 5.85042 0.00846595 6.14676L0.406366 8.5682C0.406366 8.7714 0.507957 8.9746 0.609548 9.0762L3.42871 11.9972C3.5303 12.0988 3.63189 12.2004 3.83507 12.2004L6.05315 12.8015 6.25634 12.8015C6.45952 12.8015 6.55264 12.6999 6.75583 12.6999 6.75583 12.6999 10.6925 9.98213 13.4101 9.88053 20.8686 9.67733 25.1015 8.6698 26.4138 6.95955 26.8201 6.24835 27.0148 5.44403 26.9217 4.6397 26.9217 4.3349 26.9217 4.0301 26.8201 3.83537L26.4138 2.11665C26.4138 2.01505 26.3122 1.91345 26.3122 1.82032 25.3978 0.440263 23.747 0 22.0538 0Z" fill="#005A35" fill-rule="evenodd" transform="matrix(-0.993082 0.117422 0.117422 0.993082 135.517 243.89)"/><path d="M3.27632 0C3.07314 0 2.85303 0.0169332 2.62445 0.0507996 1.10904 0.245531 0.00846596 0.956725 0.101591 1.65945L0.507957 5.89275C0.592617 6.49388 1.48154 6.95108 2.60751 6.95108 2.8107 6.95108 3.01388 6.93414 3.234 6.90028 4.74094 6.69708 5.74838 5.99435 5.74838 5.29162L5.35048 1.15992 5.35048 1.05832C5.25736 0.457196 4.44463 0 3.27632 0Z" stroke="#005A35" stroke-width="2" stroke-linejoin="round" stroke-miterlimit="10" fill="#F05016" fill-rule="evenodd" transform="matrix(-0.993082 0.117422 0.117422 0.993082 117.743 249.803)"/><path d="M2.22656 0.00846672C1.52388 0.609604 0.812737 1.11761 0.00846601 1.52401 0.00846601 1.52401 0.16932 1.51554 0.448698 1.51554 1.54928 1.51554 4.41926 1.64254 5.5537 2.92949 4.64784 1.71874 3.53879 0.711205 2.22656 0.00846672Z" fill="#335A3A" fill-rule="evenodd" transform="matrix(-0.993082 0.117422 0.117422 0.993082 52.6753 428.273)"/><path d="M20.1151 0.00846664C12.7582 0.00846664 9.06704 8.27191 8.06806 9.90597 6.85743 11.7178 0 23.1055 2.82763 30.6662 5.1727 36.7368 10.3708 38.1338 14.426 38.1338 15.4165 38.1338 16.3393 38.0491 17.1351 37.9306 18.6505 37.4226 19.8611 36.2118 20.3606 34.7048 20.3606 34.7048 25.1016 36.415 29.1314 37.829 29.6393 38.0068 30.1303 38.083 30.6214 38.083 34.0162 38.083 36.793 34.2984 36.793 34.2984 39.8154 33.7904 42.1351 31.479 42.9393 28.5495 42.9393 28.5495 42.9732 28.558 43.024 28.558 43.6589 28.558 47.6464 28.2955 48.4845 21.9032 49.0518 17.5767 44.8611 16.7555 41.6102 16.7555 39.6291 16.7555 38.0037 17.0603 38.0037 17.0603 38.1053 16.0528 37.6989 15.0452 36.9962 14.3425 36.9962 14.3425 37.2925 12.2258 34.4734 5.26625 32.7717 0.855131 28.5895 0.0253999 25.6942 0.0253999 23.9587 0.0253999 22.6803 0.330199 22.6803 0.330199 21.7829 0.110066 20.9278 0.00846664 20.1151 0.00846664Z" fill="#D0EFBD" fill-rule="evenodd" transform="matrix(-0.993082 0.117422 0.117422 0.993082 206.792 429.523)"/><path d="M24.5258 0.00846664C23.1459 0.00846664 21.7151 1.51553 21.1733 3.59832L0.609548 78.291C0.00846594 80.7124 0.711139 82.9307 2.22654 83.3371 2.38739 83.3794 2.55671 83.3964 2.72603 83.3964 4.09751 83.3964 5.51133 81.974 6.05315 79.9081L26.6169 5.10538C27.218 2.78552 26.5153 0.575731 24.9999 0.0677331 24.8475 0.0253999 24.6867 0.00846664 24.5258 0.00846664Z" stroke="#005A35" stroke-width="2" stroke-linejoin="round" stroke-miterlimit="10" fill="#D0EFBD" fill-rule="evenodd" transform="matrix(-0.993082 0.117422 0.117422 0.993082 178.064 346.188)"/><path d="M26.7439 1.81186C29.3853 1.81186 33.0764 2.57386 34.5834 6.46851 37.1994 13.0217 37.0046 15.0367 37.0046 15.0367 37.0046 15.3415 37.0978 15.6379 37.3009 15.7395 37.5041 16.0443 38.2068 17.0518 38.1137 17.7545 38.0121 18.0593 38.1137 18.3641 38.3084 18.5673 38.5116 18.7621 38.8163 18.8637 39.1211 18.8637 39.8492 18.6943 41.1614 18.525 42.5837 18.525 44.497 18.525 46.5881 18.8298 47.6887 19.8712 48.3913 20.684 48.6961 21.6915 48.4929 22.699 47.8072 28.4479 44.3023 28.541 43.8875 28.541 43.8705 28.541 43.8621 28.541 43.8536 28.541 43.4557 28.541 43.0493 28.8458 42.9477 29.2522 42.3466 31.8684 40.2302 33.8835 37.6057 34.3915 37.4025 34.3915 37.1994 34.4931 37.0046 34.6878 37.0046 34.7809 34.4395 38.1337 31.561 38.1337 31.1631 38.1337 30.7568 38.066 30.3504 37.9136 26.3206 36.5081 21.5797 34.6878 21.5797 34.6878 21.512 34.6709 21.4358 34.6624 21.368 34.6624 21.0125 34.6624 20.64 34.8656 20.4707 35.1958 20.0643 36.1017 19.26 37.7189 17.8462 37.9136 17.2621 38.0152 16.3223 38.1422 15.1964 38.1422 11.8354 38.1422 6.80662 37.0754 4.54621 31.2673L4.6478 31.2673C1.92177 24.2061 8.37282 13.4196 9.68504 11.303 9.78663 11.0998 9.98981 10.8034 10.193 10.397 11.5306 7.97557 15.0271 1.82033 21.0209 1.82033 21.7659 1.82033 22.5617 1.92193 23.3914 2.13359L23.7978 2.13359C23.9078 2.09126 25.1354 1.81186 26.7439 1.81186ZM20.9363 0C13.9773 0 10.193 6.79871 8.576 9.5927L8.16964 10.2954C6.76429 12.5137 0.00846594 24.0029 2.92922 31.8684 5.24889 37.8204 10.2861 39.9371 15.1286 39.9371 16.1361 39.9371 17.1435 39.8355 18.0494 39.6323 19.6664 39.2259 20.9701 38.1168 21.6813 36.7113 23.1882 37.2109 26.6169 38.5232 29.6393 39.5307 30.2827 39.7678 30.9007 39.8694 31.5018 39.8694 34.7188 39.8694 37.3433 36.9399 38.1137 36.0001 41.136 35.399 43.5488 33.1807 44.4631 30.2598 45.9701 30.0566 49.5004 28.9474 50.203 22.8938 50.5078 21.3867 49.9999 19.7696 48.8993 18.6605 47.3162 17.1534 44.624 16.7639 42.3974 16.7639 41.3477 16.7639 40.3995 16.8571 39.7222 16.9502 39.6206 16.1459 39.2227 15.4347 38.8163 14.8335 38.7148 13.9276 38.41 11.4046 36.1919 5.75731 34.431 1.22766 30.0287 0.0338665 26.5153 0.0338665 25.4232 0.0338665 24.4073 0.152399 23.5946 0.313265 22.6633 0.1016 21.7744 0 20.9363 0Z" stroke="#005A35" stroke-linejoin="round" stroke-miterlimit="10" fill="#005A35" fill-rule="evenodd" transform="matrix(-0.993082 0.117422 0.117422 0.993082 207.594 428.524)"/><path d="M9.9644 0.00846663C9.83741 0.00846663 9.71043 0.00846663 9.57497 0.00846663 5.74837 0.00846663 3.32711 1.11759 2.82762 2.12512 2.31967 3.23425 0 8.77989 0.905855 9.49109 1.71858 10.1938 6.25633 10.397 12.4026 10.4986 12.6312 10.5071 12.8513 10.5071 13.0545 10.5071 18.5235 10.5071 18.1425 8.07716 18.1425 8.07716 18.1425 8.07716 16.9403 3.23425 15.0186 1.32079 15.0186 1.32079 13.5201 0.00846663 9.9644 0.00846663Z" stroke="#005A35" stroke-width="2" stroke-linejoin="round" stroke-miterlimit="10" fill="#F89114" fill-rule="evenodd" transform="matrix(-0.993082 0.117422 0.117422 0.993082 193.365 424.119)"/><path d="M10.684 0C10.5909 0 10.4893 0.1016 10.4893 0.2032 10.2861 0.711199 10.0829 1.21073 9.87973 1.71873 9.67655 2.11666 9.48183 2.62466 9.17706 3.03106 8.6691 3.93699 7.96643 4.63972 7.06058 5.24086 6.25632 5.85046 5.342 6.25685 4.33455 6.45159 3.4287 6.65479 2.42125 6.75639 1.41381 6.75639L1.31222 6.75639C0.91432 6.75639 0.507955 7.06119 0.507955 7.56072L0.101591 12.0988C0 12.302 0.101591 12.5052 0.203182 12.7084 1.10904 13.716 1.92176 14.5203 2.72603 15.4262 3.22552 15.8326 3.63188 16.3322 4.13984 16.7386 4.43614 16.9418 4.74092 17.3397 4.9441 17.8477 5.342 18.7536 5.54518 19.7612 5.44359 20.8703 5.342 21.8778 5.14728 22.987 4.74092 23.9945 4.47847 24.7057 5.05416 25.2137 5.60444 25.2137 5.90921 25.2137 6.20552 25.0613 6.34944 24.6972 6.8574 23.4865 7.16217 22.1826 7.26376 20.8703 7.36535 19.558 7.06058 18.144 6.55262 16.9418 6.25632 16.3322 5.74836 15.8326 5.24041 15.3246 4.74092 15.0198 4.33455 14.6219 3.93665 14.2155 3.22552 13.5043 2.51438 12.7931 1.9387 12.0142L1.9387 12.0142 2.16728 8.61058 2.16728 8.61058C3.0562 8.60212 3.94512 8.46665 4.84251 8.17032 5.95154 7.76392 6.95899 7.16279 7.86484 6.34999 8.7707 5.54566 9.48183 4.63972 9.98132 3.53059 10.3877 2.52306 10.684 1.41393 10.7856 0.304799 10.8872 0.2032 10.7856 0.1016 10.684 0Z" stroke="#005A35" stroke-linejoin="round" stroke-miterlimit="10" fill="#005A35" fill-rule="evenodd" transform="matrix(-0.993082 0.117422 0.117422 0.993082 193.289 441.495)"/><path d="M5.35897 0C4.87641 0 4.40231 0.042333 3.93668 0.110066 3.42872 0.211665 2.92923 0.516463 2.52286 0.82126 2.21809 1.12606 1.92178 1.52399 1.617 1.93039 1.01592 2.73471 0.507959 3.53904 0.101592 4.35183 0.00846598 4.44497 0.101592 4.54657 0.203184 4.64816 0.304775 4.64816 0.406367 4.64816 0.507959 4.54657 0.914326 3.74224 1.41382 3.03951 2.02337 2.32832 2.52286 1.62559 3.234 1.12606 4.13986 0.82126 4.30918 0.812794 4.4785 0.804327 4.64782 0.804327 6.20556 0.804327 7.8141 1.21919 9.17712 2.13358 9.8798 2.42991 10.5909 3.03951 11.0904 3.64064 11.4968 4.35183 11.7 5.15616 11.7 5.96049 11.5984 7.67074 11.192 9.49106 10.5909 11.0997 10.5909 11.1336 10.574 11.1505 10.5655 11.1505 10.5317 11.1505 10.4894 11.0997 10.4894 11.0997L10.4894 11.0997C10.3116 11.8109 10.8619 12.2766 11.3867 12.2766 11.7592 12.2766 12.1148 12.048 12.1995 11.5061 12.809 9.69426 13.1053 7.77234 13.1053 5.85889 13.0037 4.74976 12.7074 3.74224 11.9963 2.93791 11.3952 2.13358 10.4894 1.52399 9.58349 1.12606 8.2882 0.364064 6.82358 0 5.35897 0Z" stroke="#005A35" stroke-linejoin="round" stroke-miterlimit="10" fill="#005A35" fill-rule="evenodd" transform="matrix(-0.993082 0.117422 0.117422 0.993082 184.27 455.341)"/><path d="M4.6986 0.00846661C4.47848 0.00846661 4.25837 0.0169332 4.03825 0.0253998 3.1324 0.126999 2.31967 0.330198 1.5154 0.736595 0.81273 1.13453 0.203182 1.84572 0 2.75165 0 2.85325 0.101591 2.94638 0.203182 2.94638 0.237046 2.98025 0.262444 2.98871 0.287842 2.98871 0.355569 2.98871 0.406365 2.92098 0.406365 2.85325 0.609547 2.14205 1.10904 1.54092 1.82018 1.23613 2.52285 0.931327 3.22552 0.829728 4.03825 0.829728 5.54519 0.829728 7.06059 1.13453 8.56753 1.74412 8.8723 1.93885 9.17708 2.14205 9.48185 2.34525 9.77816 2.54845 9.98134 2.75165 10.2861 3.04798 10.6925 3.65758 10.9888 4.25871 11.192 4.9699 11.5983 6.37536 11.5983 7.89088 11.192 9.30481 11.0904 9.30481 11.0904 9.39794 11.192 9.39794 11.0904 9.80434 11.3952 10.3123 11.8946 10.4139 11.9539 10.4224 12.0047 10.4309 12.0555 10.4309 12.428 10.4309 12.8174 10.143 12.9021 9.70274 13.2069 7.99248 13.1053 6.17216 12.6058 4.4619 12.301 3.65758 11.793 2.85325 11.192 2.24365 10.8872 1.84572 10.4893 1.54092 10.1845 1.33772 9.77816 1.13453 9.38026 0.931327 8.97389 0.736595 7.56855 0.296331 6.1632 0.00846661 4.6986 0.00846661Z" stroke="#005A35" stroke-linejoin="round" stroke-miterlimit="10" fill="#005A35" fill-rule="evenodd" transform="matrix(-0.993082 0.117422 0.117422 0.993082 178.4 452.062)"/><path d="M67.0334 0C66.1275 0 65.3232 0.507998 64.7137 1.21073L21.876 45.6691C20.5722 43.4508 20.3691 40.7245 21.1733 38.3031 23.1882 32.0547 20.767 17.7461 18.0494 12.2004 16.2123 8.45817 14.0111 4.54659 11.5391 4.54659 10.3454 4.54659 9.08396 5.46098 7.76327 7.76391 0.00846594 21.6746 7.86486 40.4197 10.1845 45.2626 12.5042 50.0971 11.5983 57.861 18.9553 59.6813 19.3785 59.7914 19.7849 59.8422 20.1659 59.8422 24.3311 59.8422 25.9989 53.7632 24.8052 50.8083L67.5413 6.45158 94.6577 20.6671C95.0895 20.9126 95.5551 21.0311 96.0123 21.0311 97.0282 21.0311 98.0018 20.4639 98.4843 19.5579 99.187 18.144 98.6875 16.4337 97.2737 15.6294L68.5488 0.304799 68.3456 0.203199C68.1424 0.1016 68.0408 0.1016 67.8461 0Z" stroke="#005A35" stroke-width="2" stroke-linejoin="round" stroke-miterlimit="10" fill="#D0EFBD" fill-rule="evenodd" transform="matrix(-0.993082 0.117422 0.117422 0.993082 252.905 356.795)"/><path d="M5.03725 0C4.74094 0 4.44464 0.0169333 4.13139 0.0423332 1.81172 0.245532 0 1.45626 0.203183 2.56539L0.905859 9.82129 0.905859 10.0245C0.998985 11.0066 2.59059 11.667 4.56316 11.667 4.81714 11.667 5.07958 11.6586 5.34203 11.6332 7.7633 11.3284 9.47342 10.1261 9.37183 9.01696L8.66916 1.65099C8.5845 0.601131 7.03522 0 5.03725 0Z" stroke="#005A35" stroke-width="2" stroke-linejoin="round" stroke-miterlimit="10" fill="#F89114" fill-rule="evenodd" transform="matrix(-0.993082 0.117422 0.117422 0.993082 119.164 255.833)"/><path d="M9.54957 0.00846663C9.03315 0.00846663 8.49979 0.0338665 7.96644 0.0846663 3.93666 0.491064 0.905855 2.50612 1.10904 4.41958 1.41381 5.13078 0.203182 19.541 0 21.3613 0 21.4629 0 21.4629 0 21.556 0 21.7592 0 21.9624 0 22.1656 0.355569 24.7988 3.98745 26.5175 8.58445 26.5175 9.27019 26.5175 9.97287 26.4751 10.684 26.3989 16.1276 25.7894 20.3606 22.8684 19.9627 19.9474L19.7595 19.143 15.5265 2.81092C15.3487 1.0668 12.7751 0.00846663 9.54957 0.00846663Z" fill="#DFB32C" fill-rule="evenodd" transform="matrix(-0.993082 0.117422 0.117422 0.993082 123.06 261.315)"/><path d="M9.54957 0.00846663C9.03315 0.00846663 8.49979 0.0338665 7.96644 0.0846663 3.93666 0.491064 0.905855 2.50612 1.10904 4.41958 1.41381 5.13078 0.203182 19.541 0 21.3613 0 21.4629 0 21.4629 0 21.556 0 21.7592 0 21.9624 0 22.1656 0.355569 24.7988 3.98745 26.5175 8.58445 26.5175 9.27019 26.5175 9.97287 26.4751 10.684 26.3989 16.1276 25.7894 20.3606 22.8684 19.9627 19.9474L19.7595 19.143 15.5265 2.81092C15.3487 1.0668 12.7751 0.00846663 9.54957 0.00846663Z" stroke="#005A35" stroke-width="2" stroke-linejoin="round" stroke-miterlimit="10" fill="#F8C019" fill-rule="evenodd" transform="matrix(-0.993082 0.117422 0.117422 0.993082 123.06 261.315)"/><path d="M28.2509 0C26.5153 0 24.7206 0.110066 22.8835 0.321732 9.87976 1.83726 0 8.08563 0.71114 14.4356L1.5154 40.6398 1.5154 41.5542C2.20961 47.4724 11.175 51.4347 22.5617 51.4347 24.365 51.4347 26.2275 51.3331 28.1239 51.1299 42.0334 49.5128 52.819 42.6633 52.0148 35.907L47.5786 9.19476C46.8844 3.74225 38.7063 0 28.2509 0Z" fill="#CD8325" fill-rule="evenodd" transform="matrix(-0.993082 0.117422 0.117422 0.993082 138.113 268.436)"/><path d="M28.2509 0C26.5153 0 24.7206 0.110066 22.8835 0.321732 9.87976 1.83726 0 8.08563 0.71114 14.4356L1.5154 40.6398 1.5154 41.5542C2.20961 47.4724 11.175 51.4347 22.5617 51.4347 24.365 51.4347 26.2275 51.3331 28.1239 51.1299 42.0334 49.5128 52.819 42.6633 52.0148 35.907L47.5786 9.19476C46.8844 3.74225 38.7063 0 28.2509 0Z" fill="#F89114" fill-rule="evenodd" transform="matrix(-0.993082 0.117422 0.117422 0.993082 138.113 268.436)"/><path d="M28.6319 1.59173 28.6319 1.69333C28.9536 1.68486 29.2668 1.68486 29.58 1.68486 33.0934 1.68486 36.5899 2.20132 39.9254 3.31045 44.26 4.91911 46.7744 7.23897 47.1808 9.96523L51.6169 36.6774C52.3196 42.9258 41.7372 49.479 28.5303 50.8929 26.7185 51.0877 24.9238 51.1808 23.1882 51.1808 12.318 51.1808 3.53877 47.5232 2.92922 42.2231L2.02336 15.0029C1.71859 12.2851 3.73349 9.45723 7.56856 6.94264 12.4026 4.11478 17.8462 2.40452 23.3914 1.89653 25.1016 1.69333 26.9217 1.59173 28.6319 1.59173ZM28.0816 0C20.64 0 13.2408 1.88806 6.66271 5.63031 2.22655 8.4497 0.00846595 11.8787 0.406366 15.2061L1.11751 41.4103 1.11751 42.4263C1.92177 48.8779 10.9973 53.1112 22.7903 53.1112 24.8052 53.1112 26.8201 53.0096 28.7334 52.8064 43.3457 51.0877 54.2329 44.035 53.327 36.5758L48.8909 9.86363C48.493 6.43464 45.5638 3.61525 40.5265 1.79493 36.4629 0.601131 32.2637 0 28.0816 0Z" stroke="#005A35" stroke-linejoin="round" stroke-miterlimit="10" fill="#005A35" fill-rule="evenodd" transform="matrix(-0.993082 0.117422 0.117422 0.993082 138.527 267.611)"/><path d="M48.0697 0.00846663C45.4283 0.00846663 42.7023 0.152399 39.9254 0.465665 19.9627 2.78552 4.74093 12.4629 5.74838 22.2418L0.406366 116.391C0.00846595 117.906 0.00846595 119.413 0.110057 121.03 1.49847 133.417 19.9035 141.808 43.134 141.808 46.7321 141.808 50.4486 141.604 54.2329 141.19 82.4584 137.964 104.131 123.748 102.514 109.431 102.311 108.127 102.015 106.917 101.507 105.807L78.0222 14.0715C77.0656 5.65571 64.3243 0.00846663 48.0697 0.00846663Z" fill="#D0EFBD" fill-rule="evenodd" transform="matrix(-0.993082 0.117422 0.117422 0.993082 155.711 285.904)"/><path d="M37.8597 0C32.069 0 26.2868 0.516466 20.5638 1.4986 13.6133 2.70933 6.65424 4.62279 0.101591 7.45066 0 7.55226 0 7.65386 0 7.74699 0.101591 7.84859 0.203183 7.84859 0.304774 7.84859 6.85742 5.13079 13.7148 3.31893 20.767 2.2098 25.7788 1.40546 30.8838 1.02447 35.9888 1.02447 37.9783 1.02447 39.9593 1.08373 41.9319 1.20227 45.4622 1.397 48.8909 1.8034 52.4212 2.50613 55.8499 3.11573 59.1686 4.12326 62.4957 5.33399 65.7212 6.54472 68.8451 8.25499 71.6728 10.2701 74.4919 12.1835 76.6084 14.9098 78.0222 18.034L78.1238 18.034C78.2677 18.4827 78.5979 18.669 78.9281 18.669 79.4868 18.669 80.0541 18.1271 79.7324 17.4244 78.2254 14.0038 75.7026 11.0744 72.6802 8.95772 69.6579 6.94266 66.4324 5.23239 63.0036 4.02166 59.6765 2.81093 56.1462 1.905 52.6244 1.2954 49.0941 0.694266 45.5638 0.287866 41.9319 0.0931332 40.5773 0.0338666 39.2228 0 37.8597 0Z" stroke="#005A35" stroke-linejoin="round" stroke-miterlimit="10" fill="#005A35" fill-rule="evenodd" transform="matrix(-0.993082 0.117422 0.117422 0.993082 143.381 375.645)"/><path d="M14.8916 0C14.4683 0 14.045 0.0253999 13.6132 0.0761998 3.73348 1.18533 0 13.8853 7.86486 20.1337 10.0237 21.8524 12.4619 22.6144 14.8323 22.6144 21.0971 22.6144 26.9132 17.2889 26.1089 10.0499 25.4486 4.32646 20.5976 0 14.8916 0Z" fill="#FFFFFF" fill-rule="evenodd" transform="matrix(-0.993082 0.117422 0.117422 0.993082 117.328 311.543)"/><path d="M20.8855 0C20.8178 0 20.7416 0.0761995 20.6738 0.143932 18.9553 3.97084 15.3318 6.59549 11.0989 7.00188 10.8533 7.01035 10.6078 7.01882 10.3623 7.01882 8.59294 7.01882 6.83202 6.68862 5.1473 5.89276 3.33558 4.97837 1.71859 3.57291 0.516423 1.85419 0.414831 1.75259 0.31324 1.75259 0.211649 1.75259 0.110057 1.75259 0.00846595 1.95579 0.110057 2.05739 0.914322 4.17404 2.53132 5.99436 4.44462 7.19662 6.25634 8.23801 8.22044 8.75447 10.2015 8.75447 10.5316 8.75447 10.8618 8.73754 11.2004 8.71214 13.6132 8.50894 15.8313 7.60301 17.6515 6.08749 19.3616 4.58043 20.5723 2.56538 21.0717 0.245532 21.0717 0.143932 21.0717 0.042333 20.9702 0.042333 20.9448 0.0169332 20.9109 0 20.8855 0Z" fill="#005A35" fill-rule="evenodd" transform="matrix(-0.993082 0.117422 0.117422 0.993082 114.348 326.645)"/><path d="M9.9729 0C9.60886 0 9.24483 0.0253999 8.87232 0.0677331 3.6319 0.668864 0.00846596 5.30858 0.507958 10.4478 0.609549 10.8542 0.609549 11.159 0.711141 11.4554L7.26379 10.7526 5.64679 14.2832 4.44463 17.1026C6.03623 18.2795 7.90721 18.8891 9.82051 18.8891 10.2099 18.8891 10.5994 18.8721 10.9888 18.8213 16.1361 18.2117 19.8611 13.572 19.2601 8.33117 18.6928 3.55599 14.663 0 9.9729 0Z" fill="#005A35" fill-rule="evenodd" transform="matrix(-0.993082 0.117422 0.117422 0.993082 112.539 313.942)"/><path d="M9.43105 0.00846659C8.16963 0.00846659 6.9082 0.160865 5.64678 0.482596 4.63933 0.677327 3.73348 0.880525 2.82762 1.28692 1.92177 1.68485 1.01591 2.09125 0.110057 2.49764 0.00846593 2.59924 0.00846593 2.70084 0.00846593 2.79397 0.00846593 2.89557 0.110057 2.89557 0.203182 2.89557 1.21909 2.79397 2.12495 2.49764 3.0308 2.39604 4.03825 2.19285 4.94411 2.09125 5.84996 1.88805 6.85741 1.78645 7.76326 1.78645 8.67758 1.78645 9.00775 1.78645 9.34639 1.74412 9.65117 1.74412 9.80355 1.74412 9.94747 1.75258 10.0829 1.78645 10.5909 1.78645 10.9888 1.88805 11.4967 1.88805 13.3084 2.09125 15.027 2.59924 16.7372 3.40357 18.4557 4.2079 19.9627 5.31702 21.2749 6.73094 21.3257 6.78174 21.3765 6.80714 21.4103 6.80714 21.4527 6.80714 21.4781 6.78174 21.4781 6.73094 21.6813 6.73094 21.6813 6.52774 21.5797 6.42614 20.6653 4.61429 19.26 3.20037 17.4398 2.09125 15.7297 1.08372 13.7148 0.380997 11.6999 0.177798 10.938 0.0592661 10.1845 0.00846659 9.43105 0.00846659Z" stroke="#005A35" stroke-linejoin="round" stroke-miterlimit="10" fill="#005A35" fill-rule="evenodd" transform="matrix(-0.993082 0.117422 0.117422 0.993082 114.262 304.57)"/><path d="M10.4893 0C10.1507 0 9.81203 0.0169333 9.4734 0.0592665 3.9282 0.660398 0 6.10444 0.601082 12.3528 1.26989 18.2202 5.8415 22.4874 10.9803 22.4874 11.319 22.4874 11.6576 22.4705 11.9962 22.4366 17.5414 21.827 21.4696 16.2898 20.767 10.1346 20.0982 4.26718 15.6197 0 10.4893 0Z" fill="#FFFFFF" fill-rule="evenodd" transform="matrix(-0.993082 0.117422 0.117422 0.993082 150.557 311.894)"/><path d="M8.9316 0.00846662C8.60989 0.00846662 8.28818 0.0253999 7.96648 0.0677329 3.32713 0.57573 0 5.20697 0.60955 10.3462 0.60955 10.651 0.711142 11.0574 0.711142 11.3622L6.55266 10.651 5.2489 14.1816 4.13986 17.001C5.63834 18.2371 7.44159 18.8552 9.28717 18.8552 9.55808 18.8552 9.82053 18.8467 10.083 18.8213 14.7223 18.2117 18.0494 13.572 17.4399 8.43275 16.9743 3.64911 13.19 0.00846662 8.9316 0.00846662Z" fill="#005A35" fill-rule="evenodd" transform="matrix(-0.993082 0.117422 0.117422 0.993082 149.071 313.886)"/><path d="M12.9021 0.00846664C12.4365 0.00846664 11.9624 0.0338666 11.4968 0.0846664 9.58348 0.389465 7.86488 0.888997 6.25635 1.89653 4.63935 2.81092 3.22553 4.11479 2.21808 5.63032 1.617 6.43465 1.21063 7.13738 0.812733 8.05178 0.507958 8.85611 0.203183 9.66044 0 10.5664 0 10.668 0 10.7696 0.101592 10.7696 0.135455 10.8034 0.160853 10.8119 0.194717 10.8119 0.262445 10.8119 0.338639 10.7442 0.406366 10.668 1.21063 9.26251 2.21808 7.84858 3.32713 6.53625 4.43617 5.32552 5.6468 4.21639 7.16221 3.41206 8.57603 2.60773 10.083 1.89653 11.7 1.6002 13.4101 1.1938 15.0271 0.990597 16.7372 0.990597L16.8388 0.990597C16.9404 0.990597 17.042 0.888997 17.042 0.787398 17.042 0.685798 17.042 0.592665 16.8388 0.592665 15.5689 0.211666 14.2398 0.00846664 12.9021 0.00846664Z" stroke="#005A35" stroke-linejoin="round" stroke-miterlimit="10" fill="#005A35" fill-rule="evenodd" transform="matrix(-0.993082 0.117422 0.117422 0.993082 149.661 303.522)"/><path d="M56.2986 0.00846663C54.0636 0.00846663 51.837 0.1016 49.602 0.270932L49.602 0.177799C49.3988 0.177799 49.3988 0.474131 49.602 0.575731 50.9904 0.507998 52.3789 0.465665 53.7673 0.465665 60.0067 0.465665 66.1614 1.21073 72.1807 2.69239 75.9057 3.49672 79.436 4.80905 82.6616 6.62937 84.2786 7.5353 85.7855 8.64443 87.0977 10.0499 88.3084 11.2606 89.3158 12.8777 89.7137 14.588 90.2217 16.3067 90.1201 18.1186 89.519 19.7273 88.8079 21.446 87.902 22.953 86.6914 24.367 84.0754 27.0932 81.1462 29.303 77.8275 31.1233 71.1733 34.6455 64.0111 37.0669 56.5526 38.4809 49.6528 39.8948 42.5837 40.606 35.4977 40.606 35.0237 40.606 34.5496 40.606 34.0755 40.5975 26.5154 40.4959 19.1585 39.1836 12.1063 36.5674 8.57601 35.2551 5.45207 33.1384 3.1324 30.319 2.02336 28.9051 1.32069 27.1864 1.2191 25.3745 1.11751 23.5626 1.52387 21.7423 2.42973 20.2353 4.24144 16.9079 6.86589 14.1901 10.0914 12.1666 13.2154 10.0499 16.5425 8.23803 20.0643 6.82411 20.1659 6.72251 20.1659 6.62937 20.1659 6.52777 20.0982 6.45157 20.022 6.38384 19.9543 6.38384 19.9204 6.38384 19.895 6.39231 19.8611 6.42618 16.2377 7.7385 12.809 9.44876 9.58346 11.5654 6.25634 13.5805 3.43718 16.3067 1.42228 19.7273 0.414832 21.446 0.00846595 23.461 0.00846595 25.4761 0.110057 27.4912 0.812732 29.4046 2.02336 31.0217 4.54622 34.1459 7.77175 36.4658 11.4968 37.8713 15.0271 39.3868 18.7521 40.3943 22.5872 41.097 26.4138 41.7066 30.2489 42.113 34.0755 42.2062 35.0237 42.2316 35.9634 42.2485 36.9116 42.2485 43.642 42.2485 50.4317 41.605 57.0605 40.1911 64.519 38.7856 71.8759 36.161 78.6318 32.6304 82.0605 30.7169 85.1844 28.2955 87.8004 25.4761 89.1126 23.9606 90.2217 22.2503 90.9243 20.3369 91.6355 18.4234 91.6355 16.3067 91.1275 14.2832 90.5264 12.3698 89.519 10.5579 88.0036 9.14396 86.5898 7.7385 84.9812 6.62937 83.2627 5.61338 79.8424 3.80152 76.2105 2.48919 72.4855 1.68486 67.1265 0.541865 61.7168 0.00846663 56.2986 0.00846663Z" stroke="#005A35" stroke-linejoin="round" stroke-miterlimit="10" fill="#005A35" fill-rule="evenodd" transform="matrix(-0.993082 0.117422 0.117422 0.993082 162.119 380.118)"/><path d="M12.3095 0C12.2503 0 12.1995 0.0254 12.1995 0.0762001 11.2936 1.18533 10.3793 2.19287 9.47343 3.0988 8.56757 4.10634 7.56012 4.91914 6.45108 5.52027 6.1463 5.62187 5.95158 5.72347 5.64681 5.82507 5.34203 5.82507 5.13885 5.92667 4.84254 5.92667 4.23299 5.92667 3.63191 5.82507 3.12395 5.62187 2.0149 5.11387 1.10904 4.20794 0.507959 3.0988L0.406367 2.9972C0.304775 2.9972 0.203184 2.8956 0.203184 2.8956 0 2.8956 0 2.9972 0 3.2004 0.203184 4.71594 1.00745 6.12141 2.42127 6.93421 3.12395 7.33214 3.92821 7.53534 4.74095 7.53534 4.85947 7.56921 4.978 7.57767 5.09652 7.57767 5.38436 7.57767 5.68914 7.50994 6.04471 7.43374 6.34948 7.33214 6.75585 7.23054 7.15375 7.03581 8.46598 6.32461 9.67661 5.31707 10.4809 4.10634 11.3867 2.9972 11.9963 1.69334 12.4958 0.2794 12.4958 0.2794 12.4958 0.1778 12.4958 0.0762001 12.445 0.0254 12.3773 0 12.3095 0Z" stroke="#005A35" stroke-linejoin="round" stroke-miterlimit="10" fill="#005A35" fill-rule="evenodd" transform="matrix(-0.993082 0.117422 0.117422 0.993082 131.707 335.318)"/><path d="M0.60954 0.00846657C0.50795 0.00846657 0.40636 0.0761991 0.40636 0.152398 0.110056 0.651926 0.00846583 1.15992 0.00846583 1.65945 0.110056 2.26904 0.211646 2.76857 0.40636 3.27656 0.71113 3.77609 1.0159 4.18248 1.51538 4.58888 2.02333 4.88521 2.53128 4.98681 3.13236 4.98681L3.23395 4.98681C3.33554 4.88521 3.33554 4.78361 3.33554 4.69048 3.03077 4.18248 2.726 3.87769 2.53128 3.58136 2.42969 3.17496 2.22651 2.87017 2.02333 2.56537 1.61697 1.86265 1.32067 1.05832 0.81272 0.253997L0.81272 0.152398C0.81272 0.152398 0.71113 0.0507994 0.71113 0.0507994 0.685732 0.0169331 0.643403 0.00846657 0.60954 0.00846657Z" stroke="#005A35" stroke-linejoin="round" stroke-miterlimit="10" fill="#005A35" fill-rule="evenodd" transform="matrix(-0.993082 0.117422 0.117422 0.993082 120.463 333.731)"/><path d="M0.203182 0.0084667C0.101591 0.0084667 0.00846592 0.110067 0.00846592 0.211667 0.00846592 0.914403 0.203182 1.71874 0.609546 2.32834 0.914319 3.03108 1.5154 3.53061 2.12495 4.03861 2.72603 4.44501 3.53029 4.74135 4.34302 4.74135 5.14728 4.74135 5.84995 4.53815 6.55262 4.14021 6.55262 4.14021 6.55262 4.03861 6.55262 4.03861 6.65421 3.93701 6.55262 3.73381 6.4595 3.73381 5.74836 3.53061 5.14728 3.53061 4.63932 3.33588 4.03824 3.13268 3.53029 2.92948 3.13239 2.62468 2.12495 1.82034 1.21063 1.016 0.406364 0.110067L0.406364 0.0084667Z" stroke="#005A35" stroke-linejoin="round" stroke-miterlimit="10" fill="#005A35" fill-rule="evenodd" transform="matrix(-0.993082 0.117422 0.117422 0.993082 131.302 345.588)"/><path d="M49.0941 1.79493C64.8153 1.79493 77.1163 7.13737 78.1238 15.1976L101.71 107.035C102.108 108.144 102.413 109.253 102.514 110.464 103.318 117.017 98.9839 123.765 90.0185 129.616 81.0445 135.559 68.6504 139.691 55.1387 141.206 51.2952 141.664 47.494 141.884 43.7944 141.884 34.4141 141.884 25.6772 140.453 18.4473 137.778 8.56754 134.052 2.72604 128.405 2.02336 121.852 1.82018 120.336 1.92177 118.931 2.21808 117.517 2.21808 117.415 2.21808 117.415 2.21808 117.314L7.56009 23.1647C7.56009 23.1647 7.56009 23.0631 7.56009 23.0631 6.55265 13.7921 21.4697 4.41112 40.9244 2.29446 43.6504 1.99813 46.368 1.79493 49.0941 1.79493ZM49.1872 0C46.4611 0 43.625 0.160866 40.7297 0.482598 20.3606 2.80246 4.74093 12.9793 5.84997 23.1647L0.406366 117.11C0.101591 118.728 0 120.336 0.203183 121.953 1.00745 129.311 7.26379 135.458 17.8462 139.395 25.9312 142.223 34.3972 143.628 42.9647 143.628 43.261 143.628 43.5573 143.628 43.8536 143.628 47.6802 143.628 51.5068 143.323 55.2403 142.917 69.0483 141.41 81.5525 137.278 90.9243 131.123 100.296 124.976 105.037 117.517 104.224 110.261 104.131 108.949 103.725 107.636 103.318 106.426L79.7323 14.7997C78.7841 5.86738 65.9074 0 49.1872 0Z" stroke="#005A35" stroke-linejoin="round" stroke-miterlimit="10" fill="#005A35" fill-rule="evenodd" transform="matrix(-0.993082 0.117422 0.117422 0.993082 156.353 284.489)"/><path d="M1.45614 0.00846664C1.01591 0.00846664 0.592614 0.0761997 0.203182 0.270932 0.203182 0.270932 0.110057 0.270932 0.110057 0.372532 0.00846591 0.474132 0.110057 0.575731 0.203182 0.677331 0.711136 0.872064 1.21062 1.07526 1.71858 1.38006 2.12494 1.68486 2.52284 1.98119 2.9292 2.28599 3.83506 2.88712 4.63932 3.59832 5.54517 4.40265L5.54517 4.50425 5.74835 4.50425C5.84994 4.40265 5.95153 4.40265 5.95153 4.19945 5.84994 3.59832 5.64676 2.98872 5.24886 2.38759 4.94409 1.87959 4.53773 1.38006 4.03824 0.973663 3.42869 0.575731 2.82761 0.270932 2.22653 0.0677331 1.96409 0.0338666 1.71011 0.00846664 1.45614 0.00846664Z" fill="#FFFFFF" fill-rule="evenodd" transform="matrix(-0.993082 0.117422 0.117422 0.993082 103.065 317.092)"/><path d="M1.39689 0.00846672C0.990522 0.00846672 0.575688 0.0931339 0.203184 0.220135 0.101592 0.220135 0.101592 0.313269 0.101592 0.313269 0 0.414869 0 0.51647 0.203184 0.61807 0.711144 0.922872 1.21064 1.12607 1.7186 1.32081 2.1165 1.62561 2.52287 1.93041 2.92924 2.23521 3.8351 2.83635 4.53778 3.64069 5.54523 4.35189 5.60449 4.37729 5.66376 4.39423 5.72302 4.39423 5.85001 4.39423 5.9516 4.31803 5.9516 4.25029 5.85001 3.53909 5.54523 2.93795 5.24892 2.42995 4.94415 1.82881 4.43619 1.32081 3.93669 0.922872 3.42873 0.51647 2.82765 0.220135 2.1165 0.118534 1.88792 0.0423336 1.6424 0.00846672 1.39689 0.00846672Z" fill="#FFFFFF" fill-rule="evenodd" transform="matrix(-0.993082 0.117422 0.117422 0.993082 140.633 316.358)"/><path d="M1.02437 0.00846673C0.787327 0.00846673 0.550282 0.0169335 0.304772 0.0423336 0.110056 0.0423336 0.00846588 0.143934 0.00846588 0.245535 0.00846588 0.347136 0.110056 0.448737 0.304772 0.550337 1.1175 0.643471 2.02335 0.948274 2.82761 1.45628 3.13238 1.75261 3.43715 1.95581 3.73345 2.36222 4.03823 2.66702 4.343 2.96336 4.54618 3.36976 4.54618 3.36976 4.54618 3.47136 4.6393 3.47136 4.84249 3.66609 5.0626 3.75076 5.26578 3.75076 5.92612 3.75076 6.48487 2.94642 5.95152 2.26062 5.24885 1.55788 4.343 0.846673 3.33556 0.448737 2.56516 0.135468 1.79477 0.00846673 1.02437 0.00846673Z" fill="#335A3A" fill-rule="evenodd" transform="matrix(-0.993082 0.117422 0.117422 0.993082 74.8372 452.619)"/><path d="M19.2262 0.00846664C19.1246 0.00846664 19.023 0.00846664 19.023 0.211666 18.6166 2.32833 17.8124 4.44499 16.5001 6.15525 15.1879 7.77238 13.4778 8.97464 11.4629 9.58424 10.7264 9.77051 9.95596 9.85517 9.18556 9.85517 7.8564 9.85517 6.52725 9.59271 5.31662 9.07624 3.39485 8.06871 1.68472 6.66325 0.474093 4.84292 0.44023 4.74132 0.364036 4.69899 0.296308 4.69899 0.152387 4.69899 0.00846595 4.85139 0.0677276 5.04612 0.982051 7.26438 2.59058 9.17784 4.70707 10.3886 6.12088 11.1929 7.75481 11.5993 9.40567 11.5993 10.2269 11.5993 11.0565 11.4977 11.8608 11.2945 14.2821 10.5918 16.297 9.07624 17.7108 6.95958 19.023 4.94452 19.6241 2.62466 19.4209 0.211666 19.4209 0.110066 19.3278 0.00846664 19.2262 0.00846664Z" fill="#005A35" fill-rule="evenodd" transform="matrix(-0.993082 0.117422 0.117422 0.993082 150.305 323.749)"/><path d="M3.09856 0C3.0139 0 2.92077 0.0084666 2.82765 0.0253998 1.11751 0.524929 0.00846601 2.04045 0.110058 3.8523 0.00846601 5.66415 1.82019 11.1082 2.32815 11.1082 2.32815 11.1082 2.33662 11.1082 2.33662 11.1082 2.86998 11.1082 5.35052 5.35089 5.45211 3.35277 5.54523 1.45625 4.47852 0 3.09856 0Z" fill="#F89114" fill-rule="evenodd" transform="matrix(-0.993082 0.117422 0.117422 0.993082 166.228 344.792)"/><path d="M2.48053 0.00846669C1.82018 0.00846669 1.1683 0.313267 0.812732 0.922869 0.00846596 2.13361 0.00846596 3.75074 0.914324 4.96148 1.76092 5.99441 5.6214 8.00949 6.34947 8.00949 6.40027 8.00949 6.43413 8.00102 6.45953 7.98409 6.75584 7.57769 5.14731 2.032 4.13986 0.829735 3.74196 0.287867 3.10701 0.00846669 2.48053 0.00846669Z" fill="#F89114" fill-rule="evenodd" transform="matrix(-0.993082 0.117422 0.117422 0.993082 171.544 347.718)"/><path d="M2.21807 0.00846665C0.905854 0.00846665 0 1.1176 0.101591 2.42993 0 3.73379 0.905854 4.84293 2.11648 5.04613 2.15035 5.04613 2.19267 5.05459 2.22654 5.05459 3.64881 5.05459 7.66166 3.31893 7.76325 2.82786 7.76325 2.32833 3.4287 0.00846665 2.21807 0.00846665Z" fill="#F89114" fill-rule="evenodd" transform="matrix(-0.993082 0.117422 0.117422 0.993082 173.842 353.449)"/><path d="M6.24788 0C5.29969 0 1.72706 1.4732 0.914324 2.37914 0.110058 3.38667 0.00846596 4.8006 0.812732 5.90974 1.15137 6.47701 1.78632 6.79027 2.42973 6.79027 2.92922 6.79027 3.43718 6.60401 3.83508 6.21454 4.84253 5.30014 6.75584 0.465667 6.45953 0.0592667 6.42567 0.0169333 6.34947 0 6.24788 0Z" fill="#F89114" fill-rule="evenodd" transform="matrix(-0.993082 0.117422 0.117422 0.993082 172.777 357.275)"/><path d="M2.72602 0.00846667C2.21806 0.00846667 0.101591 4.84293 0.101591 6.35847 0 7.7724 0.914316 9.08473 2.21806 9.58427 2.37045 9.61813 2.51437 9.63507 2.65829 9.63507 3.89431 9.63507 4.94408 8.52593 4.94408 7.2644 5.04567 5.65573 3.12391 0.00846667 2.72602 0.00846667Z" fill="#F89114" fill-rule="evenodd" transform="matrix(-0.993082 0.117422 0.117422 0.993082 168.324 358.261)"/><path d="M0.491026 0C0.448696 0 0.423298 0.00846659 0.406367 0.0253998 0 0.431796 1.71859 5.97742 2.82763 7.38287 3.42025 8.238 4.39384 8.71213 5.41822 8.71213 5.96851 8.71213 6.53573 8.57666 7.06062 8.29726 8.37284 7.08654 8.47444 5.07149 7.2638 3.86077 6.11243 2.52305 1.25296 0 0.491026 0Z" fill="#F89114" fill-rule="evenodd" transform="matrix(-0.993082 0.117422 0.117422 0.993082 165.184 358.309)"/><path d="M8.07652 0.00846658C7.97493 0.00846658 7.87333 0.00846658 7.77174 0.0253997 5.74838 0.0253997 0.110057 2.34524 0.110057 2.84477 0.00846595 3.45436 5.24889 6.27373 7.16219 6.47693 7.34845 6.50233 7.5347 6.51926 7.71248 6.51926 9.41414 6.51926 10.9295 5.27468 11.2936 3.45436 11.3952 1.64252 9.86283 0.00846658 8.07652 0.00846658Z" fill="#F89114" fill-rule="evenodd" transform="matrix(-0.993082 0.117422 0.117422 0.993082 164.049 354.692)"/><path d="M6.65426 0C5.62141 0 4.5039 0.507996 3.73349 1.39699 2.42127 2.91251 0 8.75446 0.304775 9.16085 0.330173 9.19472 0.389435 9.21165 0.482561 9.21165 1.51541 9.21165 6.47647 7.23047 7.86489 5.93508 9.47342 4.41956 9.7782 2.00658 8.56757 0.79586 8.06807 0.253998 7.38233 0 6.65426 0Z" fill="#F89114" fill-rule="evenodd" transform="matrix(-0.993082 0.117422 0.117422 0.993082 163.697 347.461)"/><path d="M2.79378 0C1.37996 0 0.00846601 0.71967 0.101592 2.22674 0 3.84388 1.00746 5.24936 2.62446 5.55416 2.68373 5.56262 2.74299 5.56262 2.79378 5.56262 4.42772 5.56262 5.74842 4.19102 5.74842 2.63315 6.07013 0.922871 4.40233 0 2.79378 0Z" fill="#F8C019" fill-rule="evenodd" transform="matrix(-0.993082 0.117422 0.117422 0.993082 167.897 354.654)"/><path d="M15.2048 0.00846663C14.1805 0.00846663 13.1984 0.550331 12.7074 1.53246 12.5042 1.73566 12.4026 2.04046 12.4026 2.43839 12.4026 2.64159 12.4026 2.84479 12.4026 3.14959L18.7521 82.3803C14.9255 85.3013 12.9106 92.0577 11.9031 95.7915 10.4893 100.829 0.00846595 116.45 8.77919 131.174 9.68505 132.139 10.8195 132.714 11.9031 132.714 12.7413 132.714 13.5624 132.367 14.2228 131.571 15.8313 129.861 20.5723 124.316 22.6887 118.77 24.7036 113.224 24.602 107.077 25.11 103.352 25.6095 99.72 33.2712 83.0831 24.3989 81.1696L18.4558 7.78084 18.4558 7.78084 39.1211 18.9737C39.5106 19.1854 39.9508 19.287 40.3826 19.287 41.3816 19.287 42.389 18.7451 42.9478 17.763 43.6504 16.3491 43.0494 14.7404 41.7371 13.9361L16.5425 0.321732C16.1107 0.110066 15.6535 0.00846663 15.2048 0.00846663Z" fill="#D0EFBD" fill-rule="evenodd" transform="matrix(-0.993082 0.117422 0.117422 0.993082 128.701 366.485)"/><path d="M10.9634 0.00846663C10.8364 0.00846663 10.7094 0.0169333 10.5909 0.0338665 9.78664 0.135466 8.98238 0.431798 8.47442 0.939796 8.16965 1.143 7.87334 1.43933 7.67016 1.84573 7.46697 2.15052 7.26379 2.54846 7.1622 2.95485 7.06061 3.36125 7.06061 3.65759 7.1622 4.06398L7.1622 4.96991 7.77175 12.1242 8.7792 26.3397 11.0989 54.8722 13.4778 82.8968 13.4778 82.8968C11.9031 84.3446 10.5316 86.0549 9.68505 88.036 8.6776 90.1527 7.87334 92.2694 7.26379 94.386 6.95902 95.3935 6.7643 96.5027 6.35793 97.4086 5.95157 98.4161 5.55367 99.4237 5.04571 100.431 4.24144 102.446 3.33559 104.461 2.53132 106.578 0.914323 110.718 0.110057 115.155 0.00846596 119.684 0.110057 124.222 1.32069 128.659 3.6319 132.587L3.83508 132.791C4.84253 133.9 6.35793 134.509 7.96646 134.509 8.7792 134.408 9.58346 134.001 10.1845 133.4 10.4893 133.197 10.6925 132.892 10.8957 132.689L11.5984 131.885C13.2154 129.87 14.8239 127.753 16.2377 125.636 17.6431 123.317 18.7521 120.895 19.5648 118.38 20.3691 115.857 20.7755 113.233 20.9702 110.617L21.3765 106.781C21.3765 106.18 21.3765 105.477 21.4781 104.868 21.5797 104.563 21.5797 104.267 21.6813 103.962 21.6813 103.759 21.7829 103.454 21.8845 103.157 22.5872 100.736 23.493 98.2129 24.0941 95.6983 24.8052 93.0737 25.11 90.4575 25.11 87.7312 25.0084 86.3173 24.6021 84.9119 23.7978 83.5995 23.0867 82.5412 22.003 81.7115 20.7247 81.3897L20.7247 81.3897 15.1456 10.3208 15.1456 10.3208 32.6617 19.0838C32.8648 19.0838 32.9664 18.8806 32.8648 18.779L14.6207 8.0941C14.5191 7.9925 14.3244 7.8909 14.1212 7.8909 13.7148 7.9925 13.3085 8.3989 13.3085 8.79683L19.1585 82.084C19.1585 82.4904 19.4632 82.7952 19.8611 82.8968 20.9702 83.0915 21.8845 83.7011 22.4856 84.5055 23.0867 85.513 23.3914 86.6221 23.3914 87.7312 23.493 90.2543 23.1883 92.7689 22.4856 95.1904 21.8845 97.6118 21.0718 100.033 20.2675 102.548 20.1659 102.853 20.0643 103.157 20.0643 103.555 19.9627 103.86 19.8611 104.267 19.8611 104.563 19.7595 105.274 19.6664 105.875 19.6664 106.578L19.3616 110.413C19.1585 112.936 18.659 115.349 18.0494 117.771 17.2451 120.192 16.1361 122.512 14.8239 124.629 13.4101 126.745 11.9031 128.761 10.2861 130.674L9.68505 131.377C9.48187 131.682 9.27869 131.885 9.0755 132.088 8.7792 132.384 8.27124 132.587 7.87334 132.689 6.7643 132.689 5.75685 132.19 5.1473 131.377L5.1473 131.377 5.24889 131.58C3.03081 127.956 1.92177 123.816 1.82018 119.481 1.92177 115.248 2.72604 111.014 4.24144 106.984 5.04571 104.969 5.84998 103.056 6.7643 101.041 7.1622 100.033 7.56856 99.1189 8.06806 98.0097 8.47442 96.8075 8.6776 95.7999 8.98238 94.784 9.58346 92.7689 10.3877 90.7538 11.2936 88.8404 12.1063 86.9269 13.4101 85.2082 14.9255 83.9043 15.1287 83.7011 15.2303 83.3963 15.2303 83.1931L13.1138 54.669 10.8957 26.1365 9.68505 11.9295 9.0755 4.76671 8.98238 3.86078C8.98238 3.65759 8.98238 3.45439 8.98238 3.25965 8.98238 3.05645 9.0755 2.95485 9.1771 2.75166 9.27869 2.54846 9.38028 2.44686 9.58346 2.25212 9.91363 1.97273 10.3708 1.82033 10.828 1.82033 11.2005 1.82033 11.5814 1.92193 11.9031 2.15052 20.2675 6.68017 28.6319 11.1167 37.4026 15.0537 37.4026 15.1045 37.428 15.1299 37.4703 15.1299 37.5042 15.1299 37.555 15.1045 37.6058 15.0537 37.6058 15.0537 37.6058 14.9521 37.6058 14.8505 29.5377 9.71123 21.1734 5.07151 12.809 0.533398 12.2248 0.203199 11.573 0.00846663 10.9634 0.00846663Z" stroke="#005A35" stroke-linejoin="round" stroke-miterlimit="10" fill="#005A35" fill-rule="evenodd" transform="matrix(-0.993082 0.117422 0.117422 0.993082 124.277 365.985)"/><path d="M7.86489 0C6.85744 0 5.84999 0.101601 4.94413 0.304802 3.92821 0.601137 3.02235 1.00754 2.21809 1.61714 1.31223 2.31988 0.60955 3.12422 0.101592 4.03016L0.203183 4.13176C0 4.53816 0.203183 5.0377 0.702676 5.2409 0.812734 5.2917 0.922791 5.3171 1.03285 5.3171 1.34609 5.3171 1.6678 5.1139 1.81172 4.74136 2.11649 4.03016 2.62445 3.32742 3.22554 2.81942 3.83509 2.21828 4.53776 1.71028 5.34203 1.41394 6.1463 1.10914 6.95903 0.905939 7.86489 0.905939L9.17712 0.905939 10.5825 1.00754C10.6841 1.00754 10.7857 1.00754 10.8872 0.905939 10.8872 0.702737 10.7857 0.601137 10.6841 0.601137L9.27024 0.203201C8.77075 0.203201 8.36438 0 7.86489 0Z" fill="#005A35" fill-rule="evenodd" transform="matrix(-0.993082 0.117422 0.117422 0.993082 131.835 464.295)"/><path d="M22.2824 0.00846663C22.0199 0.00846663 21.749 0.0169333 21.4696 0.0338665 21.4696 0.0338665 8.06805 0.0338665 5.03724 7.59457 1.9133 15.1553 0 22.8176 0.406366 26.653 0.905856 30.4799 3.42871 41.8759 3.9282 43.4846 4.24144 44.526 5.84997 45.5674 7.831 45.5674 9.11783 45.5674 10.5486 45.1356 11.8947 43.9926 15.3234 41.1648 14.7138 35.7207 13.0037 33.8073 11.9962 32.9013 11.4883 31.589 11.4883 30.1751L13.808 22.716 18.4473 33.9089C18.4473 36.1271 18.0409 38.3454 17.4399 40.462 16.4324 43.2814 13.2069 43.2814 11.9962 48.2259 10.8364 52.9418 15.1033 54.9908 17.4229 54.9908 17.533 54.9908 17.643 54.9823 17.7446 54.9738 19.8611 54.7791 24.1957 51.5533 25.3978 47.7179 26.5069 43.7894 27.3196 40.7668 27.3196 40.7668 29.0297 39.5561 30.7399 38.2438 32.3569 36.8298 33.3643 35.7207 33.1611 33.0029 33.1611 33.0029 34.6765 32.097 35.8872 30.8863 36.793 29.3707 38.4015 26.5514 38.9095 23.224 38.1052 19.9982 37.2925 17.2719 32.1537 5.28318 32.1537 5.28318 32.1537 5.28318 28.3609 0.00846663 22.2824 0.00846663Z" fill="#D0EFBD" fill-rule="evenodd" transform="matrix(-0.993082 0.117422 0.117422 0.993082 78.0704 422.499)"/><path d="M14.8239 26.1365 18.4558 35.0095C18.4558 37.1262 18.0494 39.1413 17.5499 41.1563 17.1435 42.0622 16.534 42.7734 15.7297 43.273 15.3318 43.5778 14.9255 43.8826 14.6207 44.2805 15.5265 42.9682 16.0345 41.3595 16.1361 39.7424 16.3393 37.7273 15.7297 35.7123 14.5191 34.1036 13.8164 33.3924 13.3085 32.3849 13.2153 31.2758L14.8239 26.1365ZM23.0782 1.82033C28.2424 1.82033 31.6796 6.00284 32.1621 6.57858 32.6616 7.7893 37.301 18.6774 38.0121 21.2005 38.8164 24.1214 38.41 27.144 36.9031 29.7687 35.9887 31.1741 34.8797 32.2833 33.5759 33.1892 33.2712 33.3924 33.1696 33.6972 33.1696 34.002 33.2712 35.1111 33.068 36.2203 32.5685 37.1262 30.9515 38.5317 29.343 39.7424 27.6244 40.9531 27.5228 41.0547 27.3196 41.2579 27.3196 41.4611 27.3196 41.4611 26.5153 44.5853 25.4063 48.3106 24.2973 51.8412 20.2675 54.8638 18.4558 55.067 16.9404 55.067 15.5265 54.4659 14.5191 53.2551 13.6132 52.2476 13.3085 50.7321 13.7148 49.3181 14.1212 47.4047 15.2302 45.796 16.7372 44.6869 17.8462 43.8826 18.6589 42.8666 19.1584 41.6643 19.7595 39.4461 20.1659 37.1262 20.1659 34.8063 20.1659 34.7047 20.1659 34.6031 20.1659 34.5015L15.5265 23.3171C15.3318 22.9107 15.0271 22.7075 14.7223 22.7075L14.6207 22.7075C14.2228 22.8091 13.918 23.0123 13.8164 23.3171L11.4968 30.8778C11.4968 30.8778 11.4968 30.9794 11.4968 30.9794 11.3952 32.6897 12.1063 34.2052 13.2153 35.3059 14.1212 36.6182 14.5191 38.1337 14.3244 39.6408 14.3244 41.4611 13.5116 43.0698 12.2079 44.2805 11.2428 45.1018 10.0575 45.5844 8.81305 45.5844 8.37282 45.5844 7.91566 45.5251 7.46696 45.3896 6.76429 45.288 6.05315 44.7885 5.65525 44.1789 5.14729 42.4686 2.62444 31.2758 2.22654 27.4488 1.82018 23.9182 3.63189 16.3575 6.76429 8.79683 9.58345 1.94733 22.2824 1.84573 22.384 1.84573 22.621 1.82879 22.8496 1.82033 23.0782 1.82033ZM22.985 0.00846663C22.748 0.00846663 22.5194 0.0169333 22.2824 0.0253999 21.3765 0.0253999 8.27123 0.330199 5.0457 8.0941 1.82018 15.9511 0.00846594 23.715 0.406365 27.652 0.812731 31.4789 3.43717 42.9682 3.93666 44.5853 4.54621 45.8976 5.65525 46.8036 6.95901 47.0068 7.57702 47.1676 8.2035 47.2523 8.82998 47.2523 10.4639 47.2523 12.0724 46.685 13.3085 45.5928L13.6132 45.288 13.6132 45.288C12.809 46.3972 12.301 47.6079 12.0047 48.8186 11.3952 50.8337 11.9031 52.9503 13.2153 54.4659 14.5191 55.8713 16.3393 56.6841 18.2526 56.7773L18.6589 56.6841C21.1733 56.3793 25.8127 52.9503 27.0233 48.717 27.9292 45.5928 28.6318 42.9682 28.9366 42.1638 30.6467 40.9531 32.2637 39.6408 33.8722 38.2353 34.5834 37.1262 34.9813 35.7123 34.8797 34.2983 36.2935 33.3924 37.4025 32.0801 38.41 30.6746 40.1286 27.652 40.6281 24.0198 39.7222 20.5909 38.9179 17.8731 33.8722 6.27378 33.6775 5.77424 33.6775 5.67265 33.6775 5.67265 33.5759 5.57105 33.4743 5.37631 29.5208 0.00846663 22.985 0.00846663Z" stroke="#005A35" stroke-linejoin="round" stroke-miterlimit="10" fill="#005A35" fill-rule="evenodd" transform="matrix(-0.993082 0.117422 0.117422 0.993082 78.8729 421.501)"/><path d="M2.58212 0.00846664C2.24348 0.00846664 1.91331 0.0846664 1.617 0.253999 0.203183 0.965197 0 3.28506 1.10904 5.40172L36.5899 74.3456C37.4788 75.9711 39.028 77.0718 40.3318 77.0718 40.645 77.0718 40.9498 77.0041 41.2292 76.8686 42.533 76.1659 42.8377 73.846 41.7287 71.6278L6.14628 2.77706C5.27429 1.10913 3.84354 0.00846664 2.58212 0.00846664Z" fill="#D0EFBD" fill-rule="evenodd" transform="matrix(-0.993082 0.117422 0.117422 0.993082 88.6941 347.531)"/><path d="M5.27429 0C5.1727 0.1016 5.0711 0.203199 5.1727 0.304799 8.00032 6.65478 11.0227 12.9032 14.1466 19.1515L23.62 37.6003 33.0934 56.1507 37.8343 65.4217 39.045 67.7416 39.646 68.9523C39.8492 69.2571 40.0524 69.655 40.154 69.9598 40.4588 70.6626 40.5519 71.3738 40.5519 72.0765 40.5519 72.5845 40.2556 72.9824 39.8492 73.2872 39.6714 73.355 39.4937 73.3888 39.3159 73.3888 39.0026 73.3888 38.6979 73.2788 38.4354 73.084 37.8343 72.6861 37.3264 72.1781 36.9285 71.577 36.8269 71.2722 36.6237 70.8658 36.4205 70.5694L35.8194 69.3587 34.5072 67.0388 29.7747 57.861 20.1913 39.3191C13.7402 27.1186 7.49237 14.6219 0.440229 2.72626L0.541821 2.72626C0.465627 2.61619 0.372502 2.57386 0.287842 2.57386 0.126989 2.57386 0.00846595 2.72626 0.135455 2.92099 5.68065 15.6294 12.2333 27.8214 18.5828 40.225L28.0562 58.7754 32.7971 68.0464 33.9061 70.3662 34.5072 71.4754C34.7104 71.9749 34.9136 72.2797 35.2099 72.7792 35.7178 73.6936 36.4205 74.3964 37.3264 74.9975 37.8343 75.3023 38.3423 75.5055 38.9434 75.5055 39.1042 75.5309 39.2735 75.5478 39.4513 75.5478 39.917 75.5478 40.4164 75.4547 40.8567 75.3023 41.8641 74.5996 42.5753 73.4904 42.5753 72.1781 42.6768 71.1706 42.4737 70.163 42.0673 69.2571 41.7625 68.7491 41.5678 68.3512 41.3646 67.9448L40.8567 66.8356 39.646 64.5158 34.812 55.2448 25.237 36.796 15.662 18.3472C12.4365 12.2004 9.10936 6.14678 5.57906 0.1016 5.47747 0 5.37588 0 5.27429 0Z" stroke="#005A35" stroke-linejoin="round" stroke-miterlimit="10" fill="#005A35" fill-rule="evenodd" transform="matrix(-0.993082 0.117422 0.117422 0.993082 88.1303 350.189)"/><path d="M17.9817 0.00846662C13.2492 0.00846662 3.33558 4.24178 3.33558 4.24178 0.914323 5.5541 0.00846595 8.47508 1.01591 10.9981 2.02336 13.318 3.43718 16.3406 4.34303 16.6454 4.44462 16.6792 4.65627 16.6962 4.95258 16.6962 7.33998 16.6962 15.3318 15.6802 18.5574 14.4271 22.0792 13.0132 22.4856 10.2954 22.2824 7.87395 22.0792 5.4525 21.5797 1.01599 19.4632 0.211665 19.0653 0.0677329 18.5658 0.00846662 17.9817 0.00846662Z" stroke="#005A35" stroke-width="2" stroke-linejoin="round" stroke-miterlimit="10" fill="#F89114" fill-rule="evenodd" transform="matrix(-0.993082 0.117422 0.117422 0.993082 70.3317 412.783)"/><path d="M1.29532 0C1.20219 0.1016 1.10059 0.2032 1.10059 0.3048 1.4985 1.82033 1.6001 3.3274 1.39691 4.84294 1.29532 5.54567 1.20219 6.2484 0.999001 6.9596 0.795815 7.66234 0.592628 8.37354 0.287848 8.97467L0.186254 9.07627 0.186254 9.17787C0.00846611 9.84674 0.56723 10.3039 1.10059 10.3039 1.44771 10.3039 1.78635 10.1177 1.90488 9.6774 2.10806 8.87307 2.30278 8.06874 2.40438 7.2644 2.50597 6.4516 2.50597 5.64727 2.50597 4.84294 2.50597 3.2258 2.20966 1.61713 1.6001 0.2032 1.4985 0.1016 1.39691 0 1.29532 0Z" stroke="#005A35" stroke-linejoin="round" stroke-miterlimit="10" fill="#005A35" fill-rule="evenodd" transform="matrix(-0.993082 0.117422 0.117422 0.993082 55.7181 456.747)"/><path d="M0.296307 0.00846662C0.270909 0.00846662 0.237045 0.0169332 0.211648 0.0507997 0.00846591 0.152399 0.00846591 0.245532 0.110057 0.347131 0.609545 1.65946 0.914318 2.97178 1.01591 4.38571 1.1175 5.79117 1.1175 7.10349 1.01591 8.51742L0.914318 8.61902C0.914318 8.61902 0.914318 8.61902 0.914318 8.72062 0.965113 9.29635 1.37994 9.57575 1.80324 9.57575 2.2604 9.57575 2.72602 9.24555 2.72602 8.61902 2.62443 7.10349 2.42972 5.68957 2.12494 4.18251 1.82017 2.76858 1.32068 1.35466 0.507954 0.152399 0.440227 0.0761996 0.3725 0.00846662 0.296307 0.00846662Z" stroke="#005A35" stroke-linejoin="round" stroke-miterlimit="10" fill="#005A35" fill-rule="evenodd" transform="matrix(-0.993082 0.117422 0.117422 0.993082 49.8213 450.496)"/><path d="M26.2105 0C23.586 0.1016 20.9701 0.304799 18.4472 0.80433 15.8313 1.31233 13.3084 2.01506 10.8872 3.02259 8.37279 3.92852 6.05313 5.34245 4.03824 7.0527 3.0308 8.0687 2.11648 9.07623 1.41381 10.2785 0.609546 11.4892 0.203182 12.9031 0.101591 14.3171L0 14.3171C0 14.9436 0.465625 15.2738 0.93125 15.2738 1.35455 15.2738 1.76938 14.9944 1.82017 14.4187 1.92176 13.3095 2.21807 12.0988 2.72602 11.0913 3.3271 10.0838 4.13983 9.07623 5.04568 8.16183 6.85739 6.45157 8.97387 5.03765 11.2935 4.03012 13.6132 2.92099 16.026 2.11666 18.5488 1.51553 21.0717 1.00753 23.6876 0.601131 26.3121 0.406398 26.4136 0.406398 26.4136 0.304799 26.4136 0.203199 26.4136 0.1016 26.3121 0 26.2105 0Z" fill="#005A35" fill-rule="evenodd" transform="matrix(-0.993082 0.117422 0.117422 0.993082 138.748 272.947)"/><path d="M26.5152 0.00846663C23.8908 0.110066 21.1733 0.414865 18.6504 0.812797 16.026 1.32079 13.41 2.12512 10.9888 3.13265 8.46591 4.14018 6.15472 5.65571 4.13137 7.46757 3.12392 8.3735 2.21807 9.48263 1.5154 10.6934 0.812728 11.9041 0.304773 13.2164 0.101591 14.7235L0.101591 14.6219 0.101591 14.6219C0 15.1299 0.406364 15.5278 0.905853 15.6294 0.948182 15.6463 0.998978 15.6463 1.04131 15.6463 1.41381 15.6463 1.82017 15.2738 1.82017 14.8251 2.01489 13.6143 2.31966 12.5052 2.92921 11.3961 3.53029 10.287 4.23296 9.27943 5.14728 8.4751 6.95898 6.66324 9.07546 5.14771 11.3951 4.14018 13.8079 3.03105 16.2292 2.22672 18.752 1.61713 21.368 1.016 23.8908 0.609598 26.5152 0.414865 26.6168 0.414865 26.71 0.313265 26.71 0.211666 26.71 0.110066 26.6168 0.00846663 26.5152 0.00846663Z" fill="#005A35" fill-rule="evenodd" transform="matrix(-0.993082 0.117422 0.117422 0.993082 139.167 277.357)"/><path d="M10.9888 1.73566C11.2936 1.73566 11.7 1.83726 11.9963 2.03199 12.5042 2.64159 12.7074 3.34432 12.6058 4.05552 12.1995 6.07058 11.4968 7.98404 10.5909 9.7959 10.4893 9.9991 10.4893 10.3039 10.5909 10.5071 10.6841 10.7018 10.8872 10.905 11.0904 11.0066L11.2936 11.1082C11.4206 11.159 11.5561 11.1844 11.6915 11.1844 12.0725 11.1844 12.4281 10.9812 12.5042 10.6087 13.2069 8.68677 14.1128 6.87491 15.2218 5.16465 15.8314 4.45345 16.6356 4.05552 17.5415 4.05552 17.9479 4.05552 18.4474 4.15712 18.7521 4.55505 19.1585 4.96145 19.3532 5.46098 19.2601 5.96898 19.2601 6.97651 18.8537 7.88244 18.1511 8.48357 16.4325 9.6943 14.6207 10.6087 12.809 11.2098 12.5042 11.2098 12.4027 11.413 12.3011 11.6162 12.1995 11.811 12.1995 12.1158 12.3011 12.319 12.3011 12.4206 12.3011 12.4206 12.3011 12.5222 12.3011 12.7254 12.5042 12.9201 12.7074 13.1233 12.8514 13.1741 12.9783 13.1995 13.1053 13.1995 13.2323 13.1995 13.3593 13.1741 13.5117 13.1233 15.2218 12.2174 17.1351 11.6162 19.0569 11.3114 19.8612 11.3114 20.6655 11.6162 21.1734 12.2174 21.5713 12.6238 21.7745 13.2249 21.6729 13.8345 21.402 15.1214 20.1914 16.0697 18.913 16.0697 18.7945 16.0697 18.6675 16.0697 18.549 16.0443 16.7372 15.5447 15.0186 14.7404 13.4101 13.8345 13.2916 13.7159 13.1392 13.6651 12.9953 13.6651 12.8852 13.6651 12.7836 13.6905 12.7074 13.7329 12.4027 13.7329 12.1995 13.9276 12.0979 14.2324L11.9963 14.4356C11.8947 14.6388 11.8947 14.842 11.9963 15.0367 12.0979 15.3415 12.3011 15.4431 12.5042 15.6463 14.2144 16.3491 15.8314 17.3566 17.2367 18.5673 17.7447 19.0753 17.9479 19.8797 17.8463 20.5824 17.8463 20.9888 17.5415 21.4883 17.2367 21.6915 16.8558 21.9032 16.4494 22.0048 16.0515 22.0048 15.298 22.0048 14.5784 21.6492 14.1128 20.9888 13.3085 19.3717 12.6058 17.6614 12.1995 15.9511 12.0979 15.7479 11.8947 15.5447 11.7 15.4431 11.5476 15.3923 11.3952 15.3669 11.2513 15.3669 11.1158 15.3669 10.9888 15.3923 10.8872 15.4431 10.5909 15.5447 10.3878 15.6463 10.2862 15.8495 10.1846 16.0443 10.1846 16.3491 10.2862 16.5523 10.9888 18.1609 11.3952 19.8797 11.5984 21.5899 11.5984 22.0979 11.3952 22.5974 10.9888 23.0038 10.7772 23.0716 10.5655 23.1478 10.3454 23.1478 10.2608 23.1478 10.1676 23.1308 10.083 23.1054 9.07553 22.8006 8.47444 21.7931 8.56757 20.7856 8.77075 19.2701 9.3803 17.763 10.083 16.4507 10.2862 15.9511 10.083 15.4431 9.67661 15.2399L9.4819 15.1383C9.3803 15.0367 9.17712 15.0367 9.07553 15.0367L8.97394 15.0367C8.87234 14.9351 8.77075 14.9351 8.66916 14.9351 8.37285 15.0367 8.16967 15.2399 8.06808 15.5447 7.66171 16.9587 6.95903 18.2625 6.15477 19.4733 5.92618 19.7019 5.6976 19.8119 5.46902 19.8119 5.39283 19.8119 5.31663 19.8035 5.24891 19.7781 4.94413 19.7781 4.63936 19.5749 4.43617 19.2701 3.93668 18.4657 3.93668 17.5598 4.53776 16.8571 5.54522 16.0443 6.75585 15.4431 7.96649 15.0367 8.16967 15.0367 8.37285 14.842 8.47444 14.6388 8.56757 14.4356 8.56757 14.1308 8.47444 13.9276L8.47444 13.7329C8.47444 13.5297 8.27126 13.3265 8.06808 13.2249 7.91569 13.1741 7.7633 13.1487 7.62785 13.1487 7.48392 13.1487 7.3654 13.1741 7.26381 13.2249 6.15477 13.8345 4.94413 14.2324 3.6319 14.4356 2.82764 14.2324 2.31968 13.5297 2.42127 12.7254 2.42127 12.2174 2.52286 11.811 2.82764 11.413 3.03082 11.2098 3.32713 11.1082 3.6319 11.1082 4.94413 11.413 6.15477 12.0142 7.26381 12.7254 7.47546 12.7931 7.63631 12.8608 7.82256 12.8608 7.89876 12.8608 7.97495 12.8524 8.06808 12.8185 8.27126 12.7254 8.47444 12.5222 8.56757 12.2174L8.66916 12.1158C8.87234 11.6162 8.66916 11.1082 8.16967 10.905 6.95903 10.4055 5.7484 9.5927 4.63936 8.68677 4.03827 7.88244 4.03827 6.67171 4.53776 5.76578 4.74095 5.46098 5.14731 5.25778 5.54522 5.16465 5.84999 5.16465 6.25636 5.35938 6.45108 5.66418 7.3654 7.17971 7.96649 8.78837 8.37285 10.5071 8.37285 10.7018 8.56757 10.905 8.87234 11.0066 8.97394 11.1082 9.10093 11.159 9.22792 11.159 9.35491 11.159 9.4819 11.1082 9.58349 11.0066L9.7782 11.0066C10.1846 10.8034 10.3878 10.3039 10.2862 9.8975 9.58349 8.18724 9.17712 6.46851 8.97394 4.65665 8.97394 3.34432 9.7782 2.23519 10.9888 1.73566ZM11.1328 0C11.0227 0 10.9042 0.00846663 10.7857 0.0169333 8.87234 0.524931 7.56012 2.13359 7.3654 4.05552 6.84051 3.64912 6.23096 3.46285 5.62141 3.46285 4.69015 3.46285 3.77583 3.90312 3.22554 4.75825 2.31968 6.17218 2.21809 7.98404 3.13241 9.49956 2.62445 9.5927 2.11649 9.8975 1.71859 10.3039 0 12.1158 0.60955 15.1383 3.03082 16.1459 2.21809 17.4582 2.21809 19.0753 3.13241 20.3792 3.53031 21.0904 4.33458 21.5899 5.24891 21.6915 5.7484 21.6915 6.25636 21.5899 6.75585 21.3867 6.85744 23.0038 8.06808 24.4178 9.58349 24.8157 9.7782 24.9173 10.083 24.9173 10.2862 24.9173 10.8872 24.9173 11.4968 24.8157 11.9963 24.4178 12.6058 23.9098 13.1053 23.3086 13.3085 22.4958 14.0959 23.351 15.1795 23.7997 16.2716 23.7997 16.9912 23.7997 17.7108 23.605 18.3458 23.207 19.0569 22.5974 19.5564 21.7931 19.7596 20.7856 19.8612 19.7781 19.5564 18.6689 18.9553 17.763L19.0569 17.763C19.1162 17.763 19.1839 17.763 19.2516 17.763 21.3851 17.763 23.1968 16.1797 23.5862 14.0292 23.6878 12.9201 23.3915 11.811 22.6804 11.0066 21.8761 10.2023 20.767 9.5927 19.658 9.5927 20.5639 8.58517 21.0718 7.38291 21.1734 6.07058 21.1734 5.06305 20.8686 4.05552 20.166 3.34432 19.531 2.70932 18.7352 2.31986 17.8463 2.31986 17.7447 2.31986 17.6431 2.32832 17.5415 2.33679 16.4325 2.33679 15.3234 2.74319 14.5192 3.54752 14.4176 2.53999 14.0112 1.53246 13.2069 0.82973 12.682 0.296332 11.9201 0 11.1328 0Z" fill="#005A35" fill-rule="evenodd" transform="matrix(-0.993082 0.117422 0.117422 0.993082 174.427 343.662)"/></g></svg>