<svg width="250" height="237" xmlns="http://www.w3.org/2000/svg" xmlns:xlink="http://www.w3.org/1999/xlink" overflow="hidden"><defs><filter id="fx0" x="-10%" y="-10%" width="120%" height="120%" filterUnits="userSpaceOnUse" primitiveUnits="userSpaceOnUse"><feComponentTransfer color-interpolation-filters="sRGB"><feFuncR type="discrete" tableValues="0 0"/><feFuncG type="discrete" tableValues="0 0"/><feFuncB type="discrete" tableValues="0 0"/><feFuncA type="linear" slope="0.501961" intercept="0"/></feComponentTransfer><feGaussianBlur stdDeviation="2 2"/></filter><clipPath id="clip1"><rect x="132" y="241" width="250" height="237"/></clipPath><clipPath id="clip2"><path d="M245.941 402.918 251.721 409.325C251.814 411.794 251.906 413.54 251.906 413.809 251.906 414.179 252.268 414.548 252.731 414.548L253.463 414.548C253.925 417.84 254.472 421.14 255.297 424.348L226.398 432.863ZM352.013 396.133 360.906 408.502 342.557 427.094 333.749 436.07C332.924 435.793 332.1 435.793 331.275 435.793 330.813 435.886 330.45 435.978 329.988 436.155 332.924 432.77 335.583 429.294 337.972 425.624 343.844 417.202 348.707 405.202 348.892 404.656 348.892 404.656 348.892 404.564 348.892 404.471L348.892 404.379C349.994 401.633 351.004 398.887 352.013 396.133ZM229.103 252C226.321 252 223.947 254.292 224.101 257.3 224.101 257.661 224.101 258.123 224.101 258.484L219.886 256.746C219.423 256.561 218.922 256.469 218.406 256.469 217.89 256.469 217.358 256.561 216.857 256.746 215.755 257.207 214.838 258.215 214.468 259.492 213.736 260.961 213.736 262.607 214.376 264.169 215.023 265.446 216.487 266.453 218.691 267.007 218.136 267.461 217.589 267.83 217.034 268.284 214.838 269.845 208.141 274.791 209.698 277.814 210.908 280.23 213.343 281.653 215.909 281.653 216.649 281.653 217.404 281.537 218.136 281.291 217.959 282.483 217.959 283.583 218.136 284.776 216.032 287.791 215.847 293.745 217.867 295.852 218.321 296.406 218.784 296.768 219.423 297.229 219.238 297.591 219.238 298.052 219.423 298.506 219.423 298.506 220.98 304.552 221.35 306.113 221.905 308.306 225.573 308.49 225.935 308.49L226.028 308.49C226.852 315.267 227.685 321.951 228.602 328.728L230.436 342.289 231.353 349.066 231.808 352.358C231.808 352.727 231.9 353.096 231.992 353.366 232.085 353.735 232.27 354.104 232.547 354.373 232.91 354.927 233.464 355.381 234.104 355.658L247.683 364.357C249.979 365.827 252.268 367.288 254.565 368.665 255.759 369.303 256.861 370.034 257.963 370.68 256.129 376.542 254.75 382.488 253.833 388.626 253.37 388.81 252.916 389.272 252.731 389.726 251.999 392.379 251.629 395.133 251.536 397.972L249.979 396.133 248.415 394.303 247.59 393.479C247.228 393.026 246.766 392.749 246.311 392.564 245.849 392.372 245.371 392.28 244.893 392.28 243.413 392.28 241.965 393.179 241.31 394.649L215.2 436.07 189.692 443.762C189.052 443.485 188.505 443.208 187.858 442.939 186.94 442.57 186.023 442.201 185.106 441.932 184.189 441.655 183.18 441.47 182.17 441.47 180.059 441.47 178.039 442.201 176.39 443.485 175.658 444.031 174.926 444.77 174.279 445.501 174.094 445.778 173.824 446.139 173.639 446.416 172.167 446.324 170.61 446.139 169.139 445.87 167.397 445.501 165.748 445.131 164.006 444.585 162.349 444.031 160.792 443.301 159.143 442.57 158.226 442.201 157.309 441.932 156.384 441.747 155.714 441.608 154.997 441.524 154.296 441.524 154.042 441.524 153.787 441.539 153.541 441.562 151.522 441.655 149.687 442.478 148.131 443.762 147.399 444.401 146.751 445.039 146.204 445.778 145.564 446.601 145.102 447.424 144.732 448.339 144 450.262 144.277 452.554 145.564 454.2 145.649 454.385 145.834 454.477 146.112 454.477L215.755 454.477C216.21 454.477 216.487 454.108 216.487 453.739 216.487 452.916 216.395 452.093 216.21 451.362 215.94 450.808 215.755 450.262 215.385 449.716 215.478 449.531 215.57 449.347 215.662 449.162L220.063 442.478 257.501 431.393C258.141 433.14 258.88 434.878 259.797 436.524 264.105 444.862 270.07 450.539 277.137 452.739 278.971 453.377 280.898 453.739 282.824 453.831 284.065 454.039 285.352 454.146 286.624 454.146 287.04 454.146 287.464 454.131 287.872 454.108 292.92 454.108 299.987 453.654 302.276 453.377 303.193 453.193 304.202 453.008 305.119 452.823 306.406 454.016 307.878 454.931 309.435 455.754 310.074 457.039 310.814 458.139 311.731 459.146 312.279 459.785 312.926 460.339 313.288 460.792 313.565 461.069 313.75 461.346 313.928 461.531 314.76 462.446 315.947 462.992 317.234 462.992 317.604 462.992 317.966 462.992 318.336 462.808 319.8 462.354 320.81 461.069 320.902 459.6 321.087 458.416 320.81 457.316 320.077 456.4 320.355 456.123 320.632 455.754 320.81 455.3 321.364 454.385 321.272 453.1 320.725 452.185L320.902 451.908C322.559 453.1 324.578 453.831 326.682 454.016 326.921 454.046 327.152 454.062 327.391 454.062 330.712 454.062 333.849 451.17 335.221 449.716 335.221 449.716 335.313 449.808 335.313 449.808 335.868 450.124 336.492 450.37 337.132 450.37 337.224 450.37 337.325 450.37 337.417 450.354 337.533 450.37 337.648 450.377 337.764 450.377 338.288 450.377 338.82 450.216 339.351 449.985 339.714 449.893 339.991 449.624 340.268 449.439 340.631 449.162 340.908 448.801 341.093 448.339 341.185 447.701 341.278 447.054 341.185 446.416 341.093 445.778 341.001 445.224 340.908 444.678 340.631 443.485 340.268 442.385 339.714 441.285 339.621 441.193 339.529 441.016 339.436 440.832 343.567 436.801 347.605 432.863 351.643 428.74L361.369 418.94 366.232 414.086 368.621 411.617 369.341 407.561 369.353 407.587 369.353 407.494 369.341 407.561 368.798 406.394 368.158 405.571 366.964 403.833 364.49 400.441 359.535 393.664C357.97 391.464 356.321 389.272 354.672 387.072 362.471 357.858 359.812 328.728 340.353 318.29 339.621 317.836 331.545 313.075 318.151 312.336 317.38 312.267 316.602 312.236 315.816 312.236 305.982 312.236 294.762 317.498 284.566 326.99 274.478 336.428 266.032 349.335 260.437 363.719L252.183 358.219 239.244 349.889C238.235 341.735 237.04 333.589 235.938 325.436L234.197 313.075C233.919 311.236 233.649 309.498 233.372 307.76 233.919 307.575 234.474 307.298 234.929 307.029 236.216 306.113 236.763 304.46 236.401 302.998L235.021 298.783C237.133 298.329 238.967 297.045 240.161 295.214 240.346 295.214 240.524 295.029 240.709 294.937L248.877 284.037C248.877 284.037 253.37 278.999 256.954 274.238 259.243 271.307 259.982 267.738 258.88 264.992 258.056 262.884 256.129 261.507 253.833 261.238 253.494 261.177 253.147 261.146 252.808 261.146 251.567 261.146 250.342 261.523 249.332 262.246 246.951 263.984 246.126 267.646 245.756 270.576 245.664 270.761 245.664 271.038 245.571 271.307 245.479 272.592 244.562 273.599 243.375 274.053 244.747 270.207 246.034 265.815 245.756 264.076 245.302 261.507 234.289 254.461 230.89 252.354 230.89 252.262 230.798 252.262 230.713 252.262 230.166 252.085 229.627 252 229.103 252ZM132 241 382 241 382 478 132 478Z" fill-rule="evenodd" clip-rule="evenodd"/></clipPath><clipPath id="clip3"><rect x="-2" y="-2" width="254" height="240"/></clipPath><clipPath id="clip4"><rect x="0" y="0" width="252" height="237"/></clipPath></defs><g clip-path="url(#clip1)" transform="translate(-132 -241)"><g clip-path="url(#clip2)"><g clip-path="url(#clip3)" filter="url(#fx0)" transform="translate(131 241)"><g clip-path="url(#clip4)"><path d="M114.941 163.918 120.721 170.325C120.814 172.794 120.906 174.54 120.906 174.809 120.906 175.179 121.268 175.548 121.731 175.548L122.463 175.548C122.925 178.84 123.472 182.14 124.297 185.348L95.3976 193.863 95.3976 193.863 114.941 163.918ZM221.013 157.133 229.906 169.502 211.557 188.094 202.749 197.07C201.924 196.793 201.1 196.793 200.275 196.793 199.813 196.886 199.45 196.978 198.988 197.155 201.924 193.77 204.583 190.294 206.972 186.624 212.844 178.202 217.707 166.202 217.892 165.656 217.892 165.656 217.892 165.564 217.892 165.471L217.892 165.379C218.994 162.633 220.004 159.887 221.013 157.133ZM98.1026 13C95.3205 13 92.9469 15.2922 93.1011 18.2998 93.1011 18.6613 93.1011 19.1229 93.1011 19.4844L88.8856 17.746C88.4232 17.5614 87.9223 17.4691 87.406 17.4691 86.8896 17.4691 86.3579 17.5614 85.857 17.746 84.755 18.2075 83.8379 19.2152 83.468 20.492 82.7359 21.9612 82.7359 23.6073 83.3755 25.1688 84.0228 26.4457 85.4871 27.4533 87.6911 28.0071 87.1363 28.461 86.5891 28.8302 86.0342 29.284 83.8379 30.8455 77.141 35.7915 78.6977 38.8144 79.9076 41.2297 82.3428 42.6528 84.9091 42.6528 85.6489 42.6528 86.4041 42.5374 87.1363 42.2912L87.1363 42.2912C86.959 43.4835 86.959 44.5835 87.1363 45.7757 85.0324 48.791 84.8474 54.7446 86.8665 56.8522 87.3212 57.4061 87.7836 57.7676 88.4232 58.2291 88.2383 58.5906 88.2383 59.0522 88.4232 59.506 88.4232 59.506 89.9799 65.5519 90.3499 67.1134 90.9047 69.3056 94.573 69.4902 94.9352 69.4902L95.0277 69.4902C95.8523 76.2669 96.6846 82.9513 97.6017 89.728L99.4358 103.289 100.353 110.066 100.808 113.358C100.808 113.727 100.9 114.096 100.993 114.366 101.085 114.735 101.27 115.104 101.547 115.373 101.91 115.927 102.464 116.381 103.104 116.658L116.683 125.357C118.979 126.827 121.268 128.288 123.565 129.665 124.759 130.303 125.861 131.034 126.963 131.68 125.129 137.542 123.75 143.488 122.833 149.626 122.37 149.81 121.916 150.272 121.731 150.726 120.998 153.38 120.629 156.133 120.536 158.972L118.979 157.133 117.415 155.303 116.59 154.479C116.228 154.026 115.766 153.749 115.311 153.564 114.849 153.372 114.371 153.279 113.893 153.279 112.413 153.279 110.965 154.179 110.31 155.649L110.31 155.649 84.2001 197.07 58.6917 204.762C58.052 204.485 57.5049 204.208 56.8575 203.939 55.9405 203.57 55.0234 203.201 54.1063 202.932 53.1893 202.655 52.1797 202.47 51.1702 202.47 49.0586 202.47 47.0395 203.201 45.3903 204.485 44.6582 205.031 43.9261 205.77 43.2787 206.501 43.0938 206.778 42.824 207.139 42.6391 207.416 41.1672 207.324 39.6104 207.139 38.1385 206.87 36.3969 206.501 34.7477 206.131 33.006 205.585 31.3491 205.031 29.7924 204.301 28.1432 203.57 27.2261 203.201 26.3091 202.932 25.3843 202.747 24.7138 202.608 23.9971 202.524 23.2958 202.524 23.0415 202.524 22.7872 202.539 22.5406 202.562 20.5215 202.655 18.6874 203.478 17.1307 204.762 16.3986 205.401 15.7512 206.039 15.2041 206.778 14.5644 207.601 14.102 208.424 13.7321 209.339 13 211.262 13.2774 213.554 14.5644 215.2 14.6492 215.385 14.8341 215.477 15.1116 215.477L84.755 215.477C85.2096 215.477 85.4871 215.108 85.4871 214.739 85.4871 213.916 85.3946 213.093 85.2096 212.362 84.9399 211.808 84.755 211.262 84.385 210.716 84.4775 210.531 84.57 210.347 84.6625 210.162L89.0629 203.478 126.501 192.393C127.141 194.14 127.88 195.878 128.797 197.524 133.105 205.862 139.07 211.539 146.137 213.739 147.971 214.377 149.898 214.739 151.824 214.831 153.065 215.039 154.352 215.146 155.624 215.146 156.04 215.146 156.464 215.131 156.872 215.108 161.92 215.108 168.987 214.654 171.276 214.377 172.193 214.193 173.202 214.008 174.119 213.823 175.406 215.016 176.878 215.931 178.435 216.754 179.074 218.039 179.814 219.139 180.731 220.146 181.279 220.785 181.926 221.339 182.288 221.792 182.565 222.069 182.75 222.346 182.928 222.531 183.76 223.446 184.947 223.992 186.234 223.992 186.604 223.992 186.966 223.992 187.336 223.808 188.8 223.354 189.81 222.069 189.902 220.6 190.087 219.416 189.81 218.316 189.077 217.4 189.355 217.123 189.632 216.754 189.81 216.3 190.364 215.385 190.272 214.1 189.725 213.185L189.902 212.908C191.559 214.1 193.578 214.831 195.682 215.016 195.921 215.046 196.152 215.062 196.391 215.062 199.712 215.062 202.849 212.17 204.221 210.716 204.221 210.716 204.313 210.808 204.313 210.808 204.868 211.124 205.492 211.37 206.132 211.37 206.224 211.37 206.325 211.37 206.417 211.354 206.533 211.37 206.648 211.377 206.764 211.377 207.288 211.377 207.82 211.216 208.351 210.985 208.714 210.893 208.991 210.624 209.268 210.439 209.631 210.162 209.908 209.801 210.093 209.339 210.185 208.701 210.278 208.054 210.185 207.416 210.093 206.778 210.001 206.224 209.908 205.678 209.631 204.485 209.268 203.385 208.714 202.285 208.621 202.193 208.529 202.016 208.436 201.832 212.567 197.801 216.605 193.863 220.643 189.74L230.369 179.94 235.232 175.086 237.621 172.617C238.715 171.517 238.992 169.864 238.353 168.494L238.353 168.494 238.353 168.587C238.26 168.125 238.075 167.764 237.798 167.394L237.158 166.571 235.964 164.833 233.49 161.441 228.535 154.664C226.97 152.464 225.321 150.272 223.672 148.072 231.471 118.858 228.812 89.728 209.353 79.2899 208.621 78.8361 200.545 74.0747 187.151 73.3363 186.38 73.267 185.602 73.2363 184.816 73.2363 174.982 73.2363 163.762 78.4976 153.566 87.9896 143.478 97.4277 135.032 110.335 129.437 124.719L121.183 119.219 108.244 110.889C107.235 102.735 106.04 94.5893 104.938 86.4358L103.197 74.0747C102.919 72.2363 102.649 70.4979 102.372 68.7595 102.919 68.5749 103.474 68.298 103.929 68.0288 105.216 67.1134 105.763 65.4596 105.401 63.9981L104.021 59.7829C106.133 59.3291 107.967 58.0445 109.161 56.2138 109.346 56.2138 109.524 56.0292 109.709 55.9369L117.877 45.0373C117.877 45.0373 122.37 39.999 125.954 35.2376 128.243 32.307 128.982 28.7379 127.88 25.9918 127.056 23.8842 125.129 22.5073 122.833 22.2381 122.494 22.1766 122.147 22.1458 121.808 22.1458 120.567 22.1458 119.342 22.5227 118.332 23.2458 115.951 24.9842 115.126 28.6456 114.756 31.5762 114.664 31.7609 114.664 32.0378 114.571 32.307 114.479 33.5916 113.562 34.5992 112.375 35.053 113.747 31.207 115.034 26.8149 114.756 25.0765 114.302 22.5073 103.289 15.4614 99.8905 13.3538 99.8905 13.2615 99.798 13.2615 99.7132 13.2615 99.1661 13.0846 98.6266 13 98.1026 13Z" stroke="#FFFFFF" stroke-width="12" stroke-linejoin="round" stroke-miterlimit="10" fill="#FFFFFF" fill-rule="evenodd"/></g></g></g><path d="M245.941 402.918 251.721 409.325C251.814 411.794 251.906 413.54 251.906 413.809 251.906 414.179 252.268 414.548 252.731 414.548L253.463 414.548C253.925 417.84 254.472 421.14 255.297 424.348L226.398 432.863 226.398 432.863 245.941 402.918ZM352.013 396.133 360.906 408.502 342.557 427.094 333.749 436.07C332.924 435.793 332.1 435.793 331.275 435.793 330.813 435.886 330.45 435.978 329.988 436.155 332.924 432.77 335.583 429.294 337.972 425.624 343.844 417.202 348.707 405.202 348.892 404.656 348.892 404.656 348.892 404.564 348.892 404.471L348.892 404.379C349.994 401.633 351.004 398.887 352.013 396.133ZM229.103 252C226.321 252 223.947 254.292 224.101 257.3 224.101 257.661 224.101 258.123 224.101 258.484L219.886 256.746C219.423 256.561 218.922 256.469 218.406 256.469 217.89 256.469 217.358 256.561 216.857 256.746 215.755 257.207 214.838 258.215 214.468 259.492 213.736 260.961 213.736 262.607 214.376 264.169 215.023 265.446 216.487 266.453 218.691 267.007 218.136 267.461 217.589 267.83 217.034 268.284 214.838 269.845 208.141 274.791 209.698 277.814 210.908 280.23 213.343 281.653 215.909 281.653 216.649 281.653 217.404 281.537 218.136 281.291L218.136 281.291C217.959 282.483 217.959 283.583 218.136 284.776 216.032 287.791 215.847 293.745 217.867 295.852 218.321 296.406 218.784 296.768 219.423 297.229 219.238 297.591 219.238 298.052 219.423 298.506 219.423 298.506 220.98 304.552 221.35 306.113 221.905 308.306 225.573 308.49 225.935 308.49L226.028 308.49C226.852 315.267 227.685 321.951 228.602 328.728L230.436 342.289 231.353 349.066 231.808 352.358C231.808 352.727 231.9 353.096 231.992 353.366 232.085 353.735 232.27 354.104 232.547 354.373 232.91 354.927 233.464 355.381 234.104 355.658L247.683 364.357C249.979 365.827 252.268 367.288 254.565 368.665 255.759 369.303 256.861 370.034 257.963 370.68 256.129 376.542 254.75 382.488 253.833 388.626 253.37 388.81 252.916 389.272 252.731 389.726 251.999 392.38 251.629 395.133 251.536 397.972L249.979 396.133 248.415 394.302 247.59 393.479C247.228 393.026 246.766 392.749 246.311 392.564 245.849 392.372 245.371 392.279 244.893 392.279 243.413 392.279 241.965 393.179 241.31 394.649L241.31 394.649 215.2 436.07 189.692 443.762C189.052 443.485 188.505 443.208 187.858 442.939 186.94 442.57 186.023 442.201 185.106 441.932 184.189 441.655 183.18 441.47 182.17 441.47 180.059 441.47 178.039 442.201 176.39 443.485 175.658 444.031 174.926 444.77 174.279 445.501 174.094 445.778 173.824 446.139 173.639 446.416 172.167 446.324 170.61 446.139 169.139 445.87 167.397 445.501 165.748 445.131 164.006 444.585 162.349 444.031 160.792 443.301 159.143 442.57 158.226 442.201 157.309 441.932 156.384 441.747 155.714 441.608 154.997 441.524 154.296 441.524 154.042 441.524 153.787 441.539 153.541 441.562 151.522 441.655 149.687 442.478 148.131 443.762 147.399 444.401 146.751 445.039 146.204 445.778 145.564 446.601 145.102 447.424 144.732 448.339 144 450.262 144.277 452.554 145.564 454.2 145.649 454.385 145.834 454.477 146.112 454.477L215.755 454.477C216.21 454.477 216.487 454.108 216.487 453.739 216.487 452.916 216.395 452.093 216.21 451.362 215.94 450.808 215.755 450.262 215.385 449.716 215.478 449.531 215.57 449.347 215.662 449.162L220.063 442.478 257.501 431.393C258.141 433.14 258.88 434.878 259.797 436.524 264.105 444.862 270.07 450.539 277.137 452.739 278.971 453.377 280.898 453.739 282.824 453.831 284.065 454.039 285.352 454.146 286.624 454.146 287.04 454.146 287.464 454.131 287.872 454.108 292.92 454.108 299.987 453.654 302.276 453.377 303.193 453.193 304.202 453.008 305.119 452.823 306.406 454.016 307.878 454.931 309.435 455.754 310.074 457.039 310.814 458.139 311.731 459.146 312.279 459.785 312.926 460.339 313.288 460.792 313.565 461.069 313.75 461.346 313.928 461.531 314.76 462.446 315.947 462.992 317.234 462.992 317.604 462.992 317.966 462.992 318.336 462.808 319.8 462.354 320.81 461.069 320.902 459.6 321.087 458.416 320.81 457.316 320.077 456.4 320.355 456.123 320.632 455.754 320.81 455.3 321.364 454.385 321.272 453.1 320.725 452.185L320.902 451.908C322.559 453.1 324.578 453.831 326.682 454.016 326.921 454.046 327.152 454.062 327.391 454.062 330.712 454.062 333.849 451.17 335.221 449.716 335.221 449.716 335.313 449.808 335.313 449.808 335.868 450.124 336.492 450.37 337.132 450.37 337.224 450.37 337.325 450.37 337.417 450.354 337.533 450.37 337.648 450.377 337.764 450.377 338.288 450.377 338.82 450.216 339.351 449.985 339.714 449.893 339.991 449.624 340.268 449.439 340.631 449.162 340.908 448.801 341.093 448.339 341.185 447.701 341.278 447.054 341.185 446.416 341.093 445.778 341.001 445.224 340.908 444.678 340.631 443.485 340.268 442.385 339.714 441.285 339.621 441.193 339.529 441.016 339.436 440.832 343.567 436.801 347.605 432.863 351.643 428.74L361.369 418.94 366.232 414.086 368.621 411.617C369.715 410.517 369.992 408.864 369.353 407.494L369.353 407.494 369.353 407.587C369.26 407.125 369.075 406.764 368.798 406.394L368.158 405.571 366.964 403.833 364.49 400.441 359.535 393.664C357.97 391.464 356.321 389.272 354.672 387.072 362.471 357.858 359.812 328.728 340.353 318.29 339.621 317.836 331.545 313.075 318.151 312.336 317.38 312.267 316.602 312.236 315.816 312.236 305.982 312.236 294.762 317.498 284.566 326.99 274.478 336.428 266.032 349.335 260.437 363.719L252.183 358.219 239.244 349.889C238.235 341.735 237.04 333.589 235.938 325.436L234.197 313.075C233.919 311.236 233.649 309.498 233.372 307.76 233.919 307.575 234.474 307.298 234.929 307.029 236.216 306.113 236.763 304.46 236.401 302.998L235.021 298.783C237.133 298.329 238.967 297.044 240.161 295.214 240.346 295.214 240.524 295.029 240.709 294.937L248.877 284.037C248.877 284.037 253.37 278.999 256.954 274.238 259.243 271.307 259.982 267.738 258.88 264.992 258.056 262.884 256.129 261.507 253.833 261.238 253.494 261.177 253.147 261.146 252.808 261.146 251.567 261.146 250.342 261.523 249.332 262.246 246.951 263.984 246.126 267.646 245.756 270.576 245.664 270.761 245.664 271.038 245.571 271.307 245.479 272.592 244.562 273.599 243.375 274.053 244.747 270.207 246.034 265.815 245.756 264.076 245.302 261.507 234.289 254.461 230.89 252.354 230.89 252.262 230.798 252.262 230.713 252.262 230.166 252.085 229.627 252 229.103 252Z" stroke="#FFFFFF" stroke-width="12" stroke-linejoin="round" stroke-miterlimit="10" fill="#FFFFFF" fill-rule="evenodd"/><path d="M259.679 424.008C259.247 424.008 258.823 424.109 258.429 424.326L180.091 447.711C164.85 447.711 160.345 443.363 156.673 442.626 155.964 442.502 155.277 442.439 154.614 442.439 151.744 442.439 149.237 443.666 146.846 446.974 144 450.949 146.484 454 146.484 454L188.268 454C188.268 453.161 188.082 452.331 187.805 451.5L258.985 430.335 281.847 451.22C282.395 451.686 283.082 451.919 283.768 451.919 284.57 451.919 285.388 451.601 285.982 450.949 286.992 449.745 286.9 447.898 285.704 446.88L261.646 424.784C261.083 424.272 260.373 424.008 259.679 424.008Z" stroke="#005A35" stroke-width="2" stroke-linejoin="round" stroke-miterlimit="10" fill="#D0EFBD" fill-rule="evenodd"/><path d="M256.181 425 253.246 425.768 251.007 432.992 257.993 430.687 256.181 425Z" fill="#005A35" fill-rule="evenodd"/><path d="M229.18 298C229.01 298 228.847 298.015 228.669 298.046 227.106 298.231 226 299.697 226.186 301.347L233.002 352.586C233.188 353.596 233.83 354.514 234.844 354.884L262.11 372.514C262.613 372.846 263.162 372.992 263.712 372.992 264.687 372.992 265.638 372.506 266.164 371.689 266.992 370.308 266.629 368.473 265.336 367.648L238.62 350.38 231.989 300.522C231.826 299.041 230.619 298 229.18 298Z" stroke="#005A35" stroke-width="2" stroke-linejoin="round" stroke-miterlimit="10" fill="#98C926" fill-rule="evenodd"/><path d="M224.626 266.691 224.804 267.823C224.804 267.823 224.619 267.823 225.267 268.909 224.526 268.096 223.7 267.458 222.782 266.919 224.125 266.812 224.526 266.736 224.626 266.691ZM229.079 253.008C227.543 253.008 225.174 253.653 224.804 257.513 224.804 258.326 224.896 259.139 225.174 259.861L219.479 257.604C219.479 257.604 218.924 257.346 218.175 257.346 217.218 257.346 215.937 257.779 215.158 259.769 213.777 263.302 215.065 265.376 219.387 266.372 219.935 266.463 220.575 266.645 221.131 266.645 219.749 267.192 218.561 267.914 217.458 268.909 217.458 268.909 209 274.698 210.289 277.32 211.446 279.462 213.661 280.67 215.968 280.67 216.771 280.67 217.589 280.518 218.376 280.214 218.646 280.123 218.924 280.032 219.294 279.85L219.294 279.85C218.739 281.392 218.646 283.109 219.016 284.735 216.902 287.363 216.717 293.153 218.376 294.961 219.95 296.511 222.057 297.992 229.727 297.992 230.537 297.992 231.402 297.977 232.335 297.947 236.379 297.764 238.586 296.047 239.69 293.966L239.967 293.966 248.232 283.2C248.232 283.2 252.646 278.315 256.319 273.612 259.992 269 259.352 262.938 253.657 262.125 253.294 262.071 252.947 262.041 252.623 262.041 248.078 262.041 247.005 267.086 246.488 270.717 246.395 270.991 246.395 271.166 246.303 271.439 246.025 273.521 244.188 274.972 242.082 275.056 243.085 272.343 245.199 266.197 244.929 264.297 244.466 261.942 230.406 253.167 230.406 253.167 230.406 253.167 229.851 253.008 229.079 253.008Z" stroke="#005A35" stroke-width="2" stroke-linejoin="round" stroke-miterlimit="10" fill="#D0EFBD" fill-rule="evenodd"/><path d="M225.429 267.5 225.571 268.065C225.5 267.877 225.429 267.688 225.429 267.5ZM225.286 266.008 225.214 266.565C225.006 267.406 225.214 268.34 225.786 268.812L225.994 269 225.286 266.008Z" fill="#222221" fill-rule="evenodd"/><path d="M235.906 262C235.812 262 235.623 262 235.623 262.097 235.246 262.669 234.689 262.96 234.038 263.153 233.755 263.25 233.473 263.25 233.104 263.25 232.962 263.298 232.821 263.323 232.672 263.323 232.515 263.323 232.35 263.298 232.17 263.25 232.075 263.25 231.981 263.347 231.887 263.347 231.008 263.613 231.204 264.992 232.083 264.992 232.138 264.992 232.201 264.992 232.256 264.976 232.727 264.879 233.104 264.782 233.473 264.597 233.849 264.5 234.132 264.306 234.501 264.113 235.16 263.726 235.717 263.056 236 262.29 236 262.194 235.906 262.097 235.906 262Z" fill="#005A35" fill-rule="evenodd"/><path d="M242.809 274C242.744 274 242.679 274.008 242.614 274.016L240.686 274.207C240.014 274.303 239.341 274.399 238.66 274.686 237.307 275.061 236.157 275.828 235.192 276.777 234.22 277.727 233.45 278.868 232.972 280.097 232.389 281.239 232.105 282.571 232.008 283.904 232.008 283.904 232.105 283.992 232.194 283.992 232.292 283.992 232.389 283.904 232.389 283.808 232.778 281.334 234.034 279.148 235.865 277.44 236.829 276.682 237.891 276.203 239.049 275.828 239.625 275.732 240.208 275.636 240.783 275.636L242.809 275.636C244 275.54 243.887 274 242.809 274Z" fill="#005A35" fill-rule="evenodd"/><path d="M224.884 259C224.814 259 224.735 259.008 224.657 259.023 224.196 259.21 224.008 259.583 224.102 260.042 224.657 261.705 225.87 263.097 227.45 263.836 228.201 264.209 229.038 264.395 229.782 264.582 230.353 264.691 230.893 264.768 231.409 264.792L231.409 264.792C231.425 264.877 231.44 264.963 231.456 265.04 231.55 265.414 231.738 265.686 231.925 266.059 232.207 266.393 232.528 266.696 232.872 266.945L232.872 266.945C232.176 268.554 231.542 270.21 230.9 271.796 230.525 272.815 230.157 273.74 229.876 274.758 229.782 275.225 229.688 275.777 229.594 276.243 229.406 276.795 229.406 277.355 229.594 277.907 229.594 278 229.688 278 229.782 278 229.876 278 229.969 277.907 229.969 277.813 229.969 276.888 230.251 275.963 230.713 275.038 231.088 274.113 231.456 273.188 231.925 272.356 232.856 270.506 233.787 268.741 234.718 266.984 235 266.525 234.812 266.059 234.437 265.872L234.343 265.872C234.163 265.779 233.975 265.686 233.787 265.592 233.6 265.414 233.506 265.32 233.412 265.134 233.232 265.04 233.138 264.854 233.138 264.667 233.044 264.489 233.044 264.302 233.044 264.115L233.044 263.929C232.95 263.563 232.575 263.284 232.207 263.284 231.988 263.307 231.777 263.322 231.573 263.322 231.073 263.322 230.619 263.252 230.157 263.19 229.5 263.004 228.851 262.724 228.201 262.452 226.989 261.892 226.058 260.874 225.682 259.669L225.682 259.583C225.526 259.194 225.244 259 224.884 259Z" fill="#005A35" fill-rule="evenodd"/><path d="M236.904 264.007C236.808 264.007 236.713 264.007 236.617 264.171 236.425 264.574 235.954 264.984 235.475 265.148 235.196 265.23 234.908 265.305 234.621 265.387 234.333 265.469 234.15 265.469 233.862 265.551L233.575 265.551C233.2 265.715 233.008 266.2 233.2 266.528 233.335 266.829 233.631 267 233.974 267 234.094 267 234.214 266.979 234.333 266.939 234.621 266.774 235.004 266.61 235.283 266.446 235.571 266.282 235.858 266.043 236.146 265.879 236.713 265.387 237 264.82 237 264.171 237 264.089 237 264.007 236.904 264.007Z" fill="#005A35" fill-rule="evenodd"/><path d="M226.715 268C226.68 268 226.637 268.008 226.603 268.03 225.575 268.571 224.65 269.294 224.028 270.291 223.726 270.748 223.518 271.197 223.311 271.745 223.207 272.019 223.104 272.286 223.104 272.56L223.104 273.374C223 274.463 223.104 275.46 223.518 276.457 223.821 277.637 224.65 278.543 225.886 278.992 225.886 278.992 225.981 278.901 225.981 278.901 226.084 278.817 226.084 278.635 225.981 278.635 225.264 277.904 224.857 277.089 224.857 276.183 224.754 275.277 224.754 274.372 224.857 273.466 224.952 273.192 224.857 272.925 224.952 272.743 224.952 272.56 225.056 272.377 225.056 272.103 225.16 271.654 225.367 271.289 225.575 270.839 225.886 269.934 226.395 269.119 226.914 268.297 226.991 268.152 226.87 268 226.715 268Z" fill="#005A35" fill-rule="evenodd"/><path d="M220.848 266.005C220 266.005 220 267 220.848 267 220.872 267 220.896 267 220.911 266.995 222.97 266.995 225.028 266.722 226.898 266.282 226.992 266.227 226.992 266.171 226.992 266.116 226.992 266.06 226.811 266.06 226.717 266.06 225.845 266.134 224.981 266.176 224.109 266.176 223.103 266.176 222.105 266.125 221.1 266.005L220.911 266.005C220.896 266.005 220.872 266.005 220.848 266.005Z" fill="#335A3A" fill-rule="evenodd"/><path d="M224.545 266.942 224.545 267.406 223.912 267.037 224.545 266.942ZM224.91 266.008 222.549 266.283C222.19 266.283 222.008 266.848 222.373 267.037L225.276 268.906C225.36 269 225.36 269 225.451 269 225.634 269 225.726 268.906 225.817 268.812 226 268.623 225.909 268.34 225.726 268.246 225.726 268.152 225.276 267.783 225.36 266.565 225.36 266.377 225.36 266.283 225.276 266.188 225.185 266.102 225.002 266.008 224.91 266.008Z" fill="#005A35" fill-rule="evenodd"/><path d="M221.435 277.007C221.364 277.007 221.293 277.028 221.246 277.069 221.058 277.236 220.783 277.479 220.594 277.729L220.123 278.306C219.754 278.806 219.377 279.215 219.094 279.715L219 279.715C219 279.882 219 279.958 219.188 279.958 219.291 279.986 219.401 279.993 219.51 279.993 219.809 279.993 220.131 279.917 220.406 279.799 220.783 279.632 221.058 279.382 221.34 279.132 221.898 278.556 221.992 277.729 221.623 277.069 221.576 277.028 221.505 277.007 221.435 277.007Z" fill="#005A35" fill-rule="evenodd"/><path d="M246.657 271C246.609 271 246.573 271.021 246.573 271.063 246.293 271.4 246.149 271.899 246.078 272.404 246.006 272.903 246.006 273.402 246.149 273.907 246.221 274.322 246.43 274.827 246.716 275.242 247.003 275.579 247.355 275.916 247.785 276L247.857 276C247.994 276 247.994 275.916 247.994 275.831 247.857 275.326 247.713 274.912 247.642 274.574 247.499 274.237 247.427 273.907 247.355 273.57 247.14 272.819 247.075 272.067 246.86 271.147L246.788 271.147C246.788 271.063 246.788 271.063 246.788 271.063 246.752 271.021 246.699 271 246.657 271Z" fill="#005A35" fill-rule="evenodd"/><path d="M229.017 253.008C228.749 253.015 228.481 253.046 228.221 253.1L228.221 253.1C228.481 253.054 228.749 253.023 229.017 253.008ZM229.277 253C229.185 253 229.101 253 229.017 253.008L229.017 253.008C229.04 253.008 229.07 253.008 229.093 253.008 229.522 253.008 229.965 253.077 230.401 253.216 235.143 256.244 244.246 262.485 244.613 264.411 244.888 266.245 242.792 272.571 241.882 275.237L241.79 275.422 241.974 275.422C244.154 275.33 245.974 273.766 246.341 271.654 246.341 271.385 246.341 271.2 246.433 270.922 246.8 268.172 247.527 264.689 249.623 263.125 250.464 262.554 251.474 262.208 252.521 262.208 252.827 262.208 253.133 262.239 253.447 262.3 255.359 262.485 256.996 263.764 257.723 265.513 258.725 267.894 257.998 271.2 255.902 273.858 252.353 278.535 247.978 283.582 247.978 283.582L239.786 294.5 239.511 294.5 239.511 294.593C238.142 297.066 235.778 298.353 232.313 298.538 231.35 298.576 230.455 298.592 229.621 298.592 222.125 298.592 220.121 297.158 218.569 295.51 216.924 293.676 217.199 287.804 219.203 285.323 218.836 283.674 218.928 281.933 219.479 280.369L219.571 280.007 219.203 280.007C218.928 280.192 218.66 280.369 218.293 280.461 217.551 280.77 216.786 280.908 216.022 280.908 213.788 280.908 211.639 279.675 210.553 277.618 209.275 275.052 217.475 269.273 217.567 269.273 218.66 268.264 219.838 267.532 221.207 266.977L221.934 266.792 221.116 266.7C220.573 266.7 220.022 266.523 219.387 266.43 217.199 265.875 215.746 265.051 215.195 263.857 214.652 262.578 214.744 261.198 215.379 259.912 215.654 258.995 216.289 258.17 217.199 257.808 217.567 257.623 217.949 257.531 218.339 257.531 218.722 257.531 219.112 257.623 219.479 257.808L225.307 260.189 225.215 259.819C225.032 259.087 224.94 258.263 225.032 257.438 224.833 255.281 226.302 253.516 228.221 253.1L228.221 253.1C227.671 253.208 227.143 253.401 226.669 253.678 225.399 254.687 224.756 256.151 224.756 257.716 224.665 258.448 224.756 259.18 224.94 259.912L219.655 257.716C219.249 257.531 218.813 257.438 218.385 257.438 217.949 257.438 217.521 257.531 217.108 257.716 216.197 258.17 215.471 258.995 215.104 260.004 214.469 261.291 214.377 262.847 215.012 264.226 215.654 265.421 217.108 266.338 219.387 266.885 219.747 266.977 220.205 267.07 220.573 267.07 219.387 267.624 218.385 268.356 217.475 269.181 217.108 269.458 209 275.145 210.277 277.895 211.509 280.091 213.758 281.363 216.106 281.363 216.894 281.363 217.697 281.224 218.477 280.924 218.66 280.831 218.836 280.739 219.02 280.646L219.02 280.646C218.66 282.118 218.569 283.767 218.928 285.323 216.924 287.989 216.565 293.861 218.385 295.787 219.93 297.528 222.026 298.992 229.491 298.992 230.401 298.992 231.311 298.992 232.313 298.908 235.778 298.815 238.234 297.436 239.603 294.962L239.97 294.962 248.162 283.952C248.162 283.859 252.537 278.905 256.178 274.228 258.273 271.477 259 268.079 257.998 265.606 257.18 263.679 255.451 262.393 253.447 262.208 253.103 262.138 252.759 262.108 252.407 262.108 251.367 262.108 250.326 262.416 249.439 263.032 247.251 264.774 246.525 268.264 246.158 271.107 246.066 271.292 246.066 271.562 246.066 271.839 245.706 273.766 244.062 275.145 242.15 275.237 243.152 272.571 245.156 266.43 244.888 264.504 244.429 262.023 231.044 253.493 230.493 253.123 230.088 253.046 229.675 253 229.277 253Z" fill="#222221" fill-rule="evenodd"/><path d="M229.131 253.592C229.448 253.592 229.772 253.63 230.089 253.714 236.62 257.816 243.893 263.103 244.071 264.289 244.256 265.468 243.244 269.478 241.312 274.674 241.219 274.949 241.312 275.217 241.497 275.492 241.59 275.676 241.868 275.768 242.139 275.768 244.627 275.676 246.745 273.855 247.108 271.391 247.201 271.207 247.201 271.031 247.201 270.847L247.201 270.756C247.665 268.116 248.306 264.833 250.238 263.463 250.942 262.912 251.807 262.675 252.712 262.675 252.99 262.675 253.268 262.69 253.554 262.736 255.208 262.92 256.777 263.922 257.419 265.56 258.246 267.656 257.604 270.664 255.672 273.212 252.078 277.773 247.665 282.693 247.572 282.777L239.565 293.353C239.287 293.353 239.016 293.529 238.923 293.804 237.633 295.993 235.422 297.179 232.207 297.355 231.202 297.393 230.282 297.416 229.432 297.416 222.175 297.416 220.258 296.085 218.859 294.531 217.483 293.077 217.568 287.698 219.501 285.241 219.593 285.058 219.686 284.782 219.593 284.606 219.323 283.053 219.416 281.507 219.872 280.137 219.964 279.778 219.872 279.41 219.593 279.227 219.501 279.043 219.323 279.043 219.137 279.043 219.045 279.043 218.859 279.135 218.766 279.227 218.496 279.318 218.31 279.502 218.032 279.594 217.367 279.839 216.672 279.961 215.992 279.961 213.951 279.961 211.98 278.882 210.945 277.038 210.303 275.86 213.982 272.21 217.847 269.57L217.939 269.478C218.859 268.567 220.057 267.932 221.255 267.473 222.082 267.205 221.989 266.019 221.162 265.927 220.606 265.835 220.057 265.743 219.501 265.56 217.391 265.108 216.193 264.374 215.636 263.463 215.18 262.285 215.273 261.099 215.822 260.004 216.007 259.185 216.556 258.543 217.298 258.183 217.615 258.091 217.939 258.045 218.249 258.045 218.558 258.045 218.859 258.091 219.137 258.183L224.749 260.456C224.857 260.532 224.973 260.555 225.089 260.555 225.282 260.555 225.467 260.479 225.576 260.372 225.854 260.096 225.946 259.821 225.854 259.545 225.576 258.818 225.483 258.091 225.576 257.456 225.576 256.178 226.132 254.992 227.144 254.173 227.716 253.798 228.42 253.592 229.131 253.592ZM229.03 252C226.24 252 223.86 254.28 224.014 257.272 224.014 257.632 224.014 257.999 224.014 258.458L219.779 256.721C219.276 256.538 218.766 256.454 218.264 256.454 217.754 256.454 217.251 256.538 216.741 256.721 215.636 257.272 214.716 258.183 214.353 259.453 213.611 260.915 213.526 262.644 214.26 264.106 214.902 265.376 216.285 266.379 218.581 266.93 217.939 267.381 217.391 267.748 216.927 268.292 214.716 269.753 208 274.765 209.476 277.681 210.782 280.045 213.287 281.453 215.907 281.453 216.618 281.453 217.329 281.354 218.032 281.14L218.032 281.14C217.847 282.234 217.847 283.42 218.032 284.514 215.914 287.606 215.729 293.437 217.754 295.625 219.416 297.447 221.618 299 229.44 299L232.385 299C235.886 298.816 238.552 297.447 240.114 294.99 240.299 294.99 240.485 294.807 240.67 294.715L248.863 283.872C248.863 283.78 253.276 278.867 256.955 274.214 259.258 271.207 259.992 267.656 258.887 264.925 258.06 262.828 256.035 261.458 253.832 261.19 253.485 261.129 253.144 261.099 252.797 261.099 251.56 261.099 250.331 261.481 249.319 262.193 246.838 263.922 246.096 267.565 245.64 270.48 245.64 270.756 245.547 270.939 245.547 271.207 245.361 272.485 244.534 273.579 243.337 273.947 244.627 270.12 246.003 265.743 245.64 264.014 245.269 261.458 234.224 254.449 230.823 252.352 230.823 252.26 230.731 252.26 230.638 252.26 230.097 252.084 229.556 252 229.03 252Z" fill="#005A35" fill-rule="evenodd"/><path d="M255.007 361.008 255.266 368.33 259.054 371 260.993 365.189 255.007 361.008Z" fill="#005A35" fill-rule="evenodd"/><path d="M314.795 313.008C314.818 313.008 314.849 313.008 314.872 313.008L314.872 313.008C314.849 313.008 314.818 313.008 314.795 313.008ZM314.872 313.008C316.596 313.108 318.32 313.469 320.036 314.006 321.049 314.283 321.969 314.744 322.981 315.197 341.395 324.163 343.97 357.554 332.188 393.964 322.34 424.15 305.039 446.831 287.823 451.679 285.512 452.339 283.193 452.7 280.874 452.7 280.611 452.7 280.356 452.7 280.093 452.685L280 452.685C280.843 452.908 282.613 453 284.77 453 289.671 453 296.559 452.547 299.056 452.232 313.968 450.127 329.707 435.49 341.024 412.441 358.882 375.847 361 331.846 336.61 318.77 336.146 318.493 328.354 313.753 314.872 313.008Z" stroke="#005A35" stroke-width="2" stroke-linejoin="round" stroke-miterlimit="10" fill="#98C926" fill-rule="evenodd"/><path d="M316.102 313.008C296.068 313.008 271.057 335.844 260.185 369.767 248 408.027 257.452 445.196 278.18 451.877 279.997 452.523 281.906 452.885 283.906 452.977 284.166 452.992 284.418 452.992 284.677 452.992 286.968 452.992 289.258 452.631 291.541 451.97 308.544 447.118 325.722 424.42 335.357 394.118 346.992 357.773 344.45 324.357 326.356 315.384 325.355 314.838 324.355 314.469 323.355 314.107 321.721 313.646 319.996 313.277 318.27 313.1 317.553 313.038 316.827 313.008 316.102 313.008Z" fill="#D7EDBD" fill-rule="evenodd"/><path d="M314.883 313.008C294.647 313.008 269.382 335.844 258.401 369.767 246 408.027 255.555 445.196 276.578 451.877 278.413 452.523 280.341 452.885 282.269 452.977 282.531 452.992 282.793 452.992 283.056 452.992 285.377 452.992 287.752 452.631 289.981 451.97 307.155 447.118 324.507 424.42 334.332 394.118 345.992 357.773 343.424 324.357 325.147 315.384 324.229 314.838 323.219 314.469 322.209 314.107 320.559 313.646 318.816 313.277 317.073 313.1 316.348 313.038 315.615 313.008 314.883 313.008Z" stroke="#005A35" stroke-width="2" stroke-linejoin="round" stroke-miterlimit="10" fill="#D0EFBD" fill-rule="evenodd"/><path d="M317.996 339C311.572 339 306.177 343.759 305.561 350.053 305 356.677 310.106 362.406 316.975 362.94 317.372 362.977 317.762 362.992 318.152 362.992 324.514 362.992 329.823 358.263 330.439 352.023 330.992 345.398 325.886 339.579 319.017 339.038 318.674 339.015 318.331 339 317.996 339Z" fill="#FFFFFF" fill-rule="evenodd"/><path d="M317.955 341C312.448 341 308.007 345.451 308.007 350.963L308.007 352.031 314.933 352.031 312.896 355.586 311.202 358.431C313.194 360.201 315.537 361 317.821 361 323 361 327.91 356.945 327.91 350.963L328 350.963C328 345.451 323.463 341 317.955 341Z" fill="#005A35" fill-rule="evenodd"/><path d="M314.711 337.508C314.141 337.508 313.579 337.532 313.01 337.579 311.91 337.77 310.809 337.865 309.801 338.142 308.701 338.523 307.693 338.808 306.685 339.094 306.592 339.181 306.5 339.181 306.592 339.276 306.592 339.467 306.685 339.467 306.777 339.467 307.877 339.467 308.885 339.181 309.893 339.181 310.994 339.094 312.002 338.999 313.01 338.999 314.018 338.999 315.118 339.094 316.126 339.181 316.58 339.181 317.134 339.276 317.681 339.371L319.058 339.657C321.074 340.133 322.906 340.886 324.645 342.02 326.384 343.154 327.946 344.565 329.131 346.357L329.131 346.452C329.192 346.452 329.254 346.5 329.315 346.5 329.346 346.5 329.377 346.484 329.408 346.452 329.5 346.452 329.5 346.357 329.5 346.262 328.677 344.097 327.299 342.297 325.468 340.981 323.729 339.562 321.713 338.618 319.512 338.055 317.95 337.698 316.334 337.508 314.711 337.508Z" stroke="#005A35" stroke-linejoin="round" stroke-miterlimit="10" fill="#005A35" fill-rule="evenodd"/><path d="M282.351 339.008C278.194 339.008 274.03 343.084 272.604 348.886 271.007 355.403 273.493 361.654 278.202 362.833 278.679 362.939 279.157 362.992 279.642 362.992 283.828 362.992 288.052 358.901 289.485 353.053 291 346.62 288.507 340.376 283.888 339.198 283.381 339.068 282.866 339.008 282.351 339.008Z" fill="#FFFFFF" fill-rule="evenodd"/><path d="M281.634 341.008C278.127 341.008 274.642 344.39 273.537 349.206 273.09 350.738 273 352.369 273.179 353.992L275.403 353.81 279.306 353.446 277.619 357.064 276.291 359.953C276.91 360.401 277.53 360.674 278.246 360.856 278.642 360.947 279.052 360.992 279.455 360.992 282.925 360.992 286.47 357.655 287.664 352.725 288.993 347.31 286.776 342.069 282.955 341.167 282.515 341.061 282.075 341.008 281.634 341.008Z" fill="#005A35" fill-rule="evenodd"/><path d="M283.766 338.5C283.292 338.5 282.817 338.531 282.351 338.592 280.873 338.776 279.481 339.319 278.276 340.146 277.079 340.874 276.145 341.969 275.5 343.24 275.5 343.332 275.5 343.423 275.593 343.423 275.64 343.469 275.687 343.492 275.733 343.492 275.78 343.492 275.827 343.469 275.873 343.423 277.724 341.693 280.041 340.506 282.537 340.146 283.183 340.054 283.836 340.054 284.481 340.054 285.127 340.054 285.687 340.146 286.332 340.238 286.985 340.238 287.631 340.322 288.276 340.506 288.929 340.598 289.575 340.782 290.313 340.874 290.313 340.874 290.407 340.782 290.5 340.782 290.5 340.69 290.5 340.506 290.407 340.506 289.855 340.146 289.201 339.871 288.556 339.503 287.911 339.235 287.257 339.051 286.612 338.868 285.687 338.623 284.715 338.5 283.766 338.5Z" stroke="#005A35" stroke-linejoin="round" stroke-miterlimit="10" fill="#005A35" fill-rule="evenodd"/><path d="M273.604 362.5C273.508 362.586 273.508 362.671 273.508 362.757 273.982 363.864 274.84 364.714 275.891 365.393 277.039 366.072 278.379 366.5 279.719 366.5 282.391 366.414 284.871 365.221 286.307 363.264 286.5 363.264 286.5 363.014 286.307 362.929 286.259 362.886 286.211 362.864 286.163 362.864 286.115 362.864 286.067 362.886 286.019 362.929 285.064 363.521 284.012 364.029 282.961 364.371 281.91 364.8 280.859 364.964 279.719 364.964 278.668 364.964 277.617 364.714 276.662 364.286 275.611 363.864 274.656 363.179 273.885 362.5Z" stroke="#005A35" stroke-linejoin="round" stroke-miterlimit="10" fill="#005A35" fill-rule="evenodd"/><path d="M301.335 369.508C300.871 369.508 300.407 369.604 299.966 369.771 299.313 370.154 298.66 370.441 297.998 370.912 296.873 371.573 295.661 372.243 294.347 372.714 293.78 372.849 293.214 372.921 292.655 372.921 292.002 372.921 291.348 372.825 290.695 372.618 289.475 372.052 288.444 371.103 287.878 369.867 287.791 369.771 287.697 369.771 287.697 369.771 287.508 369.771 287.508 369.867 287.508 369.963 287.791 371.573 288.728 373.001 290.129 373.854 291.002 374.269 291.986 374.5 292.993 374.5 293.599 374.5 294.213 374.412 294.819 374.237 295.567 374.046 296.314 373.758 296.968 373.288 297.629 372.905 298.187 372.53 298.754 372.052 299.407 371.573 299.872 371.103 300.438 370.72 300.997 370.345 301.564 370.058 302.217 370.058 302.311 370.058 302.406 369.963 302.406 369.963 302.5 369.867 302.406 369.676 302.311 369.676 301.996 369.556 301.666 369.508 301.335 369.508Z" stroke="#005A35" stroke-linejoin="round" stroke-miterlimit="10" fill="#005A35" fill-rule="evenodd"/><path d="M301.555 365.5C301.477 365.5 301.419 365.525 301.419 365.575 300.965 366.173 300.732 366.762 300.616 367.46 300.5 368.049 300.5 368.738 300.616 369.336 300.848 370.715 301.768 371.803 303.152 372.5L303.268 372.5C303.384 372.5 303.5 372.4 303.5 372.201 303.384 371.612 303.152 371.113 303.036 370.623 302.803 370.026 302.687 369.536 302.571 369.037 302.348 367.95 302.116 366.962 301.768 365.674L301.884 365.674C301.768 365.674 301.768 365.575 301.768 365.575 301.71 365.525 301.623 365.5 301.555 365.5Z" stroke="#005A35" stroke-linejoin="round" stroke-miterlimit="10" fill="#005A35" fill-rule="evenodd"/><path d="M290.671 374.5C290.586 374.5 290.5 374.595 290.586 374.784 290.671 375.626 291.007 376.469 291.521 377.217 292.029 377.973 292.714 378.626 293.479 379.004 294.179 379.311 294.886 379.492 295.593 379.492 295.736 379.492 295.886 379.484 296.029 379.469 296.879 379.374 297.643 379.091 298.322 378.626 298.493 378.532 298.493 378.248 298.243 378.248 297.471 378.154 296.793 378.248 296.114 378.067 295.436 377.973 294.75 377.784 294.157 377.5 292.879 376.847 291.779 375.815 290.929 374.595L290.843 374.595C290.843 374.5 290.757 374.5 290.671 374.5Z" stroke="#005A35" stroke-linejoin="round" stroke-miterlimit="10" fill="#005A35" fill-rule="evenodd"/><path d="M268.855 383.508C268.764 383.508 268.673 383.591 268.673 383.682 267.508 391.515 267.682 399.439 269.127 407.181 269.846 411.143 271.292 414.924 273.449 418.342 275.613 421.858 278.951 424.466 282.825 425.729 284.566 426.243 286.36 426.492 288.161 426.492 290.446 426.492 292.724 426.084 294.896 425.275 298.59 423.748 302.018 421.676 304.992 418.977 310.85 413.571 315.716 407.363 319.5 400.339 319.5 400.21 319.402 400.127 319.281 400.127 319.235 400.127 319.182 400.134 319.137 400.157 317.063 403.492 314.808 406.637 312.288 409.609 309.858 412.671 307.149 415.461 304.182 417.986 301.299 420.504 297.961 422.485 294.359 423.839 292.376 424.595 290.272 424.988 288.176 424.988 286.556 424.988 284.937 424.753 283.363 424.285 279.76 423.113 276.695 420.686 274.622 417.533 272.639 414.206 271.11 410.69 270.391 406.909 269.49 403.129 269.036 399.257 268.855 395.386 268.673 391.515 268.673 387.644 269.036 383.772 269.036 383.682 268.946 383.591 268.855 383.508Z" stroke="#005A35" stroke-linejoin="round" stroke-miterlimit="10" fill="#005A35" fill-rule="evenodd"/><path d="M264.05 382.5C263.958 382.5 263.867 382.593 263.775 382.685 262.5 391.98 262.683 401.452 264.409 410.646 265.233 415.344 266.959 419.755 269.501 423.804 272.051 427.945 275.952 431.074 280.502 432.542 282.525 433.183 284.594 433.492 286.671 433.492 289.351 433.492 292.03 432.975 294.588 431.993 298.955 430.247 302.956 427.76 306.406 424.538 313.316 418.195 319.041 410.739 323.492 402.464 323.492 402.464 323.492 402.279 323.492 402.279 323.454 402.233 323.408 402.209 323.363 402.209 323.317 402.209 323.271 402.233 323.225 402.279 320.767 406.235 318.133 410.005 315.224 413.59 312.315 417.183 309.132 420.489 305.681 423.526 303.956 425.001 302.047 426.292 300.222 427.574 298.314 428.772 296.229 429.784 294.138 430.611 291.809 431.484 289.374 431.924 286.931 431.924 284.984 431.924 283.029 431.646 281.136 431.074 276.868 429.598 273.227 426.84 270.776 422.977 268.409 419.114 266.684 414.787 265.775 410.376 264.775 405.864 264.233 401.267 264.05 396.577 263.775 391.98 263.867 387.375 264.317 382.685L264.233 382.685C264.233 382.593 264.141 382.5 264.05 382.5Z" stroke="#005A35" stroke-linejoin="round" stroke-miterlimit="10" fill="#005A35" fill-rule="evenodd"/><path d="M329.26 359.508C329.212 359.508 329.165 359.531 329.117 359.577 326.832 362.511 323.214 364.436 319.411 364.798 318.948 364.844 318.493 364.867 318.03 364.867 316.592 364.867 315.17 364.644 313.804 364.159 311.999 363.512 310.281 362.596 308.86 361.41 308.804 361.356 308.748 361.333 308.7 361.333 308.58 361.333 308.508 361.464 308.572 361.587 309.714 363.335 311.424 364.613 313.325 365.445 314.906 366.13 316.688 366.492 318.445 366.492 318.796 366.492 319.156 366.485 319.507 366.446 321.696 366.269 323.693 365.53 325.498 364.344 327.216 363.15 328.542 361.587 329.492 359.754 329.492 359.662 329.492 359.577 329.396 359.577 329.348 359.531 329.3 359.508 329.26 359.508Z" stroke="#005A35" stroke-linejoin="round" stroke-miterlimit="10" fill="#005A35" fill-rule="evenodd"/><path d="M305.963 444 305.963 444C300.584 448.52 290 452.937 290 452.937 291.238 452.976 292.404 452.992 293.515 452.992 312.564 452.992 313.992 447.951 313.992 447.951L313.992 447.951C313.992 447.951 310.112 450.203 306.741 450.203 306.209 450.203 305.693 450.147 305.209 450.021 301.623 449.081 305.963 444.008 305.963 444Z" fill="#005A35" fill-rule="evenodd"/><path d="M282.231 387C267.134 387 254.623 387.945 253.833 390.006 252.008 395.081 253.013 413.899 253.013 413.899 253.013 413.899 317.309 414.999 325.801 417.122 330.733 418.323 334.568 422.104 336.034 426.992 342.331 418.602 347.992 404.393 347.992 404.393 347.992 404.393 345.983 397.753 336.034 392.129 330.142 388.883 303.594 387 282.231 387Z" fill="#F89114" fill-rule="evenodd"/><path d="M336.141 392.008C335.867 392.746 335.685 393.392 335.502 394.045 332.971 402.006 329.801 409.687 326 417.088 330.888 418.293 334.689 422.087 336.141 426.992 342.382 418.573 347.992 404.315 347.992 404.315 347.992 404.315 346.001 397.652 336.141 392.008Z" fill="#F05016" fill-rule="evenodd"/><path d="M282.379 388.096C285.592 388.096 289.091 388.143 292.882 388.245 314.537 388.801 332.061 390.757 336.376 393.183L336.469 393.183C344.907 398.027 347.481 403.615 347.936 404.828 347.111 406.784 342.433 418.249 337.016 425.886 335.182 421.418 331.329 418.061 326.744 416.942 318.575 414.891 261.688 413.772 254.166 413.584L254.074 413.584C253.889 410.047 253.434 394.952 254.991 390.663 255.692 389.482 264.616 388.096 282.379 388.096ZM282.895 386.508C270.049 386.508 259.044 387.157 255.361 388.527 254.536 388.707 253.796 389.27 253.434 390.014 251.508 395.233 252.517 413.678 252.517 414.516 252.517 414.891 252.879 415.267 253.342 415.267 253.981 415.267 317.935 416.386 326.281 418.522 330.959 419.641 334.635 423.186 335.914 427.843 336.006 428.124 336.191 428.398 336.561 428.492L336.746 428.492C336.923 428.398 337.201 428.312 337.386 428.031 343.805 419.641 349.315 405.665 349.492 405.109 349.492 405.015 349.492 404.922 349.492 404.922 349.492 404.828 349.492 404.64 349.492 404.546 349.408 404.272 347.296 397.378 337.108 391.688L337.016 391.688C330.712 388.316 304.265 386.508 282.895 386.508Z" stroke="#005A35" stroke-linejoin="round" stroke-miterlimit="10" fill="#005A35" fill-rule="evenodd"/><path d="M333.242 402.508C333.182 402.508 333.136 402.53 333.136 402.576L331.333 406.269 329.439 409.872C329.167 410.508 328.902 411.136 328.629 411.764L327.727 413.565C327.091 414.829 326.462 416.093 325.833 417.266L325.924 417.266C325.5 417.917 326.076 418.5 326.614 418.5 326.886 418.5 327.152 418.349 327.273 417.985L329.167 414.292 330.068 412.4C330.341 411.764 330.705 411.227 330.97 410.591 331.424 409.335 331.962 407.98 332.326 406.723 332.78 405.369 333.136 404.105 333.5 402.757 333.5 402.667 333.5 402.576 333.409 402.576 333.364 402.53 333.296 402.508 333.242 402.508Z" stroke="#005A35" stroke-linejoin="round" stroke-miterlimit="10" fill="#005A35" fill-rule="evenodd"/><path d="M288.15 395C287.738 395 287.348 395.259 287.245 395.724L286.899 397.544 285.148 397.719C284.361 397.81 284.007 398.808 284.618 399.448L285.935 400.621 285.148 402.35C284.831 403.005 285.369 403.736 286.06 403.736 286.134 403.736 286.208 403.72 286.288 403.705L288.04 403.073 289.004 404.612C289.217 404.871 289.519 404.992 289.813 404.992 290.24 404.992 290.652 404.733 290.755 404.254L291.101 402.433 292.852 402.258C293.647 402.258 293.993 401.169 293.382 400.621L292.065 399.356 292.852 397.719C293.161 397.018 292.676 396.31 292.028 396.31 291.925 396.31 291.822 396.325 291.719 396.363L290.049 396.904 289.004 395.457C288.776 395.145 288.452 395 288.15 395Z" stroke="#005A35" stroke-width="2" stroke-linejoin="round" stroke-miterlimit="10" fill="#F8C019" fill-rule="evenodd"/><path d="M245.605 395C245.181 395 244.756 395.093 244.347 395.279 244.254 395.373 244.162 395.466 243.976 395.559L243.706 395.745C243.336 396.025 243.058 396.389 242.872 396.855L210.154 448.882C210.061 449.162 209.968 449.527 209.968 449.806 209.42 449.806 208.864 449.713 208.224 449.713 192.961 449.713 188.46 445.374 184.785 444.722 184.036 444.575 183.318 444.497 182.623 444.497 179.79 444.497 177.312 445.785 174.949 448.976 172.008 453.043 174.579 456 174.579 456L216.315 456C216.4 454.517 215.944 453.136 215.025 451.933 215.303 451.653 215.481 451.374 215.666 451.009L246.555 403.507 289.573 452.212C290.167 452.856 290.985 453.182 291.788 453.182 292.475 453.182 293.163 452.95 293.711 452.484 294.9 451.374 294.992 449.527 293.981 448.331L247.837 396.025C247.234 395.349 246.424 395 245.605 395Z" stroke="#005A35" stroke-width="2" stroke-linejoin="round" stroke-miterlimit="10" fill="#D0EFBD" fill-rule="evenodd"/><path d="M346.539 379C345.945 379 345.351 379.179 344.834 379.545 343.553 380.472 343.276 382.325 344.194 383.719L362.017 408.662 327.196 443.985C326.008 445.099 326.008 446.952 327.196 448.159 327.751 448.712 328.484 448.992 329.233 448.992 329.981 448.992 330.737 448.712 331.332 448.159L367.804 411.162C368.722 410.328 369 408.942 368.444 407.829 368.352 407.548 368.174 407.174 367.989 406.902L348.97 380.199C348.36 379.413 347.45 379 346.539 379Z" fill="#98C926" fill-rule="evenodd"/><path d="M350.497 384.507C350.437 384.507 350.393 384.529 350.393 384.572 350.215 384.659 350.215 384.746 350.304 384.833 351.719 387.067 353.215 389.308 354.718 391.455 356.214 393.61 357.717 395.764 359.302 397.912L363.975 404.368 366.264 407.643 367.501 409.191 368.034 410.051C368.204 410.224 368.293 410.398 368.382 410.651L368.382 410.738C368.737 411.432 368.56 412.292 368.034 412.806L365.649 415.126 360.976 419.696 351.63 428.82C345.372 434.929 339.195 441.125 333.026 447.242L333.115 447.155 333.115 447.155C332.5 447.748 333.041 448.5 333.641 448.5 333.818 448.5 334.011 448.428 334.174 448.269 340.432 442.159 346.69 436.05 352.955 429.933L362.302 420.809 366.975 416.16 369.263 413.926C370.233 412.806 370.5 411.258 369.967 409.964L369.967 409.964 369.967 410.051C369.797 409.704 369.619 409.364 369.352 409.017L368.826 408.243 367.59 406.609 365.212 403.421 360.539 397.051C358.947 394.904 357.362 392.749 355.688 390.682 354.007 388.614 352.333 386.553 350.659 384.572 350.615 384.529 350.548 384.507 350.497 384.507Z" stroke="#005A35" stroke-linejoin="round" stroke-miterlimit="10" fill="#005A35" fill-rule="evenodd"/><path d="M345.402 379.508C345.272 379.508 345.142 379.539 345.004 379.616 343.45 380.721 342.999 382.931 344.001 384.584L346.55 388.262 351.654 395.44 361.311 409.055 342.999 427.638 333.617 437.296C332.155 438.865 330.609 440.518 329.056 442.172L327.962 443.462C327.51 443.825 327.143 444.382 326.959 445.023 326.508 446.221 326.875 447.604 327.878 448.431 327.916 448.477 327.962 448.5 328.008 448.5 328.054 448.5 328.099 448.477 328.145 448.431 328.237 448.338 328.237 448.245 328.145 448.152 327.51 447.326 327.327 446.313 327.694 445.301 327.962 444.93 328.237 444.474 328.696 444.196L329.875 442.999C331.52 441.531 333.158 439.962 334.704 438.401L344.185 428.835 363.133 409.789C363.5 409.426 363.5 408.962 363.225 408.591L353.116 394.335 348.011 387.25 345.455 383.758C344.82 382.838 345.096 381.548 346.006 380.906L345.915 380.906C346.527 380.365 346.052 379.508 345.402 379.508Z" stroke="#005A35" stroke-linejoin="round" stroke-miterlimit="10" fill="#005A35" fill-rule="evenodd"/><path d="M331.492 437.008C329.245 437.008 329.008 438.282 329.894 438.694 335.81 441.692 335.352 448.138 335.352 448.138 335.352 448.138 334.901 449.046 335.994 449.68 336.475 449.893 336.98 449.992 337.476 449.992 338.47 449.992 339.418 449.588 340.083 448.863 341 447.772 339.357 438.961 334.442 437.511 333.219 437.145 332.241 437.008 331.492 437.008Z" fill="#D05121" fill-rule="evenodd"/><path d="M319.211 435.008C317.417 435.008 315.4 435.247 313.168 435.832 312.983 435.925 302.168 439.601 297.957 441.066 295.386 441.89 293.554 443.724 293.185 445.744 293.008 447.216 293.554 448.588 294.747 449.42 295.964 450.214 297.365 450.607 298.766 450.607 299.797 450.607 300.836 450.391 301.806 449.967L305.193 448.133 305.008 447.763 301.621 449.69C300.744 450.075 299.782 450.268 298.827 450.268 297.488 450.268 296.141 449.89 295.025 449.143 293.924 448.41 293.369 447.123 293.554 445.836 294.193 443.632 295.848 441.983 298.042 441.435 302.26 439.963 313.168 436.202 313.26 436.202 315.439 435.617 317.417 435.385 319.188 435.385 326.015 435.385 329.664 438.861 329.664 438.861 329.756 438.861 334.521 439.416 335.53 443.547 336.631 447.578 335.076 448.773 335.076 448.773 335.076 448.865 331.265 453.59 327.347 453.59 327.147 453.59 326.939 453.574 326.731 453.543 322.605 452.996 320.866 451.069 320.866 451.069L320.773 450.884 320.589 451.069C320.589 451.162 318.849 453.913 318.025 455.2 317.563 455.933 318.025 456.387 318.572 456.85 319.58 457.489 320.134 458.776 319.95 459.971 319.95 461.073 319.126 462.083 318.118 462.445 317.84 462.53 317.556 462.576 317.271 462.576 316.347 462.576 315.446 462.137 314.815 461.435L314.176 460.796C311.975 458.499 307.302 453.728 311.151 449.328 315.369 444.279 317.563 443.085 317.563 443.085L317.386 442.715C317.294 442.807 315.185 444.002 310.874 449.05 306.84 453.728 311.613 458.684 313.899 461.073 314.176 461.25 314.361 461.528 314.546 461.713 315.277 462.445 316.193 462.908 317.294 463 317.563 463 317.933 463 318.21 462.908 319.403 462.445 320.227 461.435 320.319 460.156 320.496 458.776 319.95 457.489 318.849 456.665 318.21 456.118 318.025 455.933 318.302 455.563 319.034 454.461 320.411 452.264 320.773 451.617 322.421 452.996 324.53 453.913 326.731 454.098 326.947 454.121 327.17 454.137 327.386 454.137 331.365 454.137 335.083 449.582 335.345 449.235 335.53 448.958 337 447.578 335.992 443.455 334.891 439.416 330.395 438.592 329.849 438.499 329.418 438.137 325.769 435.008 319.211 435.008Z" fill="#222221" fill-rule="evenodd"/><path d="M313 439C308.357 439.093 305.232 446.637 305.137 446.907 305.042 447.093 304.008 449.942 305.519 451.687 307.037 453.069 308.643 454.174 310.44 455L310.535 454.629C308.834 453.803 307.22 452.699 305.805 451.417 304.477 449.849 305.423 447.093 305.519 447 305.519 447 308.643 439.463 313 439.371L313 439Z" fill="#222221" fill-rule="evenodd"/><path d="M320.179 452 319.905 452.205C320.452 453.122 320.544 454.243 320.179 455.159 319.456 456.486 319 456.589 319 456.589L319 457C319.182 457 319.722 456.897 320.452 455.365 320.992 454.243 320.81 452.925 320.179 452Z" fill="#222221" fill-rule="evenodd"/><path d="M319.366 435C317.546 435 315.486 435.239 313.21 435.837 313.118 435.837 302.187 439.484 297.968 440.821 295.669 441.442 293.833 443.138 293.278 445.358 293.008 446.695 293.648 448.025 294.844 448.833 296.016 449.61 297.412 450.021 298.824 450.021 299.842 450.021 300.86 449.812 301.825 449.363L305.219 447.585 305.126 447.316 301.732 449.184C300.822 449.587 299.873 449.782 298.924 449.782 297.567 449.782 296.217 449.386 295.029 448.653 293.926 447.943 293.37 446.606 293.555 445.358 293.833 443.579 295.669 441.89 298.053 441.091 302.28 439.663 313.21 436.016 313.303 436.016 315.509 435.448 317.499 435.224 319.273 435.224 326.147 435.224 329.741 438.595 329.741 438.595 329.834 438.595 334.701 439.133 335.712 443.138 336.815 447.136 335.249 448.384 335.249 448.384 335.164 448.384 331.346 452.965 327.419 452.965 327.219 452.965 327.011 452.95 326.802 452.92 322.668 452.479 320.924 450.521 320.924 450.521L320.832 450.432 320.739 450.521C320.647 450.611 318.996 453.279 318.078 454.527 317.615 455.147 318.17 455.596 318.718 456.037 319.729 456.746 320.284 457.905 320.099 459.153 320.006 460.221 319.273 461.2 318.17 461.552 317.87 461.641 317.553 461.686 317.237 461.686 316.311 461.686 315.386 461.305 314.769 460.573L314.128 459.952C311.922 457.725 307.24 453.1 311.097 448.743 315.417 443.938 317.615 442.69 317.615 442.69L317.438 442.51C317.438 442.51 315.231 443.669 310.912 448.564 306.87 453.1 311.652 457.815 313.943 460.132L314.591 460.752C315.324 461.462 316.335 461.91 317.345 462 318.903 462 320.284 460.842 320.284 459.242 320.554 457.994 320.006 456.657 318.811 455.947 318.263 455.416 317.985 455.147 318.263 454.699 319.088 453.638 320.469 451.411 320.832 450.873 322.482 452.3 324.596 453.1 326.802 453.279 327.018 453.309 327.227 453.316 327.443 453.316 331.361 453.316 335.172 448.9 335.434 448.564 335.619 448.474 337 447.136 335.989 443.138 334.886 439.133 330.381 438.423 329.834 438.423 329.471 438.071 325.915 435 319.366 435Z" fill="#222221" fill-rule="evenodd"/><path d="M313 440C308.357 440.088 305.328 447.152 305.137 447.408 305.137 447.584 304 450.285 305.614 451.94 307.029 453.163 308.643 454.209 310.44 454.993L310.535 454.817C308.739 454.034 307.125 452.987 305.805 451.772 304.382 450.198 305.328 447.584 305.423 447.496 305.423 447.408 308.548 440.351 313 440.264L313 440Z" fill="#222221" fill-rule="evenodd"/><path d="M320.197 452 319.895 452.21C320.598 453.04 320.699 454.29 320.297 455.226 319.502 456.685 319 456.685 319 456.685L319 457C319.1 457 319.695 456.895 320.498 455.435 320.992 454.29 320.891 453.04 320.197 452Z" fill="#222221" fill-rule="evenodd"/><path d="M319.581 435C317.753 435 315.694 435.241 313.406 435.845 313.406 435.845 302.43 439.435 298.221 440.875 294.02 442.308 292.008 446.441 295.118 448.689 296.286 449.526 297.684 449.933 299.074 449.933 300.065 449.933 301.063 449.729 301.977 449.315L305.356 447.429 305.356 447.429C305.356 447.429 304.258 450.303 305.725 451.916 307.092 453.266 308.651 454.254 310.295 455.152 310.932 456.411 311.67 457.58 312.584 458.568 313.498 459.466 314.32 460.273 314.773 460.808 315.487 461.585 316.462 461.992 317.392 461.992 318.736 461.992 319.995 461.14 320.264 459.285 320.449 458.116 319.988 456.947 318.982 456.23 318.982 456.23 319.535 456.23 320.264 454.88 320.717 453.983 320.541 452.904 319.988 452.097 320.541 451.29 320.902 450.665 320.902 450.665 320.902 450.665 322.637 452.641 326.846 453.176 327.054 453.206 327.253 453.214 327.461 453.214 331.462 453.214 335.349 448.417 335.349 448.417 335.349 448.417 337 447.248 335.902 443.123 334.803 438.899 329.957 438.364 329.957 438.364 329.957 438.364 326.424 435 319.581 435Z" fill="#D0EFBD" fill-rule="evenodd"/><path d="M320.179 452 319.905 452.205C320.452 453.122 320.544 454.243 320.179 455.159 319.456 456.486 319 456.589 319 456.589L319 457C319.182 457 319.722 456.897 320.452 455.365 320.992 454.243 320.81 452.925 320.179 452Z" fill="#222221" fill-rule="evenodd"/><path d="M320.197 452 319.895 452.21C320.598 453.04 320.699 454.29 320.297 455.226 319.502 456.685 319 456.685 319 456.685L319 457C319.1 457 319.695 456.895 320.498 455.435 320.992 454.29 320.891 453.04 320.197 452Z" fill="#222221" fill-rule="evenodd"/><path d="M319.784 435.612C326.104 435.612 329.386 438.675 329.531 438.889 329.707 438.981 329.799 439.073 329.982 439.073 330.166 439.073 334.443 439.798 335.269 443.252 336.179 446.712 335.085 447.896 335.085 447.896 334.993 447.896 334.993 447.988 334.902 447.988 334.902 448.072 331.382 452.488 327.764 452.488 327.565 452.488 327.358 452.473 327.159 452.442 323.334 451.984 321.789 450.165 321.789 450.165 321.613 449.997 321.383 449.906 321.154 449.906 320.901 449.906 320.656 450.02 320.511 450.257 320.511 450.257 320.052 450.983 319.601 451.808 319.417 452.075 319.417 452.442 319.601 452.717 319.96 453.259 320.052 453.985 319.868 454.627 319.692 454.986 319.417 455.261 319.05 455.536 318.874 455.628 318.598 455.811 318.507 456.078 318.415 456.354 318.507 456.72 318.69 456.896 319.509 457.446 319.868 458.447 319.784 459.356 319.692 460.265 319.142 460.991 318.323 461.266 318.101 461.327 317.872 461.357 317.65 461.357 316.892 461.357 316.173 461.014 315.684 460.448 315.5 460.265 315.408 460.173 314.957 459.715 314.498 459.264 314.039 458.722 313.496 458.172 312.585 457.171 311.858 456.078 311.308 454.894 311.216 454.719 311.04 454.535 310.856 454.444 309.303 453.718 307.85 452.625 306.572 451.441 305.661 450.349 306.029 448.347 306.297 447.713 306.48 447.163 306.121 446.621 305.57 446.621 305.386 446.621 305.294 446.712 305.21 446.712L301.928 448.622C301.109 448.958 300.245 449.126 299.388 449.126 298.149 449.126 296.94 448.775 295.915 448.072 295.004 447.53 294.553 446.437 294.729 445.437 295.28 443.527 296.825 442.075 298.738 441.525 303.022 440.165 313.863 436.429 313.863 436.429 316.066 435.841 318.04 435.612 319.784 435.612ZM319.876 434C317.986 434 315.86 434.252 313.496 434.886 313.496 434.886 302.563 438.614 298.378 440.073 295.639 440.983 293.635 442.893 293.275 445.161 293 446.804 293.635 448.439 295.004 449.348 296.336 450.249 297.873 450.715 299.442 450.715 300.559 450.715 301.683 450.479 302.747 449.99L304.476 448.989 304.476 448.989C304.3 450.257 304.659 451.533 305.478 452.534 306.756 453.81 308.301 454.894 310.038 455.811 310.581 456.988 311.399 458.172 312.31 459.173 312.861 459.807 313.312 460.357 313.771 460.807 314.039 461.082 314.314 461.357 314.498 461.541 315.316 462.45 316.502 462.992 317.688 462.992 318.048 462.992 318.507 462.901 318.874 462.809 320.236 462.358 321.238 461.082 321.421 459.631 321.605 458.447 321.238 457.354 320.603 456.445 320.871 456.078 321.054 455.719 321.33 455.353 321.789 454.352 321.789 453.168 321.238 452.259L321.421 451.984C323.059 453.168 325.063 453.894 327.068 454.077 327.297 454.107 327.527 454.123 327.756 454.123 331.872 454.123 335.659 449.677 336.179 449.073 336.631 448.622 338 447.079 336.906 442.893 335.904 438.614 331.711 437.705 330.533 437.522 329.692 436.758 326.111 434 319.876 434Z" fill="#335A3A" fill-rule="evenodd"/><path d="M331.492 437.008C329.245 437.008 329.008 438.282 329.894 438.694 335.81 441.692 335.352 448.138 335.352 448.138 335.352 448.138 334.901 449.046 335.994 449.68 336.475 449.893 336.98 449.992 337.476 449.992 338.47 449.992 339.418 449.588 340.083 448.863 341 447.772 339.357 438.961 334.442 437.511 333.219 437.145 332.241 437.008 331.492 437.008Z" fill="#D05121" fill-rule="evenodd"/><path d="M319.972 451C319.575 451 319.177 451.239 319.094 451.766L318.108 456.043C318.008 456.521 318.307 456.896 318.696 456.992L318.895 456.992C319.293 456.992 319.682 456.801 319.782 456.426L320.768 452.053C320.992 451.407 320.486 451 319.972 451Z" fill="#335A3A" fill-rule="evenodd"/><path d="M320.284 436.112C326.604 436.112 329.886 439.176 330.031 439.389 330.207 439.481 330.299 439.573 330.482 439.573 330.666 439.573 334.943 440.299 335.769 443.752 336.679 447.212 335.585 448.397 335.585 448.397 335.493 448.397 335.493 448.488 335.402 448.488 335.402 448.572 331.882 452.988 328.264 452.988 328.065 452.988 327.858 452.973 327.659 452.942 323.834 452.484 322.289 450.665 322.289 450.665 322.113 450.497 321.883 450.406 321.654 450.406 321.401 450.406 321.156 450.52 321.011 450.757 321.011 450.757 320.552 451.483 320.101 452.308 319.917 452.575 319.917 452.942 320.101 453.217 320.46 453.76 320.552 454.485 320.368 455.127 320.193 455.486 319.917 455.761 319.55 456.036 319.374 456.128 319.099 456.311 319.007 456.579 318.915 456.854 319.007 457.22 319.19 457.396 320.009 457.946 320.368 458.947 320.284 459.856 320.193 460.765 319.642 461.491 318.823 461.766 318.601 461.827 318.372 461.858 318.15 461.858 317.392 461.858 316.673 461.514 316.184 460.948 316 460.765 315.908 460.673 315.457 460.215 314.998 459.764 314.539 459.222 313.996 458.672 313.085 457.671 312.358 456.579 311.808 455.394 311.716 455.219 311.54 455.035 311.356 454.944 309.803 454.218 308.35 453.125 307.072 451.941 306.162 450.849 306.529 448.847 306.797 448.213 306.98 447.663 306.621 447.121 306.07 447.121 305.886 447.121 305.794 447.212 305.71 447.212L302.428 449.122C301.61 449.458 300.745 449.626 299.888 449.626 298.649 449.626 297.44 449.275 296.415 448.572 295.504 448.03 295.053 446.937 295.229 445.937 295.78 444.027 297.325 442.575 299.238 442.025 303.522 440.665 314.363 436.929 314.363 436.929 316.566 436.341 318.54 436.112 320.284 436.112ZM320.376 434.5C318.486 434.5 316.36 434.752 313.996 435.386 313.996 435.386 303.063 439.114 298.878 440.574 296.139 441.483 294.135 443.393 293.775 445.662 293.5 447.304 294.135 448.939 295.504 449.848 296.836 450.75 298.373 451.216 299.942 451.216 301.059 451.216 302.183 450.979 303.247 450.49L304.976 449.489 304.976 449.489C304.8 450.757 305.159 452.033 305.978 453.034 307.256 454.31 308.801 455.394 310.538 456.311 311.081 457.488 311.899 458.672 312.81 459.673 313.361 460.307 313.812 460.857 314.271 461.307 314.539 461.583 314.814 461.858 314.998 462.041 315.816 462.95 317.002 463.492 318.188 463.492 318.548 463.492 319.007 463.401 319.374 463.309 320.736 462.858 321.738 461.583 321.922 460.131 322.105 458.947 321.738 457.854 321.103 456.945 321.371 456.579 321.554 456.22 321.83 455.853 322.289 454.852 322.289 453.668 321.738 452.759L321.922 452.484C323.559 453.668 325.563 454.394 327.568 454.577 327.797 454.608 328.027 454.623 328.256 454.623 332.372 454.623 336.159 450.177 336.679 449.573 337.131 449.122 338.5 447.579 337.406 443.393 336.404 439.114 332.211 438.205 331.033 438.022 330.192 437.258 326.611 434.5 320.376 434.5Z" stroke="#005A35" stroke-linejoin="round" stroke-miterlimit="10" fill="#005A35" fill-rule="evenodd"/><path d="M331.492 437.008C329.245 437.008 329.008 438.282 329.894 438.694 335.81 441.692 335.352 448.138 335.352 448.138 335.352 448.138 334.901 449.046 335.994 449.68 336.475 449.893 336.98 449.992 337.476 449.992 338.47 449.992 339.418 449.588 340.083 448.863 341 447.772 339.357 438.961 334.442 437.511 333.219 437.145 332.241 437.008 331.492 437.008Z" stroke="#005A35" stroke-width="2" stroke-linejoin="round" stroke-miterlimit="10" fill="#F05016" fill-rule="evenodd"/><path d="M317.857 442C317.809 442 317.761 442.024 317.714 442.072 316.481 442.74 315.249 443.591 314.208 444.538 313.166 445.484 312.125 446.431 311.178 447.473 310.892 447.759 310.709 447.95 310.423 448.324 310.137 448.61 309.946 448.992 309.763 449.366 309.477 450.034 309.191 450.79 309.095 451.545 309 452.397 309 453.152 309.095 453.916 309.095 454.29 309.191 454.672 309.286 455.053 309.477 455.427 309.286 456 310.232 456 310.328 456 310.423 455.905 310.519 455.809 311.369 455.141 310.892 454.958 310.892 454.672 310.797 454.385 310.709 454.011 310.709 453.725 310.614 453.065 310.614 452.492 310.709 451.832 310.797 451.164 310.892 450.599 311.178 450.034 311.465 449.461 311.751 448.897 312.22 448.419 313.166 447.377 314.017 446.335 314.963 445.293 315.822 444.251 316.855 443.305 317.897 442.453L317.992 442.358C317.992 442.263 317.992 442.167 317.992 442.072 317.944 442.024 317.897 442 317.857 442Z" fill="#005A35" fill-rule="evenodd"/><path d="M312.71 440C311.657 440 310.7 440.258 309.831 440.767 308.971 441.283 308.206 441.878 307.539 442.559 306.863 443.247 306.196 443.928 305.713 444.695 305.142 445.462 304.66 446.229 304.185 447.004L304.185 447.082C304 447.627 304.475 448 304.973 448 305.255 448 305.544 447.878 305.713 447.599 306.003 446.746 306.389 445.978 306.863 445.29 307.249 444.523 307.724 443.756 308.303 443.161 308.874 442.394 309.453 441.792 310.217 441.283 310.885 440.767 311.842 440.43 312.71 440.344 312.992 440.344 312.992 440 312.71 440Z" fill="#005A35" fill-rule="evenodd"/><path d="M225.686 295.008C219 295.008 220.022 298.075 220.022 298.075 220.022 298.075 221.598 304.305 222.066 306.028 222.526 307.75 225.967 307.944 225.967 307.944 225.967 307.944 226.583 308 227.52 308 229.392 308 232.528 307.783 234.51 306.503 235.532 305.738 236 304.402 235.719 303.154 235.719 303.154 234.416 299.411 233.862 297.495 233.215 295.58 231.912 295.008 225.686 295.008Z" stroke="#005A35" stroke-width="2" stroke-linejoin="round" stroke-miterlimit="10" fill="#F05016" fill-rule="evenodd"/></g></svg>