<svg width="461" height="91" viewBox="0 0 461 91" fill="none" xmlns="http://www.w3.org/2000/svg">
<path d="M85.5696 53.3967L74.1029 40.4967C73.9596 40.21 73.5296 40.0667 73.0996 40.0667H63.0662V21.4333C63.0662 20.5733 62.4929 20 61.6329 20H28.6662V22.8667H60.1996V41.5V63H27.2329V65.8667H60.1996V71.6H31.5329V74.4667H61.6329C62.4929 74.4667 63.0662 73.8933 63.0662 73.0333V64.4333V42.9333H72.5262L81.4129 52.9667H71.6662V55.8333H83.1329V73.0333H85.9996V54.4C85.9996 53.97 85.8562 53.6833 85.5696 53.3967Z" fill="#005A35" fill-opacity="0.8"/>
<path d="M20.0668 68.7334C15.3368 68.7334 11.4668 72.6034 11.4668 77.3334C11.4668 82.0634 15.3368 85.9334 20.0668 85.9334C24.7968 85.9334 28.6668 82.0634 28.6668 77.3334C28.6668 72.6034 24.7968 68.7334 20.0668 68.7334ZM20.0668 83.0667C16.9135 83.0667 14.3335 80.4867 14.3335 77.3334C14.3335 74.1801 16.9135 71.6001 20.0668 71.6001C23.2201 71.6001 25.8001 74.1801 25.8001 77.3334C25.8001 80.4867 23.2201 83.0667 20.0668 83.0667Z" fill="#005A35" fill-opacity="0.8"/>
<path d="M73.1 68.7334C68.37 68.7334 64.5 72.6034 64.5 77.3334C64.5 82.0634 68.37 85.9334 73.1 85.9334C77.83 85.9334 81.7 82.0634 81.7 77.3334C81.7 72.6034 77.83 68.7334 73.1 68.7334ZM73.1 83.0667C69.9467 83.0667 67.3667 80.4867 67.3667 77.3334C67.3667 74.1801 69.9467 71.6001 73.1 71.6001C76.2533 71.6001 78.8333 74.1801 78.8333 77.3334C78.8333 80.4867 76.2533 83.0667 73.1 83.0667Z" fill="#005A35" fill-opacity="0.8"/>
<path d="M75.967 60.1333H71.667V63H75.967V60.1333Z" fill="#005A35" fill-opacity="0.8"/>
<path d="M20.0666 80.2C21.6498 80.2 22.9333 78.9166 22.9333 77.3333C22.9333 75.7501 21.6498 74.4667 20.0666 74.4667C18.4834 74.4667 17.2 75.7501 17.2 77.3333C17.2 78.9166 18.4834 80.2 20.0666 80.2Z" fill="#005A35" fill-opacity="0.8"/>
<path d="M73.1001 80.2C74.6833 80.2 75.9667 78.9166 75.9667 77.3333C75.9667 75.7501 74.6833 74.4667 73.1001 74.4667C71.5168 74.4667 70.2334 75.7501 70.2334 77.3333C70.2334 78.9166 71.5168 80.2 73.1001 80.2Z" fill="#005A35" fill-opacity="0.8"/>
<path d="M8.6 71.5999H0V74.4665H8.6V71.5999Z" fill="#005A35" fill-opacity="0.8"/>
<path d="M24.3667 20H0V22.8667H24.3667V20Z" fill="#005A35" fill-opacity="0.8"/>
<path d="M31.5334 31.4666H4.30005V34.3332H31.5334V31.4666Z" fill="#005A35" fill-opacity="0.8"/>
<path d="M43.0004 42.9332H15.7671V45.7999H43.0004V42.9332Z" fill="#005A35" fill-opacity="0.8"/>
<path d="M20.0667 55.8333H0V58.6999H20.0667V55.8333Z" fill="#005A35" fill-opacity="0.8"/>
<path d="M11.4662 42.9332H5.73291V45.7999H11.4662V42.9332Z" fill="#005A35" fill-opacity="0.8"/>
<path d="M443.552 45.1292L415 47.5225L438 63.4775L440.776 91L458.621 69.0618L461 68.264V20L443.552 45.1292Z" fill="#005A35" fill-opacity="0.75"/>
<path d="M374.227 5.07812L346 7.42187L368.739 23.0469L371.483 50L389.125 28.5156L415 24.6094L391.477 9.76562V0H378.54L374.227 5.07812Z" fill="#005A35"/>
<path d="M298.636 23.7135L270 25.9719L293.068 41.0281L295.852 67L313.75 46.2978L340 42.5337L316.136 28.2303V0L298.636 23.7135Z" fill="#005A35" fill-opacity="0.4"/>
</svg>
