<svg width="6919" height="7310" xmlns="http://www.w3.org/2000/svg" xmlns:xlink="http://www.w3.org/1999/xlink" overflow="hidden"><defs><filter id="fx0" x="-10%" y="-10%" width="120%" height="120%" filterUnits="userSpaceOnUse" primitiveUnits="userSpaceOnUse"><feComponentTransfer color-interpolation-filters="sRGB"><feFuncR type="discrete" tableValues="0 0"/><feFuncG type="discrete" tableValues="0 0"/><feFuncB type="discrete" tableValues="0 0"/><feFuncA type="linear" slope="0.501961" intercept="0"/></feComponentTransfer><feGaussianBlur stdDeviation="2 2"/></filter><clipPath id="clip1"><rect x="-2630" y="-3240" width="6919" height="7310"/></clipPath><clipPath id="clip2"><path d="M823.04 361.105C818.015 360.631 813.268 363.294 811.008 367.786L810.807 368.336 810.727 368.556C810.693 368.663 810.685 368.842 810.569 368.987L810.564 369.173C810.483 369.393 810.478 369.578 810.438 369.688L810.361 369.899 810.264 370.675C810.216 370.964 810.17 371.259 810.131 371.551L810.051 371.771 809.992 372.431 809.946 372.726 809.894 373.383 809.848 373.678 809.778 374.708 809.715 375.735 809.71 375.92 809.652 376.762 809.678 377.016 809.789 378.236 809.783 378.421C809.79 379.598 809.795 380.593 809.767 381.695L809.799 381.764 809.88 382.724 809.926 383.791C809.559 383.787 809.299 383.817 808.969 383.878L809.027 383.036 808.998 382.776 809.022 382.042 809.033 381.671 809.05 380.94 809.021 380.679 809.015 379.684 808.968 378.617 809.014 378.322 808.963 377.622 808.97 377.261 808.881 376.48 808.93 376.191C808.911 375.56 808.853 374.863 808.762 374.274L808.733 374.014C808.703 373.753 808.708 373.568 808.681 373.314L808.652 373.054 808.526 372.389 808.531 372.204C808.433 371.617 808.374 371.096 808.243 370.617L808.173 370.467 808.041 369.987 807.937 369.762 807.837 369.351 807.561 368.756C805.604 365.135 800.71 363.96 796.598 366.237 793.052 368.159 791.064 371.893 791.595 375.362L791.665 375.512C791.796 375.991 791.896 376.402 792.067 376.771L792.623 377.967 792.87 378.302 792.975 378.527 793.36 378.98 793.395 379.055 793.932 379.621 794.112 379.811 794.504 380.261 794.684 380.451 795.186 380.942 795.324 381.06 795.931 381.775 796.688 382.421 797.439 383.07 797.508 383.22 798.231 383.79 798.266 383.866C799.628 385.045 800.956 386.148 802.217 387.108 802.058 387.357 801.874 387.534 801.608 387.749 800.466 386.65 799.138 385.546 797.7 384.402L796.943 383.757 796.833 383.716 796.083 383.068C795.538 382.682 794.995 382.302 794.495 381.994L794.315 381.803 793.773 381.423 793.517 381.268 793.014 380.954 792.762 380.804 792.106 380.378C791.861 380.226 791.716 380.11 791.495 380.03L791.275 379.949 790.913 379.76 790.699 379.676 790.334 379.481 790.114 379.4C789.929 379.395 789.787 379.286 789.602 379.281 789.092 379.152 788.58 379.032 788.031 379.013 784.062 378.863 780.433 380.999 778.603 384.483 777.555 386.372 777.418 388.765 778.352 390.775 778.387 390.85 778.419 390.919 778.457 390.985 779.185 392.551 780.623 393.695 782.258 394.297L782.771 394.417 782.991 394.498C783.17 394.506 783.28 394.546 783.465 394.551L783.685 394.632 784.163 394.676 784.417 394.65 785.117 394.781 785.262 394.714C785.557 394.759 785.817 394.73 786.11 394.769 786.213 394.812 786.289 394.777 786.399 394.817L787.029 394.798 787.393 394.812 788.021 394.787C788.165 394.72 788.31 394.835 788.385 394.8L789.38 394.795C789.38 394.795 789.38 394.795 789.455 394.76 789.791 394.695 790.155 394.709 790.523 394.713L790.858 394.648C791.112 394.622 791.372 394.592 791.668 394.638L791.997 394.576 792.81 394.556C792.879 394.524 793.064 394.529 793.139 394.494 793.914 394.408 794.655 394.429 795.427 394.337L795.577 394.267 796.531 394.19 796.791 394.16 797.716 394.004 797.791 393.969C798.159 393.974 798.563 393.877 798.898 393.813 798.853 394.108 798.808 394.403 798.834 394.657 798.138 394.714 797.363 394.8 796.628 394.776L796.553 394.811 795.411 394.893C794.636 394.979 793.786 395.1 793.014 395.192L792.939 395.227C792.569 395.216 792.233 395.281 791.869 395.267L791.719 395.337C791.308 395.437 790.979 395.498 790.611 395.494L790.536 395.529C789.796 395.69 789.022 395.776 788.282 395.937 788.207 395.972 788.207 395.972 788.132 396.007 787.871 396.037 787.542 396.098 787.282 396.128L787.024 396.164 786.284 396.325C786.209 396.36 786.134 396.395 786.059 396.43 785.394 396.556 784.84 396.722 784.279 396.891L784.06 396.993C783.909 397.063 783.724 397.058 783.499 397.163L783.279 397.265 782.829 397.474 782.678 397.544 782.159 397.785C779.698 398.929 777.803 400.898 776.63 403.256 776.44 403.618 776.204 404.093 776.047 404.524 775.522 406.131 775.359 407.928 775.752 409.558 775.865 409.932 775.999 410.288 776.16 410.632 776.477 411.315 776.885 411.932 777.362 412.433 779.501 414.889 783.34 415.548 787.073 413.814L787.667 413.538 787.818 413.468C787.893 413.433 788.187 413.296 788.302 413.151 788.528 413.046 788.453 413.081 788.528 413.046 788.678 412.976 788.972 412.84 789.088 412.695 789.163 412.66 789.238 412.625 789.313 412.59 789.576 412.384 789.876 412.244 790.142 412.03L790.217 411.995C790.476 411.783 790.667 411.603 790.932 411.388 791.001 411.356 791.076 411.321 791.192 411.176 791.382 410.996 791.608 410.891 791.792 410.714L792.058 410.5C792.323 410.285 792.583 410.073 792.891 409.754 792.891 409.754 792.966 409.719 792.966 409.719 793.301 409.472 793.607 409.148 793.941 408.901 794.247 408.576 794.582 408.329 794.89 408.01L794.966 407.975C797.305 405.8 799.655 403.436 801.48 401.316 801.695 401.582 801.95 401.737 802.12 401.924 800.347 403.563 798.377 405.568 796.518 407.612L796.367 407.682C796.143 407.969 795.837 408.294 795.571 408.509 795.496 408.544 795.462 408.651 795.494 408.72 795.188 409.045 794.923 409.259 794.698 409.546 794.623 409.581 794.623 409.581 794.583 409.691 794.277 410.016 794.053 410.303 793.744 410.622L793.594 410.874 793.058 411.489 792.793 411.886C792.6 412.06 792.484 412.205 792.335 412.457L792.104 412.747 791.574 413.359C791.499 413.394 791.456 413.498 791.416 413.608L790.88 414.405 790.725 414.66 790.382 415.086 790.261 415.416C790.146 415.561 790.037 415.703 789.921 415.848L789.841 416.068C789.758 416.282 789.642 416.427 789.562 416.647 787.962 420.086 787.989 423.88 789.369 426.848 790.216 428.67 791.572 430.18 793.378 431.099 794.073 431.416 794.759 431.729 795.46 431.86 799.985 432.833 805.076 429.926 807.288 424.543 807.371 424.329 807.451 424.109 807.491 423.817L807.571 423.597 807.74 422.978 807.786 422.682C807.86 422.465 807.943 422.251 807.989 421.956L808.069 421.736 808.242 420.749 808.213 420.489 808.346 419.612 808.467 419.282C808.48 418.918 808.526 418.623 808.496 418.362L808.545 418.073C808.6 417.225 808.739 416.346 808.762 415.429L808.727 415.354C809.018 411.686 809.013 407.972 808.829 404.251 809.193 404.264 809.525 404.194 809.786 404.164 809.64 407.947 809.642 411.67 809.942 415.429 810.023 416.389 810.075 417.27 810.196 418.12L810.223 418.375 810.378 419.3 810.368 419.67 810.495 420.517 810.525 420.777 810.75 421.853 810.777 422.107 810.981 422.743 811.043 423.072 811.212 423.633 811.349 423.927C811.454 424.153 811.49 424.41 811.557 424.554 811.663 424.847 811.787 425.132 811.918 425.414 813.781 429.421 817.494 432.234 821.874 432.909 823.705 433.147 825.547 433.014 827.222 432.327 827.852 432.125 828.378 431.881 828.863 431.564 830.843 430.37 832.408 428.462 833.131 426.314 834.204 423.234 834.034 419.803 832.666 416.86 832.547 416.603 832.421 416.35 832.283 416.101L831.832 415.131 831.405 414.606 831.268 414.312 830.735 413.737 830.633 413.518 829.916 412.762 829.737 412.572 829.13 411.856 828.915 411.591 828.173 410.763 828.028 410.648C827.456 410.007 826.774 409.327 826.023 408.678 823.129 405.76 820.004 403.131 816.806 400.543 816.99 400.366 817.256 400.151 817.487 399.861 820.352 402.52 823.407 404.998 826.578 407.332 827.369 407.87 828.166 408.406 828.882 408.979L829.102 409.06 829.927 409.673 830.292 409.869 831.055 410.33 831.301 410.482 832.283 411.023 832.532 411.181 833.149 411.527 833.514 411.722 834.093 412.001 834.385 412.041C834.641 412.196 834.896 412.352 835.185 412.4 835.952 412.676 836.864 412.884 837.743 413.023 840.741 413.625 843.844 413.272 846.599 411.991L846.749 411.922C849.242 410.847 851.179 408.774 852.063 406.185 852.421 405.204 852.525 404.067 852.484 402.997 852.45 402.922 852.49 402.812 852.42 402.661 852.393 402.407 852.364 402.147 852.328 401.89 852.185 401.172 851.952 400.458 851.629 399.763 850.107 396.488 846.705 393.691 842.297 392.594 842.083 392.511 841.788 392.466 841.493 392.42L841.273 392.34C841.021 392.373 840.801 392.292 840.506 392.247 840.321 392.241 840.396 392.206 840.321 392.241 840.032 392.193 839.736 392.148 839.369 392.143 839.369 392.143 839.294 392.178 839.259 392.103 838.895 392.09 838.524 392.079 838.05 392.025L837.975 392.06C837.605 392.05 837.237 392.045 836.873 392.032L836.613 392.061C836.242 392.051 835.878 392.037 835.435 392.068L835.325 392.028C830.288 392.1 825.274 392.435 820.324 393.106 820.335 392.736 820.305 392.475 820.319 392.111 823.887 391.991 828.236 391.599 832.193 390.94 833.228 390.825 834.153 390.669 835.076 390.507L835.336 390.477 836.33 390.289C836.405 390.254 836.555 390.184 836.665 390.225 836.966 390.085 837.22 390.058 837.555 389.994 837.63 389.959 837.706 389.924 837.891 389.929L838.853 389.657 839.072 389.555C839.298 389.45 839.558 389.421 839.812 389.394 840.038 389.289 840.038 389.289 840.188 389.219 840.263 389.185 840.488 389.08 840.708 388.978 840.893 388.983 840.858 388.908 841.008 388.838L841.603 388.562 841.678 388.527C844.059 387.603 846.058 385.859 847.443 383.761 848.976 381.587 849.193 378.844 848.093 376.477 847.898 376.057 847.666 375.655 847.393 375.264 845.863 373.349 843.62 372.03 841.201 371.708 839.225 371.355 837.238 371.372 835.282 371.832 834.021 372.052 832.866 372.498 831.676 373.051L831.006 373.362C831.006 373.362 830.931 373.397 830.856 373.432 830.63 373.537 830.48 373.607 830.296 373.784 830.221 373.819 830.146 373.854 830.07 373.889 829.845 373.993 829.701 374.06 829.51 374.24 829.435 374.275 829.36 374.31 829.285 374.345 829.019 374.56 828.76 374.772 828.419 375.021 828.2 375.123 827.856 375.367 827.591 375.582 827.522 375.614 827.482 375.724 827.331 375.794L826.691 376.365C826.616 376.4 826.576 376.51 826.5 376.545L825.71 377.187C825.667 377.29 825.592 377.325 825.56 377.257 825.257 377.572 824.916 377.822 824.617 378.144 824.311 378.469 823.976 378.716 823.67 379.041L823.555 379.186C823.218 379.426 822.952 379.641 822.728 379.928L822.612 380.073C821.591 381.005 820.683 381.967 819.737 382.864L819.661 382.899C819.359 383.215 819.053 383.539 818.754 383.861 818.217 384.476 817.609 385.117 817.078 385.729 816.863 385.463 816.611 385.314 816.362 385.155 818.477 383.267 820.786 380.83 822.836 378.606L822.987 378.536C823.485 377.855 824.09 377.208 824.624 376.603L824.699 376.568 825.344 375.811C825.42 375.776 825.535 375.631 825.569 375.524 825.727 375.275 825.918 375.095 826.073 374.84 826.149 374.805 826.183 374.698 826.258 374.663 826.413 374.408 826.569 374.153 826.759 373.973L826.903 373.906 827.367 373.15C827.442 373.115 827.482 373.005 827.522 372.895 827.522 372.895 827.753 372.605 827.836 372.391 827.945 372.249 827.945 372.249 828.021 372.214 828.101 371.994 828.141 371.884 828.257 371.739L828.337 371.519C828.452 371.374 828.527 371.157 828.61 370.943 829.494 368.75 829.434 366.638 828.643 364.935 827.697 362.9 825.712 361.447 823.04 361.105ZM-2630-3240 4289-3240 4289 4070-2630 4070Z" fill-rule="evenodd" clip-rule="evenodd"/></clipPath><clipPath id="clip3"><rect x="3391" y="3590" width="107" height="100"/></clipPath><clipPath id="clip4"><rect x="0" y="0" width="6919" height="7310"/></clipPath></defs><g clip-path="url(#clip1)" transform="translate(2630 3240)"><g clip-path="url(#clip2)"><g clip-path="url(#clip3)" filter="url(#fx0)" transform="translate(-2630 -3240)"><g clip-path="url(#clip4)"><path d="M3406.16 3652.63C3406.48 3653.31 3406.89 3653.93 3407.36 3654.43 3409.5 3656.89 3413.34 3657.55 3417.07 3655.81L3417.67 3655.54 3417.82 3655.47C3417.89 3655.43 3418.19 3655.3 3418.3 3655.15 3418.53 3655.05 3418.45 3655.08 3418.53 3655.05 3418.68 3654.98 3418.97 3654.84 3419.09 3654.69 3419.16 3654.66 3419.24 3654.62 3419.31 3654.59 3419.58 3654.38 3419.88 3654.24 3420.14 3654.03L3420.22 3653.99C3420.48 3653.78 3420.67 3653.6 3420.93 3653.39 3421 3653.36 3421.08 3653.32 3421.19 3653.18 3421.38 3653 3421.61 3652.89 3421.79 3652.71L3422.06 3652.5C3422.32 3652.28 3422.58 3652.07 3422.89 3651.75 3422.89 3651.75 3422.97 3651.72 3422.97 3651.72 3423.3 3651.47 3423.61 3651.15 3423.94 3650.9 3424.25 3650.58 3424.58 3650.33 3424.89 3650.01L3424.97 3649.98C3427.3 3647.8 3429.66 3645.44 3431.48 3643.32 3431.69 3643.58 3431.95 3643.74 3432.12 3643.92 3430.35 3645.56 3428.38 3647.57 3426.52 3649.61L3426.37 3649.68C3426.14 3649.97 3425.84 3650.29 3425.57 3650.51 3425.5 3650.54 3425.46 3650.65 3425.49 3650.72 3425.19 3651.04 3424.92 3651.26 3424.7 3651.55 3424.62 3651.58 3424.62 3651.58 3424.58 3651.69 3424.28 3652.02 3424.05 3652.3 3423.74 3652.62L3423.59 3652.87 3423.06 3653.49 3422.79 3653.89C3422.6 3654.06 3422.48 3654.2 3422.34 3654.46L3422.1 3654.75 3421.57 3655.36C3421.5 3655.39 3421.46 3655.5 3421.42 3655.61L3420.88 3656.4 3420.72 3656.66 3420.38 3657.09 3420.26 3657.42C3420.15 3657.56 3420.04 3657.7 3419.92 3657.85L3419.84 3658.07C3419.76 3658.28 3419.64 3658.43 3419.56 3658.65 3417.96 3662.09 3417.99 3665.88 3419.37 3668.85 3420.22 3670.67 3421.57 3672.18 3423.38 3673.1 3424.07 3673.42 3424.76 3673.73 3425.46 3673.86 3429.99 3674.83 3435.08 3671.93 3437.29 3666.54 3437.37 3666.33 3437.45 3666.11 3437.49 3665.82L3437.57 3665.6 3437.74 3664.98 3437.79 3664.68C3437.86 3664.47 3437.94 3664.25 3437.99 3663.96L3438.07 3663.74 3438.24 3662.75 3438.21 3662.49 3438.35 3661.61 3438.47 3661.28C3438.48 3660.92 3438.53 3660.62 3438.5 3660.36L3438.54 3660.07C3438.6 3659.23 3438.74 3658.35 3438.76 3657.43L3438.73 3657.35C3439.02 3653.69 3439.01 3649.97 3438.83 3646.25 3439.19 3646.26 3439.53 3646.19 3439.79 3646.16 3439.64 3649.95 3439.64 3653.67 3439.94 3657.43 3440.02 3658.39 3440.07 3659.27 3440.2 3660.12L3440.22 3660.37 3440.38 3661.3 3440.37 3661.67 3440.49 3662.52 3440.52 3662.78 3440.75 3663.85 3440.78 3664.11 3440.98 3664.74 3441.04 3665.07 3441.21 3665.63 3441.35 3665.93C3441.45 3666.15 3441.49 3666.41 3441.56 3666.55 3441.66 3666.85 3441.79 3667.13 3441.92 3667.41 3443.78 3671.42 3447.49 3674.23 3451.87 3674.91 3453.7 3675.15 3455.55 3675.01 3457.22 3674.33 3457.85 3674.13 3458.38 3673.88 3458.86 3673.56 3460.84 3672.37 3462.41 3670.46 3463.13 3668.31 3464.2 3665.23 3464.03 3661.8 3462.67 3658.86 3462.55 3658.6 3462.42 3658.35 3462.28 3658.1L3461.83 3657.13 3461.41 3656.61 3461.27 3656.31 3460.73 3655.74 3460.63 3655.52 3459.92 3654.76 3459.74 3654.57 3459.13 3653.86 3458.92 3653.59 3458.17 3652.76 3458.03 3652.65C3457.46 3652.01 3456.77 3651.33 3456.02 3650.68 3453.13 3647.76 3450 3645.13 3446.81 3642.54 3446.99 3642.37 3447.26 3642.15 3447.49 3641.86 3450.35 3644.52 3453.41 3647 3456.58 3649.33 3457.37 3649.87 3458.17 3650.41 3458.88 3650.98L3459.1 3651.06 3459.93 3651.67 3460.29 3651.87 3461.05 3652.33 3461.3 3652.48 3462.28 3653.02 3462.53 3653.18 3463.15 3653.53 3463.51 3653.72 3464.09 3654 3464.39 3654.04C3464.64 3654.2 3464.9 3654.35 3465.18 3654.4 3465.95 3654.68 3466.86 3654.88 3467.74 3655.02 3470.74 3655.62 3473.84 3655.27 3476.6 3653.99L3476.75 3653.92C3479.24 3652.85 3481.18 3650.77 3482.06 3648.19 3482.42 3647.2 3482.53 3646.07 3482.48 3645 3482.45 3644.92 3482.49 3644.81 3482.42 3644.66 3482.39 3644.41 3482.36 3644.15 3482.33 3643.89 3482.18 3643.17 3481.95 3642.46 3481.63 3641.76 3480.11 3638.49 3476.71 3635.69 3472.3 3634.59 3472.08 3634.51 3471.79 3634.47 3471.49 3634.42L3471.27 3634.34C3471.02 3634.37 3470.8 3634.29 3470.51 3634.25 3470.32 3634.24 3470.4 3634.21 3470.32 3634.24 3470.03 3634.19 3469.74 3634.15 3469.37 3634.14 3469.37 3634.14 3469.29 3634.18 3469.26 3634.1 3468.89 3634.09 3468.52 3634.08 3468.05 3634.02L3467.98 3634.06C3467.6 3634.05 3467.24 3634.04 3466.87 3634.03L3466.61 3634.06C3466.24 3634.05 3465.88 3634.04 3465.44 3634.07L3465.33 3634.03C3460.29 3634.1 3455.27 3634.44 3450.32 3635.11 3450.33 3634.74 3450.31 3634.48 3450.32 3634.11 3453.89 3633.99 3458.24 3633.6 3462.19 3632.94 3463.23 3632.82 3464.15 3632.67 3465.08 3632.51L3465.34 3632.48 3466.33 3632.29C3466.4 3632.25 3466.56 3632.18 3466.67 3632.22 3466.97 3632.08 3467.22 3632.06 3467.56 3631.99 3467.63 3631.96 3467.71 3631.92 3467.89 3631.93L3468.85 3631.66 3469.07 3631.55C3469.3 3631.45 3469.56 3631.42 3469.81 3631.39 3470.04 3631.29 3470.04 3631.29 3470.19 3631.22 3470.26 3631.18 3470.49 3631.08 3470.71 3630.98 3470.89 3630.98 3470.86 3630.91 3471.01 3630.84L3471.6 3630.56 3471.68 3630.53C3474.06 3629.6 3476.06 3627.86 3477.44 3625.76 3478.98 3623.59 3479.19 3620.84 3478.09 3618.48 3477.9 3618.06 3477.67 3617.66 3477.39 3617.26 3475.86 3615.35 3473.62 3614.03 3471.2 3613.71 3469.23 3613.35 3467.24 3613.37 3465.28 3613.83 3464.02 3614.05 3462.87 3614.5 3461.68 3615.05L3461.01 3615.36C3461.01 3615.36 3460.93 3615.4 3460.86 3615.43 3460.63 3615.54 3460.48 3615.61 3460.3 3615.78 3460.22 3615.82 3460.15 3615.85 3460.07 3615.89 3459.84 3615.99 3459.7 3616.06 3459.51 3616.24 3459.44 3616.27 3459.36 3616.31 3459.28 3616.34 3459.02 3616.56 3458.76 3616.77 3458.42 3617.02 3458.2 3617.12 3457.86 3617.37 3457.59 3617.58 3457.52 3617.61 3457.48 3617.72 3457.33 3617.79L3456.69 3618.37C3456.62 3618.4 3456.58 3618.51 3456.5 3618.54L3455.71 3619.19C3455.67 3619.29 3455.59 3619.33 3455.56 3619.26 3455.26 3619.57 3454.92 3619.82 3454.62 3620.14 3454.31 3620.47 3453.98 3620.72 3453.67 3621.04L3453.55 3621.19C3453.22 3621.43 3452.95 3621.64 3452.73 3621.93L3452.61 3622.07C3451.59 3623 3450.68 3623.97 3449.74 3624.86L3449.66 3624.9C3449.36 3625.21 3449.05 3625.54 3448.75 3625.86 3448.22 3626.48 3447.61 3627.12 3447.08 3627.73 3446.86 3627.46 3446.61 3627.31 3446.36 3627.16 3448.48 3625.27 3450.79 3622.83 3452.84 3620.61L3452.99 3620.54C3453.48 3619.86 3454.09 3619.21 3454.62 3618.6L3454.7 3618.57 3455.34 3617.81C3455.42 3617.78 3455.53 3617.63 3455.57 3617.52 3455.73 3617.27 3455.92 3617.09 3456.07 3616.84 3456.15 3616.8 3456.18 3616.7 3456.26 3616.66 3456.41 3616.41 3456.57 3616.15 3456.76 3615.97L3456.9 3615.91 3457.37 3615.15C3457.44 3615.11 3457.48 3615.01 3457.52 3614.9 3457.52 3614.9 3457.75 3614.6 3457.84 3614.39 3457.95 3614.25 3457.95 3614.25 3458.02 3614.21 3458.1 3613.99 3458.14 3613.88 3458.26 3613.74L3458.34 3613.52C3458.45 3613.37 3458.53 3613.16 3458.61 3612.94 3459.49 3610.75 3459.43 3608.64 3458.64 3606.94 3457.7 3604.9 3455.71 3603.45 3453.04 3603.1 3448.02 3602.63 3443.27 3605.29 3441.01 3609.79L3440.81 3610.34 3440.73 3610.56C3440.69 3610.66 3440.68 3610.84 3440.57 3610.99L3440.56 3611.17C3440.48 3611.39 3440.48 3611.58 3440.44 3611.69L3440.36 3611.9 3440.26 3612.67C3440.22 3612.96 3440.17 3613.26 3440.13 3613.55L3440.05 3613.77 3439.99 3614.43 3439.95 3614.73 3439.89 3615.38 3439.85 3615.68 3439.78 3616.71 3439.72 3617.73 3439.71 3617.92 3439.65 3618.76 3439.68 3619.02 3439.79 3620.24 3439.78 3620.42C3439.79 3621.6 3439.8 3622.59 3439.77 3623.7L3439.8 3623.76 3439.88 3624.72 3439.93 3625.79C3439.56 3625.79 3439.3 3625.82 3438.97 3625.88L3439.03 3625.04 3439 3624.78 3439.02 3624.04 3439.03 3623.67 3439.05 3622.94 3439.02 3622.68 3439.02 3621.68 3438.97 3620.62 3439.01 3620.32 3438.96 3619.62 3438.97 3619.26 3438.88 3618.48 3438.93 3618.19C3438.91 3617.56 3438.85 3616.86 3438.76 3616.27L3438.73 3616.01C3438.7 3615.75 3438.71 3615.57 3438.68 3615.31L3438.65 3615.05 3438.53 3614.39 3438.53 3614.2C3438.43 3613.62 3438.37 3613.1 3438.24 3612.62L3438.17 3612.47 3438.04 3611.99 3437.94 3611.76 3437.84 3611.35 3437.56 3610.76C3435.6 3607.14 3430.71 3605.96 3426.6 3608.24 3423.05 3610.16 3421.06 3613.89 3421.59 3617.36L3421.66 3617.51C3421.8 3617.99 3421.9 3618.4 3422.07 3618.77L3422.62 3619.97 3422.87 3620.3 3422.97 3620.53 3423.36 3620.98 3423.4 3621.06 3423.93 3621.62 3424.11 3621.81 3424.5 3622.26 3424.68 3622.45 3425.19 3622.94 3425.32 3623.06 3425.93 3623.78 3426.69 3624.42 3427.44 3625.07 3427.51 3625.22 3428.23 3625.79 3428.27 3625.87C3429.63 3627.04 3430.96 3628.15 3432.22 3629.11 3432.06 3629.36 3431.87 3629.53 3431.61 3629.75 3430.47 3628.65 3429.14 3627.55 3427.7 3626.4L3426.94 3625.76 3426.83 3625.72 3426.08 3625.07C3425.54 3624.68 3425 3624.3 3424.49 3623.99L3424.31 3623.8 3423.77 3623.42 3423.52 3623.27 3423.01 3622.95 3422.76 3622.8 3422.11 3622.38C3421.86 3622.23 3421.72 3622.11 3421.5 3622.03L3421.28 3621.95 3420.91 3621.76 3420.7 3621.68 3420.33 3621.48 3420.11 3621.4C3419.93 3621.39 3419.79 3621.29 3419.6 3621.28 3419.09 3621.15 3418.58 3621.03 3418.03 3621.01 3414.06 3620.86 3410.43 3623 3408.6 3626.48 3407.55 3628.37 3407.42 3630.77 3408.35 3632.78 3408.39 3632.85 3408.42 3632.92 3408.46 3632.99 3409.19 3634.55 3410.62 3635.69 3412.26 3636.3L3412.77 3636.42 3412.99 3636.5C3413.17 3636.51 3413.28 3636.55 3413.47 3636.55L3413.69 3636.63 3414.16 3636.68 3414.42 3636.65 3415.12 3636.78 3415.26 3636.71C3415.56 3636.76 3415.82 3636.73 3416.11 3636.77 3416.21 3636.81 3416.29 3636.78 3416.4 3636.82L3417.03 3636.8 3417.39 3636.81 3418.02 3636.79C3418.17 3636.72 3418.31 3636.83 3418.39 3636.8L3419.38 3636.79C3419.38 3636.79 3419.38 3636.79 3419.46 3636.76 3419.79 3636.7 3420.16 3636.71 3420.52 3636.71L3420.86 3636.65C3421.11 3636.62 3421.37 3636.59 3421.67 3636.64L3422 3636.58 3422.81 3636.56C3422.88 3636.52 3423.06 3636.53 3423.14 3636.49 3423.91 3636.41 3424.65 3636.43 3425.43 3636.34L3425.58 3636.27 3426.53 3636.19 3426.79 3636.16 3427.72 3636 3427.79 3635.97C3428.16 3635.97 3428.56 3635.88 3428.9 3635.81 3428.85 3636.11 3428.81 3636.4 3428.83 3636.66 3428.14 3636.71 3427.36 3636.8 3426.63 3636.78L3426.55 3636.81 3425.41 3636.89C3424.64 3636.98 3423.79 3637.1 3423.01 3637.19L3422.94 3637.23C3422.57 3637.22 3422.23 3637.28 3421.87 3637.27L3421.72 3637.34C3421.31 3637.44 3420.98 3637.5 3420.61 3637.49L3420.54 3637.53C3419.8 3637.69 3419.02 3637.78 3418.28 3637.94 3418.21 3637.97 3418.21 3637.97 3418.13 3638.01 3417.87 3638.04 3417.54 3638.1 3417.28 3638.13L3417.02 3638.16 3416.28 3638.32C3416.21 3638.36 3416.13 3638.39 3416.06 3638.43 3415.39 3638.56 3414.84 3638.72 3414.28 3638.89L3414.06 3638.99C3413.91 3639.06 3413.72 3639.06 3413.5 3639.16L3413.28 3639.26 3412.83 3639.47 3412.68 3639.54 3412.16 3639.79C3409.7 3640.93 3407.8 3642.9 3406.63 3645.26 3406.44 3645.62 3406.2 3646.09 3406.05 3646.52 3405.52 3648.13 3405.36 3649.93 3405.75 3651.56 3405.86 3651.93 3406 3652.29 3406.16 3652.63Z" stroke="#FFFFFF" stroke-width="12" stroke-miterlimit="1" fill="#FFFFFF" fill-rule="evenodd"/></g></g></g><path d="M776.159 410.632C776.477 411.314 776.885 411.932 777.362 412.433 779.501 414.889 783.34 415.548 787.072 413.814L787.667 413.537 787.818 413.468C787.893 413.433 788.187 413.296 788.302 413.151 788.528 413.046 788.453 413.081 788.528 413.046 788.678 412.976 788.972 412.839 789.088 412.694 789.163 412.66 789.238 412.625 789.313 412.59 789.575 412.384 789.876 412.244 790.142 412.03L790.217 411.995C790.476 411.783 790.667 411.603 790.932 411.388 791.001 411.356 791.076 411.321 791.192 411.176 791.382 410.996 791.608 410.891 791.792 410.714L792.057 410.5C792.323 410.285 792.582 410.073 792.891 409.754 792.891 409.754 792.966 409.719 792.966 409.719 793.301 409.472 793.607 409.148 793.941 408.901 794.247 408.576 794.582 408.329 794.89 408.01L794.966 407.975C797.305 405.799 799.655 403.435 801.48 401.316 801.694 401.582 801.95 401.737 802.12 401.924 800.346 403.563 798.377 405.568 796.517 407.612L796.367 407.682C796.143 407.969 795.837 408.294 795.571 408.509 795.496 408.544 795.462 408.651 795.494 408.72 795.188 409.044 794.923 409.259 794.698 409.546 794.623 409.581 794.623 409.581 794.583 409.691 794.277 410.016 794.052 410.303 793.744 410.622L793.594 410.874 793.058 411.489 792.793 411.886C792.6 412.06 792.484 412.205 792.335 412.457L792.104 412.747 791.574 413.359C791.499 413.394 791.456 413.497 791.416 413.608L790.88 414.405 790.724 414.66 790.382 415.086 790.261 415.416C790.146 415.561 790.037 415.703 789.921 415.848L789.841 416.068C789.757 416.282 789.642 416.427 789.562 416.647 787.962 420.086 787.989 423.88 789.369 426.848 790.216 428.67 791.572 430.18 793.378 431.099 794.073 431.416 794.759 431.729 795.46 431.86 799.985 432.833 805.076 429.926 807.287 424.543 807.371 424.329 807.451 424.109 807.49 423.817L807.571 423.597 807.74 422.978 807.786 422.682C807.86 422.465 807.943 422.251 807.989 421.956L808.069 421.736 808.242 420.749 808.213 420.489 808.346 419.612 808.467 419.282C808.48 418.918 808.526 418.623 808.496 418.362L808.544 418.073C808.6 417.225 808.739 416.346 808.762 415.429L808.727 415.354C809.017 411.686 809.012 407.972 808.828 404.251 809.193 404.264 809.525 404.193 809.786 404.164 809.64 407.947 809.642 411.67 809.942 415.429 810.023 416.389 810.075 417.271 810.196 418.12L810.223 418.375 810.378 419.3 810.368 419.67 810.495 420.517 810.525 420.777 810.75 421.853 810.777 422.107 810.981 422.743 811.043 423.072 811.212 423.633 811.349 423.927C811.454 424.153 811.49 424.41 811.556 424.554 811.662 424.848 811.787 425.132 811.918 425.414 813.781 429.422 817.494 432.234 821.874 432.909 823.705 433.147 825.547 433.014 827.222 432.327 827.852 432.125 828.378 431.881 828.863 431.564 830.843 430.37 832.408 428.462 833.131 426.314 834.204 423.234 834.034 419.803 832.666 416.86 832.547 416.603 832.421 416.349 832.283 416.101L831.832 415.131 831.405 414.606 831.268 414.312 830.735 413.737 830.633 413.518 829.916 412.762 829.736 412.572 829.13 411.856 828.915 411.591 828.172 410.763 828.027 410.648C827.456 410.007 826.774 409.327 826.023 408.678 823.129 405.759 820.003 403.131 816.806 400.543 816.99 400.366 817.256 400.151 817.487 399.861 820.351 402.52 823.407 404.998 826.578 407.332 827.369 407.87 828.166 408.406 828.881 408.979L829.102 409.06 829.927 409.673 830.293 409.869 831.055 410.33 831.301 410.482 832.283 411.023 832.532 411.181 833.149 411.526 833.514 411.722 834.093 412.001 834.385 412.041C834.641 412.196 834.896 412.352 835.185 412.4 835.952 412.675 836.864 412.884 837.743 413.023 840.741 413.625 843.844 413.272 846.599 411.991L846.749 411.921C849.242 410.847 851.179 408.774 852.063 406.185 852.421 405.204 852.525 404.067 852.484 402.997 852.45 402.922 852.49 402.812 852.42 402.661 852.393 402.407 852.364 402.147 852.328 401.89 852.185 401.172 851.952 400.458 851.629 399.763 850.107 396.488 846.705 393.69 842.297 392.594 842.083 392.511 841.788 392.466 841.493 392.42L841.273 392.34C841.021 392.373 840.801 392.292 840.506 392.247 840.321 392.241 840.396 392.206 840.321 392.241 840.032 392.193 839.737 392.147 839.369 392.143 839.369 392.143 839.294 392.178 839.259 392.103 838.895 392.089 838.524 392.079 838.05 392.025L837.975 392.06C837.605 392.049 837.237 392.045 836.873 392.032L836.613 392.061C836.242 392.051 835.878 392.037 835.435 392.068L835.325 392.027C830.288 392.1 825.274 392.435 820.324 393.106 820.335 392.736 820.305 392.475 820.319 392.111 823.887 391.991 828.235 391.599 832.193 390.94 833.228 390.824 834.153 390.669 835.075 390.507L835.336 390.477 836.33 390.289C836.405 390.254 836.555 390.184 836.665 390.225 836.966 390.085 837.22 390.058 837.555 389.994 837.63 389.959 837.706 389.924 837.891 389.929L838.853 389.657 839.072 389.555C839.298 389.45 839.558 389.421 839.812 389.394 840.038 389.289 840.038 389.289 840.188 389.219 840.263 389.184 840.488 389.08 840.708 388.978 840.893 388.983 840.858 388.908 841.008 388.838L841.603 388.562 841.678 388.527C844.059 387.603 846.058 385.859 847.443 383.761 848.976 381.587 849.193 378.844 848.093 376.477 847.898 376.057 847.666 375.655 847.393 375.264 845.863 373.348 843.62 372.03 841.201 371.708 839.225 371.354 837.238 371.372 835.282 371.832 834.021 372.052 832.866 372.498 831.676 373.051L831.006 373.362C831.006 373.362 830.931 373.397 830.856 373.432 830.63 373.537 830.48 373.607 830.296 373.784 830.221 373.819 830.145 373.854 830.07 373.888 829.845 373.993 829.701 374.06 829.51 374.24 829.435 374.275 829.36 374.31 829.285 374.345 829.019 374.56 828.76 374.772 828.419 375.021 828.2 375.123 827.856 375.367 827.591 375.582 827.522 375.614 827.482 375.724 827.331 375.793L826.691 376.365C826.616 376.4 826.576 376.51 826.5 376.545L825.71 377.187C825.667 377.29 825.591 377.325 825.559 377.256 825.257 377.572 824.916 377.822 824.617 378.144 824.311 378.469 823.976 378.716 823.67 379.041L823.555 379.186C823.218 379.426 822.952 379.641 822.727 379.928L822.612 380.073C821.591 381.005 820.683 381.967 819.737 382.864L819.661 382.899C819.359 383.214 819.053 383.539 818.753 383.861 818.217 384.476 817.608 385.117 817.078 385.729 816.863 385.463 816.611 385.314 816.362 385.155 818.477 383.266 820.786 380.83 822.836 378.606L822.987 378.536C823.485 377.855 824.09 377.208 824.624 376.603L824.699 376.568 825.344 375.811C825.419 375.776 825.535 375.631 825.569 375.524 825.727 375.275 825.918 375.095 826.073 374.84 826.149 374.805 826.182 374.698 826.258 374.663 826.413 374.408 826.569 374.153 826.759 373.973L826.903 373.906 827.367 373.15C827.442 373.115 827.482 373.005 827.522 372.895 827.522 372.895 827.753 372.605 827.836 372.391 827.945 372.249 827.945 372.249 828.021 372.214 828.101 371.994 828.141 371.884 828.257 371.739L828.337 371.519C828.452 371.374 828.527 371.157 828.61 370.943 829.494 368.75 829.434 366.638 828.643 364.935 827.697 362.9 825.712 361.447 823.04 361.105 818.015 360.631 813.268 363.294 811.008 367.786L810.807 368.336 810.727 368.556C810.693 368.663 810.684 368.842 810.569 368.987L810.564 369.172C810.483 369.393 810.478 369.578 810.438 369.688L810.361 369.899 810.264 370.675C810.216 370.964 810.17 371.259 810.131 371.551L810.051 371.771 809.992 372.431 809.946 372.726 809.893 373.383 809.848 373.678 809.778 374.708 809.715 375.734 809.71 375.92 809.652 376.761 809.678 377.016 809.789 378.236 809.783 378.421C809.79 379.598 809.795 380.593 809.767 381.695L809.799 381.764 809.88 382.724 809.926 383.791C809.559 383.787 809.298 383.816 808.969 383.878L809.027 383.036 808.998 382.776 809.022 382.041 809.032 381.671 809.05 380.939 809.021 380.679 809.015 379.684 808.968 378.617 809.014 378.322 808.963 377.622 808.97 377.261 808.881 376.48 808.93 376.191C808.911 375.56 808.853 374.863 808.762 374.274L808.732 374.013C808.703 373.753 808.708 373.568 808.681 373.314L808.652 373.054 808.526 372.389 808.531 372.204C808.433 371.617 808.374 371.096 808.243 370.617L808.173 370.466 808.041 369.987 807.936 369.762 807.837 369.351 807.56 368.756C805.604 365.135 800.71 363.96 796.598 366.237 793.052 368.159 791.064 371.893 791.595 375.362L791.665 375.512C791.796 375.991 791.896 376.402 792.067 376.771L792.623 377.967 792.87 378.302 792.975 378.527 793.36 378.98 793.395 379.055 793.932 379.62 794.112 379.811 794.504 380.261 794.684 380.451 795.186 380.941 795.324 381.06 795.931 381.775 796.688 382.421 797.439 383.07 797.508 383.22 798.23 383.79 798.265 383.865C799.628 385.044 800.956 386.148 802.216 387.108 802.058 387.357 801.874 387.534 801.608 387.748 800.466 386.65 799.138 385.546 797.7 384.402L796.943 383.757 796.833 383.716 796.082 383.068C795.537 382.681 794.995 382.301 794.494 381.994L794.315 381.803 793.772 381.423 793.517 381.268 793.013 380.953 792.761 380.804 792.106 380.378C791.86 380.225 791.715 380.11 791.495 380.03L791.275 379.949 790.913 379.76 790.699 379.676 790.334 379.481 790.114 379.4C789.929 379.395 789.787 379.286 789.601 379.28 789.092 379.152 788.58 379.032 788.03 379.013 784.062 378.862 780.433 380.998 778.603 384.483 777.554 386.372 777.418 388.765 778.352 390.775 778.387 390.85 778.419 390.919 778.457 390.985 779.185 392.551 780.623 393.694 782.258 394.297L782.771 394.417 782.991 394.497C783.17 394.506 783.28 394.546 783.465 394.551L783.685 394.632 784.163 394.676 784.417 394.649 785.117 394.781 785.261 394.714C785.557 394.759 785.817 394.73 786.109 394.769 786.213 394.812 786.288 394.777 786.398 394.817L787.029 394.798 787.393 394.812 788.021 394.786C788.165 394.72 788.31 394.835 788.385 394.8L789.38 394.794C789.38 394.794 789.38 394.794 789.455 394.76 789.791 394.695 790.155 394.708 790.522 394.713L790.858 394.648C791.112 394.622 791.372 394.592 791.668 394.637L791.997 394.576 792.81 394.556C792.879 394.524 793.064 394.529 793.139 394.494 793.914 394.408 794.655 394.429 795.427 394.337L795.577 394.267 796.531 394.19 796.791 394.16 797.716 394.004 797.791 393.969C798.159 393.974 798.563 393.877 798.898 393.812 798.853 394.108 798.807 394.403 798.834 394.657 798.137 394.714 797.363 394.8 796.628 394.776L796.553 394.811 795.411 394.893C794.636 394.979 793.786 395.1 793.014 395.192L792.939 395.227C792.569 395.216 792.233 395.281 791.869 395.267L791.719 395.337C791.308 395.437 790.979 395.498 790.611 395.494L790.536 395.529C789.796 395.69 789.022 395.776 788.282 395.937 788.207 395.972 788.207 395.972 788.131 396.007 787.871 396.036 787.542 396.098 787.282 396.128L787.024 396.164 786.284 396.325C786.209 396.36 786.134 396.395 786.059 396.429 785.394 396.556 784.839 396.722 784.279 396.891L784.059 396.993C783.909 397.063 783.724 397.058 783.499 397.163L783.279 397.264 782.828 397.474 782.678 397.544 782.159 397.785C779.698 398.929 777.803 400.898 776.63 403.256 776.44 403.618 776.204 404.093 776.047 404.524 775.522 406.131 775.359 407.928 775.751 409.558 775.864 409.931 775.999 410.287 776.159 410.632Z" stroke="#FFFFFF" stroke-width="12" stroke-miterlimit="1" fill="#FFFFFF" fill-rule="evenodd"/><path d="M813.147 391.686C813.839 393.176 835.627 391.479 841.848 388.679 847.56 386.109 850.169 380.876 848.23 376.706 848.03 376.273 847.782 375.856 847.488 375.452 844.479 371.322 837.293 370.489 831.736 373.163 826.214 375.912 812.594 390.496 813.147 391.686Z" stroke="#005A35" stroke-width="2" stroke-linejoin="round" stroke-miterlimit="10" fill="#F05016" fill-rule="evenodd"/><path d="M810.559 389.477C810.638 389.646 810.725 389.751 810.813 389.778 812.564 390.236 826.646 376.252 828.7 371.315 829.584 369.123 829.524 367.011 828.73 365.302 827.781 363.26 825.791 361.779 823.098 361.409 818.07 360.928 813.254 363.623 811.023 368.193 809.158 372.357 809.477 387.148 810.559 389.477Z" stroke="#005A35" stroke-width="2" stroke-linejoin="round" stroke-miterlimit="10" fill="#F05016" fill-rule="evenodd"/><path d="M792.147 376.943C794.054 381.044 806.355 390.67 807.676 390.056 809.298 389.302 809.53 372.976 807.615 368.856 807.595 368.812 807.574 368.768 807.551 368.718 805.669 365.062 800.773 364.079 796.698 366.239 792.626 368.406 790.546 373.088 792.061 376.74 792.083 376.805 792.115 376.874 792.147 376.943Z" stroke="#005A35" stroke-linejoin="round" stroke-miterlimit="10" fill="#F05016" fill-rule="evenodd"/><path d="M778.311 390.752C779.027 392.292 780.378 393.545 782.324 394.225 786.664 395.748 804.893 393.619 805.407 392.382 805.47 392.239 805.426 392.031 805.301 391.761 804.021 389.006 793.628 380.26 789.673 379.205 785.248 378.269 780.696 380.384 778.634 384.335 777.517 386.552 777.435 388.867 778.311 390.752Z" stroke="#005A35" stroke-width="2" stroke-linejoin="round" stroke-miterlimit="10" fill="#F05016" fill-rule="evenodd"/><path d="M776.093 410.537C777.81 414.231 782.27 415.653 786.961 413.557 792.137 411.243 805.951 396.485 805.395 395.289 804.737 393.874 786.673 395.195 781.937 397.488 777.386 399.786 774.555 405 775.646 409.298 775.757 409.733 775.912 410.149 776.093 410.537Z" stroke="#005A35" stroke-width="2" stroke-linejoin="round" stroke-miterlimit="10" fill="#F05016" fill-rule="evenodd"/><path d="M789.151 426.511C789.992 428.32 791.334 429.814 793.127 430.724 798.129 433.295 804.582 430.205 807.031 424.171 809.337 418.5 809.022 400.128 807.826 397.555 807.75 397.392 807.667 397.294 807.584 397.264 805.977 396.739 791.751 410.79 789.311 416.271 787.749 419.708 787.766 423.53 789.151 426.511Z" stroke="#005A35" stroke-width="2" stroke-linejoin="round" stroke-miterlimit="10" fill="#F05016" fill-rule="evenodd"/><path d="M811.63 424.957C814.43 430.981 821.077 434.257 826.966 431.954 832.917 429.622 835.2 422.523 832.281 416.243 832.188 416.043 832.097 415.849 831.992 415.654 828.822 409.604 812.24 396.371 810.825 397.029 809.11 397.826 808.859 418.159 811.3 424.182 811.401 424.447 811.514 424.707 811.63 424.957Z" stroke="#005A35" stroke-width="2" stroke-linejoin="round" stroke-miterlimit="10" fill="#F05016" fill-rule="evenodd"/><path d="M813.263 395.18C814.663 398.192 828.872 410.236 835.141 412.469 842.349 414.921 850.124 411.94 852.013 406.257 852.746 404.066 852.521 401.796 851.566 399.742 850.044 396.467 846.675 393.723 842.329 392.629 835.646 390.93 813.655 393.353 813.176 394.665 813.123 394.781 813.158 394.955 813.263 395.18Z" stroke="#005A35" stroke-width="2" stroke-linejoin="round" stroke-miterlimit="10" fill="#F05016" fill-rule="evenodd"/><path d="M799.743 398.578C801.902 403.224 807.98 405.242 813.491 402.765 819.205 400.2 821.761 394.002 819.509 389.156 819.456 389.043 819.395 388.927 819.34 388.808 816.827 383.991 810.469 382.598 805.357 385.066 800.175 387.565 797.58 393.302 799.537 398.103 799.604 398.262 799.67 398.422 799.743 398.578Z" fill="#F8C019" fill-rule="evenodd"/></g></svg>