<svg width="45" height="41" xmlns="http://www.w3.org/2000/svg" xmlns:xlink="http://www.w3.org/1999/xlink" overflow="hidden"><defs><clipPath id="clip0"><rect x="464" y="242" width="45" height="41"/></clipPath></defs><g clip-path="url(#clip0)" transform="translate(-464 -242)"><path d="M502.598 247.812C502.453 247.812 502.308 247.867 502.18 247.997L497.048 253.312 495.374 251.607C495.225 251.455 495.051 251.379 494.894 251.379 494.732 251.379 494.583 251.455 494.484 251.607 494.189 251.906 494.189 252.31 494.484 252.508L496.261 254.315C496.459 254.517 496.754 254.715 497.048 254.715 497.346 254.715 497.64 254.517 497.839 254.315L503.066 249C503.609 248.528 503.12 247.812 502.598 247.812ZM498.725 243.381C499.024 243.482 499.218 243.584 499.516 243.883 499.811 244.085 500.109 244.287 500.502 244.384 500.751 244.434 500.97 244.46 501.182 244.46 501.389 244.46 501.588 244.434 501.786 244.384L502.673 244.384C502.872 244.586 502.967 244.885 503.066 245.188 503.365 245.988 503.957 246.591 504.744 246.894 505.038 246.995 505.336 247.092 505.535 247.395 505.631 247.593 505.631 247.896 505.535 248.195 505.436 248.6 505.436 249.101 505.535 249.501 505.631 249.901 505.829 250.204 506.124 250.604 506.322 250.802 506.422 251.105 506.521 251.405 506.422 251.607 506.322 251.906 506.124 252.209 505.829 252.508 505.631 252.811 505.535 253.211 505.436 253.611 505.436 254.113 505.535 254.517 505.631 254.816 505.631 255.115 505.535 255.317 505.336 255.62 505.038 255.717 504.744 255.818 504.351 256.02 504.052 256.218 503.758 256.522 503.46 256.821 503.265 257.124 503.066 257.524 502.83 258.164 502.656 258.358 502.192 258.358 502.076 258.358 501.944 258.345 501.786 258.328 501.588 258.278 501.389 258.253 501.182 258.253 500.97 258.253 500.751 258.278 500.502 258.328 500.109 258.425 499.811 258.627 499.516 258.926 499.218 259.129 499.024 259.23 498.725 259.331 498.431 259.23 498.133 259.129 497.938 258.926 497.545 258.627 497.246 258.425 496.853 258.328 496.654 258.328 496.459 258.227 496.161 258.227L495.569 258.227C495.469 258.278 495.324 258.303 495.175 258.303 495.026 258.303 494.881 258.278 494.782 258.227 494.484 258.025 494.388 257.823 494.289 257.524 493.991 256.724 493.398 256.122 492.611 255.818 492.313 255.717 492.118 255.519 491.919 255.317 491.82 255.018 491.82 254.715 491.919 254.416L491.919 253.915C491.919 253.712 491.82 253.413 491.82 253.211 491.725 252.811 491.526 252.508 491.228 252.209 490.735 251.809 490.735 250.903 491.228 250.503L491.327 250.604C491.526 250.204 491.725 249.901 491.919 249.501 491.919 249.101 491.919 248.6 491.919 248.195 491.82 247.896 491.82 247.593 491.919 247.395 492.118 247.092 492.313 246.995 492.611 246.894 493.005 246.692 493.303 246.49 493.597 246.191 493.891 245.892 494.09 245.588 494.289 245.188 494.388 244.885 494.484 244.586 494.782 244.384L495.569 244.384C495.817 244.434 496.037 244.46 496.248 244.46 496.459 244.46 496.654 244.434 496.853 244.384 497.246 244.287 497.545 244.085 497.938 243.883 498.133 243.584 498.431 243.482 498.725 243.381ZM485.95 256.345C486.915 256.345 487.876 256.972 487.976 258.227L487.976 259.23C488.071 260.733 487.011 261.487 485.95 261.487 484.89 261.487 483.829 260.733 483.929 259.23L483.929 258.227C484.028 256.972 484.989 256.345 485.95 256.345ZM486.037 252.348C487.574 252.348 489.173 252.904 490.639 254.214 490.54 254.816 490.54 255.519 490.834 256.122 491.132 256.522 491.625 256.922 492.118 257.124 492.313 257.124 492.512 257.225 492.611 257.322 492.905 258.025 493.005 258.83 493.005 259.63 493.005 261.234 492.412 262.94 491.327 264.246 490.934 262.839 489.948 261.736 488.763 261.036 489.061 260.434 489.256 259.832 489.256 259.23L489.256 258.227C489.405 255.869 487.678 254.69 485.95 254.69 484.227 254.69 482.5 255.869 482.649 258.227L482.649 259.23C482.649 259.832 482.844 260.434 483.142 261.036 481.858 261.736 480.971 262.839 480.574 264.246 476.22 258.96 480.747 252.348 486.037 252.348ZM487.876 262.039C489.156 262.641 490.047 263.841 490.242 265.248 489.011 266.25 487.479 266.752 485.95 266.752 484.422 266.752 482.893 266.25 481.659 265.248 481.854 263.862 482.815 262.675 484.07 262.064L484.07 262.064C484.645 262.447 485.23 262.641 485.901 262.641 486.592 262.641 487.284 262.439 487.876 262.039ZM478.502 269.46C477.616 269.46 476.924 270.163 476.924 270.963L476.924 272.269C476.924 273.069 477.616 273.772 478.407 273.772L482.056 273.772C482.081 273.777 482.106 273.777 482.131 273.777 482.819 273.777 482.819 272.463 482.131 272.463 482.106 272.463 482.081 272.467 482.056 272.467L478.407 272.467C478.308 272.467 478.208 272.37 478.208 272.269L478.208 270.963C478.208 270.862 478.308 270.765 478.407 270.765L493.398 270.765C493.498 270.765 493.597 270.862 493.696 270.963L493.696 272.269C493.696 272.37 493.498 272.467 493.398 272.467L485.114 272.467C484.322 272.568 484.322 273.671 485.114 273.772L493.398 273.772C494.289 273.772 494.976 273.069 494.976 272.269L494.976 270.963C494.976 270.163 494.289 269.46 493.398 269.46ZM504.744 257.524 504.744 275.175 503.46 275.175 503.46 259.331C503.858 259.028 504.251 258.627 504.45 258.126 504.45 257.924 504.645 257.726 504.744 257.524ZM490.639 247.193C490.639 247.593 490.639 247.997 490.639 248.499L486.398 248.499C486.348 248.486 486.307 248.482 486.265 248.482 485.652 248.482 485.652 249.72 486.265 249.72 486.307 249.72 486.348 249.711 486.398 249.703L490.341 249.703C489.948 250.204 489.749 250.705 489.649 251.405 489.649 251.607 489.649 251.809 489.749 252.007 488.51 251.354 487.222 251.055 485.967 251.055 481.626 251.055 477.695 254.631 477.616 259.529 477.616 264.145 481.365 267.956 486 267.956 490.639 267.956 494.289 264.145 494.289 259.432 494.649 259.575 495.063 259.668 495.453 259.668 495.594 259.668 495.735 259.659 495.867 259.63 495.966 259.579 496.087 259.554 496.223 259.554 496.36 259.554 496.509 259.579 496.654 259.63 496.853 259.731 497.048 259.832 497.246 260.03 497.739 260.333 498.232 260.531 498.825 260.632 499.417 260.531 499.91 260.333 500.304 260.03 500.502 259.832 500.701 259.731 500.995 259.63 501.144 259.579 501.314 259.554 501.501 259.554 501.687 259.554 501.882 259.579 502.081 259.63L502.081 275.078 490.54 275.078C489.749 275.078 489.061 275.777 489.061 276.582L489.061 277.786C489.061 277.883 488.962 277.984 488.862 277.984L483.042 277.984C482.943 277.984 482.844 277.883 482.844 277.786L482.844 276.582C482.844 275.777 482.156 275.078 481.265 275.078L469.725 275.078 469.725 249.703 483.336 249.703C483.378 249.711 483.415 249.72 483.452 249.72 483.991 249.72 483.991 248.482 483.452 248.482 483.415 248.482 483.378 248.486 483.336 248.499L469.725 248.499C469.033 248.499 468.441 249 468.441 249.703L468.441 275.175 467.161 275.175 467.161 249.101C467.161 247.997 468.047 247.193 469.132 247.193ZM506.422 276.48C506.521 276.48 506.616 276.582 506.616 276.683L506.616 279.791C506.616 280.894 505.73 281.795 504.744 281.795L467.161 281.795C466.075 281.694 465.284 280.894 465.284 279.791L465.284 276.683C465.284 276.582 465.384 276.48 465.483 276.48L481.265 276.48C481.464 276.48 481.564 276.582 481.564 276.683L481.564 277.883C481.564 278.788 482.156 279.488 483.042 279.488L488.862 279.488C489.649 279.488 490.341 278.788 490.341 277.883L490.341 276.683C490.341 276.582 490.441 276.48 490.54 276.48ZM498.837 242.004C498.282 242.004 497.739 242.227 497.346 242.682 497.147 242.88 496.853 242.981 496.654 243.082L495.867 243.082C495.706 243.053 495.556 243.04 495.411 243.04 495.01 243.04 494.649 243.137 494.289 243.28 493.796 243.584 493.398 244.085 493.303 244.586 493.204 244.885 493.005 245.087 492.905 245.289 492.611 245.487 492.313 245.689 492.019 245.79L469.132 245.79C467.355 245.79 465.976 247.294 465.976 249.101L465.976 275.175 465.483 275.175C464.692 275.175 464.004 275.777 464.004 276.683L464.004 279.69C464.004 281.496 465.483 283 467.26 283L504.744 283C506.521 283 508 281.496 508 279.69L508 276.683C508 275.777 507.308 275.175 506.521 275.175L506.028 275.175 506.028 256.724C506.322 256.522 506.521 256.319 506.716 256.02 506.915 255.519 507.014 254.917 506.915 254.416 506.915 254.113 506.915 253.814 506.915 253.611 507.014 253.312 507.114 253.11 507.308 252.912 507.702 252.508 507.901 251.906 507.901 251.405 507.901 250.802 507.702 250.204 507.308 249.8 507.114 249.602 507.014 249.4 506.915 249.101 506.915 248.899 506.915 248.6 506.915 248.397 507.209 247.193 506.521 245.988 505.436 245.689 504.844 245.588 504.45 245.188 504.351 244.586 504.152 244.085 503.858 243.584 503.46 243.28 503.029 243.137 502.648 243.04 502.242 243.04 502.093 243.04 501.944 243.053 501.786 243.082L500.995 243.082C500.796 242.981 500.602 242.88 500.403 242.682 499.96 242.227 499.392 242.004 498.837 242.004Z" fill="#005A35" fill-rule="evenodd"/></g></svg>