<svg width="33" height="39" xmlns="http://www.w3.org/2000/svg" xmlns:xlink="http://www.w3.org/1999/xlink" overflow="hidden"><defs><clipPath id="clip0"><rect x="767" y="139" width="33" height="39"/></clipPath></defs><g clip-path="url(#clip0)" transform="translate(-767 -139)"><path d="M779.437 146 774.001 151.446 774.001 153 781 153 781 146Z" fill="#D8ECFE" fill-rule="evenodd"/><path d="M779.471 146.002 774.001 151.163 774.001 177 799 177 799 146.002Z" fill="#FFFFFF" fill-rule="evenodd"/><path d="M779.437 146 774.001 151.446 774.001 153 781 153 781 146Z" fill="#E4ECF2" fill-rule="evenodd"/><path d="M797 146.002 797 177 799 177 799 146.002Z" fill="#E4ECF2" fill-rule="evenodd"/><path d="M784.083 165.002 784.083 166.471 780.769 166.471 779.001 169.529 784.083 169.529 784.083 171 787 168.007 784.083 165.002Z" fill="#6880EA" fill-rule="evenodd"/><path d="M779.481 162 777 166.203 778.743 169 782 163.505 779.481 162Z" fill="#7E92FF" fill-rule="evenodd"/><path d="M790.559 160.002 789.39 163.917 790.68 163.202 792.399 166.016 789.001 166.016 789.001 168.998 794.199 168.998 796 166.016 793.394 161.716 794.71 160.987 790.559 160.002Z" fill="#6880EA" fill-rule="evenodd"/><path d="M789.001 166 789.001 168.998 794.199 168.998 796 166Z" fill="#7E92FF" fill-rule="evenodd"/><path d="M784.897 153.003 782.286 157.583 781.001 156.814 782.164 161 786.318 159.93 785.006 159.16 786.711 156.17 788.293 158.968 790.999 157.378 788.51 153.003Z" fill="#6880EA" fill-rule="evenodd"/><path d="M785 153.003 788.339 158.997 790.999 157.399 788.552 153.003Z" fill="#7E92FF" fill-rule="evenodd"/><path d="M768 140 768 170.998 771.144 170.998 771.144 142.974 792.999 142.974 792.999 140Z" fill="#E4ECF2" fill-rule="evenodd"/><path d="M771 143.002 771 173.998 774.075 173.998 774.075 151.127 779.559 145.966 795.999 145.966 795.999 143.002Z" fill="#E4ECF2" fill-rule="evenodd"/><path d="M779 146.002 774 151 779 151 779 146.002Z" fill="#BFCCD6" fill-rule="evenodd"/><path d="M779.41 162.35 781.069 163.358 778.428 167.865 777.287 166.006 779.41 162.35ZM784.068 165.835 785.646 167.448 784.068 169.071 784.068 168.98 784.054 168.863 784.014 168.756 783.961 168.667 783.895 168.587 783.815 168.52 783.723 168.468 783.616 168.431 783.497 168.416 779.344 168.416 780.472 166.49 783.497 166.49 783.616 166.478 783.723 166.45 783.815 166.398 783.895 166.319 783.961 166.242 784.014 166.15 784.054 166.046 784.068 165.927 784.068 165.835ZM779.132 161 779.026 161.027 778.932 161.052 778.84 161.104 778.76 161.184 778.681 161.288 776.08 165.731 776.04 165.795 776.027 165.875 776.014 165.939 776.001 166.019 776.014 166.083 776.027 166.163 776.054 166.23 776.093 166.307 777.911 169.268 777.951 169.335 778.004 169.387 778.057 169.426 778.123 169.466 778.19 169.491 778.256 169.518 778.322 169.531 778.402 169.543 782.926 169.543 782.926 170.434 782.939 170.526 782.953 170.605 782.992 170.685 783.032 170.749 783.086 170.814 783.139 170.881 783.205 170.921 783.284 170.958 783.364 170.985 783.444 170.998 783.523 170.998 783.603 170.985 783.682 170.973 783.762 170.933 783.829 170.893 783.908 170.829 786.841 167.84 786.907 167.761 786.96 167.657 786.986 167.552 786.999 167.448 786.986 167.342 786.96 167.25 786.907 167.145 786.841 167.066 783.908 164.08 783.829 164.001 783.736 163.949 783.629 163.921 783.537 163.909 783.431 163.909 783.324 163.936 783.218 163.973 783.125 164.04 783.046 164.132 782.979 164.237 782.939 164.356 782.926 164.485 782.926 165.376 781.162 165.376 782.302 163.425 782.342 163.333 782.369 163.229 782.369 163.11 782.356 163.005 782.316 162.914 782.263 162.822 782.197 162.742 782.104 162.678 779.463 161.079 779.357 161.04 779.238 161.012 779.132 161Z" fill="#5D5D6D" fill-rule="evenodd"/><path d="M791.442 161.221 793.62 161.74 793.528 161.79 793.436 161.843 793.33 161.917 793.29 161.968 793.264 162.033 793.237 162.095 793.224 162.16 793.224 162.247 793.237 162.323 793.277 162.424 793.33 162.528 795.403 165.963 793.172 165.963 791.667 163.453 791.587 163.352 791.495 163.287 791.39 163.236 791.284 163.212 791.165 163.198 791.06 163.212 790.941 163.251 790.835 163.287 791.442 161.221ZM795.482 167.042 794.359 168.907 790.136 168.907 790.136 167.042ZM791.02 160.002 790.914 160.029 790.822 160.065 790.73 160.13 790.65 160.204 790.597 160.293 790.558 160.396 789.41 164.265 789.383 164.378 789.383 164.467 789.383 164.555 789.41 164.644 789.436 164.721 789.476 164.784 789.528 164.834 789.581 164.887 789.647 164.923 789.713 164.95 789.792 164.976 789.964 164.976 790.043 164.962 790.136 164.923 790.241 164.887 791.02 164.455 791.917 165.963 789.568 165.963 789.462 165.978 789.356 166.002 789.251 166.052 789.172 166.117 789.106 166.206 789.053 166.295 789.013 166.396 789 166.497 789 169.452 789.013 169.568 789.053 169.668 789.106 169.757 789.172 169.834 789.251 169.897 789.343 169.947 789.449 169.986 789.568 169.998 794.663 169.998 794.743 169.986 794.822 169.974 794.888 169.947 794.953 169.923 795.006 169.885 795.073 169.834 795.112 169.784 795.152 169.719 796.934 166.776 796.96 166.713 796.986 166.648 796.999 166.574 796.999 166.497 796.999 166.434 796.986 166.358 796.96 166.295 796.934 166.23 794.65 162.439 795.442 161.994 795.534 161.929 795.6 161.867 795.666 161.79 795.706 161.716 795.746 161.651 795.759 161.576 795.772 161.499 795.772 161.422 795.746 161.348 795.719 161.283 795.679 161.221 795.627 161.156 795.561 161.105 795.495 161.067 795.403 161.031 795.297 161.004 791.231 160.014 791.126 160.002Z" fill="#5D5D6D" fill-rule="evenodd"/><path d="M787.632 154.032 789.65 157.143 787.966 158.029 785.386 154.032ZM784.397 154.522 785.52 156.27 784.01 158.617 783.97 158.676 783.956 158.735 783.93 158.844 783.943 158.939 783.983 159.048 784.036 159.132 784.116 159.227 784.197 159.299 784.29 159.358 782.098 159.862 781.471 157.898 781.564 157.934 781.657 157.971 781.778 157.982 781.911 157.982 781.992 157.971 782.058 157.957 782.125 157.921 782.192 157.873 782.259 157.825 782.312 157.742 784.397 154.522ZM784.397 153.002 784.317 153.014 784.25 153.025 784.184 153.05 784.116 153.073 784.05 153.109 783.996 153.156 783.943 153.204 783.903 153.265 781.617 156.807 780.829 156.401 780.628 156.365 780.455 156.365 780.374 156.376 780.307 156.39 780.254 156.413 780.187 156.449 780.147 156.485 780.107 156.533 780.067 156.592 780.04 156.653 780.013 156.723 780 156.807 780 156.989 781.15 160.628 781.216 160.735 781.297 160.819 781.377 160.891 781.457 160.939 781.537 160.975 781.631 160.998 781.737 160.998 781.831 160.986 785.935 160.052 786.108 159.957 786.175 159.909 786.229 159.862 786.282 159.8 786.322 159.753 786.349 159.694 786.362 159.633 786.362 159.574 786.349 159.515 786.335 159.454 786.309 159.395 786.269 159.322 786.215 159.263 786.081 159.118 785.28 158.712 786.189 157.299 787.258 158.975 787.338 159.059 787.418 159.132 787.511 159.179 787.605 159.215 787.712 159.227 787.819 159.227 787.926 159.202 788.033 159.166 790.706 157.778 790.799 157.719 790.879 157.646 790.933 157.562 790.973 157.467 791 157.372 790.987 157.274 790.973 157.179 790.919 157.084 788.46 153.265 788.42 153.204 788.367 153.156 788.314 153.109 788.247 153.073 788.18 153.05 788.113 153.025 788.046 153.014 787.966 153.002Z" fill="#5D5D6D" fill-rule="evenodd"/><path d="M778.55 147.792 778.55 151.06 775.123 151.06 778.55 147.792ZM791.641 141.047 791.641 142.981 770.563 142.981 770.454 143.021 770.359 143.073 770.263 143.137 770.195 143.216 770.14 143.308 770.113 143.412 770.099 143.531 770.099 146.876 770.113 146.994 770.154 147.111 770.222 147.217 770.318 147.294 770.413 147.361 770.536 147.413 770.673 147.425 770.809 147.413 770.905 147.386 770.987 147.334 771.068 147.282 771.137 147.202 771.191 147.126 771.232 147.046 771.246 146.955 771.26 146.851 771.26 144.093 794.74 144.093 794.74 145.87 779.164 145.87 779.055 145.883 778.946 145.91 778.836 145.962 778.754 146.026 773.362 151.137 773.293 151.216 773.239 151.32 773.212 151.426 773.198 151.53 773.198 173.907 771.26 173.907 771.26 149.267 771.246 149.139 771.205 149.02 771.137 148.916 771.041 148.836 770.946 148.772 770.822 148.732 770.686 148.705 770.55 148.72 770.454 148.745 770.372 148.797 770.29 148.849 770.222 148.928 770.167 149.007 770.126 149.087 770.113 149.191 770.099 149.282 770.099 170.941 768.161 170.941 768.161 141.047ZM767.574 140 767.465 140.015 767.355 140.052 767.26 140.104 767.164 140.171 767.096 140.25 767.041 140.342 767.014 140.446 767 140.562 767 171.503 767.014 171.62 767.041 171.726 767.096 171.818 767.164 171.894 767.26 171.961 767.355 172.013 767.465 172.053 770.099 172.053 770.099 174.469 770.113 174.588 770.14 174.692 770.195 174.784 770.263 174.863 770.359 174.927 770.454 174.979 770.563 175.019 770.673 175.031 773.198 175.031 773.198 177.438 773.212 177.554 773.239 177.661 773.293 177.752 773.362 177.829 773.457 177.896 773.553 177.948 773.662 177.988 773.771 178 778.7 178 778.836 177.973 778.946 177.933 779.055 177.869 779.15 177.79 779.219 177.686 779.26 177.569 779.273 177.45 779.26 177.319 779.232 177.215 779.191 177.136 779.123 177.059 779.055 177.007 778.973 176.955 778.877 176.916 778.781 176.888 778.686 176.876 774.359 176.876 774.359 152.171 779.205 152.171 779.328 152.157 779.437 152.132 779.533 152.08 779.615 152.013 779.683 151.934 779.737 151.83 779.778 151.738 779.778 151.622 779.778 146.982 797.839 146.982 797.839 152.431 797.853 152.55 797.894 152.667 797.962 152.771 798.058 152.862 798.153 152.929 798.276 152.969 798.413 152.981 798.549 152.969 798.645 152.941 798.727 152.902 798.809 152.838 798.877 152.771 798.932 152.694 798.973 152.602 798.986 152.511 799 152.407 799 146.42 798.986 146.314 798.959 146.21 798.904 146.118 798.836 146.026 798.74 145.962 798.645 145.91 798.535 145.883 798.426 145.87 795.901 145.87 795.901 143.531 795.887 143.412 795.86 143.308 795.806 143.216 795.737 143.137 795.641 143.073 795.546 143.021 795.437 142.981 792.802 142.981 792.802 140.562 792.788 140.446 792.761 140.342 792.707 140.25 792.638 140.171 792.543 140.104 792.447 140.052 792.338 140.015 792.229 140Z" fill="#5D5D6D" fill-rule="evenodd"/><path d="M798.441 154.002 798.309 154.015 798.215 154.055 798.136 154.095 798.056 154.159 797.99 154.224 797.937 154.304 797.896 154.396 797.883 154.488 797.87 154.58 797.87 176.869 781.585 176.869 781.492 176.882 781.399 176.909 781.306 176.949 781.226 177.001 781.16 177.054 781.093 177.131 781.054 177.21 781.013 177.315 781 177.447 781.027 177.567 781.067 177.684 781.133 177.788 781.226 177.868 781.319 177.933 781.439 177.973 781.572 178 798.441 178 798.548 177.988 798.654 177.948 798.747 177.895 798.84 177.828 798.907 177.751 798.96 177.659 798.987 177.552 799 177.435 799 154.568 798.987 154.436 798.947 154.316 798.88 154.224 798.787 154.134 798.694 154.067 798.574 154.027 798.441 154.002Z" fill="#5D5D6D" fill-rule="evenodd"/></g></svg>