<svg width="85" height="63" xmlns="http://www.w3.org/2000/svg" xmlns:xlink="http://www.w3.org/1999/xlink" overflow="hidden"><defs><clipPath id="clip0"><rect x="88" y="78" width="85" height="63"/></clipPath></defs><g clip-path="url(#clip0)" transform="translate(-88 -78)"><path d="M118.51 102.004 100.001 117.854 100.001 140 136.999 140 136.999 117.854 118.51 102.004Z" fill="#7E92FF" fill-rule="evenodd"/><path d="M118.466 102.004 115.001 104.977 130.047 117.854 130.047 140 136.999 140 136.999 117.854 118.466 102.004Z" fill="#6880EA" fill-rule="evenodd"/><path d="M118.49 94 118.147 94.0216 117.803 94.0575 117.48 94.1329 117.157 94.2299 116.833 94.3628 116.51 94.5317 116.227 94.7041 115.944 94.9305 91.2532 115.738 90.9909 115.983 90.748 116.248 90.5463 116.554 90.3639 116.856 90.2227 117.179 90.1017 117.502 90.0412 117.861 90.0008 118.203 90.0008 118.562 90.021 118.925 90.1017 119.266 90.2025 119.589 90.3438 119.909 90.5261 120.232 90.7279 120.516 90.9707 120.8 91.2532 121.066 91.5566 121.314 91.8995 121.504 92.2433 121.673 92.6274 121.806 93.0115 121.903 93.3948 121.978 93.7991 121.996 94.163 121.978 94.506 121.921 94.8497 121.863 95.1733 121.749 95.4961 121.616 95.7995 121.465 96.0827 121.274 96.3652 121.066 118.49 102.424 140.635 121.066 140.938 121.296 141.242 121.504 141.585 121.655 141.928 121.788 142.292 121.881 142.655 121.96 143.019 121.978 143.383 121.978 143.747 121.939 144.11 121.881 144.454 121.788 144.798 121.655 145.141 121.486 145.444 121.296 145.747 121.066 146.03 120.8 146.252 120.516 146.475 120.232 146.636 119.909 146.777 119.589 146.899 119.266 146.96 118.925 147 118.562 147 118.203 146.96 117.861 146.879 117.502 146.777 117.179 146.636 116.856 146.454 116.554 146.232 116.248 146.01 115.983 145.727 115.738 121.056 94.9305 120.774 94.7041 120.47 94.5317 120.168 94.3628 119.844 94.2299 119.5 94.1329 119.177 94.0575 118.834 94.0216 118.49 94Z" fill="#E4ECF2" fill-rule="evenodd"/><path d="M118.496 94.0036 118.156 94.0611 117.837 94.115 117.518 94.2301 117.198 94.3631 116.878 94.5141 116.599 94.7046 116.32 94.9131 116.001 95.1791 140.073 115.734 140.353 115.979 140.592 116.266 140.792 116.55 140.972 116.852 141.111 117.176 141.211 117.517 141.291 117.859 141.331 118.218 141.331 118.56 141.291 118.923 141.232 119.264 141.131 119.588 140.992 119.908 140.812 120.231 140.612 120.515 140.373 120.799 140.712 121.087 141.012 121.313 141.311 121.504 141.65 121.673 141.99 121.806 142.349 121.903 142.708 121.96 143.068 121.996 143.427 121.996 143.787 121.96 144.145 121.881 144.485 121.788 144.824 121.655 145.163 121.486 145.463 121.295 145.762 121.065 146.042 120.799 146.261 120.537 146.481 120.231 146.64 119.929 146.78 119.606 146.9 119.264 146.96 118.923 147 118.581 147 118.218 146.96 117.859 146.88 117.517 146.78 117.176 146.64 116.852 146.461 116.55 146.241 116.266 146.022 115.979 145.742 115.734 121.35 94.9131 121.091 94.7046 120.791 94.5141 120.492 94.3631 120.172 94.2301 119.833 94.115 119.514 94.0611 119.174 94.0036Z" fill="#BFCCD6" fill-rule="evenodd"/><path d="M108.264 123.003 107.944 123.038 107.793 123.076 107.642 123.111 107.51 123.166 107.397 123.221 107.302 123.294 107.227 123.366 107.151 123.46 107.095 123.55 107.038 123.66 107.02 123.788 107.001 123.912 107.001 124.061 107.038 124.479 107.095 124.88 107.17 125.264 107.264 125.665 107.378 126.031 107.491 126.415 107.623 126.778 107.793 127.144 107.963 127.49 108.132 127.839 108.34 128.167 108.548 128.475 108.774 128.786 109.019 129.079 109.265 129.37 109.529 129.643 109.812 129.916 110.094 130.154 110.397 130.393 110.699 130.611 111.038 130.811 111.359 131.012 111.699 131.195 112.057 131.34 112.415 131.488 112.793 131.613 113.17 131.723 113.566 131.817 113.962 131.889 114.377 131.941 114.792 131.979 115.208 131.997 115.471 131.997 115.736 131.962 116 131.907 116.113 131.869 116.226 131.817 116.32 131.762 116.433 131.689 116.528 131.596 116.604 131.488 116.679 131.378 116.754 131.25 116.811 131.105 116.849 130.922 116.943 130.538 116.981 130.137 117 129.753 116.981 129.37 116.943 128.986 116.867 128.603 116.773 128.24 116.641 127.891 116.491 127.545 116.32 127.199 116.132 126.871 115.905 126.543 115.66 126.232 115.415 125.921 115.132 125.647 114.83 125.357 114.529 125.101 114.208 124.846 113.868 124.607 113.509 124.389 113.151 124.168 112.774 123.968 112.377 123.805 112 123.639 111.585 123.494 111.189 123.366 110.774 123.256 110.34 123.166 109.925 123.093 109.51 123.038 109.076 123.003Z" fill="#FE7D56" fill-rule="evenodd"/><path d="M107.886 123.003 107.552 123.038 107.394 123.076 107.237 123.111 107.119 123.166 107.001 123.221 107.355 123.311 107.729 123.404 108.083 123.512 108.457 123.639 108.792 123.788 109.146 123.933 109.481 124.096 109.815 124.279 110.13 124.462 110.445 124.645 110.74 124.863 111.036 125.063 111.311 125.302 111.587 125.537 111.842 125.775 112.079 126.031 112.295 126.287 112.512 126.56 112.709 126.833 112.886 127.106 113.044 127.4 113.201 127.69 113.319 128.001 113.417 128.312 113.516 128.623 113.575 128.931 113.614 129.259 113.634 129.588 113.634 129.916 113.614 130.244 113.575 130.593 113.496 130.922 113.417 131.195 113.299 131.412 113.161 131.578 113.004 131.723 113.516 131.834 114.047 131.924 114.579 131.979 115.13 131.997 115.405 131.997 115.681 131.962 115.957 131.907 116.075 131.869 116.193 131.817 116.291 131.762 116.409 131.689 116.508 131.596 116.587 131.488 116.665 131.378 116.744 131.25 116.803 131.105 116.842 130.922 116.941 130.538 116.98 130.137 117 129.753 116.98 129.37 116.941 128.986 116.862 128.603 116.763 128.24 116.626 127.891 116.469 127.545 116.291 127.199 116.094 126.871 115.858 126.543 115.602 126.232 115.346 125.921 115.051 125.647 114.736 125.357 114.422 125.101 114.087 124.846 113.732 124.607 113.358 124.389 112.985 124.168 112.591 123.968 112.177 123.805 111.764 123.639 111.35 123.494 110.938 123.366 110.504 123.256 110.052 123.166 109.619 123.093 109.185 123.038 108.733 123.003Z" fill="#F46545" fill-rule="evenodd"/><path d="M128.694 120.004 128.102 120.022 127.489 120.063 126.897 120.14 126.305 120.236 125.734 120.353 125.142 120.49 124.571 120.663 124.022 120.858 123.472 121.071 122.922 121.326 122.393 121.58 121.886 121.848 121.399 122.161 120.913 122.471 120.469 122.802 120.024 123.152 119.623 123.52 119.221 123.91 118.861 124.319 118.524 124.728 118.227 125.155 117.952 125.6 117.698 126.068 117.487 126.536 117.318 127 117.191 127.486 117.085 127.994 117.022 128.48 117.001 129.003 117.022 129.511 117.085 130.034 117.191 130.579 117.275 130.792 117.339 131.006 117.444 131.183 117.551 131.337 117.677 131.473 117.804 131.588 117.931 131.687 118.079 131.764 118.248 131.823 118.417 131.882 118.587 131.919 118.756 131.96 119.137 131.996 119.517 131.996 120.109 131.978 120.681 131.919 121.251 131.86 121.801 131.764 122.351 131.628 122.88 131.492 123.408 131.319 123.916 131.124 124.424 130.91 124.888 130.674 125.353 130.424 125.819 130.152 126.242 129.861 126.665 129.548 127.087 129.216 127.468 128.867 127.828 128.498 128.188 128.13 128.525 127.721 128.843 127.313 129.139 126.886 129.414 126.436 129.667 125.991 129.9 125.523 130.133 125.059 130.324 124.573 130.492 124.065 130.64 123.561 130.767 123.034 130.873 122.511 130.937 121.966 131 121.443 131 121.226 130.979 121.053 130.958 120.898 130.894 120.74 130.809 120.626 130.704 120.508 130.577 120.39 130.45 120.313 130.28 120.236 130.112 120.158 129.9 120.122 129.688 120.081 129.477 120.041 129.223 120.022 128.694 120.004Z" fill="#FE7D56" fill-rule="evenodd"/><path d="M128.673 120.004 128.139 120.022 127.584 120.063 127.051 120.122 126.517 120.177 126.731 120.276 126.901 120.372 127.051 120.49 127.179 120.644 127.286 120.799 127.328 120.994 127.371 121.189 127.371 121.443 127.307 121.907 127.243 122.375 127.158 122.843 127.073 123.307 126.944 123.756 126.795 124.201 126.646 124.651 126.474 125.078 126.282 125.486 126.069 125.895 125.855 126.3 125.621 126.69 125.364 127.081 125.087 127.449 124.809 127.799 124.511 128.149 124.191 128.48 123.85 128.808 123.508 129.121 123.166 129.411 122.804 129.702 122.419 129.975 122.013 130.229 121.629 130.461 121.203 130.674 120.776 130.888 120.349 131.083 119.9 131.26 119.43 131.415 118.962 131.551 118.492 131.669 118.001 131.783 118.15 131.842 118.321 131.901 118.662 131.96 119.026 131.996 119.409 131.996 120.007 131.978 120.584 131.937 121.16 131.86 121.715 131.764 122.27 131.628 122.804 131.492 123.337 131.319 123.85 131.124 124.362 130.928 124.831 130.674 125.3 130.424 125.77 130.152 126.219 129.861 126.624 129.548 127.051 129.216 127.435 128.867 127.798 128.498 128.161 128.13 128.502 127.721 128.823 127.313 129.121 126.886 129.399 126.436 129.655 125.991 129.89 125.523 130.125 125.059 130.317 124.573 130.488 124.065 130.637 123.561 130.765 123.034 130.872 122.511 130.936 121.966 131 121.443 131 121.226 130.979 121.053 130.957 120.898 130.893 120.74 130.807 120.626 130.701 120.508 130.573 120.39 130.445 120.313 130.274 120.236 130.103 120.158 129.89 120.122 129.676 120.081 129.463 120.041 129.206 120.022 128.673 120.004Z" fill="#F46545" fill-rule="evenodd"/><path d="M108.2 123.949 108.687 123.971 109.175 124.008 109.662 124.085 110.13 124.184 110.617 124.297 111.085 124.432 111.552 124.608 111.999 124.802 112.446 125.015 112.872 125.245 113.279 125.498 113.665 125.769 114.051 126.058 114.396 126.366 114.721 126.695 115.026 127.025 115.229 127.255 115.392 127.508 115.555 127.757 115.697 128.01 115.818 128.262 115.94 128.533 116.042 128.8 116.123 129.071 116.205 129.364 116.245 129.632 116.286 129.924 116.306 130.195 116.306 130.485 116.286 130.774 116.245 131.063 116.184 131.352 116.144 131.47 116.103 131.587 116.063 131.664 115.981 131.741 115.859 131.777 115.717 131.817 115.513 131.836 114.863 131.836 114.457 131.799 114.072 131.741 113.706 131.682 113.319 131.587 112.953 131.488 112.588 131.374 112.243 131.239 111.897 131.103 111.572 130.928 111.247 130.756 110.943 130.562 110.638 130.349 110.333 130.137 110.049 129.884 109.784 129.654 109.521 129.383 109.276 129.112 109.033 128.822 108.809 128.533 108.606 128.222 108.403 127.914 108.22 127.567 108.058 127.237 107.916 126.889 107.773 126.519 107.651 126.153 107.55 125.787 107.448 125.399 107.367 125.015 107.327 124.608 107.285 124.202 107.285 124.162 107.306 124.125 107.387 124.066 107.509 124.008 107.651 123.989 107.976 123.949ZM128.78 121.573 129.024 121.591 129.247 121.61 129.45 121.668 129.553 121.727 129.634 121.767 129.695 121.844 129.735 121.921 129.755 121.998 129.776 122.115 129.715 122.616 129.654 123.14 129.553 123.623 129.43 124.125 129.308 124.608 129.146 125.07 128.964 125.516 128.78 125.959 128.557 126.406 128.333 126.812 128.069 127.219 127.805 127.622 127.521 127.991 127.216 128.357 126.912 128.705 126.566 129.035 126.22 129.364 125.875 129.654 125.489 129.943 125.103 130.195 124.696 130.444 124.29 130.679 123.864 130.891 123.417 131.081 122.97 131.239 122.523 131.393 122.055 131.528 121.568 131.645 121.08 131.722 120.593 131.777 120.085 131.817 119.577 131.836 119.232 131.836 118.967 131.817 118.744 131.759 118.581 131.682 118.439 131.565 118.338 131.429 118.277 131.276 118.216 131.063 118.135 130.697 118.093 130.331 118.053 129.961 118.053 129.595 118.073 129.229 118.114 128.859 118.196 128.493 118.277 128.127 118.378 127.779 118.52 127.431 118.663 127.083 118.846 126.754 119.028 126.424 119.232 126.117 119.455 125.805 119.679 125.498 120.085 125.051 120.491 124.645 120.938 124.238 121.426 123.872 121.934 123.524 122.442 123.217 122.99 122.906 123.559 122.635 124.128 122.404 124.717 122.192 125.326 121.998 125.936 121.844 126.546 121.727 127.175 121.65 127.785 121.591 128.414 121.573ZM118.52 93.0037 118.093 93.022 117.668 93.0806 117.261 93.1574 116.855 93.2929 116.468 93.4467 116.083 93.659 115.717 93.8934 115.371 94.1606 105.803 102.34 105.68 102.454 105.599 102.589 105.538 102.746 105.518 102.9 105.518 103.054 105.559 103.208 105.64 103.365 105.741 103.501 105.864 103.614 106.006 103.691 106.168 103.75 106.331 103.768 106.493 103.75 106.656 103.731 106.819 103.654 106.961 103.556 116.529 95.3799 116.753 95.2078 116.976 95.0503 117.22 94.9368 117.464 94.838 117.728 94.7611 117.992 94.7025 118.257 94.6659 118.52 94.6439 118.785 94.6659 119.048 94.7025 119.313 94.7611 119.556 94.838 119.821 94.9368 120.044 95.0503 120.288 95.2078 120.511 95.3799 145.318 116.586 145.521 116.817 145.724 117.048 145.886 117.3 146.029 117.553 146.131 117.784 146.212 118.036 146.273 118.285 146.293 118.538 146.293 118.79 146.273 119.039 146.212 119.292 146.131 119.545 146.029 119.794 145.886 120.065 145.724 120.317 145.542 120.566 145.277 120.778 145.034 120.973 144.769 121.126 144.526 121.243 144.261 121.361 143.997 121.438 143.753 121.474 143.49 121.514 143.225 121.514 142.961 121.474 142.697 121.438 142.413 121.361 142.148 121.262 141.885 121.126 141.6 120.973 141.336 120.8 119.089 101.758 118.967 101.681 118.825 101.604 118.663 101.568 118.52 101.546 118.358 101.568 118.216 101.604 118.073 101.681 117.931 101.758 95.6849 120.8 95.4618 120.973 95.2176 121.126 94.9539 121.262 94.6894 121.361 94.4046 121.438 94.1206 121.496 93.8358 121.514 93.5518 121.514 93.267 121.474 93.0033 121.438 92.7185 121.361 92.4548 121.243 92.1903 121.126 91.9469 120.973 91.7027 120.778 91.4998 120.566 91.2962 120.317 91.1339 120.065 91.0122 119.794 90.8905 119.545 90.8086 119.292 90.768 119.039 90.7274 118.79 90.7274 118.538 90.768 118.285 90.8086 118.036 90.9108 117.784 91.0122 117.553 91.1542 117.3 91.3165 117.048 91.4998 116.817 91.723 116.586 103.182 106.785 103.304 106.649 103.385 106.514 103.446 106.36 103.466 106.206 103.466 106.049 103.425 105.895 103.365 105.741 103.263 105.606 103.12 105.511 102.978 105.412 102.816 105.375 102.653 105.335 102.491 105.353 102.328 105.394 102.166 105.452 102.023 105.547 90.5651 115.349 90.4029 115.484 90.2398 115.601 90.0978 115.755 89.9558 115.909 89.8341 116.063 89.7116 116.216 89.4884 116.586 89.3059 116.971 89.1631 117.377 89.0819 117.802 89.0211 118.23 89.0008 118.673 89.0211 119.116 89.1022 119.581 89.2239 120.028 89.3059 120.24 89.387 120.453 89.5087 120.665 89.6102 120.877 89.7521 121.09 89.895 121.284 90.0369 121.474 90.1992 121.668 90.3623 121.844 90.5449 121.998 90.7071 122.133 90.8905 122.269 91.2759 122.521 91.6824 122.712 92.1092 122.887 92.5563 123.005 93.0033 123.081 93.4504 123.14 93.9177 123.14 94.364 123.1 94.8111 123.023 95.2581 122.887 95.6849 122.734 96.0914 122.54 96.4768 122.287 96.6602 122.151 96.8428 122.016 99.1998 120.006 99.1998 140.169 99.2201 140.341 99.2607 140.498 99.3418 140.634 99.4432 140.747 99.586 140.846 99.728 140.923 99.8903 140.982 100.073 141 124.433 141 124.615 140.982 124.798 140.923 124.941 140.824 125.083 140.711 125.184 140.575 125.265 140.418 125.306 140.246 125.286 140.07 125.265 139.916 125.204 139.781 125.103 139.645 125.002 139.55 124.86 139.451 124.717 139.396 124.575 139.356 124.412 139.338 117.992 139.338 117.992 133.249 118.378 133.308 118.765 133.344 119.15 133.384 119.536 133.403 120.268 133.403 120.633 133.384 120.979 133.362 121.345 133.308 121.69 133.267 122.361 133.113 123.031 132.938 123.66 132.725 124.27 132.495 124.86 132.205 125.428 131.913 125.957 131.587 126.464 131.239 126.932 130.891 127.378 130.503 127.805 130.115 128.191 129.73 128.557 129.306 128.902 128.881 129.227 128.434 129.532 127.991 129.837 127.508 130.101 127.025 130.324 126.519 130.548 126.018 130.751 125.498 130.934 124.974 131.076 124.432 131.198 123.891 131.299 123.33 131.381 122.77 131.441 122.21 131.441 121.881 131.401 121.591 131.34 121.342 131.218 121.108 131.076 120.896 130.913 120.702 130.71 120.53 130.486 120.394 130.263 120.277 130 120.16 129.735 120.083 129.471 120.028 129.187 119.969 128.902 119.929 128.638 119.911 128.353 119.911 127.927 119.929 127.501 119.947 127.054 119.988 126.627 120.028 126.18 120.105 125.753 120.182 125.306 120.277 124.88 120.394 124.453 120.511 124.026 120.643 123.6 120.8 123.173 120.973 122.767 121.148 122.361 121.342 121.954 121.533 121.568 121.745 121.182 121.979 120.796 122.21 120.43 122.463 120.085 122.734 119.74 123.005 119.414 123.294 119.089 123.583 118.785 123.891 118.48 124.22 118.216 124.55 117.952 124.879 117.708 125.227 117.464 125.593 117.261 125.959 117.057 126.347 116.875 126.735 116.713 126.483 116.529 126.23 116.123 125.747 115.697 125.304 115.229 124.879 114.742 124.491 114.214 124.125 113.665 123.795 113.096 123.488 112.507 123.217 111.897 122.983 111.288 122.77 110.658 122.616 110.028 122.481 109.399 122.386 108.768 122.327 108.159 122.309 107.611 122.309 107.327 122.346 107.021 122.404 106.737 122.481 106.453 122.598 106.331 122.675 106.208 122.752 106.087 122.847 105.965 122.946 105.884 123.041 105.782 123.158 105.701 123.312 105.64 123.466 105.579 123.642 105.518 123.836 105.498 124.066 105.518 124.319 105.559 124.762 105.619 125.227 105.701 125.67 105.803 126.117 105.924 126.56 106.066 126.984 106.229 127.409 106.412 127.816 106.615 128.222 106.819 128.628 107.062 128.995 107.306 129.383 107.57 129.73 107.855 130.078 108.159 130.426 108.464 130.734 108.809 131.045 109.175 131.352 109.581 131.645 110.008 131.935 110.455 132.205 110.923 132.454 111.43 132.689 111.938 132.879 112.446 133.073 112.995 133.209 113.523 133.344 114.072 133.421 114.62 133.461 115.168 133.48 115.717 133.443 116.001 133.403 116.265 133.362 116.265 139.338 100.926 139.338 100.926 118.538 118.52 103.501 136.094 118.538 136.094 139.338 128.211 139.338 128.009 139.356 127.845 139.415 127.683 139.51 127.561 139.627 127.46 139.762 127.378 139.916 127.338 140.092 127.338 140.264 127.378 140.418 127.44 140.553 127.541 140.689 127.643 140.788 127.764 140.865 127.927 140.941 128.069 140.982 128.232 141 136.968 141 137.13 140.982 137.293 140.923 137.455 140.846 137.577 140.747 137.678 140.634 137.76 140.498 137.821 140.341 137.821 140.169 137.821 120.006 140.178 122.016 140.361 122.173 140.543 122.309 140.95 122.54 141.356 122.752 141.782 122.906 142.229 123.023 142.677 123.1 143.124 123.14 143.571 123.14 144.018 123.1 144.465 123.005 144.911 122.887 145.338 122.734 145.744 122.521 146.131 122.269 146.497 121.998 146.659 121.844 146.821 121.668 146.984 121.496 147.126 121.32 147.37 120.954 147.594 120.548 147.756 120.141 147.877 119.735 147.959 119.31 147.999 118.867 147.999 118.443 147.959 118.014 147.877 117.589 147.735 117.183 147.573 116.78 147.349 116.392 147.106 116.026 146.801 115.678 146.639 115.503 146.476 115.349 121.649 94.1606 121.304 93.8934 120.938 93.659 120.572 93.4467 120.166 93.2929 119.76 93.1574 119.354 93.0806 118.927 93.022 118.52 93.0037Z" fill="#5D5D6D" fill-rule="evenodd"/><path d="M147.5 93.003 147.5 100.142 140.001 100.142 147.5 112 147.5 104.858 155 104.858 147.5 93.003Z" fill="#F46545" fill-rule="evenodd"/><path d="M147.517 89.0462 148.199 89.0616 148.88 89.1265 149.529 89.2099 150.177 89.3241 150.826 89.4538 151.458 89.633 152.074 89.843 152.672 90.0715 153.255 90.334 153.82 90.612 154.368 90.9208 154.917 91.2636 155.433 91.6218 155.932 92.014 156.414 92.4217 156.863 92.8448 157.312 93.3018 157.728 93.7744 158.111 94.2623 158.477 94.7688 158.826 95.2907 159.141 95.8281 159.441 96.3994 159.707 96.9707 159.94 97.5575 160.14 98.1597 160.322 98.7619 160.472 99.3981 160.589 100.034 160.672 100.686 160.722 101.341 160.738 102.008 160.722 102.675 160.672 103.33 160.589 103.981 160.472 104.617 160.322 105.254 160.14 105.856 159.94 106.458 159.707 107.045 159.441 107.631 159.141 108.187 158.826 108.725 158.477 109.247 158.111 109.753 157.728 110.257 157.312 110.714 156.863 111.171 156.414 111.594 155.932 112.001 155.433 112.394 154.917 112.752 154.368 113.095 153.82 113.403 153.255 113.681 152.672 113.944 152.074 114.172 151.458 114.382 150.826 114.562 150.177 114.71 149.529 114.824 148.88 114.904 148.199 114.954 147.517 114.969 146.834 114.954 146.17 114.904 145.504 114.824 144.856 114.71 144.224 114.562 143.592 114.382 142.976 114.172 142.378 113.944 141.795 113.681 141.23 113.403 140.665 113.095 140.132 112.752 139.617 112.394 139.118 112.001 138.636 111.594 138.17 111.171 137.738 110.714 137.322 110.257 136.939 109.753 136.557 109.247 136.224 108.725 135.908 108.187 135.609 107.631 135.343 107.045 135.11 106.458 134.894 105.856 134.727 105.254 134.577 104.617 134.461 103.981 134.378 103.33 134.328 102.675 134.312 102.008 134.328 101.341 134.378 100.686 134.461 100.034 134.577 99.3981 134.727 98.7619 134.894 98.1597 135.11 97.5575 135.343 96.9707 135.609 96.3994 135.908 95.8281 136.224 95.2907 136.557 94.7688 136.939 94.2623 137.322 93.7744 137.738 93.3018 138.17 92.8448 138.636 92.4217 139.118 92.014 139.617 91.6218 140.132 91.2636 140.665 90.9208 141.23 90.612 141.795 90.334 142.378 90.0715 142.976 89.843 143.592 89.633 144.224 89.4538 144.856 89.3241 145.504 89.2099 146.17 89.1265 146.834 89.0616 147.517 89.0462ZM143.725 79.0031 143.525 79.0185 143.342 79.0494 143.159 79.0834 142.993 79.1482 142.827 79.2285 142.677 79.3274 142.527 79.4262 142.394 79.5405 142.261 79.6856 142.161 79.8184 142.062 79.979 141.979 80.1427 141.929 80.3063 141.879 80.4855 141.845 80.6646 141.828 80.8591 141.828 84.3489 141.047 84.6269 140.266 84.9202 139.517 85.2476 138.768 85.6058 136.257 83.1259 136.108 83.0117 135.958 82.8974 135.792 82.8017 135.625 82.7183 135.459 82.6689 135.276 82.6226 135.093 82.604 134.91 82.5886 134.744 82.604 134.561 82.6226 134.378 82.6689 134.211 82.7183 134.045 82.8017 133.879 82.8974 133.729 83.0117 133.58 83.1259 128.241 88.376 128.108 88.5243 128.008 88.6694 127.908 88.8331 127.825 88.9968 127.775 89.1605 127.725 89.3396 127.692 89.5187 127.692 89.6978 127.692 89.8769 127.725 90.0561 127.775 90.2197 127.825 90.3989 127.908 90.5625 128.008 90.7077 128.108 90.8714 128.241 91.0011 130.752 93.481 130.386 94.2129 130.054 94.9479 129.755 95.7138 129.488 96.4982 125.88 96.4982 125.696 96.5137 125.497 96.5291 125.314 96.5785 125.148 96.6434 124.981 96.7237 124.832 96.8071 124.682 96.9213 124.549 97.0356 124.432 97.1653 124.316 97.3104 124.217 97.4587 124.15 97.6224 124.083 97.8015 124.033 97.9806 124 98.1597 124 98.3388 124 105.757 124 105.936 124.033 106.115 124.083 106.297 124.15 106.476 124.217 106.637 124.316 106.785 124.432 106.93 124.549 107.063 124.682 107.178 124.832 107.292 124.981 107.372 125.148 107.452 125.314 107.517 125.497 107.567 125.696 107.585 125.88 107.601 129.455 107.601 129.721 108.382 130.02 109.132 130.353 109.883 130.736 110.618 128.208 113.079 128.075 113.209 127.959 113.373 127.875 113.518 127.792 113.681 127.725 113.861 127.692 114.024 127.659 114.203 127.659 114.382 127.659 114.562 127.692 114.741 127.725 114.904 127.792 115.084 127.875 115.247 127.959 115.395 128.075 115.556 128.208 115.689 133.563 120.92 133.713 121.053 133.863 121.164 134.012 121.263 134.195 121.328 134.361 121.393 134.544 121.442 134.711 121.458 134.894 121.476 135.076 121.458 135.259 121.442 135.442 121.393 135.609 121.328 135.775 121.263 135.941 121.164 136.091 121.053 136.241 120.92 138.752 118.459 139.5 118.817 140.266 119.145 141.047 119.453 141.828 119.716 141.828 123.156 141.845 123.335 141.879 123.515 141.929 123.694 141.979 123.873 142.062 124.036 142.161 124.182 142.261 124.33 142.394 124.46 142.527 124.574 142.677 124.688 142.827 124.768 142.993 124.852 143.159 124.917 143.342 124.966 143.525 124.997 151.475 124.997 151.658 124.966 151.841 124.917 152.007 124.852 152.173 124.768 152.339 124.688 152.473 124.574 152.606 124.46 152.739 124.33 152.839 124.182 152.938 124.036 153.021 123.873 153.071 123.694 153.121 123.515 153.154 123.335 153.171 123.156 153.171 119.648 153.953 119.389 154.734 119.095 155.483 118.752 156.232 118.394 158.743 120.871 158.892 121.004 159.042 121.099 159.208 121.198 159.375 121.279 159.541 121.347 159.724 121.377 159.907 121.411 160.256 121.411 160.439 121.377 160.622 121.347 160.788 121.279 160.955 121.198 161.121 121.099 161.271 121.004 161.42 120.871 166.759 115.621 166.892 115.476 166.992 115.327 167.091 115.167 167.175 115.003 167.225 114.84 167.275 114.66 167.308 114.481 167.308 114.302 167.308 114.139 167.275 113.959 167.225 113.78 167.175 113.617 167.091 113.453 166.992 113.289 166.892 113.144 166.759 112.996 164.248 110.519 164.613 109.803 164.946 109.052 165.245 108.286 165.512 107.502 169.304 107.502 169.503 107.471 169.686 107.421 169.852 107.357 170.018 107.292 170.168 107.193 170.318 107.079 170.451 106.964 170.568 106.835 170.684 106.686 170.783 106.541 170.85 106.378 170.916 106.214 170.967 106.035 171 105.84 171 105.661 171 98.3388 171 98.1597 170.967 97.9806 170.916 97.8015 170.85 97.6224 170.783 97.4587 170.684 97.3104 170.568 97.1653 170.451 97.0356 170.318 96.9213 170.168 96.8071 170.018 96.7237 169.852 96.6434 169.686 96.5785 169.503 96.5291 169.304 96.5137 169.12 96.4982 165.545 96.4982 165.279 95.7292 164.979 94.9633 164.647 94.2314 164.264 93.5118 166.792 91.0659 166.925 90.9208 167.041 90.7725 167.124 90.6274 167.208 90.4637 167.275 90.2846 167.308 90.1209 167.341 89.9418 167.341 89.7627 167.341 89.599 167.308 89.4199 167.275 89.2408 167.208 89.0771 167.124 88.9165 167.041 88.7528 166.925 88.6046 166.792 88.4749 161.437 83.2742 161.287 83.1599 161.137 83.0457 160.988 82.9468 160.805 82.882 160.639 82.8171 160.456 82.7831 160.289 82.7523 160.106 82.7368 159.923 82.7523 159.741 82.7831 159.557 82.8171 159.391 82.882 159.225 82.9468 159.058 83.0457 158.909 83.1599 158.759 83.2742 156.248 85.7201 155.5 85.3773 154.734 85.0499 153.953 84.7566 153.171 84.4971 153.171 80.8591 153.154 80.6646 153.121 80.4855 153.071 80.3063 153.021 80.1427 152.938 79.979 152.839 79.8184 152.739 79.6856 152.606 79.5405 152.473 79.4262 152.339 79.3274 152.173 79.2285 152.007 79.1482 151.841 79.0834 151.658 79.0494 151.475 79.0185 151.275 79.0031Z" fill="#E4ECF2" fill-rule="evenodd"/><path d="M160.311 83.0031 160.141 83.0187 159.971 83.0343 159.817 83.0841 159.648 83.1495 159.494 83.215 159.339 83.3146 159.201 83.4299 159.078 83.5607 159 83.6449 163.871 88.8411 163.994 88.972 164.086 89.1371 164.179 89.2835 164.256 89.4486 164.318 89.6293 164.349 89.7944 164.38 89.9751 164.38 90.1558 164.38 90.3364 164.349 90.5171 164.318 90.6822 164.256 90.8629 164.179 91.028 164.086 91.1776 163.994 91.3396 163.871 91.4735 161.544 93.9564 161.883 94.6947 162.191 95.4517 162.468 96.2087 162.715 97 165.351 97 165.089 96.2087 164.811 95.4517 164.503 94.6947 164.164 93.9564 166.492 91.4735 166.615 91.3396 166.722 91.1776 166.799 91.028 166.877 90.8629 166.938 90.6822 166.969 90.5171 167 90.3364 167 90.1558 167 89.9751 166.969 89.7944 166.938 89.6293 166.877 89.4486 166.799 89.2835 166.722 89.1371 166.615 88.972 166.492 88.8411 161.544 83.5607 161.42 83.4299 161.266 83.3146 161.127 83.215 160.973 83.1495 160.804 83.0841 160.65 83.0343 160.48 83.0187 160.311 83.0031Z" fill="#BFCCD6" fill-rule="evenodd"/><path d="M162.715 107.003 162.468 107.791 162.191 108.548 161.883 109.305 161.544 110.047 163.871 112.53 163.994 112.66 164.086 112.826 164.179 112.972 164.256 113.137 164.318 113.318 164.349 113.483 164.38 113.664 164.38 113.844 164.38 114.025 164.349 114.206 164.318 114.371 164.256 114.551 164.179 114.717 164.086 114.866 163.994 115.028 163.871 115.162 159 120.374 159.078 120.439 159.201 120.573 159.339 120.685 159.494 120.785 159.648 120.85 159.817 120.916 159.971 120.966 160.141 120.981 160.311 121 160.48 120.981 160.65 120.966 160.804 120.916 160.973 120.85 161.127 120.785 161.266 120.685 161.42 120.573 161.544 120.439 166.492 115.162 166.615 115.028 166.722 114.866 166.799 114.717 166.877 114.551 166.938 114.371 166.969 114.206 167 114.025 167 113.844 167 113.664 166.969 113.483 166.938 113.318 166.877 113.137 166.799 112.972 166.722 112.826 166.615 112.66 166.492 112.53 164.164 110.047 164.503 109.305 164.811 108.548 165.089 107.791 165.351 107.003Z" fill="#BFCCD6" fill-rule="evenodd"/><path d="M166 97.0028 166.195 97.0167 166.389 97.0306 166.583 97.0751 166.777 97.1335 166.955 97.2058 167.113 97.2809 167.272 97.3838 167.414 97.4866 167.537 97.6034 167.661 97.7341 167.749 97.8676 167.838 98.015 167.908 98.1763 167.961 98.3376 167.979 98.4989 167.997 98.6602 167.997 105.34 167.979 105.501 167.961 105.662 167.908 105.826 167.838 105.988 167.749 106.132 167.661 106.266 167.537 106.397 167.414 106.516 167.272 106.619 167.113 106.722 166.955 106.794 166.777 106.867 166.583 106.925 166.389 106.969 166.195 106.986 166 107 169.003 107 169.198 106.986 169.41 106.969 169.604 106.925 169.781 106.867 169.957 106.794 170.117 106.722 170.275 106.619 170.417 106.516 170.541 106.397 170.664 106.266 170.77 106.132 170.841 105.988 170.911 105.826 170.965 105.662 171 105.501 171 105.34 171 98.6602 171 98.4989 170.965 98.3376 170.911 98.1763 170.841 98.015 170.77 97.8676 170.664 97.7341 170.541 97.6034 170.417 97.4866 170.275 97.3838 170.117 97.2809 169.957 97.2058 169.781 97.1335 169.604 97.0751 169.41 97.0306 169.198 97.0167 169.003 97.0028Z" fill="#BFCCD6" fill-rule="evenodd"/><path d="M143.6 79 143.329 79.0179 143.058 79.0655 142.804 79.1101 142.567 79.2054 142.33 79.3006 142.127 79.4256 141.923 79.5655 141.72 79.7232 141.551 79.8958 141.398 80.0863 141.28 80.2887 141.161 80.5089 141.077 80.7292 141.009 80.9643 140.975 81.2024 140.958 81.4524 140.958 84.3423 140.383 84.5327 139.806 84.7351 139.248 84.9732 138.689 85.2083 136.505 83.1815 136.301 83.0089 136.081 82.8661 135.861 82.7411 135.623 82.631 135.387 82.5536 135.132 82.506 134.879 82.4732 134.624 82.4583 134.371 82.4732 134.116 82.506 133.879 82.5536 133.642 82.631 133.405 82.7411 133.168 82.8661 132.965 83.0089 132.762 83.1815 131.22 84.6101 131.119 84.7202 131.051 84.8452 131.018 84.9732 131.001 85.1131 131.034 85.256 131.085 85.381 131.17 85.506 131.288 85.6012 131.407 85.6786 131.525 85.7113 131.644 85.7411 131.78 85.7411 131.915 85.7113 132.033 85.6786 132.152 85.6161 132.254 85.5387 133.778 84.125 133.862 84.0446 133.964 83.9821 134.066 83.9196 134.184 83.872 134.286 83.8393 134.405 83.8095 134.506 83.7946 134.743 83.7946 134.862 83.8095 134.963 83.8393 135.082 83.872 135.183 83.9196 135.285 83.9821 135.387 84.0446 135.471 84.125 138.045 86.497 138.13 86.5595 138.232 86.622 138.333 86.6548 138.435 86.6845 138.672 86.6845 138.774 86.6548 138.892 86.622 139.62 86.2768 140.366 85.9792 141.11 85.6935 141.889 85.4583 141.991 85.4107 142.093 85.3661 142.178 85.3006 142.262 85.2232 142.313 85.128 142.364 85.0357 142.38 84.9256 142.397 84.8155 142.397 81.4673 142.397 81.3423 142.414 81.2321 142.448 81.122 142.482 81.0268 142.533 80.9345 142.601 80.8393 142.669 80.744 142.753 80.6667 142.838 80.6042 142.922 80.5417 143.024 80.4792 143.126 80.4315 143.244 80.3988 143.362 80.369 143.482 80.3512 151.407 80.3512 151.526 80.369 151.644 80.3988 151.745 80.4315 151.864 80.4792 151.966 80.5417 152.051 80.6042 152.135 80.6667 152.22 80.744 152.287 80.8393 152.338 80.9345 152.389 81.0268 152.44 81.122 152.457 81.2321 152.474 81.3423 152.491 81.4673 152.491 84.8006 152.491 84.9107 152.525 85.0179 152.575 85.1131 152.626 85.2083 152.694 85.2857 152.795 85.3482 152.88 85.4107 152.999 85.4435 153.761 85.6935 154.522 85.9613 155.268 86.2619 155.996 86.6071 156.098 86.6369 156.199 86.6696 156.436 86.6696 156.538 86.6369 156.639 86.6071 156.742 86.5446 156.826 86.4792 159.383 84.1071 159.485 84.0298 159.569 83.9673 159.671 83.9048 159.79 83.872 159.891 83.8244 160.009 83.8095 160.111 83.7946 160.23 83.7768 160.348 83.7946 160.467 83.8095 160.569 83.8244 160.687 83.872 160.789 83.9048 160.89 83.9673 160.992 84.0298 161.077 84.1071 166.495 89.1369 166.648 89.3393 166.767 89.5298 166.8 89.6399 166.834 89.7321 166.851 89.8274 166.851 89.9226 166.851 90.0327 166.834 90.125 166.8 90.2202 166.767 90.3155 166.648 90.5179 166.495 90.7083 163.955 93.0804 163.871 93.1577 163.82 93.253 163.769 93.3482 163.752 93.4583 163.735 93.5506 163.752 93.6607 163.769 93.7708 163.82 93.8661 164.176 94.5417 164.514 95.2321 164.802 95.9405 165.056 96.6458 165.107 96.7411 165.158 96.8363 165.242 96.9137 165.327 96.9762 165.412 97.0387 165.53 97.0863 165.632 97.1012 165.751 97.119 169.476 97.119 169.595 97.1339 169.713 97.1667 169.832 97.1964 169.933 97.244 170.035 97.3065 170.12 97.369 170.204 97.4315 170.289 97.5268 170.357 97.6042 170.407 97.6994 170.459 97.7946 170.509 97.9048 170.526 97.997 170.56 98.1071 170.56 98.2351 170.56 100.339 170.577 100.482 170.611 100.607 170.678 100.717 170.763 100.81 170.882 100.89 171 100.952 171.136 101 171.424 101 171.559 100.952 171.677 100.89 171.796 100.81 171.881 100.717 171.949 100.607 171.982 100.482 171.999 100.339 171.999 98.2351 171.982 97.9821 171.949 97.7321 171.881 97.494 171.796 97.2738 171.677 97.0565 171.542 96.8512 171.39 96.6637 171.22 96.4911 171.034 96.3333 170.831 96.1905 170.611 96.0655 170.39 95.9702 170.137 95.8929 169.882 95.8304 169.629 95.7827 166.309 95.7827 166.106 95.247 165.869 94.7143 165.632 94.1964 165.361 93.6756 167.563 91.6488 167.749 91.4315 167.901 91.2262 168.037 91.006 168.138 90.7857 168.223 90.5655 168.291 90.3601 168.325 90.1429 168.342 89.9226 168.325 89.7024 168.291 89.497 168.223 89.2768 168.138 89.0565 168.037 88.8363 167.901 88.6339 167.749 88.4137 167.563 88.1935 162.126 83.1637 161.923 82.9911 161.703 82.8512 161.483 82.7262 161.246 82.631 161.009 82.5536 160.755 82.4881 160.5 82.4583 160.247 82.4435 159.993 82.4583 159.756 82.4881 159.502 82.5536 159.265 82.631 159.027 82.7262 158.79 82.8512 158.587 82.9911 158.384 83.1637 156.199 85.1935 155.64 84.9554 155.082 84.7202 154.506 84.5179 153.93 84.3274 153.93 81.4673 153.913 81.2173 153.879 80.9643 153.812 80.7292 153.727 80.5089 153.608 80.2887 153.473 80.0863 153.321 79.8958 153.151 79.7232 152.965 79.5655 152.761 79.4256 152.542 79.3006 152.321 79.2054 152.067 79.1101 151.813 79.0655 151.56 79.0179 151.288 79Z" fill="#5D5D6D" fill-rule="evenodd"/><path d="M171.183 103.003 171.064 103.036 170.945 103.065 170.843 103.127 170.724 103.19 170.656 103.27 170.588 103.347 170.571 103.442 170.554 103.533 170.554 106.18 170.537 106.319 170.486 106.443 170.418 106.571 170.332 106.68 170.214 106.758 170.095 106.82 169.941 106.867 169.788 106.882 165.604 106.882 165.502 106.915 165.383 106.944 165.298 107.009 165.213 107.072 165.145 107.149 165.077 107.244 165.026 107.353 164.771 108.055 164.482 108.746 164.142 109.433 163.784 110.106 163.733 110.216 163.716 110.311 163.699 110.417 163.716 110.512 163.733 110.622 163.784 110.717 163.835 110.808 163.92 110.888 166.471 113.25 166.642 113.437 166.744 113.641 166.778 113.736 166.812 113.828 166.829 113.938 166.829 114.033 166.829 114.127 166.812 114.219 166.778 114.329 166.744 114.424 166.642 114.628 166.471 114.815 161.029 119.82 160.944 119.9 160.842 119.962 160.74 120.025 160.638 120.072 160.519 120.105 160.416 120.134 160.298 120.149 160.059 120.149 159.957 120.134 159.838 120.105 159.736 120.072 159.617 120.025 159.515 119.962 159.43 119.9 159.328 119.82 156.76 117.458 156.675 117.396 156.572 117.334 156.471 117.301 156.369 117.272 156.13 117.272 156.028 117.301 155.926 117.349 155.195 117.678 154.446 117.974 153.681 118.258 152.916 118.492 152.797 118.54 152.711 118.584 152.61 118.664 152.542 118.741 152.491 118.821 152.44 118.913 152.406 119.023 152.406 119.133 152.406 122.466 152.389 122.576 152.372 122.686 152.355 122.795 152.304 122.887 152.252 122.997 152.201 123.077 152.133 123.169 152.048 123.249 151.964 123.326 151.879 123.388 151.776 123.435 151.657 123.483 151.555 123.53 151.436 123.545 151.317 123.56 151.198 123.578 148.613 123.578 148.494 123.607 148.391 123.64 148.306 123.702 148.221 123.764 148.154 123.841 148.086 123.921 148.052 124.013 148.018 124.123 148.001 124.218 148.001 124.342 148.018 124.452 148.052 124.561 148.103 124.686 148.187 124.813 148.289 124.923 148.374 124.967 148.408 124.985 148.46 125 152.95 125 153.103 124.985 153.256 124.938 153.392 124.858 153.511 124.781 153.613 124.671 153.698 124.532 153.732 124.404 153.749 124.25 153.749 119.648 154.327 119.447 154.906 119.242 155.467 119.023 156.028 118.774 158.239 120.807 158.444 120.964 158.665 121.121 158.886 121.231 159.124 121.34 159.362 121.417 159.617 121.465 159.872 121.512 160.382 121.512 160.638 121.465 160.876 121.417 161.131 121.34 161.369 121.231 161.59 121.121 161.795 120.964 161.998 120.807 167.475 115.784 167.662 115.565 167.815 115.348 167.952 115.129 168.07 114.91 168.155 114.705 168.206 114.486 168.24 114.267 168.258 114.047 168.24 113.828 168.206 113.627 168.155 113.407 168.07 113.188 167.952 112.969 167.815 112.749 167.662 112.545 167.475 112.329 165.264 110.293 165.536 109.792 165.774 109.262 166.012 108.746 166.217 108.213 169.346 108.213 169.618 108.198 169.873 108.165 170.129 108.103 170.383 108.026 170.605 107.916 170.826 107.792 171.03 107.65 171.217 107.492 171.387 107.321 171.54 107.134 171.676 106.929 171.796 106.71 171.88 106.491 171.948 106.257 171.982 106.023 171.999 105.771 171.999 103.661 171.999 103.566 171.965 103.471 171.931 103.394 171.88 103.299 171.829 103.237 171.762 103.16 171.676 103.113 171.591 103.065 171.489 103.036 171.387 103.003Z" fill="#5D5D6D" fill-rule="evenodd"/><path d="M128.626 87.003 128.495 87.0181 128.362 87.0514 128.247 87.1149 128.132 87.1935 127.241 88.0705 127.108 88.2489 126.977 88.4394 126.878 88.63 126.795 88.8235 126.729 89.0291 126.679 89.2378 126.646 89.4616 126.63 89.6672 126.646 89.891 126.679 90.0996 126.729 90.3083 126.795 90.5139 126.878 90.7226 126.977 90.9131 127.108 91.1066 127.257 91.282 129.534 93.4986 129.27 94.0279 129.039 94.554 128.825 95.0953 128.61 95.6397 125.31 95.6397 125.063 95.688 124.815 95.7515 124.568 95.8302 124.353 95.9269 124.139 96.054 123.941 96.1991 123.759 96.3594 123.594 96.5348 123.446 96.7253 123.314 96.9339 123.198 97.1547 123.116 97.3785 123.05 97.6204 123.017 97.8744 123.001 98.1315 123.001 105.377 123.017 105.634 123.05 105.873 123.116 106.112 123.198 106.336 123.314 106.559 123.446 106.768 123.594 106.959 123.759 107.134 123.941 107.294 124.139 107.439 124.353 107.566 124.568 107.678 124.815 107.757 125.063 107.82 125.31 107.854 125.574 107.869 128.577 107.869 128.775 108.413 129.006 108.939 129.237 109.481 129.484 109.992 127.356 112.069 127.191 112.26 127.026 112.45 126.911 112.674 126.795 112.883 126.712 113.122 126.663 113.345 126.63 113.584 126.613 113.823 126.63 114.065 126.663 114.304 126.712 114.543 126.795 114.767 126.911 114.99 127.026 115.196 127.191 115.405 127.356 115.595 132.652 120.721 132.834 120.881 133.048 121.042 133.263 121.153 133.494 121.265 133.724 121.344 133.972 121.392 134.219 121.441 134.715 121.441 134.945 121.392 135.193 121.344 135.424 121.265 135.655 121.153 135.869 121.042 136.084 120.881 136.282 120.721 138.41 118.647 138.938 118.901 139.499 119.124 140.043 119.333 140.605 119.539 140.605 124.28 140.621 124.425 140.671 124.552 140.737 124.679 140.819 124.776 140.934 124.873 141.05 124.936 141.199 124.985 141.347 125 145.307 125 145.406 124.985 145.521 124.967 145.604 124.921 145.703 124.873 145.785 124.809 145.851 124.728 145.917 124.649 145.95 124.568 145.984 124.459 146 124.362 146 124.25 145.984 124.138 145.95 124.026 145.884 123.914 145.802 123.802 145.703 123.691 145.637 123.642 145.554 123.627 142.271 123.627 142.222 123.612 142.155 123.579 142.106 123.53 142.073 123.482 142.04 123.437 142.023 123.37 142.007 123.307 142.007 119.046 142.007 118.934 141.974 118.822 141.925 118.725 141.875 118.647 141.809 118.565 141.71 118.486 141.627 118.438 141.512 118.389 140.77 118.151 140.027 117.863 139.301 117.561 138.592 117.225 138.493 117.177 138.394 117.144 138.163 117.144 138.064 117.177 137.965 117.21 137.866 117.274 137.783 117.337 135.292 119.747 135.193 119.826 135.111 119.908 135.011 119.956 134.896 120.004 134.797 120.035 134.682 120.068 134.582 120.083 134.352 120.083 134.236 120.068 134.137 120.035 134.022 120.004 133.923 119.956 133.823 119.908 133.724 119.826 133.642 119.747 128.362 114.622 128.28 114.543 128.214 114.446 128.148 114.352 128.099 114.256 128.066 114.144 128.033 114.047 128.016 113.935 128.016 113.823 128.016 113.711 128.033 113.618 128.066 113.506 128.099 113.409 128.148 113.297 128.214 113.2 128.28 113.106 128.362 113.025 130.837 110.615 130.92 110.536 130.97 110.439 131.019 110.343 131.035 110.231 131.052 110.137 131.035 110.025 131.019 109.913 130.97 109.816 130.623 109.13 130.293 108.428 130.012 107.709 129.765 106.992 129.716 106.88 129.666 106.783 129.583 106.705 129.501 106.641 129.418 106.575 129.303 106.544 129.204 106.511 125.574 106.511 125.458 106.496 125.343 106.481 125.228 106.448 125.112 106.417 125.013 106.369 124.914 106.321 124.832 106.242 124.749 106.175 124.667 106.097 124.601 106 124.551 105.921 124.502 105.809 124.452 105.713 124.436 105.601 124.403 105.489 124.403 105.377 124.403 98.1315 124.403 98.0014 124.436 97.8895 124.452 97.7958 124.502 97.6839 124.551 97.5871 124.601 97.4904 124.667 97.4117 124.749 97.315 124.832 97.2515 124.914 97.188 125.013 97.1245 125.112 97.0761 125.228 97.0458 125.343 97.0126 125.458 96.9975 129.121 96.9975 129.237 96.9793 129.353 96.9642 129.451 96.9158 129.534 96.8523 129.616 96.7888 129.699 96.7102 129.749 96.6134 129.798 96.5166 130.045 95.7818 130.342 95.0802 130.656 94.3786 131.002 93.6771 131.052 93.5803 131.085 93.4835 131.085 93.3716 131.085 93.2598 131.052 93.166 131.019 93.0692 130.953 92.9725 130.887 92.8938 128.395 90.4655 128.263 90.3234 128.148 90.148 128.066 89.9545 128.049 89.8607 128.033 89.764 128.016 89.6672 128.016 89.5553 128.033 89.4616 128.066 89.3497 128.115 89.2529 128.165 89.141 128.23 89.0442 128.329 88.9354 128.725 88.5513 129.121 88.1522 129.22 88.0554 129.287 87.9284 129.32 87.8014 129.336 87.6713 129.32 87.5443 129.287 87.4173 129.22 87.3054 129.121 87.1935 129.006 87.1149 128.891 87.0514 128.758 87.0181 128.626 87.003Z" fill="#5D5D6D" fill-rule="evenodd"/><path d="M147.492 90.3209 148.167 90.3356 148.825 90.3827 149.482 90.4592 150.123 90.5533 150.746 90.6916 151.37 90.8475 151.976 91.0358 152.564 91.2358 153.136 91.4682 153.707 91.733 154.244 92.0124 154.781 92.3243 155.283 92.6508 155.767 92.9921 156.252 93.3657 156.702 93.754 157.135 94.1571 157.533 94.5748 157.932 95.0102 158.295 95.4779 158.624 95.9427 158.953 96.4399 159.23 96.9371 159.489 97.4637 159.732 97.9932 159.94 98.5375 160.113 99.0788 160.251 99.6553 160.372 100.229 160.459 100.803 160.494 101.394 160.511 102 160.494 102.606 160.459 103.197 160.372 103.771 160.251 104.345 160.113 104.921 159.94 105.463 159.732 106.007 159.489 106.551 159.23 107.063 158.953 107.56 158.624 108.057 158.295 108.522 157.932 108.99 157.533 109.425 157.135 109.843 156.702 110.264 156.252 110.652 155.767 111.008 155.283 111.367 154.781 111.676 154.244 111.988 153.707 112.267 153.136 112.532 152.564 112.764 151.976 112.964 151.37 113.153 150.746 113.308 150.123 113.447 149.482 113.541 148.825 113.617 148.167 113.664 147.492 113.679 146.833 113.664 146.176 113.617 145.518 113.541 144.877 113.447 144.254 113.308 143.631 113.153 143.025 112.964 142.436 112.764 141.865 112.532 141.294 112.267 140.757 111.988 140.22 111.676 139.718 111.367 139.216 111.008 138.749 110.652 138.298 110.264 137.866 109.843 137.45 109.425 137.069 108.99 136.705 108.522 136.36 108.057 136.048 107.56 135.771 107.063 135.494 106.551 135.269 106.007 135.061 105.463 134.888 104.921 134.749 104.345 134.628 103.771 134.541 103.197 134.489 102.606 134.472 102 134.489 101.394 134.541 100.803 134.628 100.229 134.749 99.6553 134.888 99.0788 135.061 98.5375 135.269 97.9932 135.494 97.4637 135.771 96.9371 136.048 96.4399 136.36 95.9427 136.705 95.4779 137.069 95.0102 137.45 94.5748 137.866 94.1571 138.298 93.754 138.749 93.3657 139.216 92.9921 139.718 92.6508 140.22 92.3243 140.757 92.0124 141.294 91.733 141.865 91.4682 142.436 91.2358 143.025 91.0358 143.631 90.8475 144.254 90.6916 144.877 90.5533 145.518 90.4592 146.176 90.3827 146.833 90.3356 147.492 90.3209ZM147.492 89 146.747 89.0147 146.02 89.0618 145.293 89.1559 144.583 89.2648 143.873 89.403 143.198 89.5913 142.523 89.7914 141.865 90.0238 141.225 90.2885 140.601 90.568 139.995 90.8798 139.407 91.2211 138.835 91.5771 138.281 91.9654 137.762 92.3861 137.26 92.8067 136.775 93.2568 136.324 93.7364 135.892 94.2188 135.477 94.7307 135.113 95.2602 134.749 95.8015 134.437 96.3634 134.144 96.9371 133.884 97.5255 133.658 98.1315 133.468 98.7551 133.295 99.3906 133.174 100.029 133.07 100.679 133.018 101.332 133.001 102 133.018 102.668 133.07 103.336 133.174 103.974 133.295 104.624 133.468 105.245 133.658 105.869 133.884 106.475 134.144 107.063 134.437 107.637 134.749 108.198 135.113 108.74 135.477 109.269 135.892 109.781 136.324 110.264 136.775 110.743 137.26 111.193 137.762 111.629 138.281 112.035 138.835 112.423 139.407 112.779 139.995 113.12 140.601 113.432 141.225 113.726 141.865 113.976 142.523 114.209 143.198 114.426 143.873 114.597 144.583 114.735 145.293 114.859 146.02 114.938 146.747 114.985 147.492 115 148.236 114.985 148.98 114.938 149.708 114.859 150.418 114.735 151.11 114.597 151.803 114.426 152.478 114.209 153.136 113.976 153.776 113.726 154.4 113.432 155.005 113.12 155.594 112.779 156.166 112.423 156.72 112.035 157.239 111.629 157.741 111.193 158.225 110.743 158.676 110.264 159.108 109.781 159.507 109.269 159.888 108.74 160.234 108.198 160.563 107.637 160.857 107.063 161.117 106.475 161.342 105.869 161.533 105.245 161.705 104.624 161.827 103.974 161.914 103.336 161.965 102.668 162 102 161.965 101.332 161.914 100.679 161.827 100.029 161.705 99.3906 161.533 98.7551 161.342 98.1315 161.117 97.5255 160.857 96.9371 160.563 96.3634 160.234 95.8015 159.888 95.2602 159.507 94.7307 159.108 94.2188 158.676 93.7364 158.225 93.2568 157.741 92.8067 157.239 92.3861 156.72 91.9654 156.166 91.5771 155.594 91.2211 155.005 90.8798 154.4 90.568 153.776 90.2885 153.136 90.0238 152.478 89.7914 151.803 89.5913 151.11 89.403 150.418 89.2648 149.708 89.1559 148.98 89.0618 148.236 89.0147 147.492 89Z" fill="#5D5D6D" fill-rule="evenodd"/><path d="M148.259 95.0447 154.005 103.653 147.543 103.653 147.389 103.671 147.252 103.701 147.133 103.763 147.031 103.843 146.946 103.935 146.877 104.063 146.826 104.188 146.809 104.312 146.809 108.955 141.08 100.362 147.543 100.362 147.679 100.344 147.816 100.299 147.952 100.234 148.054 100.157 148.139 100.062 148.208 99.9519 148.259 99.8271 148.259 99.6875 148.259 95.0447ZM147.594 92.003 147.457 92.0178 147.321 92.0327 147.184 92.0951 147.099 92.1426 147.031 92.205 146.963 92.2673 146.912 92.3475 146.877 92.4248 146.843 92.5198 146.826 92.5971 146.809 92.6921 146.809 99.0281 139.648 99.0281 139.528 99.0429 139.426 99.0756 139.324 99.1053 139.239 99.1528 139.171 99.2004 139.12 99.2627 139.068 99.3251 139.034 99.3875 139 99.4677 139 99.5449 139 99.64 139.017 99.7321 139.051 99.8271 139.102 99.937 139.154 100.032 146.929 111.667 147.014 111.762 147.099 111.84 147.201 111.902 147.304 111.95 147.406 111.982 147.509 111.997 147.628 111.982 147.73 111.967 147.85 111.935 147.952 111.872 148.037 111.81 148.122 111.73 148.173 111.638 148.225 111.543 148.259 111.433 148.259 111.323 148.259 104.987 155.301 104.987 155.522 104.924 155.693 104.862 155.778 104.814 155.829 104.767 155.88 104.705 155.931 104.642 155.965 104.58 155.983 104.5 156 104.422 156 104.345 155.983 104.173 155.914 103.968 148.156 92.3327 148.071 92.2228 147.969 92.1426 147.85 92.0802 147.73 92.0327 147.594 92.003Z" fill="#5D5D6D" fill-rule="evenodd"/></g></svg>