<svg width="77" height="76" xmlns="http://www.w3.org/2000/svg" xmlns:xlink="http://www.w3.org/1999/xlink" overflow="hidden"><defs><filter id="fx0" x="-10%" y="-10%" width="120%" height="120%" filterUnits="userSpaceOnUse" primitiveUnits="userSpaceOnUse"><feComponentTransfer color-interpolation-filters="sRGB"><feFuncR type="discrete" tableValues="0 0"/><feFuncG type="discrete" tableValues="0 0"/><feFuncB type="discrete" tableValues="0 0"/><feFuncA type="linear" slope="0.501961" intercept="0"/></feComponentTransfer><feGaussianBlur stdDeviation="2 2"/></filter><clipPath id="clip1"><rect x="701" y="102" width="77" height="76"/></clipPath><clipPath id="clip2"><path d="M748.85 113.018C747.051 113.365 745.465 114.329 744.299 115.763L743.157 117.505C742.345 118.621 741.418 119.622 740.433 120.594 738.421 122.451 736.091 123.955 733.534 125.064 728.482 127.162 722.633 127.811 717.486 126.093L717.222 125.99C713.473 124.816 711.599 130.283 715.207 131.7 715.229 131.709 715.251 131.717 715.273 131.726 715.339 131.752 715.405 131.778 715.471 131.804 720.575 133.809 724.501 138.201 726.724 143.176 729.044 148.246 729.614 154.293 727.383 159.391 726.736 161.232 727.761 162.695 729.142 163.237 730.495 163.769 732.191 163.413 732.99 161.669L733.016 161.603C735.089 156.519 739.636 152.636 744.695 150.54 749.779 148.379 755.535 147.77 760.683 149.488L760.941 149.589C764.648 150.74 766.564 145.296 762.895 143.855L762.935 143.947C757.851 141.874 754.086 137.22 752.056 132.188 751.005 129.661 750.326 126.975 750.111 124.243 750.05 122.861 750.056 121.504 750.125 120.166L750.414 118.089C750.535 116.245 749.959 114.431 748.85 113.018ZM701 102 778 102 778 178 701 178Z" fill-rule="evenodd" clip-rule="evenodd"/></clipPath><clipPath id="clip3"><rect x="1" y="1" width="79" height="79"/></clipPath><clipPath id="clip4"><rect x="0" y="0" width="80" height="78"/></clipPath></defs><g clip-path="url(#clip1)" transform="translate(-701 -102)"><g clip-path="url(#clip2)"><g clip-path="url(#clip3)" filter="url(#fx0)" transform="translate(699 101)"><g clip-path="url(#clip4)"><path d="M45.7305 19.1231 45.7848 19.373C45.7447 19.2811 45.7046 19.1891 45.7305 19.1231ZM49.2272 20.4205C49.2673 20.5125 49.1753 20.5525 48.9915 20.6327L49.2272 20.4205ZM49.8503 14.0177C48.0505 14.3647 46.4653 15.3293 45.2989 16.7631L44.1574 18.5052C43.3446 19.6208 42.418 20.6219 41.4331 21.5937 39.421 23.4509 37.0907 24.9545 34.5341 26.0645 29.4815 28.1622 23.6331 28.8108 18.4856 27.0935L18.2215 26.9898C14.4732 25.8158 12.5988 31.2825 16.207 32.7 16.229 32.7086 16.251 32.7172 16.273 32.7259 16.339 32.7518 16.405 32.7777 16.471 32.8037 21.5754 34.8088 25.5006 39.2014 27.724 44.1764 30.0435 49.2463 30.6144 55.2927 28.3831 60.3907 27.7361 62.2318 28.7614 63.6948 30.142 64.2372 31.4951 64.7687 33.1905 64.4125 33.9896 62.6693L34.0155 62.6033C36.0888 57.5193 40.6365 53.636 45.6945 51.5404 50.7785 49.3789 56.535 48.7703 61.6825 50.4876L61.9411 50.5892C65.6475 51.7404 67.5638 46.2964 63.8951 44.8552L63.9352 44.9472C58.8512 42.8739 55.0857 38.2202 53.0562 33.188 52.0046 30.6607 51.3262 27.9751 51.1106 25.2429 51.0505 23.8605 51.0563 22.5041 51.1248 21.166L51.4137 19.089C51.5351 17.2446 50.9587 15.4309 49.8503 14.0177Z" stroke="#FFFFFF" stroke-width="12" stroke-linejoin="round" stroke-miterlimit="10" fill="#FFFFFF" fill-rule="evenodd"/></g></g></g><path d="M744.731 118.123 744.785 118.373C744.745 118.281 744.705 118.189 744.731 118.123ZM748.227 119.421C748.267 119.512 748.175 119.553 747.991 119.633L748.227 119.421ZM748.85 113.018C747.051 113.365 745.465 114.329 744.299 115.763L743.157 117.505C742.345 118.621 741.418 119.622 740.433 120.594 738.421 122.451 736.091 123.955 733.534 125.064 728.482 127.162 722.633 127.811 717.486 126.093L717.222 125.99C713.473 124.816 711.599 130.283 715.207 131.7 715.229 131.709 715.251 131.717 715.273 131.726 715.339 131.752 715.405 131.778 715.471 131.804 720.575 133.809 724.501 138.201 726.724 143.176 729.044 148.246 729.614 154.293 727.383 159.391 726.736 161.232 727.761 162.695 729.142 163.237 730.495 163.769 732.191 163.413 732.99 161.669L733.016 161.603C735.089 156.519 739.636 152.636 744.695 150.54 749.779 148.379 755.535 147.77 760.683 149.488L760.941 149.589C764.648 150.74 766.564 145.296 762.895 143.855L762.935 143.947C757.851 141.874 754.086 137.22 752.056 132.188 751.005 129.661 750.326 126.975 750.111 124.243 750.05 122.861 750.056 121.504 750.125 120.166L750.414 118.089C750.535 116.245 749.959 114.431 748.85 113.018Z" stroke="#FFFFFF" stroke-width="12" stroke-linejoin="round" stroke-miterlimit="10" fill="#FFFFFF" fill-rule="evenodd"/><path d="M747.669 115.944C740.341 125.16 728.939 130.135 717.201 129.226 726.42 136.549 731.387 147.954 730.483 159.694 737.806 150.476 749.208 145.501 760.885 146.386 751.727 139.087 746.76 127.682 747.669 115.944Z" stroke="#005A35" stroke-width="2" stroke-linejoin="round" stroke-miterlimit="10" fill="#F8C019" fill-rule="evenodd"/></g></svg>