<svg width="257" height="158" xmlns="http://www.w3.org/2000/svg" xmlns:xlink="http://www.w3.org/1999/xlink" overflow="hidden"><defs><clipPath id="clip0"><rect x="362" y="139" width="257" height="158"/></clipPath></defs><g clip-path="url(#clip0)" transform="translate(-362 -139)"><path d="M518.003 251.005 564 251.995" stroke="#000000" stroke-width="2" stroke-linejoin="round" stroke-miterlimit="10" fill="#FFFFFF" fill-rule="evenodd"/><path d="M518.003 251.005 564 251.995" stroke="#000000" stroke-width="2" stroke-linecap="round" stroke-linejoin="round" stroke-miterlimit="10" fill="none" fill-rule="evenodd"/><path d="M519 245 545.997 246" stroke="#000000" stroke-width="2" stroke-linejoin="round" stroke-miterlimit="10" fill="#FFFFFF" fill-rule="evenodd"/><path d="M519 245 545.997 246" stroke="#000000" stroke-width="2" stroke-linecap="round" stroke-linejoin="round" stroke-miterlimit="10" fill="none" fill-rule="evenodd"/><path d="M456.498 150.003C442.621 150.003 428.988 155.327 418.689 165.326 403.508 180.151 398.42 202.472 405.679 222.38 401.09 229.877 398.42 238.372 397.836 247.201 396.003 276.935 407.012 288.096 436.789 289.929 437.569 289.975 438.318 290 439.037 290 452.695 290 456.224 281.7 478.04 281.7 482.729 281.7 488.264 282.084 494.927 283.015 499.194 288.452 504.965 289.367 511.571 289.367 514.919 289.367 518.478 289.131 522.169 289.131 523.579 289.131 525.012 289.167 526.458 289.263 528.236 289.37 529.992 289.425 531.718 289.425 552.752 289.425 569.522 281.245 570.831 259.693 572 240.038 559.572 222.131 540.637 216.466 541.054 214.302 541.386 211.967 541.553 209.72 543.48 177.978 517.959 152.414 487.677 152.414 483.871 152.414 479.988 152.82 476.078 153.666 469.717 151.2 463.081 150.003 456.498 150.003Z" fill="#7E92FF" fill-rule="evenodd"/><path d="M525 162 524.003 161.004" stroke="#5D5D6D" stroke-width="2" stroke-linecap="round" stroke-linejoin="round" stroke-miterlimit="10" fill="none" fill-rule="evenodd"/><path d="M520.727 158.111C499.416 143.67 471.722 143 449.914 156.524 428.025 170.05 416 195.178 419.235 220.806 422.468 246.433 440.295 267.806 464.839 275.403 489.382 283 516.084 275.403 533 256.035" stroke="#5D5D6D" stroke-width="2" stroke-linecap="round" stroke-linejoin="round" stroke-miterlimit="10" fill="none" fill-rule="evenodd"/><path d="M534 253.996 535 253.004" stroke="#000000" stroke-width="2" stroke-linecap="round" stroke-linejoin="round" stroke-miterlimit="10" fill="none" fill-rule="evenodd"/><path d="M399.003 289 570.997 289" stroke="#000000" stroke-width="2" stroke-linejoin="round" stroke-miterlimit="10" fill="none" fill-rule="evenodd"/><path d="M399.003 289 570.997 289" stroke="#5D5D6D" stroke-width="2" stroke-linecap="round" stroke-linejoin="round" stroke-miterlimit="10" fill="none" fill-rule="evenodd"/><path d="M444.463 210.107C444 209.053 444.999 208 446.001 208.405 447 208.811 447 210.269 446.077 210.757 445.462 211 444.769 210.757 444.463 210.107Z" stroke="#000000" stroke-width="2" stroke-linecap="round" stroke-linejoin="round" stroke-miterlimit="10" fill="none" fill-rule="evenodd"/><path d="M527.706 158 529 163.755 523 163.997" stroke="#5D5D6D" stroke-width="2" stroke-linecap="round" stroke-linejoin="round" stroke-miterlimit="10" fill="none" fill-rule="evenodd"/><path d="M446.564 178C439.613 178 434 183.376 434 190.22L434 194.78C434 201.541 439.613 206.997 446.564 206.997L521.436 206.997C528.387 206.997 534 201.541 534 194.78L534 190.22C534 183.376 528.387 178 521.436 178Z" stroke="#5D5D6D" stroke-width="2" stroke-linecap="round" stroke-linejoin="round" stroke-miterlimit="10" fill="#6880EA" fill-rule="evenodd"/><path d="M430.536 186C424.685 186 420.003 190.417 420.336 195.584L425.604 275.747C425.771 278.749 428.28 280.997 431.207 280.997L532.464 280.997C535.391 280.997 537.815 278.749 538.065 275.747L542.747 195.584C543 190.334 538.401 186 532.547 186Z" stroke="#5D5D6D" stroke-width="2" stroke-linecap="round" stroke-linejoin="round" stroke-miterlimit="10" fill="#FFFFFF" fill-rule="evenodd"/><path d="M442.499 275.003C441.675 275.003 441 275.743 441 276.733L441 281.348C441 282.257 441.675 282.997 442.499 282.997 443.325 282.997 443.998 282.257 443.998 281.348L443.998 276.733C443.998 275.743 443.325 275.003 442.499 275.003Z" stroke="#5D5D6D" stroke-width="2" stroke-linecap="round" stroke-linejoin="round" stroke-miterlimit="10" fill="#FFFFFF" fill-rule="evenodd"/><path d="M442.542 280.003C438.429 280.003 435 283.344 435 287.458 435 291.656 438.429 295 442.542 295 446.656 295 450 291.656 450 287.458 450 283.344 446.656 280.003 442.542 280.003Z" stroke="#5D5D6D" stroke-width="2" stroke-linecap="round" stroke-linejoin="round" stroke-miterlimit="10" fill="#FFFFFF" fill-rule="evenodd"/><path d="M442.543 284.003C440.557 284.003 439.003 285.622 439.003 287.5 439.003 289.462 440.557 290.997 442.543 290.997 444.443 290.997 445.997 289.462 445.997 287.5 445.997 285.622 444.443 284.003 442.543 284.003Z" stroke="#5D5D6D" stroke-width="2" stroke-linecap="round" stroke-linejoin="round" stroke-miterlimit="10" fill="#6880EA" fill-rule="evenodd"/><path d="M524.047 275.003C522.879 275.003 522 275.743 522 276.733L522 281.348C522 282.257 522.879 282.997 524.047 282.997 525.121 282.997 525.997 282.257 525.997 281.348L525.997 276.733C525.997 275.743 525.121 275.003 524.047 275.003Z" stroke="#5D5D6D" stroke-width="2" stroke-linecap="round" stroke-linejoin="round" stroke-miterlimit="10" fill="#FFFFFF" fill-rule="evenodd"/><path d="M524.039 280.003C520.121 280.003 517.003 283.344 517.003 287.458 517.003 291.656 520.121 295 524.039 295 527.879 295 531 291.656 531 287.458 531 283.344 527.879 280.003 524.039 280.003Z" stroke="#5D5D6D" stroke-width="2" stroke-linecap="round" stroke-linejoin="round" stroke-miterlimit="10" fill="#FFFFFF" fill-rule="evenodd"/><path d="M524.035 284.003C522.333 284.003 521 285.622 521 287.5 521 289.462 522.333 290.997 524.035 290.997 525.665 290.997 526.998 289.462 526.998 287.5 526.998 285.622 525.665 284.003 524.035 284.003Z" stroke="#5D5D6D" stroke-width="2" stroke-linecap="round" stroke-linejoin="round" stroke-miterlimit="10" fill="#6880EA" fill-rule="evenodd"/><path d="M435.003 200 440 268.997" stroke="#000000" stroke-width="2" stroke-linejoin="round" stroke-miterlimit="10" fill="#FFFFFF" fill-rule="evenodd"/><path d="M435.003 200 440 268.997" stroke="#5D5D6D" stroke-width="2" stroke-linecap="round" stroke-linejoin="round" stroke-miterlimit="10" fill="none" fill-rule="evenodd"/><path d="M450 200 455 268.997" stroke="#000000" stroke-width="2" stroke-linejoin="round" stroke-miterlimit="10" fill="#FFFFFF" fill-rule="evenodd"/><path d="M450 200 455 268.997" stroke="#5D5D6D" stroke-width="2" stroke-linecap="round" stroke-linejoin="round" stroke-miterlimit="10" fill="none" fill-rule="evenodd"/><path d="M531 200 527.003 268" stroke="#000000" stroke-width="2" stroke-linejoin="round" stroke-miterlimit="10" fill="#FFFFFF" fill-rule="evenodd"/><path d="M531 200 527.003 268" stroke="#5D5D6D" stroke-width="2" stroke-linecap="round" stroke-linejoin="round" stroke-miterlimit="10" fill="none" fill-rule="evenodd"/><path d="M515.997 200 511.003 270" stroke="#000000" stroke-width="2" stroke-linejoin="round" stroke-miterlimit="10" fill="#FFFFFF" fill-rule="evenodd"/><path d="M515.997 200 511.003 270" stroke="#5D5D6D" stroke-width="2" stroke-linecap="round" stroke-linejoin="round" stroke-miterlimit="10" fill="none" fill-rule="evenodd"/><path d="M465.003 200 470 268.997" stroke="#000000" stroke-width="2" stroke-linejoin="round" stroke-miterlimit="10" fill="#FFFFFF" fill-rule="evenodd"/><path d="M465.003 200 470 268.997" stroke="#5D5D6D" stroke-width="2" stroke-linecap="round" stroke-linejoin="round" stroke-miterlimit="10" fill="none" fill-rule="evenodd"/><path d="M481 200 482.998 268.997" stroke="#000000" stroke-width="2" stroke-linejoin="round" stroke-miterlimit="10" fill="#FFFFFF" fill-rule="evenodd"/><path d="M481 200 482.998 268.997" stroke="#5D5D6D" stroke-width="2" stroke-linecap="round" stroke-linejoin="round" stroke-miterlimit="10" fill="none" fill-rule="evenodd"/><path d="M498 200 496.004 269" stroke="#000000" stroke-width="2" stroke-linejoin="round" stroke-miterlimit="10" fill="#FFFFFF" fill-rule="evenodd"/><path d="M498 200 496.004 269" stroke="#5D5D6D" stroke-width="2" stroke-linecap="round" stroke-linejoin="round" stroke-miterlimit="10" fill="none" fill-rule="evenodd"/><path d="M425.773 179.003 418.661 180.514C418.578 180.514 418.578 180.514 418.661 180.597L419.479 184.715C415.88 186.729 414 190.93 414.818 194.962L419.56 218.565C419.92 220.643 421.685 221.997 423.667 221.997 423.931 221.997 424.197 221.975 424.466 221.925L436.32 219.405C438.609 218.902 440 216.633 439.591 214.364L434.93 190.761C434.031 186.647 430.76 183.623 426.672 183.203L425.854 179.086C425.854 179.086 425.854 179.003 425.773 179.003Z" stroke="#5D5D6D" stroke-width="2" stroke-linecap="round" stroke-linejoin="round" stroke-miterlimit="10" fill="#FFFFFF" fill-rule="evenodd"/><path d="M433.48 191.003C433.332 191.003 433.178 191.016 433.024 191.046L416.04 194.423C414.852 194.672 414.003 195.824 414.257 197.06L414.341 197.225C414.492 198.238 415.495 198.997 416.543 198.997 416.688 198.997 416.83 198.984 416.976 198.954L433.96 195.577C435.234 195.331 435.997 194.176 435.743 192.94L435.743 192.778C435.519 191.762 434.572 191.003 433.48 191.003Z" stroke="#5D5D6D" stroke-width="2" stroke-linecap="round" stroke-linejoin="round" stroke-miterlimit="10" fill="#FFFFFF" fill-rule="evenodd"/><path d="M434.457 196.003C434.312 196.003 434.167 196.016 434.024 196.046L417.04 199.423C415.766 199.672 415.003 200.824 415.257 202.06L415.257 202.225C415.481 203.238 416.428 203.997 417.52 203.997 417.668 203.997 417.822 203.984 417.973 203.954L434.96 200.577C436.234 200.331 436.997 199.176 436.743 197.94L436.743 197.775C436.519 196.762 435.505 196.003 434.457 196.003Z" stroke="#5D5D6D" stroke-width="2" stroke-linecap="round" stroke-linejoin="round" stroke-miterlimit="10" fill="#FFFFFF" fill-rule="evenodd"/><path d="M435.513 200.003C435.354 200.003 435.189 200.019 435.027 200.049L418.126 203.427C416.852 203.674 416.003 204.825 416.257 206.06L416.344 206.226C416.567 207.239 417.514 208 418.604 208 418.755 208 418.906 207.984 419.059 207.954L435.96 204.578C437.234 204.332 437.997 203.178 437.743 201.942L437.743 201.78C437.522 200.704 436.592 200.003 435.513 200.003Z" stroke="#5D5D6D" stroke-width="2" stroke-linecap="round" stroke-linejoin="round" stroke-miterlimit="10" fill="#FFFFFF" fill-rule="evenodd"/><path d="M436.488 205C436.335 205 436.178 205.016 436.024 205.049L419.04 208.434C417.766 208.681 417.003 209.838 417.257 211.077L417.257 211.158C417.489 212.283 418.556 212.997 419.643 212.997 419.752 212.997 419.864 212.989 419.976 212.976L436.96 209.591C438.234 209.341 438.997 208.186 438.743 206.948L438.743 206.782C438.522 205.704 437.528 205 436.488 205Z" stroke="#5D5D6D" stroke-width="2" stroke-linecap="round" stroke-linejoin="round" stroke-miterlimit="10" fill="#FFFFFF" fill-rule="evenodd"/><path d="M423.355 176C423.113 176 422.866 176.026 422.618 176.079L420.058 176.558C418.239 176.958 417 178.72 417.413 180.478L417.66 182 426.997 180.16 426.668 178.638C426.38 177.108 424.97 176 423.355 176Z" stroke="#5D5D6D" stroke-width="2" stroke-linecap="round" stroke-linejoin="round" stroke-miterlimit="10" fill="#6880EA" fill-rule="evenodd"/><path d="M544.645 203.003C540.938 203.003 537.555 205.439 536.787 208.998 536.003 213.06 538.796 216.958 543.079 217.77L543.691 217.85C544.228 217.952 544.766 218 545.292 218 549.042 218 552.359 215.563 553.123 212.004 553.997 207.943 551.204 204.045 546.835 203.232L546.223 203.152C545.694 203.051 545.165 203.003 544.645 203.003Z" stroke="#5D5D6D" stroke-width="2" stroke-linecap="round" stroke-linejoin="round" stroke-miterlimit="10" fill="#6880EA" fill-rule="evenodd"/><path d="M537.383 209C534.966 209 534 212.518 536.411 213.677L534.476 230.411C534.221 231.917 535.232 233.257 536.746 233.508L543.9 234.928C544.097 234.975 544.299 234.997 544.496 234.997 545.728 234.997 546.893 234.136 547.181 232.839L551.558 216.606C552.652 216.521 553.493 215.769 553.745 214.682 553.997 213.341 553.156 212.086 551.81 211.753L538.009 209.074C537.793 209.025 537.583 209 537.383 209Z" stroke="#5D5D6D" stroke-width="2" stroke-linecap="round" stroke-linejoin="round" stroke-miterlimit="10" fill="#FFFFFF" fill-rule="evenodd"/><path d="M536.003 214.002 548.997 215.998" stroke="#000000" stroke-width="2" stroke-linejoin="round" stroke-miterlimit="10" fill="#FFFFFF" fill-rule="evenodd"/><path d="M536.003 214.002 548.997 215.998" stroke="#5D5D6D" stroke-width="2" stroke-linecap="round" stroke-linejoin="round" stroke-miterlimit="10" fill="none" fill-rule="evenodd"/><path d="M548 222 545 231.997" stroke="#000000" stroke-width="2" stroke-linejoin="round" stroke-miterlimit="10" fill="#FFFFFF" fill-rule="evenodd"/><path d="M548 222 545 231.997" stroke="#5D5D6D" stroke-width="2" stroke-linecap="round" stroke-linejoin="round" stroke-miterlimit="10" fill="none" fill-rule="evenodd"/><path d="M542 227.997 551.312 201.003 556.997 201.085" stroke="#5D5D6D" stroke-width="2" stroke-linecap="round" stroke-linejoin="round" stroke-miterlimit="10" fill="none" fill-rule="evenodd"/><path d="M546.562 242.003C545.739 242.003 545.045 242.532 544.831 243.297L543.899 246.598C543.899 246.679 543.729 246.764 543.646 246.764L543.476 246.764C543.055 246.658 542.634 246.606 542.221 246.606 540.055 246.606 538.112 247.999 537.544 250.145L532.459 268.543C532.459 268.543 532.459 268.543 532.459 268.624 532.121 268.955 531.868 269.368 531.781 269.862L530.764 273.409C530.003 276.297 531.698 279.269 534.747 280.092 535.037 280.168 535.333 280.206 535.623 280.206 536.615 280.206 537.588 279.785 538.307 279.02 538.369 278.99 538.43 278.971 538.489 278.971 538.589 278.971 538.675 279.028 538.731 279.185 538.985 280.423 540.002 281.414 541.271 281.826 541.736 281.943 542.202 281.997 542.662 281.997 545.14 281.997 547.42 280.382 548.137 277.948L549.068 274.4C549.238 273.988 549.238 273.659 549.238 273.247 549.151 273.247 549.151 273.162 549.151 273.162L554.32 254.434C555 251.961 553.472 249.32 550.846 248.661 550.763 248.661 550.676 248.495 550.676 248.33L551.61 245.113C551.864 244.123 551.27 243.216 550.339 242.966L547.033 242.06C546.874 242.022 546.715 242.003 546.562 242.003Z" stroke="#000000" stroke-width="2" stroke-linejoin="round" stroke-miterlimit="10" fill="#FFFFFF" fill-rule="evenodd"/><path d="M549.151 273.537 554.32 254.698C555 252.211 553.472 249.555 550.846 248.891L550.846 248.891C550.763 248.891 550.676 248.725 550.676 248.558L551.61 245.323C551.864 244.326 551.27 243.414 550.339 243.163L547.033 242.251C546.018 242.003 545.084 242.584 544.831 243.496L543.899 246.816C543.899 246.898 543.729 246.983 543.646 246.983L543.476 246.983C540.85 246.317 538.221 247.813 537.544 250.385L532.459 268.89C532.459 268.89 532.459 268.89 532.459 268.972 532.121 269.305 531.868 269.72 531.781 270.217L530.764 273.785C530.003 276.69 531.698 279.68 534.747 280.507L534.747 280.507C536.019 280.84 537.373 280.425 538.307 279.429 538.475 279.347 538.645 279.347 538.731 279.595 538.985 280.84 540.002 281.837 541.271 282.252L541.271 282.252C544.237 282.997 547.289 281.255 548.137 278.35L549.068 274.782C549.238 274.367 549.238 274.037 549.238 273.622 549.151 273.622 549.151 273.537 549.151 273.537Z" stroke="#5D5D6D" stroke-width="2" stroke-linecap="round" stroke-linejoin="round" stroke-miterlimit="10" fill="none" fill-rule="evenodd"/><path d="M546.66 240.003C545.179 240.003 543.825 241.105 543.417 242.814L543 244.359 552.082 247 552.498 245.452C553 243.449 551.832 241.356 549.998 240.811L547.666 240.174C547.331 240.057 546.991 240.003 546.66 240.003Z" stroke="#5D5D6D" stroke-width="2" stroke-linecap="round" stroke-linejoin="round" stroke-miterlimit="10" fill="#6880EA" fill-rule="evenodd"/><path d="M474.003 153 475.997 155.996" stroke="#000000" stroke-width="2" stroke-linejoin="round" stroke-miterlimit="10" fill="#5D5D6D" fill-rule="evenodd"/><path d="M474.003 153 475.997 155.996" stroke="#5D5D6D" stroke-width="2" stroke-linecap="round" stroke-linejoin="round" stroke-miterlimit="10" fill="none" fill-rule="evenodd"/><path d="M476 154.003 474.003 155.997" stroke="#000000" stroke-width="2" stroke-linejoin="round" stroke-miterlimit="10" fill="#5D5D6D" fill-rule="evenodd"/><path d="M476 154.003 474.003 155.997" stroke="#5D5D6D" stroke-width="2" stroke-linecap="round" stroke-linejoin="round" stroke-miterlimit="10" fill="none" fill-rule="evenodd"/><path d="M452.5 144.003C451.656 144.003 451.003 144.656 451.003 145.5 451.003 146.341 451.656 146.997 452.5 146.997 453.344 146.997 453.997 146.341 453.997 145.5 453.997 144.656 453.344 144.003 452.5 144.003Z" stroke="#5D5D6D" stroke-width="2" stroke-linecap="round" stroke-linejoin="round" stroke-miterlimit="10" fill="#FFFFFF" fill-rule="evenodd"/><path d="M539.549 178C538.678 178 538 178.452 538 178.967 538 179.548 538.678 179.998 539.549 179.998 540.322 179.998 540.997 179.548 540.997 178.967 540.997 178.452 540.322 178 539.549 178Z" stroke="#5D5D6D" stroke-width="2" stroke-linecap="round" stroke-linejoin="round" stroke-miterlimit="10" fill="#FFFFFF" fill-rule="evenodd"/><path d="M402 180C402 180 416.869 146.588 447.997 145.003" stroke="#5D5D6D" stroke-width="2" stroke-linecap="round" stroke-linejoin="round" stroke-miterlimit="10" fill="none" fill-rule="evenodd"/><path d="M408.757 234.003C407.333 234.003 406.091 235.302 406 236.899L406 238.599 413.912 239 413.912 237.199C414 235.601 412.845 234.204 411.333 234.102L408.757 234.003Z" stroke="#5D5D6D" stroke-width="2" stroke-linecap="round" stroke-linejoin="round" stroke-miterlimit="10" fill="#6880EA" fill-rule="evenodd"/><path d="M427.588 242.086C428.493 242.086 429.318 242.716 429.602 243.658L432.314 255.393C432.56 256.576 431.903 257.674 430.835 257.926L428.861 258.432C428.699 258.468 428.537 258.485 428.38 258.485 427.425 258.485 426.609 257.854 426.395 256.913L423.602 245.177C423.356 243.997 424.013 242.897 425.162 242.644L427.136 242.139C427.288 242.102 427.439 242.086 427.588 242.086ZM408.068 238.003 407.822 246.613 407.822 248.133 407.165 266.706C407 271.434 410.534 275.317 415.136 275.486L428.45 275.994C428.553 275.997 428.656 276 428.758 276 433.22 276 436.838 272.428 436.997 267.889L436.67 264.09C436.094 256.743 434.285 249.569 431.573 242.814 430.589 240.45 428.369 238.93 425.822 238.844L416.369 238.422 408.068 238.003Z" stroke="#5D5D6D" stroke-width="2" stroke-linejoin="round" stroke-miterlimit="10" fill="#FFFFFF" fill-rule="evenodd"/><path d="M408.068 238.003 407.822 246.576 407.822 248.089 407.165 266.583C407 271.29 410.534 275.156 415.136 275.325L428.45 275.831C433.052 275.997 436.835 272.383 436.997 267.761L436.67 263.978C436.094 256.663 434.285 249.519 431.573 242.793 430.589 240.439 428.369 238.926 425.822 238.841L416.369 238.42M429.602 243.634 432.314 255.318C432.56 256.497 431.903 257.589 430.835 257.841L428.861 258.344C427.712 258.596 426.644 257.924 426.395 256.831L423.602 245.146C423.356 243.971 424.013 242.876 425.162 242.624L427.136 242.121C428.204 241.869 429.272 242.541 429.602 243.634Z" stroke="#5D5D6D" stroke-width="2" stroke-linecap="round" stroke-linejoin="round" stroke-miterlimit="10" fill="none" fill-rule="evenodd"/><path d="M483.542 213C469.397 213 458 224.416 458 238.499 458 252.582 469.397 263.997 483.542 263.997 497.603 263.997 509 252.582 509 238.499 509 224.416 497.603 213 483.542 213Z" stroke="#5D5D6D" stroke-width="2" stroke-linecap="round" stroke-linejoin="round" stroke-miterlimit="10" fill="#FFFFFF" fill-rule="evenodd"/><path d="M498.997 247.003 484.003 247.16 484.003 253.681 496.631 253.997 498.997 247.003Z" stroke="#5D5D6D" stroke-width="2" stroke-linecap="round" stroke-linejoin="round" stroke-miterlimit="10" fill="#7E92FF" fill-rule="evenodd"/><path d="M491.222 237.003 489 245.059 489 245.059 491.054 244.009 496.441 253.997 501.997 249.084 497.552 240.79 499.519 239.822 491.222 237.003Z" stroke="#5D5D6D" stroke-width="2" stroke-linecap="round" stroke-linejoin="round" stroke-miterlimit="10" fill="#6880EA" fill-rule="evenodd"/><path d="M468.003 247.003 470.458 253.997 482.997 253.681 482.997 247.16 468.003 247.003Z" stroke="#5D5D6D" stroke-width="2" stroke-linecap="round" stroke-linejoin="round" stroke-miterlimit="10" fill="#7E92FF" fill-rule="evenodd"/><path d="M475.775 237.003 467.481 239.822 469.448 240.79 465.003 249.084 470.646 253.997 475.946 244.009 478 245.059 475.775 237.003Z" stroke="#5D5D6D" stroke-width="2" stroke-linecap="round" stroke-linejoin="round" stroke-miterlimit="10" fill="#6880EA" fill-rule="evenodd"/><path d="M487.207 221.003 480 223.515 488.531 235 493.997 230.891 487.207 221.003Z" stroke="#5D5D6D" stroke-width="2" stroke-linecap="round" stroke-linejoin="round" stroke-miterlimit="10" fill="#7E92FF" fill-rule="evenodd"/><path d="M480.061 219.003 475.834 227.63 474 226.707 476.314 234.997 483.97 231.815 481.976 230.812 487 220.427 480.061 219.003Z" stroke="#5D5D6D" stroke-width="2" stroke-linecap="round" stroke-linejoin="round" stroke-miterlimit="10" fill="#6880EA" fill-rule="evenodd"/><path d="M379.432 141 378.726 141.068 378.086 141.2 377.379 141.465 376.801 141.73 376.224 142.127 375.711 142.592 375.261 143.122 374.877 143.719 374.302 143.254 373.596 142.922 372.827 142.724 372.055 142.657 371.543 142.657 371.093 142.789 370.709 142.857 370.261 143.057 369.874 143.254 369.49 143.454 369.106 143.719 368.784 144.049 368.528 144.381 368.271 144.778 368.015 145.111 367.824 145.573 367.696 145.973 367.568 146.435 367.503 146.9 367.437 147.365 367.503 148.092 367.696 148.822 367.053 148.822 366.606 148.889 366.284 149.022 365.9 149.154 365.643 149.419 365.387 149.749 365.194 150.081 365.065 150.478 365.003 150.943 365.065 151.34 365.194 151.738 365.387 152.07 365.643 152.4 365.9 152.668 366.284 152.865 366.606 152.932 367.053 152.997 385.01 152.997 385.394 152.932 385.779 152.865 386.1 152.668 386.422 152.4 386.678 152.07 386.869 151.738 386.997 151.34 386.997 150.943 386.997 150.478 386.869 150.081 386.678 149.749 386.422 149.419 386.1 149.154 385.779 149.022 385.394 148.889 385.01 148.822 384.241 148.822 384.497 148.292 384.626 147.695 384.754 147.1 384.754 146.503 384.754 145.905 384.691 145.376 384.497 144.846 384.369 144.381 384.113 143.916 383.857 143.454 383.535 142.989 383.213 142.592 382.829 142.259 382.445 141.93 381.998 141.665 381.548 141.465 381.035 141.265 380.52 141.132 380.007 141.068 379.432 141Z" fill="#FFFFFF" fill-rule="evenodd"/><path d="M365.387 150.003 365.259 150.242 365.131 150.542 365.065 150.782 365.003 151.141 365.065 151.5 365.194 151.859 365.387 152.16 365.578 152.458 365.9 152.699 366.284 152.878 366.606 152.939 367.053 152.997 385.01 152.997 385.394 152.939 385.779 152.878 386.1 152.699 386.422 152.458 386.678 152.16 386.869 151.859 386.997 151.5 386.997 151.141 386.997 150.782 386.935 150.542 386.806 150.242 386.613 150.003 386.294 150.303 385.907 150.542 385.46 150.721 385.01 150.782 367.053 150.782 366.54 150.721 366.09 150.542 365.706 150.303 365.387 150.003Z" fill="#E4ECF2" fill-rule="evenodd"/><path d="M379.379 141.082 379.951 141.148 380.46 141.211 380.972 141.341 381.481 141.538 381.928 141.734 382.372 141.994 382.754 142.317 383.136 142.643 383.455 143.033 383.775 143.489 384.03 143.943 384.284 144.399 384.412 144.855 384.604 145.375 384.666 145.894 384.666 146.48 384.666 147.066 384.539 147.65 384.412 148.236 384.157 148.755 384.921 148.755 385.303 148.822 385.685 148.952 386.004 149.082 386.324 149.341 386.578 149.665 386.768 149.991 386.895 150.381 386.895 150.837 386.895 151.227 386.768 151.616 386.578 151.943 386.324 152.266 386.004 152.529 385.685 152.722 385.303 152.789 384.921 152.852 367.079 152.852 366.635 152.789 366.315 152.722 365.933 152.529 365.679 152.266 365.424 151.943 365.232 151.616 365.105 151.227 365.042 150.837 365.105 150.381 365.232 149.991 365.424 149.665 365.679 149.341 365.933 149.082 366.315 148.952 366.635 148.822 367.079 148.755 367.718 148.755 367.526 148.039 367.461 147.326 367.526 146.87 367.591 146.414 367.718 145.961 367.846 145.568 368.035 145.115 368.29 144.789 368.545 144.399 368.799 144.073 369.119 143.749 369.501 143.489 369.883 143.293 370.267 143.1 370.711 142.903 371.093 142.837 371.54 142.707 372.049 142.707 372.816 142.773 373.58 142.967 374.281 143.293 374.853 143.749 375.235 143.163 375.682 142.643 376.191 142.187 376.765 141.798 377.339 141.538 378.041 141.278 378.677 141.148 379.379 141.082ZM378.677 139 378.041 139.133 377.339 139.326 376.703 139.522 376.064 139.846 375.427 140.172 374.918 140.562 374.344 141.018 373.769 140.888 373.198 140.692 372.624 140.628 371.348 140.628 370.711 140.758 370.14 140.888 369.566 141.082 368.991 141.408 368.417 141.668 367.973 142.057 367.461 142.447 367.079 142.903 366.697 143.423 366.315 143.943 366.061 144.529 365.806 145.115 365.614 145.698 365.487 146.35 365.424 147 364.915 147.26 364.468 147.65 364.021 148.039 363.704 148.496 363.385 149.015 363.192 149.601 363.065 150.187 363.003 150.837 363.003 151.227 363.065 151.616 363.192 152.073 363.32 152.396 363.512 152.789 363.704 153.112 364.213 153.764 364.785 154.284 365.105 154.478 365.487 154.607 365.868 154.804 366.253 154.867 366.635 154.934 367.079 154.997 384.921 154.997 385.303 154.934 385.75 154.867 386.132 154.804 386.513 154.607 386.833 154.478 387.215 154.284 387.789 153.764 388.298 153.112 388.491 152.789 388.68 152.396 388.808 152.073 388.873 151.616 388.935 151.227 389 150.837 388.935 150.187 388.808 149.665 388.618 149.082 388.361 148.562 388.044 148.106 387.662 147.716 387.215 147.39 386.706 147.066 386.768 146.48 386.706 145.698 386.578 144.985 386.386 144.269 386.197 143.553 385.877 142.903 385.495 142.317 385.048 141.734 384.604 141.211 384.092 140.692 383.52 140.236 382.881 139.912 382.245 139.586 381.608 139.326 380.907 139.133 380.143 139Z" fill="#5D5D6D" fill-rule="evenodd"/><path d="M591.833 177 591.252 177.077 590.753 177.151 590.25 177.38 589.836 177.757 589.584 178.059 589.336 178.365 589.085 178.893 589.004 179.498 589.085 180.03 589.251 180.484 589.503 180.938 589.836 181.317 590.25 181.62 590.753 181.849 591.252 182 602.748 182 603.332 181.849 603.746 181.62 604.164 181.317 604.497 180.938 604.749 180.484 604.915 180.03 604.996 179.498 604.915 178.893 604.749 178.365 604.497 178.059 604.249 177.834 603.998 177.605 603.746 177.38 603.332 177.229 602.999 177.077 602.581 177Z" stroke="#5D5D6D" stroke-width="2" stroke-linejoin="round" stroke-miterlimit="10" fill="#E4ECF2" fill-rule="evenodd"/><path d="M592.433 177 591.868 177.083 591.382 177.162 590.893 177.406 590.489 177.809 590.245 178.133 590.003 178.46 590.165 178.784 590.407 179.108 590.651 179.349 590.975 179.594 591.299 179.755 591.623 179.917 592.03 179.997 602.567 179.997 603.053 179.917 603.622 179.755 604.025 179.511 604.431 179.187 604.755 178.863 605 178.46 604.755 178.133 604.514 177.892 604.269 177.648 604.025 177.406 603.622 177.245 603.298 177.083 602.891 177Z" fill="#FFFFFF" fill-rule="evenodd"/><path d="M602.248 177 602.248 177 602.581 177 602.999 177.077 603.332 177.229 603.746 177.38 603.998 177.605 604.249 177.834 604.497 178.059 604.749 178.365 604.749 178.365 604.915 178.893 604.996 179.498 604.996 179.498 604.915 180.03 604.749 180.484 604.497 180.938 604.164 181.317 604.164 181.317 603.746 181.62 603.332 181.849 602.748 182 602.248 182 591.833 182 591.833 182 591.252 182 590.753 181.849 590.25 181.62 589.836 181.317 589.503 180.938 589.251 180.484 589.085 180.03 589.004 179.498 589.004 179.498 589.085 178.893 589.336 178.365 589.336 178.365 589.584 178.059 589.836 177.757 589.836 177.757 590.25 177.38 590.753 177.151 591.252 177.077 591.833 177 602.248 177" stroke="#5D5D6D" stroke-width="2" stroke-linejoin="round" stroke-miterlimit="10" fill="none" fill-rule="evenodd"/><path d="M612.704 177 612.15 177.077 611.673 177.151 611.197 177.38 610.798 177.757 610.558 178.059 610.321 178.365 610.081 178.893 610.003 179.498 610.081 180.03 610.24 180.484 610.48 180.938 610.798 181.317 611.197 181.62 611.673 181.849 612.15 182 614.854 182 615.33 181.849 615.807 181.62 616.206 181.317 616.523 180.938 616.76 180.484 616.919 180.03 617 179.498 616.919 178.893 616.682 178.365 616.523 178.059 616.283 177.834 616.047 177.605 615.726 177.38 615.408 177.229 615.09 177.077 614.695 177Z" stroke="#5D5D6D" stroke-width="2" stroke-linejoin="round" stroke-miterlimit="10" fill="#E4ECF2" fill-rule="evenodd"/><path d="M612.625 177 612.015 177.083 611.491 177.162 610.967 177.406 610.528 177.809 610.264 178.133 610.004 178.46 610.178 178.784 610.439 179.108 610.703 179.349 611.052 179.594 611.401 179.755 611.751 179.917 612.19 179.997 614.375 179.997 614.989 179.917 615.513 179.755 616.037 179.511 616.476 179.187 616.736 178.863 617 178.46 616.825 178.133 616.561 177.892 616.301 177.648 615.948 177.406 615.599 177.245 615.249 177.083 614.814 177Z" fill="#FFFFFF" fill-rule="evenodd"/><path d="M614.296 177 614.296 177 614.695 177 615.09 177.077 615.408 177.229 615.726 177.38 616.047 177.605 616.283 177.834 616.523 178.059 616.682 178.365 616.682 178.365 616.919 178.893 617 179.498 617 179.498 616.919 180.03 616.76 180.484 616.523 180.938 616.206 181.317 616.206 181.317 615.807 181.62 615.33 181.849 614.854 182 614.296 182 612.704 182 612.704 182 612.15 182 611.673 181.849 611.197 181.62 610.798 181.317 610.48 180.938 610.24 180.484 610.081 180.03 610.003 179.498 610.003 179.498 610.081 178.893 610.321 178.365 610.321 178.365 610.558 178.059 610.798 177.757 610.798 177.757 611.197 177.38 611.673 177.151 612.15 177.077 612.704 177 614.296 177" stroke="#5D5D6D" stroke-width="2" stroke-linejoin="round" stroke-miterlimit="10" fill="none" fill-rule="evenodd"/><path d="M533.919 254.003 531.003 265.133 552.083 271 555 259.87 533.919 254.003Z" stroke="#5D5D6D" stroke-width="2" stroke-linecap="round" stroke-linejoin="round" stroke-miterlimit="10" fill="#6880EA" fill-rule="evenodd"/></g></svg>