<svg width="746" height="929" xmlns="http://www.w3.org/2000/svg" xmlns:xlink="http://www.w3.org/1999/xlink" overflow="hidden"><defs><clipPath id="clip0"><rect x="1277" y="634" width="746" height="929"/></clipPath></defs><g clip-path="url(#clip0)" transform="translate(-1277 -634)"><path d="M1715.01 1267.01 1717.96 1305.04 1733.67 1508.03 1734.66 1520.71C1734.98 1524.83 1738.42 1528 1742.83 1528L1908.17 1528C1912.42 1528 1916.02 1524.83 1916.34 1520.71L1917.33 1508.03 1933.05 1305.04 1935.99 1267.01Z" fill="#FE6A43" fill-rule="evenodd"/><path d="M1715.01 1267.01 1717.96 1305.04 1733.67 1508 1917.33 1508 1933.05 1305.04 1935.99 1267.01Z" fill="#01C3B4" fill-rule="evenodd"/><path d="M1715.01 1267.01 1717.96 1305.04 1733.67 1508 1917.33 1508 1933.05 1305.04 1935.99 1267.01Z" fill="#FE7D56" fill-rule="evenodd"/><path d="M1715.01 1267.01 1717.96 1305 1933.05 1305 1935.99 1267.01Z" fill="#FE6A43" fill-rule="evenodd"/><path d="M1930.68 1271.22 1911.54 1520.76C1911.37 1522.51 1909.91 1523.78 1908.1 1523.78L1742.88 1523.78C1741.09 1523.78 1739.45 1522.51 1739.45 1520.76L1720.15 1271.22ZM1710 1262.01 1729.97 1521.4C1730.45 1527.91 1736.18 1533 1742.88 1533L1908.1 1533C1914.81 1533 1920.53 1527.91 1921.03 1521.4L1940.99 1262.01Z" fill="#5D5D6D" fill-rule="evenodd"/><path d="M1716.16 1247.01C1710.43 1247.01 1705.19 1249.18 1701.24 1252.89 1699.27 1254.75 1697.63 1257.07 1696.65 1259.56 1695.49 1261.89 1695 1264.36 1695 1266.99 1695 1278.16 1704.52 1286.99 1716.16 1286.99L1933.81 1286.99C1939.57 1286.99 1944.81 1284.82 1948.76 1281.1 1952.52 1277.53 1955 1272.57 1955 1266.99 1955 1264.36 1954.49 1261.89 1953.35 1259.56 1950.39 1252.28 1942.67 1247.01 1933.81 1247.01Z" fill="#FE6A43" fill-rule="evenodd"/><path d="M1716.55 1247.01C1710.81 1247.01 1705.56 1249.16 1701.61 1252.83 1699.64 1254.67 1698 1256.97 1697.01 1259.43 1699.96 1266.79 1707.68 1272 1716.55 1272L1934.43 1272C1940.19 1272 1945.44 1269.71 1949.39 1266.17 1951.36 1264.33 1953 1262.03 1953.99 1259.43 1951.03 1252.22 1943.3 1247.01 1934.43 1247.01Z" fill="#FE7D56" fill-rule="evenodd"/><path d="M1934.02 1251.18C1940.76 1251.18 1946.69 1255.14 1949.31 1261.15 1949.98 1263.05 1950.46 1264.95 1950.46 1267 1950.46 1271.28 1948.66 1275.23 1945.53 1278.24 1942.41 1281.23 1938.29 1282.82 1934.02 1282.82L1715.98 1282.82C1706.95 1282.82 1699.55 1275.7 1699.55 1267 1699.55 1264.95 1700.05 1263.05 1700.87 1261.15 1701.52 1259.08 1702.84 1257.36 1704.48 1255.77 1707.61 1252.76 1711.72 1251.18 1715.98 1251.18ZM1715.98 1242C1709.08 1242 1702.67 1244.54 1697.75 1249.28 1695.12 1251.82 1693.14 1254.66 1691.99 1257.67 1690.66 1260.67 1690.01 1263.84 1690.01 1267 1690.01 1280.77 1701.7 1291.99 1715.98 1291.99L1934.02 1291.99C1940.93 1291.99 1947.34 1289.46 1952.28 1284.72 1957.21 1279.97 1960 1273.64 1960 1267 1960 1263.84 1959.34 1260.67 1958.02 1257.82 1954.09 1248.18 1944.71 1242 1934.02 1242Z" fill="#5D5D6D" fill-rule="evenodd"/><path d="M1799.79 1402C1799.39 1402 1798.99 1402.06 1798.62 1402.16L1789.72 1404.86C1787.23 1405.5 1785.91 1408.03 1786.75 1410.25 1787.23 1412.16 1788.88 1413.26 1790.69 1413.26L1777.85 1435.48C1777.01 1436.75 1777.01 1438.5 1777.85 1439.77 1778.65 1441.04 1780.15 1441.99 1781.79 1441.99L1819.53 1441.99C1822.02 1441.99 1824 1439.92 1824 1437.55 1824 1435.16 1822.02 1433.26 1819.53 1433.26L1789.53 1433.26 1798.43 1417.87C1799.27 1418.97 1800.58 1419.46 1801.91 1419.46L1802.89 1419.46C1805.37 1418.97 1806.85 1416.6 1806.36 1414.22L1804.38 1405.5C1804.04 1404.23 1803.39 1403.28 1802.24 1402.64 1801.45 1402.22 1800.61 1402 1799.79 1402Z" fill="#FFFFFF" fill-rule="evenodd"/><path d="M1851.53 1404.01C1850.81 1404.01 1850.08 1404.18 1849.37 1404.53 1847.24 1405.82 1846.42 1408.54 1847.73 1410.64L1860.52 1433.02 1845.44 1433.02C1846.26 1431.4 1845.93 1429.48 1844.62 1428.18 1843.74 1427.24 1842.53 1426.75 1841.31 1426.75 1840.27 1426.75 1839.22 1427.12 1838.38 1427.86L1831.49 1434.15C1830.51 1434.95 1830.01 1436.24 1830.01 1437.37 1830.01 1438.66 1830.51 1439.78 1831.49 1440.59L1838.38 1446.87C1839.2 1447.67 1840.35 1448 1841.34 1448 1842.65 1448 1843.79 1447.5 1844.62 1446.54 1845.93 1445.25 1846.26 1443.32 1845.44 1441.88L1868.25 1441.88C1869.89 1441.88 1871.35 1440.91 1872.18 1439.62 1873 1438.34 1873 1436.56 1872.18 1435.27L1855.61 1406.29C1854.69 1404.85 1853.15 1404.01 1851.53 1404.01Z" fill="#FFFFFF" fill-rule="evenodd"/><path d="M1824.94 1357.01C1823.31 1357.01 1821.83 1357.8 1821.01 1359.25L1803.15 1390.15C1802.01 1392.39 1802.66 1394.95 1804.78 1396.23 1805.49 1396.58 1806.23 1396.74 1806.95 1396.74 1808.57 1396.74 1810.1 1395.91 1811.01 1394.48L1824.94 1370.29 1834.12 1385.99C1832.48 1386.3 1831.17 1387.27 1830.52 1388.86 1829.54 1391.1 1830.85 1393.67 1833.14 1394.48L1841.82 1397.84C1842.31 1398 1842.8 1398 1843.45 1398 1844.11 1398 1844.76 1398 1845.42 1397.68 1846.57 1397.04 1847.39 1396.08 1847.71 1394.95L1850.34 1386.15C1850.99 1383.91 1849.68 1381.34 1847.39 1380.71 1846.99 1380.61 1846.61 1380.57 1846.22 1380.57 1844.67 1380.57 1843.22 1381.31 1842.31 1382.46L1828.88 1359.25C1828.05 1357.8 1826.58 1357.01 1824.94 1357.01Z" fill="#FFFFFF" fill-rule="evenodd"/><path d="M1800.01 1401.52C1800.82 1401.52 1801.65 1401.67 1802.32 1402.15 1803.46 1402.79 1804.12 1403.74 1804.46 1405.01L1806.44 1413.72C1806.93 1416.11 1805.45 1418.48 1802.97 1418.97L1801.99 1418.97C1800.66 1418.97 1799.35 1418.48 1798.51 1417.37L1789.61 1432.76 1819.61 1432.76C1822.1 1432.76 1824.08 1434.67 1824.08 1437.05 1824.08 1439.42 1822.1 1441.49 1819.61 1441.49L1781.87 1441.49C1780.23 1441.49 1778.73 1440.54 1777.92 1439.27 1777.09 1438 1777.09 1436.25 1777.92 1434.98L1790.77 1412.77C1788.96 1412.77 1787.31 1411.67 1786.82 1409.76 1785.99 1407.54 1787.31 1405.01 1789.79 1404.37L1798.69 1401.67C1799.18 1401.52 1799.5 1401.52 1800.01 1401.52ZM1800.01 1395C1798.85 1395 1797.86 1395.17 1796.71 1395.49L1787.81 1398.17C1781.7 1399.93 1778.41 1405.96 1780.23 1411.67 1780.56 1412.93 1781.22 1413.89 1781.87 1414.84L1771.98 1431.81C1770.01 1435.15 1770.01 1439.27 1772.14 1442.6 1774.12 1445.93 1777.75 1447.99 1781.87 1447.99L1819.61 1447.99C1825.88 1447.99 1831 1443.08 1831 1437.05 1831 1431.02 1825.88 1426.27 1819.61 1426.27L1801.16 1426.27 1801.48 1425.63 1801.99 1425.63C1802.8 1425.63 1803.63 1425.46 1804.46 1425.31 1807.41 1424.67 1809.9 1422.93 1811.54 1420.55 1813.2 1418.16 1813.68 1415.15 1813.02 1412.31L1811.05 1403.57C1810.39 1400.57 1808.4 1398.02 1805.77 1396.44 1803.96 1395.49 1801.99 1395 1800.01 1395Z" fill="#5D5D6D" fill-rule="evenodd"/><path d="M1851.49 1404.47C1852.98 1404.47 1854.62 1405.27 1855.45 1406.68L1872.08 1435.07C1872.91 1436.33 1872.91 1438.08 1872.08 1439.34 1871.25 1440.6 1869.78 1441.54 1868.14 1441.54L1845.24 1441.54C1846.07 1442.95 1845.73 1444.85 1844.42 1446.11 1843.58 1447.05 1842.44 1447.54 1841.12 1447.54 1840.13 1447.54 1838.98 1447.22 1838.15 1446.43L1831.24 1440.28C1830.25 1439.49 1829.76 1438.39 1829.76 1437.13 1829.76 1436.02 1830.25 1434.76 1831.24 1433.97L1838.15 1427.81C1838.98 1427.18 1840.13 1426.72 1841.12 1426.72 1842.44 1426.72 1843.58 1427.18 1844.42 1428.13 1845.73 1429.4 1846.07 1431.28 1845.24 1432.86L1860.38 1432.86 1847.54 1410.94C1846.23 1408.89 1847.05 1406.22 1849.18 1404.96 1850.02 1404.63 1850.68 1404.47 1851.49 1404.47ZM1851.49 1398.01C1849.52 1398.01 1847.54 1398.47 1845.89 1399.27 1840.46 1402.26 1838.49 1408.89 1841.61 1414.1L1845.89 1421.19C1844.42 1420.56 1842.78 1420.25 1841.12 1420.25 1838.31 1420.25 1835.52 1421.35 1833.55 1423.09L1826.63 1429.24C1824.33 1431.28 1823.01 1434.12 1823.01 1437.13 1823.01 1440.12 1824.33 1443.13 1826.63 1445.17L1833.55 1451.16C1835.52 1453.05 1838.31 1454 1841.12 1454 1844.25 1454 1847.39 1452.74 1849.52 1450.53 1850.17 1449.75 1850.84 1448.95 1851.33 1448L1868.14 1448C1872.24 1448 1875.86 1445.96 1878.01 1442.64 1879.99 1439.34 1879.99 1435.23 1878.01 1431.92L1861.37 1403.52C1859.23 1400.06 1855.45 1398.01 1851.49 1398.01Z" fill="#5D5D6D" fill-rule="evenodd"/><path d="M1824.92 1357.42C1826.58 1357.42 1828.06 1358.19 1828.89 1359.61L1842.45 1382.26C1843.27 1381.17 1844.76 1380.39 1846.25 1380.39 1846.58 1380.39 1847.07 1380.39 1847.57 1380.55 1849.88 1381.17 1851.21 1383.68 1850.55 1385.86L1847.9 1394.45C1847.57 1395.55 1846.75 1396.49 1845.59 1397.12 1844.92 1397.43 1844.26 1397.43 1843.6 1397.43 1842.94 1397.43 1842.45 1397.43 1841.95 1397.27L1833.19 1393.99C1830.88 1393.2 1829.56 1390.7 1830.55 1388.51 1831.21 1386.95 1832.53 1386.01 1834.19 1385.7L1824.92 1370.38 1810.87 1393.99C1810.05 1395.39 1808.4 1396.18 1806.9 1396.18 1806.08 1396.18 1805.42 1396.02 1804.59 1395.7 1802.44 1394.45 1801.79 1391.95 1802.94 1389.77L1820.96 1359.61C1821.79 1358.19 1823.27 1357.42 1824.92 1357.42ZM1824.92 1351.01C1820.79 1351.01 1816.99 1353.05 1815 1356.48L1796.98 1386.64C1794 1391.81 1795.83 1398.37 1801.28 1401.33 1802.94 1402.11 1804.91 1402.58 1806.9 1402.58 1811.04 1402.58 1814.68 1400.55 1816.82 1397.12L1824.92 1383.52 1825.26 1384.13C1824.92 1384.76 1824.43 1385.38 1824.27 1386.17 1821.95 1391.63 1824.92 1397.89 1830.71 1399.92L1839.48 1403.2C1840.8 1403.68 1842.12 1403.99 1843.6 1403.99 1845.26 1403.99 1847.07 1403.52 1848.56 1402.89 1851.37 1401.49 1853.52 1399.15 1854.35 1396.33L1857.15 1387.74C1857.99 1384.92 1857.66 1382.11 1856.17 1379.61 1854.68 1377.12 1852.37 1375.24 1849.4 1374.45 1848.41 1374.14 1847.24 1373.99 1846.25 1373.99L1845.26 1373.99 1834.84 1356.48C1832.87 1353.05 1829.05 1351.01 1824.92 1351.01Z" fill="#5D5D6D" fill-rule="evenodd"/><path d="M1366.01 1267.01 1368.97 1305.04 1384.59 1508.03 1385.58 1520.71C1385.92 1524.83 1389.53 1528 1393.81 1528L1560.2 1528C1564.47 1528 1568.09 1524.83 1568.25 1520.71L1569.24 1508.03 1585.03 1305.04 1588 1267.01Z" fill="#8C979E" fill-rule="evenodd"/><path d="M1366.01 1267.01 1368.97 1305.04 1384.59 1508 1569.24 1508 1585.03 1305.04 1588 1267.01Z" fill="#8C979E" fill-rule="evenodd"/><path d="M1366.01 1267.01 1368.97 1305.04 1384.59 1508 1569.24 1508 1585.03 1305.04 1588 1267.01Z" fill="#E4ECF2" fill-rule="evenodd"/><path d="M1366.01 1267.01 1368.97 1305 1585.03 1305 1588 1267.01Z" fill="#8C979E" fill-rule="evenodd"/><path d="M1582.8 1271.22 1563.56 1520.76C1563.41 1522.51 1561.91 1523.78 1560.12 1523.78L1393.9 1523.78C1392.09 1523.78 1390.61 1522.51 1390.45 1520.76L1371.2 1271.22ZM1361.01 1262.01 1381.07 1521.4C1381.57 1527.91 1387.16 1533 1393.9 1533L1560.12 1533C1566.85 1533 1572.44 1527.91 1572.93 1521.4L1592.99 1262.01Z" fill="#5D5D6D" fill-rule="evenodd"/><path d="M1368.2 1247.01C1362.45 1247.01 1357.04 1249.18 1353.24 1252.89 1351.13 1254.75 1349.64 1257.07 1348.49 1259.56 1347.51 1261.89 1347.01 1264.36 1347.01 1266.99 1347.01 1278.16 1356.53 1286.99 1368.2 1286.99L1585.81 1286.99C1591.72 1286.99 1596.98 1284.82 1600.76 1281.1 1604.7 1277.53 1607 1272.57 1607 1266.99 1607 1264.36 1606.49 1261.89 1605.52 1259.56 1602.4 1252.28 1594.85 1247.01 1585.81 1247.01Z" fill="#8C979E" fill-rule="evenodd"/><path d="M1367.71 1247.01C1361.96 1247.01 1356.54 1249.16 1352.75 1252.83 1350.63 1254.67 1349.14 1256.97 1348 1259.43 1351.12 1266.79 1358.67 1272 1367.71 1272L1585.29 1272C1591.2 1272 1596.46 1269.71 1600.24 1266.17 1602.37 1264.33 1604.01 1262.03 1605 1259.43 1601.88 1252.22 1594.33 1247.01 1585.29 1247.01Z" fill="#FFFFFF" fill-rule="evenodd"/><path d="M1451.79 1402C1451.38 1402 1450.98 1402.06 1450.6 1402.16L1441.54 1404.86C1439.23 1405.5 1437.91 1408.03 1438.57 1410.25 1439.23 1412.16 1440.87 1413.26 1442.69 1413.26L1429.66 1435.48C1429.01 1436.75 1429.01 1438.5 1429.82 1439.77 1430.65 1441.04 1432.13 1441.99 1433.63 1441.99L1471.54 1441.99C1474.01 1441.99 1475.99 1439.92 1475.99 1437.55 1475.99 1435.16 1474.01 1433.26 1471.54 1433.26L1441.37 1433.26 1450.44 1417.87C1451.26 1418.97 1452.58 1419.46 1453.9 1419.46L1454.89 1419.46C1457.36 1418.97 1458.85 1416.6 1458.35 1414.22L1456.37 1405.5C1456.05 1404.23 1455.21 1403.28 1454.22 1402.64 1453.46 1402.22 1452.61 1402 1451.79 1402Z" fill="#FFFFFF" fill-rule="evenodd"/><path d="M1503.45 1404.01C1502.74 1404.01 1502.02 1404.18 1501.37 1404.53 1499.23 1405.82 1498.41 1408.54 1499.55 1410.64L1512.52 1433.02 1497.42 1433.02C1498.08 1431.4 1497.92 1429.48 1496.61 1428.18 1495.72 1427.24 1494.47 1426.75 1493.2 1426.75 1492.12 1426.75 1491.04 1427.12 1490.21 1427.86L1483.31 1434.15C1482.49 1434.95 1482 1436.24 1482 1437.37 1482 1438.66 1482.49 1439.78 1483.31 1440.59L1490.21 1446.87C1491.2 1447.67 1492.18 1448 1493.32 1448 1494.48 1448 1495.79 1447.5 1496.61 1446.54 1497.92 1445.25 1498.08 1443.32 1497.42 1441.88L1520.23 1441.88C1521.86 1441.88 1523.35 1440.91 1524.17 1439.62 1524.99 1438.34 1524.99 1436.56 1524.17 1435.27L1507.42 1406.29C1506.64 1404.85 1505.06 1404.01 1503.45 1404.01Z" fill="#FFFFFF" fill-rule="evenodd"/><path d="M1477.03 1357.01C1475.39 1357.01 1473.93 1357.8 1473.1 1359.25L1455.32 1390.15C1454.01 1392.39 1454.83 1394.95 1456.95 1396.23 1457.6 1396.58 1458.32 1396.74 1459.02 1396.74 1460.63 1396.74 1462.19 1395.91 1462.98 1394.48L1477.03 1370.29 1486.01 1385.99C1484.54 1386.3 1483.07 1387.27 1482.58 1388.86 1481.6 1391.1 1482.75 1393.67 1485.03 1394.48L1493.68 1397.84C1494.34 1398 1494.83 1398 1495.32 1398 1495.97 1398 1496.79 1398 1497.27 1397.68 1498.43 1397.04 1499.23 1396.08 1499.73 1394.95L1502.34 1386.15C1503 1383.91 1501.68 1381.34 1499.23 1380.71 1498.85 1380.61 1498.45 1380.57 1498.07 1380.57 1496.54 1380.57 1495.12 1381.31 1494.34 1382.46L1480.94 1359.25C1480.14 1357.8 1478.66 1357.01 1477.03 1357.01Z" fill="#FFFFFF" fill-rule="evenodd"/><path d="M1586 1251.18C1592.91 1251.18 1598.82 1255.14 1601.31 1261.15 1602.12 1263.05 1602.45 1264.95 1602.45 1267 1602.45 1271.28 1600.8 1275.23 1597.68 1278.24 1594.55 1281.23 1590.45 1282.82 1586 1282.82L1368 1282.82C1358.95 1282.82 1351.55 1275.7 1351.55 1267 1351.55 1264.95 1351.87 1263.05 1352.69 1261.15 1353.52 1259.08 1354.67 1257.36 1356.31 1255.77 1359.44 1252.76 1363.55 1251.18 1368 1251.18ZM1368 1242C1361.09 1242 1354.51 1244.54 1349.57 1249.28 1347.1 1251.82 1345.12 1254.66 1343.81 1257.67 1342.66 1260.67 1342 1263.84 1342 1267 1342 1280.77 1353.68 1291.99 1368 1291.99L1586 1291.99C1592.91 1291.99 1599.49 1289.46 1604.42 1284.72 1609.36 1279.97 1611.99 1273.64 1611.99 1267 1611.99 1263.84 1611.34 1260.67 1610.19 1257.82 1606.24 1248.18 1596.69 1242 1586 1242Z" fill="#5D5D6D" fill-rule="evenodd"/><path d="M1452.08 1401.52C1452.91 1401.52 1453.58 1401.67 1454.39 1402.15 1455.38 1402.79 1456.22 1403.74 1456.54 1405.01L1458.53 1413.72C1459.03 1416.11 1457.54 1418.48 1455.05 1418.97L1454.06 1418.97C1452.74 1418.97 1451.42 1418.48 1450.6 1417.37L1441.51 1432.76 1471.75 1432.76C1474.22 1432.76 1476.21 1434.67 1476.21 1437.05 1476.21 1439.42 1474.22 1441.49 1471.75 1441.49L1433.74 1441.49C1432.24 1441.49 1430.77 1440.54 1429.93 1439.27 1429.12 1438 1429.12 1436.25 1429.77 1434.98L1442.83 1412.77C1441.01 1412.77 1439.36 1411.67 1438.7 1409.76 1438.04 1407.54 1439.36 1405.01 1441.68 1404.37L1450.76 1401.67C1451.08 1401.52 1451.59 1401.52 1452.08 1401.52ZM1452.08 1395C1450.93 1395 1449.76 1395.17 1448.77 1395.49L1439.69 1398.17C1433.74 1399.93 1430.44 1405.96 1432.24 1411.67 1432.58 1412.93 1433.08 1413.89 1433.9 1414.84L1423.99 1431.81C1422 1435.15 1422 1439.27 1423.99 1442.6 1425.97 1445.93 1429.77 1447.99 1433.74 1447.99L1471.75 1447.99C1477.87 1447.99 1482.99 1443.08 1482.99 1437.05 1482.99 1431.02 1477.87 1426.27 1471.75 1426.27L1453.24 1426.27 1453.58 1425.63 1454.06 1425.63C1454.9 1425.63 1455.72 1425.46 1456.54 1425.31 1459.52 1424.67 1461.99 1422.93 1463.65 1420.55 1465.3 1418.16 1465.81 1415.15 1465.14 1412.31L1463.16 1403.57C1462.5 1400.57 1460.52 1398.02 1457.69 1396.44 1456.05 1395.49 1454.06 1395 1452.08 1395Z" fill="#5D5D6D" fill-rule="evenodd"/><path d="M1503.42 1404.47C1505.05 1404.47 1506.55 1405.27 1507.35 1406.68L1524.12 1435.07C1524.94 1436.33 1524.94 1438.08 1524.12 1439.34 1523.3 1440.6 1521.81 1441.54 1520.17 1441.54L1497.34 1441.54C1498 1442.95 1497.83 1444.85 1496.52 1446.11 1495.7 1447.05 1494.39 1447.54 1493.23 1447.54 1492.09 1447.54 1491.1 1447.22 1490.12 1446.43L1483.21 1440.28C1482.39 1439.49 1481.9 1438.39 1481.9 1437.13 1481.9 1436.02 1482.39 1434.76 1483.21 1433.97L1490.12 1427.81C1491.1 1427.18 1492.09 1426.72 1493.23 1426.72 1494.39 1426.72 1495.7 1427.18 1496.52 1428.13 1497.83 1429.4 1498 1431.28 1497.34 1432.86L1512.45 1432.86 1499.47 1410.94C1498.32 1408.89 1499.14 1406.22 1501.29 1404.96 1501.94 1404.63 1502.75 1404.47 1503.42 1404.47ZM1503.42 1398.01C1501.61 1398.01 1499.64 1398.47 1498 1399.27 1492.57 1402.26 1490.6 1408.89 1493.73 1414.1L1497.83 1421.19C1496.35 1420.56 1494.87 1420.25 1493.23 1420.25 1490.44 1420.25 1487.64 1421.35 1485.52 1423.09L1478.61 1429.24C1476.31 1431.28 1475 1434.12 1475 1437.13 1475 1440.12 1476.31 1443.13 1478.61 1445.17L1485.52 1451.16C1487.64 1453.05 1490.44 1454 1493.23 1454 1496.35 1454 1499.31 1452.74 1501.44 1450.53 1502.27 1449.75 1502.92 1448.95 1503.26 1448L1520.17 1448C1524.12 1448 1527.9 1445.96 1529.87 1442.64 1531.84 1439.34 1532 1435.23 1530.03 1431.92L1513.27 1403.52C1511.3 1400.06 1507.53 1398.01 1503.42 1398.01Z" fill="#5D5D6D" fill-rule="evenodd"/><path d="M1477.09 1357.42C1478.74 1357.42 1480.24 1358.19 1481.05 1359.61L1494.62 1382.26C1495.45 1381.17 1496.77 1380.39 1498.42 1380.39 1498.76 1380.39 1499.24 1380.39 1499.57 1380.55 1502.05 1381.17 1503.39 1383.68 1502.72 1385.86L1500.08 1394.45C1499.57 1395.55 1498.76 1396.49 1497.59 1397.12 1497.1 1397.43 1496.27 1397.43 1495.61 1397.43 1495.11 1397.43 1494.62 1397.43 1493.95 1397.27L1485.19 1393.99C1482.88 1393.2 1481.72 1390.7 1482.71 1388.51 1483.21 1386.95 1484.7 1386.01 1486.19 1385.7L1477.09 1370.38 1462.87 1393.99C1462.05 1395.39 1460.56 1396.18 1458.91 1396.18 1458.25 1396.18 1457.42 1396.02 1456.77 1395.7 1454.61 1394.45 1453.79 1391.95 1455.11 1389.77L1473.12 1359.61C1473.95 1358.19 1475.43 1357.42 1477.09 1357.42ZM1477.09 1351.01C1472.96 1351.01 1469.16 1353.05 1467.17 1356.48L1449.16 1386.64C1446.01 1391.81 1448 1398.37 1453.46 1401.33 1455.11 1402.11 1457.09 1402.58 1458.91 1402.58 1463.04 1402.58 1466.84 1400.55 1468.82 1397.12L1477.09 1383.52 1477.42 1384.13C1476.93 1384.76 1476.61 1385.38 1476.27 1386.17 1474.11 1391.63 1476.93 1397.89 1482.71 1399.92L1491.48 1403.2C1492.8 1403.68 1494.28 1403.99 1495.61 1403.99 1497.43 1403.99 1499.09 1403.52 1500.56 1402.89 1503.54 1401.49 1505.7 1399.15 1506.51 1396.33L1509.16 1387.74C1510 1384.92 1509.66 1382.11 1508.34 1379.61 1506.85 1377.12 1504.38 1375.24 1501.56 1374.45 1500.41 1374.14 1499.41 1373.99 1498.42 1373.99L1497.43 1373.99 1486.85 1356.48C1484.87 1353.05 1481.05 1351.01 1477.09 1351.01Z" fill="#5D5D6D" fill-rule="evenodd"/><path d="M1495.01 1190.01 1499.11 1243.46 1521.29 1529.6 1522.6 1547.68C1523.08 1553.4 1528.01 1558 1534.09 1558L1767.75 1558C1773.82 1558 1778.91 1553.4 1779.23 1547.68L1780.71 1529.6 1802.89 1243.46 1806.99 1190.01Z" fill="#6880EA" fill-rule="evenodd"/><path d="M1495.01 1190.01 1499.11 1243.52 1521.29 1529.99 1780.71 1529.99 1802.89 1243.52 1806.99 1190.01Z" fill="#7E92FF" fill-rule="evenodd"/><path d="M1495.01 1190.01 1499.11 1243.99 1802.89 1243.99 1806.99 1190.01Z" fill="#6880EA" fill-rule="evenodd"/><path d="M1802.8 1195.2 1775.48 1547.77C1775.16 1551.11 1772.19 1553.8 1768.58 1553.8L1534.42 1553.8C1530.96 1553.8 1528 1551.11 1527.67 1547.77L1500.36 1195.2ZM1490 1186.01 1518.14 1548.4C1518.79 1556.5 1526.03 1562.99 1534.42 1562.99L1768.58 1562.99C1777.12 1562.99 1784.21 1556.5 1784.86 1548.4L1813 1186.01Z" fill="#5D5D6D" fill-rule="evenodd"/><path d="M1497.88 1162.01C1489.67 1162.01 1482.28 1165.14 1476.87 1170.3 1473.75 1173.27 1471.29 1177.04 1469.8 1181.11 1468.66 1184.08 1468.01 1187.21 1468.01 1190.5 1468.01 1206.15 1481.47 1218.99 1497.88 1218.99L1804.12 1218.99C1812.49 1218.99 1819.88 1215.7 1825.29 1210.54 1830.72 1205.36 1833.99 1198.32 1833.99 1190.5 1833.99 1187.21 1833.49 1184.08 1832.35 1181.11 1828.24 1169.98 1817.25 1162.01 1804.12 1162.01Z" fill="#6880EA" fill-rule="evenodd"/><path d="M1498.03 1162.01C1489.83 1162.01 1482.46 1165.12 1477.06 1170.26 1473.94 1173.21 1471.49 1176.95 1470 1181 1473.94 1192.04 1485.08 1199.99 1498.03 1199.99L1803.81 1199.99C1812.17 1199.99 1819.55 1196.88 1824.95 1191.73 1828.06 1188.78 1830.52 1185.05 1832 1181 1827.89 1169.94 1816.92 1162.01 1803.81 1162.01Z" fill="#7E92FF" fill-rule="evenodd"/><path d="M1616.18 1378C1615.56 1378 1614.96 1378.09 1614.36 1378.27L1601.66 1382.14C1598.36 1383.11 1596.38 1386.65 1597.53 1389.88 1598.36 1392.45 1600.67 1394.07 1603.32 1394.22L1584.99 1425.8C1584 1427.59 1584 1429.99 1585.16 1431.93 1586.15 1433.85 1588.29 1435 1590.6 1435L1643.73 1435C1647.2 1435 1650 1432.25 1650 1428.71 1650 1425.33 1647.2 1422.58 1643.73 1422.58L1601.49 1422.58 1614.03 1400.67C1615.36 1402.12 1617 1403.09 1618.98 1403.09 1619.48 1403.09 1619.97 1402.92 1620.3 1402.92 1623.77 1402.12 1625.91 1398.9 1625.26 1395.51L1622.45 1382.94C1621.96 1381.18 1620.96 1379.71 1619.31 1378.92 1618.37 1378.3 1617.28 1378 1616.18 1378Z" fill="#FFFFFF" fill-rule="evenodd"/><path d="M1688.17 1382.01C1687.12 1382.01 1686.05 1382.26 1685.06 1382.77 1682.12 1384.53 1680.98 1388.17 1682.78 1391.2L1700.71 1422.17 1679.52 1422.17C1680.66 1419.95 1680.18 1417.41 1678.54 1415.5 1677.25 1414.25 1675.56 1413.61 1673.86 1413.61 1672.33 1413.61 1670.8 1414.13 1669.57 1415.18L1659.96 1423.77C1658.66 1424.89 1658 1426.62 1658 1428.22 1658 1429.96 1658.66 1431.71 1659.96 1432.83L1669.57 1441.41C1670.87 1442.51 1672.34 1443 1673.81 1443 1675.6 1443 1677.24 1442.36 1678.54 1441.09 1680.18 1439.18 1680.66 1436.64 1679.52 1434.42L1711.47 1434.42C1713.75 1434.42 1715.71 1433.29 1716.84 1431.39 1717.99 1429.48 1717.99 1427.11 1716.84 1425.35L1693.7 1385.15C1692.48 1383.11 1690.36 1382.01 1688.17 1382.01Z" fill="#FFFFFF" fill-rule="evenodd"/><path d="M1651.29 1316C1648.99 1316 1647.02 1317.11 1645.88 1319.02L1620.65 1362.08C1619.01 1365.08 1620 1368.73 1623.09 1370.46 1624.1 1370.97 1625.18 1371.23 1626.23 1371.23 1628.43 1371.23 1630.51 1370.13 1631.62 1368.09L1651.29 1334.54 1664.07 1356.38C1661.95 1356.69 1659.98 1358.12 1659.15 1360.18 1657.84 1363.35 1659.49 1366.83 1662.76 1368.09L1675.06 1372.68C1675.71 1373 1676.52 1373 1677.35 1373 1678.17 1373 1679.14 1372.85 1680.12 1372.36 1681.61 1371.74 1682.75 1370.31 1683.25 1368.73L1687.02 1356.53C1687.99 1353.36 1686.2 1349.88 1682.75 1348.93 1682.18 1348.76 1681.59 1348.68 1681.01 1348.68 1678.91 1348.68 1676.86 1349.73 1675.71 1351.47L1656.86 1319.02C1655.72 1317.11 1653.58 1316 1651.29 1316Z" fill="#FFFFFF" fill-rule="evenodd"/><path d="M1615.92 1378.12C1617.06 1378.12 1618.05 1378.44 1619.03 1379.09 1620.68 1379.87 1621.66 1381.32 1622.15 1383.07L1624.94 1395.54C1625.58 1398.9 1623.46 1402.1 1620.02 1402.9 1619.69 1402.9 1619.2 1403.06 1618.71 1403.06 1616.74 1403.06 1615.11 1402.1 1613.79 1400.66L1601.35 1422.4 1643.27 1422.4C1646.71 1422.4 1649.5 1425.13 1649.5 1428.48 1649.5 1431.99 1646.71 1434.72 1643.27 1434.72L1590.53 1434.72C1588.24 1434.72 1586.12 1433.59 1585.13 1431.68 1583.98 1429.76 1583.98 1427.37 1584.97 1425.6L1603.16 1394.27C1600.53 1394.11 1598.24 1392.51 1597.41 1389.96 1596.27 1386.76 1598.24 1383.24 1601.51 1382.28L1614.12 1378.44C1614.62 1378.28 1615.28 1378.12 1615.92 1378.12ZM1615.92 1369C1614.29 1369 1612.8 1369.16 1611.34 1369.64L1598.73 1373.32C1590.38 1375.89 1585.79 1384.52 1588.24 1392.66 1588.9 1394.27 1589.55 1395.71 1590.53 1397.14L1576.78 1420.97C1574 1425.76 1574 1431.68 1576.95 1436.32 1579.72 1441.12 1584.97 1443.99 1590.53 1443.99L1643.27 1443.99C1651.96 1443.99 1659 1437.11 1659 1428.48 1659 1420.01 1651.96 1413.12 1643.27 1413.12L1617.57 1413.12 1618.05 1412.16 1618.71 1412.16C1619.86 1412.16 1621 1412.16 1622.15 1411.85 1626.24 1411.05 1629.84 1408.65 1631.98 1405.14 1634.27 1401.62 1635.09 1397.63 1634.1 1393.47L1631.32 1380.99C1630.33 1376.85 1627.72 1373.16 1623.8 1371.09 1621.49 1369.64 1618.71 1369 1615.92 1369Z" fill="#5D5D6D" fill-rule="evenodd"/><path d="M1687.92 1382.17C1690.21 1382.17 1692.36 1383.27 1693.5 1385.33L1716.82 1425.29C1717.98 1427.04 1717.98 1429.4 1716.82 1431.3 1715.68 1433.18 1713.7 1434.3 1711.41 1434.3L1679.22 1434.3C1680.36 1436.51 1679.88 1439.04 1678.23 1440.94 1676.92 1442.2 1675.27 1442.83 1673.46 1442.83 1671.98 1442.83 1670.5 1442.35 1669.19 1441.25L1659.5 1432.72C1658.19 1431.61 1657.53 1429.87 1657.53 1428.14 1657.53 1426.55 1658.19 1424.83 1659.5 1423.71L1669.19 1415.17C1670.5 1414.07 1671.98 1413.6 1673.46 1413.6 1675.27 1413.6 1676.92 1414.24 1678.23 1415.5 1679.88 1417.4 1680.36 1419.92 1679.22 1422.13L1700.56 1422.13 1682.5 1391.33C1680.68 1388.32 1681.84 1384.7 1684.8 1382.95 1685.79 1382.49 1686.93 1382.17 1687.92 1382.17ZM1687.92 1373.01C1685.28 1373.01 1682.5 1373.79 1680.2 1375.06 1672.64 1379.16 1669.84 1388.49 1674.11 1395.75L1680.03 1405.87C1678.06 1404.92 1675.76 1404.43 1673.46 1404.43 1669.52 1404.43 1665.75 1405.87 1662.79 1408.39L1653.09 1417.07C1649.8 1419.92 1648.01 1424.03 1648.01 1428.14 1648.01 1432.41 1649.8 1436.51 1653.09 1439.35L1662.79 1448.03C1665.75 1450.56 1669.52 1451.99 1673.46 1451.99 1677.9 1451.99 1682.18 1450.25 1685.12 1447.09 1686.27 1445.99 1687.1 1444.72 1687.76 1443.46L1711.41 1443.46C1716.99 1443.46 1722.25 1440.62 1725.04 1435.88 1727.83 1431.3 1727.99 1425.45 1725.21 1420.72L1701.71 1380.74C1698.93 1376 1693.67 1373.01 1687.92 1373.01Z" fill="#5D5D6D" fill-rule="evenodd"/><path d="M1651.02 1316.14C1653.31 1316.14 1655.44 1317.25 1656.58 1319.14L1675.39 1351.44C1676.53 1349.71 1678.67 1348.76 1680.63 1348.76 1681.29 1348.76 1681.94 1348.76 1682.43 1348.91 1685.87 1349.86 1687.65 1353.32 1686.68 1356.47L1682.92 1368.61C1682.43 1370.18 1681.29 1371.6 1679.8 1372.22 1678.82 1372.71 1677.85 1372.86 1677.04 1372.86 1676.21 1372.86 1675.39 1372.86 1674.75 1372.54L1662.48 1367.98C1659.2 1366.72 1657.56 1363.26 1658.87 1360.1 1659.7 1358.05 1661.66 1356.63 1663.78 1356.32L1651.02 1334.59 1631.39 1367.98C1630.25 1370.02 1628.12 1371.13 1626 1371.13 1624.85 1371.13 1623.87 1370.82 1622.88 1370.33 1619.79 1368.61 1618.81 1364.98 1620.44 1362L1645.63 1319.14C1646.77 1317.25 1648.73 1316.14 1651.02 1316.14ZM1651.02 1307C1645.46 1307 1640.07 1310 1637.29 1314.73L1612.27 1357.58C1608.01 1364.83 1610.62 1374.12 1618.31 1378.21 1620.59 1379.47 1623.22 1380.27 1626 1380.27 1631.72 1380.27 1636.95 1377.27 1639.74 1372.54L1651.02 1353.01 1651.52 1353.95 1650.04 1356.79C1646.93 1364.66 1651.02 1373.48 1659.04 1376.48L1671.31 1381.05C1673.11 1381.68 1675.07 1381.99 1677.04 1381.99 1679.32 1381.99 1681.77 1381.53 1683.9 1380.42 1687.83 1378.69 1690.77 1375.22 1692.09 1371.13L1695.84 1359C1696.99 1355.21 1696.5 1351.11 1694.53 1347.5 1692.57 1344.04 1689.14 1341.35 1685.21 1340.25 1683.73 1339.77 1682.27 1339.62 1680.63 1339.62L1679.32 1339.62 1664.77 1314.73C1661.98 1310 1656.75 1307 1651.02 1307Z" fill="#5D5D6D" fill-rule="evenodd"/><path d="M1517.06 987.011 1517.06 987.011C1517.55 993.766 1513.95 1000.05 1508.69 1004.77 1505.89 1007.28 1502.6 1009.16 1499.16 1010.73 1489.31 1014.81 1478.15 1015.28 1467.48 1017.01 1456.81 1018.74 1445.47 1022.19 1438.91 1030.52 1433.32 1037.44 1432 1047.01 1433.32 1055.65 1433.65 1058.94 1434.63 1062.08 1435.62 1065.39 1437.26 1070.57 1439.55 1075.76 1441.85 1080.78 1454.48 1084.25 1468.79 1088.99 1482.08 1088.99 1487.46 1088.99 1492.65 1088.22 1497.53 1086.27 1515.92 1079.05 1528.07 1060.99 1530.52 1042.14 1532.99 1023.44 1526.91 1003.51 1517.06 987.011Z" fill="#8C979E" fill-rule="evenodd"/><path d="M1508.7 1004.01C1505.9 1006.55 1502.62 1008.47 1499.17 1010.05 1489.32 1014.19 1478.15 1014.67 1467.48 1016.42 1456.81 1018.17 1445.48 1021.66 1438.91 1030.11 1433.32 1037.11 1432 1046.81 1433.32 1055.57 1433.65 1058.91 1434.64 1062.09 1435.62 1065.44 1446.05 1068.33 1457.6 1071.99 1468.43 1071.99 1473.11 1071.99 1477.66 1071.31 1481.93 1069.57 1498.02 1063.21 1508.7 1047.13 1510.83 1030.43 1511.99 1021.66 1511.16 1012.76 1508.7 1004.01Z" fill="#FFFFFF" fill-rule="evenodd"/><path d="M1518.94 998.156C1525.83 1012.99 1528.63 1028.29 1526.81 1041.71 1524.36 1060.49 1512.37 1076.73 1496.29 1083.05 1492 1084.78 1487.33 1085.47 1482.46 1085.47 1471.83 1085.47 1460.25 1082.18 1449.67 1079.25 1448.03 1078.79 1446.56 1078.31 1444.92 1077.84 1442.95 1073.27 1441.13 1068.84 1439.5 1064.42 1438.51 1060.8 1437.85 1057.96 1437.37 1055.28 1436.21 1046.43 1437.85 1038.4 1442.29 1032.86 1447.22 1026.72 1455.75 1022.77 1468.38 1020.72 1471.02 1020.24 1473.64 1019.92 1476.44 1019.61 1484.64 1018.51 1493.01 1017.4 1501.06 1013.94 1504.82 1012.35 1508.61 1010.14 1511.55 1007.46 1514.84 1004.63 1517.3 1001.47 1518.94 998.156ZM1517.27 983.012C1516.89 983.012 1516.52 983.058 1516.16 983.162 1514.34 983.636 1513.2 985.382 1513.36 987.104 1513.86 994.052 1509.09 999.266 1506.31 1001.94 1503.83 1003.99 1500.89 1005.73 1497.77 1007.15 1490.88 1009.99 1483.33 1010.94 1475.27 1012.04 1472.49 1012.35 1469.87 1012.84 1467.07 1013.3 1452.3 1015.67 1442.12 1020.56 1436.06 1028.13 1430.31 1035.39 1428 1045.49 1429.65 1056.39 1430.14 1060.17 1431.13 1063.8 1432.11 1066.63 1433.92 1071.99 1436.21 1077.21 1438.51 1082.57 1439 1083.52 1439.99 1084.31 1440.98 1084.62 1443.1 1085.25 1445.24 1085.89 1447.37 1086.36 1458.53 1089.67 1470.68 1092.99 1482.5 1092.99 1488.25 1092.99 1493.98 1092.2 1499.24 1089.98 1517.95 1082.73 1531.74 1064.11 1534.69 1042.82 1537 1024.66 1532.07 1004.14 1520.75 984.896 1519.98 983.671 1518.61 983.012 1517.27 983.012Z" fill="#5D5D6D" fill-rule="evenodd"/><path d="M1484.53 1039C1484.05 1039 1483.55 1039.09 1483.08 1039.28 1481.11 1040.09 1436.52 1058.56 1425.49 1105.38 1425.01 1107.44 1426.48 1109.52 1428.46 1109.99L1429.45 1109.99C1431.27 1109.99 1432.91 1108.88 1433.23 1107.13 1443.26 1064.12 1485.55 1046.46 1486.04 1046.29 1488.01 1045.5 1489 1043.27 1488.18 1041.36 1487.55 1039.9 1486.07 1039 1484.53 1039Z" fill="#5D5D6D" fill-rule="evenodd"/><path d="M1801.34 983.012 1782 994.665 1782 994.98 1796.5 1016.99 1816 1005.02 1801.67 983.175C1801.51 983.012 1801.51 983.012 1801.34 983.012Z" fill="#FFFFFF" fill-rule="evenodd"/><path d="M1800.4 988.623 1810.3 1003.89 1797.98 1011.45 1788.09 996.028 1800.4 988.623ZM1800.12 981.012C1798.66 981.012 1797.22 981.392 1795.87 982.176L1783.87 989.569C1780.14 991.933 1779 996.65 1781.43 1000.43L1795.53 1021.99 1821 1006.25 1807.06 984.691C1805.92 982.949 1804.13 981.692 1802.02 981.231 1801.39 981.081 1800.76 981.012 1800.12 981.012Z" fill="#5D5D6D" fill-rule="evenodd"/><path d="M1827.7 993.012C1824.91 993.012 1822.07 993.745 1819.53 995.315L1785.37 1016.11C1778.14 1020.55 1776 1029.76 1780.6 1036.75L1823.3 1102.15C1826.27 1106.58 1831.31 1109 1836.45 1109 1839.26 1109 1842.09 1108.28 1844.64 1106.77L1878.64 1085.96C1885.87 1081.52 1888 1072.3 1883.57 1065.32L1840.7 999.909C1837.84 995.501 1832.84 993.012 1827.7 993.012Z" fill="#E8E9ED" fill-rule="evenodd"/><path d="M1827.96 993.012C1825.15 993.012 1822.3 993.741 1819.75 995.303L1785.42 1016C1778.15 1020.42 1776 1029.57 1780.62 1036.53L1813.96 1087.08C1816.93 1091.55 1821.95 1094 1827.09 1094 1829.94 1094 1832.83 1093.24 1835.42 1091.66L1869.75 1070.97C1876.85 1066.54 1878.99 1057.54 1874.54 1050.59L1841.03 999.875C1838.15 995.488 1833.12 993.012 1827.96 993.012Z" fill="#FFFFFF" fill-rule="evenodd"/><path d="M1828.16 996.495C1828.98 996.495 1829.81 996.67 1830.62 996.822 1833.75 997.453 1836.21 999.216 1837.86 1001.76L1880.65 1067.42C1884.11 1072.67 1882.46 1079.53 1877.21 1082.72L1842.98 1103.75C1841.07 1104.86 1838.97 1105.4 1836.9 1105.4 1833.05 1105.4 1829.32 1103.57 1827.17 1100.25L1784.21 1034.59C1782.57 1032.05 1782.08 1029.01 1782.74 1026.14 1783.4 1023.27 1785.2 1020.72 1787.84 1019.3L1822.07 998.258C1823.88 997.137 1826.01 996.495 1828.16 996.495ZM1827.99 989C1824.42 989 1820.94 989.957 1817.79 991.884L1783.56 1012.76C1779.28 1015.47 1776.16 1019.61 1775 1024.55 1774.01 1029.33 1774.84 1034.43 1777.63 1038.57L1820.42 1104.38C1824.04 1109.96 1830.46 1112.99 1836.88 1112.99 1840.34 1112.99 1843.95 1112.04 1847.24 1110.13L1881.31 1089.24C1890.37 1083.67 1893 1072.03 1887.41 1063.43L1844.45 997.628C1841.81 993.483 1837.54 990.448 1832.44 989.49 1830.96 989.163 1829.46 989 1827.99 989Z" fill="#5D5D6D" fill-rule="evenodd"/><path d="M1849.79 1014 1790.01 1050.63 1813.03 1085.99 1872.99 1049.37 1849.79 1014Z" fill="#F46545" fill-rule="evenodd"/><path d="M1849.19 1018.49 1868.18 1047.75 1814.81 1080.34 1795.81 1051.25 1849.19 1018.49ZM1851.65 1008 1785.01 1048.87 1812.35 1090.99 1878.99 1050.14 1851.65 1008Z" fill="#5D5D6D" fill-rule="evenodd"/><path d="M1830.7 1039C1829.98 1039 1829.27 1039.44 1828.94 1040.09L1823.33 1050.35C1823 1050.97 1823 1051.77 1823.49 1052.41 1823.81 1053.03 1824.61 1053.34 1825.42 1053.34L1830.55 1052.72 1827.66 1060.13C1827.17 1061.24 1827.66 1062.5 1828.78 1062.81 1829.01 1062.94 1829.26 1062.99 1829.51 1062.99 1829.91 1062.99 1830.3 1062.85 1830.7 1062.65 1831.02 1062.5 1831.34 1062.19 1831.5 1061.7L1835.67 1051.13C1836 1050.51 1835.82 1049.71 1835.51 1049.07 1835.04 1048.61 1834.23 1048.3 1833.58 1048.3L1828.78 1048.76 1832.47 1041.98C1833.11 1041.04 1832.79 1039.78 1831.67 1039.29 1831.36 1039.09 1831.03 1039 1830.7 1039Z" fill="#5D5D6D" fill-rule="evenodd"/><path d="M1618.34 955C1618.18 955 1618.01 955.158 1618.01 955.305L1618.01 977.684C1618.01 977.83 1618.18 977.989 1618.34 977.989L1683.66 977.989C1683.83 977.989 1683.99 977.83 1683.99 977.684L1683.99 955.305C1683.99 955.158 1683.83 955 1683.66 955Z" fill="#FFFFFF" fill-rule="evenodd"/><path d="M1618.34 978C1618.18 978 1618.01 978.154 1618.01 978.332L1618.01 1001.67C1618.01 1001.82 1618.18 1001.99 1618.34 1001.99L1683.66 1001.99C1683.83 1001.99 1683.99 1001.82 1683.99 1001.67L1683.99 978.332C1683.99 978.154 1683.83 978 1683.66 978Z" fill="#FFFFFF" fill-rule="evenodd"/><path d="M1618.34 1002C1618.18 1002 1618.01 1002.15 1618.01 1002.32L1618.01 1024.68C1618.01 1024.83 1618.18 1024.99 1618.34 1024.99L1683.66 1024.99C1683.83 1024.99 1683.99 1024.83 1683.99 1024.68L1683.99 1002.32C1683.99 1002.15 1683.83 1002 1683.66 1002Z" fill="#FFFFFF" fill-rule="evenodd"/><path d="M1618.34 1025C1618.18 1025 1618.01 1025.17 1618.01 1025.33L1618.01 1048.67C1618.01 1048.85 1618.18 1049 1618.34 1049L1683.66 1049C1683.83 1049 1683.99 1048.85 1683.99 1048.67L1683.99 1025.33C1683.99 1025.17 1683.83 1025 1683.66 1025Z" fill="#FFFFFF" fill-rule="evenodd"/><path d="M1640.55 892.012 1640.55 909.784 1637.78 909.784C1626.83 909.784 1618.01 918.351 1618.01 928.812L1618.01 948.642C1618.01 952.129 1621.12 954.988 1624.71 954.988L1677.3 954.988C1681.06 954.988 1683.99 952.129 1683.99 948.642L1683.99 928.812C1683.99 918.351 1675.17 909.784 1664.39 909.784L1661.63 909.784 1661.63 892.012Z" fill="#FFFFFF" fill-rule="evenodd"/><path d="M1639.45 876C1636.42 876 1634 878.439 1634 881.549L1634 886.451C1634 889.549 1636.42 892 1639.45 892L1662.71 892C1665.6 892 1668 889.549 1668 886.451L1668 881.549C1668 878.439 1665.6 876 1662.71 876Z" fill="#6880EA" fill-rule="evenodd"/><path d="M1662.8 880.567C1663.6 880.567 1664.24 881.19 1664.24 882.136L1664.24 886.865C1664.24 887.811 1663.6 888.433 1662.8 888.433L1639.37 888.433C1638.58 888.433 1637.76 887.811 1637.76 886.865L1637.76 882.136C1637.76 881.19 1638.58 880.567 1639.37 880.567ZM1639.37 873.012C1634.21 873.012 1630.01 877.106 1630.01 882.136L1630.01 886.865C1630.01 891.905 1634.21 895.989 1639.37 895.989L1662.8 895.989C1667.8 895.989 1671.99 891.905 1671.99 886.865L1671.99 882.136C1671.99 877.106 1667.8 873.012 1662.8 873.012Z" fill="#5D5D6D" fill-rule="evenodd"/><path d="M1618 961 1618 961.634 1618 970.751C1618 974.842 1621.28 977.988 1625.37 977.988L1676.63 977.988C1680.71 977.988 1683.99 974.842 1683.99 970.751L1683.99 961.634 1683.99 961C1683.66 964.619 1680.39 967.443 1676.63 967.443L1625.37 967.443C1621.43 967.443 1618.32 964.619 1618 961Z" fill="#E8E9ED" fill-rule="evenodd"/><path d="M1618 985 1618 985.639 1618 994.849C1618 998.814 1621.28 1001.99 1625.37 1001.99L1676.63 1001.99C1680.71 1001.99 1683.99 998.814 1683.99 994.849L1683.99 985.639 1683.99 985C1683.66 988.663 1680.39 991.349 1676.63 991.349L1625.37 991.349C1621.43 991.349 1618.32 988.663 1618 985Z" fill="#E8E9ED" fill-rule="evenodd"/><path d="M1618 1008 1618 1008.64 1618 1017.85C1618 1021.81 1621.28 1024.99 1625.37 1024.99L1676.63 1024.99C1680.71 1024.99 1683.99 1021.81 1683.99 1017.85L1683.99 1008.64 1683.99 1008C1683.66 1011.66 1680.39 1014.52 1676.63 1014.52L1625.37 1014.52C1621.43 1014.52 1618.32 1011.66 1618 1008Z" fill="#E8E9ED" fill-rule="evenodd"/><path d="M1618 1032.01 1618 1032.64 1618 1041.85C1618 1045.83 1621.28 1049 1625.37 1049L1676.63 1049C1680.71 1049 1683.99 1045.83 1683.99 1041.85L1683.99 1032.64 1683.99 1032.01C1683.66 1035.66 1680.39 1038.52 1676.63 1038.52L1625.37 1038.52C1621.43 1038.52 1618.32 1035.66 1618 1032.01Z" fill="#E8E9ED" fill-rule="evenodd"/><path d="M1618 938 1618 948.635C1618 952.126 1620.95 954.988 1624.55 954.988L1677.28 954.988C1681.05 954.988 1683.99 952.126 1683.99 948.635L1683.99 938C1683.99 941.491 1681.05 944.505 1677.28 944.505L1624.55 944.505C1620.95 944.505 1618 941.491 1618 938Z" fill="#E8E9ED" fill-rule="evenodd"/><path d="M1676.69 958.56C1678.65 958.56 1680.13 960.127 1680.13 961.867L1680.13 971.144C1680.13 972.873 1678.65 974.452 1676.69 974.452L1625.32 974.452C1623.35 974.452 1621.72 972.873 1621.72 971.144L1621.72 961.867C1621.72 960.127 1623.35 958.56 1625.32 958.56ZM1625.32 951C1619.08 951 1614.01 955.886 1614.01 961.867L1614.01 971.144C1614.01 977.114 1619.08 982 1625.32 982L1676.69 982C1682.92 982 1688 977.114 1688 971.144L1688 961.867C1688 955.886 1682.92 951 1676.69 951Z" fill="#5D5D6D" fill-rule="evenodd"/><path d="M1676.69 982.599C1678.65 982.599 1680.13 984.013 1680.13 985.913L1680.13 995.088C1680.13 996.976 1678.65 998.412 1676.69 998.412L1625.32 998.412C1623.35 998.412 1621.72 996.976 1621.72 995.088L1621.72 985.913C1621.72 984.013 1623.35 982.599 1625.32 982.599ZM1625.32 975.011C1619.08 975.011 1614.01 979.9 1614.01 985.913L1614.01 995.088C1614.01 1001.09 1619.08 1006 1625.32 1006L1676.69 1006C1682.92 1006 1688 1001.09 1688 995.088L1688 985.913C1688 979.9 1682.92 975.011 1676.69 975.011Z" fill="#5D5D6D" fill-rule="evenodd"/><path d="M1676.69 1005.6C1678.65 1005.6 1680.13 1007.01 1680.13 1008.91L1680.13 1018.08C1680.13 1019.97 1678.65 1021.4 1676.69 1021.4L1625.32 1021.4C1623.35 1021.4 1621.72 1019.97 1621.72 1018.08L1621.72 1008.91C1621.72 1007.01 1623.35 1005.6 1625.32 1005.6ZM1625.32 998.011C1619.08 998.011 1614.01 1002.9 1614.01 1008.91L1614.01 1018.08C1614.01 1024.08 1619.08 1028.99 1625.32 1028.99L1676.69 1028.99C1682.92 1028.99 1688 1024.08 1688 1018.08L1688 1008.91C1688 1002.9 1682.92 998.011 1676.69 998.011Z" fill="#5D5D6D" fill-rule="evenodd"/><path d="M1676.69 1029.56C1678.65 1029.56 1680.13 1031.14 1680.13 1032.86L1680.13 1041.98C1680.13 1043.87 1678.65 1045.44 1676.69 1045.44L1625.32 1045.44C1623.35 1045.44 1621.72 1043.87 1621.72 1041.98L1621.72 1032.86C1621.72 1031.14 1623.35 1029.56 1625.32 1029.56ZM1625.32 1022.01C1619.08 1022.01 1614.01 1026.87 1614.01 1032.86L1614.01 1041.98C1614.01 1048.13 1619.08 1052.99 1625.32 1052.99L1676.69 1052.99C1682.92 1052.99 1688 1048.13 1688 1041.98L1688 1032.86C1688 1026.87 1682.92 1022.01 1676.69 1022.01Z" fill="#5D5D6D" fill-rule="evenodd"/><path d="M1657.65 895.656 1657.65 913.529 1664.37 913.529C1673.07 913.529 1680.13 920.391 1680.13 928.842L1680.13 948.784C1680.13 950.221 1678.98 951.332 1677.34 951.332L1624.51 951.332C1623.03 951.332 1621.72 950.221 1621.72 948.784L1621.72 928.842C1621.72 920.391 1628.93 913.529 1637.63 913.529L1644.35 913.529 1644.35 895.656ZM1636.48 888 1636.48 905.873C1624.01 906.516 1614.01 916.557 1614.01 928.842L1614.01 948.784C1614.01 954.371 1618.76 959 1624.51 959L1677.34 959C1683.25 959 1688 954.371 1688 948.784L1688 928.842C1688 916.557 1678 906.516 1665.35 905.873L1665.35 888Z" fill="#5D5D6D" fill-rule="evenodd"/><path d="M1903.47 1039C1900.98 1039 1899 1041.16 1899 1043.59 1899 1046.13 1901.13 1048.19 1903.57 1048.19L1913.03 1048.19C1915.64 1048.19 1917.77 1046.13 1917.77 1043.75 1917.77 1041.23 1915.64 1039.16 1913.03 1039.16L1903.73 1039.01C1903.65 1039 1903.55 1039 1903.47 1039ZM1931.95 1039.16C1929.35 1039.16 1927.23 1041.23 1927.23 1043.75 1927.23 1046.29 1929.35 1048.34 1931.95 1048.34L1941.42 1048.34C1944.03 1048.34 1946.15 1046.29 1946.15 1043.75 1946.15 1041.23 1944.03 1039.16 1941.42 1039.16ZM1960.18 1039.31C1957.57 1039.31 1955.62 1041.17 1955.62 1043.59 1955.45 1046.13 1957.41 1048.34 1960.02 1048.34 1962.96 1048.5 1965.89 1048.82 1968.67 1049.45L1969.65 1049.45C1971.77 1049.45 1973.72 1048.02 1974.22 1045.8 1974.7 1043.28 1973.07 1040.91 1970.45 1040.43 1967.19 1039.8 1963.77 1039.48 1960.51 1039.32 1960.4 1039.32 1960.29 1039.31 1960.18 1039.31ZM1987.21 1046.64C1985.55 1046.64 1983.96 1047.47 1983.18 1048.97 1981.88 1051.18 1982.71 1054.03 1984.99 1055.29 1987.43 1056.57 1989.88 1058.14 1992.16 1059.89 1992.97 1060.52 1993.95 1060.84 1995.1 1060.84 1996.4 1060.84 1997.87 1060.36 1998.69 1059.09 2000.33 1057.19 1999.99 1054.34 1998.04 1052.77 1995.26 1050.72 1992.5 1048.82 1989.56 1047.24 1988.81 1046.82 1988 1046.64 1987.21 1046.64ZM2007.92 1065.07C2006.98 1065.07 2006.04 1065.35 2005.21 1065.9 2003.09 1067.32 2002.44 1070.16 2003.91 1072.23 2005.55 1074.6 2007.01 1076.98 2008.31 1079.5 2008.97 1081.24 2010.76 1082.19 2012.55 1082.19 2013.21 1082.19 2013.86 1082.04 2014.51 1081.72 2016.8 1080.6 2017.94 1077.93 2016.8 1075.71 2015.34 1072.7 2013.7 1069.85 2011.74 1067 2010.84 1065.75 2009.39 1065.07 2007.92 1065.07ZM2017.73 1090.54C2017.53 1090.54 2017.32 1090.55 2017.12 1090.58 2014.51 1090.89 2012.72 1093.11 2013.04 1095.63 2013.38 1097.85 2013.53 1100.22 2013.53 1102.44L2013.53 1104.18C2013.53 1106.71 2015.49 1108.76 2018.1 1108.76L2018.27 1108.76C2020.7 1108.76 2022.83 1106.71 2022.99 1104.18L2022.99 1102.44C2022.99 1099.75 2022.83 1097.06 2022.34 1094.52 2022.04 1092.19 2020.08 1090.54 2017.73 1090.54ZM2017.94 1117.93C2015.49 1117.93 2013.38 1119.99 2013.38 1122.37L2013.21 1131.54C2013.21 1134.07 2015.34 1136.14 2017.94 1136.14 2020.55 1136.14 2022.67 1134.24 2022.67 1131.7L2022.67 1122.53C2022.83 1119.99 2020.7 1117.93 2018.1 1117.93ZM2017.78 1145.3C2015.16 1145.3 2013.04 1147.35 2013.04 1149.88L2012.88 1159.06C2012.88 1161.6 2015 1163.66 2017.62 1163.66 2020.23 1163.66 2022.34 1161.6 2022.34 1159.06L2022.51 1149.88C2022.51 1147.35 2020.38 1145.3 2017.78 1145.3ZM2017.44 1172.83C2014.84 1172.83 2012.72 1174.73 2012.72 1177.25L2012.55 1186.43C2012.55 1188.96 2014.68 1191.01 2017.29 1191.01 2019.9 1191.01 2022.02 1189.11 2022.02 1186.58L2022.19 1177.4C2022.19 1174.88 2020.06 1172.83 2017.44 1172.83ZM2017.12 1200.19C2014.51 1200.19 2012.4 1202.25 2012.4 1204.78L2012.4 1213.79C2012.23 1216.32 2014.36 1218.53 2016.96 1218.53L2017.12 1218.53C2019.57 1218.53 2021.69 1216.48 2021.69 1213.96L2021.85 1204.78C2021.85 1202.25 2019.72 1200.19 2017.12 1200.19ZM2016.8 1227.56C2014.18 1227.56 2012.23 1229.61 2012.07 1232.14L2012.07 1241.32C2012.07 1243.84 2014.02 1245.91 2016.64 1245.91L2016.8 1245.91C2019.4 1245.91 2021.36 1243.84 2021.53 1241.48L2021.53 1232.3C2021.53 1229.77 2019.57 1227.71 2016.96 1227.71 2016.96 1227.56 2016.8 1227.56 2016.8 1227.56ZM2016.64 1255.08C2014.02 1255.08 2011.9 1257.14 2011.9 1259.66L2011.74 1268.69C2011.74 1271.22 2013.86 1273.27 2016.47 1273.43 2019.08 1273.43 2021.21 1271.37 2021.21 1268.84L2021.21 1259.66C2021.36 1257.14 2019.25 1255.08 2016.64 1255.08ZM2016.31 1282.43C2013.7 1282.43 2011.57 1284.5 2011.57 1287.03L2011.42 1296.21C2011.42 1298.74 2013.53 1300.79 2016.14 1300.79 2018.76 1300.79 2020.88 1298.74 2020.88 1296.21L2021.04 1287.18C2021.04 1284.66 2018.92 1282.61 2016.31 1282.43ZM2015.98 1309.96C2013.38 1309.96 2011.25 1312.02 2011.25 1314.4L2011.09 1323.56C2011.09 1326.1 2013.21 1328.16 2015.82 1328.16 2018.42 1328.16 2020.55 1326.26 2020.55 1323.72L2020.7 1314.56C2020.7 1312.02 2018.59 1309.96 2015.98 1309.96ZM2014.38 1337.24C2012.23 1337.24 2010.19 1338.6 2009.61 1340.82 2008.97 1343.49 2008.15 1346.19 2007.01 1348.87 2006.03 1351.09 2007.17 1353.79 2009.61 1354.74 2010.27 1355.05 2010.76 1355.05 2011.42 1355.05 2013.21 1355.05 2015 1354.1 2015.82 1352.2 2017.12 1349.18 2018.1 1346.02 2018.92 1342.86 2019.4 1340.33 2017.94 1337.97 2015.34 1337.33 2015.02 1337.27 2014.69 1337.24 2014.38 1337.24ZM2001.72 1361.57C2000.41 1361.57 1999.09 1362.13 1998.2 1363.28 1996.24 1365.33 1994.28 1367.39 1991.99 1369.28 1990.03 1370.87 1989.88 1373.87 1991.67 1375.76 1992.5 1376.71 1993.8 1377.19 1995.1 1377.19 1996.24 1377.19 1997.38 1376.88 1998.2 1376.08 2000.8 1373.87 2003.25 1371.66 2005.37 1369.12 2007.01 1367.07 2006.68 1364.23 2004.72 1362.64 2003.85 1361.93 2002.78 1361.57 2001.72 1361.57ZM1979.2 1377.8C1978.62 1377.8 1978.03 1377.91 1977.48 1378.14 1974.7 1379.25 1971.94 1380.2 1969.15 1380.98 1966.71 1381.62 1965.09 1383.99 1965.73 1386.52 1966.39 1388.59 1968.35 1390 1970.3 1390 1970.79 1390 1971.11 1389.85 1971.61 1389.85 1974.88 1389.05 1977.96 1387.95 1981.22 1386.69 1983.51 1385.57 1984.65 1382.88 1983.69 1380.67 1982.81 1378.87 1981.01 1377.8 1979.2 1377.8Z" fill="#5D5D6D" fill-rule="evenodd"/><path d="M1396.27 1039.01 1386.96 1039.16C1384.35 1039.16 1382.24 1041.23 1382.24 1043.75 1382.24 1046.13 1384.35 1048.19 1386.96 1048.19L1396.42 1048.19C1399.03 1048.19 1400.99 1046.13 1400.99 1043.59 1400.99 1041.06 1399.03 1039.01 1396.27 1039.01ZM1358.57 1039.16C1355.97 1039.16 1353.85 1041.23 1353.85 1043.75 1353.85 1046.29 1355.97 1048.34 1358.57 1048.34L1368.04 1048.34C1370.65 1048.34 1372.78 1046.29 1372.78 1043.75 1372.78 1041.23 1370.65 1039.16 1368.04 1039.16ZM1339.81 1039.31C1339.71 1039.31 1339.6 1039.32 1339.5 1039.32 1336.23 1039.48 1332.8 1039.8 1329.54 1040.43 1326.93 1040.91 1325.3 1043.28 1325.8 1045.8 1326.28 1048.02 1328.24 1049.45 1330.36 1049.45L1331.34 1049.45C1334.11 1048.82 1337.05 1048.5 1339.97 1048.34 1342.59 1048.34 1344.55 1046.13 1344.55 1043.59 1344.4 1041.17 1342.29 1039.31 1339.81 1039.31ZM1312.81 1046.64C1312.01 1046.64 1311.21 1046.82 1310.47 1047.24 1307.52 1048.82 1304.74 1050.72 1301.98 1052.77 1300.02 1054.34 1299.7 1057.19 1301.32 1059.09 1302.13 1060.36 1303.6 1060.84 1304.91 1060.84 1306.04 1060.84 1307.02 1060.52 1307.85 1059.89 1310.13 1058.14 1312.57 1056.57 1315.03 1055.29 1317.31 1054.03 1318.11 1051.18 1316.98 1048.97 1316.11 1047.47 1314.48 1046.64 1312.81 1046.64ZM1292.1 1065.07C1290.61 1065.07 1289.17 1065.75 1288.27 1067 1286.31 1069.85 1284.69 1072.7 1283.21 1075.71 1282.08 1077.93 1283.21 1080.6 1285.5 1081.72 1286.14 1082.04 1286.8 1082.19 1287.45 1082.19 1289.25 1082.19 1291.04 1081.24 1291.87 1079.5 1293 1076.98 1294.47 1074.6 1296.1 1072.23 1297.57 1070.16 1296.91 1067.32 1294.8 1065.9 1293.97 1065.35 1293.03 1065.07 1292.1 1065.07ZM1282.27 1090.54C1279.93 1090.54 1277.97 1092.19 1277.66 1094.52 1277.33 1097.06 1277.01 1099.75 1277.01 1102.44L1277.18 1104.18C1277.18 1106.71 1279.29 1108.76 1281.74 1108.76L1281.9 1108.76C1284.52 1108.76 1286.48 1106.71 1286.48 1104.18L1286.48 1102.44C1286.48 1100.22 1286.65 1097.85 1286.97 1095.63 1287.29 1093.11 1285.5 1090.89 1282.88 1090.58 1282.68 1090.55 1282.47 1090.54 1282.27 1090.54ZM1281.9 1117.93C1279.29 1117.93 1277.33 1119.99 1277.33 1122.53L1277.33 1131.7C1277.33 1134.24 1279.46 1136.14 1282.08 1136.14L1282.23 1136.14C1284.69 1136.14 1286.8 1134.07 1286.8 1131.54L1286.8 1122.37C1286.65 1119.99 1284.52 1117.93 1282.08 1117.93ZM1282.51 1145.29C1282.41 1145.29 1282.32 1145.3 1282.23 1145.3 1279.62 1145.3 1277.5 1147.35 1277.66 1149.88L1277.66 1159.06C1277.66 1161.6 1279.78 1163.66 1282.4 1163.66 1285.01 1163.66 1287.12 1161.6 1287.12 1159.06L1286.97 1149.88C1286.97 1147.45 1284.98 1145.29 1282.51 1145.29ZM1282.56 1172.83C1279.95 1172.83 1277.84 1174.88 1277.84 1177.4L1277.99 1186.58C1277.99 1189.11 1280.12 1191.01 1282.72 1191.01 1285.34 1191.01 1287.45 1188.96 1287.45 1186.43L1287.29 1177.25C1287.29 1174.73 1285.16 1172.83 1282.56 1172.83ZM1282.88 1200.19C1280.27 1200.19 1278.16 1202.25 1278.16 1204.78L1278.31 1213.96C1278.31 1216.48 1280.44 1218.53 1283.05 1218.53 1285.67 1218.53 1287.78 1216.32 1287.63 1213.79L1287.63 1204.78C1287.63 1202.25 1285.5 1200.19 1282.88 1200.19ZM1283.21 1227.56 1283.05 1227.71C1280.6 1227.71 1278.48 1229.77 1278.48 1232.3L1278.48 1241.48C1278.64 1243.84 1280.76 1245.91 1283.21 1245.91L1283.38 1245.91C1285.99 1245.91 1287.95 1243.84 1287.95 1241.32L1287.95 1232.14C1287.95 1229.61 1285.82 1227.56 1283.21 1227.56ZM1283.38 1255.08C1280.76 1255.08 1278.64 1257.14 1278.82 1259.66L1278.82 1268.84C1278.82 1271.37 1280.92 1273.43 1283.54 1273.43 1286.14 1273.27 1288.27 1271.22 1288.27 1268.69L1288.1 1259.66C1288.1 1257.14 1285.99 1255.08 1283.54 1255.08ZM1283.7 1282.43C1281.1 1282.61 1278.97 1284.66 1278.97 1287.18L1279.14 1296.21C1279.14 1298.74 1281.25 1300.79 1283.86 1300.79 1286.48 1300.79 1288.61 1298.74 1288.61 1296.21L1288.43 1287.03C1288.43 1284.5 1286.31 1282.43 1283.7 1282.43ZM1284.03 1309.96C1281.42 1309.96 1279.29 1312.02 1279.29 1314.56L1279.46 1323.72C1279.46 1326.26 1281.58 1328.16 1284.18 1328.16 1286.8 1328.16 1288.93 1326.1 1288.93 1323.56L1288.76 1314.4C1288.76 1312.02 1286.65 1309.96 1284.03 1309.96ZM1285.69 1337.24C1285.35 1337.24 1285.02 1337.27 1284.69 1337.33 1282.23 1337.97 1280.6 1340.33 1281.25 1342.86 1281.9 1346.02 1283.05 1349.18 1284.18 1352.2 1285.01 1354.1 1286.8 1355.05 1288.61 1355.05 1289.25 1355.05 1289.74 1355.05 1290.39 1354.74 1292.84 1353.79 1293.97 1351.09 1293 1348.87 1291.87 1346.19 1291.04 1343.49 1290.39 1340.82 1289.82 1338.6 1287.9 1337.24 1285.69 1337.24ZM1298.3 1361.57C1297.22 1361.57 1296.16 1361.93 1295.29 1362.64 1293.33 1364.23 1293 1367.07 1294.63 1369.12 1296.76 1371.66 1299.19 1373.87 1301.81 1376.08 1302.62 1376.88 1303.76 1377.19 1304.91 1377.19 1306.22 1377.19 1307.52 1376.71 1308.34 1375.76 1310.13 1373.87 1309.96 1370.87 1308 1369.28 1305.72 1367.39 1303.76 1365.33 1301.98 1363.28 1300.98 1362.13 1299.64 1361.57 1298.3 1361.57ZM1320.82 1377.8C1319 1377.8 1317.19 1378.87 1316.33 1380.67 1315.35 1382.88 1316.49 1385.57 1318.94 1386.69 1322.03 1387.95 1325.14 1389.05 1328.4 1389.85 1328.88 1389.85 1329.22 1390 1329.71 1390 1331.82 1390 1333.63 1388.59 1334.27 1386.52 1334.93 1383.99 1333.29 1381.62 1330.84 1380.98 1328.08 1380.2 1325.3 1379.25 1322.54 1378.14 1321.97 1377.91 1321.39 1377.8 1320.82 1377.8Z" fill="#5D5D6D" fill-rule="evenodd"/><path d="M1648.51 1064.01C1646.02 1064.01 1644.01 1066.05 1644.01 1068.58L1644.01 1077.74C1644.01 1080.27 1646.02 1082.33 1648.51 1082.33 1650.98 1082.33 1652.99 1080.27 1652.99 1077.74L1652.99 1068.58C1652.99 1066.05 1650.98 1064.01 1648.51 1064.01ZM1648.51 1091.33C1646.02 1091.33 1644.01 1093.39 1644.01 1095.92L1644.01 1105.08C1644.01 1107.61 1646.02 1109.66 1648.51 1109.66 1650.98 1109.66 1652.99 1107.61 1652.99 1105.08L1652.99 1095.92C1652.99 1093.39 1650.98 1091.33 1648.51 1091.33ZM1648.51 1118.82C1646.02 1118.82 1644.01 1120.88 1644.01 1123.41L1644.01 1132.41C1644.01 1134.93 1646.02 1136.99 1648.51 1136.99 1650.98 1136.99 1652.99 1134.93 1652.99 1132.41L1652.99 1123.41C1652.99 1120.88 1650.98 1118.82 1648.51 1118.82Z" fill="#5D5D6D" fill-rule="evenodd"/><path d="M1569.12 1065C1562.9 1065 1557.89 1069.77 1557.89 1075.72L1557.89 1076.37C1557.89 1082.29 1552.77 1087.25 1546.69 1087.25 1541.25 1087.25 1536.15 1090.77 1535.16 1096.06 1534 1102.79 1539.27 1108.71 1546.03 1108.71L1546.69 1108.71C1552.77 1108.71 1557.89 1113.67 1557.89 1119.76 1557.89 1125.04 1561.51 1129.84 1566.94 1130.8 1567.64 1130.93 1568.34 1131 1569.02 1131 1575.03 1131 1579.95 1126.14 1579.95 1120.23L1579.95 1119.76C1579.95 1113.67 1585.05 1108.71 1591.31 1108.71L1591.81 1108.71C1598.56 1108.71 1604 1102.79 1602.67 1096.06 1601.7 1090.77 1596.75 1087.25 1591.31 1087.25 1585.05 1087.25 1579.95 1082.29 1579.95 1076.37 1579.95 1071.09 1576.34 1066.11 1571.06 1065.15 1570.4 1065.05 1569.76 1065 1569.12 1065Z" fill="#FFFFFF" fill-rule="evenodd"/><path d="M1568.99 1069.46C1569.48 1069.46 1569.97 1069.46 1570.3 1069.61 1573.56 1070.23 1576.01 1073.21 1576.01 1076.82 1576.01 1084.8 1582.85 1091.22 1591.17 1091.22 1594.75 1091.22 1598.02 1093.58 1598.52 1096.71 1599 1098.73 1598.35 1100.78 1597.04 1102.35 1595.73 1103.91 1593.77 1104.69 1591.67 1104.69L1591.17 1104.69C1582.85 1104.69 1576.01 1111.27 1576.01 1119.26L1576.01 1119.72C1576.01 1121.77 1575.18 1123.65 1573.56 1124.9 1572.29 1125.88 1570.75 1126.47 1569.13 1126.47 1568.65 1126.47 1568.17 1126.41 1567.69 1126.31 1564.43 1125.84 1561.98 1122.71 1561.98 1119.26 1561.98 1111.27 1555.29 1104.69 1546.99 1104.69L1546.33 1104.69C1544.37 1104.69 1542.24 1103.91 1540.94 1102.35 1539.64 1100.78 1539.16 1098.73 1539.48 1096.71 1540.13 1093.58 1543.22 1091.22 1546.99 1091.22 1555.29 1091.22 1561.98 1084.8 1561.98 1076.82L1561.98 1076.18C1561.98 1074.3 1562.96 1072.27 1564.43 1071.02 1565.73 1070.08 1567.36 1069.46 1568.99 1069.46ZM1568.99 1062C1565.55 1062 1562.24 1063.16 1559.53 1065.39 1556.11 1068.04 1554.15 1071.96 1554.15 1076.18L1554.15 1076.82C1554.15 1080.57 1550.89 1083.7 1546.99 1083.7 1539.48 1083.7 1533.11 1088.57 1531.81 1095.29 1531 1099.53 1532.14 1103.91 1534.92 1107.04 1537.85 1110.34 1541.92 1112.21 1546.33 1112.21L1546.99 1112.21C1550.89 1112.21 1554.15 1115.34 1554.15 1119.26 1554.15 1126.47 1559.21 1132.58 1566.22 1133.68 1567.2 1133.83 1568.01 1133.99 1568.99 1133.99 1572.42 1133.99 1575.84 1132.89 1578.44 1130.69 1581.89 1127.87 1583.83 1123.97 1583.83 1119.72L1583.83 1119.26C1583.83 1115.34 1587.1 1112.21 1591.17 1112.21L1591.67 1112.21C1596.07 1112.21 1600.14 1110.34 1603.08 1107.04 1605.84 1103.91 1607 1099.53 1606.18 1095.29 1605.04 1088.57 1598.67 1083.7 1591.17 1083.7 1587.1 1083.7 1583.83 1080.57 1583.83 1076.82 1583.83 1069.61 1578.78 1063.5 1571.77 1062.25 1570.85 1062.08 1569.91 1062 1568.99 1062Z" fill="#5D5D6D" fill-rule="evenodd"/><path d="M1804.31 1166.21C1814.99 1166.21 1824.53 1172.72 1828.15 1182.56 1828.98 1184.95 1829.46 1187.65 1829.46 1190.51 1829.46 1196.86 1826.83 1203.04 1822.23 1207.65 1817.46 1212.24 1811.04 1214.79 1804.31 1214.79L1497.53 1214.79C1483.72 1214.79 1472.37 1203.83 1472.37 1190.51 1472.37 1187.65 1472.88 1184.95 1473.85 1182.4 1475 1179.07 1477.14 1175.9 1479.78 1173.36 1484.54 1168.75 1490.79 1166.21 1497.53 1166.21ZM1497.53 1157C1488.33 1157 1479.61 1160.5 1473.03 1166.85 1469.41 1170.34 1466.46 1174.78 1464.81 1179.39 1463.49 1182.89 1463.01 1186.69 1463.01 1190.51 1463.01 1208.92 1478.47 1223.99 1497.53 1223.99L1804.31 1223.99C1813.68 1223.99 1822.4 1220.5 1828.98 1214.15 1835.37 1207.8 1839 1199.39 1839 1190.51 1839 1186.53 1838.34 1182.89 1837.02 1179.55 1832.27 1166.06 1819.11 1157 1804.31 1157Z" fill="#5D5D6D" fill-rule="evenodd"/><path d="M1686.99 641.563C1687.48 641.563 1687.97 641.563 1688.3 641.714 1691.56 642.342 1694.01 645.368 1694.01 649.021 1694.01 657.119 1700.85 663.623 1709.17 663.623 1712.75 663.623 1716.02 666.02 1716.52 669.197 1716.99 671.245 1716.35 673.316 1715.04 674.91 1713.73 676.492 1711.77 677.283 1709.67 677.283L1709.17 677.283C1700.85 677.283 1694.01 683.95 1694.01 692.06L1694.01 692.526C1694.01 694.597 1693.18 696.505 1691.56 697.773 1690.29 698.762 1688.75 699.367 1687.13 699.367 1686.65 699.367 1686.17 699.309 1685.69 699.204 1682.43 698.727 1679.98 695.551 1679.98 692.06 1679.98 683.95 1673.29 677.283 1664.99 677.283L1664.33 677.283C1662.37 677.283 1660.24 676.492 1658.94 674.91 1657.64 673.316 1657.16 671.245 1657.48 669.197 1658.13 666.02 1661.22 663.623 1664.99 663.623 1673.29 663.623 1679.98 657.119 1679.98 649.021L1679.98 648.381C1679.98 646.473 1680.96 644.414 1682.43 643.145 1683.73 642.191 1685.36 641.563 1686.99 641.563ZM1686.99 634C1683.55 634 1680.24 635.175 1677.53 637.432 1674.11 640.12 1672.15 644.099 1672.15 648.381L1672.15 649.021C1672.15 652.826 1668.89 656.002 1664.99 656.002 1657.48 656.002 1651.11 660.936 1649.81 667.754 1649 672.047 1650.14 676.492 1652.92 679.669 1655.85 683.008 1659.92 684.905 1664.33 684.905L1664.99 684.905C1668.89 684.905 1672.15 688.081 1672.15 692.06 1672.15 699.367 1677.21 705.557 1684.22 706.674 1685.2 706.826 1686.01 706.988 1686.99 706.988 1690.42 706.988 1693.84 705.871 1696.44 703.649 1699.89 700.787 1701.83 696.831 1701.83 692.526L1701.83 692.06C1701.83 688.081 1705.09 684.905 1709.17 684.905L1709.67 684.905C1714.07 684.905 1718.14 683.008 1721.08 679.669 1723.84 676.492 1725 672.047 1724.18 667.754 1723.04 660.936 1716.67 656.002 1709.17 656.002 1705.09 656.002 1701.83 652.826 1701.83 649.021 1701.83 641.714 1696.78 635.524 1689.77 634.256 1688.85 634.081 1687.91 634 1686.99 634Z" fill="#5D5D6D" fill-rule="evenodd"/><path d="M1597 712.266C1597.31 712.266 1597.63 712.266 1597.84 712.361 1599.94 712.757 1601.52 714.663 1601.52 716.965 1601.52 722.068 1605.93 726.167 1611.29 726.167 1613.6 726.167 1615.71 727.677 1616.03 729.679 1616.34 730.969 1615.92 732.274 1615.08 733.279 1614.24 734.276 1612.97 734.774 1611.62 734.774L1611.29 734.774C1605.93 734.774 1601.52 738.976 1601.52 744.086L1601.52 744.379C1601.52 745.684 1600.99 746.887 1599.94 747.686 1599.12 748.309 1598.13 748.69 1597.08 748.69 1596.77 748.69 1596.46 748.654 1596.16 748.588 1594.05 748.287 1592.47 746.285 1592.47 744.086 1592.47 738.976 1588.16 734.774 1582.81 734.774L1582.38 734.774C1581.12 734.774 1579.75 734.276 1578.91 733.279 1578.07 732.274 1577.76 730.969 1577.97 729.679 1578.39 727.677 1580.38 726.167 1582.81 726.167 1588.16 726.167 1592.47 722.068 1592.47 716.965L1592.47 716.562C1592.47 715.36 1593.11 714.062 1594.05 713.263 1594.89 712.662 1595.94 712.266 1597 712.266ZM1597 707.5C1594.78 707.5 1592.64 708.24 1590.9 709.663 1588.69 711.357 1587.43 713.864 1587.43 716.562L1587.43 716.965C1587.43 719.363 1585.33 721.365 1582.81 721.365 1577.97 721.365 1573.86 724.473 1573.02 728.77 1572.5 731.475 1573.23 734.276 1575.03 736.277 1576.91 738.382 1579.54 739.577 1582.38 739.577L1582.81 739.577C1585.33 739.577 1587.43 741.578 1587.43 744.086 1587.43 748.69 1590.69 752.591 1595.21 753.295 1595.84 753.39 1596.36 753.493 1597 753.493 1599.21 753.493 1601.41 752.789 1603.09 751.388 1605.31 749.585 1606.56 747.092 1606.56 744.379L1606.56 744.086C1606.56 741.578 1608.67 739.577 1611.29 739.577L1611.62 739.577C1614.45 739.577 1617.08 738.382 1618.97 736.277 1620.75 734.276 1621.5 731.475 1620.97 728.77 1620.24 724.473 1616.13 721.365 1611.29 721.365 1608.67 721.365 1606.56 719.363 1606.56 716.965 1606.56 712.361 1603.31 708.46 1598.78 707.661 1598.19 707.551 1597.59 707.5 1597 707.5Z" stroke="#5D5D6D" stroke-width="3.4375" stroke-linejoin="round" stroke-miterlimit="10" fill="#5D5D6D" fill-rule="evenodd"/></g></svg>