<svg width="70" height="70" viewBox="0 0 70 70" fill="none" xmlns="http://www.w3.org/2000/svg">
<path fill-rule="evenodd" clip-rule="evenodd" d="M21.8844 16L21.7192 16.0583L21.5953 16.1178L21.4729 16.2128L21.3696 16.3306L21.287 16.4661L21.2457 16.603L21.2266 16.7575V21.0629H49.2486V16.7575V16.603L49.1881 16.4661L49.1262 16.3306L49.0229 16.2128L48.9005 16.1178L48.756 16.0583L48.6114 16H21.8844Z" fill="white"/>
<path fill-rule="evenodd" clip-rule="evenodd" d="M41.8765 16L42.0402 16.0583L42.2024 16.1178L42.344 16.2128L42.4606 16.3306L42.555 16.4661L42.6007 16.603L42.6243 16.779V21.0629H49.2485V16.7575V16.603L49.1792 16.4661L49.1084 16.3306L48.9919 16.2128L48.8517 16.1178L48.6865 16.0583L48.5243 16H41.8765Z" fill="#E6FFE6"/>
<path fill-rule="evenodd" clip-rule="evenodd" d="M9.97817 16L9.85722 16.0583L9.73627 16.1178L9.63301 16.2128L9.546 16.3306L9.47668 16.4661L9.44274 16.603L9.42505 16.7575V21.0629H15.325V16.7575L15.3074 16.603L15.2719 16.4661L15.2041 16.3306L15.1171 16.2128L15.0138 16.1178L14.9091 16.0583L14.7704 16H9.97817Z" fill="#F56038"/>
<path fill-rule="evenodd" clip-rule="evenodd" d="M54.3698 16L54.1957 16.0583L54.0438 16.1178L53.914 16.2128L53.827 16.3306L53.7414 16.4661L53.6972 16.603L53.675 16.7575V21.0629H61.05V16.7575V16.603L60.9851 16.4661L60.9202 16.3306L60.8111 16.2128L60.6813 16.1178L60.5294 16.0583L60.3775 16H54.3698Z" fill="#6BB36B"/>
<path fill-rule="evenodd" clip-rule="evenodd" d="M9.42505 26.1334V47.6629H61.05V26.1334H9.42505Z" fill="white"/>
<path fill-rule="evenodd" clip-rule="evenodd" d="M9.42505 26.1334V28.0308H54.5202L54.6825 28.0498L54.8241 28.0815L54.9657 28.1474L55.0866 28.2132L55.1884 28.3145L55.2488 28.4311L55.3093 28.5628L55.33 28.6958V47.6629H61.05V26.1334H9.42505Z" fill="#E6FFE6"/>
<path fill-rule="evenodd" clip-rule="evenodd" d="M6.47656 47.6667V53.9962H64.0001V47.6667H6.47656Z" fill="#99FF99"/>
<path fill-rule="evenodd" clip-rule="evenodd" d="M58.1016 47.6667V53.9962H64.0001V47.6667H58.1016Z" fill="#6BB36B"/>
<path fill-rule="evenodd" clip-rule="evenodd" d="M6.47656 21.0667V26.1308H64.0001V21.0667H6.47656Z" fill="#99FF99"/>
<path fill-rule="evenodd" clip-rule="evenodd" d="M58.1016 21.0667V26.1308H64.0001V21.0667H58.1016Z" fill="#6BB36B"/>
<path fill-rule="evenodd" clip-rule="evenodd" d="M35.2273 29.9333V35.6485H28.6001L35.2273 45.1296V39.4156H41.8751L35.2273 29.9333Z" fill="#F56038"/>
<path fill-rule="evenodd" clip-rule="evenodd" d="M14.5624 17.3959V20.2826H9.38516V17.3959H14.5624ZM59.5131 17.3959V20.2826H54.3358V17.3959H59.5131ZM62.2742 21.6772V25.8762H55.3506L55.1692 25.8952L54.9848 25.9256L54.8226 26.0092L54.7016 26.1055L54.5998 26.2207L54.5187 26.355L54.4774 26.5007L54.4981 26.6501L54.5187 26.7806L54.5792 26.8959L54.681 27.0098L54.7827 27.0909L54.9243 27.1745L55.0659 27.2214L55.209 27.2556L55.3712 27.2708H59.5131V47.0105H19.455L19.2736 47.0422L19.1113 47.0764L18.9683 47.1575L18.8458 47.2373L18.7455 47.3526L18.6644 47.4678L18.6039 47.6008L18.5833 47.7477L18.6039 47.8782L18.6644 48.0112L18.7455 48.1265L18.8458 48.2227L18.9683 48.3063L19.1113 48.3722L19.2736 48.4026H62.2742V52.6041H6.72577V48.4026H15.741L15.943 48.3874L16.1053 48.338L16.2675 48.2721L16.3899 48.1733L16.4917 48.0581L16.5729 47.9276L16.6141 47.7819V47.6173L16.5729 47.4868L16.5124 47.3715L16.4106 47.2715L16.3088 47.1726L16.1864 47.1068L16.0448 47.0574L15.8825 47.027L15.7203 47.0105H9.5076V27.2708H51.6351L51.818 27.2404L51.9802 27.191L52.1233 27.1251L52.2442 27.0263L52.346 26.9263L52.4271 26.7958L52.4876 26.6653L52.5083 26.5348L52.4876 26.3854L52.4271 26.2549L52.346 26.1397L52.2442 26.0409L52.1233 25.9598L51.9802 25.8952L51.818 25.8762H6.72577V21.6772H62.2742ZM9.26277 16L9.1005 16.0342L8.93971 16.0659L8.79666 16.1001L8.65505 16.1647L8.51199 16.2305L8.37038 16.3141L8.2686 16.3952L8.14617 16.494L8.06505 16.5903L7.96476 16.7055L7.90427 16.8208L7.84233 16.9513L7.80249 17.0843L7.78183 17.2148V17.3452V20.2826H5.87322L5.69028 20.2978L5.52805 20.332L5.38644 20.3978L5.264 20.4815L5.16223 20.5929L5.08111 20.7082L5.02066 20.8412L5 20.9881V26.469L5.02066 26.6159L5.08111 26.7464L5.16223 26.8617L5.264 26.9757L5.38644 27.0605L5.52805 27.1251L5.69028 27.1568L5.87322 27.1745H7.78183V47.0105H5.87322L5.69028 47.027L5.52805 47.0574L5.38644 47.1233L5.264 47.2069L5.16223 47.3221L5.08111 47.4361L5.02066 47.5666L5 47.7161V53.2945L5.02066 53.4402L5.08111 53.5706L5.16223 53.6859L5.264 53.7859L5.38644 53.867L5.52805 53.9316L5.69028 53.981L5.87322 54H63.1474L63.3097 53.981L63.4719 53.9316L63.6342 53.867L63.7566 53.7859L63.8569 53.6859L63.9395 53.5706L63.9793 53.4402L64 53.2945V47.7161L63.9793 47.5666L63.9395 47.4361L63.8569 47.3221L63.7566 47.2069L63.6342 47.1233L63.4719 47.0574L63.3097 47.027L63.1474 47.0105H61.2388V27.1745H63.1474L63.3097 27.1568L63.4719 27.1251L63.6342 27.0605L63.7566 26.9757L63.8569 26.8617L63.9395 26.7464L63.9793 26.6159L64 26.469V20.9881L63.9793 20.8412L63.9395 20.7082L63.8569 20.5929L63.7566 20.4815L63.6342 20.3978L63.4719 20.332L63.3097 20.2978L63.1474 20.2826H61.2388V17.3452V17.2148L61.1975 17.0843L61.1577 16.9513L61.1164 16.8208L61.0352 16.7055L60.9541 16.5903L60.8538 16.494L60.7506 16.3952L60.6296 16.3141L60.5072 16.2305L60.3656 16.1647L60.2225 16.1001L60.0603 16.0659L59.8995 16.0342L59.7358 16H54.0924L53.9302 16.0342L53.7679 16.0659L53.6249 16.1001L53.4832 16.1647L53.3402 16.2305L53.1986 16.3141L53.0983 16.3952L52.9758 16.494L52.8741 16.5903L52.793 16.7055L52.7325 16.8208L52.6705 16.9513L52.6307 17.0843L52.6101 17.2148L52.5894 17.3452V20.2826H49.1379V17.3452V17.2148L49.0981 17.0843L49.0568 16.9513L49.017 16.8208L48.9358 16.7055L48.8532 16.5903L48.7529 16.494L48.6511 16.3952L48.5287 16.3141L48.4063 16.2305L48.2647 16.1647L48.1231 16.1001L47.9609 16.0659L47.7986 16.0342L47.6364 16H29.221L29.0381 16.0152L28.8758 16.0659L28.7136 16.1305L28.5926 16.2305L28.4702 16.3445L28.4097 16.475L28.3684 16.6245V16.7891L28.4097 16.9196L28.4702 17.0348L28.5513 17.1311L28.6723 17.2312L28.7947 17.2958L28.9378 17.3452L29.1 17.3794L29.2623 17.3959H47.4121V20.2826H21.4861V17.3959H25.5866L25.709 17.3617L25.8314 17.33L25.9317 17.2806L26.0335 17.2312L26.1146 17.1501L26.1957 17.0843L26.2562 16.9855L26.2975 16.9044L26.3182 16.8043V16.6904V16.5903L26.2783 16.475L26.2371 16.361L26.1559 16.2457L26.0541 16.1495L25.973 16.0836L25.8919 16.0342L25.7901 16H20.6542L20.4713 16.0152L20.309 16.0494L20.1468 16.1305L20.0244 16.2141L19.9019 16.3293L19.8208 16.4446L19.781 16.5903L19.7603 16.7398V20.2826H16.3088V17.3452L16.2882 17.2148L16.2675 17.0843L16.2277 16.9513L16.1672 16.8208L16.1053 16.7055L16.005 16.5903L15.9224 16.494L15.8014 16.3952L15.6996 16.3141L15.558 16.2305L15.415 16.1647L15.2734 16.1001L15.1318 16.0659L14.9695 16.0342L14.8058 16H9.26277Z" fill="#005A35"/>
<path fill-rule="evenodd" clip-rule="evenodd" d="M36.1461 31.9131L40.8056 38.0476H35.2257L35.0561 38.0666L34.885 38.1148L34.7345 38.1819L34.5856 38.2693L34.4779 38.3706L34.3938 38.4897L34.351 38.6239L34.3289 38.7747V41.8869L29.6694 35.7486H35.2257L35.4189 35.7334L35.59 35.6979L35.739 35.6308L35.8894 35.5472L35.9971 35.4294L36.0812 35.3103L36.124 35.1761L36.1461 35.038V31.9131ZM35.1416 28.6667L34.9705 28.7022L34.7994 28.7528L34.6918 28.82L34.5856 28.8681L34.5207 28.9555L34.4572 29.0378L34.3938 29.1239L34.351 29.2076L34.3289 29.3101V29.409V34.3109H27.9171L27.7888 34.3464L27.6589 34.3819L27.5528 34.43L27.4038 34.5326L27.2754 34.6352L27.2106 34.753L27.1457 34.8873L27.125 35.0216L27.1457 35.1571L27.1899 35.2939L27.2754 35.4129L34.4572 44.7939L34.5207 44.8775L34.6062 44.9446L34.6918 44.9953L34.7994 45.0472L34.9056 45.0827L35.0133 45.1143L35.1195 45.1296H35.2257L35.441 45.1143L35.5472 45.0979L35.6535 45.0624L35.7611 45.0117L35.8688 44.9446L35.9543 44.861L36.0178 44.7774L36.0812 44.6913L36.1033 44.5887L36.1461 44.5064V44.3873V39.5017H42.4089L42.58 39.4853L42.7511 39.4498L42.9016 39.3827L43.0506 39.3003L43.1568 39.2168L43.2423 39.0977L43.3057 38.9799L43.3278 38.8608L43.3485 38.743L43.3278 38.6239L43.2851 38.5062L43.1996 38.3871L36.0178 29.0062L35.9116 28.9036L35.7818 28.8009L35.6328 28.7338L35.4838 28.6832L35.3127 28.6667H35.1416Z" fill="#005A35"/>
<path fill-rule="evenodd" clip-rule="evenodd" d="M54.3108 33.7371L54.1486 33.7701L54.007 33.822L53.8654 33.9069L53.7636 33.9955L53.6825 34.0981L53.6028 34.2197L53.5615 34.3603L53.5409 34.4984V36.1641H51.616L51.4552 36.1805L51.293 36.2173L51.1514 36.2654L51.0098 36.335L50.9065 36.4402L50.8269 36.5453L50.7458 36.6669L50.7251 36.805V36.9785L50.7458 37.1331L50.8269 37.2749L50.9286 37.3965L51.0703 37.4978L51.2118 37.5663L51.3933 37.6195L51.5762 37.6359H53.5409V39.3206L53.5615 39.4916L53.622 39.6335L53.7238 39.7715L53.8447 39.8728L53.9863 39.9615L54.1486 40.0299L54.3315 40.0667H54.5144L54.6766 40.0299L54.8182 39.978L54.9598 39.8931L55.0616 39.8045L55.1427 39.7019L55.2224 39.5803L55.2637 39.4397L55.2843 39.3016V37.6359H57.249L57.4304 37.6195L57.6134 37.5663L57.7549 37.4978L57.8965 37.3965L57.9983 37.2749L58.0794 37.1331L58.0986 36.9785V36.805L58.0794 36.6669L57.9983 36.5453L57.9172 36.4402L57.8154 36.335L57.6738 36.2654L57.5322 36.2173L57.37 36.1805L57.2092 36.1641H55.2843V34.4629L55.2637 34.3084L55.2032 34.1703L55.1014 34.0285L54.979 33.9272L54.8374 33.8385L54.6766 33.7701L54.4937 33.7371H54.3108Z" fill="#005A35"/>
<path fill-rule="evenodd" clip-rule="evenodd" d="M13.2438 36.2692L13.0417 36.2831L12.8795 36.3288L12.7187 36.3883L12.5977 36.4782L12.4974 36.5821L12.4148 36.6999L12.375 36.8329V36.9811L12.4148 37.1001L12.4768 37.204L12.5771 37.2939L12.6788 37.3839L12.7998 37.4434L12.9621 37.4877L13.1022 37.5169L13.2644 37.5308H18.9004L19.0833 37.5169L19.2455 37.4713L19.4063 37.4117L19.5273 37.3256L19.6497 37.2205L19.7102 37.1001L19.75 36.9672V36.8189L19.7102 36.6999L19.6497 36.596L19.5671 36.5061L19.4462 36.4162L19.3252 36.3566L19.1851 36.3148L19.0228 36.2831L18.8606 36.2692H13.2438Z" fill="#005A35"/>
<rect x="0.5" y="0.5" width="69" height="69" rx="9.5" stroke="#005A35"/>
</svg>
