<svg width="70" height="70" viewBox="0 0 70 70" fill="none" xmlns="http://www.w3.org/2000/svg">
<path d="M39.7525 24.0167L10.9583 24.1064V54.4191C10.9583 57.0023 13.0488 59.0964 15.6276 59.0964H35.0832C37.662 59.0964 39.7525 57.0023 39.7525 54.4191V24.0167Z" fill="#6BB36B"/>
<path d="M47.535 13.8826H43.6438C42.7843 13.8826 42.0874 13.1846 42.0874 12.3236C42.0874 11.4625 42.7843 10.7645 43.6438 10.7645H47.535V13.8826Z" fill="#F56038"/>
<path d="M35.0832 27.9918C37.662 27.9918 39.7525 25.7839 39.7525 23.2007C39.7525 20.6175 37.662 18.4097 35.0832 18.4097H15.6276C13.0488 18.4097 10.9583 20.6175 10.9583 23.2007C10.9583 25.7839 13.0488 27.9918 15.6276 27.9918H35.0832Z" fill="#F56038"/>
<path d="M32.7484 24.8317C33.608 24.8317 34.3049 24.1127 34.3049 23.2517C34.3049 22.3906 33.608 21.6716 32.7484 21.6716H17.9622C17.1026 21.6716 16.4058 22.3906 16.4058 23.2517C16.4058 24.1127 17.1026 24.8317 17.9622 24.8317H32.7484Z" fill="#F56038"/>
<path d="M39.7524 55.9782H56.8733C58.1628 55.9782 59.208 54.9312 59.208 53.6396V16.2214C59.208 17.513 58.1627 18.56 56.8733 18.56H35.8613C38.0104 18.56 39.7524 20.3051 39.7524 22.4577V55.9782Z" fill="#619982"/>
<path d="M35.083 32.477H34.016V30.9479H35.083C35.2167 30.9479 35.3516 30.9412 35.4837 30.928L35.6358 32.4495C35.4533 32.4677 35.2674 32.477 35.083 32.477ZM33.202 32.477H31.6755V30.9479H33.202V32.477ZM30.8613 32.477H29.3349V30.9479H30.8613V32.477ZM28.5208 32.477H26.9943V30.9479H28.5208V32.477ZM26.1803 32.477H24.6538V30.9479H26.1803V32.477ZM23.8396 32.477H22.3132V30.9479H23.8396V32.477ZM21.6009 32.477H19.9727V30.9479H21.6009V32.477ZM19.2604 32.477H17.6321V30.9479H19.2604V32.477ZM16.9197 32.477H15.6274C15.5113 32.477 15.3944 32.4735 15.2799 32.4662L15.3744 30.9401C15.4575 30.9453 15.5427 30.9478 15.6274 30.9478H16.9197V32.477ZM14.3873 32.3372C13.7954 32.2012 13.2352 31.9695 12.7221 31.6485L13.5305 30.3516C13.8993 30.5823 14.3025 30.749 14.7286 30.8469L14.3873 32.3372ZM36.5242 32.2851L36.1234 30.8095C36.5438 30.695 36.9395 30.512 37.2994 30.2655L38.1608 31.5278C37.6602 31.8708 37.1095 32.1256 36.5242 32.2851ZM11.9976 31.1064C11.5419 30.7016 11.1613 30.2273 10.8668 29.6965L12.2008 28.9534C12.4114 29.333 12.6838 29.6723 13.0103 29.9622L11.9976 31.1064ZM38.8624 30.9562L37.8038 29.8545C38.1184 29.5511 38.3773 29.2007 38.5736 28.8128L39.9352 29.5042C39.6615 30.0454 39.3006 30.5339 38.8624 30.9562ZM10.4949 28.8617C10.2959 28.2914 10.1948 27.686 10.1948 27.0744H11.7213C11.7213 27.4821 11.7935 27.9467 11.9358 28.3542L10.4949 28.8617ZM40.2751 28.6703L38.8167 28.222C38.9311 27.8517 38.989 27.4821 38.989 27.0743H40.5154C40.5156 27.584 40.4347 28.1534 40.2751 28.6703Z" fill="#005A35"/>
<path d="M35.083 40.4281H33.9143V38.899H35.083C35.2017 38.899 35.3219 38.8935 35.4401 38.8828L35.5779 40.4056C35.4141 40.4205 35.2476 40.4281 35.083 40.4281ZM33.202 40.4281H31.5737V38.899H33.202V40.4281ZM30.8613 40.4281H29.2332V38.899H30.8614V40.4281H30.8613ZM28.5208 40.4281H26.9943V38.899H28.5208V40.4281ZM26.1803 40.4281H24.6538V38.899H26.1803V40.4281ZM23.8396 40.4281H22.3132V38.899H23.8396V40.4281ZM21.4991 40.4281H19.9727V38.899H21.4991V40.4281ZM19.1585 40.4281H17.6321V38.899H19.1586V40.4281H19.1585ZM16.818 40.4281H15.6274C15.4917 40.4281 15.3542 40.4229 15.2189 40.4127L15.3338 38.8881C15.431 38.8954 15.5297 38.8991 15.6273 38.8991H16.8179V40.4281H16.818ZM14.325 40.2687C13.7376 40.1224 13.1814 39.8787 12.6722 39.5446L13.5084 38.2654C13.8741 38.5052 14.2729 38.68 14.6936 38.7849L14.325 40.2687ZM36.4694 40.248L36.0789 38.7699C36.4986 38.6586 36.895 38.4781 37.2571 38.2329L38.1114 39.5002C37.6073 39.8413 37.0548 40.0929 36.4694 40.248ZM11.9602 38.9884C11.5151 38.5773 11.1433 38.0989 10.8549 37.5666L12.1967 36.8373C12.4049 37.2218 12.6735 37.5674 12.9951 37.8644L11.9602 38.9884ZM38.8157 38.9336L37.7647 37.8245C38.0818 37.5231 38.3448 37.1739 38.5464 36.7868L39.8997 37.4942C39.6199 38.0312 39.2552 38.5156 38.8157 38.9336ZM10.4911 36.7205C10.2945 36.1482 10.1948 35.5351 10.1948 34.9235H11.7213C11.7213 35.4332 11.7931 35.8025 11.9345 36.2144L10.4911 36.7205ZM40.2496 36.6597L38.7978 36.187C38.9247 35.796 38.9891 35.3872 38.9891 34.9721L40.5155 34.9723C40.5156 35.5481 40.4261 36.1158 40.2496 36.6597Z" fill="#005A35"/>
<path d="M15.6223 48.0733C15.5086 48.0733 15.3925 48.0696 15.2777 48.0625L15.3731 46.5364C15.4576 46.5417 15.5433 46.5451 15.6267 46.5442H16.9197V48.0733H15.6274C15.6257 48.0733 15.624 48.0733 15.6223 48.0733ZM35.083 48.0733H34.016V46.5442H35.083C35.2165 46.5442 35.3508 46.5376 35.4821 46.5245L35.6339 48.046C35.4523 48.064 35.267 48.0733 35.083 48.0733ZM33.202 48.0733H31.6755V46.5442H33.202V48.0733ZM30.8613 48.0733H29.3349V46.5442H30.8613V48.0733ZM28.5208 48.0733H26.9943V46.5442H28.5208V48.0733ZM26.1803 48.0733H24.6538V46.5442H26.1803V48.0733ZM23.8396 48.0733H22.3132V46.5442H23.8396V48.0733ZM21.6009 48.0733H19.9727V46.5442H21.6009V48.0733ZM19.2604 48.0733H17.6321V46.5442H19.2604V48.0733ZM14.3854 47.9329C13.7939 47.7966 13.2337 47.5646 12.7205 47.2431L13.5297 45.9465C13.8987 46.1777 14.3017 46.3445 14.7274 46.4426L14.3854 47.9329ZM36.5224 47.8817L36.1218 46.4062C36.5422 46.2917 36.938 46.1087 37.2979 45.8624L38.1591 47.1249C37.6582 47.4678 37.1075 47.7225 36.5224 47.8817ZM11.9962 46.7003C11.5407 46.2953 11.1606 45.8208 10.8662 45.29L12.2007 44.5477C12.4111 44.9272 12.6832 45.2668 13.0096 45.5567L11.9962 46.7003ZM38.8608 46.5536L37.8025 45.4517C38.1172 45.1486 38.3763 44.7982 38.5728 44.4103L39.934 45.1021C39.66 45.6431 39.2989 46.1314 38.8608 46.5536ZM10.4948 44.4565C10.2958 43.8863 10.1948 43.2822 10.1948 42.6707H11.7213C11.7213 43.0784 11.7935 43.5423 11.9357 43.95L10.4948 44.4565ZM40.2744 44.2609L38.8162 43.8084C38.931 43.4372 38.9893 43.0492 38.9891 42.6551L40.5155 42.6549C40.5157 43.2027 40.4345 43.743 40.2744 44.2609Z" fill="#005A35"/>
<path d="M35.0829 55.9225H34.0159V54.3934H35.0829C35.211 54.3934 35.34 54.3872 35.4665 54.3749L35.614 55.8968C35.4388 55.9138 35.2602 55.9225 35.0829 55.9225ZM33.2019 55.9225H31.6754V54.3934H33.2019V55.9225ZM30.8612 55.9225H29.3348V54.3934H30.8612V55.9225ZM28.5207 55.9225H26.9942V54.3934H28.5207V55.9225ZM26.1802 55.9225H24.6537V54.3934H26.1802V55.9225ZM23.8396 55.9225H22.3131V54.3934H23.8396V55.9225ZM21.499 55.9225H19.9726V54.3934H21.499V55.9225ZM19.1584 55.9225H17.632V54.3934H19.1585V55.9225H19.1584ZM16.8179 55.9225H15.6273C15.503 55.9224 15.3786 55.9182 15.2568 55.9101L15.3586 54.3843C15.4472 54.3903 15.5378 54.3933 15.628 54.3934H16.8179V55.9225ZM14.3636 55.7756C13.7733 55.6357 13.2146 55.3995 12.7028 55.0734L13.522 53.7831C13.8896 54.0174 14.2911 54.1871 14.7151 54.2875L14.3636 55.7756ZM36.5032 55.7352L36.1063 54.2587C36.5266 54.1455 36.9226 53.9633 37.2833 53.7175L38.1419 54.9817C37.6397 55.3238 37.0884 55.5773 36.5032 55.7352ZM11.9828 54.5256C11.5312 54.1184 11.154 53.6425 10.8619 53.111L12.1991 52.3734C12.4088 52.7547 12.6797 53.0965 13.0042 53.3892L11.9828 54.5256ZM38.8445 54.4119L37.789 53.3075C38.1044 53.0049 38.365 52.6549 38.5634 52.2674L39.9217 52.965C39.6455 53.5043 39.2831 53.9913 38.8445 54.4119ZM10.4934 52.2913C10.2952 51.7203 10.1948 51.1315 10.1948 50.5199H11.7213C11.7213 50.9276 11.7934 51.3849 11.9352 51.794L10.4934 52.2913ZM40.2655 52.1403L38.8097 51.6878C38.9286 51.3096 38.989 50.9275 38.989 50.5198H40.5154C40.5155 51.0295 40.4313 51.6133 40.2655 52.1403Z" fill="#005A35"/>
<path d="M56.8736 26.3404H56.0954V24.8114H56.8736C57.0502 24.8114 57.2233 24.7824 57.3878 24.7253L57.8873 26.1701C57.5617 26.2831 57.2206 26.3404 56.8736 26.3404ZM55.317 26.3404H53.7606V24.8114H55.317V26.3404ZM52.9824 26.3404H51.426V24.8114H52.9825V26.3404H52.9824ZM50.6478 26.3404H49.0915V24.8114H50.6478V26.3404ZM48.3131 26.3404H46.7567V24.8114H48.3131V26.3404ZM45.9785 26.3404H44.4221V24.8114H45.9785V26.3404ZM43.6438 26.3404H42.0874V24.8114H43.6438V26.3404ZM41.3091 26.3404H39.7527V24.8114H41.3091V26.3404ZM58.7893 25.6759L57.8448 24.4747C58.1215 24.2564 58.3192 23.9488 58.4011 23.6088L59.8849 23.9677C59.7229 24.6396 59.3338 25.2462 58.7893 25.6759Z" fill="#005A35"/>
<path d="M56.8733 34.9154H56.0951V33.3864H56.8733C57.05 33.3864 57.223 33.3574 57.3876 33.3003L57.887 34.7451C57.5614 34.8581 57.2203 34.9154 56.8733 34.9154ZM55.3168 34.9154H53.7604V33.3864H55.3168V34.9154ZM52.9821 34.9154H51.4258V33.3864H52.9822V34.9154H52.9821ZM50.6476 34.9154H49.0912V33.3864H50.6476V34.9154ZM48.3129 34.9154H46.7564V33.3864H48.3129V34.9154ZM45.9782 34.9154H44.4219V33.3864H45.9782V34.9154ZM43.6436 34.9154H42.0871V33.3864H43.6436V34.9154ZM41.3089 34.9154H39.7524V33.3864H41.3089V34.9154ZM58.7891 34.2509L57.8445 33.0498C58.1213 32.8313 58.3189 32.5238 58.4009 32.1838L59.8847 32.5427C59.7227 33.2146 59.3336 33.8214 58.7891 34.2509Z" fill="#005A35"/>
<path d="M56.8733 43.4904H56.0951V41.9614H56.8733C57.05 41.9614 57.223 41.9324 57.3876 41.8754L57.887 43.3202C57.5614 43.4332 57.2203 43.4904 56.8733 43.4904ZM55.3168 43.4904H53.7604V41.9614H55.3168V43.4904ZM52.9821 43.4904H51.4258V41.9614H52.9822V43.4904H52.9821ZM50.6476 43.4904H49.0912V41.9614H50.6476V43.4904ZM48.3129 43.4904H46.7564V41.9614H48.3129V43.4904ZM45.9782 43.4904H44.4219V41.9614H45.9782V43.4904ZM43.6436 43.4904H42.0871V41.9614H43.6436V43.4904ZM41.3089 43.4904H39.7524V41.9614H41.3089V43.4904ZM58.7891 42.8259L57.8445 41.6248C58.1213 41.4064 58.3189 41.0988 58.4009 40.7589L59.8847 41.1178C59.7227 41.7897 59.3336 42.3964 58.7891 42.8259Z" fill="#005A35"/>
<path d="M56.8733 52.0655H56.0951V50.5365H56.8733C57.05 50.5365 57.223 50.5075 57.3876 50.4505L57.887 51.8953C57.5614 52.0083 57.2203 52.0655 56.8733 52.0655ZM55.3168 52.0655H53.7604V50.5365H55.3168V52.0655ZM52.9821 52.0655H51.4258V50.5365H52.9822V52.0655H52.9821ZM50.6476 52.0655H49.0912V50.5365H50.6476V52.0655ZM48.3129 52.0655H46.7564V50.5365H48.3129V52.0655ZM45.9782 52.0655H44.4219V50.5365H45.9782V52.0655ZM43.6436 52.0655H42.0871V50.5365H43.6436V52.0655ZM41.3089 52.0655H39.7524V50.5365H41.3089V52.0655ZM58.7891 51.4009L57.8445 50.1998C58.1213 49.9814 58.3189 49.6738 58.4009 49.3339L59.8847 49.6928C59.7227 50.3648 59.3336 50.9714 58.7891 51.4009Z" fill="#005A35"/>
<path d="M42.0872 18.56H56.8734C58.1628 18.56 59.2081 17.513 59.2081 16.2214C59.2081 14.9298 58.1627 13.8828 56.8734 13.8828H43.6437C42.7841 13.8828 42.0873 13.1847 42.0873 12.3237L42.0872 18.56Z" fill="#6BB36B"/>
<path d="M32.7484 25.5453H17.9622C16.6831 25.5453 15.6426 24.4936 15.6426 23.2008C15.6426 21.908 16.6832 20.8563 17.9622 20.8563H32.7484C34.0275 20.8563 35.0682 21.908 35.0682 23.2008C35.0682 24.4936 34.0276 25.5453 32.7484 25.5453ZM17.9623 22.3853C17.5323 22.3853 17.1691 22.7587 17.1691 23.2007C17.1691 23.6428 17.5323 24.0162 17.9623 24.0162H32.7485C33.1785 24.0162 33.5418 23.6428 33.5418 23.2007C33.5418 22.7587 33.1785 22.3853 32.7485 22.3853H17.9623Z" fill="#005A35"/>
<path d="M59.9714 16.2206C59.9711 14.5098 58.5815 13.1181 56.8735 13.1181H48.2981V10H43.6437C42.3646 10 41.324 11.0424 41.324 12.3237L41.3241 12.326L41.3408 17.7401L15.6276 17.6962C14.1785 17.6962 12.8111 18.2855 11.7774 19.3559C10.758 20.4112 10.1964 21.793 10.1952 23.2469L10 54.4191C10 57.3922 12.6297 60 15.6276 60H35.0832C38.0698 60 40.593 57.4743 40.593 54.4828L40.5157 23.199H40.5145C40.501 21.7626 39.9414 20.3997 38.9334 19.356C38.9017 19.3231 38.8687 19.2922 38.8364 19.2602L56.8734 19.3246C57.4476 19.3246 57.9855 19.1668 58.4469 18.893L58.4734 53.5011C58.4734 54.3446 57.7707 55.0053 56.8734 55.0053H41.2415V56.5344H56.8735C58.6268 56.5344 60 55.202 60 53.5005L59.9714 16.2206ZM39.0666 54.4846C39.0666 56.6454 37.2425 58.4708 35.0833 58.4708H15.6276C13.4429 58.4709 11.5265 56.5776 11.5265 54.4239L11.6978 27.0612C11.7244 27.0899 11.7501 27.1194 11.7774 27.1477C12.8112 28.218 14.1785 28.8074 15.6276 28.8074H35.0832C36.5323 28.8074 37.8997 28.218 38.9334 27.1477C38.9559 27.1244 38.9769 27.1001 38.9988 27.0766L39.0666 54.4846ZM38.9894 23.2517C38.9894 25.4343 37.2006 27.2782 35.0833 27.2782H15.6276C13.5103 27.2782 11.7216 25.4342 11.7216 23.2517C11.7216 21.0692 13.5104 19.2252 15.6276 19.2252H29.0197L35.4895 19.2483C37.4243 19.4655 38.9894 21.2102 38.9894 23.2517ZM42.8505 12.3235C42.8506 11.8854 43.2063 11.529 43.6437 11.529H46.7717V13.1182H43.6437C43.2063 13.1182 42.8506 12.7615 42.8505 12.3235ZM56.8763 17.7955L42.8674 17.7455L42.8573 14.5095C43.103 14.5985 43.3678 14.6472 43.6437 14.6472H56.8735C57.74 14.6472 58.4449 15.3533 58.4449 16.2212C58.4449 17.0893 57.7399 17.7955 56.8763 17.7955Z" fill="#005A35"/>
<path d="M15.5969 26.3404C13.9687 26.3404 12.499 24.9484 12.499 23.2373C12.499 21.5262 13.9687 20.1342 15.5969 20.1342V21.6632C14.7828 21.6632 14.0254 22.3693 14.0254 23.2372C14.0254 24.1052 14.7827 24.8113 15.5969 24.8113V26.3404Z" fill="#005A35"/>
<path d="M35.0337 26.3404V24.8113C35.9496 24.8113 36.6051 24.1052 36.6051 23.2372C36.6051 22.3692 35.9495 21.6632 35.0337 21.6632V20.1342C36.7637 20.1342 38.1315 21.5262 38.1315 23.2372C38.1315 24.9484 36.7637 26.3404 35.0337 26.3404Z" fill="#005A35"/>
<rect x="0.5" y="0.5" width="69" height="69" rx="9.5" stroke="#005A35"/>
</svg>
