<svg width="70" height="70" viewBox="0 0 70 70" fill="none" xmlns="http://www.w3.org/2000/svg">
<path fill-rule="evenodd" clip-rule="evenodd" d="M46.017 12.8912L45.7365 13.0555L45.4755 13.2149L45.216 13.4171L44.955 13.6192L44.6955 13.8388L44.454 14.0788L44.214 14.3188L43.9935 14.6015V15.0848V15.2063L44.3745 15.3658L44.715 15.5269L45.0765 15.7275L45.4155 15.9075L45.7575 16.1286L46.077 16.3291L46.3981 16.5739L46.6996 16.795L46.9996 17.035L47.3011 17.2972L47.5801 17.5562L47.8411 17.8373L48.1021 18.12L48.3421 18.4011L48.5836 18.7027L48.8041 19.0027L49.0246 19.3265L49.2256 19.6471L49.4251 19.9708L49.6051 20.3135L49.7656 20.6514L49.9261 20.9941L50.0657 21.3557L50.1872 21.7173L50.2877 22.0806L50.3866 22.4422L50.4872 22.8259L50.5472 23.2066L50.6072 23.5871L50.6477 23.9693L50.6687 24.372V24.7763V25.1142L50.6477 25.4758L50.6072 25.8185L50.5682 26.1628L50.4467 26.8434L50.2877 27.4878L50.6687 27.7688L51.0287 28.0736L51.3692 28.3736L51.7112 28.7132L52.0112 29.0559L52.2917 29.4175L52.5527 29.8029L52.7927 30.1835L53.0132 30.6066L53.1932 31.0283L53.3537 31.4468L53.4947 31.8937L53.5937 32.3533L53.6747 32.8144L53.7152 33.2787L53.7347 33.7635L53.7152 34.163L53.6942 34.5468L53.6342 34.9274L53.5547 35.3095L53.4737 35.6901L53.3537 36.0517L53.2142 36.4165L53.0732 36.7782L52.8932 37.1177L52.7132 37.4604L52.5122 37.7841L52.2917 38.0842L52.0502 38.4047L51.8102 38.6858L51.5492 38.9685L51.2702 39.2306L50.9687 39.4896L50.6687 39.7328L50.3476 39.9728L50.0267 40.194L49.6861 40.3961L49.3246 40.5745L48.9646 40.7388L48.5836 40.8983L48.2026 41.0404L47.8216 41.1572L47.4211 41.2599L46.9996 41.3594L46.5991 41.421L46.1775 41.481L45.7365 41.4999L45.3165 41.5237H44.5545L44.4135 42.1632L44.2335 42.787L44.013 43.3934L43.7325 43.9761L43.431 44.5352L43.092 45.08L42.711 45.5822L42.309 46.067L41.8679 46.5265L41.3864 46.9497L40.8854 47.3304L40.3649 47.692L39.8039 48.0157L39.2219 48.2984L38.6218 48.5368L38.0009 48.739L38.2408 49.2617L38.4809 49.8049L38.7809 50.3087L39.1019 50.7888L39.7244 50.5488L40.3244 50.3087L40.9064 50.0039L41.4869 49.6833L42.0285 49.3217L42.5505 48.9411L43.0515 48.5368L43.512 48.0962L43.9725 47.632L44.394 47.133L44.7945 46.6292L45.156 46.0859L45.4965 45.5411L45.7965 44.9584L46.077 44.3567L46.3186 43.7551L46.7596 43.6935L47.2201 43.6335L47.6611 43.5529L48.1021 43.4503L48.5431 43.3318L48.9646 43.1913L49.3846 43.027L49.8061 42.8675L50.2067 42.6891L50.6072 42.4869L51.0092 42.2659L51.3902 42.0258L51.7502 41.7637L52.1102 41.4999L52.4717 41.2188L52.8122 40.9172L53.1737 40.5556L53.5337 40.175L53.8757 39.7913L54.1757 39.3901L54.4562 38.9685L54.7173 38.5263L54.9573 38.1031L55.1778 37.6436L55.3788 37.1777L55.5393 36.7182L55.6788 36.2333L55.8003 35.7501L55.8798 35.27L55.9593 34.7678L55.9998 34.2657V33.7635V33.2597L55.9593 32.7575L55.8798 32.2553L55.8003 31.7516L55.6788 31.2683L55.5183 30.8072L55.3593 30.324L55.1583 29.8597L54.9573 29.4175L54.7173 28.9753L54.4562 28.5348L54.1548 28.1305L53.8548 27.7309L53.5337 27.3267L53.1737 26.965L52.8122 26.6034L52.8332 26.4818L52.8722 26.0633L52.9127 25.618L52.9337 25.1979L52.9532 24.7763L52.9337 24.3341L52.9127 23.9109L52.8722 23.4892L52.8332 23.0849L52.7522 22.6617L52.6727 22.2401L52.5917 21.8405L52.4717 21.4363L52.3517 21.0367L52.2122 20.6325L52.0712 20.2519L51.9107 19.8681L51.7307 19.4859L51.5297 19.1243L51.3302 18.7437L51.1292 18.3821L50.8892 18.0394L50.6687 17.6778L50.4077 17.3572L50.1467 17.0145L49.8661 16.6924L49.5856 16.3718L49.3051 16.0702L48.9841 15.767L48.6841 15.489L48.3421 15.2063L48.0016 14.9252L47.6611 14.6615L47.3011 14.4215L46.9396 14.1783L46.5585 13.9382L46.1775 13.7172L46.1176 13.2955L46.017 12.8912Z" fill="#02905D"/>
<path fill-rule="evenodd" clip-rule="evenodd" d="M23.9815 12.8912L23.881 13.2955L23.821 13.7172L23.1595 14.1214L22.5175 14.521L21.916 14.9852L21.3355 15.4653L20.7939 15.9675L20.2734 16.5123L19.7919 17.095L19.3314 17.6778L19.0704 18.082L18.8094 18.4816L18.5694 18.9032L18.3489 19.3265L18.1494 19.7497L17.9484 20.1918L17.7879 20.6135L17.6274 21.0746L17.4864 21.5168L17.3859 21.9621L17.2869 22.4233L17.2059 22.8828L17.1264 23.3487L17.0859 23.8319L17.0664 24.293L17.0454 24.7763L17.0664 25.2374L17.0859 25.678L17.1264 26.1423L17.1864 26.6034L16.9059 26.8671L16.6254 27.1672L16.3643 27.4498L16.1048 27.7688L15.8633 28.0736L15.6428 28.3942L15.4223 28.7369L15.2213 29.0748L14.9408 29.6196L14.7008 30.1835L14.4803 30.7472L14.3003 31.3299L14.1803 31.9316L14.0798 32.5364L14.0198 33.1381L13.9988 33.7635V34.2419L14.0393 34.7268L14.0993 35.1863L14.1803 35.6711L14.3003 36.1354L14.4203 36.5776L14.5808 37.0182L14.7413 37.4604L14.9408 37.8836L15.1418 38.2863L15.3818 38.6858L15.6233 39.0901L15.9038 39.4707L16.1843 39.8323L16.4843 40.194L16.8054 40.5367L17.1459 40.8572L17.4864 41.181L17.8479 41.481L18.2289 41.7637L18.6294 42.0258L19.0299 42.2659L19.4514 42.5059L19.8924 42.727L20.3334 42.9291L20.7744 43.1107L21.235 43.2529L21.7165 43.3934L22.198 43.5119L22.6795 43.6145L23.1805 43.6935L23.6815 43.7551L23.821 44.093L23.9605 44.4562L24.121 44.7989L24.2815 45.1226L24.463 45.4606L24.6625 45.7843L24.8635 46.1049L25.0631 46.4049L25.2851 46.7287L25.5041 47.0113L25.7456 47.3114L26.0051 47.5925L26.2661 47.8752L26.5271 48.1341L26.8076 48.3963L27.0881 48.6364L27.5096 49.0027L27.9701 49.3217L28.4111 49.6233L28.8927 49.9044L29.3742 50.1445L29.8752 50.3876L30.3762 50.5898L30.8967 50.7888L31.2177 50.3087L31.5177 49.8049L31.7577 49.2617L31.9992 48.739V48.72L31.5177 48.5795L31.0572 48.4152L30.5952 48.2178L30.1542 47.9968L29.7342 47.7535L29.3337 47.4946L28.9331 47.2119L28.5521 46.9071L28.2716 46.6481L27.9701 46.367L27.7091 46.0859L27.4496 45.7843L27.2081 45.4843L26.9681 45.1605L26.7476 44.8399L26.5466 44.4973L26.3471 44.1546L26.1656 43.8119L26.0051 43.4503L25.8656 43.0696L25.7261 42.6891L25.6241 42.3038L25.5251 41.9042L25.4441 41.5237H24.6835L24.2425 41.4999L23.821 41.481L23.3995 41.421L22.9795 41.3594L22.5775 41.2599L22.177 41.1572L21.796 41.0404L21.415 40.8983L21.034 40.7388L20.6739 40.5745L20.3139 40.3961L19.9719 40.194L19.6524 39.9728L19.3314 39.7328L19.0299 39.4896L18.7299 39.2496L18.4494 38.9685L18.1884 38.6858L17.9484 38.4047L17.7069 38.0842L17.4864 37.7841L17.2869 37.4604L17.1069 37.1177L16.9254 36.7782L16.7859 36.4165L16.6449 36.0517L16.5249 35.6901L16.4438 35.3095L16.3643 34.9274L16.3043 34.5468L16.2848 34.163L16.2638 33.7635L16.2848 33.2787L16.3238 32.8144L16.4048 32.3533L16.5038 31.8937L16.6449 31.4468L16.8054 31.0283L16.9854 30.6066L17.2059 30.1835L17.4459 29.8029L17.7069 29.4175L17.9874 29.0559L18.2889 28.7132L18.6294 28.3736L18.9699 28.0736L19.3314 27.7688L19.7124 27.4878L19.5519 26.8434L19.4709 26.5055L19.4304 26.1628L19.3914 25.8185L19.3509 25.4758L19.3314 25.1142V24.7763V24.372L19.3509 23.9693L19.3914 23.5871L19.4514 23.2066L19.5114 22.8259L19.6119 22.4422L19.6914 22.0806L19.8114 21.7173L19.9329 21.3557L20.0724 20.9941L20.2329 20.6514L20.3934 20.3135L20.5734 19.9708L20.7744 19.6471L20.9739 19.3265L21.196 19.0027L21.415 18.7027L21.6565 18.4011L21.8965 18.12L22.1575 17.8373L22.4185 17.5562L22.699 17.2972L22.999 17.035L23.3005 16.795L23.6005 16.5739L23.9215 16.3291L24.2425 16.1286L24.583 15.9075L24.9236 15.7275L25.2851 15.5269L25.6241 15.3658L26.0051 15.2063L25.9856 15.0848L26.0051 14.6015L25.7861 14.3188L25.5446 14.0788L25.3046 13.8388L25.0436 13.6192L24.7841 13.4171L24.5231 13.2149L24.2425 13.0555L23.9815 12.8912Z" fill="#02905D"/>
<path fill-rule="evenodd" clip-rule="evenodd" d="M35.3068 6.57764L34.8523 6.61711L34.4203 6.65971L33.9868 6.74183L33.5743 6.82395L33.1618 6.92978L32.7493 7.05138L32.3577 7.19509L31.9662 7.36246L31.5957 7.54724L31.2237 7.7336L30.8742 7.93731L30.5232 8.16315L30.1932 8.41423L29.8842 8.65901L29.5752 8.92903L29.2857 9.19434L29.0187 9.48335L28.7501 9.79603L28.5236 10.1039L28.2971 10.4324L28.0706 10.7641L27.8846 11.1115L27.7196 11.4637L27.5546 11.8347L27.4106 12.2059L27.3071 12.5991L27.2036 12.9702L27.1211 13.3808L27.0596 13.7709L27.0386 14.1846L27.0191 14.5999V14.701L26.6471 14.8652L26.2766 15.0516L25.9256 15.2363L25.5761 15.4432L25.2251 15.6501L24.8951 15.8759L24.5651 16.1033L24.2365 16.3481L23.926 16.5992L23.638 16.8645L23.3485 17.133L23.0815 17.4219L22.813 17.7109L22.5445 17.9999L22.2985 18.3095L22.072 18.6174L21.844 18.949L21.6385 19.2775L21.4525 19.6091L21.2665 19.9566L21.082 20.3087L20.9365 20.6593L20.7925 21.0304L20.6695 21.4015L20.5465 21.7726L20.4414 22.1438L20.3589 22.5338L20.2779 22.9286L20.2359 23.3187L20.1954 23.7293L20.1744 24.1241L20.1534 24.5331V24.8852L20.1744 25.2563L20.2149 25.6069L20.2569 25.9591L20.3184 26.3065L20.3799 26.6571L20.566 27.3377L20.1534 27.6062L19.7829 27.9157L19.4319 28.2473L19.1019 28.5742L18.7719 28.9264L18.4839 29.2975L18.2154 29.6875L17.9694 30.1013L17.7624 30.5119L17.5569 30.9446L17.3919 31.3789L17.2674 31.8321L17.1444 32.3075L17.0813 32.7812L17.0199 33.2565L17.0004 33.7493L17.0199 34.163L17.0619 34.5768L17.1024 34.9668L17.1848 35.3584L17.2884 35.7485L17.3919 36.1197L17.5359 36.4939L17.7009 36.865L17.8659 37.2124L18.0504 37.5441L18.2574 37.8963L18.4839 38.2042L18.7314 38.5137L18.9789 38.8217L19.2669 39.1106L19.5564 39.3807L19.8444 39.646L20.1534 39.8955L20.4834 40.1419L20.8345 40.3677L21.184 40.5745L21.535 40.7577L21.9265 40.9267L22.2985 41.0909L22.69 41.2346L23.1025 41.3562L23.5135 41.4621L23.926 41.5631L24.3595 41.6247L24.793 41.6879L25.2251 41.7068L25.6781 41.7305H26.4416L26.5241 42.1206L26.6276 42.5312L26.7506 42.926L26.8946 43.316L27.0386 43.7061L27.2036 44.0772L27.3896 44.4294L27.5966 44.8005L27.8021 45.1321L28.0286 45.4795L28.2761 45.7922L28.5236 46.1207L28.7906 46.4097L29.0591 46.6987L29.3487 46.9877L29.6577 47.253L30.0912 47.5846L30.5232 47.8925L30.9777 48.1815L31.4517 48.4516L31.9452 48.6774L32.4403 48.8843L32.9758 49.069L33.4918 49.2127H38.0069L38.3369 49.1117L38.6669 49.0248L38.9969 48.9048L39.3059 48.7801L39.9239 48.51L40.5225 48.1815L41.1 47.831L41.6355 47.4203L42.15 46.9877L42.6255 46.5107L43.0785 46.018L43.47 45.4795L43.8405 44.9063L44.1705 44.3046L44.4601 43.7061L44.5831 43.3792L44.7076 43.0697L44.8095 42.738L44.913 42.3875L44.9956 42.059L45.0585 41.7305H45.8206L46.2736 41.7068L46.7071 41.6879L47.1406 41.6247L47.5726 41.5631L47.9851 41.4621L48.3977 41.3562L48.8102 41.2346L49.2002 41.0909L49.5932 40.9267L49.9637 40.7577L50.3147 40.5745L50.6642 40.3677L51.0152 40.1419L51.3452 39.8955L51.6542 39.646L51.9632 39.3807L52.2527 39.1106L52.5212 38.8217L52.7673 38.5137L53.0148 38.2042L53.2413 37.8963L53.4483 37.5441L53.6343 37.2124L53.8188 36.865L53.9643 36.4939L54.1083 36.1197L54.2313 35.7485L54.3138 35.3584L54.3963 34.9668L54.4593 34.5768L54.4788 34.163L54.4998 33.7493L54.4788 33.2565L54.4368 32.7812L54.3543 32.3075L54.2523 31.8558L54.1083 31.3789L53.9433 30.9446L53.7363 30.5119L53.5308 30.1013L53.2833 29.6875L53.0148 29.2975L52.7267 28.9264L52.4177 28.5742L52.0667 28.2473L51.7157 27.9157L51.3452 27.6062L50.9537 27.3377L51.1187 26.6571L51.2417 25.9591L51.2837 25.6069L51.3257 25.2563L51.3452 24.8852V24.5331V24.1241L51.3257 23.7293L51.2837 23.3187L51.2207 22.9286L51.1397 22.5338L51.0572 22.1438L50.9537 21.7726L50.8502 21.4015L50.7062 21.0304L50.5622 20.6593L50.4182 20.3087L50.2322 19.9566L50.0672 19.6091L49.8617 19.2775L49.6547 18.949L49.4282 18.6174L49.2002 18.3095L48.9541 17.9999L48.7067 17.7109L48.4381 17.4219L48.1501 17.133L47.8606 16.8645L47.5726 16.5992L47.2636 16.3481L46.9336 16.1033L46.6246 15.8759L46.2736 15.6501L45.9436 15.4432L45.5731 15.2363L45.2221 15.0516L44.8515 14.8652L44.4796 14.701V14.5999L44.4601 14.1846L44.439 13.7709L44.3775 13.3808L44.295 12.9702L44.2125 12.5991L44.0895 12.2059L43.944 11.8347L43.8 11.4637L43.614 11.1115L43.428 10.7641L43.2225 10.4324L42.996 10.1039L42.7485 9.79603L42.4815 9.48335L42.213 9.19434L41.925 8.92903L41.6145 8.65901L41.3055 8.41423L40.9754 8.16315L40.6244 7.93731L40.2749 7.7336L39.9044 7.54724L39.5324 7.36246L39.1409 7.19509L38.7494 7.05138L38.3369 6.92978L37.9244 6.82395L37.5119 6.74183L37.0784 6.65971L36.6464 6.61711L36.1933 6.57764H35.3068Z" fill="#99FF99"/>
<path fill-rule="evenodd" clip-rule="evenodd" d="M21.5005 53.3496V64.3993H25.9976V53.746L25.6241 53.8123L25.2281 53.8597L24.853 53.8818L24.4571 53.9087L24.082 53.8818L23.686 53.8597L23.311 53.8123L22.9375 53.746L22.5835 53.675L22.207 53.5833L21.8545 53.4633L21.5005 53.3496Z" fill="#F46545"/>
<path fill-rule="evenodd" clip-rule="evenodd" d="M49.0413 53.5468L48.4547 53.7126L47.8487 53.8294L47.2412 53.9005L46.6127 53.9273L46.0907 53.9005L45.5672 53.8563L45.0437 53.7615L44.5411 53.6415V64.6011H49.0413V53.5468Z" fill="#FE7D56"/>
<path fill-rule="evenodd" clip-rule="evenodd" d="M20.617 11.3168L20.32 11.3563L20.0425 11.38L19.765 11.4431L19.4665 11.5031L19.189 11.5663L18.9325 11.65L18.397 11.86L17.8809 12.1111L17.3859 12.4048L17.1474 12.5754L16.9284 12.7428L16.7109 12.9291L16.4934 13.1202L16.2954 13.3318L16.0959 13.5371L15.9174 13.7487L15.7389 13.9793L15.5799 14.2336L15.4224 14.4641L15.2829 14.7136L15.1644 14.9884L15.0444 15.2584L14.9259 15.5332L14.8464 15.808L14.7684 16.1017L14.7084 16.3923L14.6484 16.7097L14.6289 17.0035L14.6094 17.3177V17.651L14.6289 17.9652L14.6484 18.3032L14.7084 18.638L14.7684 18.9759L14.8464 19.3328L14.9664 19.666L15.0849 20.0245L15.2244 20.3814L15.3819 20.7351L15.5604 21.1141L15.7794 21.471L15.7599 21.5547L15.4029 21.7016L15.0654 21.869L14.7279 22.0601L14.4113 22.2701L14.0934 22.4564L13.7768 22.687L13.4783 22.9176L13.1813 23.1481L12.9038 23.4024L12.6263 23.6535L12.3488 23.9077L12.1103 24.1983L11.8523 24.4715L11.6138 24.7668L11.3963 25.0605L11.1788 25.3748L10.9808 25.6875L10.7828 26.0065L10.6027 26.3397L10.4243 26.6745L10.2667 27.0124L10.1273 27.3693L9.98924 27.7231L9.86923 28.0815L9.77024 28.4384L9.67125 28.8159L9.59173 29.1933L9.53323 29.5707L9.47323 29.9687L9.43423 30.3461L9.41322 30.7472V31.1452V31.5037L9.43423 31.8369L9.51224 32.5285L9.61123 33.2234L9.77024 33.8725L9.41322 34.1457L9.07573 34.4599L8.73972 34.7742L8.4217 35.0916L8.1442 35.4453L7.8667 35.8038L7.62819 36.1812L7.39118 36.5792L7.19317 36.9992L7.01466 37.4209L6.85568 37.8378L6.73716 38.28L6.63665 38.7411L6.55865 39.2022L6.51816 39.687L6.49866 40.1671L6.51816 40.5698L6.53766 40.9472L6.59765 41.3436L6.65767 41.7211L6.75666 42.1001L6.85568 42.4775L6.99367 42.8344L7.13318 43.1881L7.29219 43.526L7.47067 43.8608L7.66868 44.1972L7.8667 44.5115L8.08421 44.8068L8.32271 45.1005L8.58071 45.3943L8.83871 45.6643L9.11622 45.9186L9.41322 46.1696L9.71174 46.4002L10.0282 46.6102L10.3658 46.8218L10.6838 47.0082L11.0393 47.1788L11.3963 47.3256L11.7533 47.4693L12.1298 47.5957L12.5063 47.7031L12.8843 47.7867L13.2803 47.8499L13.6973 47.891L14.0934 47.9336H15.2244L15.3039 48.3315L15.3819 48.7295L15.5019 49.1306L15.6204 49.5081L15.7599 49.8855L15.9174 50.2392L16.0959 50.5977L16.2744 50.9357L16.4724 51.2894L16.6704 51.6068L16.8894 51.9211L17.1264 52.2353L17.3859 52.5291L17.6424 52.8228L17.9004 53.0928L18.1779 53.3471L18.4749 53.5982L18.7735 53.8288L19.09 54.0593L19.408 54.2504L19.7245 54.4604L20.062 54.6278L20.419 54.7936L20.7565 54.9421L21.133 55.0684L21.49 55.1916L21.8665 55.299L22.2431 55.3827L22.6196 55.4458L23.0171 55.4853L23.4131 55.509L23.8106 55.5295L24.2066 55.509L24.6026 55.4853L25.0001 55.4458L25.3766 55.3827L25.7531 55.299L26.1297 55.1916L26.5062 55.0684L26.8632 54.9421L27.2007 54.7936L27.5577 54.6278L27.8952 54.4604L28.2117 54.2504L28.5297 54.0593L28.8462 53.8288L29.1432 53.5982L29.4417 53.3471L29.8573 52.946L30.2338 52.5291L30.6118 52.0869L30.9478 51.6068L31.2448 51.122L31.5238 50.5977L31.7803 50.0718L31.9993 49.5081L31.5238 49.3612L31.0678 49.1701L30.6118 48.9838L30.1947 48.7532L29.7582 48.499L29.3622 48.2289L28.9647 47.9099L28.5882 47.5957L28.3107 47.3256L28.0332 47.0524L27.7557 46.7571L27.4977 46.4428L27.2592 46.1302L27.0222 45.7922L26.8047 45.4574L26.6052 45.1005L26.4072 44.7421L26.2482 44.3646L26.0907 43.9872L25.9317 43.6098L25.8132 43.2118L25.6931 42.8107L25.5941 42.3938L25.5146 41.9958H24.7616L24.3461 41.9722L23.9291 41.9516L23.5121 41.8884L23.0951 41.8253L22.6991 41.7211L22.303 41.6152L21.9055 41.4905L21.529 41.3436L21.172 41.1968L20.8165 41.0057L20.458 40.8193L20.122 40.6093L19.7845 40.3787L19.4875 40.1277L19.1695 39.8734L18.892 39.6239L18.6145 39.3286L18.3565 39.0348L18.0985 38.7411L17.8809 38.4269L17.6619 38.0937L17.4639 37.7557L17.2659 37.3972L17.1069 37.0435L16.9494 36.6866L16.8294 36.3076L16.7109 35.9065L16.6314 35.529L16.5519 35.1311L16.4934 34.7347L16.4724 34.313L16.4529 33.8961L16.4724 33.3908L16.5129 32.906L16.5924 32.4259L16.6914 31.9443L16.8294 31.5037L16.9884 31.0425L17.1669 30.6003L17.3859 30.1803L17.6229 29.7618L17.8809 29.3844L18.1584 29.0038L18.4554 28.6248L18.7735 28.2916L19.1095 27.9583L19.4875 27.6631L19.864 27.3693L19.6855 26.6745L19.6255 26.3397L19.5655 25.9828L19.5265 25.6243L19.507 25.2469L19.4875 24.8931L19.4665 24.5362L19.4875 24.1146L19.507 23.6977L19.546 23.295L19.606 22.8986L19.6645 22.5006L19.7455 22.1027L19.8445 21.7221L19.963 21.3447L20.0815 20.9657L20.221 20.5882L20.38 20.2345L20.5375 19.8776L20.716 19.5191L20.8945 19.1859L21.0925 18.848L21.3115 18.5337L21.529 18.2005L21.7675 17.9052L22.0255 17.5878L22.264 17.294L22.5401 17.024L22.8191 16.7287L23.0951 16.4792L23.3936 16.2044L23.7101 15.9738L24.0086 15.7433L24.3461 15.5127L24.6626 15.3027L25.0001 15.0927L25.3571 14.9047L25.7127 14.7136L26.0696 14.5478V14.4404L26.0907 13.9161L25.8521 13.6256L25.6136 13.3713L25.3766 13.1202L25.1186 12.8897L24.8606 12.6796L24.6026 12.468L24.3251 12.3022L24.0476 12.1348L23.7896 11.988L23.4926 11.8411L23.2151 11.7337L22.9376 11.6295L22.6391 11.5458L22.3631 11.4637L22.0645 11.3989L21.787 11.3563L21.49 11.3358L21.1915 11.3168H20.617Z" fill="#99FF99"/>
<path fill-rule="evenodd" clip-rule="evenodd" d="M23.9815 12.8912L23.881 13.2955L23.821 13.7172L23.1595 14.1214L22.5175 14.521L21.916 14.9852L21.3355 15.4653L20.7939 15.9675L20.2734 16.5123L19.7919 17.095L19.3314 17.6778L19.0704 18.082L18.8094 18.4816L18.5694 18.9032L18.3489 19.3265L18.1494 19.7497L17.9484 20.1918L17.7879 20.6135L17.6274 21.0746L17.4864 21.5168L17.3859 21.9621L17.2869 22.4233L17.2059 22.8828L17.1264 23.3487L17.0859 23.8319L17.0664 24.293L17.0454 24.7763L17.0664 25.2374L17.0859 25.678L17.1264 26.1423L17.1864 26.6034L16.9059 26.8671L16.6254 27.1672L16.3643 27.4498L16.1048 27.7688L15.8633 28.0736L15.6428 28.3942L15.4223 28.7369L15.2213 29.0748L14.9408 29.6196L14.7008 30.1835L14.4803 30.7472L14.3003 31.3299L14.1803 31.9316L14.0798 32.5364L14.0198 33.1381L13.9988 33.7635V34.2419L14.0393 34.7268L14.0993 35.1863L14.1803 35.6711L14.3003 36.1354L14.4203 36.5776L14.5808 37.0182L14.7413 37.4604L14.9408 37.8836L15.1418 38.2863L15.3818 38.6858L15.6233 39.0901L15.9038 39.4707L16.1843 39.8323L16.4843 40.194L16.8054 40.5367L17.1459 40.8572L17.4864 41.181L17.8479 41.481L18.2289 41.7637L18.6294 42.0258L19.0299 42.2659L19.4514 42.5059L19.8924 42.727L20.3334 42.9291L20.7744 43.1107L21.235 43.2529L21.7165 43.3934L22.198 43.5119L22.6795 43.6145L23.1805 43.6935L23.6815 43.7551L23.821 44.093L23.9605 44.4562L24.121 44.7989L24.2815 45.1226L24.463 45.4606L24.6625 45.7843L24.8635 46.1049L25.0631 46.4049L25.2851 46.7287L25.5041 47.0113L25.7456 47.3114L26.0051 47.5925L26.2661 47.8752L26.5271 48.1341L26.8076 48.3963L27.0881 48.6364L27.5096 49.0027L27.9701 49.3217L28.4111 49.6233L28.8927 49.9044L29.3742 50.1445L29.8752 50.3876L30.3762 50.5898L30.8967 50.7888L31.2177 50.3087L31.5177 49.8049L31.7577 49.2617L31.9992 48.739V48.72L31.5177 48.5795L31.0572 48.4152L30.5952 48.2178L30.1542 47.9968L29.7342 47.7535L29.3337 47.4946L28.9331 47.2119L28.5521 46.9071L28.2716 46.6481L27.9701 46.367L27.7091 46.0859L27.4496 45.7843L27.2081 45.4843L26.9681 45.1605L26.7476 44.8399L26.5466 44.4973L26.3471 44.1546L26.1656 43.8119L26.0051 43.4503L25.8656 43.0696L25.7261 42.6891L25.6241 42.3038L25.5251 41.9042L25.4441 41.5237H24.6835L24.2425 41.4999L23.821 41.481L23.3995 41.421L22.9795 41.3594L22.5775 41.2599L22.177 41.1572L21.796 41.0404L21.415 40.8983L21.034 40.7388L20.6739 40.5745L20.3139 40.3961L19.9719 40.194L19.6524 39.9728L19.3314 39.7328L19.0299 39.4896L18.7299 39.2496L18.4494 38.9685L18.1884 38.6858L17.9484 38.4047L17.7069 38.0842L17.4864 37.7841L17.2869 37.4604L17.1069 37.1177L16.9254 36.7782L16.7859 36.4165L16.6449 36.0517L16.5249 35.6901L16.4438 35.3095L16.3643 34.9274L16.3043 34.5468L16.2848 34.163L16.2638 33.7635L16.2848 33.2787L16.3238 32.8144L16.4048 32.3533L16.5038 31.8937L16.6449 31.4468L16.8054 31.0283L16.9854 30.6066L17.2059 30.1835L17.4459 29.8029L17.7069 29.4175L17.9874 29.0559L18.2889 28.7132L18.6294 28.3736L18.9699 28.0736L19.3314 27.7688L19.7124 27.4878L19.5519 26.8434L19.4709 26.5055L19.4304 26.1628L19.3914 25.8185L19.3509 25.4758L19.3314 25.1142V24.7763V24.372L19.3509 23.9693L19.3914 23.5871L19.4514 23.2066L19.5114 22.8259L19.6119 22.4422L19.6914 22.0806L19.8114 21.7173L19.9329 21.3557L20.0724 20.9941L20.2329 20.6514L20.3934 20.3135L20.5734 19.9708L20.7744 19.6471L20.9739 19.3265L21.196 19.0027L21.415 18.7027L21.6565 18.4011L21.8965 18.12L22.1575 17.8373L22.4185 17.5562L22.699 17.2972L22.999 17.035L23.3005 16.795L23.6005 16.5739L23.9215 16.3291L24.2425 16.1286L24.583 15.9075L24.9236 15.7275L25.2851 15.5269L25.6241 15.3658L26.0051 15.2063L25.9856 15.0848L26.0051 14.6015L25.7861 14.3188L25.5446 14.0788L25.3046 13.8388L25.0436 13.6192L24.7841 13.4171L24.5231 13.2149L24.2425 13.0555L23.9815 12.8912Z" fill="#6BB36B"/>
<path fill-rule="evenodd" clip-rule="evenodd" d="M49.4296 11.3168L49.1356 11.3358L48.8206 11.3563L48.5056 11.3989L48.2116 11.4637L47.8966 11.5458L47.6026 11.6295L47.2861 11.7337L46.9936 11.8411L46.6981 11.988L46.404 12.1348L46.11 12.3022L45.837 12.468L45.564 12.6796L45.291 12.8897L45.018 13.1202L44.7645 13.3713L44.514 13.6256L44.2605 13.9161L44.2815 14.4404V14.5478L44.661 14.7136L45.039 14.9047L45.396 15.0927L45.753 15.3027L46.11 15.5127L46.4461 15.7433L46.7821 15.9738L47.0986 16.2044L47.4121 16.4792L47.7286 16.7287L48.0226 17.024L48.2956 17.294L48.5686 17.5878L48.8206 17.9052L49.0726 18.2005L49.3246 18.5337L49.5346 18.848L49.7461 19.1859L49.9546 19.5191L50.1436 19.8776L50.3132 20.2345L50.4812 20.5882L50.6282 20.9657L50.7542 21.3447L50.8592 21.7221L50.9642 22.1027L51.0692 22.5006L51.1322 22.8986L51.1952 23.295L51.2372 23.6977L51.2582 24.1146V24.5362V24.8931L51.2372 25.2469L51.1952 25.6243L51.1532 25.9828L51.0272 26.6745L50.8592 27.3693L51.2582 27.6631L51.6362 27.9583L51.9932 28.2916L52.3517 28.6248L52.6652 29.0038L52.9607 29.3844L53.2322 29.7823L53.4857 30.1803L53.6957 30.6003L53.9057 31.0425L54.0738 31.5037L54.1998 31.9648L54.3258 32.4259L54.4098 32.906L54.4518 33.3908L54.4727 33.8961L54.4518 34.313L54.4098 34.7347L54.3678 35.1311L54.2838 35.529L54.1787 35.9065L54.0738 36.3076L53.9267 36.6866L53.7797 37.0435L53.5907 37.3972L53.4017 37.7557L53.1902 38.0937L52.9607 38.4269L52.7072 38.7411L52.4552 39.0348L52.1822 39.3286L51.8882 39.6239L51.5732 39.8734L51.2582 40.1277L50.9222 40.3787L50.5862 40.6093L50.2292 40.8193L49.8496 41.0057L49.4716 41.1778L49.0726 41.3436L48.6736 41.4905L48.2746 41.6152L47.8546 41.7211L47.4331 41.8253L46.9936 41.8884L46.5511 41.9516L46.11 41.9722L45.648 41.9958H44.871L44.724 42.6638L44.514 43.316L44.2815 43.9477L44.0085 44.5557L43.6935 45.14L43.3365 45.7085L42.9375 46.2328L42.4965 46.7382L42.0344 47.2182L41.5289 47.6604L41.0039 48.0568L40.4579 48.4342L39.8909 48.7532L39.2819 49.0422L38.6519 49.298L38.0009 49.5081L38.2304 50.0718L38.4839 50.5977L38.7989 51.122L39.1139 51.6068L39.4709 52.0869L39.8489 52.5291L40.2689 52.946L40.7099 53.3471L41.0249 53.5982L41.3414 53.8288L41.6564 54.0593L41.9924 54.2504L42.3494 54.4604L42.7065 54.6278L43.0635 54.7936L43.4415 54.9421L43.821 55.0684L44.2185 55.1916L44.598 55.299L44.997 55.3827L45.417 55.4458L45.837 55.4853L46.236 55.509L46.6771 55.5295L47.0986 55.509L47.5186 55.4853L47.9176 55.4458L48.3376 55.3827L48.7366 55.299L49.1356 55.1916L49.5136 55.0684L49.8916 54.9421L50.2712 54.7936L50.6282 54.6278L50.9852 54.4604L51.3422 54.2504L51.6782 54.0593L52.0142 53.8288L52.3307 53.5982L52.6232 53.3471L52.9187 53.0928L53.2112 52.8228L53.4857 52.5291L53.7377 52.2353L53.9898 51.9211L54.2207 51.6068L54.4518 51.2894L54.6618 50.9357L54.8508 50.5977L55.0398 50.2392L55.1868 49.8855L55.3338 49.5081L55.4808 49.1306L55.5873 48.7295L55.6923 48.3315L55.7748 47.9336H56.9733L57.3933 47.891L57.8133 47.8499L58.2349 47.7867L58.6534 47.7031L59.0524 47.5957L59.4529 47.4693L59.8309 47.3256L60.2089 47.1788L60.5659 47.0082L60.9229 46.8218L61.2589 46.6102L61.5949 46.4002L61.9324 46.1696L62.2265 45.9186L62.5205 45.6643L62.8145 45.3943L63.0665 45.1005L63.3185 44.8068L63.5705 44.5115L63.7805 44.1972L63.9905 43.8608L64.1795 43.526L64.3475 43.1881L64.4945 42.8344L64.622 42.4775L64.748 42.1001L64.832 41.7211L64.9145 41.3436L64.9565 40.9472L64.9985 40.5698V40.1671V39.687L64.9355 39.2022L64.874 38.7411L64.769 38.28L64.622 37.8378L64.4735 37.4209L64.2845 36.9992L64.055 36.5792L63.8225 36.1812L63.5705 35.8038L63.2765 35.4453L62.9615 35.0916L62.6465 34.7742L62.2894 34.4599L61.9324 34.1457L61.5334 33.8725L61.6999 33.2234L61.8259 32.5285L61.9114 31.8369L61.9324 31.5037V31.1452L61.9114 30.7472L61.8889 30.3461L61.8469 29.9687L61.8049 29.5707L61.7419 29.1933L61.6579 28.8159L61.5544 28.4384L61.4284 28.0815L61.3009 27.7231L61.1749 27.3693L61.0069 27.0124L60.8389 26.6745L60.6709 26.3397L60.4819 26.0065L60.2719 25.6875L60.0619 25.3748L59.8309 25.0605L59.5789 24.7668L59.3479 24.4715L59.0734 24.1983L58.8019 23.9077L58.5274 23.6535L58.2349 23.4024L57.9393 23.1481L57.6243 22.9176L57.3093 22.687L56.9733 22.4564L56.6373 22.2701L56.2803 22.0601L55.9428 21.869L55.5663 21.7016L55.2078 21.5547L55.1868 21.471L55.3968 21.1141L55.5873 20.7351L55.7748 20.3814L55.9218 20.0245L56.0493 19.666L56.1543 19.3328L56.2593 18.9759L56.3223 18.638L56.3643 18.3032L56.4063 17.9652L56.4273 17.651V17.3177L56.4063 17.0035L56.3643 16.7097L56.3223 16.3923L56.2593 16.1017L56.1753 15.808L56.0703 15.5332L55.9638 15.2584L55.8378 14.9884L55.7133 14.7136L55.5663 14.4641L55.3968 14.2336L55.2288 13.9793L55.0398 13.7487L54.8508 13.5371L54.6408 13.3318L54.4307 13.1202L54.1998 12.9291L53.9687 12.7428L53.7167 12.5754L53.4857 12.4048L52.9607 12.1111L52.4132 11.86L51.8462 11.65L51.5522 11.5663L51.2582 11.5031L50.9642 11.4431L50.6687 11.38L50.3552 11.3563L50.0596 11.3168H49.4296Z" fill="#99FF99"/>
<path fill-rule="evenodd" clip-rule="evenodd" d="M46.017 12.8912L45.7365 13.0555L45.4755 13.2149L45.216 13.4171L44.955 13.6192L44.6955 13.8388L44.454 14.0788L44.214 14.3188L43.9935 14.6015V15.0848V15.2063L44.3745 15.3658L44.715 15.5269L45.0765 15.7275L45.4155 15.9075L45.7575 16.1286L46.077 16.3291L46.3981 16.5739L46.6996 16.795L46.9996 17.035L47.3011 17.2972L47.5801 17.5562L47.8411 17.8373L48.1021 18.12L48.3421 18.4011L48.5836 18.7027L48.8041 19.0027L49.0246 19.3265L49.2256 19.6471L49.4251 19.9708L49.6051 20.3135L49.7656 20.6514L49.9261 20.9941L50.0657 21.3557L50.1872 21.7173L50.2877 22.0806L50.3866 22.4422L50.4872 22.8259L50.5472 23.2066L50.6072 23.5871L50.6477 23.9693L50.6687 24.372V24.7763V25.1142L50.6477 25.4758L50.6072 25.8185L50.5682 26.1628L50.4467 26.8434L50.2877 27.4878L50.6687 27.7688L51.0287 28.0736L51.3692 28.3736L51.7112 28.7132L52.0112 29.0559L52.2917 29.4175L52.5527 29.8029L52.7927 30.1835L53.0132 30.6066L53.1932 31.0283L53.3537 31.4468L53.4947 31.8937L53.5937 32.3533L53.6747 32.8144L53.7152 33.2787L53.7347 33.7635L53.7152 34.163L53.6942 34.5468L53.6342 34.9274L53.5547 35.3095L53.4737 35.6901L53.3537 36.0517L53.2142 36.4165L53.0732 36.7782L52.8932 37.1177L52.7132 37.4604L52.5122 37.7841L52.2917 38.0842L52.0502 38.4047L51.8102 38.6858L51.5492 38.9685L51.2702 39.2306L50.9687 39.4896L50.6687 39.7328L50.3476 39.9728L50.0267 40.194L49.6861 40.3961L49.3246 40.5745L48.9646 40.7388L48.5836 40.8983L48.2026 41.0404L47.8216 41.1572L47.4211 41.2599L46.9996 41.3594L46.5991 41.421L46.1775 41.481L45.7365 41.4999L45.3165 41.5237H44.5545L44.4135 42.1632L44.2335 42.787L44.013 43.3934L43.7325 43.9761L43.431 44.5352L43.092 45.08L42.711 45.5822L42.309 46.067L41.8679 46.5265L41.3864 46.9497L40.8854 47.3304L40.3649 47.692L39.8039 48.0157L39.2219 48.2984L38.6218 48.5368L38.0009 48.739L38.2408 49.2617L38.4809 49.8049L38.7809 50.3087L39.1019 50.7888L39.7244 50.5488L40.3244 50.3087L40.9064 50.0039L41.4869 49.6833L42.0285 49.3217L42.5505 48.9411L43.0515 48.5368L43.512 48.0962L43.9725 47.632L44.394 47.133L44.7945 46.6292L45.156 46.0859L45.4965 45.5411L45.7965 44.9584L46.077 44.3567L46.3186 43.7551L46.7596 43.6935L47.2201 43.6335L47.6611 43.5529L48.1021 43.4503L48.5431 43.3318L48.9646 43.1913L49.3846 43.027L49.8061 42.8675L50.2067 42.6891L50.6072 42.4869L51.0092 42.2659L51.3902 42.0258L51.7502 41.7637L52.1102 41.4999L52.4717 41.2188L52.8122 40.9172L53.1737 40.5556L53.5337 40.175L53.8757 39.7913L54.1757 39.3901L54.4562 38.9685L54.7173 38.5263L54.9573 38.1031L55.1778 37.6436L55.3788 37.1777L55.5393 36.7182L55.6788 36.2333L55.8003 35.7501L55.8798 35.27L55.9593 34.7678L55.9998 34.2657V33.7635V33.2597L55.9593 32.7575L55.8798 32.2553L55.8003 31.7516L55.6788 31.2683L55.5183 30.8072L55.3593 30.324L55.1583 29.8597L54.9573 29.4175L54.7173 28.9753L54.4562 28.5348L54.1548 28.1305L53.8548 27.7309L53.5337 27.3267L53.1737 26.965L52.8122 26.6034L52.8332 26.4818L52.8722 26.0633L52.9127 25.618L52.9337 25.1979L52.9532 24.7763L52.9337 24.3341L52.9127 23.9109L52.8722 23.4892L52.8332 23.0849L52.7522 22.6617L52.6727 22.2401L52.5917 21.8405L52.4717 21.4363L52.3517 21.0367L52.2122 20.6325L52.0712 20.2519L51.9107 19.8681L51.7307 19.4859L51.5297 19.1243L51.3302 18.7437L51.1292 18.3821L50.8892 18.0394L50.6687 17.6778L50.4077 17.3572L50.1467 17.0145L49.8661 16.6924L49.5856 16.3718L49.3051 16.0702L48.9841 15.767L48.6841 15.489L48.3421 15.2063L48.0016 14.9252L47.6611 14.6615L47.3011 14.4215L46.9396 14.1783L46.5585 13.9382L46.1775 13.7172L46.1176 13.2955L46.017 12.8912Z" fill="#6BB36B"/>
<path fill-rule="evenodd" clip-rule="evenodd" d="M34.6543 6.57764L34.2463 6.59817L33.8623 6.64077L33.4768 6.70395L33.0913 6.76236L32.7268 6.84766L32.3638 6.92978L31.9993 7.03085L32.6413 7.25827L33.2623 7.54724L33.8623 7.85519L34.4188 8.18681L34.9543 8.57848L35.4464 8.99221L35.9174 9.44383L36.3239 9.91762L36.7094 10.4324L36.8804 10.7025L37.0514 10.9678L37.2014 11.2362L37.3304 11.5253L37.4579 11.8142L37.5869 12.1032L37.6724 12.3922L37.7804 12.7017L37.8434 13.0097L37.9079 13.3176L37.9514 13.6303L37.9934 13.9398L38.0144 14.2667V14.5999V14.701L38.4224 14.8652L38.7854 15.0516L39.171 15.2363L39.5355 15.4432L39.9 15.6501L40.242 15.8759L40.584 16.1033L40.905 16.3481L41.226 16.5992L41.547 16.8645L41.847 17.133L42.126 17.4219L42.4035 17.7109L42.6615 17.9999L42.9181 18.3095L43.1745 18.6174L43.3891 18.949L43.6246 19.2775L43.8166 19.6091L44.0086 19.9566L44.1811 20.3087L44.3521 20.6593L44.5021 21.0304L44.6296 21.4015L44.7586 21.7726L44.8666 22.1438L44.9521 22.5338L45.0151 22.9286L45.0796 23.3187L45.1231 23.7293L45.1441 24.1241L45.1651 24.5331L45.1441 24.8852L45.1231 25.2563L45.1006 25.6069L45.0586 25.9591L44.9296 26.6571L44.7376 27.3377L45.1441 27.6062L45.5506 27.9157L45.9151 28.2473L46.2571 28.5742L46.5781 28.9264L46.8781 29.2975L47.1557 29.6875L47.4137 30.1013L47.6492 30.5119L47.8412 30.9446L48.0137 31.3789L48.1622 31.8558L48.2702 32.3075L48.3557 32.7812L48.3977 33.2565L48.4187 33.7493V34.163L48.3767 34.5768L48.3122 34.9668L48.2477 35.3584L48.1412 35.7485L48.0137 36.1197L47.8847 36.4939L47.7137 36.865L47.5427 37.2124L47.3492 37.5441L47.1137 37.8963L46.8781 38.2042L46.6426 38.5137L46.3651 38.8217L46.0861 39.1106L45.7861 39.3807L45.4861 39.646L45.1441 39.8955L44.8021 40.1419L44.4586 40.3677L44.0941 40.5745L43.7101 40.7577L43.3246 40.9267L42.9181 41.0909L42.51 41.2346L42.105 41.3562L41.676 41.4621L41.247 41.5631L40.7985 41.6247L40.3485 41.6879L39.9 41.7068L39.4274 41.7305H38.6144L38.4854 42.348L38.2934 42.9876L38.0579 43.5861L37.7804 44.1593L37.4804 44.7183L37.1384 45.2537L36.7514 45.7685L36.3449 46.2644L35.8949 46.7176L35.4239 47.1503L34.9108 47.5419L34.3753 47.9131L33.8188 48.2447L33.2413 48.5337L32.6203 48.799L31.9993 49.0059L32.3428 49.1117L32.7058 49.2127H37.3724L37.7369 49.1117L38.0789 49.0248L38.3999 48.9048L38.7434 48.7801L39.3854 48.51L40.0065 48.1815L40.584 47.831L41.1615 47.4203L41.676 46.9877L42.1905 46.5107L42.639 46.018L43.068 45.4795L43.452 44.9063L43.7956 44.3046L44.0941 43.7061L44.2231 43.3792L44.3521 43.0697L44.4586 42.738L44.5441 42.3875L44.6296 42.059L44.6956 41.7305H45.5086L45.9796 41.7068L46.4281 41.6879L46.8781 41.6247L47.3267 41.5631L47.7557 41.4621L48.1847 41.3562L48.6122 41.2346L49.0187 41.0909L49.4042 40.9267L49.7897 40.7577L50.1752 40.5745L50.5382 40.3677L50.8817 40.1419L51.2237 39.8955L51.5658 39.646L51.8658 39.3807L52.1658 39.1106L52.4448 38.8217L52.7223 38.5137L52.9803 38.2042L53.1933 37.8963L53.4288 37.5441L53.6223 37.2124L53.7933 36.865L53.9643 36.4939L54.0933 36.1197L54.2208 35.7485L54.3273 35.3584L54.4128 34.9668L54.4563 34.5768L54.4998 34.163V33.7493V33.2565L54.4353 32.7812L54.3498 32.3075L54.2418 31.8558L54.0933 31.3789L53.9208 30.9446L53.7288 30.5119L53.4933 30.1013L53.2578 29.6875L52.9803 29.2975L52.6578 28.9264L52.3383 28.5742L51.9948 28.2473L51.6303 27.9157L51.2237 27.6062L50.8172 27.3377L51.0092 26.6571L51.1383 25.9591L51.1803 25.6069L51.2028 25.2563L51.2237 24.8852L51.2462 24.5331L51.2237 24.1241L51.2028 23.7293L51.1592 23.3187L51.0947 22.9286L51.0317 22.5338L50.9462 22.1438L50.8382 21.7726L50.7107 21.4015L50.5817 21.0304L50.4317 20.6593L50.2607 20.3087L50.0897 19.9566L49.8962 19.6091L49.7042 19.2775L49.4687 18.949L49.2542 18.6174L48.9977 18.3095L48.7622 17.9999L48.4832 17.7109L48.2057 17.4219L47.9267 17.133L47.6282 16.8645L47.3056 16.5992L46.9847 16.3481L46.6636 16.1033L46.3216 15.8759L45.9796 15.6501L45.6151 15.4432L45.2521 15.2363L44.8876 15.0516L44.5021 14.8652L44.0941 14.701L44.1166 14.5999L44.0941 14.1846L44.0521 13.7709L44.0086 13.3808L43.9231 12.9702L43.8166 12.5991L43.6891 12.2059L43.5601 11.8347L43.3891 11.4637L43.2181 11.1115L43.0035 10.7641L42.789 10.4324L42.5535 10.1039L42.297 9.79603L42.0405 9.48335L41.7615 9.19434L41.4615 8.92903L41.1405 8.65901L40.7985 8.41423L40.4565 8.16315L40.113 7.93731L39.7485 7.7336L39.3645 7.54724L38.9789 7.36246L38.5709 7.19509L38.1644 7.05138L37.7369 6.92978L37.3094 6.82395L36.8804 6.74183L36.4304 6.65971L35.9594 6.61711L35.5109 6.57764H34.6543Z" fill="#6BB36B"/>
<path fill-rule="evenodd" clip-rule="evenodd" d="M35.5933 14.4399L35.3623 14.4589L35.1328 14.522L34.9228 14.5868L34.7142 14.6894L34.5253 14.7936L34.3362 14.9216L34.1697 15.0684L34.0227 15.2358L33.8967 15.4269L33.7722 15.6132L33.6672 15.8043L33.6042 16.0159L33.5412 16.2465L33.5007 16.4771V16.7281V63.3902H37.9993V16.7487V16.5165L37.9573 16.3065L37.9153 16.0759L37.8328 15.8691L37.7488 15.678L37.6438 15.4901L37.5178 15.299L37.3723 15.1521L37.2253 14.9847L37.0573 14.8568L36.8698 14.7305L36.6808 14.6262L36.4708 14.5425L36.2623 14.4794L36.0523 14.4399H35.5933Z" fill="#F46545"/>
<path fill-rule="evenodd" clip-rule="evenodd" d="M21.8499 55.3006L22.5114 55.4222L23.194 55.4853L23.8765 55.5043L24.538 55.4853V63.1318H21.8499V55.3006ZM34.9377 6.93139L35.3098 6.95033L35.6818 6.97086L36.0538 7.01351L36.4258 7.07665L36.7978 7.16036L37.1503 7.24248L37.5013 7.34513L37.8523 7.46986L38.1838 7.61675L38.5153 7.76205L38.8453 7.92784L39.1558 8.11579L39.4649 8.30051L39.7544 8.509L40.0439 8.73796L40.3334 8.96539L40.5809 9.21806L40.8299 9.46597L41.0774 9.73759L41.3054 10.0282L41.5124 10.3156L41.7194 10.6077L41.8844 10.922L42.0494 11.2521L42.1949 11.5837L42.3389 11.9169L42.4424 12.2722L42.5459 12.6449L42.6074 13.0002L42.6704 13.3729L42.7124 13.7677L42.7319 14.1609V14.2873L42.7529 14.412L42.795 14.5352L42.8565 14.6599L42.9389 14.7626L43.0424 14.8447L43.146 14.9316L43.2495 14.9916L43.662 15.1795L44.076 15.388L44.469 15.5933L44.841 15.8254L45.213 16.0734L45.585 16.345L45.9165 16.6118L46.2465 16.904L46.578 17.2151L46.8885 17.5246L47.1781 17.8594L47.4466 18.2147L47.7151 18.5637L47.9641 18.919L48.1906 19.2918L48.4171 19.666L48.6046 20.064L48.7906 20.4572L48.9556 20.8709L49.1011 21.2878L49.2241 21.7047L49.3276 22.1185L49.4101 22.5543L49.4716 22.9918L49.5136 23.4276L49.5346 23.8651V24.3025L49.5136 24.7589L49.4716 25.1947L49.3891 25.6511L49.3066 26.0886L49.1836 26.545L49.1626 26.6666V26.8119V26.9587L49.2031 27.0835L49.2661 27.2098L49.3276 27.3125L49.4311 27.4183L49.5346 27.5209L49.8646 27.7499L50.1961 27.9979L50.4856 28.2679L50.7542 28.56L51.0227 28.8506L51.2507 29.1617L51.4772 29.4728L51.6857 29.8076L51.8507 30.1376L52.0157 30.4724L52.1612 30.823L52.2842 31.1768L52.3877 31.5511L52.4702 31.9048L52.5317 32.2791L52.5737 32.6533L52.5947 33.026V33.4003L52.5737 33.7745L52.5317 34.1472L52.4702 34.5026L52.4087 34.8768L52.3052 35.2306L52.1807 35.6048L52.0367 35.9538L51.8702 36.2886L51.6857 36.6187L51.4772 36.9535L51.2507 37.2851L51.0016 37.5946L50.7346 37.8868L50.4436 38.1773L50.1136 38.4489L49.7821 38.7206L49.4311 38.9496L49.0591 39.177L48.6871 39.3617L48.3151 39.5512L47.9221 39.6965L47.5081 39.8418L47.115 39.9445L46.7025 40.0471L46.2885 40.134L45.855 40.1924L45.441 40.2366L45.006 40.2556L44.5935 40.2792H44.0145L43.869 40.3188L43.725 40.3819L43.6215 40.464L43.4969 40.5904L43.4145 40.693L43.353 40.8383L43.311 40.9836L43.1864 41.5457L43.0424 42.0653L42.8565 42.5849L42.6494 43.0808L42.4019 43.5813L42.1319 44.0377L41.8229 44.4736L41.4914 44.911L41.1404 45.3042L40.7684 45.6975L40.3544 46.0528L39.9404 46.3876L39.4859 46.6971L39.0314 46.9687L38.5348 47.2166L38.0398 47.4251V35.27L38.0188 35.0853L37.9558 34.9147L37.8733 34.7505L37.7488 34.6273L37.6048 34.5026L37.4383 34.4394L37.2538 34.3952H37.0468L36.8803 34.4394L36.7363 34.5026L36.6118 34.5847L36.4888 34.711L36.4063 34.8326L36.3433 34.9779L36.3013 35.1437L36.2818 35.3127V63.1318H33.5727V17.8799L33.6342 17.5688L33.6972 17.3209L33.8217 17.0919L33.9657 16.904L34.0692 16.8203L34.1517 16.7382L34.3797 16.6118L34.6482 16.5297L34.9377 16.4871L35.0623 16.5108L35.2063 16.5297L35.3293 16.5487L35.4553 16.5929L35.5783 16.6561L35.6818 16.7382L35.7853 16.8014L35.8888 16.904L35.9713 16.9861L36.0538 17.1125L36.1168 17.2151L36.1783 17.3398L36.2188 17.4662L36.2608 17.5878L36.2818 17.7331V17.8799V31.4673L36.3013 31.6568L36.3643 31.8416L36.4468 32.0074L36.5713 32.1338L36.7153 32.2348L36.8803 32.3185L37.0678 32.3612H37.2733L37.4383 32.3185L37.5838 32.2585L37.7083 32.1527L37.8118 32.05L37.9138 31.9048L37.9768 31.7595L38.0188 31.6142L38.0398 31.4484V27.3551L43.146 25.0495L43.2915 24.9674L43.4145 24.86L43.518 24.7352L43.6005 24.5899L43.662 24.4478L43.683 24.3025V24.132L43.6425 23.9677L43.5795 23.783L43.4565 23.6361L43.3319 23.5114L43.1655 23.4087L43.0004 23.3661L42.8145 23.3455L42.6284 23.3661L42.4424 23.4276L38.0398 25.4001V18.0047L38.0188 17.6952L37.9768 17.3793L37.8943 17.0682L37.7908 16.7777L37.6663 16.5108L37.5013 16.2581L37.3363 16.0102L37.1293 15.8017L36.9013 15.5933L36.6748 15.4085L36.4063 15.2632L36.1363 15.1163L35.8468 15.0153L35.5573 14.9316L35.2467 14.889L34.9377 14.8684L34.5852 14.9316L34.2552 14.9916L33.9447 15.0737L33.6762 15.1795L33.4077 15.3058L33.1587 15.448L32.9322 15.617L32.7252 15.7812L32.5392 15.9912L32.3742 16.2186L32.2287 16.4666L32.1042 16.7382L32.0022 17.0287L31.9182 17.3209L31.8567 17.651L31.8162 18.0047V35.27L26.7295 32.9834L26.5645 32.9234L26.398 32.9012L26.233 32.9234L26.068 32.9628L25.9225 33.026L25.7785 33.1287L25.675 33.255L25.5925 33.4192L25.5295 33.5898L25.51 33.754L25.5295 33.9198L25.5715 34.0856L25.633 34.2309L25.7365 34.3762L25.861 34.482L26.026 34.5847L31.8162 37.2014V47.4251L31.3196 47.2166L30.8231 46.9687L30.3686 46.6781L29.9126 46.3639L29.5001 46.0323L29.0861 45.6785L28.7141 45.2853L28.3631 44.8921L28.0316 44.4546L27.7211 44.0172L27.4525 43.5371L27.205 43.0618L26.998 42.5612L26.812 42.0417L26.6665 41.5221L26.5435 40.9836L26.5015 40.8383L26.44 40.693L26.356 40.5904L26.254 40.464L26.1295 40.3819L25.9855 40.3188L25.84 40.2792H24.91L24.517 40.2556L24.124 40.2161L23.752 40.1734L23.359 40.0897L22.9869 40.0076L22.6149 39.905L22.2429 39.7786L21.8709 39.6539L21.5184 39.4881L21.1674 39.3223L20.8374 39.1533L20.5059 38.9496L20.1954 38.7411L19.8849 38.5121L19.5743 38.2847L19.3074 38.0321L19.0373 37.7652L18.7898 37.473L18.5408 37.1824L18.3143 36.8903L18.1073 36.5808L17.9213 36.246L17.7563 35.8954L17.6108 35.5416L17.4863 35.1864L17.3843 34.8136L17.3003 34.4188L17.2388 34.0225L17.1983 33.6087L17.1773 33.1918L17.1983 32.7781L17.2388 32.3422L17.3003 31.9253L17.4038 31.5115L17.5283 31.1136L17.6738 30.7204L17.8388 30.3461L18.0458 29.9719L18.2528 29.5991L18.5003 29.2644L18.7478 28.9343L19.0373 28.6232L19.3269 28.3121L19.6374 28.0215L19.9674 27.7688L20.3199 27.5209L20.4234 27.4183L20.5269 27.3125L20.5884 27.2098L20.6499 27.0835L20.6919 26.9587L20.7129 26.8119L20.6919 26.6666L20.6724 26.545L20.5464 26.0886L20.4639 25.6275L20.3814 25.1711L20.3409 24.7352L20.3199 24.2788V23.8414L20.3409 23.4087L20.3814 22.9713L20.4444 22.5354L20.5269 22.0979L20.6289 21.6811L20.7549 21.2673L20.8989 20.8504L21.0639 20.4367L21.2499 20.0403L21.4359 19.666L21.6639 19.2728L21.8919 18.8985L22.1394 18.5448L22.3869 18.191L22.6764 17.8594L22.9659 17.5246L23.2764 17.2151L23.6065 16.904L23.938 16.6118L24.268 16.345L24.6415 16.0734L25.0135 15.8254L25.3855 15.5933L25.7785 15.388L26.191 15.1795L26.605 14.9916L26.7085 14.9316L26.833 14.8447L26.9155 14.7626L26.998 14.6599L27.0595 14.5352L27.1015 14.412L27.1225 14.2873L27.1435 14.1609V13.7677L27.184 13.3729L27.2455 13.0002L27.3086 12.6449L27.4105 12.2722L27.5156 11.9169L27.6596 11.5837L27.8036 11.2521L27.9701 10.922L28.1561 10.6077L28.3421 10.3156L28.5491 10.0282L28.7756 9.73759L29.0246 9.46597L29.2721 9.21806L29.5406 8.96539L29.8106 8.73796L30.0986 8.509L30.3881 8.30051L30.6986 8.11579L31.0091 7.92784L31.3407 7.76205L31.6707 7.61675L32.0022 7.46986L32.3532 7.34513L32.7042 7.24248L33.0762 7.16036L33.4287 7.07665L33.8007 7.01351L34.1727 6.97086L34.5447 6.95033L34.9377 6.93139ZM47.5501 55.3827V63.1318H44.841V55.4458L45.5235 55.5043H46.206L46.8675 55.4853L47.5501 55.3827ZM34.9588 5L34.5447 5.01899L34.1307 5.03793L33.7167 5.08212L33.3252 5.12477L32.9322 5.20848L32.5392 5.29061L32.1462 5.39326L31.7742 5.49904L31.4022 5.62063L31.0497 5.76594L30.6986 5.93172L30.3476 6.10073L30.0161 6.28546L29.6861 6.475L29.3546 6.68344L29.0441 6.88874L28.7561 7.11612L28.4456 7.34513L28.1771 7.59622L27.9071 7.86465L27.6386 8.13632L27.4105 8.40794L27.163 8.69849L26.935 8.98905L26.7295 9.30019L26.5435 9.61127L26.356 9.9413L26.191 10.2572L26.026 10.6077L25.8805 10.941L25.7575 11.2963L25.654 11.6453L25.3645 11.4416L25.096 11.2331L24.8065 11.0436L24.496 10.8778L24.2065 10.7325L23.8975 10.5872L23.6065 10.4846L23.2975 10.3598L22.9869 10.2761L22.6764 10.194L22.3674 10.1308L22.0569 10.0677L21.7464 10.0282L21.4359 10.0045L21.1254 9.98554H20.8164L20.1954 10.0282L19.5743 10.1119L18.9758 10.2334L18.3968 10.4025L17.8388 10.6077L17.3003 10.8589L16.7843 11.1494L16.3088 11.4605L16.0193 11.669L15.7703 11.8742L15.5228 12.1017L15.2947 12.3354L15.0682 12.5833L14.8612 12.8313L14.6752 13.0823L14.4892 13.3303L14.3227 13.6019L14.1787 13.8688L14.0347 14.1609L13.9102 14.4326L13.8067 14.7231L13.7032 15.0342L13.6207 15.3248L13.5592 15.617L13.4962 15.9281L13.4557 16.2391L13.4347 16.5297L13.4137 16.8408V17.1519V17.4867L13.4557 17.7962L13.4767 18.1074L13.5382 18.4184L13.5997 18.7327L13.6822 19.0438L13.7647 19.3549L13.8697 19.666L13.9927 19.9771L14.1172 20.2914L14.2612 20.5835L13.6207 20.9325L13.0207 21.3068L12.4222 21.7237L11.8642 22.1801L11.3466 22.657L10.8501 23.1766L10.3956 23.6961L9.96061 24.2788L9.87812 24.4241L9.81662 24.5899L9.79561 24.7589L9.81662 24.9231L9.85862 25.089L9.92012 25.2548L10.0236 25.3795L10.1676 25.5059L10.3341 25.588L10.4781 25.6511L10.6431 25.6717H10.8096L10.9536 25.6085L11.0976 25.5454L11.2431 25.4427L11.3886 25.2974L11.5942 25.0258L11.8222 24.7352L12.0487 24.4873L12.2767 24.2157L12.7927 23.7387L13.3312 23.2823L13.8892 22.8465L14.4892 22.4722L15.1297 22.1185L15.7913 21.8263L15.8738 21.7632L15.9578 21.7237L16.0403 21.6416L16.1018 21.5784L16.2263 21.3905L16.2878 21.2042L16.3298 20.9957L16.3088 20.8109L16.2668 20.6025L16.1843 20.4367L15.9983 20.1034L15.8333 19.7923L15.6878 19.4812L15.5648 19.1702L15.4403 18.8796L15.3578 18.5637L15.2752 18.2763L15.2123 18.0047L15.1717 17.7141L15.1297 17.4425V17.1519L15.1102 16.904L15.1297 16.6324L15.1508 16.3844L15.1928 16.1365L15.2543 15.8838L15.3158 15.6564L15.3773 15.4274L15.5648 14.971L15.7913 14.5542L16.0403 14.1799L16.3298 13.8072L16.6403 13.4756L16.9703 13.185L17.3213 12.8928L17.7353 12.6212L18.1703 12.3938L18.6248 12.1885L19.1003 12.0195L19.5954 11.8979L20.1129 11.8158L20.6289 11.7716H21.1464L21.6834 11.8158L22.2009 11.8979L22.4694 11.9801L22.7379 12.0432L22.9869 12.1459L23.2555 12.2485L23.5045 12.3543L23.752 12.4996L23.9995 12.6449L24.2485 12.7918L24.4765 12.9765L24.703 13.1645L24.952 13.3729L25.1575 13.5782L24.4765 13.9525L23.815 14.3489L23.194 14.7863L22.5939 15.2632L22.0149 15.7812L21.4779 16.3213L20.9814 16.904L20.5269 17.5057L20.2779 17.8594L20.0514 18.2337L19.8234 18.6079L19.6374 19.0011L19.4513 19.3754L19.2654 19.7718L19.1213 20.1855L18.9758 20.5835L18.8513 20.9957L18.7478 21.4126L18.6653 21.8263L18.5828 22.2433L18.5213 22.6807L18.4793 23.0944L18.4583 23.5303L18.4373 23.9677L18.4583 24.5899L18.5213 25.1947L18.6038 25.817L18.7283 26.4187L18.3758 26.7108L18.0248 27.0219L17.7143 27.3314L17.4038 27.6662L17.1158 28.0215L16.8458 28.3705L16.5983 28.7448L16.3703 29.1191L16.1228 29.6181L15.9158 30.0982L15.7298 30.6177L15.5648 31.1136L15.4403 31.6568L15.3578 32.1764L15.3158 32.7149L15.2947 33.255V33.4824L15.3158 33.7114L15.3578 33.9388L15.3982 34.1472L15.5228 34.6052L15.7088 35.0411L15.9158 35.4785L16.1843 35.8954L16.4738 36.3092L16.7843 36.7024L17.1353 37.0988L17.5073 37.473L17.9003 37.8473L18.3143 38.2216L18.7478 38.5753L19.1828 38.9053L19.6164 39.2165L20.0709 39.5276L20.9604 40.1103L21.8289 40.6093L22.6359 41.0657L23.359 41.44L23.98 41.7321L24.4555 41.9595L24.847 42.1253H24.9925L25.096 42.5217L25.219 42.896L25.3645 43.2702L25.51 43.6445L25.675 44.0172L25.861 44.3725L26.047 44.7215L26.254 45.0563L26.482 45.4101L26.7085 45.7212L26.956 46.0528L27.205 46.3434L27.4736 46.6545L27.7421 46.945L28.0526 47.2166L28.3421 47.4883L28.6736 47.7568L29.0246 48.0078L29.3756 48.2558L29.7281 48.4848L30.0986 48.6932L30.4916 48.878L30.8651 49.0675L31.2581 49.2317L30.9881 49.7323L30.6791 50.2077L30.3476 50.6641L29.9756 51.081L29.5616 51.4758L29.1491 51.8485L28.6931 52.2038L28.2176 52.5133L27.7211 52.8054L27.226 53.0534L26.6875 53.2618L26.1505 53.4513L25.6135 53.5729L25.054 53.6787L24.496 53.7419L23.917 53.7609H23.545L23.194 53.7419L22.8219 53.6993L22.4694 53.6361L22.1184 53.5729L21.7674 53.4703L21.4149 53.3676L21.0849 53.2618L20.7549 53.1402L20.4234 52.9949L20.1129 52.8244L19.8024 52.6602L19.5128 52.4754L19.2038 52.2859L18.9338 52.0774L18.6458 51.8485L18.3968 51.621L18.1283 51.3731L17.8793 51.1204L17.6528 50.8535L17.4248 50.5819L17.2178 50.2914L17.0333 49.9992L16.8458 49.7086L16.6598 49.3975L16.4948 49.0675L16.3493 48.7327L16.2263 48.401L16.1018 48.0678L15.9983 47.7173L15.9158 47.343L15.8333 46.9893L15.7913 46.844L15.7298 46.6971L15.6473 46.5724L15.5228 46.4697L15.3982 46.3876L15.2752 46.3244L15.1297 46.2802L14.9647 46.2613H14.1577L13.7452 46.2407L13.3312 46.1981L12.9382 46.1349L12.5257 46.0528L12.1327 45.9501L11.7382 45.8443L11.3466 45.7212L10.9746 45.5569L10.6026 45.388L10.2516 45.2016L9.89911 44.9932L9.54811 44.7657L9.2376 44.5178L8.92709 44.2462L8.65859 43.9983L8.43057 43.7266L8.20406 43.4787L7.99705 43.2071L7.79005 42.9165L7.62507 42.6244L7.45855 42.3338L7.31456 42.0417L7.19155 41.7321L7.06704 41.421L6.98304 41.0862L6.90055 40.7751L6.83904 40.4451L6.79704 40.1103L6.75653 39.7786V39.4454L6.77754 39.0317L6.81803 38.6337L6.88104 38.2405L6.96354 37.8662L7.08805 37.473L7.21105 37.0988L7.37606 36.726L7.56356 36.3708L7.76906 36.017L7.99705 35.6869L8.24457 35.3759L8.51308 35.0616L8.80409 34.7505L9.11309 34.482L9.44461 34.2104L9.77462 33.9624L9.89911 33.8772L9.98162 33.7745L10.0641 33.6482L10.1256 33.5266L10.1466 33.4003L10.1676 33.255V33.1097L10.1256 32.9834L10.0026 32.4638L9.89911 31.9679L9.83761 31.4247L9.79561 30.9052V30.3667L9.81662 29.8471L9.87812 29.3275L9.96061 28.808V28.5995L9.94111 28.4147L9.87812 28.2489L9.77462 28.08L9.6306 27.9347L9.46411 27.832L9.2796 27.7688L9.07109 27.7499L8.92709 27.7688L8.78308 27.8115L8.63757 27.8747L8.53407 27.9583L8.41107 28.08L8.32706 28.2063L8.26556 28.3311L8.22507 28.4969L8.14256 29.0164L8.07957 29.5786L8.03757 30.1187V30.6777L8.05856 31.2399L8.10056 31.7784L8.18307 32.3185L8.28657 32.8618L7.91456 33.1713L7.56356 33.5029L7.21105 33.8567L6.90055 34.2104L6.61254 34.6052L6.34252 35.0016L6.09502 35.3948L5.867 35.8085L5.66 36.246L5.49499 36.6818L5.34949 37.1193L5.22648 37.5757L5.12298 38.0321L5.0615 38.4885L5.0195 38.9685L5 39.4454L5.0195 39.8624L5.04049 40.2982L5.10199 40.712L5.18448 41.1289L5.267 41.5457L5.39149 41.9595L5.53699 42.3527L5.702 42.7507L5.88802 43.1249L6.09502 43.4977L6.32153 43.8719L6.54952 44.2257L6.81803 44.5762L7.10755 44.911L7.41806 45.2221L7.72857 45.5333L8.05856 45.8238L8.41107 46.116L8.76209 46.3639L9.1341 46.615L9.50611 46.8234L9.89911 47.0287L10.2921 47.2166L10.7061 47.3825L11.1186 47.5278L11.5536 47.6541L11.9872 47.7757L12.4222 47.8625L12.8557 47.9447L13.3102 47.9841L13.7647 48.0284H14.2612L14.4277 48.6095L14.6332 49.1496L14.8612 49.6881L15.1102 50.2077L15.3982 50.7272L15.7088 51.2073L16.0403 51.6637L16.4123 52.1201L16.8053 52.5338L17.2178 52.9318L17.6318 53.3045L18.0878 53.6361L18.5618 53.9709L19.0583 54.2614L19.5548 54.5283L20.0919 54.7573V64.0051V64.1899L20.1549 64.3588L20.2374 64.501L20.3409 64.6273L20.4639 64.7331L20.6289 64.8152L20.7954 64.8784L20.9604 64.8989H25.4275L25.5925 64.8784L25.7575 64.8152L25.9225 64.7331L26.047 64.6273L26.1505 64.501L26.233 64.3588L26.2945 64.1899V64.0051V55.3195L26.7085 55.2169L27.1015 55.0921L27.4945 54.9468L27.8876 54.781L28.2596 54.5915L28.6316 54.4067L29.0036 54.1793L29.3546 53.9472L29.7071 53.6993L30.0581 53.4513L30.3881 53.1797L30.6986 52.8875L31.0091 52.597L31.2776 52.3048L31.5672 51.9748L31.8162 51.6637V64.1267L31.8357 64.2957L31.8987 64.4615L31.9602 64.6273L32.0847 64.7536L32.2092 64.8547L32.3532 64.9384L32.5182 64.981L32.7042 65H37.2118L37.3363 64.9384L37.4803 64.8358L37.6468 64.7094L37.7908 64.5641L37.9348 64.4188L37.9768 64.3351L38.0188 64.2341L38.0398 64.1504V64.0683V51.5816L38.2873 51.8926L38.5348 52.1833L38.8033 52.4517L39.0943 52.7422L39.3824 52.9949L39.6719 53.2618L39.9824 53.4892L40.3139 53.7182L40.6439 53.9472L40.9739 54.1557L41.3054 54.3436L41.6579 54.5283L42.0089 54.6989L42.3599 54.8394L42.7319 54.9847L43.083 55.111V64.0683V64.1504L43.125 64.2341L43.1655 64.3162L43.2284 64.3983L43.353 64.5436L43.518 64.6463L43.683 64.7536L43.8285 64.8358L43.9515 64.8989H48.4171L48.6046 64.8784L48.7696 64.8152L48.9136 64.7331L49.0381 64.6273L49.1626 64.501L49.2451 64.3588L49.2871 64.1899L49.3066 64.0051V55.0084L49.8856 54.781L50.4436 54.5283L50.9821 54.2188L51.4981 53.9077L51.9947 53.5524L52.4492 53.1592L52.8842 52.7422L53.2982 52.3048L53.6897 51.8485L54.0617 51.3731L54.3932 50.8725L54.7037 50.3529L54.9932 49.8145L55.2408 49.2522L55.4688 48.6932L55.6758 48.1105L56.1918 48.0915L56.7288 48.0473L57.2463 47.9841L57.7638 47.8815L57.9288 47.8389L58.0743 47.7568L58.1973 47.6541L58.3008 47.5483L58.3833 47.4014L58.4463 47.2561L58.4868 47.0919V46.9261L58.4463 46.7366L58.3623 46.5724L58.2603 46.4255L58.1148 46.3039L57.9708 46.217L57.7833 46.1586L57.5988 46.1349L57.4128 46.1586L57.1233 46.217L56.8128 46.2613L56.1918 46.3244L55.5513 46.3639H54.7652L54.6212 46.4065L54.4967 46.4697L54.3722 46.5518L54.2702 46.6545L54.1652 46.7808L54.1037 46.9261L54.0617 47.0714L54.0002 47.4251L53.8967 47.7757L53.7947 48.1294L53.6897 48.4642L53.5457 48.7958L53.4017 49.1291L53.2352 49.4402L53.0702 49.7513L52.8842 50.0434L52.6772 50.334L52.4702 50.6246L52.2437 50.893L51.9947 51.1646L51.7682 51.4126L51.4981 51.6637L51.2297 51.8926L50.9612 52.1011L50.6716 52.3048L50.3821 52.5133L50.0926 52.7028L49.7821 52.8686L49.4716 53.0328L49.1416 53.1797L48.8101 53.3045L48.4801 53.4276L48.1501 53.5334L47.7976 53.6156L47.4466 53.6787L47.0955 53.7419L46.743 53.7814L46.392 53.805L46.02 53.824L45.462 53.805L44.904 53.7419L44.346 53.6361L43.8075 53.4892L43.2705 53.325L42.7529 53.096L42.2369 52.8481L41.7614 52.5765L41.2844 52.2669L40.8299 51.9116L40.4159 51.5578L40.0229 51.1441L39.6524 50.7272L39.2999 50.2708L38.9893 49.7955L38.7208 49.3154L39.2999 49.0675L39.8369 48.7958L40.3754 48.4848L40.8719 48.15L41.3684 47.7994L41.8229 47.4014L42.2774 46.9893L42.6914 46.5329L43.083 46.0765L43.4354 45.5964L43.767 45.0769L44.076 44.5368L44.346 43.9983L44.5725 43.4361L44.7795 42.8533L44.9655 42.2501H45.048L45.8325 42.0653L46.7025 41.8379L47.7361 41.5221L48.2941 41.3578L48.8521 41.1494L49.4101 40.9204L49.9681 40.693L50.4856 40.4214L50.9821 40.1529L51.4157 39.8624L51.6032 39.7171L51.7877 39.5702L52.1192 39.2401L52.4297 38.9053L52.7192 38.5753L52.9877 38.201L53.2352 37.8473L53.4842 37.454L53.6897 37.0766L53.8772 36.6818L54.0422 36.2697L54.1862 35.8528L54.3107 35.4343L54.4142 35.0016L54.4967 34.5847L54.5582 34.1283L54.6002 33.6908V33.255V32.7544L54.5387 32.2585L54.4757 31.7784L54.3722 31.3031L54.2492 30.8467L54.0827 30.3667L53.9177 29.9103L53.7122 29.4728L53.4632 29.0354L53.2157 28.6232L52.9247 28.2252L52.6142 27.832L52.2842 27.4578L51.9542 27.0835L51.5612 26.7535L51.1682 26.4187L51.2717 25.9196L51.3542 25.4427L51.4157 24.9437L51.4366 24.4478V23.9677V23.4908L51.3946 23.0107L51.3332 22.5354L51.2717 22.0553L51.1682 21.5784L51.0436 21.122L50.9192 20.6656L50.7542 20.2093L50.5891 19.7718L50.3821 19.3359L50.1751 18.8985L49.9471 18.4816L49.6996 18.0679L49.4311 17.6715L49.1626 17.2767L48.8731 16.904L48.5626 16.5297L48.2326 16.176L47.9011 15.8254L47.5501 15.4906L47.1781 15.1795L46.8045 14.889L46.413 14.5968L46.02 14.3062L45.606 14.0583L45.1725 13.8072L44.7375 13.5782L44.9655 13.3729L45.192 13.1645L45.42 12.9765L45.6675 12.7918L45.8955 12.6449L46.143 12.4996L46.392 12.3543L46.6605 12.2485L46.9095 12.1459L47.1781 12.0432L47.4256 11.9801L47.6941 11.8979L48.2116 11.8158L48.7486 11.7716H49.2661L49.7821 11.8158L50.2996 11.8979L50.7962 12.0195L51.2717 12.1885L51.7262 12.3938L52.1612 12.6212L52.5737 12.8928L52.8422 13.1013L53.0702 13.2876L53.2982 13.4961L53.4842 13.7235L53.6687 13.9319L53.8352 14.1609L53.9792 14.3883L54.1247 14.641L54.2492 14.8684L54.3527 15.1163L54.4352 15.3643L54.4967 15.6359L54.5582 15.8838L54.6002 16.1554L54.6407 16.4034L54.6617 16.675V17.2151L54.6212 17.7568L54.5387 18.2969L54.4142 18.8559L54.2492 19.3991L54.0422 19.9376L53.8352 20.4572L53.5862 20.9767V21.122L53.6072 21.2436L53.6492 21.3699L53.7122 21.4758L53.7947 21.599L53.8967 21.6811L54.0002 21.7632L54.1247 21.8263L54.5177 21.9953L54.9108 22.2006L55.2828 22.4091L55.6548 22.6365L56.0058 22.8655L56.3583 23.1371L56.6883 23.4087L57.0198 23.6756L57.3288 23.9677L57.6183 24.2788L57.9093 24.612L58.1763 24.9231L58.4253 25.2785L58.6728 25.6275L58.8798 25.9828L59.0868 26.3555L59.2939 26.7298L59.4589 27.104L59.6239 27.502L59.7484 27.8952L59.8729 28.3121L59.9749 28.7053L60.0589 29.1191L60.1204 29.5549L60.1624 29.9719L60.1834 30.3856V30.823L60.1624 31.2589L60.1204 31.6774L60.0589 32.1132L59.9554 32.5507L59.8519 32.9834L59.8099 33.1287V33.255L59.8309 33.4003L59.8729 33.5266L59.9134 33.6482L59.9974 33.7745L60.1009 33.8772L60.2029 33.9624L60.5554 34.2104L60.8854 34.482L61.1959 34.7694L61.4854 35.0616L61.7539 35.3759L62.0014 35.7059L62.2294 36.0407L62.4364 36.3913L62.6224 36.745L62.7679 37.1193L62.9119 37.4936L63.035 37.8662L63.1174 38.261L63.1805 38.6574L63.2225 39.0506L63.2435 39.4454L63.2225 39.7992L63.2014 40.134L63.161 40.464L63.0979 40.7988L63.0155 41.1099L62.9119 41.421L62.8084 41.7511L62.6839 42.0417L62.5189 42.3527L62.3734 42.6449L62.1889 42.9355L62.0014 43.2071L61.7959 43.4977L61.5679 43.7456L61.3204 44.0172L61.0714 44.2652L60.9469 44.3725L60.8239 44.5178L60.7414 44.6821L60.6784 44.8684L60.6589 45.0373L60.6784 45.2221L60.6994 45.3248L60.7609 45.4101L60.8029 45.4937L60.8854 45.5964L60.9679 45.658L61.0519 45.7212L61.2169 45.8238L61.4029 45.868H61.5889L61.7749 45.8443L61.9399 45.7843L62.1064 45.6785L62.2504 45.5569L62.5804 45.2411L62.8909 44.93L63.161 44.5999L63.428 44.2462L63.677 43.8925L63.905 43.5182L64.1105 43.1439L64.298 42.7697L64.442 42.3764L64.586 41.9785L64.7105 41.5663L64.814 41.1494L64.8965 40.7356L64.9385 40.3188L64.979 39.8813L65 39.4454L64.979 38.9891L64.9385 38.5121L64.8755 38.0321L64.7735 37.5757L64.649 37.1382L64.5035 36.6818L64.3175 36.246L64.1315 35.8085L63.905 35.3948L63.656 35.0016L63.3875 34.6052L63.077 34.2309L62.7679 33.8567L62.4364 33.5266L62.0839 33.1918L61.6924 32.8807L61.7959 32.4054L61.8574 31.9253L61.9189 31.4673L61.9399 31.011L61.9609 30.5309L61.9399 30.0745L61.8979 29.6181L61.8574 29.1617L61.7749 28.7053L61.6924 28.2679L61.5889 27.832L61.4434 27.3946L61.2994 26.9587L61.1344 26.545L60.9679 26.1281L60.7609 25.7143L60.5554 25.3179L60.3274 24.9231L60.0799 24.5299L59.8099 24.1557L59.5414 23.8019L59.2519 23.4482L58.9413 23.0944L58.6323 22.7628L58.3008 22.4517L57.9498 22.1422L57.5988 21.85L57.2253 21.5595L56.8548 21.2878L56.4618 21.0399L56.0478 20.8109L55.6338 20.5835L55.7778 20.2914L55.9023 19.9771L56.0268 19.666L56.1303 19.3549L56.2338 19.0438L56.2953 18.7327L56.3583 18.4184L56.4198 18.1074L56.4618 17.7962L56.4813 17.4867V17.1519V16.8408L56.4618 16.5487L56.4408 16.2391L56.3988 15.9281L56.3373 15.617L56.2743 15.3248L56.1918 15.0342L56.0883 14.7231L55.9863 14.4515L55.8618 14.1609L55.7163 13.8688L55.5723 13.6019L55.4073 13.3303L55.2197 13.0823L55.0338 12.8313L54.8282 12.5833L54.6212 12.3354L54.3722 12.1017L54.1247 11.8742L53.8772 11.669L53.6072 11.4605L53.1107 11.1494L52.5947 10.8589L52.0562 10.6077L51.4981 10.4025L50.9192 10.2334L50.3206 10.1119L49.6996 10.0282L49.1011 9.98554H48.7906L48.4801 10.0045L48.1501 10.0282L47.8396 10.0677L47.5291 10.1308L47.2185 10.194L46.9095 10.2761L46.599 10.3598L46.2885 10.4846L45.999 10.5872L45.6885 10.7325L45.399 10.8778L45.1095 11.0436L44.8215 11.2331L44.5305 11.4416L44.241 11.6453L44.1375 11.2963L44.0145 10.941L43.869 10.6077L43.704 10.2572L43.539 9.9413L43.353 9.61127L43.1655 9.30019L42.96 8.98905L42.7319 8.69849L42.5054 8.40794L42.2564 8.13632L41.9879 7.86465L41.7194 7.59622L41.4509 7.34513L41.1614 7.11612L40.8509 6.88874L40.5404 6.68344L40.2314 6.475L39.8999 6.28546L39.5489 6.10073L39.2173 5.93172L38.8663 5.76594L38.4943 5.62063L38.1223 5.49904L37.7488 5.39326L37.3558 5.29061L36.9853 5.20848L36.5923 5.12477L36.1783 5.08212L35.7853 5.03793L35.3727 5.01899L34.9588 5Z" fill="#005A35"/>
<rect x="0.5" y="0.5" width="69" height="69" rx="9.5" stroke="#005A35"/>
</svg>
