<svg width="41" height="32" xmlns="http://www.w3.org/2000/svg" xmlns:xlink="http://www.w3.org/1999/xlink" overflow="hidden"><defs><clipPath id="clip0"><rect x="356" y="277" width="41" height="32"/></clipPath></defs><g clip-path="url(#clip0)" transform="translate(-356 -277)"><path d="M367.447 278 367.335 278.046 367.251 278.093 367.168 278.168 367.098 278.261 367.042 278.368 367.014 278.476 367.001 278.598 367.001 281.997 385.999 281.997 385.999 278.598 385.999 278.476 385.958 278.368 385.916 278.261 385.846 278.168 385.763 278.093 385.665 278.046 385.567 278Z" fill="#FFFFFF" fill-rule="evenodd"/><path d="M381.001 278 381.112 278.046 381.222 278.093 381.318 278.168 381.397 278.261 381.461 278.368 381.492 278.476 381.508 278.615 381.508 281.997 385.999 281.997 385.999 278.598 385.999 278.476 385.952 278.368 385.904 278.261 385.825 278.168 385.73 278.093 385.618 278.046 385.508 278Z" fill="#E4ECF2" fill-rule="evenodd"/><path d="M359.375 278 359.293 278.046 359.211 278.093 359.141 278.168 359.082 278.261 359.035 278.368 359.012 278.476 359 278.598 359 281.997 363 281.997 363 278.598 362.988 278.476 362.964 278.368 362.918 278.261 362.859 278.168 362.789 278.093 362.718 278.046 362.624 278Z" fill="#FE7D56" fill-rule="evenodd"/><path d="M389.471 278 389.353 278.046 389.25 278.093 389.162 278.168 389.103 278.261 389.045 278.368 389.015 278.476 389 278.598 389 281.997 394 281.997 394 278.598 394 278.476 393.956 278.368 393.912 278.261 393.838 278.168 393.75 278.093 393.647 278.046 393.544 278Z" fill="#7E92FF" fill-rule="evenodd"/><path d="M359 286 359 302.997 394 302.997 394 286Z" fill="#FFFFFF" fill-rule="evenodd"/><path d="M359 286 359 287.498 389.573 287.498 389.683 287.513 389.779 287.538 389.875 287.59 389.957 287.642 390.026 287.722 390.067 287.814 390.108 287.918 390.122 288.023 390.122 302.997 394 302.997 394 286Z" fill="#E4ECF2" fill-rule="evenodd"/><path d="M357.001 303 357.001 307.997 396 307.997 396 303Z" fill="#7E92FF" fill-rule="evenodd"/><path d="M392.001 303 392.001 307.997 396 307.997 396 303Z" fill="#6880EA" fill-rule="evenodd"/><path d="M357.001 282 357.001 285.998 396 285.998 396 282Z" fill="#7E92FF" fill-rule="evenodd"/><path d="M392.001 282 392.001 285.998 396 285.998 396 282Z" fill="#6880EA" fill-rule="evenodd"/><path d="M376.493 289 376.493 293.512 372 293.512 376.493 300.997 376.493 296.486 381 296.486 376.493 289Z" fill="#F46545" fill-rule="evenodd"/><path d="M362.483 279.102 362.483 281.381 358.973 281.381 358.973 279.102ZM392.958 279.102 392.958 281.381 389.448 281.381 389.448 279.102ZM394.83 282.482 394.83 285.797 390.136 285.797 390.013 285.812 389.888 285.836 389.778 285.902 389.696 285.978 389.627 286.069 389.572 286.175 389.544 286.29 389.558 286.408 389.572 286.511 389.613 286.602 389.682 286.692 389.751 286.756 389.847 286.822 389.943 286.859 390.04 286.886 390.15 286.898 392.958 286.898 392.958 302.482 365.8 302.482 365.677 302.507 365.567 302.534 365.47 302.598 365.387 302.661 365.319 302.752 365.264 302.843 365.223 302.948 365.209 303.064 365.223 303.167 365.264 303.272 365.319 303.363 365.387 303.439 365.47 303.505 365.567 303.557 365.677 303.581 394.83 303.581 394.83 306.898 357.17 306.898 357.17 303.581 363.282 303.581 363.419 303.569 363.529 303.53 363.639 303.478 363.722 303.4 363.791 303.309 363.846 303.206 363.874 303.091 363.874 302.961 363.846 302.858 363.805 302.767 363.736 302.688 363.667 302.61 363.584 302.558 363.488 302.519 363.378 302.495 363.268 302.482 359.056 302.482 359.056 286.898 387.617 286.898 387.741 286.874 387.851 286.835 387.948 286.783 388.03 286.705 388.099 286.626 388.154 286.523 388.195 286.42 388.209 286.317 388.195 286.199 388.154 286.096 388.099 286.005 388.03 285.927 387.948 285.863 387.851 285.812 387.741 285.797 357.17 285.797 357.17 282.482ZM358.89 278 358.78 278.027 358.671 278.052 358.574 278.079 358.478 278.13 358.381 278.182 358.285 278.248 358.216 278.312 358.133 278.39 358.078 278.466 358.01 278.557 357.969 278.648 357.927 278.751 357.9 278.856 357.886 278.959 357.886 279.062 357.886 281.381 356.592 281.381 356.468 281.393 356.358 281.42 356.262 281.472 356.179 281.538 356.11 281.626 356.055 281.717 356.014 281.822 356 281.938 356 286.265 356.014 286.381 356.055 286.484 356.11 286.575 356.179 286.665 356.262 286.732 356.358 286.783 356.468 286.808 356.592 286.822 357.886 286.822 357.886 302.482 356.592 302.482 356.468 302.495 356.358 302.519 356.262 302.571 356.179 302.637 356.11 302.728 356.055 302.818 356.014 302.921 356 303.039 356 307.443 356.014 307.558 356.055 307.661 356.11 307.752 356.179 307.831 356.262 307.895 356.358 307.946 356.468 307.985 356.592 308 395.422 308 395.532 307.985 395.642 307.946 395.752 307.895 395.835 307.831 395.903 307.752 395.959 307.661 395.986 307.558 396 307.443 396 303.039 395.986 302.921 395.959 302.818 395.903 302.728 395.835 302.637 395.752 302.571 395.642 302.519 395.532 302.495 395.422 302.482 394.128 302.482 394.128 286.822 395.422 286.822 395.532 286.808 395.642 286.783 395.752 286.732 395.835 286.665 395.903 286.575 395.959 286.484 395.986 286.381 396 286.265 396 281.938 395.986 281.822 395.959 281.717 395.903 281.626 395.835 281.538 395.752 281.472 395.642 281.42 395.532 281.393 395.422 281.381 394.128 281.381 394.128 279.062 394.128 278.959 394.1 278.856 394.073 278.751 394.045 278.648 393.99 278.557 393.935 278.466 393.867 278.39 393.797 278.312 393.715 278.248 393.632 278.182 393.536 278.13 393.439 278.079 393.329 278.052 393.22 278.027 393.109 278 389.283 278 389.173 278.027 389.063 278.052 388.966 278.079 388.87 278.13 388.773 278.182 388.677 278.248 388.609 278.312 388.526 278.39 388.457 278.466 388.402 278.557 388.361 278.648 388.319 278.751 388.292 278.856 388.278 278.959 388.264 279.062 388.264 281.381 385.924 281.381 385.924 279.062 385.924 278.959 385.897 278.856 385.869 278.751 385.842 278.648 385.787 278.557 385.731 278.466 385.663 278.39 385.594 278.312 385.511 278.248 385.428 278.182 385.332 278.13 385.236 278.079 385.126 278.052 385.016 278.027 384.906 278 372.421 278 372.297 278.012 372.187 278.052 372.077 278.103 371.995 278.182 371.912 278.272 371.871 278.375 371.843 278.493 371.843 278.623 371.871 278.726 371.912 278.817 371.967 278.893 372.049 278.972 372.132 279.023 372.229 279.062 372.339 279.089 372.449 279.102 384.754 279.102 384.754 281.381 367.177 281.381 367.177 279.102 369.957 279.102 370.04 279.075 370.123 279.05 370.191 279.011 370.26 278.972 370.315 278.908 370.37 278.856 370.411 278.778 370.439 278.714 370.453 278.635 370.453 278.545 370.453 278.466 370.426 278.375 370.398 278.285 370.343 278.194 370.274 278.118 370.219 278.066 370.164 278.027 370.095 278 366.613 278 366.489 278.012 366.379 278.039 366.269 278.103 366.186 278.169 366.103 278.26 366.048 278.351 366.021 278.466 366.007 278.584 366.007 281.381 363.667 281.381 363.667 279.062 363.653 278.959 363.639 278.856 363.612 278.751 363.571 278.648 363.529 278.557 363.461 278.466 363.405 278.39 363.323 278.312 363.254 278.248 363.158 278.182 363.061 278.13 362.965 278.079 362.869 278.052 362.759 278.027 362.648 278Z" fill="#5D5D6D" fill-rule="evenodd"/><path d="M377.116 290.563 380.275 295.406 376.492 295.406 376.377 295.421 376.261 295.459 376.159 295.512 376.058 295.581 375.985 295.661 375.928 295.755 375.899 295.861 375.884 295.98 375.884 298.437 372.725 293.591 376.492 293.591 376.623 293.579 376.739 293.551 376.84 293.498 376.942 293.432 377.015 293.339 377.072 293.245 377.101 293.139 377.116 293.03 377.116 290.563ZM376.435 288 376.319 288.028 376.203 288.068 376.13 288.121 376.058 288.159 376.014 288.228 375.971 288.293 375.928 288.361 375.899 288.427 375.884 288.508 375.884 288.586 375.884 292.456 371.537 292.456 371.45 292.484 371.362 292.512 371.29 292.55 371.189 292.631 371.102 292.712 371.058 292.805 371.014 292.911 371 293.017 371.014 293.124 371.044 293.232 371.102 293.326 375.971 300.732 376.014 300.798 376.072 300.851 376.13 300.891 376.203 300.932 376.275 300.96 376.348 300.985 376.42 300.997 376.492 300.997 376.638 300.985 376.71 300.972 376.782 300.944 376.855 300.904 376.928 300.851 376.986 300.785 377.029 300.719 377.072 300.651 377.087 300.57 377.116 300.505 377.116 300.411 377.116 296.554 381.362 296.554 381.478 296.541 381.594 296.513 381.696 296.46 381.797 296.395 381.869 296.329 381.927 296.235 381.97 296.142 381.985 296.048 381.999 295.955 381.985 295.861 381.956 295.768 381.898 295.674 377.029 288.268 376.957 288.187 376.869 288.106 376.768 288.053 376.667 288.013 376.551 288Z" fill="#5D5D6D" fill-rule="evenodd"/><path d="M389.431 292.003 389.321 292.029 389.225 292.07 389.129 292.137 389.06 292.207 389.005 292.288 388.951 292.384 388.923 292.495 388.909 292.604 388.909 293.919 387.604 293.919 387.495 293.932 387.385 293.961 387.289 293.999 387.193 294.054 387.123 294.137 387.069 294.22 387.014 294.316 387 294.425 387 294.562 387.014 294.684 387.069 294.796 387.138 294.892 387.234 294.972 387.33 295.026 387.453 295.068 387.577 295.081 388.909 295.081 388.909 296.411 388.923 296.546 388.964 296.658 389.033 296.767 389.115 296.847 389.211 296.917 389.321 296.971 389.445 297 389.569 297 389.679 296.971 389.775 296.93 389.871 296.863 389.94 296.793 389.995 296.712 390.049 296.616 390.077 296.505 390.091 296.396 390.091 295.081 391.423 295.081 391.546 295.068 391.67 295.026 391.766 294.972 391.862 294.892 391.931 294.796 391.986 294.684 391.999 294.562 391.999 294.425 391.986 294.316 391.931 294.22 391.876 294.137 391.807 294.054 391.711 293.999 391.615 293.961 391.505 293.932 391.396 293.919 390.091 293.919 390.091 292.576 390.077 292.454 390.036 292.345 389.967 292.233 389.884 292.153 389.788 292.083 389.679 292.029 389.555 292.003Z" fill="#5D5D6D" fill-rule="evenodd"/><path d="M361.589 294.002 361.452 294.013 361.342 294.049 361.233 294.096 361.151 294.167 361.083 294.249 361.027 294.342 361 294.447 361 294.564 361.027 294.658 361.069 294.74 361.137 294.811 361.206 294.882 361.288 294.929 361.398 294.964 361.493 294.987 361.603 294.998 365.424 294.998 365.548 294.987 365.658 294.951 365.767 294.904 365.849 294.836 365.932 294.753 365.973 294.658 366 294.553 366 294.436 365.973 294.342 365.932 294.26 365.876 294.189 365.794 294.118 365.712 294.071 365.617 294.038 365.507 294.013 365.397 294.002Z" fill="#5D5D6D" fill-rule="evenodd"/></g></svg>