<svg width="40" height="28" xmlns="http://www.w3.org/2000/svg" xmlns:xlink="http://www.w3.org/1999/xlink" overflow="hidden"><defs><clipPath id="clip0"><rect x="376" y="342" width="40" height="28"/></clipPath></defs><g clip-path="url(#clip0)" transform="translate(-376 -342)"><path d="M383.505 343.169C383.701 343.169 383.86 343.332 383.86 343.535L383.86 344.744 381.456 344.744 381.456 343.535C381.456 343.332 381.572 343.169 381.771 343.169ZM411.136 346.035C411.335 346.035 411.491 346.195 411.491 346.398L411.491 347.526 406.919 347.526 406.919 346.398C406.919 346.195 407.078 346.035 407.273 346.035ZM381.81 342C381.022 342 380.35 342.688 380.35 343.535L380.35 344.744 379.841 344.744C379.208 344.744 378.579 344.985 378.066 345.388 377.828 345.591 377.788 345.954 377.987 346.195 378.106 346.344 378.285 346.432 378.46 346.432 378.573 346.432 378.682 346.394 378.775 346.317 379.195 345.964 379.615 345.91 380.026 345.91 380.198 345.91 380.37 345.92 380.542 345.92 380.609 345.92 380.678 345.917 380.744 345.913L385.475 345.913C386.422 345.913 387.131 346.638 387.131 347.607L387.131 349.827C387.131 350.149 387.409 350.393 387.684 350.393 387.998 350.393 388.236 350.149 388.236 349.827L388.236 348.658 412.279 348.658C413.146 348.736 413.858 349.464 413.858 350.393L413.858 351.077 412.871 351.077C412.557 351.077 412.318 351.358 412.318 351.643 412.318 351.965 412.557 352.205 412.871 352.205L413.858 352.205 413.858 365.961 411.256 365.961C410.388 365.961 409.716 365.277 409.716 364.389L409.716 353.821C409.716 353.093 410.15 352.49 410.822 352.287 411.097 352.205 411.256 351.883 411.176 351.602 411.107 351.318 410.885 351.192 410.62 351.192 410.584 351.192 410.544 351.192 410.507 351.199 409.402 351.561 408.653 352.608 408.653 353.821L408.653 364.389C408.653 365.924 409.835 367.134 411.295 367.134L413.898 367.134C413.898 368.099 413.146 368.828 412.239 368.828L387.723 368.828C387.998 368.506 388.197 368.14 388.236 367.696 388.273 367.374 388.078 367.093 387.803 366.971 387.773 366.968 387.746 366.968 387.72 366.968 387.439 366.968 387.2 367.157 387.091 367.415 386.975 368.221 386.263 368.787 385.436 368.787L379.523 368.787C378.655 368.706 378.066 367.94 378.066 367.093L378.066 350.874 378.066 347.851C378.066 347.567 377.828 347.326 377.553 347.326 377.238 347.326 377 347.567 377 347.851L377 367.134C377 368.543 378.026 369.756 379.327 369.956 379.367 369.956 379.443 369.956 379.523 369.997L412.202 369.997C413.778 369.997 415 368.706 415 367.134L415 350.393C415 348.98 413.974 347.77 412.636 347.567L412.636 346.398C412.636 345.591 412.004 344.904 411.136 344.904L407.273 344.904C406.485 344.904 405.776 345.551 405.776 346.398L405.776 347.526 404.201 347.526 403.015 344.904C402.582 343.979 401.678 343.372 400.691 343.372L396.119 343.372C395.292 343.372 394.504 343.775 393.99 344.5 393.792 344.744 393.911 345.107 394.146 345.307 394.232 345.378 394.328 345.409 394.427 345.409 394.613 345.409 394.808 345.303 394.937 345.148 395.172 344.744 395.646 344.541 396.119 344.541L400.691 344.541C401.244 344.541 401.794 344.904 402.032 345.388L403.015 347.526 393.871 347.526 394.07 347.123C394.186 346.801 394.07 346.439 393.752 346.357 393.666 346.313 393.58 346.293 393.5 346.293 393.282 346.293 393.09 346.435 393.004 346.638L392.61 347.526 388.313 347.526C388.273 345.995 387.051 344.744 385.515 344.744L385.042 344.744 385.042 343.535C385.042 342.725 384.373 342 383.545 342Z" fill="#657E93" fill-rule="evenodd"/><path d="M387.464 351.004C387.216 351.004 387 351.257 387 351.557L387 365.447C387 365.743 387.216 366 387.464 366 387.749 366 387.964 365.743 387.964 365.447L387.964 351.557C387.997 351.3 387.749 351.004 387.464 351.004Z" fill="#657E93" fill-rule="evenodd"/><path d="M408.407 350C408.23 350 408.046 350.084 407.926 350.227 407.736 350.447 407.85 350.78 408.074 350.966 408.489 351.261 408.264 351.929 407.736 351.929 407.397 351.929 407.131 351.668 407.207 351.298 407.283 351.003 407.096 350.745 406.792 350.708 406.77 350.705 406.747 350.702 406.725 350.702 406.478 350.702 406.225 350.876 406.19 351.115 406 352.149 406.754 353 407.774 353 409.357 352.963 409.997 351.003 408.679 350.078 408.597 350.025 408.505 350 408.407 350Z" fill="#657E93" fill-rule="evenodd"/><path d="M398.47 349.003C396.484 349.003 394.457 349.633 392.684 351.035 392.447 351.233 392.372 351.588 392.566 351.823 392.681 351.986 392.849 352.065 393.013 352.065 393.135 352.065 393.25 352.025 393.349 351.942 394.924 350.687 396.717 350.123 398.47 350.123 402.786 350.123 406.862 353.54 406.862 358.53 406.862 360.505 406.197 362.437 404.905 363.934 403.296 365.83 400.987 366.933 398.52 366.933 393.898 366.933 390.138 363.146 390.138 358.49 390.138 356.638 390.727 354.862 391.862 353.361 392.056 353.125 391.98 352.771 391.743 352.572 391.645 352.492 391.526 352.449 391.408 352.449 391.243 352.449 391.076 352.529 390.961 352.691 389.668 354.348 389.003 356.359 389.003 358.45 389.003 363.739 393.27 368 398.48 368 401.339 368 403.964 366.777 405.803 364.567 407.214 362.831 407.997 360.66 407.997 358.45 407.997 352.837 403.359 349.003 398.47 349.003Z" fill="#657E93" fill-rule="evenodd"/><path d="M398.328 353C394.725 353 392 356.323 392.576 359.965 392.612 360.254 392.87 360.444 393.121 360.444 393.143 360.444 393.166 360.444 393.188 360.441 393.498 360.361 393.688 360.085 393.61 359.766 393.118 356.599 395.581 354.1 398.287 354.1 399.369 354.1 400.486 354.499 401.472 355.416 403.353 357.194 403.504 360.281 401.704 362.298 400.783 363.355 399.517 363.87 398.254 363.87 396.728 363.87 395.204 363.119 394.303 361.667 394.203 361.511 394.006 361.408 393.816 361.408 393.717 361.408 393.617 361.438 393.536 361.507 393.266 361.667 393.188 362.062 393.382 362.298 394.512 364.089 396.357 365 398.229 365 399.787 365 401.359 364.369 402.544 363.089 405.997 359.254 403.353 353 398.328 353Z" fill="#657E93" fill-rule="evenodd"/><path d="M399.401 355.004C399.379 355.004 399.357 355.004 399.332 355.007 397.669 355.404 397 357.847 398.222 359.244 398.629 359.747 399.167 360 399.708 360 400.249 360 400.797 359.747 401.223 359.244 401.851 358.371 402 357.238 401.63 356.321 401.53 356.086 401.366 355.968 401.192 355.968 401.101 355.968 401.011 355.998 400.924 356.056 400.666 356.189 400.554 356.581 400.703 356.842 400.89 357.322 400.853 357.891 400.483 358.327 400.277 358.569 400.001 358.69 399.721 358.69 399.444 358.69 399.167 358.569 398.962 358.327 398.334 357.63 398.667 356.365 399.519 356.189 399.777 356.145 399.963 355.84 399.926 355.488 399.892 355.209 399.643 355.004 399.401 355.004Z" fill="#657E93" fill-rule="evenodd"/></g></svg>