<svg width="83" height="60" xmlns="http://www.w3.org/2000/svg" xmlns:xlink="http://www.w3.org/1999/xlink" overflow="hidden"><defs><filter id="fx0" x="-10%" y="-10%" width="120%" height="120%" filterUnits="userSpaceOnUse" primitiveUnits="userSpaceOnUse"><feComponentTransfer color-interpolation-filters="sRGB"><feFuncR type="discrete" tableValues="0 0"/><feFuncG type="discrete" tableValues="0 0"/><feFuncB type="discrete" tableValues="0 0"/><feFuncA type="linear" slope="0.501961" intercept="0"/></feComponentTransfer><feGaussianBlur stdDeviation="2 2"/></filter><clipPath id="clip1"><rect x="19" y="250" width="83" height="60"/></clipPath><clipPath id="clip2"><path d="M49.6288 261.246C45.6511 261.899 41.9265 263.536 38.7667 265.937 36.1265 267.943 33.8841 270.484 32.2093 273.429 31.5301 274.383 32.7846 275.468 33.6286 274.826 33.7109 274.764 33.7906 274.687 33.8649 274.582 33.8855 274.566 34.0127 274.445 34.2289 274.281 35.3199 273.452 38.6659 271.445 42.4436 274.931 44.0669 276.693 45.4632 278.531 46.6028 280.66 50.2409 286.591 54.7223 294.016 66.0269 295.281 71.1218 295.874 76.2171 294.503 80.3033 291.397 80.3805 291.339 80.4577 291.28 80.5349 291.221 82.3104 289.872 83.96 288.229 85.2552 286.376 88.7548 281.687 90.1478 276.276 88.7256 273.005 88.5566 272.655 88.1515 272.378 87.711 272.429 87.517 272.43 87.3275 272.501 87.1731 272.618 87.0238 272.732 86.9046 272.896 86.8515 273.082 86.8007 273.218 86.3049 274.553 84.9051 275.617 83.6494 276.571 81.6579 277.305 78.6085 276.732 76.5711 276.348 74.1415 274.038 71.2786 271.285 65.7783 266.088 58.9645 259.664 49.6288 261.246ZM19 250 102 250 102 310 19 310Z" fill-rule="evenodd" clip-rule="evenodd"/></clipPath><clipPath id="clip3"><rect x="-2" y="-2" width="88" height="64"/></clipPath><clipPath id="clip4"><rect x="0" y="0" width="83" height="60"/></clipPath></defs><g clip-path="url(#clip1)" transform="translate(-19 -250)"><g clip-path="url(#clip2)"><g clip-path="url(#clip3)" filter="url(#fx0)" transform="translate(19 250)"><g clip-path="url(#clip4)"><path d="M19.7667 17.9369C17.1265 19.9432 14.8841 22.4836 13.2093 25.4289 12.5301 26.3834 13.7846 27.4679 14.6286 26.8265 14.7109 26.7639 14.7906 26.6871 14.8649 26.5819 14.8855 26.5663 15.0127 26.4453 15.2289 26.281 16.3199 25.4519 19.6659 23.4449 23.4436 26.931 25.0669 28.6932 26.4632 30.5305 27.6028 32.6604 31.2409 38.5908 35.7223 46.0155 47.0269 47.2808 52.1218 47.8743 57.2171 46.5027 61.3033 43.3974 61.3805 43.3387 61.4577 43.2801 61.5349 43.2214 63.3104 41.8721 64.96 40.2288 66.2552 38.3758 69.7548 33.6866 71.1478 28.2764 69.7256 25.0055 69.5566 24.6549 69.1515 24.3782 68.711 24.4289 68.517 24.4301 68.3275 24.5011 68.1731 24.6184 68.0238 24.7318 67.9046 24.8955 67.8515 25.082 67.8007 25.2181 67.3049 26.5528 65.9051 27.6166 64.6494 28.5709 62.6579 29.3049 59.6085 28.732 57.5711 28.348 55.1415 26.0376 52.2786 23.2852 46.7783 18.088 39.9645 11.6644 30.6288 13.2464 26.6511 13.8985 22.9265 15.5355 19.7667 17.9369Z" stroke="#FFFFFF" stroke-width="12" stroke-linejoin="round" stroke-miterlimit="10" fill="#FFFFFF" fill-rule="evenodd"/></g></g></g><path d="M38.7667 265.937C36.1265 267.943 33.8841 270.484 32.2093 273.429 31.5301 274.383 32.7846 275.468 33.6286 274.826 33.7109 274.764 33.7906 274.687 33.8649 274.582 33.8855 274.566 34.0127 274.445 34.2289 274.281 35.3199 273.452 38.6659 271.445 42.4436 274.931 44.0669 276.693 45.4632 278.531 46.6028 280.66 50.2409 286.591 54.7223 294.016 66.0269 295.281 71.1218 295.874 76.2171 294.503 80.3033 291.397 80.3805 291.339 80.4577 291.28 80.5349 291.221 82.3104 289.872 83.96 288.229 85.2552 286.376 88.7548 281.687 90.1478 276.276 88.7256 273.005 88.5566 272.655 88.1515 272.378 87.711 272.429 87.517 272.43 87.3275 272.501 87.1731 272.618 87.0238 272.732 86.9046 272.896 86.8515 273.082 86.8007 273.218 86.3049 274.553 84.9051 275.617 83.6494 276.571 81.6579 277.305 78.6085 276.732 76.5711 276.348 74.1415 274.038 71.2785 271.285 65.7783 266.088 58.9645 259.664 49.6288 261.246 45.6511 261.899 41.9266 263.536 38.7667 265.937Z" stroke="#FFFFFF" stroke-width="12" stroke-linejoin="round" stroke-miterlimit="10" fill="#FFFFFF" fill-rule="evenodd"/><path d="M39.3997 266.722C36.8883 268.63 34.742 271.041 33.1128 273.854 33.1128 273.854 33.2876 273.689 33.6015 273.45 34.919 272.449 38.7767 270.207 43.1251 274.177 48.4943 279.084 50.8899 292.535 66.1985 294.241 71.6697 294.849 76.3426 293.124 79.9605 290.375 86.3935 285.486 89.4848 277.364 87.7738 273.404L87.7738 273.404C87.7738 273.404 87.1859 275.076 85.467 276.383 84.026 277.478 81.7999 278.309 78.4539 277.677 72.0313 276.469 63.624 259.947 49.8621 262.189 46.0188 262.836 42.4413 264.41 39.3997 266.722Z" stroke="#005A35" stroke-width="2" stroke-linejoin="round" stroke-miterlimit="10" fill="#98C926" fill-rule="evenodd"/><path d="M37.317 268.767C35.5569 270.105 34.0616 271.802 32.9611 273.783L33.0228 273.736C32.8394 273.964 33.1655 274.212 33.3765 274.052 33.3919 274.04 33.4073 274.028 33.424 274.007 34.3666 272.812 35.46 271.729 36.6797 270.802 38.3883 269.504 40.3367 268.51 42.4364 267.93 45.974 266.987 49.7434 267.118 53.1535 268.294L54.4809 268.641 55.7747 269.2 58.3192 270.262C59.9415 271.254 61.6404 272.09 63.2061 273.125L65.5678 274.715C66.3272 275.202 67.1335 275.75 67.869 276.344 69.4199 277.487 70.8421 278.729 72.4078 279.763 72.5017 279.887 72.6013 279.9 72.7248 279.807 72.7435 279.703 72.8201 279.547 72.7263 279.424 71.3755 278.031 70.0338 276.639 68.6212 275.293 67.2556 274.009 65.6481 272.909 64.1211 271.658 63.3766 271.063 62.5703 270.515 61.7073 270.009L59.2169 268.516 56.4738 267.321 55.1292 266.695 53.697 266.338C49.8721 264.991 45.747 265.032 41.8858 266.318 40.2437 266.892 38.6963 267.719 37.317 268.767Z" fill="#005A35" fill-rule="evenodd"/><path d="M36.3508 270.711C35.7795 271.146 35.2305 271.62 34.7245 272.15 34.7245 272.15 40.8559 271.063 43.9698 273.633 43.9698 273.633 42.6495 268.904 44.775 267.289 45.0066 267.113 45.2798 266.97 45.6011 266.881 45.6011 266.881 40.4268 267.614 36.3508 270.711Z" fill="#005A35" fill-rule="evenodd"/></g></svg>