<svg width="60" height="60" xmlns="http://www.w3.org/2000/svg" xmlns:xlink="http://www.w3.org/1999/xlink" overflow="hidden"><defs><clipPath id="clip0"><rect x="124" y="183" width="60" height="60"/></clipPath></defs><g clip-path="url(#clip0)" transform="translate(-124 -183)"><path d="M154.5 184.505C146.809 184.505 139.429 187.488 134.024 192.95 128.496 198.477 125.505 205.781 125.505 213.468 125.505 219.502 127.348 225.285 130.846 230.235 134.216 234.999 138.921 238.622 144.39 240.718 144.508 240.75 144.614 240.766 144.721 240.766 145.026 240.766 145.282 240.633 145.474 240.398 145.597 240.211 145.597 239.955 145.597 239.827L145.597 223.311C145.597 222.804 145.218 222.361 144.646 222.361L137.015 222.361 137.015 215.629 144.646 215.629C145.154 215.629 145.597 215.181 145.597 214.674L145.597 213.468C145.597 205.53 153.165 198.541 161.811 198.541L165.822 198.541 165.822 205.274 161.811 205.274C159.205 205.274 156.919 205.973 155.2 207.37 153.421 208.832 152.337 210.993 152.337 213.468L152.337 214.674C152.337 215.122 152.786 215.629 153.293 215.629L156.919 215.629C157.363 215.629 157.87 215.181 157.87 214.674 157.87 214.167 157.427 213.724 156.919 213.724L154.185 213.724 154.185 213.404C154.185 208.64 158.319 206.928 161.811 206.928L166.645 206.928C167.158 206.928 167.601 206.543 167.601 205.973L167.601 197.4C167.601 196.951 167.216 196.445 166.645 196.445L161.811 196.445C157.363 196.445 152.85 198.221 149.352 201.337 145.789 204.575 143.755 208.768 143.755 213.212L143.755 213.532 136.123 213.532C135.679 213.532 135.172 213.911 135.172 214.482L135.172 223.06C135.172 223.567 135.615 224.01 136.123 224.01L143.755 224.01 143.755 238.302C133.837 234.114 127.348 224.202 127.348 213.404 127.348 198.349 139.493 186.218 154.5 186.218 169.443 186.218 181.716 198.477 181.716 213.404 181.716 228.395 169.507 240.526 154.5 240.526L154.185 240.526 154.185 224.074 166.773 224.074C167.216 224.074 167.729 223.695 167.729 223.124L167.729 214.674C167.729 214.167 167.28 213.724 166.773 213.724L161.432 213.724C160.925 213.724 160.476 214.103 160.476 214.674 160.476 215.122 160.861 215.629 161.432 215.629L165.881 215.629 165.881 222.361 153.293 222.361C152.85 222.361 152.337 222.74 152.337 223.311L152.337 241.545C152.337 242.052 152.786 242.431 153.229 242.495L154.5 242.495C162.196 242.495 169.507 239.513 175.04 234.05 180.509 228.523 183.495 221.22 183.495 213.532 183.495 205.781 180.509 198.477 175.04 192.95 169.507 187.488 162.196 184.505 154.5 184.505Z" stroke="#005A35" stroke-linejoin="round" stroke-miterlimit="10" fill="#005A35" fill-rule="evenodd"/></g></svg>