<svg width="38" height="34" xmlns="http://www.w3.org/2000/svg" xmlns:xlink="http://www.w3.org/1999/xlink" overflow="hidden"><defs><clipPath id="clip0"><rect x="606" y="383" width="38" height="34"/></clipPath></defs><g clip-path="url(#clip0)" transform="translate(-606 -383)"><path d="M623.4 390.945 623.4 391.851C623.031 391.732 622.866 391.613 622.866 391.378 622.866 391.14 623.152 390.985 623.4 390.945ZM623.769 392.792C624.179 392.951 624.221 393.149 624.221 393.344 624.221 393.698 624.014 393.817 623.769 393.896L623.769 392.792ZM623.603 390C623.521 390 623.4 390.04 623.4 390.159L623.4 390.274C622.617 390.393 622.166 390.787 622.166 391.457 622.166 392.204 622.741 392.439 623.4 392.677L623.4 393.936C623.031 393.857 622.866 393.777 622.579 393.543 622.514 393.496 622.455 393.473 622.4 393.473 622.317 393.473 622.241 393.526 622.166 393.619 622.003 393.817 622.003 394.015 622.166 394.171 622.414 394.484 622.948 394.683 623.4 394.683L623.4 394.878C623.4 394.957 623.521 394.997 623.603 394.997 623.728 394.997 623.81 394.957 623.81 394.878L623.81 394.683C624.466 394.564 625 394.171 625 393.384 625 392.558 624.548 392.244 623.81 392.006L623.81 390.945C623.972 390.945 624.055 390.985 624.262 391.064 624.352 391.107 624.459 391.163 624.569 391.163 624.655 391.163 624.745 391.127 624.834 391.024 624.959 390.866 625 390.668 624.793 390.512 624.548 390.354 624.138 390.274 623.81 390.274L623.81 390.159C623.81 390.04 623.728 390 623.603 390Z" fill="#657E93" fill-rule="evenodd"/><path d="M631.502 386.105C633.366 386.105 634.895 387.634 634.895 389.502 634.895 391.37 633.409 392.895 631.502 392.895 629.634 392.895 628.105 391.37 628.105 389.502 628.105 387.634 629.634 386.105 631.502 386.105ZM631.502 385.004C628.996 385.004 627.004 386.996 627.004 389.502 627.004 392.004 628.996 394 631.502 394 634.004 394 636 392.004 636 389.502 636 386.996 634.004 385.004 631.502 385.004Z" fill="#657E93" fill-rule="evenodd"/><path d="M623.217 389.275C624.372 389.275 625.403 389.865 625.977 390.749 626.06 391.293 626.267 391.757 626.471 392.22 626.471 392.389 626.513 392.559 626.513 392.64 626.513 394.493 625.029 396.009 623.217 396.009 621.45 396.009 619.925 394.493 619.925 392.64 619.925 390.788 621.45 389.275 623.217 389.275ZM623.259 387.422C624.165 387.422 625.071 387.716 625.852 388.179 625.814 388.434 625.814 388.769 625.773 388.981 625.029 388.434 624.165 388.137 623.179 388.137 620.748 388.137 618.815 390.116 618.815 392.598 618.815 395.083 620.748 397.063 623.179 397.063 625.237 397.063 627.007 395.589 627.46 393.609L628.038 394.157C627.46 396.345 625.524 397.862 623.259 397.862 620.461 397.862 618.155 395.546 618.155 392.64 618.155 389.738 620.42 387.422 623.259 387.422ZM631.866 383.004C629.272 383.004 627.007 384.771 626.101 387.129 625.237 386.666 624.206 386.369 623.179 386.369 619.801 386.369 617.003 389.232 617.003 392.683 617.003 396.175 619.801 398.996 623.179 398.996 625.814 398.996 628.076 397.314 628.94 394.913 629.805 395.376 630.794 395.631 631.866 395.631 633.266 395.631 634.663 395.168 635.735 394.284 636.807 393.4 637.589 392.177 637.917 390.788 638 390.452 637.875 390.116 637.547 390.074 637.512 390.07 637.474 390.067 637.44 390.067 637.191 390.067 636.959 390.201 636.887 390.494 636.354 392.852 634.293 394.493 631.949 394.493 630.095 394.493 628.449 393.482 627.502 391.841 627.419 391.336 627.211 390.788 626.966 390.367 626.267 387.171 628.695 384.138 631.907 384.138 634.252 384.138 636.312 385.74 636.845 388.137 636.883 388.402 637.118 388.564 637.405 388.564 637.44 388.564 637.471 388.564 637.505 388.557 637.793 388.476 637.958 388.179 637.917 387.843 637.589 386.496 636.845 385.277 635.735 384.393 634.663 383.509 633.266 383.004 631.866 383.004Z" fill="#657E93" fill-rule="evenodd"/><path d="M631.353 387.993 631.353 388.905C631.017 388.785 630.846 388.669 630.846 388.429 630.846 388.193 631.098 388.033 631.353 387.993ZM631.732 389.898C632.154 390.055 632.196 390.254 632.196 390.454 632.196 390.771 631.983 390.887 631.732 391.007L631.732 389.898ZM631.562 387.003C631.481 387.003 631.353 387.043 631.353 387.12L631.353 387.28C630.553 387.4 630.089 387.796 630.089 388.469 630.089 389.262 630.719 389.462 631.353 389.698L631.353 390.967C630.974 390.887 630.846 390.771 630.51 390.571 630.443 390.528 630.383 390.508 630.326 390.508 630.131 390.508 630.004 390.734 630.004 390.887 630.004 391.007 630.046 391.087 630.089 391.167 630.34 391.484 630.889 391.644 631.353 391.644L631.353 391.84C631.353 391.96 631.481 392 631.562 392 631.69 392 631.774 391.96 631.774 391.84L631.774 391.644C632.49 391.564 632.996 391.167 632.996 390.374 632.996 389.618 632.447 389.302 631.774 389.065L631.774 387.993C632.068 387.993 632.154 388.033 632.409 388.193 632.458 388.206 632.511 388.213 632.561 388.213 632.671 388.213 632.77 388.169 632.83 388.033 632.954 387.876 632.996 387.676 632.787 387.516 632.532 387.32 632.111 387.28 631.774 387.28L631.774 387.12C631.774 387.043 631.69 387.003 631.562 387.003Z" fill="#657E93" fill-rule="evenodd"/><path d="M618.433 401.194C618.489 401.194 618.532 401.238 618.532 401.328 618.765 401.925 622.011 410.671 622.166 410.948 622.205 410.988 622.166 411.108 622.047 411.108L619.743 411.983C619.625 411.546 616.342 402.68 616.109 402.122L618.374 401.208C618.394 401.197 618.414 401.194 618.433 401.194ZM615.131 402.44 618.765 412.34C617.084 413.055 612.708 414.724 611.967 415.045 611.947 415.052 611.924 415.058 611.901 415.058 611.819 415.058 611.72 415.005 611.691 414.885L608.175 405.381C608.136 405.305 608.175 405.144 608.329 405.104 610.519 404.229 613.608 403.037 615.131 402.44ZM640.023 395C639.228 395 638.457 395.417 637.879 395.962L632.368 400.613C632.053 399.935 631.39 399.221 630.178 399.221 628.888 399.221 627.88 399.214 627.073 399.214 624.65 399.214 624.043 399.261 623.104 399.618L619.585 401.127 619.546 400.97C619.362 400.5 618.939 400.179 618.459 400.179 618.328 400.179 618.197 400.202 618.062 400.256L615.403 401.248C614.232 401.725 610.558 403.117 607.978 404.109 607.354 404.35 607.003 405.104 607.236 405.742L610.755 415.162C610.936 415.689 611.425 415.997 611.927 415.997 612.072 415.997 612.216 415.973 612.357 415.92 613.138 415.639 618.492 413.572 619.664 413.135L622.441 412.103C623.026 411.863 623.377 411.188 623.144 410.55L623.065 410.434C624.903 409.636 624.943 409.559 626.856 409.559 627.129 409.559 627.365 409.318 627.365 409.001 627.365 408.724 627.129 408.443 626.856 408.443 624.785 408.443 624.588 408.604 622.753 409.398L620.015 402.002 623.534 400.493C624.237 400.246 624.736 400.206 626.659 400.206 627.516 400.206 628.655 400.216 630.218 400.216 630.766 400.216 631.156 400.413 631.39 400.81 631.547 401.127 631.586 401.408 631.626 401.448 631.626 401.645 631.468 402.6 630.569 402.8 629.125 403.037 626.114 403.475 626.075 403.475 625.763 403.555 625.566 403.792 625.606 404.109 625.684 404.35 625.878 404.547 626.114 404.547L626.193 404.547C626.269 404.547 629.279 404.109 630.766 403.832 632.053 403.595 632.561 402.48 632.64 401.765L638.621 396.716C638.995 396.386 639.481 396.038 640.016 396.038 640.321 396.038 640.64 396.149 640.965 396.439 641.943 397.431 641.044 398.583 640.807 398.823 640.574 399.06 633.303 407.051 633.303 407.051 632.21 408.323 630.802 408.524 630.218 408.564L629.279 408.564C629.006 408.564 628.731 408.801 628.731 409.121 628.731 409.398 629.006 409.636 629.279 409.636L630.296 409.636C630.999 409.595 632.798 409.358 634.127 407.809L641.631 399.578C642.215 398.743 642.997 397.074 641.631 395.681 641.122 395.197 640.568 395 640.023 395Z" fill="#657E93" fill-rule="evenodd"/></g></svg>