<svg width="60" height="60" xmlns="http://www.w3.org/2000/svg" xmlns:xlink="http://www.w3.org/1999/xlink" overflow="hidden"><defs><clipPath id="clip0"><rect x="559" y="183" width="60" height="60"/></clipPath></defs><g clip-path="url(#clip0)" transform="translate(-559 -183)"><path d="M589.404 186.284C604.395 186.284 616.59 198.429 616.59 213.5 616.59 228.507 604.395 240.652 589.404 240.652 574.413 240.652 562.282 228.507 562.282 213.5 562.282 198.429 574.413 186.284 589.404 186.284ZM589.468 184.505C581.781 184.505 574.477 187.491 569.014 192.96 563.552 198.493 560.505 205.804 560.505 213.5 560.505 221.196 563.552 228.507 569.014 233.976 574.477 239.509 581.781 242.495 589.468 242.495 597.22 242.495 604.523 239.509 609.986 233.976 615.449 228.507 618.495 221.196 618.495 213.5 618.495 205.804 615.449 198.493 609.986 192.96 604.523 187.491 597.22 184.505 589.468 184.505Z" stroke="#005A35" stroke-linejoin="round" stroke-miterlimit="10" fill="#005A35" fill-rule="evenodd"/><path d="M599.895 197.342C603.061 197.342 605.659 199.939 605.659 203.106L605.659 223.894C605.659 227.061 603.061 229.659 599.895 229.659L579.106 229.659C575.939 229.659 573.342 227.061 573.342 223.894L573.342 203.106C573.342 199.939 575.939 197.342 579.106 197.342ZM579.106 195.505C574.928 195.505 571.505 198.928 571.505 203.106L571.505 223.894C571.505 228.072 574.928 231.495 579.106 231.495L599.895 231.495C604.078 231.495 607.495 228.072 607.495 223.894L607.495 203.106C607.495 198.928 604.078 195.505 599.895 195.505Z" stroke="#005A35" stroke-linejoin="round" stroke-miterlimit="10" fill="#005A35" fill-rule="evenodd"/><path d="M589.098 204.5C583.777 204.5 579.505 209.065 579.811 214.472 580 219.391 583.888 223.285 588.592 223.479 588.792 223.495 588.992 223.5 589.192 223.5 590.973 223.5 592.637 222.99 594.049 222.073 594.549 221.757 594.613 221.054 594.233 220.668 594.044 220.475 593.78 220.4 593.533 220.4 593.375 220.4 593.227 220.426 593.106 220.48 592.037 221.108 590.82 221.585 589.493 221.585 589.34 221.585 589.187 221.574 589.029 221.564 584.889 221.499 581.502 217.986 581.565 213.705 581.744 209.585 584.915 206.27 588.94 206.27 589.155 206.27 589.371 206.281 589.593 206.297 593.296 206.49 596.304 209.558 596.62 213.26 596.804 214.794 596.43 216.264 595.803 217.54 595.613 217.857 595.613 218.307 595.93 218.624 596.088 218.785 596.309 218.865 596.535 218.865 596.857 218.865 597.188 218.704 597.373 218.372 598.126 216.966 598.5 215.304 598.374 213.453 598.126 208.598 594.233 204.768 589.529 204.511 589.387 204.505 589.24 204.5 589.098 204.5Z" stroke="#005A35" stroke-linejoin="round" stroke-miterlimit="10" fill="#005A35" fill-rule="evenodd"/><path d="M599.003 200.505C597.593 200.505 596.5 201.606 596.5 202.967 596.5 204.394 597.593 205.5 599.003 205.5 600.348 205.5 601.5 204.394 601.5 202.967 601.5 201.606 600.348 200.505 599.003 200.505Z" stroke="#005A35" stroke-linejoin="round" stroke-miterlimit="10" fill="#005A35" fill-rule="evenodd"/></g></svg>