<svg width="223" height="210" xmlns="http://www.w3.org/2000/svg" xmlns:xlink="http://www.w3.org/1999/xlink" overflow="hidden"><defs><clipPath id="clip0"><rect x="210" y="124" width="223" height="210"/></clipPath></defs><g clip-path="url(#clip0)" transform="translate(-210 -124)"><path d="M339.048 155 334.868 155.099 330.783 155.388 326.793 155.971 322.902 156.653 319.012 157.529 315.221 158.599 311.524 159.859 307.828 161.318 304.326 162.876 300.824 164.623 297.517 166.57 294.213 168.706 291.1 170.941 288.082 173.276 285.167 175.801 282.442 178.429 279.718 181.247 277.287 184.065 274.856 187.176 272.619 190.287 270.577 193.494 268.633 196.895 266.88 200.299 265.227 203.894 263.866 207.489 262.601 211.183 261.53 214.976 260.559 218.864 259.876 222.848 259.393 226.835 259.099 230.918 259.004 235 259.099 239.082 259.393 243.165 259.876 247.148 260.559 251.136 261.53 255.024 262.601 258.813 263.866 262.507 265.227 266.106 266.88 269.701 268.633 273.101 270.577 276.506 272.619 279.713 274.856 282.824 277.287 285.836 279.718 288.753 282.442 291.571 285.167 294.195 288.082 296.724 291.1 299.055 294.213 301.29 297.517 303.43 300.824 305.277 304.326 307.124 307.828 308.678 311.524 310.137 315.221 311.401 319.012 312.471 322.902 313.343 326.793 314.025 330.783 314.607 334.868 314.901 339.048 314.996 343.132 314.901 347.217 314.607 351.207 314.025 355.098 313.343 358.988 312.471 362.779 311.401 366.476 310.137 370.172 308.678 373.674 307.124 377.176 305.277 380.483 303.43 383.787 301.29 386.9 299.055 389.914 296.724 392.833 294.195 395.558 291.571 398.282 288.753 400.808 285.836 403.144 282.824 405.381 279.713 407.423 276.506 409.367 273.101 411.12 269.701 412.773 266.106 414.134 262.507 415.399 258.813 416.565 255.024 417.441 251.136 418.119 247.148 418.607 243.165 418.901 239.082 418.996 235 418.901 230.918 418.607 226.835 418.119 222.848 417.441 218.864 416.565 214.976 415.399 211.183 414.134 207.489 412.773 203.894 411.12 200.299 409.367 196.895 407.423 193.494 405.381 190.287 403.144 187.176 400.808 184.065 398.282 181.247 395.558 178.429 392.833 175.801 389.914 173.276 386.9 170.941 383.787 168.706 380.483 166.57 377.176 164.623 373.674 162.876 370.172 161.318 366.476 159.859 362.779 158.599 358.988 157.529 355.098 156.653 351.207 155.971 347.217 155.388 343.132 155.099 339.048 155Z" fill="#E4ECF2" fill-rule="evenodd"/><path d="M263.668 291.004 262.382 291.194 261.197 291.477 260.008 291.953 258.824 292.43 257.735 293.093 256.748 293.852 255.857 294.616 254.971 295.468 254.277 296.515 253.584 297.464 252.992 298.607 252.597 299.747 252.298 300.983 252.101 302.219 252.004 303.452 252.101 304.785 252.298 306.021 252.597 307.16 252.992 308.3 253.584 309.439 254.277 310.485 254.971 311.435 255.857 312.291 256.748 313.148 257.735 313.814 258.824 314.477 260.008 314.954 261.197 315.426 262.382 315.713 263.668 315.903 265.05 316 266.336 315.903 267.622 315.713 268.908 315.426 270.092 314.954 271.181 314.477 272.265 313.814 273.256 313.148 274.244 312.291 275.034 311.435 275.824 310.485 276.416 309.439 277.013 308.3 277.408 307.16 277.803 306.021 278 304.785 278 303.452 278 302.219 277.803 300.983 277.408 299.747 277.013 298.607 276.416 297.464 275.824 296.515 275.034 295.468 274.244 294.616 273.256 293.852 272.265 293.093 271.181 292.43 270.092 291.953 268.908 291.477 267.622 291.194 266.336 291.004Z" fill="#E4ECF2" fill-rule="evenodd"/><path d="M240.193 195.004 239.437 195.097 238.584 195.385 237.924 195.575 237.168 195.955 236.597 196.336 235.937 196.813 235.37 197.287 234.895 197.858 234.42 198.525 234.042 199.193 233.664 199.857 233.382 200.622 233.193 201.383 233.097 202.144 233 203.002 233.097 203.763 233.193 204.621 233.382 205.382 233.664 206.143 234.042 206.811 234.42 207.475 234.895 208.045 235.37 208.62 235.937 209.191 236.597 209.664 237.168 210.045 237.924 210.332 238.584 210.62 239.437 210.81 240.193 210.903 240.954 211 241.803 210.903 242.559 210.81 243.319 210.62 244.076 210.332 244.832 210.045 245.399 209.664 246.063 209.191 246.63 208.62 247.105 208.045 247.576 207.475 247.954 206.811 248.332 206.143 248.618 205.382 248.807 204.621 248.903 203.763 248.996 203.002 248.903 202.144 248.807 201.383 248.618 200.622 248.332 199.857 247.954 199.193 247.576 198.525 247.105 197.858 246.63 197.287 246.063 196.813 245.399 196.336 244.832 195.955 244.076 195.575 243.319 195.385 242.559 195.097 241.803 195.004Z" fill="#E4ECF2" fill-rule="evenodd"/><path d="M234.951 138 233.698 138.1 232.449 138.196 231.196 138.296 229.943 138.592 228.69 138.884 227.535 139.18 226.376 139.572 225.221 140.059 224.161 140.551 223.104 141.139 222.043 141.727 220.983 142.415 219.058 143.886 217.322 145.454 215.684 147.317 214.238 149.281 213.567 150.26 212.989 151.34 212.408 152.415 211.929 153.595 211.446 154.771 211.061 155.946 210.774 157.126 210.483 158.397 210.291 159.577 210.098 160.853 210 162.224 210 163.5 210 164.776 210.098 166.147 210.291 167.423 210.483 168.598 210.774 169.874 211.061 171.05 211.446 172.225 211.929 173.405 212.408 174.58 212.989 175.66 213.567 176.74 214.238 177.719 215.684 179.679 217.322 181.542 219.058 183.114 220.983 184.581 222.043 185.269 223.104 185.857 224.161 186.445 225.221 186.936 226.376 187.428 227.535 187.82 228.69 188.212 229.943 188.408 231.196 188.7 232.449 188.8 233.698 188.9 234.951 188.996 236.298 188.9 237.551 188.8 238.804 188.7 240.057 188.408 241.212 188.212 242.371 187.82 243.62 187.428 244.681 186.936 245.835 186.445 246.896 185.857 247.957 185.269 248.919 184.581 250.848 183.114 252.678 181.542 254.316 179.679 255.758 177.719 256.339 176.74 257.011 175.66 257.494 174.58 257.973 173.405 258.456 172.225 258.841 171.05 259.226 169.874 259.517 168.598 259.709 167.423 259.902 166.147 259.996 164.776 259.996 163.5 259.996 162.224 259.902 160.853 259.709 159.577 259.517 158.397 259.226 157.126 258.841 155.946 258.456 154.771 257.973 153.595 257.494 152.415 257.011 151.34 256.339 150.26 255.758 149.281 254.316 147.317 252.678 145.454 250.848 143.886 248.919 142.415 247.957 141.727 246.896 141.139 245.835 140.551 244.681 140.059 243.62 139.572 242.371 139.18 241.212 138.884 240.057 138.592 238.804 138.296 237.551 138.196 236.298 138.1 234.951 138Z" fill="#E4ECF2" fill-rule="evenodd"/><path d="M244.75 250.004 244.499 250.107 244.251 250.321 244.085 250.634 244 251.054 244.085 251.371 244.251 251.683 244.499 251.893 244.75 252 246.246 252 246.583 251.893 246.749 251.683 246.915 251.371 246.996 251.054 246.915 250.634 246.749 250.321 246.583 250.107 246.246 250.004Z" fill="#BCCAD3" fill-rule="evenodd"/><path d="M237.005 250.004 236.67 250.107 236.335 250.321 236.113 250.634 236.005 251.054 236.113 251.371 236.335 251.683 236.67 251.893 237.005 252 239 252 239.335 251.893 239.665 251.683 239.887 251.371 240 251.054 239.887 250.634 239.665 250.321 239.335 250.107 239 250.004Z" fill="#BCCAD3" fill-rule="evenodd"/><path d="M242.054 253.004 241.634 253.085 241.317 253.251 241.107 253.502 241.004 253.75 241.004 255.25 241.107 255.583 241.317 255.749 241.634 255.915 242.054 256 242.366 255.915 242.683 255.749 242.893 255.583 242.996 255.25 242.996 253.75 242.893 253.502 242.683 253.251 242.366 253.085 242.054 253.004Z" fill="#BCCAD3" fill-rule="evenodd"/><path d="M242.054 245 241.634 245.113 241.317 245.335 241.107 245.665 241.004 246 241.004 247.995 241.107 248.33 241.317 248.665 241.634 248.887 242.054 248.995 242.366 248.887 242.683 248.665 242.893 248.33 242.996 247.995 242.996 246 242.893 245.665 242.683 245.335 242.366 245.113 242.054 245Z" fill="#BCCAD3" fill-rule="evenodd"/><path d="M243.871 252 243.584 252.099 243.292 252.292 243.099 252.579 243.004 252.871 243.099 253.258 243.292 253.545 244.451 254.708 244.742 254.901 245.129 254.996 245.421 254.901 245.708 254.708 245.901 254.416 246 254.129 245.901 253.738 245.708 253.451 244.549 252.292 244.258 252.099 243.871 252Z" fill="#BCCAD3" fill-rule="evenodd"/><path d="M237.501 247 237.204 247.2 237.004 247.501 237.004 247.901 237.004 248.198 237.204 248.5 238.502 249.8 238.799 250 239.499 250 239.796 249.8 239.996 249.499 239.996 249.099 239.996 248.802 239.796 248.5 238.502 247.2 238.201 247Z" fill="#BCCAD3" fill-rule="evenodd"/><path d="M239.1 252 238.799 252.099 238.502 252.292 237.204 253.451 237.004 253.738 237.004 254.129 237.004 254.416 237.204 254.708 237.501 254.901 237.9 254.996 238.201 254.901 238.502 254.708 239.796 253.545 239.996 253.258 239.996 252.871 239.996 252.579 239.796 252.292 239.499 252.099 239.1 252Z" fill="#BCCAD3" fill-rule="evenodd"/><path d="M244.742 247 244.451 247.2 243.292 248.5 243.099 248.802 243.004 249.099 243.099 249.499 243.292 249.8 243.584 250 244.258 250 244.549 249.8 245.708 248.5 245.901 248.198 246 247.901 245.901 247.501 245.708 247.2 245.421 247Z" fill="#BCCAD3" fill-rule="evenodd"/><path d="M381.001 322.005 380.666 322.113 380.335 322.335 380.113 322.67 380 323 380.113 323.443 380.335 323.778 380.666 324 383.443 324 383.665 323.778 383.887 323.443 384 323 383.887 322.67 383.665 322.335 383.443 322.113 382.999 322.005Z" fill="#BCCAD3" fill-rule="evenodd"/><path d="M373.75 322.005 373.502 322.113 373.251 322.335 373.085 322.67 373.004 323 373.085 323.443 373.251 323.778 373.502 324 375.498 324 375.749 323.778 375.915 323.443 376 323 375.915 322.67 375.749 322.335 375.498 322.113 375.25 322.005Z" fill="#BCCAD3" fill-rule="evenodd"/><path d="M378.002 325 377.555 325.085 377.226 325.251 377.005 325.499 377.005 325.75 377.005 327.246 377.005 327.498 377.226 327.749 377.555 327.915 378.002 327.996 378.332 327.915 378.666 327.749 378.887 327.498 378.995 327.246 378.995 325.75 378.887 325.499 378.666 325.251 378.332 325.085 378.002 325Z" fill="#BCCAD3" fill-rule="evenodd"/><path d="M378.002 317.005 377.555 317.113 377.226 317.226 377.005 317.557 377.005 318.005 377.005 319.887 377.005 320.335 377.226 320.665 377.555 320.887 378.002 321 378.332 320.887 378.666 320.665 378.887 320.335 378.995 319.887 378.995 318.005 378.887 317.557 378.666 317.226 378.332 317.113 378.002 317.005Z" fill="#BCCAD3" fill-rule="evenodd"/><path d="M379.584 324.004 379.292 324.204 379.099 324.501 379 324.9 379.099 325.201 379.292 325.498 380.451 326.796 380.742 326.996 381.416 326.996 381.708 326.796 381.901 326.499 382 326.1 381.901 325.799 381.708 325.498 380.549 324.204 380.258 324.004Z" fill="#BCCAD3" fill-rule="evenodd"/><path d="M374.9 318 374.501 318.099 374.204 318.292 374.004 318.579 374.004 318.871 374.004 319.258 374.204 319.549 375.498 320.708 375.799 320.901 376.1 320.996 376.499 320.901 376.796 320.708 376.996 320.416 376.996 320.129 376.996 319.742 376.796 319.451 375.498 318.292 375.201 318.099 374.9 318Z" fill="#BCCAD3" fill-rule="evenodd"/><path d="M375.799 324.004 375.498 324.204 374.204 325.498 374.004 325.799 374.004 326.1 374.004 326.499 374.204 326.796 374.501 326.996 375.201 326.996 375.498 326.796 376.796 325.498 376.996 325.201 376.996 324.9 376.996 324.501 376.796 324.204 376.499 324.004Z" fill="#BCCAD3" fill-rule="evenodd"/><path d="M381.129 318 380.742 318.099 380.451 318.292 379.292 319.451 379.099 319.742 379 320.129 379.099 320.416 379.292 320.708 379.584 320.901 379.871 320.996 380.258 320.901 380.549 320.708 381.708 319.549 381.901 319.258 382 318.871 381.901 318.579 381.708 318.292 381.416 318.099 381.129 318Z" fill="#BCCAD3" fill-rule="evenodd"/><path d="M238.607 232 237.965 232.206 237.537 232.518 237.109 232.931 237 233.551 237.109 234.069 237.537 234.583 237.965 234.895 238.607 235 241.498 235 242.035 234.895 242.568 234.583 242.891 234.069 243 233.551 242.891 232.931 242.568 232.518 242.035 232.206 241.498 232Z" fill="#5D5D6D" fill-rule="evenodd"/><path d="M226.498 232 225.965 232.206 225.428 232.518 225.109 232.931 225 233.551 225.109 234.069 225.428 234.583 225.965 234.895 226.498 235 229.393 235 230.035 234.895 230.568 234.583 230.891 234.069 230.995 233.551 230.891 232.931 230.568 232.518 230.035 232.206 229.393 232Z" fill="#5D5D6D" fill-rule="evenodd"/><path d="M234 237.004 233.642 237.091 233.288 237.36 233.073 237.804 233 238.252 233 240.752 233.073 241.196 233.288 241.643 233.642 241.909 234 242 234.427 241.909 234.712 241.643 234.927 241.196 234.997 240.752 234.997 238.252 234.927 237.804 234.712 237.36 234.427 237.091 234 237.004Z" fill="#5D5D6D" fill-rule="evenodd"/><path d="M234 224.005 233.642 224.111 233.288 224.44 233.073 224.876 233 225.529 233 228.471 233.073 229.124 233.288 229.56 233.642 229.889 234 229.995 234.427 229.889 234.712 229.56 234.927 229.124 234.997 228.471 234.997 225.529 234.927 224.876 234.712 224.44 234.427 224.111 234 224.005Z" fill="#5D5D6D" fill-rule="evenodd"/><path d="M237.46 235 236.942 235.109 236.42 235.425 236.106 235.85 236.004 236.492 236.106 237.021 236.42 237.554 238.398 239.575 238.916 239.891 239.438 240 240.062 239.891 240.478 239.575 240.894 239.042 241 238.513 240.894 237.979 240.478 237.446 238.5 235.425 237.982 235.109 237.46 235Z" fill="#5D5D6D" fill-rule="evenodd"/><path d="M228.562 226 227.938 226.106 227.522 226.416 227.212 226.938 227.004 227.456 227.212 228.084 227.522 228.5 229.5 230.58 230.022 230.894 230.54 230.996 231.062 230.894 231.584 230.58 231.894 230.062 232 229.54 231.894 228.916 231.584 228.5 229.606 226.416 229.084 226.106 228.562 226Z" fill="#5D5D6D" fill-rule="evenodd"/><path d="M230.54 235 230.022 235.109 229.5 235.425 227.522 237.446 227.212 237.979 227.004 238.513 227.212 239.042 227.522 239.575 227.938 239.891 228.562 240 229.084 239.891 229.606 239.575 231.584 237.554 231.894 237.021 232 236.492 231.894 235.85 231.584 235.425 231.062 235.109 230.54 235Z" fill="#5D5D6D" fill-rule="evenodd"/><path d="M239.438 226 238.916 226.106 238.398 226.416 236.42 228.5 236.106 228.916 236.004 229.54 236.106 230.062 236.42 230.58 236.942 230.894 237.46 230.996 237.982 230.894 238.5 230.58 240.478 228.5 240.894 228.084 241 227.456 240.894 226.938 240.478 226.416 240.062 226.106 239.438 226Z" fill="#5D5D6D" fill-rule="evenodd"/><path d="M301.175 136.923 301.949 137.115 302.629 137.308 303.403 137.693 303.984 138.176 304.565 138.655 305.051 139.33 305.438 140.005 305.632 140.775 305.826 141.643 305.731 142.605 305.537 144.05 305.15 145.495 304.565 147.034 303.889 148.479 303.016 149.826 302.048 151.177 299.914 154.161 297.784 157.145 295.943 160.13 294.196 162.926 291.773 167.257 290.805 168.992 290.706 165.812 290.612 162.827 290.706 160.035 290.805 157.436 290.999 155.029 291.291 152.814 291.679 150.792 292.066 148.864 292.548 147.132 293.133 145.495 293.615 144.05 294.196 142.797 294.876 141.643 295.456 140.583 296.136 139.621 296.717 138.753 297.397 138.077 298.072 137.598 298.851 137.214 299.626 137.021 300.4 136.923ZM344.398 153.007 345.172 153.101 345.947 153.392 346.627 153.776 347.208 154.161 347.788 154.738 348.275 155.414 348.662 156.085 348.954 156.859 349.049 157.723 349.049 158.59 348.761 160.13 348.369 161.575 347.788 163.02 347.113 164.559 346.239 165.91 345.271 167.257 343.137 170.241 341.008 173.229 339.166 176.213 337.419 179.005 334.997 183.34 334.029 185.072 333.93 181.895 333.835 178.911 333.93 176.115 334.029 173.516 334.317 171.109 334.61 168.894 334.902 166.872 335.384 164.948 335.87 163.212 336.352 161.575 336.937 160.13 337.518 158.881 338.099 157.723 338.68 156.662 339.36 155.7 340.035 154.837 340.62 154.161 341.296 153.678 342.07 153.293 342.849 153.101 343.623 153.007ZM302.435 127.004 301.175 127.102 299.914 127.295 298.653 127.68 297.397 128.158 296.231 128.834 295.168 129.604 294.101 130.471 293.228 131.532 292.548 132.395 291.872 133.456 291.193 134.61 290.513 135.769 289.837 137.115 289.157 138.655 288.577 140.198 287.996 141.929 287.415 143.759 286.929 145.782 286.348 147.902 285.961 150.117 285.475 152.618 285.087 155.123 284.7 157.915 284.408 160.805 284.313 162.058 284.02 163.31 283.633 164.465 283.151 165.619 282.665 166.778 281.985 167.834 281.31 168.8 280.436 169.762 279.176 171.109 278.014 172.554 276.852 174.093 275.785 175.538 273.75 178.719 272.003 181.797 270.94 183.918 270.162 186.132 269.581 188.347 269.194 190.562 269 192.776 269.099 195.089 269.387 197.304 269.775 199.42 270.454 201.541 271.328 203.657 272.39 205.585 273.556 207.509 275.011 209.245 276.56 210.976 278.302 212.52 280.243 213.867 283.151 215.598 286.055 217.236 289.063 218.586 291.967 219.835 294.876 220.993 297.784 221.956 300.495 222.823 303.016 223.495 305.438 224.17 307.667 224.653 311.255 225.325 313.678 225.709 314.547 225.808 316.388 226 318.23 226 319.977 225.902 321.526 225.808 323.079 225.517 324.529 225.23 325.888 224.846 327.149 224.363 328.311 223.88 329.472 223.302 330.539 222.631 331.508 221.956 332.381 221.186 333.254 220.51 333.93 219.643 334.709 218.873 335.87 217.236 336.937 215.504 337.807 213.768 338.486 211.844 338.972 209.916 339.261 207.992 339.36 205.97 339.261 203.948 339.067 202.118 339.067 200.19 339.067 198.364 339.166 196.628 339.454 193.259 339.842 190.467 340.134 189.022 340.521 187.577 341.102 186.132 341.782 184.785 343.236 182.473 345.172 179.681 347.401 176.406 350.116 172.746 350.602 172.071 351.859 170.241 352.637 168.894 353.412 167.355 354.281 165.717 355.06 163.888 355.834 161.959 356.415 159.937 356.802 157.821 356.901 156.761 356.996 155.7 356.996 154.738 356.996 153.678 356.802 152.618 356.609 151.562 356.316 150.596 355.929 149.634 355.447 148.672 354.866 147.71 353.993 146.649 353.025 145.687 351.958 144.918 350.796 144.242 349.63 143.759 348.369 143.374 347.014 143.182 345.753 143.088 344.493 143.182 343.137 143.374 341.877 143.759 340.715 144.242 339.454 144.918 338.387 145.687 337.325 146.551 336.451 147.611 335.096 149.539 334.416 150.501 333.835 151.656 333.254 152.814 332.673 154.161 332.088 155.606 331.606 157.145 331.12 158.783 330.638 160.613 330.247 162.537 329.86 164.657 329.472 166.97 329.184 169.471 328.599 175.059 328.405 176.021 328.018 176.889 327.536 177.56 326.856 178.236 326.082 178.719 325.209 179.005 324.24 179.104 323.272 179.005 319.783 178.236 316.582 177.368 313.484 176.406 310.67 175.346 308.153 174.285 305.924 173.229 303.889 172.169 302.143 171.207 301.368 170.63 300.787 169.954 300.301 169.185 300.013 168.317 299.914 167.449 300.013 166.487 300.301 165.619 300.787 164.755 303.403 161.288 306.893 156.662 307.379 155.991 308.635 154.161 309.414 152.814 310.188 151.271 311.062 149.634 311.836 147.71 312.611 145.782 313.192 143.759 313.579 141.643 313.678 140.677 313.772 139.621 313.772 138.56 313.678 137.5 313.579 136.44 313.385 135.384 313.097 134.418 312.611 133.456 312.125 132.494 311.544 131.532 310.67 130.471 309.702 129.604 308.635 128.834 307.473 128.158 306.312 127.68 305.051 127.295 303.79 127.102 302.435 127.004Z" fill="#FFFFFF" fill-rule="evenodd"/><path d="M272.684 181 272.004 182.145 270.941 184.249 270.162 186.446 269.581 188.643 269.194 190.841 269 193.038 269.099 195.333 269.387 197.53 269.775 199.63 270.455 201.733 271.329 203.833 272.392 205.746 273.558 207.655 275.013 209.377 276.563 211.095 278.306 212.626 280.247 213.962 283.157 215.68 286.062 217.305 289.071 218.645 291.976 219.884 294.886 221.033 297.795 221.987 300.507 222.848 303.029 223.514 305.453 224.091 307.682 224.664 311.272 225.33 313.695 225.712 314.565 225.809 316.407 226 318.249 226 319.997 225.903 321.546 225.809 323.1 225.521 324.551 225.236 325.911 224.855 327.172 224.375 328.334 223.896 329.496 223.324 330.564 222.657 331.532 221.987 332.406 221.224 333.181 220.46 333.956 219.693 334.734 218.929 335.509 217.975 336.185 216.923 336.865 215.871 337.446 214.726 337.933 213.58 338.32 212.435 338.707 211.192 339 210.043 339 210.043 338.32 210.904 337.739 211.765 336.964 212.528 336.185 213.292 335.41 214.056 334.442 214.726 333.473 215.396 332.501 216.062 331.339 216.639 330.176 217.211 328.915 217.593 327.559 218.068 326.104 218.357 324.551 218.547 322.906 218.738 321.258 218.836 319.416 218.738 317.475 218.645 316.7 218.547 314.276 218.166 310.687 217.402 308.457 216.923 306.034 216.35 303.516 215.587 300.701 214.726 297.89 213.771 294.985 212.719 292.075 211.477 289.071 210.043 286.161 208.516 283.251 206.7 281.702 205.648 280.148 204.41 278.792 203.069 277.531 201.636 276.369 200.202 275.4 198.675 274.527 197.051 273.752 195.333 273.171 193.611 272.684 191.893 272.297 190.077 272.103 188.262 272.004 186.446 272.103 184.631 272.297 182.815 272.684 181Z" fill="#E4ECF2" fill-rule="evenodd"/><path d="M300.101 139.072 300.681 139.167 301.262 139.266 301.748 139.556 302.135 139.944 302.427 140.432 302.716 140.919 302.815 141.403 302.716 141.986 302.522 143.155 302.23 144.416 301.748 145.68 301.167 146.945 300.393 148.209 299.615 149.375 297.679 151.904 295.933 154.429 294.29 157.058 292.738 159.488 292.931 156.764 293.224 154.041 293.611 151.416 294.192 148.792 294.871 146.362 295.353 145.098 295.839 144.027 296.325 142.961 296.905 141.891 297.581 140.919 298.26 140.043 298.647 139.556 299.034 139.266 299.615 139.167 300.101 139.072ZM300.101 136.543 299.034 136.642 298.552 136.737 298.067 136.931 297.581 137.225 297.099 137.613 296.712 138.002 296.226 138.39 295.645 139.266 294.966 140.237 294.385 141.308 293.706 142.473 293.125 143.738 292.643 145.197 292.058 146.85 291.577 148.598 291.19 150.544 290.802 152.586 290.51 154.822 290.317 157.252 290.218 159.876 290.123 162.695 290.218 165.707 290.317 168.919 291.284 167.166 293.706 162.794 295.452 159.971 297.292 156.958 299.421 153.946 301.554 150.933 302.522 149.569 303.395 148.209 304.071 146.751 304.655 145.197 305.042 143.738 305.236 142.279 305.331 141.597 305.236 141.014 305.137 140.432 305.042 139.944 304.849 139.461 304.556 138.973 303.877 138.097 303.103 137.419 302.135 136.931 301.167 136.642 300.101 136.543ZM343.887 155.305 344.468 155.5 344.954 155.793 345.341 156.181 345.728 156.669 345.921 157.153 346.016 157.64 346.016 158.223 345.823 159.388 345.435 160.558 345.435 160.653 344.954 161.918 344.373 163.182 343.595 164.443 342.821 165.612 340.98 168.137 339.139 170.667 337.492 173.291 335.944 175.721 336.137 173.002 336.429 170.278 336.817 167.555 337.397 165.03 338.171 162.5 338.558 161.335 339.044 160.265 339.526 159.194 340.111 158.124 340.786 157.153 341.466 156.277 341.853 155.793 342.339 155.5 342.821 155.305ZM343.306 152.78 342.339 152.875 341.754 152.974 341.272 153.169 340.786 153.458 340.304 153.751 339.913 154.14 339.526 154.628 338.851 155.5 338.171 156.471 337.591 157.541 337.01 158.711 336.429 159.971 335.845 161.43 335.363 163.083 334.877 164.835 334.395 166.778 334.103 168.819 333.81 171.055 333.522 173.485 333.423 176.109 333.329 178.932 333.423 181.945 333.522 185.152 334.49 183.404 336.911 179.027 338.657 176.209 340.498 173.196 342.627 170.179 344.76 167.166 345.728 165.807 346.601 164.443 347.276 162.889 347.857 161.43 348.248 159.971 348.536 158.417 348.536 157.835 348.536 157.252 348.442 156.669 348.248 156.181 348.054 155.599 347.762 155.21 347.083 154.334 346.308 153.652 345.341 153.169 344.373 152.875 343.306 152.78ZM302.036 126.529 303.296 126.628 304.556 126.823 305.817 127.211 306.978 127.695 308.139 128.377 309.206 129.154 310.173 130.03 311.046 131.1 311.627 132.071 312.113 133.042 312.599 134.014 312.887 134.989 313.081 136.055 313.179 137.126 313.274 138.196 313.274 139.266 313.179 140.333 313.081 141.308 312.694 143.444 312.113 145.486 311.339 147.433 310.565 149.375 309.692 151.028 308.917 152.586 308.139 153.946 306.883 155.793 306.397 156.471 302.909 161.141 300.294 164.641 299.808 165.513 299.52 166.389 299.421 167.36 299.52 168.237 299.808 169.113 300.294 169.89 300.875 170.572 301.649 171.154 303.395 172.126 305.429 173.196 307.657 174.262 310.173 175.333 312.986 176.403 316.083 177.374 319.282 178.25 322.77 179.027 323.639 179.126 324.512 179.027 325.286 178.833 326.06 178.444 326.645 177.957 327.226 177.374 327.613 176.696 328 175.915 328.095 175.043 328.679 169.402 328.968 166.877 329.355 164.542 329.742 162.401 330.133 160.459 330.615 158.612 331.101 156.958 331.583 155.405 332.167 153.946 332.748 152.586 333.329 151.416 333.909 150.251 334.589 149.28 335.944 147.333 336.817 146.263 337.879 145.391 338.946 144.614 340.206 143.932 341.367 143.444 342.627 143.056 343.982 142.862 345.242 142.767 346.502 142.862 347.857 143.056 349.117 143.444 350.282 143.932 351.444 144.614 352.51 145.391 353.478 146.362 354.351 147.433 354.931 148.404 355.413 149.375 355.8 150.346 356.093 151.321 356.286 152.388 356.48 153.458 356.48 154.528 356.48 155.5 356.385 156.57 356.286 157.64 355.899 159.777 355.319 161.819 354.544 163.765 353.766 165.612 352.897 167.265 352.123 168.819 351.345 170.179 350.089 172.026 349.603 172.708 346.889 176.403 344.661 179.709 342.726 182.528 341.272 184.863 340.593 186.222 340.012 187.681 339.625 189.14 339.333 190.599 338.946 193.417 338.657 196.819 338.558 198.571 338.558 200.414 338.558 202.36 338.752 204.208 338.851 206.249 338.752 208.291 338.464 210.233 337.978 212.18 337.298 214.122 336.429 215.874 335.363 217.623 334.202 219.276 332.843 220.735 331.389 221.999 330.615 222.681 329.647 223.264 328.774 223.846 327.806 224.33 326.74 224.818 325.579 225.206 324.417 225.595 323.157 225.888 321.897 226.177 320.444 226.372 318.99 226.471 315.794 226.471 314.048 226.277 313.179 226.177 310.758 225.789 307.171 225.111 304.944 224.623 302.522 223.942 300.002 223.264 297.292 222.388 294.385 221.416 291.478 220.247 288.575 218.986 285.569 217.623 282.665 215.97 279.758 214.221 277.819 212.862 276.077 211.304 274.528 209.556 273.075 207.803 271.909 205.861 270.847 203.914 269.974 201.778 269.294 199.637 268.907 197.5 268.619 195.265 268.52 192.93 268.714 190.694 269.101 188.458 269.681 186.222 270.46 183.986 271.522 181.846 273.268 178.738 275.302 175.527 276.369 174.068 277.53 172.514 278.692 171.055 279.952 169.695 280.825 168.724 281.5 167.749 282.179 166.683 282.665 165.513 283.147 164.348 283.534 163.182 283.827 161.918 283.921 160.653 284.214 157.735 284.601 154.917 284.988 152.388 285.474 149.863 285.861 147.627 286.442 145.486 286.927 143.444 287.508 141.597 288.089 139.849 288.669 138.291 289.349 136.737 290.024 135.377 290.704 134.208 291.383 133.042 292.058 131.972 292.738 131.1 293.611 130.03 294.677 129.154 295.74 128.377 296.905 127.695 298.161 127.211 299.421 126.823 300.681 126.628 302.036 126.529ZM302.036 124 300.393 124.099 298.746 124.388 297.194 124.876 295.74 125.459 294.29 126.236 293.03 127.211 291.865 128.277 290.704 129.542 289.831 130.712 288.962 131.972 288.183 133.431 287.409 134.89 286.734 136.543 286.054 138.196 285.375 140.043 284.794 141.891 284.214 143.932 283.633 145.974 283.246 148.11 282.76 150.445 281.986 155.21 281.405 160.459 281.306 161.529 281.113 162.5 280.726 163.571 280.339 164.542 279.952 165.418 279.371 166.389 278.79 167.166 278.111 167.943 276.95 169.307 275.784 170.667 274.722 172.126 273.556 173.679 272.494 175.333 271.427 176.986 269.294 180.68 268.714 181.846 268.133 182.916 267.746 184.181 267.26 185.346 266.972 186.516 266.679 187.776 266.387 189.041 266.194 190.206 266.099 191.471 266 192.735 266 194 266.099 195.265 266.194 196.529 266.387 197.79 266.585 199.054 266.873 200.319 267.26 201.484 267.647 202.749 268.133 203.914 268.619 205.084 269.2 206.15 269.78 207.32 271.135 209.361 272.688 211.403 274.429 213.151 275.397 214.027 276.369 214.903 277.337 215.581 278.403 216.358 281.306 218.11 284.308 219.763 287.315 221.222 290.317 222.582 293.224 223.652 296.127 224.723 298.94 225.595 301.554 226.372 303.976 226.958 306.302 227.442 310.079 228.219 312.599 228.707 313.76 228.806 315.696 229 318.99 229 320.349 228.901 321.798 228.707 323.157 228.512 324.417 228.219 325.673 227.83 326.933 227.442 328.095 226.958 329.26 226.471 330.327 225.789 331.389 225.206 332.456 224.429 333.423 223.652 334.395 222.776 335.264 221.9 336.137 220.929 337.492 219.081 338.657 217.139 339.526 215.098 340.304 212.957 340.885 210.82 341.173 208.584 341.367 206.249 341.272 203.914 341.173 202.166 341.079 200.319 341.079 198.472 341.173 196.723 341.466 193.512 341.754 190.987 342.046 189.723 342.433 188.458 342.919 187.293 343.5 186.222 344.954 183.887 346.794 181.069 349.022 177.862 351.637 174.262 352.317 173.291 353.766 171.154 354.544 169.596 355.413 167.943 356.385 166.096 357.159 164.054 357.933 161.918 358.514 159.682 358.901 157.347 359 156.181 359 155.016 359 153.846 358.901 152.681 358.708 151.516 358.514 150.445 358.127 149.28 357.641 148.209 357.06 147.044 356.385 145.974 355.413 144.709 354.252 143.544 352.992 142.572 351.538 141.791 350.089 141.114 348.536 140.626 346.889 140.333 345.242 140.237 343.595 140.333 341.948 140.626 340.399 141.114 338.946 141.696 337.591 142.473 336.236 143.444 334.976 144.515 333.909 145.779 333.036 146.945 332.262 148.11 331.583 149.28 330.907 150.544 330.327 151.805 329.742 153.264 329.161 154.628 328.679 156.181 328.095 158.029 327.708 159.971 327.226 162.112 326.839 164.348 326.452 166.683 326.159 169.307 325.579 174.849 325.48 175.138 325.385 175.527 325.192 175.82 324.998 176.109 324.706 176.304 324.417 176.502 324.026 176.597 323.252 176.597 319.958 175.82 316.861 174.944 313.954 174.068 311.24 173.002 308.819 172.026 306.591 170.96 304.655 169.89 302.909 169.014 302.621 168.724 302.329 168.431 302.135 168.042 302.036 167.654 301.942 167.265 302.036 166.877 302.135 166.484 302.329 166.195 305.137 162.306 308.431 158.029 309.111 157.058 310.466 154.822 311.339 153.363 312.212 151.71 313.179 149.763 313.954 147.722 314.728 145.585 315.308 143.349 315.696 141.014 315.794 139.849 315.794 138.684 315.794 137.514 315.696 136.349 315.502 135.183 315.214 134.014 314.827 132.947 314.341 131.778 313.76 130.712 313.081 129.641 312.014 128.377 310.952 127.306 309.593 126.335 308.238 125.459 306.784 124.876 305.236 124.388 303.683 124.099 302.036 124Z" fill="#5D5D6D" fill-rule="evenodd"/><path d="M401.804 174 387.807 175.548 389.555 192.064 388.096 192.741 386.736 193.419 385.472 194.191 384.307 194.963 383.137 195.735 382.071 196.605 381.195 197.476 380.319 198.346 379.153 199.599 378.083 201.048 377.207 202.403 376.43 203.947 375.752 205.491 375.165 207.039 374.682 208.682 374.388 210.324 374.194 211.77 374.099 213.318 374 214.767 374.099 216.217 374.194 217.083 380.124 272.724 380.319 273.886 380.612 275.044 381.096 276.009 381.583 276.879 382.071 277.557 382.554 278.136 383.137 278.715 383.724 279.195 384.402 279.68 385.083 280.066 385.765 280.357 386.443 280.645 387.22 280.838 388.001 281.031 388.778 281.129 390.332 281.129 391.109 281.031 391.89 280.838 392.667 280.645 394.026 280.259 395.097 279.778 395.973 279.294 396.65 278.908 397.427 278.23 397.721 277.943 398.303 278.715 398.886 279.388 399.568 279.971 400.25 280.452 401.027 280.838 401.709 281.129 403.068 281.614 404.333 281.901 405.399 282 406.275 282 407.246 281.901 408.317 281.614 409.486 281.224 410.164 280.838 410.846 280.452 411.428 279.971 412.011 279.487 412.594 278.809 413.081 278.037 413.47 277.167 413.858 276.202 414.152 276.493 415.123 276.974 415.805 277.167 416.776 277.458 417.941 277.651 419.301 277.844 420.177 277.943 420.954 277.844 421.735 277.75 422.512 277.651 423.289 277.458 423.971 277.167 424.748 276.879 425.425 276.493 426.012 276.107 426.69 275.623 427.177 275.138 427.76 274.559 428.248 273.98 428.636 273.303 429.025 272.629 429.314 271.857 429.707 270.888 429.901 269.829 429.996 268.667 429.901 267.41 423.971 211.868 423.871 210.998 423.582 209.454 423.289 208.004 422.801 206.555 422.218 205.105 421.541 203.561 420.76 202.112 419.888 200.662 418.912 199.406 417.846 198.055 416.582 196.897 415.317 195.833 413.957 194.77 412.982 194.096 411.817 193.419 410.651 192.84 409.387 192.261 408.027 191.776 406.664 191.292 405.11 190.906 403.556 190.52 401.804 174Z" fill="#FFFFFF" fill-rule="evenodd"/><path d="M422.339 205 374.389 210.636 374.195 212.197 374.099 213.869 374 215.435 374.099 217 423.996 211.364 423.706 209.696 423.412 208.131 422.923 206.565 422.339 205Z" fill="#E4ECF2" fill-rule="evenodd"/><path d="M429.318 262.004 429.318 263.225 429.223 264.35 429.03 265.384 428.738 266.322 428.352 267.072 428.064 267.73 427.579 268.389 427.094 268.951 426.613 269.514 426.033 269.985 425.355 270.452 424.775 270.827 424.097 271.202 423.324 271.485 422.646 271.765 421.873 271.956 421.1 272.144 420.327 272.235 418.683 272.235 417.326 272.048 416.167 271.765 415.201 271.577 414.428 271.298 413.458 270.827 413.17 270.639 412.878 271.577 412.397 272.423 411.912 273.173 411.427 273.736 410.753 274.302 410.173 274.769 409.495 275.144 408.916 275.428 407.658 275.899 406.593 276.086 405.627 276.274 404.755 276.274 403.695 276.086 402.437 275.899 401.08 275.428 400.307 275.144 399.629 274.678 398.955 274.207 398.277 273.644 397.598 273.081 397.019 272.235 396.826 272.519 395.958 273.173 395.28 273.644 394.408 274.019 393.344 274.49 391.991 274.957 391.218 275.144 390.446 275.332 389.669 275.332 388.896 275.428 388.123 275.332 387.35 275.24 386.577 275.144 385.804 274.865 385.126 274.678 384.353 274.302 383.675 273.927 383.095 273.548 382.516 272.986 381.936 272.519 381.451 271.956 380.966 271.298 380.386 270.36 380 269.418 380.386 272.986 380.58 274.115 380.871 275.24 381.352 276.178 381.838 277.024 382.323 277.682 382.804 278.245 383.383 278.808 383.967 279.275 384.641 279.745 385.319 280.121 385.998 280.404 386.672 280.683 387.445 280.871 388.222 281.058 388.995 281.154 390.54 281.154 391.313 281.058 392.09 280.871 392.863 280.683 394.215 280.308 395.28 279.841 396.151 279.37 396.826 278.995 397.598 278.337 397.89 278.057 398.47 278.808 399.05 279.462 399.728 280.029 400.406 280.496 401.179 280.871 401.857 281.154 403.21 281.625 404.468 281.904 405.528 282 406.4 282 407.366 281.904 408.43 281.625 409.594 281.246 410.268 280.871 410.946 280.496 411.526 280.029 412.106 279.558 412.685 278.899 413.17 278.149 413.557 277.303 413.943 276.366 414.235 276.649 415.201 277.116 415.879 277.303 416.845 277.587 418.005 277.774 419.357 277.962 420.229 278.057 421.001 277.962 421.778 277.87 422.551 277.774 423.324 277.587 424.002 277.303 424.775 277.024 425.449 276.649 426.033 276.274 426.707 275.803 427.192 275.332 427.772 274.769 428.257 274.207 428.643 273.548 429.03 272.894 429.318 272.144 429.708 271.202 429.901 270.172 429.996 269.043 429.901 267.822 429.318 262.004Z" fill="#E4ECF2" fill-rule="evenodd"/><path d="M423.892 211 375.004 216.262 375.097 217.136 378.633 251.032 379.108 255.996 428 250.643 427.521 245.674 423.99 211.878 423.892 211Z" fill="#7E92FF" fill-rule="evenodd"/><path d="M427.515 246.004 378.004 251.19 378.485 255.996 428 250.814 427.515 246.004Z" fill="#6880EA" fill-rule="evenodd"/><path d="M402.306 174.701 404.057 191.189 405.609 191.574 407.161 191.959 408.524 192.443 409.882 192.926 411.146 193.504 412.31 194.082 413.475 194.758 414.449 195.43 415.807 196.492 417.071 197.553 418.334 198.709 419.399 200.057 420.374 201.311 421.245 202.758 422.025 204.205 422.703 205.746 423.285 207.193 423.772 208.639 424.065 210.086 424.354 211.627 424.453 212.496 430.378 267.93 430.473 269.184 430.378 270.344 430.184 271.402 429.792 272.369 429.503 273.041 429.21 273.717 428.822 274.295 428.339 274.873 427.364 275.934 426.2 276.803 424.936 277.475 423.578 277.959 422.12 278.25 420.663 278.443 419.788 278.344 418.429 278.152 417.265 277.959 416.295 277.668 415.613 277.475 414.643 276.996 414.35 276.705 413.962 277.668 413.574 278.537 413.086 279.307 412.504 279.984 411.922 280.467 411.34 280.947 410.659 281.332 409.982 281.717 408.813 282.107 407.744 282.393 406.773 282.492 405.898 282.492 405.027 282.393 404.057 282.201 402.888 281.91 401.625 281.43 400.365 280.66 399.779 280.275 399.197 279.693 398.714 279.115 398.227 278.443 397.933 278.729 397.157 279.406 396.48 279.791 395.605 280.275 394.535 280.754 393.177 281.139 391.72 281.525 390.167 281.623 388.999 281.525 387.834 281.332 386.67 281.045 385.601 280.561 384.63 279.984 383.656 279.213 382.88 278.344 382.103 277.381 381.616 276.512 381.133 275.549 380.84 274.393 380.646 273.234 374.721 217.701 374.626 216.836 374.527 215.389 374.626 213.943 374.721 212.398 374.915 210.955 375.208 209.316 375.691 207.676 376.278 206.131 376.955 204.59 377.731 203.049 378.606 201.697 379.676 200.25 380.84 199 381.715 198.131 382.591 197.262 383.656 196.393 384.824 195.623 385.989 194.852 387.252 194.082 388.61 193.406 390.068 192.73 388.321 176.246 402.306 174.701ZM404.54 172.004 402.017 172.197 388.028 173.738 385.501 174.029 385.795 176.533 387.347 191.189 385.018 192.443 382.785 193.889 381.81 194.66 380.745 195.529 379.87 196.393 378.994 197.262 377.731 198.709 376.567 200.156 375.596 201.697 374.721 203.336 373.945 205.074 373.263 206.906 372.78 208.738 372.392 210.566 372.198 212.111 372.099 213.75 372 215.389 372.099 217.029 372.198 217.992 378.123 273.426 378.317 274.873 378.705 276.225 379.287 277.574 379.965 278.729 380.84 279.984 381.909 281.045 383.074 281.91 384.337 282.684 385.695 283.357 387.058 283.742 388.61 284.033 390.167 284.131 391.137 284.131 392.013 284.033 392.983 283.84 393.953 283.549 395.118 283.164 396.187 282.779 397.062 282.299 397.839 281.91 399.102 282.877 400.365 283.549 401.625 284.131 402.888 284.516 404.057 284.803 405.027 284.902 406.484 284.996 406.967 284.996 407.843 284.902 408.912 284.709 410.076 284.324 411.241 283.84 412.504 283.262 413.574 282.393 414.643 281.332 415.126 280.754 415.613 280.082 417.36 280.561 418.429 280.754 419.594 280.852 420.663 280.947 421.633 280.852 422.608 280.754 423.479 280.561 424.453 280.369 425.324 280.082 426.105 279.693 426.976 279.307 427.752 278.828 428.433 278.25 429.115 277.668 429.792 277.09 430.378 276.418 430.96 275.643 431.443 274.873 431.832 274.102 432.224 273.234 432.612 271.885 432.901 270.537 433 269.09 432.901 267.643 426.976 212.205 426.881 211.242 426.588 209.602 426.2 208.061 425.713 206.422 425.13 204.783 424.354 203.049 423.384 201.41 422.414 199.865 421.344 198.324 420.081 196.975 418.817 195.623 417.36 194.467 415.902 193.406 414.837 192.635 413.768 192.057 412.603 191.48 411.435 190.902 409.007 189.934 406.385 189.164 404.833 174.508 404.54 172.004Z" fill="#5D5D6D" fill-rule="evenodd"/><path d="M403.578 165.004 402.906 165.097 383.75 167.103 383.078 167.201 382.504 167.392 381.93 167.583 381.352 167.867 380.777 168.249 380.301 168.634 379.82 169.016 379.438 169.491 379.055 169.97 378.766 170.543 378.481 171.115 378.289 171.688 378.098 172.26 378 172.93 378 173.6 378 174.173 378.098 174.843 378.289 175.509 378.481 176.081 378.766 176.658 379.148 177.231 379.531 177.706 379.918 178.185 380.395 178.567 380.875 178.948 381.449 179.237 382.023 179.521 382.598 179.712 383.172 179.903 383.844 180 384.516 180 385.184 179.903 404.25 177.897 404.918 177.803 405.496 177.612 406.164 177.421 406.738 177.133 407.219 176.849 407.699 176.467 408.176 175.988 408.558 175.509 408.941 175.034 409.328 174.555 409.519 173.982 409.805 173.41 409.902 172.74 409.996 172.167 409.996 171.497 409.996 170.831 409.902 170.161 409.711 169.491 409.519 168.919 409.23 168.346 408.941 167.867 408.558 167.392 408.082 166.913 407.601 166.433 407.121 166.149 406.644 165.767 406.07 165.577 405.398 165.288 404.824 165.195 404.152 165.097 403.578 165.004Z" fill="#7E92FF" fill-rule="evenodd"/><path d="M386.003 167 387 180" stroke="#5D5D6D" stroke-width="1.6063" stroke-linecap="round" stroke-linejoin="round" stroke-miterlimit="10" fill="none" fill-rule="evenodd"/><path d="M394.003 166 395 178.996" stroke="#5D5D6D" stroke-width="1.6063" stroke-linecap="round" stroke-linejoin="round" stroke-miterlimit="10" fill="none" fill-rule="evenodd"/><path d="M404.25 177.897 385.184 179.903 385.184 179.903 384.516 180 383.844 180 383.172 179.903 382.598 179.712 382.023 179.521 381.449 179.237 380.875 178.948 380.395 178.567 379.918 178.185 379.531 177.706 379.148 177.231 378.766 176.658 378.481 176.081 378.289 175.509 378.098 174.843 378 174.173 378 174.173 378 174.173 378 173.6 378 172.93 378.098 172.26 378.289 171.688 378.481 171.115 378.766 170.543 379.055 169.97 379.438 169.491 379.82 169.016 380.301 168.634 380.777 168.249 381.352 167.867 381.93 167.583 382.504 167.392 383.078 167.201 383.75 167.103 402.906 165.097 402.906 165.097 403.578 165.004 404.152 165.097 404.824 165.195 405.398 165.288 406.07 165.577 406.644 165.767 407.121 166.149 407.601 166.433 408.082 166.913 408.558 167.392 408.941 167.867 409.23 168.346 409.519 168.919 409.711 169.491 409.902 170.161 409.996 170.831 409.996 170.831 409.996 170.831 409.996 171.497 409.996 172.167 409.902 172.74 409.805 173.41 409.519 173.982 409.328 174.555 408.941 175.034 408.558 175.509 408.176 175.988 407.699 176.467 407.219 176.849 406.738 177.133 406.164 177.421 405.496 177.612 404.918 177.803 404.25 177.897 404.25 177.897Z" stroke="#5D5D6D" stroke-width="1.6063" stroke-linecap="round" stroke-linejoin="round" stroke-miterlimit="10" fill="none" fill-rule="evenodd"/><path d="M293.278 245 292.401 245.295 291.623 245.685 290.94 246.174 290.357 246.855 289.868 247.635 289.579 248.419 274.099 312.743 274.004 313.622 274.099 314.502 274.294 315.378 274.687 316.162 275.171 316.842 275.854 317.427 276.632 317.917 277.509 318.212 278.386 318.307 279.259 318.212 280.136 318.012 280.914 317.622 281.597 317.137 282.18 316.452 282.669 315.672 282.958 314.793 283.058 314.307 283.447 313.622 283.931 313.133 284.518 312.647 285.197 312.257 285.88 311.963 286.657 311.863 287.34 311.863 288.118 311.963 288.995 312.257 289.674 312.647 290.257 313.133 290.746 313.718 291.135 314.402 291.428 315.183 291.623 315.963 291.623 316.747 291.523 316.942 291.428 317.817 291.523 318.697 291.718 319.577 292.107 320.357 292.595 321.042 293.278 321.627 294.056 322.116 294.933 322.407 295.806 322.506 296.683 322.506 297.561 322.212 298.338 321.822 299.021 321.332 299.605 320.651 300.089 319.967 300.383 319.087 300.383 319.087 300.676 318.502 301.16 317.817 301.744 317.137 302.427 316.647 303.109 316.357 303.982 316.162 304.86 316.062 305.737 316.257 306.515 316.552 307.293 316.942 307.876 317.527 308.464 318.112 308.853 318.892 309.047 319.672 309.142 320.552 309.047 321.432 309.047 321.432 309.142 321.237 309.047 322.116 309.142 322.992 309.337 323.871 309.726 324.651 310.214 325.336 310.897 325.921 311.674 326.311 312.552 326.701 313.425 326.801 314.302 326.701 315.179 326.506 315.957 326.116 316.64 325.627 317.223 324.946 317.707 324.166 318.001 323.286 318.096 322.797 318.39 322.212 318.779 321.722 319.267 321.237 319.851 320.846 320.629 320.456 321.407 320.261 322.284 320.162 323.256 320.357 324.034 320.552 324.717 321.042 325.3 321.527 325.884 322.116 326.273 322.797 326.566 323.481 326.666 324.361 326.666 325.141 326.566 325.432 326.471 326.311 326.566 327.191 326.761 328.071 327.15 328.851 327.638 329.531 328.317 330.12 329.099 330.606 329.972 330.9 330.849 330.996 331.726 330.9 332.603 330.705 333.381 330.315 334.06 329.826 334.647 329.141 335.132 328.361 335.425 327.481 350.901 263.253 351 262.378 350.901 261.498 350.706 260.618 350.317 259.838 349.829 259.154 349.15 258.568 348.372 258.083 347.495 257.788 346.618 257.689 345.741 257.689 344.868 257.983 344.086 258.373 343.407 258.863 342.824 259.544 342.335 260.328 342.042 261.108 342.042 261.303 341.653 262.083 341.169 262.668 340.585 263.253 339.902 263.643 339.22 263.938 338.442 264.133 337.565 264.133 336.787 264.037 335.91 263.743 335.132 263.253 334.453 262.668 333.965 261.988 333.671 261.398 333.477 260.813 333.381 260.228 333.282 259.544 333.381 259.058 333.576 258.178 333.477 257.299 333.282 256.423 332.893 255.639 332.409 254.959 331.726 254.373 330.948 253.884 330.071 253.589 329.194 253.494 328.317 253.494 327.444 253.784 326.666 254.079 325.983 254.664 325.4 255.249 324.911 256.033 324.622 256.909 324.717 256.519 324.328 257.398 323.84 258.083 323.256 258.668 322.578 259.058 321.895 259.448 321.018 259.643 320.24 259.643 319.363 259.544 318.489 259.253 317.807 258.863 317.124 258.278 316.64 257.689 316.247 256.909 315.957 256.129 315.858 255.349 315.957 254.469 315.858 254.763 315.957 253.884 315.858 253.004 315.663 252.129 315.274 251.344 314.79 250.664 314.108 250.079 313.33 249.589 312.452 249.295 311.575 249.199 310.702 249.295 309.825 249.49 309.047 249.884 308.364 250.369 307.781 250.954 307.392 251.734 307.003 252.614 306.614 253.299 306.126 253.983 305.542 254.469 304.959 254.959 304.177 255.249 303.399 255.349 302.621 255.444 301.744 255.249 301.065 255.054 300.383 254.664 299.799 254.274 299.311 253.689 298.922 253.104 298.632 252.419 298.438 251.639 298.338 250.954 298.438 250.564 298.533 249.685 298.438 248.809 298.239 247.929 297.85 247.149 297.366 246.465 296.683 245.88 295.905 245.39 295.028 245.1 294.151 245Z" fill="#FFFFFF" fill-rule="evenodd"/><path d="M287.992 305.004 287.21 305.201 286.524 305.398 285.838 305.791 285.252 306.285 284.765 306.875 284.37 307.465 284.275 308.055 283.884 308.943 283.493 309.73 282.907 310.42 282.121 310.91 281.339 311.303 280.462 311.5 279.58 311.6 278.699 311.5 278.013 311.207 277.426 310.91 276.94 310.617 276.449 310.123 276.058 309.629 275.667 309.139 275.472 308.549 275.277 307.859 274.1 312.584 274.004 313.471 274.1 314.359 274.295 315.242 274.69 316.033 275.177 316.719 275.863 317.309 276.645 317.803 277.526 318.1 278.408 318.197 279.285 318.1 280.167 317.9 280.948 317.506 281.634 317.016 282.221 316.326 282.711 315.539 283.002 314.652 283.102 314.162 283.493 313.471 283.98 312.977 284.57 312.488 285.252 312.094 285.938 311.797 286.72 311.697 287.406 311.697 288.188 311.797 289.069 312.094 289.751 312.488 290.337 312.977 290.828 313.568 291.219 314.258 291.514 315.045 291.71 315.832 291.71 316.623 291.61 316.82 291.514 317.703 291.61 318.59 291.805 319.477 292.196 320.264 292.687 320.955 293.373 321.545 294.155 322.039 295.036 322.332 295.913 322.432 296.795 322.432 297.676 322.135 298.458 321.742 299.144 321.248 299.731 320.561 300.217 319.871 300.512 318.984 300.512 318.984 300.808 318.393 301.294 317.607 301.88 317.016 302.566 316.523 303.253 316.23 304.13 316.033 305.011 315.932 305.893 316.129 306.675 316.426 307.456 316.82 308.043 317.41 308.633 318 309.024 318.787 309.219 319.574 309.315 320.461 309.315 321.152 309.219 322.039 309.315 322.922 309.511 323.809 309.901 324.596 310.392 325.287 311.078 325.877 311.86 326.27 312.642 326.664 313.619 326.764 314.5 326.664 315.382 326.467 316.164 326.074 316.85 325.58 317.436 324.893 317.922 324.107 318.218 323.219 318.313 322.725 318.609 322.135 318.999 321.641 319.49 321.152 320.076 320.758 320.858 320.365 321.64 320.168 322.521 320.068 323.499 320.264 324.28 320.461 324.966 320.955 325.553 321.445 326.139 322.039 326.53 322.725 326.825 323.416 326.925 324.303 326.925 325.09 326.825 325.383 326.729 326.27 326.825 327.158 327.02 328.045 327.411 328.832 327.902 329.518 328.584 330.113 329.37 330.602 330.247 330.9 331.129 330.996 332.01 330.9 332.892 330.703 333.673 330.309 334.355 329.816 334.946 329.125 335.432 328.338 335.728 327.451 337 322.332 336.509 322.922 336.019 323.416 335.432 323.809 334.846 324.203 334.16 324.4 333.478 324.5 332.696 324.5 331.91 324.4 331.033 324.107 330.347 323.613 329.661 323.023 329.075 322.332 328.684 321.545 328.488 320.658 328.488 319.77 328.584 318.787 328.584 318.494 328.584 317.703 328.488 316.916 328.193 316.129 327.802 315.439 327.316 314.848 326.63 314.359 325.944 313.965 325.162 313.668 324.185 313.471 323.303 313.568 322.422 313.764 321.64 314.162 321.153 314.555 320.663 315.045 320.272 315.539 319.881 316.129 319.781 316.719 319.49 317.607 318.999 318.393 318.413 318.984 317.727 319.574 316.945 319.971 316.064 320.168 315.186 320.264 314.205 320.068 313.328 319.77 312.546 319.281 311.956 318.691 311.369 318 310.978 317.213 310.783 316.326 310.687 315.439 310.883 314.555 310.783 314.752 310.783 314.752 310.883 313.865 310.783 312.977 310.488 312.191 310.097 311.404 309.61 310.713 308.924 310.223 308.142 309.73 307.361 309.432 306.479 309.336 305.598 309.336 304.72 309.533 303.934 309.926 303.253 310.42 302.666 311.01 302.176 311.797 301.88 312.584 301.88 312.387 301.589 313.275 301.099 313.965 300.512 314.652 299.826 315.242 299.044 315.635 298.163 315.832 297.286 315.832 296.404 315.736 295.523 315.439 294.741 314.949 294.055 314.359 293.468 313.668 293.177 312.881 292.882 311.994 292.882 311.107 292.982 310.123 292.982 310.027 292.982 309.139 292.882 308.353 292.591 307.662 292.196 306.971 291.71 306.285 291.023 305.791 290.337 305.398 289.556 305.1 288.774 305.004Z" fill="#E4ECF2" fill-rule="evenodd"/><path d="M294.774 245.509 295.252 245.608 296.118 245.895 296.886 246.379 297.56 246.957 298.037 247.633 298.421 248.404 298.617 249.274 298.711 250.139 298.617 251.008 298.519 251.394 298.617 252.07 298.809 252.841 299.095 253.518 299.479 254.096 299.961 254.674 300.537 255.059 301.211 255.445 301.881 255.637 302.457 255.736 302.939 255.83 303.613 255.736 304.282 255.637 304.862 255.35 305.438 255.059 306.014 254.674 306.398 254.19 306.782 253.612 307.072 253.034 307.358 252.263 307.742 251.685 308.126 251.107 308.706 250.623 309.282 250.139 309.951 249.852 310.723 249.753 311.393 249.659 311.969 249.659 312.451 249.753 313.317 250.045 314.085 250.528 314.759 251.107 315.236 251.779 315.62 252.554 315.812 253.419 315.91 254.288 315.812 255.158 315.91 254.867 315.812 255.736 315.91 256.507 316.196 257.278 316.584 258.049 317.062 258.631 317.736 259.209 318.41 259.594 319.272 259.881 319.754 259.98 321.004 259.98 321.673 259.787 322.347 259.496 322.923 259.209 323.405 258.725 323.883 258.245 324.271 257.569 324.557 256.892 324.463 257.278 324.749 256.507 325.039 255.929 325.517 255.35 326.093 254.772 326.673 254.387 327.342 254.096 328.016 253.903 329.36 253.903 329.842 253.997 330.708 254.288 331.476 254.772 332.15 255.35 332.627 256.023 333.011 256.798 333.203 257.663 333.301 258.532 333.109 259.402 333.011 259.881 333.109 260.558 333.203 261.136 333.395 261.714 333.685 262.297 334.167 262.969 334.837 263.547 335.605 264.031 336.471 264.322 336.953 264.416 338.203 264.416 338.778 264.224 339.448 264.031 340.028 263.646 340.506 263.26 340.988 262.776 341.372 262.198 341.658 261.62 341.658 261.427 341.948 260.751 342.238 260.074 342.716 259.496 343.292 259.016 343.867 258.532 344.541 258.245 345.309 258.049 346.559 258.049 347.041 258.147 347.907 258.438 348.675 258.918 349.345 259.496 349.826 260.173 350.21 260.943 350.402 261.813 350.5 262.682 350.402 263.547 335.127 327.017 334.837 327.792 334.551 328.465 334.069 329.043 333.493 329.527 332.917 329.912 332.244 330.298 331.476 330.396 330.802 330.491 330.226 330.491 329.744 330.396 328.882 330.105 328.11 329.625 327.44 329.043 326.958 328.371 326.575 327.6 326.383 326.73 326.289 325.861 326.383 324.992 326.481 324.705 326.481 323.934 326.383 323.065 326.093 322.388 325.709 321.716 325.133 321.133 324.557 320.654 323.883 320.17 323.115 319.977 322.539 319.883 322.057 319.784 321.387 319.883 320.812 319.977 320.236 320.17 319.754 320.461 319.178 320.846 318.696 321.326 318.312 321.81 318.022 322.388 317.928 322.872 317.638 323.643 317.254 324.319 316.87 324.898 316.294 325.377 315.718 325.767 315.045 326.054 314.277 326.247 313.509 326.345 313.027 326.345 312.549 326.247 311.683 325.861 310.915 325.476 310.241 324.898 309.759 324.221 309.375 323.45 309.184 322.581 309.09 321.716 309.184 320.846 309.09 321.039 309.09 321.039 309.184 320.17 309.09 319.301 308.898 318.53 308.514 317.759 307.934 317.181 307.358 316.602 306.59 316.217 305.822 315.926 305.246 315.832 304.764 315.733 303.996 315.832 303.323 316.024 302.653 316.217 302.073 316.602 301.595 317.082 301.113 317.66 300.729 318.243 300.439 318.915 300.537 318.722 300.537 318.722 300.247 319.399 299.863 320.076 299.479 320.654 298.903 321.133 298.327 321.617 297.654 321.908 296.886 322.101 295.636 322.101 295.158 322.003 294.292 321.716 293.524 321.232 292.85 320.654 292.368 319.977 291.985 319.206 291.793 318.337 291.699 317.468 291.793 316.602 291.891 316.41 291.891 315.635 291.699 314.864 291.409 314.093 291.025 313.416 290.543 312.838 289.967 312.359 289.297 311.973 288.431 311.682 287.949 311.584 286.797 311.584 286.222 311.78 285.646 311.973 285.07 312.26 284.588 312.551 284.204 312.937 283.82 313.416 283.436 313.999 283.338 314.478 283.052 315.249 282.762 315.926 282.28 316.504 281.704 316.988 281.128 317.373 280.455 317.759 279.687 317.857 279.017 317.951 278.437 317.951 277.959 317.857 277.093 317.566 276.325 317.082 275.651 316.504 275.173 315.832 274.785 315.057 274.594 314.191 274.5 313.322 274.594 312.453 289.873 248.888 290.159 248.212 290.543 247.535 290.931 246.957 291.507 246.477 292.083 245.993 292.756 245.702 293.524 245.509ZM294.194 243.004 293.042 243.098 291.891 243.39 290.833 243.869 289.967 244.452 289.105 245.222 288.431 246.186 287.855 247.248 287.471 248.31 272.192 311.875 272.098 312.551 272 313.224 272 313.9 272.098 314.577 272.192 315.249 272.384 315.926 272.674 316.504 273.058 317.082 273.442 317.66 273.826 318.243 274.308 318.722 274.884 319.108 275.459 319.493 276.035 319.784 276.709 320.076 277.383 320.268 278.151 320.461 279.017 320.461 280.169 320.363 281.32 320.076 282.378 319.592 283.338 319.013 284.106 318.243 284.878 317.275 285.356 316.217 285.74 315.155 285.838 314.962 286.124 314.577 286.507 314.286 286.989 314.093 287.855 314.093 288.239 314.286 288.525 314.384 289.007 314.864 289.297 315.442 289.391 316.024 289.297 316.697 289.199 317.373 289.199 318.05 289.297 318.722 289.391 319.399 289.583 320.076 289.873 320.654 290.257 321.326 290.641 321.908 291.025 322.388 291.507 322.872 292.083 323.257 292.658 323.643 293.234 324.028 293.908 324.221 294.582 324.414 295.35 324.606 296.212 324.606 297.27 324.512 298.327 324.319 299.287 323.934 300.247 323.352 301.019 322.679 301.689 321.908 302.265 321.039 302.747 319.977 302.845 319.69 303.131 319.108 303.613 318.628 304.09 318.337 304.764 318.243 305.246 318.337 305.532 318.435 305.916 318.628 306.108 318.915 306.398 319.206 306.59 319.493 306.688 319.784 306.688 320.17 306.688 320.555 306.59 320.941 306.59 321.617 306.59 322.294 306.688 322.872 306.782 323.544 307.166 324.705 307.84 325.767 308.608 326.73 309.567 327.6 310.049 327.887 310.625 328.178 311.299 328.465 311.875 328.658 312.741 328.756 313.509 328.85 314.759 328.756 315.91 328.465 316.968 327.985 317.83 327.309 318.696 326.538 319.37 325.668 319.946 324.606 320.33 323.45 320.428 323.257 320.714 322.872 321.004 322.581 321.481 322.388 322.057 322.294 322.539 322.388 322.829 322.487 323.115 322.679 323.597 323.065 323.883 323.643 323.981 324.319 323.981 324.414 323.883 325.09 323.789 325.767 323.789 326.439 323.883 327.116 323.981 327.792 324.271 328.465 324.463 329.043 324.847 329.625 325.231 330.204 325.615 330.782 326.093 331.167 326.575 331.651 327.15 332.036 327.824 332.323 328.4 332.615 329.168 332.807 329.936 333 330.802 333 331.954 332.902 333.109 332.615 334.167 332.131 335.127 331.553 335.895 330.782 336.663 329.818 337.145 328.756 337.529 327.694 352.804 264.125 352.902 263.453 352.996 262.776 352.996 262.1 352.902 261.427 352.804 260.751 352.518 260.074 352.326 259.496 351.942 258.823 351.554 258.34 351.17 257.762 350.692 257.278 350.21 256.892 349.635 256.507 348.961 256.216 348.385 255.929 347.617 255.736 346.849 255.543 345.983 255.543 344.831 255.637 343.676 255.929 342.622 256.412 341.756 256.991 340.89 257.762 340.22 258.725 339.64 259.689 339.256 260.849 338.97 261.329 338.488 261.62 338.011 261.813 337.529 261.907 337.047 261.907 336.663 261.714 336.377 261.522 336.087 261.329 335.797 261.042 335.605 260.558 335.511 260.173 335.605 259.98 335.703 259.303 335.797 258.631 335.797 257.856 335.703 257.183 335.511 256.507 335.319 255.929 335.029 255.252 334.743 254.674 334.359 254.096 333.971 253.612 333.493 253.132 332.917 252.747 332.342 252.361 331.762 251.972 331.092 251.779 330.418 251.586 329.65 251.394 328.784 251.299 327.726 251.394 326.766 251.685 325.807 252.07 324.847 252.554 324.075 253.226 323.405 253.903 322.829 254.772 322.347 255.736 322.155 256.121 321.865 256.699 321.481 257.085 320.906 257.376 320.33 257.47 319.848 257.47 319.464 257.278 319.178 257.085 318.888 256.892 318.696 256.605 318.504 256.314 318.41 255.929 318.312 255.637 318.312 255.252 318.41 254.772 318.41 254.096 318.41 253.518 318.12 252.263 317.736 251.107 317.062 250.045 316.294 249.175 315.335 248.404 314.277 247.728 313.701 247.535 313.027 247.342 312.259 247.15 311.393 247.15 310.241 247.248 309.184 247.535 308.126 247.921 307.264 248.503 306.398 249.274 305.724 250.139 305.148 251.107 304.764 252.164 304.38 252.648 303.996 253.034 303.515 253.226 302.939 253.325 302.555 253.226 301.979 253.034 301.497 252.648 301.211 252.164 301.019 251.586 301.113 250.914 301.211 250.237 301.211 249.561 301.113 248.888 301.019 248.212 300.827 247.535 300.537 246.957 300.153 246.28 299.769 245.702 299.385 245.222 298.903 244.739 298.327 244.353 297.752 243.968 297.176 243.582 296.502 243.39 295.926 243.197 295.06 243.004Z" fill="#5D5D6D" fill-rule="evenodd"/><path d="M284.3 270.004 279 291.409 340.7 306 345.996 284.595 284.3 270.004Z" fill="#7E92FF" fill-rule="evenodd"/><path d="M284.3 270.004 280.276 286.035 279 291.409 340.7 306 342.072 300.622 345.996 284.595 284.3 270.004Z" fill="#6880EA" fill-rule="evenodd"/><path d="M284.98 270.004 281 286.231 342.115 300.996 345.996 284.773 284.98 270.004Z" fill="#7E92FF" fill-rule="evenodd"/><path d="M291.5 255.5 292.497 256.49" stroke="#5D5D6D" stroke-width="0.986877" stroke-linecap="round" stroke-linejoin="round" stroke-miterlimit="10" fill="none" fill-rule="evenodd"/><path d="M295.506 256.511 297.5 257.5" stroke="#5D5D6D" stroke-width="0.986877" stroke-linecap="round" stroke-linejoin="round" stroke-miterlimit="10" fill="none" fill-rule="evenodd"/><path d="M300.503 257.511 301.5 258.5" stroke="#5D5D6D" stroke-width="0.986877" stroke-linecap="round" stroke-linejoin="round" stroke-miterlimit="10" fill="none" fill-rule="evenodd"/><path d="M304.505 259.5 306.495 260.5" stroke="#5D5D6D" stroke-width="0.986877" stroke-linecap="round" stroke-linejoin="round" stroke-miterlimit="10" fill="none" fill-rule="evenodd"/><path d="M309.503 260.51 310.497 261.49" stroke="#5D5D6D" stroke-width="0.986877" stroke-linecap="round" stroke-linejoin="round" stroke-miterlimit="10" fill="none" fill-rule="evenodd"/><path d="M313.505 261.5 315.495 262.49" stroke="#5D5D6D" stroke-width="0.986877" stroke-linecap="round" stroke-linejoin="round" stroke-miterlimit="10" fill="none" fill-rule="evenodd"/><path d="M318.5 262.511 319.497 263.5" stroke="#5D5D6D" stroke-width="0.986877" stroke-linecap="round" stroke-linejoin="round" stroke-miterlimit="10" fill="none" fill-rule="evenodd"/><path d="M322.505 263.511 324.5 264.5" stroke="#5D5D6D" stroke-width="0.986877" stroke-linecap="round" stroke-linejoin="round" stroke-miterlimit="10" fill="none" fill-rule="evenodd"/><path d="M327.503 265.511 328.497 266.5" stroke="#5D5D6D" stroke-width="0.986877" stroke-linecap="round" stroke-linejoin="round" stroke-miterlimit="10" fill="none" fill-rule="evenodd"/><path d="M331.5 266.51 333.494 267.49" stroke="#5D5D6D" stroke-width="0.986877" stroke-linecap="round" stroke-linejoin="round" stroke-miterlimit="10" fill="none" fill-rule="evenodd"/><path d="M336.5 267.5 337.5 268.49" stroke="#5D5D6D" stroke-width="0.986877" stroke-linecap="round" stroke-linejoin="round" stroke-miterlimit="10" fill="none" fill-rule="evenodd"/><path d="M340.5 268.511 342.5 269.5" stroke="#5D5D6D" stroke-width="0.986877" stroke-linecap="round" stroke-linejoin="round" stroke-miterlimit="10" fill="none" fill-rule="evenodd"/><path d="M345.5 269.5 346.5 270.49" stroke="#5D5D6D" stroke-width="0.986877" stroke-linecap="round" stroke-linejoin="round" stroke-miterlimit="10" fill="none" fill-rule="evenodd"/><path d="M335.5 320.5 333.5 319.511" stroke="#5D5D6D" stroke-width="0.986877" stroke-linecap="round" stroke-linejoin="round" stroke-miterlimit="10" fill="none" fill-rule="evenodd"/><path d="M330.497 319.5 329.5 318.5" stroke="#5D5D6D" stroke-width="0.986877" stroke-linecap="round" stroke-linejoin="round" stroke-miterlimit="10" fill="none" fill-rule="evenodd"/><path d="M326.5 318.5 324.505 317.511" stroke="#5D5D6D" stroke-width="0.986877" stroke-linecap="round" stroke-linejoin="round" stroke-miterlimit="10" fill="none" fill-rule="evenodd"/><path d="M321.497 317.49 320.5 316.51" stroke="#5D5D6D" stroke-width="0.986877" stroke-linecap="round" stroke-linejoin="round" stroke-miterlimit="10" fill="none" fill-rule="evenodd"/><path d="M317.5 315.5 315.506 314.511" stroke="#5D5D6D" stroke-width="0.986877" stroke-linecap="round" stroke-linejoin="round" stroke-miterlimit="10" fill="none" fill-rule="evenodd"/><path d="M312.5 314.5 311.5 313.511" stroke="#5D5D6D" stroke-width="0.986877" stroke-linecap="round" stroke-linejoin="round" stroke-miterlimit="10" fill="none" fill-rule="evenodd"/><path d="M308.5 313.5 306.506 312.5" stroke="#5D5D6D" stroke-width="0.986877" stroke-linecap="round" stroke-linejoin="round" stroke-miterlimit="10" fill="none" fill-rule="evenodd"/><path d="M303.5 312.5 302.5 311.511" stroke="#5D5D6D" stroke-width="0.986877" stroke-linecap="round" stroke-linejoin="round" stroke-miterlimit="10" fill="none" fill-rule="evenodd"/><path d="M299.495 311.49 297.505 310.5" stroke="#5D5D6D" stroke-width="0.986877" stroke-linecap="round" stroke-linejoin="round" stroke-miterlimit="10" fill="none" fill-rule="evenodd"/><path d="M294.497 310.5 293.503 309.511" stroke="#5D5D6D" stroke-width="0.986877" stroke-linecap="round" stroke-linejoin="round" stroke-miterlimit="10" fill="none" fill-rule="evenodd"/><path d="M290.495 309.49 288.505 308.5" stroke="#5D5D6D" stroke-width="0.986877" stroke-linecap="round" stroke-linejoin="round" stroke-miterlimit="10" fill="none" fill-rule="evenodd"/><path d="M285.5 308.5 284.503 307.5" stroke="#5D5D6D" stroke-width="0.986877" stroke-linecap="round" stroke-linejoin="round" stroke-miterlimit="10" fill="none" fill-rule="evenodd"/><path d="M281.494 307.49 279.5 306.51" stroke="#5D5D6D" stroke-width="0.986877" stroke-linecap="round" stroke-linejoin="round" stroke-miterlimit="10" fill="none" fill-rule="evenodd"/><path d="M290.406 276.681 291.251 276.992 291.813 277.198 292 277.403 292.092 277.71 292 278.227 291.813 278.744 291.625 278.95 291.251 278.95 290.689 278.845 289.936 278.639 290.406 276.681ZM288.721 274.004 288.438 274.21 288.155 274.416 287.968 274.622 287.689 275.24 287.502 275.857 286.096 281.832 286 282.454 286.187 283.172 286.378 283.378 286.566 283.689 286.845 283.79 287.128 283.996 287.781 283.996 288.251 283.689 288.534 283.483 288.721 283.277 288.908 282.66 289.375 280.908 290.502 281.214 291.251 281.42 292.657 281.42 293.311 281.214 293.781 280.802 294.251 280.29 294.625 279.773 294.813 278.95 295 278.227 295 277.609 294.904 276.992 294.625 276.475 294.343 276.063 293.968 275.651 293.594 275.34 293.124 275.134 292 274.723 289.749 274.105 289.375 274.004Z" fill="#FFFFFF" fill-rule="evenodd"/><path d="M306.678 281.91 306.879 284.371 305.271 283.881 306.678 281.91ZM297.425 276.004 297.023 276.1 296.719 276.1 296.518 276.297 296.219 276.494 296.014 276.691 295.715 277.281 294.205 282.994 294.004 284.078 294.107 284.568 294.308 284.961 294.607 285.354 295.112 285.652 299.336 286.736 299.939 286.736 300.341 286.539 300.542 286.439 300.743 286.242 300.846 286.539 301.047 286.832 301.346 287.129 301.748 287.326 302.15 287.326 302.654 287.225 303.056 286.932 303.458 286.539 303.963 285.752 307.08 286.539 307.08 287.523 307.281 288.016 307.482 288.506 307.883 288.803 308.285 289 308.486 289 309.094 288.9 309.495 288.703 309.795 288.309 309.996 287.82 309.996 287.326 309.294 281.023 309.094 280.039 308.991 279.545 308.79 279.252 308.486 278.955 308.187 278.758 307.584 278.465 306.879 278.365 306.579 278.465 306.173 278.561 305.874 278.758 305.472 279.055 304.766 279.842 301.047 284.961 300.944 285.158 300.743 284.865 300.444 284.471 300.037 284.275 297.322 283.584 298.832 278.072 298.832 277.477 298.832 277.184 298.631 276.887 298.532 276.594 298.229 276.398 298.028 276.201 297.724 276.1 297.425 276.004Z" fill="#FFFFFF" fill-rule="evenodd"/><path d="M314.305 281 313.524 281.096 312.838 281.285 312.252 281.565 311.762 282.038 311.371 282.512 311.176 283.169 311.08 283.642 311.08 284.115 311.176 284.492 311.276 284.869 311.566 285.246 311.861 285.623 312.742 286.377 314.6 287.508 314.891 287.696 315.086 287.981 315.086 288.077 315.086 288.169 314.99 288.358 314.795 288.546 314.305 288.546 313.814 288.454 312.938 288.169 312.057 287.604 311.762 287.415 311.471 287.319 311.176 287.319 310.885 287.415 310.59 287.508 310.395 287.696 310.1 288.169 310.004 288.454 310.004 288.735 310.1 289.019 310.295 289.3 310.885 289.773 311.566 290.15 312.352 290.527 313.229 290.812 313.914 290.904 314.5 291 315.476 290.904 316.258 290.715 316.943 290.338 317.434 289.962 317.724 289.396 318.019 288.735 318.115 288.265 318.115 287.792 318.019 287.319 317.92 286.942 317.629 286.565 317.334 286.188 316.652 285.623 315.771 285.058 315.281 284.869 314.891 284.681 314.404 284.304 314.109 284.115 314.01 283.923 314.109 283.735 314.109 283.642 314.205 283.546 314.404 283.454 314.695 283.454 315.381 283.546 315.867 283.735 316.258 283.923 316.652 284.115 317.138 284.492 317.434 284.681 317.724 284.773 318.019 284.681 318.31 284.585 318.705 284.208 318.9 283.923 318.996 283.546 318.9 283.265 318.801 282.889 318.31 282.323 317.529 281.85 316.748 281.473 315.867 281.285 315.086 281.096 314.305 281Z" fill="#FFFFFF" fill-rule="evenodd"/><path d="M320.074 282 319.589 282.209 319.199 282.525 319.004 282.944 319.004 283.465 319.199 283.99 319.489 284.408 319.978 284.618 321.247 284.934 319.783 290.796 319.684 291.531 319.879 292.159 320.074 292.368 320.273 292.684 320.563 292.893 320.857 292.996 321.537 292.996 322.026 292.684 322.32 292.475 322.515 292.265 322.71 291.633 324.169 285.771 325.342 286.189 325.827 286.189 326.316 286.087 326.706 285.664 326.901 285.245 327 284.724 326.805 284.199 326.511 283.781 326.022 283.571 320.563 282Z" fill="#FFFFFF" fill-rule="evenodd"/><path d="M328.124 285 327.81 285.095 327.5 285.185 327.084 285.65 326.77 286.206 325 292.049 325 292.699 325 292.975 325.106 293.255 325.314 293.531 325.522 293.716 325.832 293.905 326.146 293.996 326.978 293.996 327.394 293.811 327.916 293.346 328.124 292.79 329.894 286.947 329.996 286.301 329.788 285.741 329.58 285.465 329.372 285.28 329.062 285.095 328.748 285Z" fill="#FFFFFF" fill-rule="evenodd"/><path d="M335.169 286 334.213 286.097 333.351 286.287 332.493 286.668 331.724 287.141 331.057 287.906 330.577 288.857 330.195 289.905 330.004 290.949 330.004 291.998 330.195 292.949 330.577 293.713 331.151 294.474 331.822 295.045 332.587 295.518 333.542 295.806 334.116 295.903 334.693 295.996 335.649 295.903 336.605 295.713 336.987 295.425 337.276 295.138 337.369 294.855 337.467 294.567 337.467 294.094 337.178 293.616 336.987 293.519 336.702 293.426 336.511 293.329 336.222 293.426 335.742 293.426 335.267 293.519 334.787 293.519 334.307 293.426 333.925 293.236 333.542 293.046 333.351 292.856 333.16 292.475 333.066 292.095 332.969 291.714 333.066 291.14 333.16 290.569 333.351 289.998 333.542 289.521 333.831 289.14 334.022 288.857 334.213 288.76 334.502 288.667 334.978 288.57 335.649 288.667 336.316 288.95 336.987 289.428 337.56 289.711 337.849 289.711 338.134 289.618 338.52 289.428 338.711 289.238 338.805 289.047 338.996 288.57 338.996 288.287 338.902 287.999 338.805 287.712 338.614 287.522 337.658 286.761 336.987 286.478 336.125 286.19 335.169 286Z" fill="#FFFFFF" fill-rule="evenodd"/></g></svg>