<svg width="176" height="167" xmlns="http://www.w3.org/2000/svg" xmlns:xlink="http://www.w3.org/1999/xlink" overflow="hidden"><defs><clipPath id="clip0"><rect x="391" y="137" width="176" height="167"/></clipPath></defs><g clip-path="url(#clip0)" transform="translate(-391 -137)"><path d="M506.129 148.003C502.62 148.003 499.052 148.363 495.477 149.116 482.572 151.893 471.178 159.552 463.803 170.493 463.401 170.485 462.998 170.482 462.599 170.482 422.73 170.482 393 207.667 401.877 246.916 408.54 276.592 434.727 295.657 462.676 295.657 471.986 295.657 481.488 293.544 490.534 289 497.671 293.71 505.757 296 513.79 296 525.565 296 537.218 291.085 545.587 281.678 559.581 265.939 560 242.203 546.594 225.877 554.803 214.764 557.822 200.626 554.972 186.991 550.095 163.811 529.347 148.003 506.129 148.003Z" fill="#FE7D56" fill-rule="evenodd"/><path d="M408.993 228C408.595 227.636 408.399 227.275 408 227" stroke="#5D5D6D" stroke-width="2" stroke-linecap="round" stroke-linejoin="round" stroke-miterlimit="10" fill="none" fill-rule="evenodd"/><path d="M406.864 222.615C400.003 197.56 408.287 170.741 428.204 154.095 448.122 137.446 475.822 134 499.173 145.352 522.438 156.701 537 180.746 536.328 206.724 535.577 232.705 519.842 255.91 495.993 265.997" stroke="#5D5D6D" stroke-width="2" stroke-linecap="round" stroke-linejoin="round" stroke-miterlimit="10" fill="none" fill-rule="evenodd"/><path d="M493.997 267.007 493.003 268" stroke="#000000" stroke-width="2" stroke-linecap="round" stroke-linejoin="round" stroke-miterlimit="10" fill="none" fill-rule="evenodd"/><path d="M526.473 211C525.651 211 525.003 212.104 525.397 213.074 525.57 213.641 526.04 213.997 526.525 213.997 526.704 213.997 526.882 213.949 527.051 213.847 527.997 213.364 527.997 211.624 526.973 211.14 526.805 211.045 526.636 211 526.473 211Z" stroke="#5D5D6D" stroke-width="2" stroke-linecap="round" stroke-linejoin="round" stroke-miterlimit="10" fill="#FFFFFF" fill-rule="evenodd"/><path d="M425.958 249.43C425.003 247.47 427.782 246 428.477 248.157 429 249.92 426.738 250.997 425.958 249.43Z" stroke="#5D5D6D" stroke-width="2" stroke-linecap="round" stroke-linejoin="round" stroke-miterlimit="10" fill="none" fill-rule="evenodd"/><path d="M392.003 295 564.997 295" stroke="#5D5D6D" stroke-width="2" stroke-linecap="round" stroke-linejoin="round" stroke-miterlimit="10" fill="none" fill-rule="evenodd"/><path d="M405 229.085 410.106 232 412 227.003" stroke="#5D5D6D" stroke-width="2" stroke-linecap="round" stroke-linejoin="round" stroke-miterlimit="10" fill="none" fill-rule="evenodd"/><path d="M549.452 202.003 544.83 212.56C542.646 212.811 540.797 214.151 539.956 216.163L535.42 227.137C535 228.06 535.42 229.149 536.343 229.568L544.075 232.835C544.319 232.945 544.567 232.997 544.811 232.997 545.491 232.997 546.118 232.592 546.428 231.914L551.05 220.937C551.89 218.928 551.636 216.665 550.378 214.989L554.997 204.431 549.452 202.003Z" stroke="#5D5D6D" stroke-width="2" stroke-linecap="round" stroke-linejoin="round" stroke-miterlimit="10" fill="#FFFFFF" fill-rule="evenodd"/><path d="M550.258 201.003C549.885 201.003 549.54 201.262 549.419 201.675L549.167 202.235C549.003 202.799 549.167 203.36 549.669 203.64L554.334 205.889C554.471 205.966 554.616 206 554.756 206 555.123 206 555.463 205.76 555.583 205.421L555.833 204.765C556 204.201 555.833 203.64 555.334 203.36L550.669 201.111C550.535 201.037 550.395 201.003 550.258 201.003Z" stroke="#5D5D6D" stroke-width="2" stroke-linecap="round" stroke-linejoin="round" stroke-miterlimit="10" fill="#FFFFFF" fill-rule="evenodd"/><path d="M540.966 216.003 537.003 225.535 542.034 228 546 218.468 540.966 216.003Z" stroke="#5D5D6D" stroke-width="2" stroke-linecap="round" stroke-linejoin="round" stroke-miterlimit="10" fill="#F46545" fill-rule="evenodd"/><path d="M514.003 141C514.003 141 550.213 147.125 559.997 177.997" stroke="#5D5D6D" stroke-width="2" stroke-linecap="round" stroke-linejoin="round" stroke-miterlimit="10" fill="none" fill-rule="evenodd"/><path d="M460.16 180.003C453.613 180.003 448.242 185.65 448.242 192.648L438 294.576 531 294.997 518.577 192.648C518.577 185.65 513.289 180.003 506.744 180.003Z" stroke="#000000" stroke-width="2" stroke-linejoin="round" stroke-miterlimit="10" fill="#FFFFFF" fill-rule="evenodd"/><path d="M484.51 193C481.367 193 478.232 194.209 475.851 196.63 471.003 201.554 471.003 209.446 475.851 214.37 478.232 216.791 481.367 218 484.51 218 487.655 218 490.809 216.791 493.235 214.37 497.997 209.446 497.997 201.554 493.235 196.63 490.809 194.209 487.655 193 484.51 193Z" stroke="#5D5D6D" stroke-width="2" stroke-linecap="round" stroke-linejoin="round" stroke-miterlimit="10" fill="#F46545" fill-rule="evenodd"/><path d="M476.003 209C476.003 202.943 480.89 198 487 198" stroke="#5D5D6D" stroke-width="2" stroke-linecap="round" stroke-linejoin="round" stroke-miterlimit="10" fill="none" fill-rule="evenodd"/><path d="M499 261 485.003 261.16 485.003 267.762 496.722 268 499 261Z" stroke="#5D5D6D" stroke-width="2" stroke-linecap="round" stroke-linejoin="round" stroke-miterlimit="10" fill="#F46545" fill-rule="evenodd"/><path d="M492.31 251 490 259.057 492.054 258.01 497.441 268 502.997 263.086 498.552 254.787 500.603 253.82 492.31 251Z" stroke="#5D5D6D" stroke-width="2" stroke-linecap="round" stroke-linejoin="round" stroke-miterlimit="10" fill="#FE7D56" fill-rule="evenodd"/><path d="M469.003 261 471.294 268 482.997 267.762 482.997 261.16 469.003 261Z" stroke="#5D5D6D" stroke-width="2" stroke-linecap="round" stroke-linejoin="round" stroke-miterlimit="10" fill="#F46545" fill-rule="evenodd"/><path d="M475.948 251 468.29 253.82 470.186 254.787 466.003 263.086 471.212 268 476.104 258.01 478 259.057 475.948 251Z" stroke="#5D5D6D" stroke-width="2" stroke-linecap="round" stroke-linejoin="round" stroke-miterlimit="10" fill="#FE7D56" fill-rule="evenodd"/><path d="M488.289 235 481 237.447 489.531 248.997 494.997 244.867 488.289 235Z" stroke="#5D5D6D" stroke-width="2" stroke-linecap="round" stroke-linejoin="round" stroke-miterlimit="10" fill="#F46545" fill-rule="evenodd"/><path d="M480.486 234 476.05 242.711 474 241.708 476.477 250 484.67 246.817 482.62 245.811 487.997 235.507 480.486 234Z" stroke="#5D5D6D" stroke-width="2" stroke-linecap="round" stroke-linejoin="round" stroke-miterlimit="10" fill="#FE7D56" fill-rule="evenodd"/><path d="M531 294.997 438 294.576 448.242 192.648C448.242 185.65 453.613 180.003 460.16 180.003L506.744 180.003C513.289 180.003 518.577 185.65 518.577 192.648Z" stroke="#5D5D6D" stroke-width="2" stroke-linecap="round" stroke-linejoin="round" stroke-miterlimit="10" fill="none" fill-rule="evenodd"/><path d="M544.003 274.003 547 287.997" stroke="#000000" stroke-width="2" stroke-linejoin="round" stroke-miterlimit="10" fill="#FFFFFF" fill-rule="evenodd"/><path d="M544.003 274.003 547 287.997" stroke="#5D5D6D" stroke-width="2" stroke-linecap="round" stroke-linejoin="round" stroke-miterlimit="10" fill="none" fill-rule="evenodd"/><path d="M544 289 549.997 287" stroke="#000000" stroke-width="2" stroke-linejoin="round" stroke-miterlimit="10" fill="#FFFFFF" fill-rule="evenodd"/><path d="M544 289 549.997 287" stroke="#5D5D6D" stroke-width="2" stroke-linecap="round" stroke-linejoin="round" stroke-miterlimit="10" fill="none" fill-rule="evenodd"/><path d="M548.918 266 536 268.523 537.301 274.915C537.911 277.944 540.726 279.997 543.809 279.997 544.237 279.997 544.671 279.958 545.104 279.875 548.658 279.203 550.997 275.839 550.304 272.308L548.918 266Z" stroke="#5D5D6D" stroke-width="2" stroke-linecap="round" stroke-linejoin="round" stroke-miterlimit="10" fill="#FFFFFF" fill-rule="evenodd"/><path d="M546 249 537.003 261" stroke="#000000" stroke-width="2" stroke-linejoin="round" stroke-miterlimit="10" fill="#FFFFFF" fill-rule="evenodd"/><path d="M546 249 537.003 261" stroke="#5D5D6D" stroke-width="2" stroke-linecap="round" stroke-linejoin="round" stroke-miterlimit="10" fill="none" fill-rule="evenodd"/><path d="M534 259.003 540 262.997" stroke="#000000" stroke-width="2" stroke-linejoin="round" stroke-miterlimit="10" fill="#FFFFFF" fill-rule="evenodd"/><path d="M534 259.003 540 262.997" stroke="#5D5D6D" stroke-width="2" stroke-linecap="round" stroke-linejoin="round" stroke-miterlimit="10" fill="none" fill-rule="evenodd"/><path d="M544.642 240.003C544.11 240.003 543.583 240.317 543.407 240.92L541.799 245.875C539.764 248.973 539.003 252.161 541.969 254.284 542.671 254.782 543.404 254.997 544.14 254.997 546.421 254.997 548.734 252.91 550.273 250.566L553.236 248.001C554 247.381 553.916 246.318 553.153 245.788L545.358 240.213C545.141 240.073 544.89 240.003 544.642 240.003Z" stroke="#5D5D6D" stroke-width="2" stroke-linecap="round" stroke-linejoin="round" stroke-miterlimit="10" fill="#FFFFFF" fill-rule="evenodd"/><path d="M424.825 258C422.713 258 420.867 259.522 420.559 261.671 420.39 262.344 420.476 263.101 420.728 263.778 416.51 264.366 413.135 267.654 412.544 271.865L409.76 290.407C409.003 295.631 412.544 300.435 417.859 301.278L428.657 302.878C429.165 302.961 429.673 303 430.173 303 434.802 303 438.862 299.587 439.622 294.871L442.406 276.332C442.997 272.372 441.057 268.411 437.513 266.473 438.021 265.882 438.357 265.125 438.526 264.366 438.865 262.092 437.261 259.899 434.899 259.564L425.452 258.047C425.241 258.017 425.03 258 424.825 258Z" stroke="#5D5D6D" stroke-width="2" stroke-linecap="round" stroke-linejoin="round" stroke-miterlimit="10" fill="#FFFFFF" fill-rule="evenodd"/><path d="M417.725 272.003 414 291.427 434.186 294.997 438 275.654 417.725 272.003Z" stroke="#5D5D6D" stroke-width="2" stroke-linecap="round" stroke-linejoin="round" stroke-miterlimit="10" fill="#F46545" fill-rule="evenodd"/><path d="M430 265 437.997 265.997" stroke="#000000" stroke-width="2" stroke-linejoin="round" stroke-miterlimit="10" fill="#1DD1A1" fill-rule="evenodd"/><path d="M430 265 437.997 265.997" stroke="#5D5D6D" stroke-width="2" stroke-linecap="round" stroke-linejoin="round" stroke-miterlimit="10" fill="none" fill-rule="evenodd"/><path d="M425.252 201 419 202.52 421.874 214.489C420.184 216.006 419.506 218.366 420.015 220.557L424.24 238.511C424.457 239.379 425.294 239.997 426.167 239.997 426.314 239.997 426.461 239.981 426.606 239.945L435.307 237.837C436.322 237.585 436.997 236.572 436.744 235.477L432.519 217.606C432.013 215.332 430.323 213.646 428.126 212.972L425.252 201Z" stroke="#5D5D6D" stroke-width="2" stroke-linecap="round" stroke-linejoin="round" stroke-miterlimit="10" fill="#FFFFFF" fill-rule="evenodd"/><path d="M423.94 200C423.857 200 423.773 200.014 423.692 200.045L418.693 201.331C418.233 201.502 418 202.016 418.078 202.529L418.233 203.216C418.369 203.676 418.754 204 419.166 204 419.214 204 419.26 203.994 419.308 203.986L424.307 202.616C424.767 202.529 425 202.016 424.922 201.502L424.767 200.73C424.704 200.307 424.33 200 423.94 200Z" stroke="#5D5D6D" stroke-width="2" stroke-linecap="round" stroke-linejoin="round" stroke-miterlimit="10" fill="#FFFFFF" fill-rule="evenodd"/><path d="M427.808 221C424.446 221 422 224.634 423.768 227.696 424.687 229.261 426.262 230 427.827 230 429.771 230 431.701 228.86 432.338 226.739 433 224.35 431.514 221.878 429.044 221.163 428.621 221.052 428.209 221 427.808 221Z" stroke="#5D5D6D" stroke-width="2" stroke-linecap="round" stroke-linejoin="round" stroke-miterlimit="10" fill="#FE7D56" fill-rule="evenodd"/><path d="M432.908 176.564C433.997 181.872 428.3 186 423.609 183.136 419 180.356 420.006 173.276 425.202 171.846 428.636 171.003 432.071 173.107 432.908 176.564Z" stroke="#5D5D6D" stroke-width="2" stroke-linecap="round" stroke-linejoin="round" stroke-miterlimit="10" fill="none" fill-rule="evenodd"/><path d="M438.188 162C438.003 162 437.809 162.03 437.619 162.087L423.597 166.655C422.506 166.986 422 168.232 422.506 169.144L430.986 186.085C431.312 186.667 431.945 186.997 432.605 186.997 432.793 186.997 432.983 186.97 433.169 186.915L442.657 183.678C443.497 183.429 444 182.599 443.917 181.768L439.97 163.5C439.831 162.609 439.066 162 438.188 162Z" stroke="#000000" stroke-width="2" stroke-linejoin="round" stroke-miterlimit="10" fill="#FFFFFF" fill-rule="evenodd"/><path d="M420.003 172 445 163" stroke="#000000" stroke-width="2" stroke-linejoin="round" stroke-miterlimit="10" fill="#FFFFFF" fill-rule="evenodd"/><path d="M420.003 172 445 163" stroke="#5D5D6D" stroke-width="2" stroke-linecap="round" stroke-linejoin="round" stroke-miterlimit="10" fill="none" fill-rule="evenodd"/><path d="M442.657 183.431 433.169 186.743C432.329 186.997 431.406 186.659 430.986 185.893L422.506 168.561C422 167.627 422.506 166.353 423.597 166.014L437.619 161.341C438.71 161 439.801 161.679 439.97 162.786L443.917 181.477C444 182.327 443.497 183.176 442.657 183.431Z" stroke="#5D5D6D" stroke-width="2" stroke-linecap="round" stroke-linejoin="round" stroke-miterlimit="10" fill="none" fill-rule="evenodd"/><path d="M440 180.997C440 180.997 439.317 175.027 439 174.003" stroke="#5D5D6D" stroke-width="2" stroke-linecap="round" stroke-linejoin="round" stroke-miterlimit="10" fill="none" fill-rule="evenodd"/><path d="M532.026 169.003 521 172.626 528.377 190.997 537 188.197 532.026 169.003Z" stroke="#5D5D6D" stroke-width="2" stroke-linejoin="round" stroke-miterlimit="10" fill="#FFFFFF" fill-rule="evenodd"/><path d="M537.58 185 526 188.754 527.417 193 538.997 189.246 537.58 185Z" stroke="#5D5D6D" stroke-width="2" stroke-linecap="round" stroke-linejoin="round" stroke-miterlimit="10" fill="#FFFFFF" fill-rule="evenodd"/><path d="M517.003 233.003 524 275.997" stroke="#000000" stroke-width="2" stroke-linejoin="round" stroke-miterlimit="10" fill="#FFFFFF" fill-rule="evenodd"/><path d="M517.003 233.003 524 275.997" stroke="#5D5D6D" stroke-width="2" stroke-linecap="round" stroke-linejoin="round" stroke-miterlimit="10" fill="none" fill-rule="evenodd"/></g></svg>