<svg width="61" height="60" xmlns="http://www.w3.org/2000/svg" xmlns:xlink="http://www.w3.org/1999/xlink" overflow="hidden"><defs><clipPath id="clip0"><rect x="341" y="183" width="61" height="60"/></clipPath></defs><g clip-path="url(#clip0)" transform="translate(-341 -183)"><path d="M371.471 186.284C386.527 186.284 398.659 198.429 398.659 213.5 398.659 228.507 386.527 240.652 371.471 240.652 356.479 240.652 344.346 228.507 344.346 213.5 344.346 198.429 356.479 186.284 371.471 186.284ZM371.471 184.505C363.783 184.505 356.479 187.491 351.015 192.96 345.552 198.493 342.505 205.804 342.505 213.5 342.505 221.196 345.552 228.507 351.015 233.976 356.479 239.509 363.783 242.495 371.471 242.495 379.218 242.495 386.527 239.509 391.99 233.976 397.448 228.507 400.5 221.196 400.5 213.5 400.5 205.804 397.448 198.493 391.99 192.96 386.527 187.491 379.218 184.505 371.471 184.505Z" stroke="#005A35" stroke-linejoin="round" stroke-miterlimit="10" fill="#005A35" fill-rule="evenodd"/><path d="M379.075 199.5C374.325 199.5 370.335 203.171 369.952 207.852 369.005 207.724 367.043 207.156 366.532 206.964 363.239 205.891 360.202 203.803 357.856 201.211 357.67 201.083 357.543 200.956 357.287 200.892 357.25 200.887 357.208 200.881 357.165 200.881 356.819 200.881 356.452 201.115 356.34 201.397 355.766 202.539 355.452 203.803 355.452 205.068 355.452 206.901 356.021 208.675 357.032 210.003 356.979 209.993 356.926 209.987 356.872 209.987 356.612 209.987 356.356 210.11 356.149 210.317 356.021 210.444 356.021 210.699 355.958 210.885L355.958 211.204C355.958 213.605 357.032 215.821 358.872 217.34 358.681 217.404 358.617 217.59 358.553 217.654 358.489 217.909 358.367 218.164 358.489 218.35 359.25 220.879 361.213 222.903 363.686 223.663 361.468 224.991 358.936 225.75 356.277 225.75L355.516 225.75C355.069 225.75 354.692 226.069 354.564 226.51 354.5 226.893 354.755 227.334 355.069 227.461 358.367 229.422 362.293 230.495 366.154 230.495 370.84 230.495 375.271 229.039 378.947 226.383 379.452 226.069 379.452 225.309 379.075 224.927 378.899 224.757 378.67 224.656 378.431 224.656 378.239 224.656 378.043 224.725 377.872 224.869 374.516 227.206 370.527 228.662 366.154 228.662 363.686 228.662 361.213 228.157 359 227.334 361.782 226.829 364.319 225.623 366.532 223.854 366.787 223.599 366.915 223.285 366.851 222.967 366.787 222.589 366.41 222.271 365.963 222.271 363.75 222.148 361.782 221.006 360.708 219.109 361.149 219.109 361.723 218.982 362.165 218.854 362.606 218.796 362.926 218.477 362.926 218.036 362.989 217.59 362.67 217.213 362.165 217.022 359.819 216.453 358.048 214.493 357.67 212.15L357.67 212.15C358.367 212.277 359.122 212.341 359.819 212.341 360.266 212.341 360.58 212.028 360.708 211.581 360.771 211.204 360.516 210.885 360.202 210.699 358.239 209.493 357.032 207.405 357.032 205.068 357.032 204.563 357.096 203.995 357.287 203.421 359.633 205.828 362.606 207.597 365.777 208.675 365.777 208.675 368.942 209.621 370.08 209.685L370.585 209.685C370.968 209.685 371.346 209.43 371.473 209.052 371.537 208.989 371.537 208.797 371.537 208.734L371.537 208.548C371.537 204.563 374.766 201.275 378.819 201.275 380.782 201.275 382.622 202.093 384.016 203.485 384.208 203.681 384.399 203.761 384.622 203.761 384.692 203.761 384.761 203.756 384.835 203.74 385.787 203.548 386.676 203.421 387.495 203.107L387.495 203.107C387.053 203.548 386.484 204.053 385.851 204.372 385.468 204.627 385.282 205.068 385.468 205.573 385.596 205.891 386.043 206.141 386.42 206.141 387.181 206.019 387.942 205.955 388.638 205.7L388.638 205.7C388.005 206.332 387.309 206.964 386.484 207.533 386.229 207.724 386.101 208.043 386.101 208.293L386.101 208.42 386.101 208.548 386.101 208.675C386.101 213.797 384.138 218.477 380.973 221.957 380.66 222.334 380.66 222.903 380.973 223.222 381.154 223.402 381.378 223.482 381.606 223.482 381.856 223.482 382.106 223.386 382.303 223.222 385.851 219.237 387.814 214.174 387.942 208.797 389.585 207.597 390.915 206.141 392.059 204.372 392.5 204.053 392.436 203.485 392.059 203.299 391.888 203.129 391.665 203.044 391.399 203.044 391.266 203.044 391.128 203.065 390.979 203.107 390.537 203.357 390.032 203.485 389.585 203.676 390.032 203.044 390.473 202.22 390.793 201.46 390.851 201.147 390.851 200.764 390.601 200.515 390.404 200.313 390.154 200.217 389.92 200.217 389.777 200.217 389.644 200.254 389.521 200.324 388.128 201.147 386.739 201.588 385.218 201.843 383.569 200.26 381.351 199.5 379.075 199.5Z" stroke="#005A35" stroke-linejoin="round" stroke-miterlimit="10" fill="#005A35" fill-rule="evenodd"/></g></svg>