<svg width="43" height="45" xmlns="http://www.w3.org/2000/svg" xmlns:xlink="http://www.w3.org/1999/xlink" overflow="hidden"><defs><clipPath id="clip0"><rect x="836" y="242" width="43" height="45"/></clipPath></defs><g clip-path="url(#clip0)" transform="translate(-836 -242)"><path d="M862.384 243.284 862.384 245.161C862.384 245.256 862.285 245.355 862.087 245.355L853.931 245.355C853.733 245.355 853.733 245.256 853.733 245.161L853.733 243.284ZM870.346 249.746C871.328 249.746 872.311 250.388 872.41 251.668L872.41 252.654C872.311 253.889 871.328 254.506 870.346 254.506 869.364 254.506 868.377 253.889 868.282 252.654L868.282 251.668C868.377 250.388 869.364 249.746 870.346 249.746ZM872.311 255.318C873.59 255.91 874.473 257.095 874.766 258.574 873.491 259.559 872.017 260.056 870.445 260.056L870.346 260.056C868.773 260.056 867.201 259.559 866.02 258.574 866.218 257.095 867.102 255.91 868.476 255.318 869.017 255.715 869.681 255.91 870.358 255.91 871.031 255.91 871.72 255.715 872.311 255.318ZM858.706 258.184C858.549 258.184 858.393 258.238 858.256 258.379L853.634 263.014 853.634 261.138C853.584 260.744 853.291 260.549 852.998 260.549 852.701 260.549 852.408 260.744 852.358 261.138L852.358 264.592C852.358 264.986 852.651 265.284 853.043 265.284L856.486 265.284C856.779 265.284 857.076 264.986 857.076 264.592 857.076 264.199 856.779 264 856.486 264L854.521 264 859.239 259.265C859.689 258.81 859.218 258.184 858.706 258.184ZM859.829 262.72C859.433 262.72 859.239 263.014 859.14 263.408 859.14 263.706 859.433 264 859.73 264L861.695 264 857.076 268.735C856.622 269.19 857.039 269.82 857.522 269.82 857.67 269.82 857.823 269.762 857.959 269.625L862.578 264.986 862.578 266.862C862.578 267.156 862.875 267.455 863.267 267.455 863.659 267.455 863.957 267.156 863.957 266.862L863.957 263.408C863.957 263.014 863.659 262.72 863.267 262.72ZM845.28 272.384 845.379 272.782C845.577 273.275 846.068 273.668 846.654 273.668L849.605 273.668 849.506 277.711 842.135 277.711 842.135 272.384ZM842.036 271.005C841.346 271.104 840.855 271.696 840.855 272.384L840.855 277.711C840.855 278.403 841.346 278.995 842.036 278.995L849.407 278.995C850.196 278.995 850.786 278.403 850.786 277.711L850.786 273.668C850.786 272.976 850.196 272.384 849.407 272.384L846.654 272.384 846.559 271.991C846.361 271.398 845.87 271.005 845.28 271.005ZM867.692 243.284C868.476 243.284 869.264 243.777 869.458 244.568 868.084 244.664 866.71 245.256 865.529 246.047 864.964 246.453 865.327 247.257 865.855 247.257 865.971 247.257 866.095 247.219 866.218 247.132 867.572 246.163 868.98 245.745 870.321 245.745 875.687 245.745 879.996 252.439 875.753 257.488L875.753 257.588C875.258 256.208 874.374 255.123 873.194 254.431 873.491 253.839 873.685 253.246 873.59 252.654L873.59 251.668C873.734 249.303 872.017 248.118 870.296 248.118 868.575 248.118 866.854 249.303 867.003 251.668L867.003 252.654C867.003 253.246 867.201 253.839 867.494 254.431 866.313 255.123 865.331 256.208 864.939 257.588 862.875 255.222 862.677 251.768 864.349 249.204 864.687 248.661 864.283 248.164 863.833 248.164 863.63 248.164 863.42 248.267 863.267 248.512 862.384 249.796 861.992 251.374 861.992 252.952 861.992 257.294 865.331 260.943 869.657 261.336L869.657 282.744C869.657 283.829 868.773 284.716 867.692 284.716L848.524 284.716C847.641 284.716 846.951 284.124 846.654 283.336 848.326 283.237 849.898 282.545 851.178 281.46 851.471 281.265 851.471 280.868 851.277 280.574 851.17 280.412 850.971 280.337 850.782 280.337 850.629 280.337 850.48 280.387 850.39 280.474 848.957 281.651 847.385 282.16 845.87 282.16 841.152 282.16 837 277.218 839.382 271.991 840.715 269.153 843.241 267.865 845.758 267.865 849.366 267.865 852.949 270.516 852.949 275.048 852.949 276.133 852.651 277.318 852.061 278.304 851.801 278.83 852.239 279.269 852.672 279.269 852.891 279.269 853.109 279.161 853.242 278.896 855.995 273.569 852.552 267.156 846.559 266.564L846.559 245.256C846.559 244.171 847.343 243.284 848.524 243.284L852.457 243.284 852.457 245.161C852.457 245.948 853.143 246.639 853.931 246.639L862.186 246.639C862.974 246.639 863.659 245.948 863.659 245.161L863.659 243.284ZM848.524 242C846.654 242 845.28 243.483 845.28 245.256L845.28 266.664C840.855 266.862 837.318 270.611 837.318 275.048 837.318 279.488 840.855 283.237 845.28 283.436 845.577 284.915 846.852 286 848.425 286L867.593 286C869.364 286 870.837 284.616 870.837 282.844L870.837 261.336C875.258 261.138 878.7 257.393 878.7 252.952 878.7 248.512 875.163 244.763 870.738 244.568L870.837 244.568C870.54 243.085 869.264 242 867.692 242Z" fill="#005A35" fill-rule="evenodd"/></g></svg>