<svg width="45" height="45" xmlns="http://www.w3.org/2000/svg" xmlns:xlink="http://www.w3.org/1999/xlink" overflow="hidden"><defs><clipPath id="clip0"><rect x="559" y="242" width="45" height="45"/></clipPath></defs><g clip-path="url(#clip0)" transform="translate(-559 -242)"><path d="M586.045 243.189 586.045 245.065C586.045 245.26 585.945 245.359 585.846 245.359L577.562 245.359C577.462 245.26 577.363 245.26 577.363 245.065L577.462 243.189ZM568.387 251.473C568.98 251.473 569.373 251.97 569.373 252.558L569.373 253.15C569.373 253.742 568.98 254.136 568.387 254.136 567.895 254.136 567.402 253.742 567.402 253.15L567.402 252.558C567.402 251.97 567.895 251.473 568.387 251.473ZM595.613 251.473C596.205 251.473 596.698 251.97 596.698 252.558L596.698 253.15C596.698 253.742 596.205 254.136 595.613 254.136 595.12 254.136 594.627 253.742 594.627 253.15L594.627 252.558C594.627 251.97 595.12 251.473 595.613 251.473ZM568.387 249.207C571.742 249.207 573.714 252.955 571.842 255.714 571.544 255.026 571.051 254.534 570.458 254.136 570.657 253.842 570.657 253.448 570.657 253.15L570.657 252.558C570.657 251.029 569.522 250.267 568.387 250.267 567.253 250.267 566.118 251.029 566.118 252.558L566.118 253.15C566.118 253.448 566.217 253.842 566.316 254.136 566.118 254.235 566.022 254.335 565.824 254.434 565.53 254.828 565.231 255.221 565.032 255.714 563.061 252.955 565.032 249.207 568.387 249.207ZM582.048 252.214C582.714 252.214 583.381 252.657 583.481 253.548L583.481 254.335C583.58 255.321 582.814 255.813 582.048 255.813 581.286 255.813 580.519 255.321 580.619 254.335L580.619 253.548C580.718 252.657 581.385 252.214 582.048 252.214ZM569.671 255.126C570.264 255.42 570.657 256.012 570.856 256.704 570.164 257.197 569.278 257.491 568.387 257.491 567.501 257.491 566.615 257.197 565.923 256.704 566.022 256.211 566.316 255.813 566.71 255.42 566.809 255.321 567.008 255.221 567.203 255.126 567.501 255.321 567.994 255.42 568.387 255.42 568.781 255.42 569.278 255.321 569.671 255.126ZM596.897 255.126C597.584 255.42 597.982 256.012 598.176 256.704 597.439 257.247 596.573 257.516 595.724 257.516 594.871 257.516 594.034 257.247 593.343 256.704 593.442 256.211 593.74 255.813 594.034 255.519L593.935 255.42C594.134 255.321 594.233 255.221 594.428 255.126 594.821 255.321 595.219 255.42 595.712 255.42 596.105 255.42 596.499 255.321 596.897 255.126ZM582.002 249.306C586.438 249.306 588.907 254.235 586.243 257.69 585.846 256.799 585.253 256.012 584.467 255.519 584.665 255.126 584.761 254.728 584.761 254.335L584.761 253.548C584.761 251.771 583.406 250.884 582.048 250.884 580.693 250.884 579.339 251.771 579.339 253.548L579.339 254.335C579.339 254.728 579.434 255.126 579.633 255.519 579.434 255.619 579.239 255.813 579.041 256.012 578.448 256.505 578.055 257.097 577.856 257.69 577.168 256.799 576.771 255.714 576.771 254.534 576.771 251.572 579.14 249.306 582.002 249.306ZM583.481 256.505C584.367 256.998 584.959 257.789 585.158 258.676 584.268 259.367 583.087 259.761 582.002 259.761 580.817 259.761 579.732 259.367 578.846 258.676 578.941 258.083 579.339 257.491 579.832 256.998 580.026 256.799 580.225 256.605 580.519 256.505 580.846 256.75 581.302 256.923 581.729 256.923 581.824 256.923 581.911 256.915 582.002 256.899 582.089 256.915 582.18 256.923 582.271 256.923 582.698 256.923 583.154 256.75 583.481 256.505ZM582.06 247.96C578.693 247.96 575.458 250.59 575.391 254.534 575.491 258.083 578.349 261.041 582.002 261.041 587.822 261.041 590.779 254.041 586.637 249.895 585.299 248.561 583.663 247.96 582.06 247.96ZM568.387 260.055C568.093 260.055 567.795 260.353 567.795 260.746L567.795 263.609C567.795 264.002 568.093 264.296 568.387 264.296 568.781 264.296 569.079 264.002 569.079 263.609L569.079 260.746C569.079 260.353 568.781 260.055 568.387 260.055ZM595.613 260.055C595.219 260.055 594.921 260.353 594.921 260.647L594.921 263.609C594.921 264.002 595.219 264.296 595.613 264.296 596.006 264.296 596.304 264.002 596.205 263.609L596.205 260.647C596.205 260.353 596.006 260.055 595.613 260.055ZM582.002 262.424C581.704 262.424 581.41 262.718 581.41 263.016L581.41 266.765C581.41 267.059 581.704 267.357 582.002 267.357 582.396 267.357 582.69 267.059 582.69 266.765L582.69 263.016C582.69 262.718 582.396 262.424 582.002 262.424ZM567.203 269.623 570.164 271.3 567.203 272.978 567.203 269.623ZM594.428 269.722 597.389 271.4 594.428 273.077 594.428 269.722ZM586.045 272.187C586.832 272.187 587.229 273.077 586.637 273.669 586.484 273.823 586.285 273.889 586.082 273.889 585.626 273.889 585.158 273.553 585.158 273.077 585.158 272.584 585.552 272.187 586.045 272.187ZM566.76 268.069C566.615 268.069 566.466 268.094 566.316 268.144 566.022 268.343 565.923 268.637 565.923 268.935L565.923 273.765C565.923 274.063 566.022 274.357 566.316 274.456 566.466 274.556 566.615 274.605 566.76 274.605 566.909 274.605 567.058 274.556 567.203 274.456L571.349 272.091C571.643 271.892 571.842 271.598 571.842 271.3 571.842 271.006 571.643 270.708 571.349 270.513L567.203 268.144C567.058 268.094 566.909 268.069 566.76 268.069ZM594.084 268.094C593.935 268.094 593.786 268.144 593.641 268.243 593.343 268.343 593.148 268.637 593.148 268.935L593.148 273.765C593.148 274.063 593.343 274.357 593.641 274.556 593.74 274.605 593.885 274.63 594.047 274.63 594.208 274.63 594.378 274.605 594.527 274.556L598.669 272.091C598.968 271.992 599.063 271.694 599.162 271.4 599.063 271.006 598.968 270.708 598.669 270.608L594.527 268.243C594.378 268.144 594.233 268.094 594.084 268.094ZM586.065 270.853C584.964 270.853 583.874 271.739 583.874 273.077 583.874 274.262 584.86 275.148 586.045 275.148 587.917 275.148 588.907 272.878 587.523 271.499 587.113 271.052 586.587 270.853 586.065 270.853ZM601.825 266.86C602.318 266.86 602.716 267.357 602.716 267.85L602.716 274.85C602.716 275.347 602.223 275.74 601.726 275.74L591.272 275.74 591.272 270.513C591.272 269.428 590.385 268.538 589.3 268.538L588.509 268.538 588.509 267.85C588.509 267.357 588.907 266.86 589.495 266.86ZM574.6 266.86C575.097 266.86 575.491 267.357 575.491 267.85L575.491 268.637 574.7 268.637C573.615 268.637 572.728 269.523 572.728 270.608L572.728 275.84 562.274 275.74C561.682 275.74 561.288 275.347 561.288 274.85L561.288 267.85C561.288 267.357 561.682 266.86 562.274 266.86ZM579.732 276.428 582.69 280.574 576.676 280.574 579.732 276.428ZM584.467 277.418 587.229 280.574 584.268 280.574 583.087 278.996 584.467 277.418ZM590.679 243.189C591.765 243.189 592.556 244.075 592.556 245.16L592.556 248.809C589.495 250.98 589.495 255.619 592.556 257.69L592.556 265.481 589.495 265.481C588.314 265.481 587.329 266.467 587.329 267.751L587.329 268.538 582.988 268.538C582.197 268.637 582.197 269.722 582.988 269.822L589.4 269.822C589.793 269.822 590.087 270.116 590.087 270.414L590.087 276.333 590.087 279.882C590.087 280.276 589.793 280.574 589.4 280.574L589.002 280.574 585.452 276.527C585.253 276.233 584.86 276.134 584.566 276.134 584.168 276.134 583.775 276.233 583.58 276.527L582.396 277.811 580.718 275.641C580.519 275.247 580.126 275.049 579.732 275.049 579.339 275.049 578.941 275.247 578.747 275.641L575.097 280.574 574.7 280.574C574.306 280.574 574.107 280.276 574.107 279.882L574.107 276.527 574.107 270.608C574.012 270.215 574.306 269.921 574.7 269.921L580.026 269.921C580.718 269.822 580.718 268.736 580.026 268.637L576.87 268.637 576.87 267.85C576.87 266.665 575.785 265.58 574.6 265.58L571.544 265.58 571.544 257.884C573.022 256.799 573.813 255.221 573.813 253.349 573.813 251.671 573.022 249.994 571.544 248.909L571.544 245.16C571.544 244.075 572.434 243.189 573.42 243.189L576.183 243.189 576.183 245.065C576.183 245.951 576.87 246.643 577.661 246.643L585.945 246.643C586.736 246.643 587.424 245.951 587.424 245.065L587.424 243.189ZM592.556 277.02 592.556 282.645C592.556 283.73 591.665 284.617 590.58 284.617L573.42 284.617C572.434 284.617 571.544 283.73 571.544 282.645L571.544 277.02 572.728 277.02 572.728 279.982C572.728 280.968 573.615 281.854 574.7 281.854L589.4 281.854C590.485 281.854 591.371 280.968 591.371 279.982L591.371 277.02ZM573.25 242C571.556 242 570.264 243.441 570.264 245.16L570.264 248.221C569.671 248.022 569.079 247.923 568.387 247.923 561.189 247.923 561.189 258.775 568.387 258.775 569.079 258.775 569.671 258.676 570.264 258.477L570.264 265.58 562.274 265.58C560.99 265.58 560.004 266.566 560.104 267.85L560.104 274.85C560.104 276.134 561.089 277.12 562.274 277.12L570.264 277.12 570.264 282.744C570.264 284.517 571.643 285.996 573.42 285.996L590.58 285.996C592.456 285.996 593.836 284.517 593.836 282.744L593.836 277.12 601.825 277.12C603.01 277.12 603.996 276.134 603.996 274.85L603.996 267.85C603.996 266.665 603.01 265.58 601.825 265.58L593.836 265.58 593.836 258.477C594.432 258.676 595.029 258.771 595.613 258.771 598.508 258.771 601.039 256.468 601.039 253.349 601.039 252.363 600.84 251.377 600.247 250.586 600.181 250.325 599.941 250.193 599.701 250.193 599.581 250.193 599.46 250.226 599.361 250.292 599.063 250.487 598.968 250.884 599.162 251.179 600.053 252.558 599.953 254.335 599.063 255.714 598.769 255.026 598.276 254.534 597.684 254.136 597.882 253.842 597.982 253.448 597.982 253.15L597.982 252.558C597.982 251.029 596.822 250.267 595.662 250.267 594.503 250.267 593.343 251.029 593.343 252.558L593.343 253.15C593.343 253.448 593.442 253.842 593.542 254.136 593.442 254.235 593.243 254.335 593.148 254.534 592.75 254.828 592.456 255.221 592.258 255.714 590.385 252.955 592.357 249.306 595.613 249.306 596.205 249.306 596.698 249.402 597.191 249.6 597.282 249.625 597.373 249.638 597.452 249.638 597.721 249.638 597.928 249.505 598.077 249.207 598.176 248.909 598.077 248.515 597.684 248.416 597.199 248.172 596.644 247.998 596.023 247.998 595.89 247.998 595.753 248.006 595.613 248.022 595.505 248.006 595.397 247.998 595.285 247.998 594.805 247.998 594.32 248.155 593.836 248.316L593.836 245.26C593.836 243.446 592.543 242 590.758 242 590.7 242 590.642 242.004 590.58 242.004L573.42 242.004C573.362 242.004 573.308 242 573.25 242Z" fill="#005A35" fill-rule="evenodd"/></g></svg>