<svg width="41" height="39" xmlns="http://www.w3.org/2000/svg" xmlns:xlink="http://www.w3.org/1999/xlink" overflow="hidden"><defs><clipPath id="clip0"><rect x="143" y="414" width="41" height="39"/></clipPath></defs><g clip-path="url(#clip0)" transform="translate(-143 -414)"><path d="M170.345 419 170.158 419.104 169.984 419.205 169.811 419.333 169.637 419.461 169.464 419.6 169.303 419.752 169.143 419.904 168.996 420.083 168.996 420.389 168.996 420.466 169.25 420.567 169.477 420.669 169.718 420.796 169.944 420.91 170.172 421.05 170.385 421.177 170.599 421.332 170.8 421.472 171 421.624 171.201 421.79 171.387 421.954 171.561 422.132 171.735 422.311 171.895 422.489 172.056 422.68 172.203 422.87 172.35 423.075 172.484 423.278 172.617 423.483 172.737 423.7 172.844 423.914 172.951 424.131 173.044 424.36 173.125 424.589 173.192 424.819 173.258 425.048 173.325 425.291 173.365 425.532 173.405 425.773 173.432 426.015 173.446 426.27 173.446 426.526 173.446 426.74 173.432 426.969 173.405 427.186 173.379 427.404 173.298 427.835 173.192 428.243 173.446 428.421 173.686 428.614 173.913 428.804 174.141 429.019 174.341 429.236 174.528 429.465 174.702 429.709 174.862 429.95 175.009 430.218 175.129 430.485 175.236 430.75 175.33 431.033 175.396 431.324 175.45 431.616 175.477 431.91 175.49 432.217 175.477 432.47 175.463 432.713 175.423 432.954 175.37 433.196 175.316 433.437 175.236 433.666 175.143 433.897 175.049 434.126 174.929 434.341 174.809 434.558 174.675 434.763 174.528 434.953 174.367 435.156 174.207 435.334 174.033 435.513 173.847 435.679 173.646 435.843 173.446 435.997 173.232 436.149 173.018 436.289 172.791 436.417 172.55 436.53 172.31 436.634 172.056 436.735 171.802 436.825 171.548 436.899 171.281 436.964 171 437.027 170.733 437.066 170.452 437.104 170.158 437.116 169.878 437.131 169.37 437.131 169.276 437.536 169.156 437.931 169.009 438.315 168.822 438.684 168.621 439.038 168.395 439.383 168.141 439.701 167.873 440.008 167.579 440.299 167.258 440.567 166.924 440.808 166.577 441.037 166.203 441.242 165.815 441.421 165.415 441.572 165.001 441.7 165.161 442.031 165.321 442.375 165.521 442.694 165.735 442.998 166.15 442.846 166.55 442.694 166.938 442.501 167.325 442.298 167.686 442.069 168.034 441.828 168.368 441.572 168.675 441.293 168.982 440.999 169.263 440.683 169.53 440.364 169.771 440.02 169.998 439.675 170.198 439.306 170.385 438.925 170.546 438.544 170.84 438.505 171.147 438.467 171.441 438.416 171.735 438.351 172.029 438.276 172.31 438.187 172.59 438.083 172.871 437.982 173.138 437.869 173.405 437.741 173.673 437.601 173.927 437.449 174.167 437.283 174.407 437.116 174.648 436.938 174.875 436.747 175.116 436.518 175.356 436.277 175.584 436.034 175.784 435.78 175.971 435.513 176.145 435.233 176.305 434.965 176.452 434.674 176.586 434.379 176.693 434.088 176.786 433.781 176.867 433.475 176.92 433.171 176.973 432.853 177 432.535 177 432.217 177 431.898 176.973 431.58 176.92 431.262 176.867 430.943 176.786 430.637 176.679 430.345 176.573 430.039 176.439 429.745 176.305 429.465 176.145 429.185 175.971 428.906 175.77 428.65 175.57 428.397 175.356 428.141 175.116 427.912 174.875 427.683 174.889 427.606 174.915 427.341 174.942 427.059 174.956 426.793 174.969 426.526 174.956 426.246 174.942 425.978 174.915 425.711 174.889 425.455 174.835 425.187 174.782 424.92 174.728 424.667 174.648 424.411 174.568 424.158 174.475 423.902 174.381 423.661 174.274 423.418 174.154 423.176 174.02 422.947 173.887 422.706 173.753 422.477 173.593 422.26 173.446 422.031 173.272 421.828 173.098 421.611 172.911 421.407 172.724 421.204 172.537 421.013 172.323 420.821 172.123 420.645 171.895 420.466 171.668 420.288 171.441 420.121 171.201 419.969 170.96 419.815 170.706 419.663 170.452 419.523 170.412 419.256 170.345 419Z" fill="#02905D" fill-rule="evenodd"/><path d="M155.655 419 155.588 419.256 155.548 419.523 155.107 419.779 154.679 420.032 154.278 420.326 153.891 420.63 153.53 420.948 153.183 421.293 152.862 421.662 152.555 422.031 152.381 422.287 152.207 422.54 152.047 422.807 151.9 423.075 151.767 423.343 151.633 423.623 151.526 423.89 151.419 424.182 151.325 424.462 151.258 424.744 151.192 425.036 151.138 425.327 151.085 425.622 151.058 425.928 151.045 426.22 151.031 426.526 151.045 426.818 151.058 427.097 151.085 427.391 151.125 427.683 150.938 427.85 150.751 428.04 150.577 428.219 150.404 428.421 150.243 428.614 150.096 428.817 149.949 429.034 149.815 429.248 149.628 429.593 149.468 429.95 149.321 430.307 149.201 430.676 149.121 431.057 149.054 431.44 149.014 431.821 149 432.217 149 432.52 149.027 432.827 149.067 433.118 149.121 433.425 149.201 433.719 149.281 433.999 149.388 434.278 149.495 434.558 149.628 434.826 149.762 435.081 149.922 435.334 150.083 435.59 150.27 435.831 150.457 436.06 150.657 436.289 150.871 436.506 151.098 436.709 151.325 436.914 151.566 437.104 151.82 437.283 152.087 437.449 152.354 437.601 152.635 437.753 152.929 437.893 153.223 438.021 153.517 438.136 153.824 438.226 154.145 438.315 154.466 438.39 154.787 438.455 155.121 438.505 155.455 438.544 155.548 438.758 155.641 438.988 155.748 439.205 155.855 439.41 155.976 439.624 156.109 439.829 156.243 440.032 156.376 440.222 156.524 440.427 156.67 440.606 156.831 440.796 157.004 440.974 157.178 441.153 157.352 441.317 157.539 441.483 157.726 441.635 158.007 441.867 158.314 442.069 158.608 442.26 158.929 442.438 159.25 442.59 159.584 442.744 159.918 442.872 160.265 442.998 160.479 442.694 160.679 442.375 160.839 442.031 161 441.7 161 441.688 160.679 441.599 160.372 441.495 160.064 441.37 159.77 441.23 159.49 441.076 159.223 440.912 158.956 440.733 158.702 440.54 158.515 440.376 158.314 440.198 158.14 440.02 157.967 439.829 157.806 439.639 157.646 439.434 157.499 439.231 157.365 439.014 157.232 438.797 157.111 438.58 157.004 438.351 156.911 438.11 156.818 437.869 156.75 437.625 156.684 437.372 156.63 437.131 156.123 437.131 155.829 437.116 155.548 437.104 155.267 437.066 154.987 437.027 154.719 436.964 154.452 436.899 154.198 436.825 153.944 436.735 153.69 436.634 153.45 436.53 153.21 436.417 152.982 436.289 152.769 436.149 152.555 435.997 152.354 435.843 152.154 435.691 151.967 435.513 151.793 435.334 151.633 435.156 151.472 434.953 151.325 434.763 151.192 434.558 151.072 434.341 150.951 434.126 150.858 433.897 150.764 433.666 150.684 433.437 150.63 433.196 150.577 432.954 150.537 432.713 150.524 432.47 150.51 432.217 150.524 431.91 150.55 431.616 150.604 431.324 150.67 431.033 150.764 430.75 150.871 430.485 150.991 430.218 151.138 429.95 151.298 429.709 151.472 429.465 151.659 429.236 151.86 429.019 152.087 428.804 152.314 428.614 152.555 428.421 152.809 428.243 152.702 427.835 152.648 427.621 152.621 427.404 152.595 427.186 152.568 426.969 152.555 426.74 152.555 426.526 152.555 426.27 152.568 426.015 152.595 425.773 152.635 425.532 152.675 425.291 152.742 425.048 152.795 424.819 152.875 424.589 152.956 424.36 153.049 424.131 153.156 423.914 153.263 423.7 153.383 423.483 153.517 423.278 153.65 423.075 153.798 422.87 153.944 422.68 154.105 422.489 154.265 422.311 154.439 422.132 154.613 421.954 154.8 421.79 155 421.624 155.201 421.472 155.401 421.332 155.615 421.177 155.829 421.05 156.056 420.91 156.283 420.796 156.524 420.669 156.75 420.567 157.004 420.466 156.991 420.389 157.004 420.083 156.858 419.904 156.697 419.752 156.537 419.6 156.363 419.461 156.19 419.333 156.016 419.205 155.829 419.104 155.655 419Z" fill="#02905D" fill-rule="evenodd"/><path d="M163.205 415.002 162.902 415.027 162.614 415.054 162.325 415.106 162.05 415.158 161.775 415.225 161.5 415.302 161.239 415.393 160.978 415.499 160.731 415.616 160.483 415.734 160.25 415.863 160.016 416.006 159.796 416.165 159.59 416.32 159.384 416.491 159.191 416.659 159.013 416.842 158.834 417.04 158.683 417.235 158.532 417.443 158.381 417.653 158.257 417.873 158.147 418.096 158.037 418.331 157.941 418.566 157.872 418.815 157.803 419.05 157.748 419.31 157.707 419.557 157.693 419.819 157.68 420.082 157.68 420.146 157.432 420.25 157.185 420.368 156.951 420.485 156.718 420.616 156.484 420.747 156.264 420.89 156.044 421.034 155.825 421.189 155.618 421.348 155.426 421.516 155.233 421.686 155.055 421.869 154.876 422.052 154.697 422.235 154.533 422.431 154.382 422.626 154.23 422.836 154.093 423.044 153.969 423.254 153.845 423.474 153.722 423.697 153.625 423.919 153.529 424.154 153.447 424.389 153.365 424.624 153.295 424.859 153.24 425.106 153.186 425.356 153.158 425.603 153.131 425.863 153.117 426.113 153.103 426.372 153.103 426.595 153.117 426.83 153.144 427.052 153.172 427.275 153.213 427.495 153.254 427.717 153.378 428.148 153.103 428.318 152.856 428.514 152.622 428.724 152.402 428.931 152.182 429.154 151.99 429.389 151.811 429.636 151.647 429.898 151.509 430.158 151.372 430.432 151.262 430.707 151.179 430.994 151.097 431.295 151.055 431.595 151.014 431.896 151.001 432.208 151.014 432.47 151.042 432.732 151.069 432.979 151.124 433.227 151.193 433.474 151.262 433.709 151.358 433.946 151.468 434.181 151.578 434.401 151.701 434.611 151.839 434.834 151.99 435.029 152.155 435.225 152.32 435.42 152.512 435.603 152.705 435.774 152.897 435.942 153.103 436.1 153.323 436.256 153.557 436.399 153.79 436.53 154.024 436.646 154.285 436.753 154.533 436.857 154.794 436.948 155.069 437.025 155.343 437.092 155.618 437.156 155.907 437.195 156.196 437.235 156.484 437.247 156.786 437.262 157.295 437.262 157.35 437.509 157.419 437.769 157.501 438.019 157.597 438.266 157.693 438.513 157.803 438.748 157.927 438.971 158.065 439.206 158.202 439.416 158.353 439.636 158.518 439.834 158.683 440.042 158.861 440.225 159.04 440.408 159.233 440.591 159.439 440.759 159.728 440.969 160.016 441.164 160.319 441.347 160.635 441.518 160.964 441.661 161.294 441.792 161.651 441.909 161.995 442 165.005 442 165.225 441.936 165.445 441.881 165.665 441.805 165.871 441.726 166.283 441.555 166.682 441.347 167.067 441.125 167.424 440.865 167.767 440.591 168.084 440.289 168.386 439.977 168.647 439.636 168.894 439.273 169.114 438.892 169.307 438.513 169.389 438.306 169.472 438.11 169.54 437.9 169.609 437.678 169.664 437.47 169.706 437.262 170.214 437.262 170.516 437.247 170.805 437.235 171.094 437.195 171.382 437.156 171.657 437.092 171.932 437.025 172.207 436.948 172.467 436.857 172.729 436.753 172.976 436.646 173.21 436.53 173.443 436.399 173.677 436.256 173.897 436.1 174.103 435.942 174.309 435.774 174.502 435.603 174.681 435.42 174.845 435.225 175.01 435.029 175.161 434.834 175.299 434.611 175.423 434.401 175.546 434.181 175.643 433.946 175.739 433.709 175.821 433.474 175.876 433.227 175.931 432.979 175.973 432.732 175.986 432.47 176 432.208 175.986 431.896 175.958 431.595 175.903 431.295 175.835 431.009 175.739 430.707 175.629 430.432 175.491 430.158 175.354 429.898 175.189 429.636 175.01 429.389 174.818 429.154 174.612 428.931 174.378 428.724 174.144 428.514 173.897 428.318 173.636 428.148 173.746 427.717 173.828 427.275 173.856 427.052 173.884 426.83 173.897 426.595 173.897 426.372 173.897 426.113 173.884 425.863 173.856 425.603 173.814 425.356 173.76 425.106 173.705 424.859 173.636 424.624 173.567 424.389 173.471 424.154 173.375 423.919 173.279 423.697 173.155 423.474 173.045 423.254 172.908 423.044 172.77 422.836 172.619 422.626 172.467 422.431 172.303 422.235 172.138 422.052 171.959 421.869 171.767 421.686 171.574 421.516 171.382 421.348 171.176 421.189 170.956 421.034 170.75 420.89 170.516 420.747 170.296 420.616 170.049 420.485 169.815 420.368 169.568 420.25 169.32 420.146 169.32 420.082 169.307 419.819 169.293 419.557 169.252 419.31 169.197 419.05 169.142 418.815 169.06 418.566 168.963 418.331 168.867 418.096 168.743 417.873 168.619 417.653 168.482 417.443 168.331 417.235 168.166 417.04 167.988 416.842 167.809 416.659 167.617 416.491 167.41 416.32 167.204 416.165 166.984 416.006 166.75 415.863 166.517 415.734 166.27 415.616 166.022 415.499 165.761 415.393 165.5 415.302 165.225 415.225 164.95 415.158 164.675 415.106 164.386 415.054 164.098 415.027 163.796 415.002Z" fill="#7E92FF" fill-rule="evenodd"/><path d="M154.001 445.003 154.001 452 156.999 452 156.999 445.254 156.75 445.296 156.486 445.326 156.236 445.34 155.972 445.357 155.722 445.34 155.458 445.326 155.208 445.296 154.959 445.254 154.723 445.209 154.472 445.151 154.237 445.075 154.001 445.003Z" fill="#F46545" fill-rule="evenodd"/><path d="M173 445 172.609 445.105 172.205 445.179 171.8 445.224 171.381 445.241 171.033 445.224 170.684 445.196 170.335 445.136 170 445.06 170 452 173 452 173 445Z" fill="#FE7D56" fill-rule="evenodd"/><path d="M153.412 418.003 153.214 418.028 153.029 418.043 152.844 418.083 152.645 418.121 152.46 418.161 152.289 418.214 151.932 418.347 151.588 418.506 151.258 418.692 151.099 418.8 150.953 418.906 150.808 419.024 150.663 419.145 150.531 419.279 150.398 419.409 150.279 419.543 150.16 419.689 150.054 419.85 149.949 419.996 149.856 420.154 149.777 420.328 149.697 420.499 149.618 420.673 149.565 420.847 149.513 421.033 149.473 421.217 149.433 421.418 149.42 421.604 149.407 421.803 149.407 422.014 149.42 422.213 149.433 422.427 149.473 422.639 149.513 422.853 149.565 423.079 149.645 423.29 149.724 423.517 149.817 423.743 149.922 423.967 150.041 424.207 150.187 424.433 150.174 424.486 149.936 424.579 149.711 424.685 149.486 424.806 149.275 424.939 149.063 425.057 148.852 425.203 148.653 425.349 148.455 425.495 148.27 425.656 148.085 425.815 147.9 425.976 147.741 426.16 147.569 426.333 147.41 426.52 147.265 426.706 147.12 426.905 146.988 427.103 146.856 427.305 146.736 427.516 146.617 427.728 146.512 427.942 146.419 428.168 146.327 428.392 146.247 428.619 146.181 428.845 146.115 429.084 146.062 429.323 146.023 429.562 145.983 429.814 145.957 430.053 145.943 430.307 145.943 430.559 145.943 430.786 145.957 430.997 146.009 431.435 146.075 431.875 146.181 432.286 145.943 432.459 145.718 432.658 145.494 432.857 145.282 433.058 145.097 433.282 144.912 433.509 144.753 433.748 144.595 434 144.463 434.266 144.344 434.533 144.238 434.797 144.159 435.077 144.092 435.369 144.04 435.661 144.013 435.968 144 436.272 144.013 436.527 144.026 436.766 144.066 437.017 144.106 437.256 144.172 437.496 144.238 437.735 144.33 437.961 144.423 438.185 144.529 438.399 144.648 438.611 144.78 438.824 144.912 439.023 145.057 439.21 145.216 439.396 145.388 439.582 145.56 439.753 145.745 439.914 145.943 440.073 146.142 440.219 146.353 440.352 146.578 440.486 146.79 440.604 147.027 440.712 147.265 440.805 147.503 440.896 147.754 440.976 148.005 441.044 148.257 441.097 148.521 441.137 148.799 441.163 149.063 441.19 149.817 441.19 149.87 441.442 149.922 441.694 150.002 441.948 150.081 442.187 150.174 442.426 150.279 442.65 150.398 442.877 150.517 443.091 150.649 443.315 150.781 443.516 150.927 443.715 151.085 443.914 151.258 444.1 151.429 444.286 151.601 444.457 151.786 444.618 151.984 444.777 152.183 444.923 152.394 445.069 152.606 445.19 152.817 445.323 153.042 445.429 153.28 445.534 153.505 445.628 153.756 445.708 153.994 445.786 154.245 445.854 154.496 445.907 154.747 445.947 155.012 445.972 155.276 445.987 155.541 446 155.805 445.987 156.069 445.972 156.334 445.947 156.585 445.907 156.836 445.854 157.087 445.786 157.338 445.708 157.576 445.628 157.801 445.534 158.039 445.429 158.264 445.323 158.475 445.19 158.687 445.069 158.898 444.923 159.096 444.777 159.295 444.618 159.572 444.364 159.823 444.1 160.075 443.82 160.299 443.516 160.497 443.209 160.683 442.877 160.854 442.544 161 442.187 160.683 442.094 160.379 441.973 160.075 441.855 159.797 441.709 159.506 441.548 159.242 441.377 158.977 441.175 158.726 440.976 158.541 440.805 158.356 440.632 158.171 440.445 157.999 440.246 157.84 440.048 157.682 439.834 157.537 439.622 157.404 439.396 157.272 439.169 157.166 438.93 157.061 438.691 156.955 438.452 156.876 438.2 156.796 437.946 156.73 437.682 156.677 437.43 156.175 437.43 155.898 437.415 155.62 437.402 155.342 437.362 155.064 437.322 154.8 437.256 154.536 437.189 154.271 437.11 154.02 437.017 153.782 436.924 153.545 436.803 153.306 436.685 153.082 436.552 152.857 436.406 152.659 436.247 152.447 436.086 152.262 435.928 152.077 435.741 151.905 435.555 151.733 435.369 151.588 435.17 151.442 434.959 151.31 434.745 151.178 434.518 151.072 434.294 150.967 434.068 150.887 433.828 150.808 433.574 150.755 433.335 150.702 433.083 150.663 432.832 150.649 432.565 150.636 432.301 150.649 431.981 150.676 431.674 150.729 431.37 150.795 431.065 150.887 430.786 150.993 430.494 151.112 430.214 151.258 429.948 151.416 429.683 151.588 429.444 151.773 429.203 151.971 428.963 152.183 428.752 152.407 428.541 152.659 428.354 152.91 428.168 152.791 427.728 152.751 427.516 152.711 427.29 152.685 427.063 152.672 426.824 152.659 426.6 152.645 426.374 152.659 426.107 152.672 425.843 152.698 425.588 152.738 425.337 152.777 425.085 152.831 424.833 152.897 424.592 152.976 424.353 153.055 424.113 153.148 423.874 153.254 423.65 153.359 423.424 153.478 423.197 153.597 422.986 153.729 422.772 153.875 422.573 154.02 422.362 154.179 422.175 154.351 421.974 154.51 421.788 154.694 421.617 154.88 421.43 155.064 421.272 155.263 421.098 155.474 420.952 155.673 420.806 155.898 420.66 156.109 420.527 156.334 420.394 156.572 420.275 156.809 420.154 157.047 420.049 157.047 419.981 157.061 419.649 156.902 419.465 156.743 419.304 156.585 419.145 156.413 418.999 156.241 418.866 156.069 418.732 155.884 418.627 155.699 418.521 155.527 418.428 155.329 418.335 155.144 418.267 154.959 418.201 154.76 418.148 154.576 418.096 154.377 418.055 154.192 418.028 153.994 418.015 153.795 418.003Z" fill="#7E92FF" fill-rule="evenodd"/><path d="M155.655 419 155.588 419.256 155.548 419.523 155.107 419.779 154.679 420.032 154.278 420.326 153.891 420.63 153.53 420.948 153.183 421.293 152.862 421.662 152.555 422.031 152.381 422.287 152.207 422.54 152.047 422.807 151.9 423.075 151.767 423.343 151.633 423.623 151.526 423.89 151.419 424.182 151.325 424.462 151.258 424.744 151.192 425.036 151.138 425.327 151.085 425.622 151.058 425.928 151.045 426.22 151.031 426.526 151.045 426.818 151.058 427.097 151.085 427.391 151.125 427.683 150.938 427.85 150.751 428.04 150.577 428.219 150.404 428.421 150.243 428.614 150.096 428.817 149.949 429.034 149.815 429.248 149.628 429.593 149.468 429.95 149.321 430.307 149.201 430.676 149.121 431.057 149.054 431.44 149.014 431.821 149 432.217 149 432.52 149.027 432.827 149.067 433.118 149.121 433.425 149.201 433.719 149.281 433.999 149.388 434.278 149.495 434.558 149.628 434.826 149.762 435.081 149.922 435.334 150.083 435.59 150.27 435.831 150.457 436.06 150.657 436.289 150.871 436.506 151.098 436.709 151.325 436.914 151.566 437.104 151.82 437.283 152.087 437.449 152.354 437.601 152.635 437.753 152.929 437.893 153.223 438.021 153.517 438.136 153.824 438.226 154.145 438.315 154.466 438.39 154.787 438.455 155.121 438.505 155.455 438.544 155.548 438.758 155.641 438.988 155.748 439.205 155.855 439.41 155.976 439.624 156.109 439.829 156.243 440.032 156.376 440.222 156.524 440.427 156.67 440.606 156.831 440.796 157.004 440.974 157.178 441.153 157.352 441.317 157.539 441.483 157.726 441.635 158.007 441.867 158.314 442.069 158.608 442.26 158.929 442.438 159.25 442.59 159.584 442.744 159.918 442.872 160.265 442.998 160.479 442.694 160.679 442.375 160.839 442.031 161 441.7 161 441.688 160.679 441.599 160.372 441.495 160.064 441.37 159.77 441.23 159.49 441.076 159.223 440.912 158.956 440.733 158.702 440.54 158.515 440.376 158.314 440.198 158.14 440.02 157.967 439.829 157.806 439.639 157.646 439.434 157.499 439.231 157.365 439.014 157.232 438.797 157.111 438.58 157.004 438.351 156.911 438.11 156.818 437.869 156.75 437.625 156.684 437.372 156.63 437.131 156.123 437.131 155.829 437.116 155.548 437.104 155.267 437.066 154.987 437.027 154.719 436.964 154.452 436.899 154.198 436.825 153.944 436.735 153.69 436.634 153.45 436.53 153.21 436.417 152.982 436.289 152.769 436.149 152.555 435.997 152.354 435.843 152.154 435.691 151.967 435.513 151.793 435.334 151.633 435.156 151.472 434.953 151.325 434.763 151.192 434.558 151.072 434.341 150.951 434.126 150.858 433.897 150.764 433.666 150.684 433.437 150.63 433.196 150.577 432.954 150.537 432.713 150.524 432.47 150.51 432.217 150.524 431.91 150.55 431.616 150.604 431.324 150.67 431.033 150.764 430.75 150.871 430.485 150.991 430.218 151.138 429.95 151.298 429.709 151.472 429.465 151.659 429.236 151.86 429.019 152.087 428.804 152.314 428.614 152.555 428.421 152.809 428.243 152.702 427.835 152.648 427.621 152.621 427.404 152.595 427.186 152.568 426.969 152.555 426.74 152.555 426.526 152.555 426.27 152.568 426.015 152.595 425.773 152.635 425.532 152.675 425.291 152.742 425.048 152.795 424.819 152.875 424.589 152.956 424.36 153.049 424.131 153.156 423.914 153.263 423.7 153.383 423.483 153.517 423.278 153.65 423.075 153.798 422.87 153.944 422.68 154.105 422.489 154.265 422.311 154.439 422.132 154.613 421.954 154.8 421.79 155 421.624 155.201 421.472 155.401 421.332 155.615 421.177 155.829 421.05 156.056 420.91 156.283 420.796 156.524 420.669 156.75 420.567 157.004 420.466 156.991 420.389 157.004 420.083 156.858 419.904 156.697 419.752 156.537 419.6 156.363 419.461 156.19 419.333 156.016 419.205 155.829 419.104 155.655 419Z" fill="#6880EA" fill-rule="evenodd"/><path d="M172.62 418.003 172.424 418.015 172.214 418.028 172.004 418.055 171.808 418.096 171.598 418.148 171.402 418.201 171.191 418.267 170.996 418.335 170.799 418.428 170.603 418.521 170.407 418.627 170.225 418.732 170.043 418.866 169.861 418.999 169.679 419.145 169.51 419.304 169.343 419.465 169.174 419.649 169.188 419.981 169.188 420.049 169.441 420.154 169.693 420.275 169.931 420.394 170.169 420.527 170.407 420.66 170.631 420.806 170.855 420.952 171.066 421.098 171.275 421.272 171.486 421.43 171.682 421.617 171.864 421.788 172.046 421.974 172.214 422.175 172.382 422.362 172.55 422.573 172.69 422.772 172.831 422.986 172.97 423.197 173.096 423.424 173.209 423.65 173.321 423.874 173.419 424.113 173.503 424.353 173.573 424.592 173.643 424.833 173.713 425.085 173.755 425.337 173.797 425.588 173.825 425.843 173.839 426.107 173.839 426.374 173.839 426.6 173.825 426.824 173.797 427.063 173.769 427.29 173.685 427.728 173.573 428.168 173.839 428.354 174.091 428.541 174.329 428.752 174.568 428.963 174.777 429.203 174.974 429.444 175.155 429.696 175.324 429.948 175.464 430.214 175.604 430.494 175.716 430.786 175.8 431.078 175.884 431.37 175.94 431.674 175.968 431.981 175.982 432.301 175.968 432.565 175.94 432.832 175.912 433.083 175.856 433.335 175.786 433.574 175.716 433.828 175.618 434.068 175.52 434.294 175.394 434.518 175.268 434.745 175.127 434.959 174.974 435.17 174.805 435.369 174.637 435.555 174.455 435.741 174.259 435.928 174.049 436.086 173.839 436.247 173.615 436.406 173.391 436.552 173.153 436.685 172.9 436.803 172.648 436.912 172.382 437.017 172.116 437.11 171.85 437.189 171.57 437.256 171.289 437.322 170.996 437.362 170.701 437.402 170.407 437.415 170.099 437.43 169.581 437.43 169.483 437.853 169.343 438.266 169.188 438.666 169.006 439.051 168.796 439.421 168.558 439.781 168.292 440.113 167.998 440.433 167.69 440.737 167.353 441.017 167.003 441.268 166.639 441.507 166.261 441.709 165.855 441.892 165.435 442.054 165.001 442.187 165.154 442.544 165.323 442.877 165.533 443.209 165.743 443.516 165.981 443.82 166.233 444.1 166.513 444.364 166.807 444.618 167.017 444.777 167.228 444.923 167.438 445.069 167.662 445.19 167.9 445.323 168.138 445.429 168.376 445.534 168.628 445.628 168.881 445.708 169.146 445.786 169.399 445.854 169.665 445.907 169.945 445.947 170.225 445.972 170.491 445.987 170.785 446 171.066 445.987 171.346 445.972 171.612 445.947 171.892 445.907 172.158 445.854 172.424 445.786 172.676 445.708 172.928 445.628 173.181 445.534 173.419 445.429 173.657 445.323 173.895 445.19 174.119 445.069 174.343 444.923 174.554 444.777 174.749 444.618 174.946 444.457 175.141 444.286 175.324 444.1 175.492 443.914 175.66 443.715 175.814 443.516 175.968 443.315 176.108 443.091 176.234 442.877 176.36 442.65 176.458 442.426 176.556 442.187 176.654 441.948 176.725 441.694 176.795 441.442 176.85 441.19 177.649 441.19 177.929 441.163 178.209 441.137 178.49 441.097 178.769 441.044 179.035 440.976 179.302 440.896 179.554 440.805 179.806 440.712 180.044 440.604 180.282 440.486 180.506 440.352 180.73 440.219 180.955 440.073 181.151 439.914 181.347 439.753 181.543 439.582 181.711 439.396 181.879 439.21 182.047 439.023 182.187 438.824 182.327 438.611 182.453 438.399 182.565 438.185 182.663 437.961 182.748 437.735 182.832 437.496 182.888 437.256 182.943 437.017 182.971 436.766 182.999 436.527 182.999 436.272 182.999 435.968 182.957 435.661 182.916 435.369 182.846 435.077 182.748 434.797 182.649 434.533 182.523 434.266 182.37 434 182.215 433.748 182.047 433.509 181.851 433.282 181.641 433.058 181.431 432.857 181.193 432.658 180.955 432.459 180.689 432.286 180.8 431.875 180.884 431.435 180.941 430.997 180.955 430.786 180.955 430.559 180.941 430.307 180.926 430.053 180.898 429.814 180.87 429.562 180.828 429.323 180.772 429.084 180.703 428.845 180.619 428.619 180.534 428.392 180.45 428.168 180.338 427.942 180.226 427.728 180.114 427.516 179.988 427.305 179.848 427.103 179.708 426.905 179.554 426.706 179.386 426.52 179.232 426.333 179.049 426.16 178.868 425.976 178.685 425.815 178.49 425.656 178.293 425.495 178.083 425.349 177.873 425.203 177.649 425.057 177.425 424.939 177.187 424.806 176.962 424.685 176.711 424.579 176.472 424.486 176.458 424.433 176.598 424.207 176.725 423.967 176.85 423.743 176.948 423.517 177.033 423.29 177.103 423.079 177.173 422.853 177.215 422.639 177.243 422.427 177.271 422.213 177.285 422.014 177.285 421.803 177.271 421.604 177.243 421.418 177.215 421.217 177.173 421.033 177.117 420.847 177.047 420.673 176.976 420.499 176.892 420.328 176.809 420.154 176.711 419.996 176.598 419.85 176.486 419.689 176.36 419.543 176.234 419.409 176.094 419.279 175.954 419.145 175.8 419.024 175.646 418.906 175.478 418.8 175.324 418.692 174.974 418.506 174.609 418.347 174.231 418.214 174.035 418.161 173.839 418.121 173.643 418.083 173.446 418.043 173.237 418.028 173.04 418.003Z" fill="#7E92FF" fill-rule="evenodd"/><path d="M170.345 419 170.158 419.104 169.984 419.205 169.811 419.333 169.637 419.461 169.464 419.6 169.303 419.752 169.143 419.904 168.996 420.083 168.996 420.389 168.996 420.466 169.25 420.567 169.477 420.669 169.718 420.796 169.944 420.91 170.172 421.05 170.385 421.177 170.599 421.332 170.8 421.472 171 421.624 171.201 421.79 171.387 421.954 171.561 422.132 171.735 422.311 171.895 422.489 172.056 422.68 172.203 422.87 172.35 423.075 172.484 423.278 172.617 423.483 172.737 423.7 172.844 423.914 172.951 424.131 173.044 424.36 173.125 424.589 173.192 424.819 173.258 425.048 173.325 425.291 173.365 425.532 173.405 425.773 173.432 426.015 173.446 426.27 173.446 426.526 173.446 426.74 173.432 426.969 173.405 427.186 173.379 427.404 173.298 427.835 173.192 428.243 173.446 428.421 173.686 428.614 173.913 428.804 174.141 429.019 174.341 429.236 174.528 429.465 174.702 429.709 174.862 429.95 175.009 430.218 175.129 430.485 175.236 430.75 175.33 431.033 175.396 431.324 175.45 431.616 175.477 431.91 175.49 432.217 175.477 432.47 175.463 432.713 175.423 432.954 175.37 433.196 175.316 433.437 175.236 433.666 175.143 433.897 175.049 434.126 174.929 434.341 174.809 434.558 174.675 434.763 174.528 434.953 174.367 435.156 174.207 435.334 174.033 435.513 173.847 435.679 173.646 435.843 173.446 435.997 173.232 436.149 173.018 436.289 172.791 436.417 172.55 436.53 172.31 436.634 172.056 436.735 171.802 436.825 171.548 436.899 171.281 436.964 171 437.027 170.733 437.066 170.452 437.104 170.158 437.116 169.878 437.131 169.37 437.131 169.276 437.536 169.156 437.931 169.009 438.315 168.822 438.684 168.621 439.038 168.395 439.383 168.141 439.701 167.873 440.008 167.579 440.299 167.258 440.567 166.924 440.808 166.577 441.037 166.203 441.242 165.815 441.421 165.415 441.572 165.001 441.7 165.161 442.031 165.321 442.375 165.521 442.694 165.735 442.998 166.15 442.846 166.55 442.694 166.938 442.501 167.325 442.298 167.686 442.069 168.034 441.828 168.368 441.572 168.675 441.293 168.982 440.999 169.263 440.683 169.53 440.364 169.771 440.02 169.998 439.675 170.198 439.306 170.385 438.925 170.546 438.544 170.84 438.505 171.147 438.467 171.441 438.416 171.735 438.351 172.029 438.276 172.31 438.187 172.59 438.083 172.871 437.982 173.138 437.869 173.405 437.741 173.673 437.601 173.927 437.449 174.167 437.283 174.407 437.116 174.648 436.938 174.875 436.747 175.116 436.518 175.356 436.277 175.584 436.034 175.784 435.78 175.971 435.513 176.145 435.233 176.305 434.965 176.452 434.674 176.586 434.379 176.693 434.088 176.786 433.781 176.867 433.475 176.92 433.171 176.973 432.853 177 432.535 177 432.217 177 431.898 176.973 431.58 176.92 431.262 176.867 430.943 176.786 430.637 176.679 430.345 176.573 430.039 176.439 429.745 176.305 429.465 176.145 429.185 175.971 428.906 175.77 428.65 175.57 428.397 175.356 428.141 175.116 427.912 174.875 427.683 174.889 427.606 174.915 427.341 174.942 427.059 174.956 426.793 174.969 426.526 174.956 426.246 174.942 425.978 174.915 425.711 174.889 425.455 174.835 425.187 174.782 424.92 174.728 424.667 174.648 424.411 174.568 424.158 174.475 423.902 174.381 423.661 174.274 423.418 174.154 423.176 174.02 422.947 173.887 422.706 173.753 422.477 173.593 422.26 173.446 422.031 173.272 421.828 173.098 421.611 172.911 421.407 172.724 421.204 172.537 421.013 172.323 420.821 172.123 420.645 171.895 420.466 171.668 420.288 171.441 420.121 171.201 419.969 170.96 419.815 170.706 419.663 170.452 419.523 170.412 419.256 170.345 419Z" fill="#6880EA" fill-rule="evenodd"/><path d="M162.77 415.002 162.498 415.015 162.242 415.042 161.985 415.082 161.728 415.119 161.485 415.173 161.243 415.225 161 415.289 161.428 415.433 161.842 415.616 162.242 415.811 162.613 416.021 162.97 416.269 163.298 416.531 163.612 416.817 163.883 417.117 164.14 417.443 164.254 417.614 164.368 417.782 164.468 417.952 164.554 418.135 164.639 418.318 164.725 418.501 164.782 418.684 164.854 418.88 164.896 419.075 164.939 419.27 164.968 419.468 164.996 419.664 165.01 419.871 165.01 420.082 165.01 420.146 165.282 420.25 165.524 420.368 165.781 420.485 166.024 420.616 166.267 420.747 166.495 420.89 166.723 421.034 166.937 421.189 167.151 421.348 167.365 421.516 167.565 421.686 167.751 421.869 167.936 422.052 168.108 422.235 168.279 422.431 168.45 422.626 168.593 422.836 168.75 423.044 168.878 423.254 169.006 423.474 169.121 423.697 169.235 423.919 169.335 424.154 169.42 424.389 169.506 424.624 169.578 424.859 169.635 425.106 169.677 425.356 169.72 425.603 169.749 425.863 169.763 426.113 169.777 426.372 169.763 426.595 169.749 426.83 169.734 427.052 169.706 427.275 169.62 427.717 169.492 428.148 169.763 428.318 170.034 428.514 170.277 428.724 170.505 428.931 170.719 429.154 170.919 429.389 171.104 429.636 171.276 429.898 171.433 430.158 171.561 430.432 171.676 430.707 171.775 431.009 171.847 431.295 171.904 431.595 171.932 431.896 171.946 432.208 171.946 432.47 171.918 432.732 171.875 432.979 171.832 433.227 171.761 433.474 171.676 433.709 171.59 433.946 171.476 434.181 171.362 434.401 171.233 434.611 171.076 434.834 170.919 435.029 170.762 435.225 170.577 435.42 170.391 435.603 170.191 435.774 169.991 435.942 169.763 436.1 169.535 436.256 169.306 436.399 169.063 436.53 168.807 436.646 168.55 436.753 168.279 436.857 168.007 436.948 167.737 437.025 167.451 437.092 167.165 437.156 166.866 437.195 166.566 437.235 166.267 437.247 165.952 437.262 165.41 437.262 165.324 437.653 165.196 438.058 165.039 438.437 164.854 438.8 164.654 439.154 164.426 439.493 164.168 439.819 163.897 440.133 163.597 440.42 163.283 440.694 162.941 440.942 162.584 441.177 162.213 441.387 161.828 441.57 161.414 441.738 161 441.869 161.229 441.936 161.471 442 164.582 442 164.825 441.936 165.053 441.881 165.267 441.805 165.496 441.726 165.924 441.555 166.338 441.347 166.723 441.125 167.108 440.865 167.451 440.591 167.794 440.289 168.093 439.977 168.379 439.636 168.635 439.273 168.864 438.892 169.063 438.513 169.149 438.306 169.235 438.11 169.306 437.9 169.363 437.678 169.42 437.47 169.464 437.262 170.006 437.262 170.32 437.247 170.619 437.235 170.919 437.195 171.218 437.156 171.504 437.092 171.79 437.025 172.075 436.948 172.346 436.857 172.603 436.753 172.86 436.646 173.117 436.53 173.359 436.399 173.588 436.256 173.816 436.1 174.044 435.942 174.244 435.774 174.444 435.603 174.63 435.42 174.815 435.225 174.987 435.029 175.129 434.834 175.286 434.611 175.415 434.401 175.529 434.181 175.643 433.946 175.729 433.709 175.814 433.474 175.885 433.227 175.942 432.979 175.971 432.732 176 432.47 176 432.208 176 431.896 175.957 431.595 175.9 431.295 175.828 431.009 175.729 430.707 175.614 430.432 175.486 430.158 175.329 429.898 175.172 429.636 174.987 429.389 174.772 429.154 174.559 428.931 174.33 428.724 174.087 428.514 173.816 428.318 173.545 428.148 173.673 427.717 173.759 427.275 173.787 427.052 173.802 426.83 173.816 426.595 173.831 426.372 173.816 426.113 173.802 425.863 173.773 425.603 173.73 425.356 173.688 425.106 173.631 424.859 173.559 424.624 173.474 424.389 173.388 424.154 173.288 423.919 173.174 423.697 173.06 423.474 172.931 423.254 172.803 423.044 172.646 422.836 172.503 422.626 172.332 422.431 172.175 422.235 171.989 422.052 171.804 421.869 171.618 421.686 171.419 421.516 171.204 421.348 170.99 421.189 170.776 421.034 170.548 420.89 170.32 420.747 170.077 420.616 169.835 420.485 169.592 420.368 169.335 420.25 169.063 420.146 169.078 420.082 169.063 419.819 169.035 419.557 169.006 419.31 168.949 419.05 168.878 418.815 168.793 418.566 168.707 418.331 168.593 418.096 168.479 417.873 168.336 417.653 168.193 417.443 168.036 417.235 167.865 417.04 167.694 416.842 167.508 416.659 167.308 416.491 167.094 416.32 166.866 416.165 166.638 416.006 166.409 415.863 166.166 415.734 165.91 415.616 165.653 415.499 165.381 415.393 165.11 415.302 164.825 415.225 164.54 415.158 164.254 415.106 163.954 415.054 163.64 415.027 163.341 415.002Z" fill="#6880EA" fill-rule="evenodd"/><path d="M163.396 421.003 163.242 421.015 163.089 421.055 162.949 421.096 162.81 421.161 162.684 421.227 162.558 421.308 162.447 421.401 162.349 421.507 162.265 421.628 162.182 421.746 162.112 421.867 162.07 422.001 162.028 422.147 162.001 422.293 162.001 422.452 162.001 452 165 452 165 422.465 165 422.318 164.972 422.185 164.944 422.039 164.889 421.908 164.833 421.787 164.763 421.668 164.679 421.547 164.582 421.454 164.484 421.348 164.372 421.267 164.247 421.187 164.121 421.121 163.981 421.068 163.842 421.028 163.702 421.003Z" fill="#F46545" fill-rule="evenodd"/><path d="M154.234 445.855 154.675 445.932 155.13 445.972 155.585 445.984 156.026 445.972 156.026 450.814 154.234 450.814 154.234 445.855ZM162.959 415.226 163.207 415.238 163.455 415.251 163.703 415.278 163.951 415.318 164.199 415.371 164.434 415.423 164.668 415.488 164.902 415.567 165.123 415.66 165.344 415.752 165.564 415.857 165.771 415.976 165.977 416.093 166.17 416.225 166.363 416.37 166.556 416.514 166.721 416.674 166.887 416.831 167.052 417.003 167.204 417.187 167.342 417.369 167.48 417.554 167.59 417.753 167.7 417.962 167.797 418.172 167.893 418.383 167.962 418.608 168.031 418.844 168.072 419.069 168.114 419.305 168.142 419.555 168.155 419.804 168.155 419.884 168.169 419.963 168.197 420.041 168.238 420.12 168.293 420.185 168.362 420.237 168.431 420.292 168.5 420.33 168.775 420.449 169.051 420.581 169.313 420.711 169.561 420.858 169.809 421.015 170.057 421.187 170.278 421.356 170.498 421.541 170.719 421.738 170.926 421.934 171.119 422.146 171.298 422.371 171.477 422.592 171.643 422.817 171.794 423.053 171.945 423.29 172.07 423.542 172.194 423.791 172.304 424.053 172.401 424.317 172.483 424.581 172.552 424.843 172.607 425.119 172.648 425.396 172.676 425.672 172.69 425.949 172.69 426.226 172.676 426.515 172.648 426.791 172.593 427.08 172.538 427.357 172.456 427.646 172.442 427.723 172.442 427.815 172.442 427.908 172.469 427.987 172.511 428.067 172.552 428.132 172.621 428.199 172.69 428.264 172.91 428.409 173.131 428.566 173.324 428.737 173.503 428.922 173.682 429.106 173.834 429.303 173.985 429.5 174.124 429.712 174.234 429.921 174.344 430.133 174.441 430.355 174.523 430.579 174.592 430.816 174.647 431.04 174.688 431.277 174.716 431.514 174.73 431.75 174.73 431.987 174.716 432.224 174.688 432.46 174.647 432.685 174.606 432.922 174.537 433.146 174.454 433.383 174.358 433.604 174.247 433.816 174.124 434.025 173.985 434.237 173.834 434.447 173.668 434.643 173.49 434.828 173.296 435.012 173.076 435.184 172.855 435.356 172.621 435.501 172.373 435.645 172.125 435.762 171.877 435.882 171.615 435.974 171.339 436.066 171.077 436.131 170.802 436.196 170.526 436.251 170.237 436.288 169.961 436.316 169.671 436.328 169.396 436.343 169.01 436.343 168.913 436.368 168.817 436.408 168.748 436.46 168.665 436.54 168.61 436.605 168.569 436.697 168.541 436.789 168.458 437.145 168.362 437.474 168.238 437.803 168.1 438.117 167.935 438.434 167.755 438.723 167.549 438.999 167.328 439.276 167.094 439.525 166.846 439.774 166.57 439.999 166.294 440.211 165.991 440.407 165.688 440.579 165.357 440.736 165.027 440.868 165.027 433.171 165.013 433.054 164.971 432.946 164.916 432.842 164.833 432.764 164.737 432.685 164.626 432.645 164.503 432.617 164.365 432.617 164.254 432.645 164.158 432.685 164.075 432.737 163.993 432.817 163.938 432.894 163.896 432.986 163.868 433.091 163.855 433.198 163.855 450.814 162.049 450.814 162.049 422.159 162.09 421.962 162.132 421.805 162.215 421.66 162.311 421.541 162.38 421.488 162.435 421.436 162.587 421.356 162.766 421.304 162.959 421.277 163.042 421.292 163.138 421.304 163.22 421.316 163.304 421.344 163.386 421.384 163.455 421.436 163.524 421.476 163.593 421.541 163.648 421.593 163.703 421.673 163.745 421.738 163.786 421.817 163.813 421.897 163.841 421.974 163.855 422.066 163.855 422.159 163.855 430.763 163.868 430.883 163.91 431 163.965 431.105 164.048 431.185 164.144 431.249 164.254 431.302 164.379 431.329 164.516 431.329 164.626 431.302 164.723 431.264 164.806 431.197 164.875 431.132 164.943 431.04 164.985 430.948 165.013 430.856 165.027 430.751 165.027 428.159 168.431 426.699 168.528 426.647 168.61 426.579 168.679 426.5 168.734 426.408 168.775 426.318 168.789 426.226 168.789 426.118 168.762 426.014 168.72 425.897 168.638 425.804 168.555 425.725 168.444 425.66 168.334 425.633 168.21 425.62 168.086 425.633 167.962 425.672 165.027 426.921 165.027 422.238 165.013 422.042 164.985 421.842 164.93 421.645 164.861 421.461 164.778 421.292 164.668 421.132 164.558 420.975 164.42 420.843 164.268 420.711 164.117 420.594 163.938 420.502 163.758 420.409 163.565 420.345 163.372 420.292 163.165 420.265 162.959 420.252 162.724 420.292 162.504 420.33 162.297 420.382 162.118 420.449 161.939 420.529 161.773 420.619 161.622 420.726 161.484 420.83 161.36 420.963 161.25 421.107 161.153 421.264 161.07 421.436 161.002 421.62 160.946 421.805 160.905 422.014 160.878 422.238 160.878 433.171 157.487 431.723 157.377 431.685 157.266 431.671 157.156 431.685 157.046 431.71 156.949 431.75 156.853 431.815 156.784 431.895 156.729 431.999 156.687 432.107 156.674 432.211 156.687 432.316 156.715 432.421 156.756 432.513 156.825 432.605 156.908 432.672 157.018 432.737 160.878 434.394 160.878 440.868 160.547 440.736 160.216 440.579 159.913 440.395 159.609 440.196 159.334 439.986 159.058 439.762 158.81 439.513 158.576 439.264 158.355 438.987 158.148 438.71 157.969 438.406 157.804 438.105 157.666 437.788 157.542 437.459 157.445 437.13 157.363 436.789 157.335 436.697 157.294 436.605 157.238 436.54 157.17 436.46 157.087 436.408 156.991 436.368 156.894 436.343 156.274 436.343 156.012 436.328 155.75 436.303 155.502 436.276 155.24 436.223 154.992 436.171 154.744 436.106 154.496 436.026 154.248 435.947 154.013 435.842 153.779 435.737 153.559 435.63 153.338 435.501 153.131 435.369 152.924 435.224 152.717 435.08 152.539 434.92 152.359 434.751 152.194 434.566 152.028 434.382 151.877 434.197 151.739 434.001 151.615 433.789 151.505 433.567 151.408 433.343 151.325 433.118 151.257 432.882 151.201 432.632 151.16 432.381 151.133 432.119 151.119 431.855 151.133 431.593 151.16 431.317 151.201 431.053 151.27 430.791 151.353 430.539 151.45 430.29 151.56 430.053 151.698 429.816 151.836 429.58 152.001 429.368 152.166 429.159 152.359 428.962 152.552 428.765 152.759 428.581 152.979 428.421 153.214 428.264 153.283 428.199 153.352 428.132 153.393 428.067 153.434 427.987 153.462 427.908 153.476 427.815 153.462 427.723 153.449 427.646 153.365 427.357 153.31 427.065 153.255 426.776 153.228 426.5 153.214 426.211 153.214 425.934 153.228 425.66 153.255 425.383 153.297 425.107 153.352 424.83 153.42 424.566 153.504 424.304 153.6 424.04 153.71 423.778 153.834 423.527 153.958 423.29 154.11 423.041 154.262 422.804 154.427 422.58 154.592 422.356 154.785 422.146 154.978 421.934 155.185 421.738 155.405 421.541 155.626 421.356 155.846 421.187 156.095 421.015 156.343 420.858 156.591 420.711 156.853 420.581 157.128 420.449 157.404 420.33 157.473 420.292 157.556 420.237 157.611 420.185 157.666 420.12 157.707 420.041 157.735 419.963 157.749 419.884 157.763 419.804 157.763 419.555 157.79 419.305 157.831 419.069 157.873 418.844 157.941 418.608 158.011 418.383 158.107 418.172 158.203 417.962 158.314 417.753 158.438 417.554 158.562 417.369 158.7 417.187 158.851 417.003 159.017 416.831 159.182 416.674 159.361 416.514 159.541 416.37 159.733 416.225 159.926 416.093 160.133 415.976 160.34 415.857 160.561 415.752 160.781 415.66 161.002 415.567 161.236 415.488 161.47 415.423 161.718 415.371 161.953 415.318 162.201 415.278 162.449 415.251 162.697 415.238 162.959 415.226ZM171.367 445.907 171.367 450.814 169.561 450.814 169.561 445.947 170.016 445.984 170.471 445.984 170.912 445.972 171.367 445.907ZM162.973 414.003 162.697 414.015 162.421 414.027 162.145 414.055 161.884 414.082 161.622 414.135 161.36 414.187 161.098 414.252 160.85 414.319 160.602 414.396 160.367 414.488 160.133 414.593 159.899 414.7 159.678 414.817 159.458 414.937 159.237 415.069 159.03 415.199 158.838 415.343 158.631 415.488 158.452 415.647 158.272 415.817 158.093 415.989 157.941 416.161 157.776 416.345 157.624 416.529 157.487 416.726 157.363 416.923 157.238 417.132 157.128 417.332 157.018 417.554 156.921 417.765 156.839 417.99 156.77 418.211 156.577 418.082 156.398 417.95 156.205 417.83 155.998 417.725 155.805 417.633 155.599 417.541 155.405 417.476 155.199 417.397 154.992 417.344 154.785 417.292 154.579 417.252 154.372 417.212 154.165 417.187 153.958 417.172 153.751 417.16 153.545 417.16 153.131 417.187 152.717 417.24 152.318 417.317 151.932 417.424 151.56 417.554 151.201 417.713 150.857 417.897 150.54 418.094 150.347 418.226 150.181 418.356 150.016 418.5 149.864 418.648 149.713 418.805 149.575 418.962 149.451 419.121 149.327 419.278 149.216 419.45 149.12 419.619 149.024 419.804 148.941 419.976 148.872 420.16 148.803 420.357 148.748 420.541 148.707 420.726 148.665 420.923 148.638 421.12 148.624 421.304 148.61 421.501 148.61 421.698 148.61 421.91 148.638 422.106 148.652 422.303 148.693 422.5 148.734 422.699 148.789 422.896 148.844 423.093 148.914 423.29 148.996 423.487 149.079 423.686 149.175 423.871 148.748 424.092 148.348 424.329 147.949 424.593 147.577 424.882 147.232 425.184 146.901 425.513 146.598 425.842 146.308 426.211 146.253 426.303 146.212 426.408 146.198 426.515 146.212 426.619 146.24 426.724 146.281 426.829 146.35 426.908 146.446 426.988 146.557 427.04 146.653 427.08 146.763 427.093 146.874 427.093 146.97 427.053 147.066 427.013 147.163 426.948 147.26 426.856 147.397 426.684 147.549 426.5 147.7 426.343 147.852 426.171 148.196 425.869 148.555 425.58 148.927 425.304 149.327 425.067 149.754 424.843 150.195 424.658 150.25 424.618 150.306 424.593 150.361 424.541 150.402 424.501 150.485 424.382 150.526 424.264 150.554 424.132 150.54 424.015 150.512 423.883 150.457 423.778 150.333 423.567 150.223 423.37 150.126 423.173 150.044 422.976 149.961 422.792 149.906 422.592 149.851 422.41 149.809 422.238 149.782 422.054 149.754 421.882 149.754 421.698 149.741 421.541 149.754 421.369 149.768 421.212 149.796 421.055 149.837 420.895 149.878 420.751 149.919 420.606 150.044 420.317 150.195 420.053 150.361 419.816 150.554 419.58 150.761 419.37 150.981 419.186 151.215 419.001 151.491 418.829 151.781 418.685 152.084 418.555 152.401 418.448 152.731 418.371 153.076 418.319 153.42 418.291 153.765 418.291 154.123 418.319 154.468 418.371 154.647 418.423 154.826 418.463 154.992 418.528 155.171 418.593 155.337 418.66 155.502 418.752 155.667 418.844 155.833 418.937 155.985 419.054 156.136 419.173 156.302 419.305 156.439 419.435 155.985 419.672 155.544 419.923 155.13 420.2 154.73 420.502 154.344 420.83 153.986 421.172 153.655 421.541 153.352 421.922 153.186 422.146 153.035 422.383 152.883 422.62 152.759 422.869 152.635 423.106 152.511 423.357 152.415 423.619 152.318 423.871 152.235 424.132 152.166 424.396 152.111 424.658 152.056 424.922 152.015 425.199 151.987 425.461 151.973 425.737 151.959 426.014 151.973 426.408 152.015 426.791 152.07 427.185 152.153 427.566 151.918 427.751 151.684 427.948 151.477 428.144 151.27 428.356 151.078 428.581 150.898 428.802 150.733 429.039 150.581 429.276 150.416 429.592 150.278 429.896 150.154 430.225 150.044 430.539 149.961 430.883 149.906 431.212 149.878 431.553 149.864 431.895 149.864 432.039 149.878 432.184 149.906 432.328 149.933 432.46 150.016 432.75 150.14 433.026 150.278 433.303 150.457 433.567 150.65 433.829 150.857 434.078 151.091 434.329 151.339 434.566 151.601 434.803 151.877 435.04 152.166 435.264 152.456 435.473 152.745 435.67 153.048 435.867 153.641 436.236 154.22 436.552 154.758 436.841 155.24 437.078 155.654 437.263 155.971 437.407 156.232 437.512 156.329 437.512 156.398 437.763 156.48 438 156.577 438.237 156.674 438.474 156.784 438.71 156.908 438.935 157.032 439.156 157.17 439.368 157.322 439.592 157.473 439.789 157.638 439.999 157.804 440.183 157.983 440.38 158.162 440.564 158.369 440.736 158.562 440.908 158.783 441.078 159.017 441.237 159.251 441.394 159.486 441.539 159.733 441.671 159.995 441.788 160.244 441.908 160.506 442.012 160.326 442.329 160.12 442.63 159.899 442.919 159.651 443.183 159.375 443.433 159.1 443.669 158.796 443.894 158.479 444.09 158.148 444.275 157.818 444.432 157.459 444.564 157.101 444.684 156.743 444.761 156.37 444.828 155.998 444.868 155.612 444.88 155.364 444.88 155.13 444.868 154.882 444.841 154.647 444.801 154.413 444.761 154.179 444.696 153.944 444.631 153.724 444.564 153.504 444.487 153.283 444.395 153.076 444.287 152.869 444.183 152.676 444.066 152.47 443.946 152.29 443.814 152.098 443.669 151.932 443.525 151.753 443.368 151.587 443.208 151.436 443.039 151.284 442.867 151.146 442.683 151.023 442.498 150.898 442.314 150.774 442.117 150.664 441.908 150.567 441.696 150.485 441.486 150.402 441.275 150.333 441.053 150.278 440.816 150.223 440.592 150.195 440.5 150.154 440.407 150.099 440.328 150.016 440.263 149.933 440.211 149.851 440.171 149.754 440.143 149.644 440.131 149.106 440.131 148.831 440.118 148.555 440.091 148.293 440.051 148.018 439.999 147.756 439.934 147.493 439.867 147.232 439.789 146.984 439.685 146.736 439.578 146.502 439.46 146.267 439.328 146.033 439.184 145.826 439.027 145.619 438.855 145.44 438.698 145.288 438.526 145.137 438.369 144.999 438.197 144.861 438.013 144.751 437.828 144.64 437.644 144.544 437.459 144.462 437.263 144.379 437.066 144.323 436.854 144.268 436.657 144.227 436.448 144.199 436.236 144.172 436.026 144.172 435.815 144.186 435.553 144.213 435.301 144.255 435.052 144.31 434.815 144.393 434.566 144.475 434.329 144.585 434.093 144.71 433.868 144.847 433.644 144.999 433.435 145.164 433.238 145.343 433.039 145.537 432.842 145.743 432.672 145.964 432.5 146.184 432.343 146.267 432.289 146.322 432.224 146.377 432.144 146.418 432.067 146.432 431.987 146.446 431.895 146.446 431.803 146.418 431.723 146.336 431.394 146.267 431.08 146.226 430.736 146.198 430.407 146.198 430.066 146.212 429.737 146.253 429.408 146.308 429.079 146.308 428.947 146.295 428.83 146.253 428.725 146.184 428.618 146.088 428.526 145.977 428.461 145.854 428.421 145.715 428.409 145.619 428.421 145.523 428.448 145.426 428.488 145.357 428.541 145.275 428.618 145.219 428.698 145.178 428.777 145.151 428.882 145.096 429.211 145.054 429.567 145.026 429.909 145.026 430.263 145.04 430.619 145.068 430.96 145.123 431.302 145.192 431.646 144.944 431.842 144.71 432.052 144.475 432.276 144.268 432.5 144.076 432.75 143.896 433.001 143.731 433.25 143.579 433.512 143.441 433.789 143.331 434.065 143.234 434.342 143.152 434.631 143.083 434.92 143.042 435.209 143.014 435.513 143.001 435.815 143.014 436.079 143.028 436.355 143.069 436.617 143.124 436.881 143.179 437.145 143.262 437.407 143.359 437.656 143.469 437.908 143.593 438.145 143.731 438.381 143.882 438.618 144.034 438.842 144.213 439.064 144.406 439.276 144.613 439.473 144.82 439.67 145.04 439.854 145.275 440.039 145.509 440.196 145.757 440.355 146.005 440.487 146.267 440.617 146.529 440.736 146.805 440.841 147.08 440.933 147.37 441.013 147.659 441.09 147.949 441.145 148.238 441.197 148.541 441.222 148.844 441.25 149.175 441.25 149.286 441.618 149.423 441.96 149.575 442.301 149.741 442.63 149.933 442.959 150.14 443.263 150.361 443.552 150.609 443.841 150.871 444.103 151.146 444.355 151.422 444.591 151.726 444.801 152.042 445.013 152.373 445.197 152.704 445.366 153.062 445.511 153.062 451.367 153.062 451.484 153.104 451.591 153.159 451.681 153.228 451.761 153.31 451.828 153.42 451.88 153.531 451.92 153.641 451.933 156.619 451.933 156.729 451.92 156.839 451.88 156.949 451.828 157.032 451.761 157.101 451.681 157.156 451.591 157.197 451.484 157.197 451.367 157.197 445.867 157.473 445.802 157.735 445.723 157.997 445.631 158.259 445.526 158.507 445.406 158.755 445.289 159.003 445.145 159.237 444.998 159.472 444.841 159.706 444.684 159.926 444.512 160.133 444.327 160.34 444.143 160.519 443.958 160.712 443.749 160.878 443.552 160.878 451.444 160.891 451.551 160.933 451.656 160.974 451.761 161.057 451.841 161.14 451.905 161.236 451.958 161.346 451.985 161.47 451.997 164.475 451.997 164.558 451.958 164.654 451.893 164.765 451.813 164.861 451.721 164.957 451.629 164.985 451.576 165.013 451.512 165.027 451.459 165.027 451.407 165.027 443.5 165.192 443.697 165.357 443.881 165.536 444.051 165.73 444.235 165.922 444.395 166.115 444.564 166.322 444.708 166.543 444.853 166.763 444.998 166.983 445.13 167.204 445.249 167.439 445.366 167.673 445.474 167.907 445.563 168.155 445.655 168.389 445.735 168.389 451.407 168.389 451.459 168.417 451.512 168.444 451.564 168.486 451.616 168.569 451.708 168.679 451.773 168.789 451.841 168.886 451.893 168.968 451.933 171.945 451.933 172.07 451.92 172.18 451.88 172.276 451.828 172.359 451.761 172.442 451.681 172.497 451.591 172.525 451.484 172.538 451.367 172.538 445.67 172.924 445.526 173.296 445.366 173.655 445.17 173.999 444.973 174.33 444.748 174.633 444.499 174.923 444.235 175.199 443.958 175.46 443.669 175.708 443.368 175.929 443.051 176.136 442.722 176.329 442.381 176.494 442.025 176.646 441.671 176.784 441.302 177.128 441.29 177.486 441.262 177.831 441.222 178.176 441.157 178.286 441.13 178.383 441.078 178.465 441.013 178.534 440.946 178.589 440.853 178.631 440.761 178.658 440.657 178.658 440.552 178.631 440.432 178.575 440.328 178.507 440.235 178.41 440.158 178.314 440.103 178.189 440.066 178.066 440.051 177.942 440.066 177.749 440.103 177.542 440.131 177.128 440.171 176.701 440.196 176.177 440.196 176.081 440.223 175.998 440.263 175.915 440.315 175.847 440.38 175.777 440.46 175.736 440.552 175.708 440.644 175.667 440.868 175.598 441.09 175.53 441.314 175.46 441.526 175.364 441.736 175.268 441.947 175.157 442.144 175.047 442.341 174.923 442.526 174.785 442.71 174.647 442.894 174.496 443.064 174.33 443.236 174.179 443.393 173.999 443.552 173.82 443.697 173.641 443.829 173.448 443.958 173.255 444.09 173.062 444.21 172.855 444.315 172.648 444.419 172.428 444.512 172.207 444.591 171.987 444.669 171.767 444.736 171.532 444.788 171.298 444.828 171.064 444.868 170.829 444.893 170.595 444.908 170.347 444.92 169.975 444.908 169.603 444.868 169.231 444.801 168.872 444.708 168.514 444.604 168.169 444.459 167.825 444.302 167.508 444.13 167.19 443.934 166.887 443.709 166.611 443.485 166.349 443.223 166.102 442.959 165.867 442.67 165.66 442.369 165.481 442.065 165.867 441.908 166.225 441.736 166.584 441.539 166.915 441.327 167.246 441.105 167.549 440.853 167.852 440.592 168.128 440.303 168.389 440.014 168.624 439.71 168.845 439.381 169.051 439.039 169.231 438.698 169.382 438.342 169.52 437.973 169.644 437.591 169.699 437.591 170.222 437.474 170.802 437.33 171.491 437.13 171.863 437.026 172.235 436.894 172.607 436.749 172.979 436.605 173.324 436.433 173.655 436.263 173.944 436.079 174.069 435.987 174.192 435.894 174.413 435.685 174.62 435.473 174.813 435.264 174.992 435.027 175.157 434.803 175.323 434.554 175.46 434.315 175.585 434.065 175.695 433.804 175.791 433.54 175.874 433.275 175.943 433.001 175.998 432.737 176.039 432.448 176.067 432.171 176.067 431.895 176.067 431.578 176.026 431.264 175.984 430.96 175.915 430.659 175.833 430.37 175.722 430.066 175.612 429.777 175.475 429.5 175.309 429.223 175.144 428.962 174.95 428.71 174.743 428.461 174.523 428.224 174.303 427.987 174.041 427.778 173.779 427.566 173.848 427.25 173.903 426.948 173.944 426.632 173.958 426.318 173.958 426.014 173.958 425.712 173.93 425.408 173.889 425.107 173.848 424.803 173.779 424.501 173.696 424.212 173.613 423.923 173.503 423.634 173.393 423.357 173.255 423.081 173.117 422.804 172.965 422.54 172.8 422.278 172.621 422.027 172.442 421.777 172.249 421.541 172.042 421.304 171.822 421.08 171.601 420.858 171.367 420.646 171.119 420.449 170.87 420.265 170.609 420.08 170.347 419.896 170.071 419.739 169.782 419.58 169.492 419.435 169.644 419.305 169.795 419.173 169.947 419.054 170.112 418.937 170.264 418.844 170.429 418.752 170.595 418.66 170.774 418.593 170.94 418.528 171.119 418.463 171.284 418.423 171.463 418.371 171.808 418.319 172.166 418.291 172.511 418.291 172.855 418.319 173.2 418.371 173.531 418.448 173.848 418.555 174.151 418.685 174.441 418.829 174.716 419.001 174.895 419.133 175.047 419.251 175.199 419.383 175.323 419.527 175.446 419.659 175.557 419.804 175.653 419.948 175.75 420.108 175.833 420.252 175.902 420.409 175.957 420.566 175.998 420.738 176.039 420.895 176.067 421.067 176.094 421.224 176.108 421.396 176.108 421.738 176.081 422.081 176.026 422.423 175.943 422.777 175.833 423.121 175.695 423.462 175.557 423.791 175.391 424.12 175.391 424.212 175.405 424.289 175.433 424.369 175.475 424.436 175.53 424.514 175.598 424.566 175.667 424.618 175.75 424.658 176.012 424.765 176.274 424.895 176.522 425.027 176.77 425.171 177.004 425.316 177.239 425.488 177.459 425.66 177.68 425.829 177.886 426.014 178.079 426.211 178.273 426.422 178.451 426.619 178.617 426.844 178.782 427.065 178.92 427.29 179.058 427.526 179.196 427.763 179.306 428 179.416 428.252 179.499 428.501 179.582 428.765 179.65 429.014 179.706 429.276 179.747 429.552 179.775 429.816 179.789 430.078 179.789 430.355 179.775 430.631 179.747 430.896 179.706 431.172 179.637 431.449 179.568 431.723 179.54 431.815 179.54 431.895 179.554 431.987 179.582 432.067 179.609 432.144 179.665 432.224 179.734 432.289 179.802 432.343 180.037 432.5 180.257 432.672 180.464 432.854 180.657 433.039 180.836 433.238 181.001 433.447 181.153 433.659 181.291 433.881 181.415 434.105 181.512 434.342 181.608 434.579 181.69 434.815 181.745 435.065 181.787 435.316 181.815 435.565 181.829 435.815 181.815 436.039 181.801 436.251 181.774 436.46 181.732 436.672 181.677 436.869 181.608 437.066 181.539 437.275 181.456 437.459 181.346 437.656 181.249 437.841 181.126 438.025 181.001 438.197 180.864 438.381 180.712 438.538 180.547 438.71 180.381 438.867 180.298 438.935 180.216 439.027 180.161 439.131 180.119 439.249 180.106 439.356 180.119 439.473 180.133 439.538 180.174 439.592 180.202 439.645 180.257 439.71 180.312 439.749 180.368 439.789 180.478 439.854 180.602 439.882 180.726 439.882 180.85 439.867 180.96 439.829 181.071 439.762 181.167 439.685 181.387 439.485 181.594 439.288 181.774 439.079 181.952 438.855 182.118 438.631 182.27 438.394 182.407 438.157 182.532 437.92 182.628 437.671 182.724 437.419 182.807 437.158 182.876 436.894 182.931 436.632 182.959 436.368 182.986 436.091 183 435.815 182.986 435.526 182.959 435.224 182.917 434.92 182.849 434.631 182.766 434.354 182.669 434.065 182.545 433.789 182.421 433.512 182.27 433.25 182.104 433.001 181.925 432.75 181.718 432.513 181.512 432.276 181.291 432.067 181.056 431.855 180.795 431.658 180.864 431.357 180.905 431.053 180.946 430.763 180.96 430.474 180.974 430.17 180.96 429.881 180.932 429.592 180.905 429.303 180.85 429.014 180.795 428.737 180.726 428.461 180.629 428.184 180.533 427.908 180.423 427.646 180.312 427.382 180.174 427.12 180.037 426.869 179.885 426.619 179.72 426.37 179.54 426.133 179.361 425.909 179.168 425.685 178.961 425.461 178.755 425.251 178.534 425.054 178.3 424.858 178.066 424.673 177.817 424.489 177.57 424.317 177.308 424.16 177.032 424.015 176.756 423.871 176.852 423.686 176.935 423.487 177.018 423.29 177.087 423.093 177.156 422.896 177.197 422.699 177.239 422.5 177.28 422.303 177.308 422.106 177.321 421.91 177.321 421.698 177.321 421.501 177.308 421.316 177.294 421.12 177.266 420.923 177.225 420.726 177.183 420.541 177.128 420.357 177.059 420.16 176.991 419.988 176.908 419.804 176.811 419.619 176.715 419.45 176.605 419.278 176.48 419.121 176.356 418.962 176.219 418.805 176.081 418.648 175.915 418.5 175.75 418.356 175.585 418.226 175.405 418.094 175.074 417.897 174.73 417.713 174.371 417.554 173.999 417.424 173.613 417.317 173.214 417.24 172.8 417.187 172.401 417.16 172.194 417.16 171.987 417.172 171.767 417.187 171.56 417.212 171.353 417.252 171.146 417.292 170.94 417.344 170.733 417.397 170.526 417.476 170.333 417.541 170.126 417.633 169.933 417.725 169.74 417.83 169.548 417.95 169.354 418.082 169.161 418.211 169.092 417.99 169.01 417.765 168.913 417.554 168.803 417.332 168.693 417.132 168.569 416.923 168.444 416.726 168.307 416.529 168.155 416.345 168.004 416.161 167.838 415.989 167.659 415.817 167.48 415.647 167.301 415.488 167.108 415.343 166.901 415.199 166.694 415.069 166.488 414.937 166.267 414.817 166.033 414.7 165.812 414.593 165.578 414.488 165.33 414.396 165.082 414.319 164.833 414.252 164.571 414.187 164.324 414.135 164.062 414.082 163.786 414.055 163.524 414.027 163.249 414.015 162.973 414.003Z" fill="#5D5D6D" fill-rule="evenodd"/></g></svg>