<svg width="60" height="60" xmlns="http://www.w3.org/2000/svg" xmlns:xlink="http://www.w3.org/1999/xlink" overflow="hidden"><defs><clipPath id="clip0"><rect x="832" y="183" width="60" height="60"/></clipPath></defs><g clip-path="url(#clip0)" transform="translate(-832 -183)"><path d="M862.497 186.284C877.506 186.284 889.652 198.429 889.652 213.5 889.652 228.507 877.442 240.652 862.497 240.652 847.489 240.652 835.279 228.507 835.279 213.5 835.279 198.429 847.489 186.284 862.497 186.284ZM862.497 184.505C854.806 184.505 847.489 187.491 841.961 192.96 836.491 198.493 833.5 205.804 833.5 213.5 833.5 221.196 836.491 228.507 841.961 233.976 847.489 239.509 854.806 242.495 862.497 242.495 870.194 242.495 877.506 239.509 882.976 233.976 888.509 228.507 891.5 221.196 891.5 213.5 891.5 205.804 888.509 198.493 882.976 192.96 877.506 187.491 870.194 184.505 862.497 184.505Z" stroke="#005A35" stroke-linejoin="round" stroke-miterlimit="10" fill="#005A35" fill-rule="evenodd"/><path d="M862.484 196.505C856.549 196.505 850.631 196.841 844.76 197.517 843.235 197.712 842.03 198.934 841.774 200.352 840.505 209.045 840.505 217.939 841.774 226.632 842.03 228.114 843.235 229.272 844.76 229.402 850.599 230.046 856.565 230.495 862.532 230.495 865.075 230.495 867.613 230.365 870.152 230.305 870.594 230.305 870.978 229.916 870.978 229.337 870.978 228.758 870.535 228.369 870.024 228.369 867.432 228.493 864.836 228.553 862.233 228.553 856.486 228.553 850.716 228.244 844.947 227.536 844.312 227.471 843.806 227.016 843.678 226.243 842.537 217.744 842.537 209.045 843.678 200.482 843.806 199.838 844.312 199.324 844.947 199.194 850.855 198.55 856.693 198.226 862.596 198.226 868.44 198.226 874.343 198.55 880.181 199.194 880.816 199.324 881.391 199.773 881.45 200.482 882.661 209.045 882.661 217.744 881.45 226.243 881.391 226.886 880.816 227.471 880.181 227.536 878.278 227.79 876.502 227.985 874.598 228.114 874.087 228.114 873.708 228.563 873.708 229.012 873.708 229.553 874.087 229.921 874.55 229.921 874.588 229.921 874.62 229.921 874.657 229.916 876.566 229.721 878.47 229.597 880.373 229.337 881.898 229.142 883.039 227.985 883.295 226.502 884.5 217.939 884.5 209.045 883.231 200.352 882.975 198.805 881.77 197.712 880.309 197.517 874.375 196.841 868.424 196.505 862.484 196.505Z" stroke="#005A35" stroke-linejoin="round" stroke-miterlimit="10" fill="#005A35" fill-rule="evenodd"/><path d="M857.215 206.817 869.686 213.484 857.215 220.089 857.215 206.817ZM856.337 204.505C856.193 204.505 856.055 204.536 855.931 204.593 855.685 204.78 855.505 205.091 855.505 205.397L855.505 221.572C855.505 221.878 855.623 222.189 855.931 222.37 856.116 222.433 856.239 222.495 856.419 222.495 856.542 222.495 856.727 222.495 856.789 222.433L872.069 214.35C872.377 214.164 872.5 213.853 872.5 213.547 872.5 213.173 872.377 212.868 872.069 212.681L856.789 204.593C856.635 204.536 856.481 204.505 856.337 204.505Z" stroke="#005A35" stroke-linejoin="round" stroke-miterlimit="10" fill="#005A35" fill-rule="evenodd"/></g></svg>